<svg xmlns="http://www.w3.org/2000/svg" data-name="Layer 1" viewBox="0 0 64 64"><path fill="#edebf1" d="M26 52h12v4a4 4 0 0 1-4 4h-4a4 4 0 0 1-4-4v-4Z"/><path fill="#f26674" d="M31 18a2.962 2.962 0 0 1 1 .184V12a16 16 0 0 0-16 16h6.184A2.962 2.962 0 0 0 22 29a3 3 0 0 0 6 0 2.962 2.962 0 0 0-.184-1H32v-4.184A2.962 2.962 0 0 1 31 24a3 3 0 0 1 0-6Z"/><path fill="#fbdb75" d="M33 32a2.962 2.962 0 0 0-1 .184V28h-4.184A2.962 2.962 0 0 1 28 29a3 3 0 0 1-6 0 2.962 2.962 0 0 1 .184-1H16a16 16 0 0 0 10 14.826V46h6v-8.184A2.962 2.962 0 0 0 33 38a3 3 0 0 0 0-6Z"/><path fill="#b3de8a" d="M41.816 28A2.962 2.962 0 0 0 42 27a3 3 0 0 0-6 0 2.962 2.962 0 0 0 .184 1H32v4.184A2.962 2.962 0 0 1 33 32a3 3 0 0 1 0 6 2.962 2.962 0 0 1-1-.184V46h6v-3.174A16 16 0 0 0 48 28Z"/><path fill="#82bcf3" d="M44.184 20A2.962 2.962 0 0 1 44 19a3 3 0 0 1 6 0 2.962 2.962 0 0 1-.184 1H56A16 16 0 0 0 40 4v6.184A2.962 2.962 0 0 0 39 10a3 3 0 0 0 0 6 2.962 2.962 0 0 0 1-.184V20Z"/><path fill="#425b72" d="M32 8.5a.5.5 0 0 1-.5-.5V4a.5.5 0 0 1 1 0v4a.5.5 0 0 1-.5.5zm-10 2.68a.5.5 0 0 1-.433-.25l-2-3.464a.5.5 0 0 1 .866-.5l2 3.464a.5.5 0 0 1-.433.75zm-7.321 7.32a.488.488 0 0 1-.249-.067l-3.465-2a.5.5 0 0 1 .5-.866l3.465 2a.5.5 0 0 1-.251.933zM12 28.5H8a.5.5 0 0 1 0-1h4a.5.5 0 0 1 0 1zm-.784 12a.5.5 0 0 1-.251-.933l3.465-2a.5.5 0 1 1 .5.866l-3.465 2a.488.488 0 0 1-.249.067zm41.568 0a.488.488 0 0 1-.249-.067l-3.465-2a.5.5 0 1 1 .5-.866l3.465 2a.5.5 0 0 1-.251.933zM56 28.5h-4a.5.5 0 0 1 0-1h4a.5.5 0 0 1 0 1zm-26 28a.5.5 0 0 1-.5-.5v-4a.5.5 0 0 1 1 0v4a.5.5 0 0 1-.5.5zm4 0a.5.5 0 0 1-.5-.5v-4a.5.5 0 0 1 1 0v4a.5.5 0 0 1-.5.5z"/><rect width="20" height="6" x="22" y="46" fill="#425b72" rx="2"/></svg>