<svg xmlns="http://www.w3.org/2000/svg" enable-background="new 0 0 256 256" viewBox="0 0 256 256"><path fill="#6dcc6d" d="M240.5,78.8c2-2,2-5.2,0-7.3l-52.9-52.9c-0.8-0.8-2.2-0.8-3,0L169.2,34c-0.8,0.8-0.8,2-0.2,2.8
		c5.2,6.6,4,16.1-2.6,21.3c-5.5,4.3-13.2,4.3-18.7,0c-0.8-0.7-2.1-0.6-2.8,0.2l-15.4,15.4c-0.8,0.8-0.8,2.2,0,3l15.4,15.4
		c0.8,0.8,0.8,2,0.2,2.8c-5.2,6.6-4,16.1,2.6,21.3c5.5,4.3,13.2,4.3,18.7,0c0.8-0.7,2.1-0.6,2.8,0.2l15.4,15.4c0.8,0.8,2.2,0.8,3,0
		l15.4-15.4c0.8-0.8,2-0.8,2.8-0.2c6.6,5.2,16.1,4,21.3-2.6c4.3-5.5,4.3-13.2,0-18.7c-0.7-0.8-0.6-2.1,0.2-2.8L240.5,78.8z"/><path fill="#ffae2c" d="M191.5,145.6h-22.2c-0.9,0-1.7,0.7-1.9,1.7c-0.9,8.3-8.4,14.3-16.7,13.4c-7.1-0.8-12.6-6.4-13.4-13.4
		c-0.1-0.9-0.9-1.7-1.9-1.7h-24.1v25.9c-8.4,0-15.2,6.8-15.2,15.2c0,8.4,6.8,15.2,15.2,15.2v25.9h25.9c0,8.4,6.8,15.2,15.2,15.2
		c8.4,0,15.2-6.8,15.2-15.2l0,0h20.7c2.8,0,5.1-2.3,5.1-5.1v-75.1C193.4,146.4,192.5,145.6,191.5,145.6
		C191.5,145.6,191.5,145.6,191.5,145.6z"/><path fill="#ea4647" d="M111.3,171.5v-25.9H85.4c0-8.4-6.8-15.2-15.2-15.2s-15.2,6.8-15.2,15.2l0,0H29.2v25.9
		c-8.4,0-15.2,6.8-15.2,15.2c0,8.4,6.8,15.2,15.2,15.2v20.7c0,2.8,2.3,5.1,5.1,5.1h77v-25.9c-8.4,0-15.2-6.8-15.2-15.2
		C96.1,178.2,102.9,171.4,111.3,171.5L111.3,171.5L111.3,171.5z"/><path fill="#55acd5" d="M112.9,89.5c-0.9-0.1-1.7-0.9-1.7-1.8V65.4c0-1-0.8-1.9-1.9-1.9H34.3c-2.8,0-5.1,2.3-5.1,5.1v19.1
		c0,0.9,0.6,1.6,1.5,1.7c8.3,0.8,14.4,8.3,13.6,16.6c-0.7,7.2-6.4,12.9-13.6,13.6c-0.9,0.1-1.5,0.8-1.5,1.7v24.3h25.9
		c0-8.4,6.8-15.2,15.2-15.2s15.2,6.8,15.2,15.2h25.9v-24.1c0-0.9,0.7-1.7,1.7-1.8c8.3-0.9,14.3-8.4,13.4-16.7
		C125.6,95.8,120,90.2,112.9,89.5z"/><path fill="#231f20" d="M186.1 134.9c-1.2 0-2.4-.5-3.3-1.4l-15.1-15.1c-7.8 5.9-18.9 4.3-24.7-3.6-4.7-6.3-4.7-14.9 0-21.2l-15.1-15.1c-1.8-1.8-1.8-4.7 0-6.5 0 0 0 0 0 0l15.4-15.4c1.7-1.6 4.3-1.8 6.1-.4 5.5 4.3 13.5 3.3 17.8-2.2 3.6-4.6 3.6-11 0-15.5-1.4-1.8-1.3-4.5.4-6.1l15.4-15.4c1.8-1.8 4.7-1.8 6.5 0 0 0 0 0 0 0l52.9 52.9c3 3 3 7.8 0 10.8l-13 13c5.9 7.8 4.3 18.9-3.5 24.7-6.3 4.7-14.9 4.7-21.2 0l-15.1 15.1C188.5 134.4 187.3 134.9 186.1 134.9zM167.7 113.2c1.2 0 2.4.5 3.3 1.3l15.1 15.1 15.1-15.1c1.7-1.6 4.3-1.8 6.1-.4 5.5 4.3 13.5 3.3 17.8-2.2 3.6-4.6 3.6-11 0-15.5-1.4-1.8-1.3-4.5.4-6.1l13.3-13.3 0 0c1-1 1-2.7 0-3.7l-52.6-52.6-14.9 14.9c5.9 7.8 4.3 18.9-3.5 24.7-6.3 4.7-14.9 4.7-21.2 0l-14.9 14.9 15.1 15.1c1.6 1.7 1.8 4.3.4 6.1-4.3 5.5-3.3 13.5 2.2 17.8 4.6 3.6 11 3.6 15.6 0C165.6 113.6 166.6 113.2 167.7 113.2L167.7 113.2zM152.3 245.3c-8.8 0-16.2-6.5-17.5-15.2h-23.5c-1.4 0-2.5-1.1-2.5-2.5v-23.5c-9.7-1.4-16.4-10.3-15-20 1.1-7.8 7.2-13.9 15-15v-23.5c0-1.4 1.1-2.5 2.5-2.5h24.1c2.2 0 4.1 1.7 4.3 3.9.8 7 7 12 14 11.2 5.9-.7 10.6-5.3 11.2-11.2.2-2.2 2.1-3.9 4.3-3.9h22.2c2.4 0 4.4 2 4.4 4.4v75.1c0 4.2-3.4 7.6-7.6 7.6h-18.4C168.6 238.9 161.1 245.3 152.3 245.3zM113.8 225.2h23.4c1.4 0 2.5 1.1 2.5 2.5 0 7 5.7 12.7 12.7 12.7 7 0 12.7-5.7 12.7-12.7 0-1.4 1.1-2.5 2.5-2.5h20.7c1.5 0 2.6-1.2 2.6-2.6v-74.5h-21c-1.4 9.7-10.3 16.4-20 15-7.8-1.1-13.9-7.2-15-15h-21v23.4c0 1.4-1.1 2.5-2.5 2.5-7 0-12.7 5.7-12.7 12.7 0 7 5.7 12.7 12.7 12.7l0 0c1.4 0 2.5 1.1 2.5 2.5L113.8 225.2zM191.5 148.1L191.5 148.1z"/><path fill="#231f20" d="M111.3,230.2h-77c-4.2,0-7.6-3.4-7.6-7.6v-18.4c-9.7-1.4-16.4-10.3-15-20c1.1-7.8,7.2-13.9,15-15v-23.5
		c0-1.4,1.1-2.5,2.5-2.5h23.5c1.4-9.7,10.3-16.4,20-15c7.8,1.1,13.9,7.2,15,15h23.5c1.4,0,2.5,1.1,2.5,2.5v25.9
		c0,1.4-1.1,2.5-2.5,2.5c-7,0-12.7,5.7-12.7,12.7c0,7,5.7,12.7,12.7,12.7c1.4,0,2.5,1.1,2.5,2.5v25.9
		C113.8,229,112.7,230.2,111.3,230.2C111.3,230.2,111.3,230.2,111.3,230.2z M31.7,148.1v23.4c0,1.4-1.1,2.5-2.5,2.5
		c-7,0-12.7,5.7-12.7,12.7c0,7,5.7,12.7,12.7,12.7l0,0c1.4,0,2.5,1.1,2.5,2.5v20.7c0,1.5,1.2,2.6,2.6,2.6h74.5v-21
		c-9.7-1.4-16.4-10.3-15-20c1.1-7.8,7.2-13.9,15-15v-21H85.4c-1.4,0-2.5-1.1-2.5-2.5c0-7-5.7-12.7-12.7-12.7s-12.7,5.7-12.7,12.7
		c0,1.4-1.1,2.5-2.5,2.5H31.7z"/><path fill="#231f20" d="M111.3,148.1H85.4c-1.4,0-2.5-1.1-2.5-2.5c0-7-5.7-12.7-12.7-12.7s-12.7,5.7-12.7,12.7c0,1.4-1.1,2.5-2.5,2.5
		H29.2c-1.4,0-2.5-1.1-2.5-2.5v-24.3c0-2.2,1.6-4,3.8-4.2c7-0.7,12-6.9,11.3-13.9c-0.6-6-5.3-10.7-11.3-11.3c-2.1-0.2-3.8-2-3.8-4.2
		V68.6c0-4.2,3.4-7.6,7.6-7.6h75.1c2.4,0,4.4,2,4.4,4.4V87c9.7,1.4,16.4,10.3,15,20c-1.1,7.8-7.2,13.9-15,15v23.5
		C113.8,147,112.7,148.1,111.3,148.1z M87.7,143.1h21v-21.6c0-2.2,1.7-4.1,3.9-4.3c7-0.8,12-7,11.2-14c-0.7-5.9-5.3-10.6-11.2-11.2
		l0,0c-2.2-0.2-3.9-2.1-3.9-4.3V66H34.3c-1.5,0-2.6,1.2-2.6,2.6V87c9.7,1.4,16.4,10.3,15,20c-1.1,7.8-7.2,13.9-15,15v21h21
		c1.4-9.7,10.3-16.4,20-15C80.5,129.2,86.6,135.3,87.7,143.1L87.7,143.1z"/><path fill="#60bae2" d="M202.4 246.7c-4.5-.9-7.9-4.3-8.8-8.8 0-.1-.1-.2-.2-.2-.1 0-.1.1-.2.2-.9 4.5-4.3 7.9-8.8 8.8-.1 0-.2.1-.2.2 0 .1.1.1.2.2 4.5.9 7.9 4.3 8.8 8.8 0 .1.1.2.2.2.1 0 .1-.1.2-.2.9-4.5 4.3-7.9 8.8-8.8.1 0 .2-.1.2-.2C202.5 246.7 202.4 246.7 202.4 246.7zM208.8 166.4c-.2 0-.3 0-.5-.1-.2 0-.3-.1-.5-.1-.2-.1-.3-.1-.4-.2-.1-.1-.3-.2-.4-.3-.1-.1-.2-.2-.3-.4-.1-.1-.2-.3-.2-.4-.1-.2-.1-.3-.1-.5 0-.2-.1-.3-.1-.5 0-.7.3-1.3.7-1.8.1-.1.2-.2.4-.3.1-.1.3-.2.4-.2.2-.1.3-.1.5-.1 1.3-.3 2.7.6 2.9 1.9 0 .2.1.3.1.5 0 .2 0 .3-.1.5 0 .2-.1.3-.1.5-.1.2-.1.3-.2.4-.1.1-.2.3-.3.4C210.1 166.1 209.5 166.4 208.8 166.4zM84.3 39.9c-4.5-.9-7.9-4.3-8.8-8.8 0-.1-.1-.2-.2-.2-.1 0-.1.1-.2.2-.9 4.5-4.3 7.9-8.8 8.8-.1 0-.2.1-.2.2 0 .1.1.1.2.2 4.5.9 7.9 4.3 8.8 8.8 0 .1.1.2.2.2.1 0 .1-.1.2-.2.9-4.5 4.3-7.9 8.8-8.8.1 0 .2-.1.2-.2C84.5 40 84.4 39.9 84.3 39.9z"/><path fill="#6dcc6d" d="M136.7,22.3H128c-1.4,0-2.5-1.1-2.5-2.5s1.1-2.5,2.5-2.5h8.7c1.4,0,2.5,1.1,2.5,2.5S138.1,22.3,136.7,22.3z"/><path fill="#6dcc6d" d="M132.3,26.6c-1.4,0-2.5-1.1-2.5-2.5v-8.7c0-1.4,1.1-2.5,2.5-2.5s2.5,1.1,2.5,2.5v8.7
		C134.8,25.5,133.7,26.6,132.3,26.6z"/><path fill="#ffcd29" d="M148.6 5c-.2 0-.3 0-.5-.1-.2 0-.3-.1-.5-.1-.2-.1-.3-.1-.4-.2-.3-.2-.5-.4-.7-.7-.1-.1-.2-.3-.2-.4-.1-.2-.1-.3-.1-.5-.1-.3-.1-.7 0-1 0-.2.1-.3.1-.5.1-.2.1-.3.2-.4.1-.1.2-.3.3-.4.1-.1.2-.2.4-.3.1-.1.3-.2.4-.2.2-.1.3-.1.5-.1.3-.1.7-.1 1 0 .2 0 .3.1.5.1.2.1.3.1.4.2.1.1.3.2.4.3.1.1.2.2.3.4.1.1.2.3.2.4.1.2.1.3.1.5 0 .2 0 .3.1.5 0 .2 0 .3-.1.5 0 .2-.1.3-.1.5-.1.2-.1.3-.2.4-.1.1-.2.3-.3.4-.1.1-.2.2-.4.3-.1.1-.3.2-.4.2-.2.1-.3.1-.5.1C148.9 5 148.8 5 148.6 5zM225 221.7h-8.7c-1.4 0-2.5-1.1-2.5-2.5s1.1-2.5 2.5-2.5h8.7c1.4 0 2.5 1.1 2.5 2.5S226.4 221.7 225 221.7z"/><path fill="#ffcd29" d="M220.7,226.1c-1.4,0-2.5-1.1-2.5-2.5v-8.7c0-1.4,1.1-2.5,2.5-2.5s2.5,1.1,2.5,2.5v8.7
		C223.2,224.9,222,226.1,220.7,226.1z"/><path fill="#f75c64" d="M236.9,204.4c-0.8,0-1.6-0.4-2.1-1.1c-0.1-0.1-0.2-0.3-0.2-0.4c-0.1-0.1-0.1-0.3-0.1-0.5c0-0.2,0-0.3-0.1-0.5
		c0-1.4,1.1-2.5,2.5-2.5c0.2,0,0.3,0,0.5,0c0.2,0,0.3,0.1,0.5,0.1c0.1,0.1,0.3,0.1,0.4,0.2c0.1,0.1,0.3,0.2,0.4,0.3
		c0.5,0.5,0.7,1.1,0.7,1.8c0,0.2,0,0.3,0,0.5c0,0.2-0.1,0.3-0.1,0.5c-0.1,0.2-0.1,0.3-0.2,0.4c-0.1,0.1-0.2,0.3-0.3,0.4
		c-0.1,0.1-0.2,0.2-0.4,0.3c-0.1,0.1-0.3,0.2-0.4,0.2c-0.2,0.1-0.3,0.1-0.5,0.1C237.3,204.4,237.1,204.4,236.9,204.4z"/></svg>