<svg xmlns="http://www.w3.org/2000/svg" enable-background="new 0 0 512 512" viewBox="0 0 512 512"><path fill="#f2d1a5" fill-rule="evenodd" d="M211.721,44.205l171.134,98.804c5.211,3.008,8.193,8.174,8.193,14.19v197.608
				c0,6.017-2.983,11.183-8.193,14.191l-171.134,98.804c-5.211,3.008-11.175,3.008-16.386,0L24.201,368.999
				c-5.211-3.008-8.193-8.174-8.193-14.191V157.199c0-6.016,2.983-11.183,8.193-14.19l171.134-98.804
				C200.546,41.197,206.51,41.197,211.721,44.205z" clip-rule="evenodd"/><path fill="#e3a76f" fill-rule="evenodd" d="M124.669,295.739l-33.897-19.571c-5.211-3.008-8.193-8.174-8.193-14.19v-75.805l54.38,31.397l0,71.075
				c0,3.008-1.491,5.591-4.096,7.095C130.256,297.244,127.274,297.243,124.669,295.739z" clip-rule="evenodd"/><path fill="#e3a76f" fill-rule="evenodd" d="M211.72,44.205l171.134,98.804c2.605,1.505,4.654,3.548,6.051,5.967L203.528,256.004L18.15,148.976
				c1.397-2.42,3.445-4.463,6.05-5.967l171.134-98.804C200.546,41.197,206.51,41.197,211.72,44.205z" clip-rule="evenodd"/><polygon fill="#c48958" fill-rule="evenodd" points="82.578 186.173 136.958 217.57 324.478 109.305 270.097 77.908" clip-rule="evenodd"/><path fill="#ecba78" fill-rule="evenodd" d="M388.905,148.976c1.397,2.42,2.143,5.215,2.143,8.223v197.609c0,6.017-2.983,11.183-8.193,14.191
				L211.72,467.803c-2.605,1.504-5.399,2.256-8.193,2.256V256.004L388.905,148.976z" clip-rule="evenodd"/><path fill="#fe646f" fill-rule="evenodd" d="M492.821,237.404l0,219.582c0,8.563-6.984,15.547-15.547,15.548l-136.547,0
				c-8.563,0-15.547-6.985-15.547-15.547l-0.001-219.583c0-4.57,1.752-8.503,5.149-11.559l54.889-49.374
				c7.045-6.337,14.306-10.972,23.782-10.972c9.476,0,16.737,4.637,23.782,10.972l54.89,49.374
				C491.068,228.901,492.821,232.835,492.821,237.404z" clip-rule="evenodd"/><path fill="#fd4755" fill-rule="evenodd" d="M492.821,237.404l0,219.582c0,8.563-6.984,15.547-15.547,15.548h-20.001c8.563,0,15.547-6.985,15.547-15.548
				l0-219.582c0-4.569-1.752-8.503-5.15-11.559l-54.889-49.374c-4.354-3.916-8.791-7.182-13.782-9.106
				c3.085-1.189,6.381-1.866,10.001-1.866c9.476,0,16.737,4.637,23.782,10.972l54.89,49.374
				C491.068,228.901,492.821,232.835,492.821,237.404z" clip-rule="evenodd"/><path fill="#eceff1" fill-rule="evenodd" d="M391.875,215.438c0-9.458,7.667-17.126,17.126-17.126s17.125,7.668,17.125,17.126
				c0,9.458-7.667,17.126-17.125,17.126C399.542,232.564,391.875,224.896,391.875,215.438z" clip-rule="evenodd"/><path fill="#d1d1d6" fill-rule="evenodd" d="M391.875,215.438c0-9.458,7.667-17.126,17.126-17.126c1.131,0,2.236,0.111,3.307,0.32
				c-7.876,1.541-13.82,8.479-13.82,16.805c0,8.327,5.944,15.265,13.82,16.806c-1.07,0.209-2.176,0.32-3.307,0.32
				C399.542,232.564,391.875,224.896,391.875,215.438z" clip-rule="evenodd"/><path fill="#fe646f" fill-rule="evenodd" d="M379.726,181.412l5.493-4.941c7.045-6.337,14.306-10.972,23.781-10.972c9.475,0,16.737,4.637,23.782,10.972
				l10.649,9.579l-22.409,17.192c-3.092-3.048-7.336-4.929-12.021-4.929c-4.831,0-9.193,2.001-12.307,5.218L379.726,181.412z" clip-rule="evenodd"/><path fill="#fd4755" fill-rule="evenodd" d="M398.999,167.365c3.085-1.189,6.381-1.866,10.001-1.866c9.475,0,16.737,4.637,23.782,10.972l10.649,9.579
				l-10.795,8.281l-19.855-17.86C408.427,172.556,403.99,169.29,398.999,167.365z" clip-rule="evenodd"/><g><circle cx="409.001" cy="347.196" r="62.476" fill="#ffc338" fill-rule="evenodd" clip-rule="evenodd" transform="rotate(-45.001 408.999 347.202)"/><path fill="#f5b829" fill-rule="evenodd" d="M409.001,284.72c2.396,0,4.76,0.14,7.086,0.402c-31.168,3.519-55.391,29.965-55.391,62.074
				c0,32.108,24.223,58.555,55.391,62.074c-2.326,0.262-4.69,0.402-7.086,0.402c-34.505,0-62.476-27.972-62.476-62.476
				C346.524,312.691,374.496,284.72,409.001,284.72z" clip-rule="evenodd"/></g><path fill-rule="evenodd" d="M409.001,401.673c-30.03,0-54.468-24.443-54.468-54.482c0-30.03,24.438-54.468,54.468-54.468
		c30.039,0,54.482,24.438,54.482,54.468C463.483,377.23,439.04,401.673,409.001,401.673L409.001,401.673z M409.001,276.719
		c-38.86,0-70.467,31.611-70.467,70.472c0,38.869,31.607,70.481,70.467,70.481c38.86,0,70.481-31.611,70.481-70.481
		C479.482,308.331,447.861,276.719,409.001,276.719L409.001,276.719z M436.884,360.86c-1.431-11.8-10.365-19.129-26.523-21.788
		c-11.07-1.812-11.259-5.549-11.32-6.961c-0.259-5.211,5.291-6.877,6.999-7.267c3.822-0.861,11.061-0.48,13.984,6.467
		c1.709,4.081,6.397,5.992,10.468,4.283c4.081-1.713,5.987-6.401,4.279-10.473c-3.662-8.717-10.468-13.608-17.768-15.58v-1.878
		c0-4.419-3.582-8.002-8.002-8.002c-4.411,0-7.997,3.582-7.997,8.002v1.958c-11.325,3.173-18.484,12.36-17.952,23.271
		c0.329,6.74,3.982,18.569,24.711,21.972c12.52,2.057,13.019,6.166,13.241,7.917c0.217,1.84-0.334,2.754-0.904,3.412
		c-1.798,2.081-6.096,3.601-10.468,3.7c-5.022,0.15-11.419-1.85-12.911-7.818c-1.059-4.293-5.399-6.905-9.687-5.832
		c-4.293,1.068-6.9,5.408-5.832,9.701c2.382,9.536,9.908,16.507,19.802,18.978v1.812c0,4.42,3.587,7.997,7.997,7.997
		c4.419,0,8.002-3.577,8.002-7.997v-1.671c6.241-1.36,11.659-4.311,15.198-8.402C435.99,372.283,437.6,366.819,436.884,360.86
		L436.884,360.86z M438.132,170.523c-2.551-2.292-5.488-4.721-8.849-6.853c2.32-3.37,4.81-6.717,7.479-10.007
		c10.407-12.822,22.028-23.229,32.699-29.329c9.621-5.484,15.448-5.573,17.03-4.293c1.572,1.28,2.683,7.009-0.72,17.538
		c-3.77,11.701-11.579,25.215-21.991,38.032c-2.876,3.54-5.836,6.881-8.858,10.011L438.132,170.523L438.132,170.523z
		 M403.96,221.654c1.252,1.007,2.961,2.085,5.154,2.909c-0.033,0-0.071,0-0.113,0c-4.401,0-8.077-3.13-8.939-7.291
		C401.263,219.14,402.632,220.571,403.96,221.654L403.96,221.654z M414.051,209.232c-0.419-0.339-0.81-0.998-1.102-2.01
		c1.29,0.621,2.41,1.539,3.271,2.659C415.2,209.812,414.47,209.572,414.051,209.232L414.051,209.232z M484.819,237.403
		c0-2.292-0.786-4.081-2.499-5.611l-27.168-24.443c-5.422,4.575-10.859,8.463-16.149,11.48c-1.991,1.134-3.869,2.094-5.672,2.923
		c-2.81,10.812-12.647,18.809-24.33,18.809c-13.848,0-25.121-11.268-25.121-25.121c0-13.857,11.273-25.13,25.121-25.13
		c9.969,0,18.601,5.841,22.663,14.271c3.747-2.179,7.597-4.891,11.475-8.039l-15.707-14.121c-7.042-6.34-12.379-8.919-18.432-8.919
		c-6.039,0-11.377,2.579-18.432,8.919l-54.887,49.37c-1.699,1.53-2.499,3.319-2.499,5.611v219.59c0,4.161,3.389,7.536,7.55,7.536
		h136.551c4.156,0,7.536-3.375,7.536-7.536V237.403L484.819,237.403z M211.533,458.683l105.651-61.001V237.403
		c0-6.863,2.697-12.911,7.799-17.5l54.887-49.38c1.003-0.904,2.062-1.812,3.182-2.72v-6.208l-171.519,99.028V458.683
		L211.533,458.683z M24.011,161.594l50.571,29.197v80.652c0,2.857,1.525,5.498,4.001,6.919l54.379,31.4
		c1.238,0.72,2.622,1.068,4.001,1.068s2.763-0.348,4.001-1.068c2.476-1.431,4.001-4.071,4.001-6.928v-71.413l50.571,29.201v198.061
		L24.011,359.65V161.594L24.011,161.594z M203.531,48.714l50.571,29.197L82.583,176.934l-50.571-29.192L203.531,48.714
		L203.531,48.714z M90.585,200.031v66.79l38.375,22.16v-66.79L90.585,200.031L90.585,200.031z M98.582,186.174l171.519-99.033
		l38.38,22.16l-171.519,99.033L98.582,186.174L98.582,186.174z M203.531,246.761l-50.571-29.188l171.519-99.033l50.571,29.201
		L203.531,246.761L203.531,246.761z M501.001,142.494c6.947-21.562,0.212-31.103-4.429-34.868
		c-4.632-3.761-15.354-8.411-35.029,2.815c-12.365,7.051-25.573,18.813-37.203,33.132c-3.789,4.66-7.277,9.442-10.44,14.271
		c-1.567-0.221-3.201-0.339-4.9-0.339c-3.577,0-6.891,0.537-9.951,1.44v-11.202c0-2.857-1.52-5.498-4.001-6.928L207.532,32.541
		c-2.476-1.431-5.521-1.431-8.002,0L12.013,140.814c-2.476,1.431-4.001,4.071-4.001,6.928v216.53c0,2.862,1.525,5.497,4.001,6.928
		l187.518,108.258c1.243,0.72,2.622,1.073,4.001,1.073c1.384,0,2.763-0.353,4.001-1.073l109.651-63.307v40.842
		c0,12.977,10.567,23.539,23.548,23.539h136.551c12.977,0,23.539-10.562,23.539-23.539v-219.59c0-6.863-2.692-12.911-7.799-17.5
		l-26.203-23.572c3.201-3.346,6.34-6.9,9.381-10.637C487.832,171.37,496.643,156.031,501.001,142.494z" clip-rule="evenodd"/></svg>