<svg xmlns="http://www.w3.org/2000/svg" viewBox="0 0 512 512"><path fill="#8e5e50" d="m390.451 188.73-12.902-9.46 65.44-89.237A36.468 36.468 0 0 0 413.58 32h-1.113A36.51 36.51 0 0 0 376 68.468V184h-16V68.468A52.527 52.527 0 0 1 412.468 16h1.113a52.467 52.467 0 0 1 42.31 83.495Z"/><path fill="#f2a765" d="m350.16 479.762 79.549-209.722a16 16 0 0 0-.254-11.977l-39.304-91.711a16 16 0 0 0-20.649-8.553l-99.191 39.677a16 16 0 0 0-8.875 8.819l-79.737 195.717a16 16 0 0 0 7.939 20.482l138.682 66.04a16 16 0 0 0 21.84-8.772Z"/><circle cx="352" cy="232" r="24" fill="#e09258"/><path fill="#c28651" d="M429.455 258.063 413.59 221.04l-36.17 75.626a317.576 317.576 0 0 1-143.898 146.724l94.8 45.142a16 16 0 0 0 21.838-8.77l79.55-209.723a16 16 0 0 0-.254-11.978Z"/><circle cx="80" cy="264" r="24" fill="#b3d0e2"/><path fill="#efd1bd" d="M72 80v2.8A53.2 53.2 0 0 1 18.8 136 53.2 53.2 0 0 1 72 189.2a53.2 53.2 0 0 1 53.2-53.2A53.2 53.2 0 0 1 72 82.8Z"/><path fill="#b3d0e2" d="m154.343 53.658 11.314-11.315 48 48-11.315 11.314z"/><path fill="#b3d0e2" d="m154.343 90.342 48-48 11.314 11.315-48 48z"/><circle cx="456" cy="416" r="32" fill="#b3d0e2"/><path fill="#efd1bd" d="M456 152h16v24h-16zM472 176h24v16h-24zM456 192h16v24h-16zM432 176h24v16h-24z"/><path fill="#0d5ea5" d="m48 416 .445.167-.349-.263L48 416z"/><path fill="#073259" d="m93.287 395.764 16.369-44.643L48 328l-18.614 41.882a34.49 34.49 0 0 0 16.093 44.858c.864.431 1.739.81 2.617 1.164a34.486 34.486 0 0 0 45.19-20.14Z"/><path fill="#0d5ea5" d="m332.736 249.471-45.99-91.977a16 16 0 0 0-20.613-7.551l-91.79 39.338a16.002 16.002 0 0 0-8.719 9.198L93.287 395.764a34.486 34.486 0 0 1-45.19 20.14L48 416l177.513 66.567a16 16 0 0 0 20.403-8.863l87.293-210.96a16 16 0 0 0-.473-13.273Z"/><path fill="#1d76b7" d="m117.128 399.466 5.744-14.933 104 40-5.745 14.934z"/><path fill="#a2c4dd" d="m152 368 24-64 64 24-24 64z"/><path fill="#95b9d8" d="m184.41 357.47 8.001-24 15.18 5.06-8.001 24z"/><path fill="#06273f" d="M339.23 40.524A48.349 48.349 0 0 0 296.86 16 48.916 48.916 0 0 0 248 64.86V208l3.334-.074 12.673-21.53L264 64.86A32.898 32.898 0 0 1 296.86 32a32.86 32.86 0 0 1 28.385 49.418l-76.155 130.55 13.82 8.063 76.155-130.55a48.35 48.35 0 0 0 .164-48.957Z"/><circle cx="256" cy="224" r="24" fill="#073259"/><path fill="#0a4b84" d="M333.21 262.745a16 16 0 0 0-.474-13.274L320.25 224.5l-75.621 117.633a219.606 219.606 0 0 1-138.062 95.83l118.946 44.604a16 16 0 0 0 20.403-8.863Z"/><path fill="#175e92" d="m163.165 417.173 57.963 22.294 5.744-14.934-46.177-17.76q-8.512 5.605-17.53 10.4Z"/><path fill="#829db1" d="m216 392 8.88-23.68a219.37 219.37 0 0 1-19.617 19.654Z"/></svg>