<svg xmlns="http://www.w3.org/2000/svg" viewBox="0 0 48 48"><path fill="#8AD7F8" d="m16.4 40.4 2.4-.5v-2.6l-2.4-.5c-.2-.7-.4-1.3-.8-1.9l1.3-2.1-1.7-1.8-2.1 1.3c-.6-.3-1.2-.6-1.9-.8l-.5-2.4H8.1l-.5 2.4c-.7.2-1.3.4-1.9.8l-2-1.3-1.8 1.8 1.3 2.1c-.3.6-.6 1.2-.8 1.9l-2.4.5v2.6l2.4.5c.2.7.4 1.3.8 1.9l-1.3 2.1 1.8 1.8 2.1-1.3c.6.3 1.2.6 1.9.8l.4 2.3h2.6l.5-2.4c.7-.2 1.3-.4 1.9-.8l2.1 1.3 1.8-1.8-1.3-2.1c.3-.5.5-1.1.7-1.8zm-7 .8c-1.5 0-2.6-1.2-2.6-2.6C6.8 37.1 8 36 9.4 36c1.4 0 2.6 1.2 2.6 2.6 0 1.4-1.1 2.6-2.6 2.6z"/><path fill="#55C0EB" d="M9.4 34.3c-2.4 0-4.3 1.9-4.3 4.3s1.9 4.3 4.3 4.3 4.3-1.9 4.3-4.3-1.9-4.3-4.3-4.3zm0 6.9c-1.5 0-2.6-1.2-2.6-2.6C6.8 37.1 8 36 9.4 36c1.4 0 2.6 1.2 2.6 2.6 0 1.4-1.1 2.6-2.6 2.6z"/><path fill="#F3705A" d="m45.6 40.4 2.4-.5v-2.6l-2.4-.5c-.2-.7-.4-1.3-.8-1.9l1.3-2.1-1.8-1.8-2.1 1.3c-.6-.3-1.2-.6-1.9-.8l-.5-2.4h-2.6l-.5 2.4c-.7.2-1.3.4-1.9.8l-2-1.3-1.8 1.9 1.3 2.1c-.3.6-.6 1.2-.8 1.9l-2.4.5V40l2.4.5c.2.7.4 1.3.8 1.9L31 44.3l1.8 1.8 2.1-1.3c.6.3 1.2.6 1.9.8l.5 2.4h2.6l.5-2.4c.7-.2 1.3-.4 1.9-.8l2.1 1.3 1.8-1.8-1.3-2.1c.3-.5.5-1.1.7-1.8zm-7 .8c-1.5 0-2.6-1.2-2.6-2.6 0-1.5 1.2-2.6 2.6-2.6 1.4 0 2.6 1.2 2.6 2.6 0 1.4-1.2 2.6-2.6 2.6z"/><path fill="#F05540" d="M38.6 34.3c-2.4 0-4.3 1.9-4.3 4.3s1.9 4.3 4.3 4.3 4.3-1.9 4.3-4.3-1.9-4.3-4.3-4.3zm0 6.9c-1.5 0-2.6-1.2-2.6-2.6 0-1.5 1.2-2.6 2.6-2.6 1.4 0 2.6 1.2 2.6 2.6 0 1.4-1.2 2.6-2.6 2.6z"/><path fill="#FFD15C" d="M28.6 22.5c.5-1.1 1.2-2.2 2-3.2 1.5-1.7 2.4-3.9 2.3-6.4-.2-4.6-3.9-8.4-8.5-8.6-5.2-.2-9.4 3.9-9.4 9 0 2.3.9 4.4 2.3 6 .9 1 1.6 2.1 2.1 3.2h9.2z"/><path fill="#344A5E" d="M28.7 28v-5.5h-9.4V28c0 .7.5 1.2 1.2 1.2h7c.7 0 1.2-.6 1.2-1.2z"/><path fill="#415A6B" d="M18 23.6c0-.5.4-1 .9-1.1l10-.9c.5 0 1 .4 1.1.9l-12 1.1zM30 22.6c0 .5-.4 1-.9 1.1l-10 .9c-.5 0-1-.4-1.1-.9M18 27c0-.5.4-1 .9-1.1l10-.9c.5 0 1 .4 1.1.9L18 27zM30 25.9c0 .5-.4 1-.9 1.1l-10 .9c-.5 0-1-.4-1.1-.9"/><path fill="#FFD15C" d="M24.2 3.1h-.4c-.3 0-.6-.3-.6-.6v-2c0-.3.3-.6.6-.6h.4c.3 0 .6.3.6.6v2c0 .4-.3.6-.6.6zM19 4.4l-.3.2c-.3.2-.6.1-.8-.2l-1-1.7c-.2-.3-.1-.6.2-.8l.3-.2c.3-.2.6-.1.8.2l1 1.7c.2.3.1.6-.2.8zM15.2 8.1l-.2.3c-.2.3-.5.4-.8.2l-1.7-1c-.3-.2-.4-.5-.2-.8l.2-.3c.2-.3.5-.4.8-.2l1.7 1c.3.1.4.5.2.8zM13.7 13.2v.4c0 .3-.3.6-.6.6h-2c-.3 0-.6-.3-.6-.6v-.4c0-.3.3-.6.6-.6h2c.4 0 .6.3.6.6zM15 18.3l.2.3c.2.3.1.6-.2.8l-1.7 1c-.3.2-.6.1-.8-.2l-.2-.3c-.2-.3-.1-.6.2-.8l1.7-1c.3-.1.7-.1.8.2zM32.8 18.7l.2-.3c.2-.3.5-.4.8-.2l1.7 1c.3.2.4.5.2.8l-.2.3c-.2.3-.5.4-.8.2l-1.7-1c-.3-.2-.4-.6-.2-.8zM34.3 13.6v-.4c0-.3.3-.6.6-.6h2c.3 0 .6.3.6.6v.4c0 .3-.3.6-.6.6h-2c-.4-.1-.6-.3-.6-.6zM33 8.4l-.2-.3c-.2-.3-.1-.6.2-.8l1.7-1c.3-.2.6-.1.8.2l.2.3c.2.3.1.6-.2.8l-1.7 1c-.3.2-.7.1-.8-.2zM29.3 4.6l-.3-.2c-.3-.2-.4-.5-.2-.8l1-1.7c.2-.3.5-.4.8-.2l.3.2c.3.2.4.5.2.8l-1 1.7c-.2.2-.5.3-.8.2z"/><path fill="#344A5E" d="m27.4 38-2.7-2.7v-2.8c0-.4-.3-.7-.7-.7-.4 0-.7.3-.7.7v2.8L20.6 38c-.3.3-.3.8 0 1.1s.8.3 1.1 0l2.4-2.4 2.4 2.4c.3.3.8.3 1.1 0 .1-.4.1-.8-.2-1.1z"/></svg>