<svg xmlns="http://www.w3.org/2000/svg" viewBox="0 0 512 512"><circle cx="256" cy="256" r="207" fill="#f0c48a"/><path fill="#fff" d="M355.981 241.589c0-55.217-44.762-99.98-99.98-99.981-55.229-.001-99.9 44.6-99.982 99.829-.052 34.929 17.811 65.686 44.908 83.603 8.133 5.378 13.082 14.424 13.082 24.175v33.781c0 23.191 18.8 41.991 41.991 41.991s41.991-18.8 41.991-41.991v-33.782c0-9.671 4.817-18.735 12.896-24.051 27.162-17.873 45.094-48.627 45.094-83.574z"/><path fill="#d3e6f8" d="M256.001 141.609c-3.698 0-7.347.206-10.94.596 50.08 5.441 89.061 47.858 89.061 99.385 0 34.947-17.932 65.7-45.094 83.574-8.079 5.316-12.896 14.379-12.896 24.051v33.781c0 19.41-13.172 35.735-31.062 40.546a42.038 42.038 0 0 0 10.929 1.445c23.191 0 41.991-18.8 41.991-41.991v-33.781c0-9.671 4.817-18.735 12.896-24.051 27.162-17.874 45.094-48.627 45.094-83.574.001-55.218-44.761-99.981-99.979-99.981z"/><path fill="#d3e6f8" d="M214.009 382.996c0 23.191 18.8 41.991 41.991 41.991s41.991-18.8 41.991-41.991v-33.781h-83.982v33.781z"/><path fill="#a4cff2" d="M276.133 382.996c0 19.41-13.172 35.735-31.062 40.546l.004.001c.36.097.723.186 1.087.274.196.048.393.092.59.137.5.113 1.004.216 1.51.311.32.059.64.119.962.172a45.23 45.23 0 0 0 2.067.282c.184.021.366.044.55.063a41.595 41.595 0 0 0 2.262.158c.629.028 1.261.048 1.897.048 23.191 0 41.991-18.8 41.991-41.991v-33.781h-21.858v33.78z"/><path fill="#fd919e" d="M286.945 197.067c-4.609 4.609-6.263 11.049-4.974 16.977L256 188.073l-25.971 25.971c1.289-5.929-.366-12.369-4.974-16.977-7.203-7.203-18.881-7.203-26.084 0-7.203 7.203-7.203 18.881 0 26.084 4.609 4.609 11.049 6.263 16.977 4.974l-25.971 25.971L212.9 277.02a18.364 18.364 0 0 1 5.311-11.219c7.203-7.203 18.881-7.203 26.084 0s7.203 18.881 0 26.084a18.364 18.364 0 0 1-11.218 5.311L256 320.119l66.023-66.023-25.971-25.971c5.928 1.289 12.368-.366 16.977-4.974 7.203-7.203 7.203-18.881 0-26.084-7.203-7.203-18.881-7.203-26.084 0z"/><path fill="#4c4372" d="M256 326.119a5.984 5.984 0 0 1-4.243-1.757l-22.923-22.923a6 6 0 0 1 3.652-10.214 12.294 12.294 0 0 0 7.567-3.584c4.851-4.852 4.851-12.746-.001-17.599a12.36 12.36 0 0 0-8.799-3.645 12.359 12.359 0 0 0-8.799 3.645 12.295 12.295 0 0 0-3.583 7.566 6.001 6.001 0 0 1-10.214 3.653l-22.924-22.924a6 6 0 0 1 0-8.485l17.084-17.084a24.462 24.462 0 0 1-8.091-5.376c-9.53-9.53-9.53-25.038 0-34.568 9.53-9.531 25.039-9.53 34.569-.001a24.44 24.44 0 0 1 5.376 8.092l17.084-17.085a6.002 6.002 0 0 1 8.485 0l17.084 17.085a24.459 24.459 0 0 1 5.375-8.091v-.001c9.531-9.529 25.038-9.529 34.568 0a24.286 24.286 0 0 1 7.16 17.285c0 6.53-2.543 12.668-7.16 17.285a24.444 24.444 0 0 1-8.09 5.375l17.084 17.085a5.999 5.999 0 0 1 0 8.484l-66.023 66.023a5.958 5.958 0 0 1-4.238 1.759zm-11.961-26.446L256 311.634l57.538-57.538-21.728-21.729a5.998 5.998 0 0 1-1.023-7.117 6.003 6.003 0 0 1 6.541-2.988c4.17.905 8.453-.349 11.459-3.354 2.351-2.351 3.645-5.476 3.645-8.8s-1.294-6.449-3.645-8.8c-4.852-4.85-12.746-4.85-17.599 0a12.412 12.412 0 0 0-3.354 11.461 6 6 0 0 1-10.105 5.518L256 196.559l-21.729 21.729a6 6 0 0 1-10.105-5.518 12.414 12.414 0 0 0-3.354-11.461c-4.851-4.851-12.746-4.852-17.598.001-4.852 4.852-4.852 12.746 0 17.599a12.412 12.412 0 0 0 11.459 3.354 6 6 0 0 1 5.518 10.105l-21.729 21.729 11.961 11.961a24.43 24.43 0 0 1 3.546-4.499 24.283 24.283 0 0 1 17.284-7.159c6.529 0 12.667 2.543 17.284 7.16 9.531 9.53 9.531 25.038 0 34.568a24.384 24.384 0 0 1-4.498 3.545zM256 430.987c-26.462 0-47.991-21.528-47.991-47.991v-33.781a6 6 0 0 1 6-6h83.982a6 6 0 0 1 6 6v33.78c0 26.463-21.529 47.992-47.991 47.992zm-35.991-75.772v27.781c0 19.846 16.146 35.991 35.991 35.991s35.991-16.146 35.991-35.992v-27.78h-71.982z"/><path fill="#4c4372" d="M256 430.987c-26.462 0-47.991-21.528-47.991-47.991v-33.781c0-7.701-3.884-14.868-10.391-19.17-29.858-19.741-47.652-52.869-47.599-88.616.042-28.312 11.077-54.899 31.072-74.862 19.994-19.964 46.598-30.958 74.91-30.958 58.438.001 105.98 47.544 105.98 105.981 0 35.776-17.868 68.893-47.796 88.586-6.383 4.2-10.193 11.317-10.193 19.038v33.782c-.001 26.463-21.53 47.991-47.992 47.991zm.001-283.379c-51.745 0-93.905 42.096-93.982 93.838-.047 31.7 15.735 61.079 42.217 78.589 9.876 6.53 15.772 17.438 15.772 29.18v33.781c0 19.846 16.146 35.991 35.991 35.991s35.991-16.146 35.991-35.991v-33.782c0-11.771 5.831-22.636 15.597-29.062 26.545-17.467 42.393-46.836 42.393-78.562.001-51.82-42.158-93.981-93.979-93.982z"/><path fill="#4c4372" d="M297.991 388.996h-83.982a6 6 0 0 1 0-12h83.982a6 6 0 0 1 0 12zM256 118.066a6 6 0 0 1-6-6V87.013a6 6 0 0 1 12 0v25.054a6 6 0 0 1-6 5.999zM377.079 168.219a6 6 0 0 1-4.243-10.243l17.715-17.715a6 6 0 0 1 8.485 8.486l-17.715 17.715a5.982 5.982 0 0 1-4.242 1.757zM134.921 168.219a5.984 5.984 0 0 1-4.243-1.757l-17.715-17.715a6 6 0 0 1 8.485-8.486l17.715 17.715a6 6 0 0 1-4.242 10.243z"/></svg>