<svg xmlns="http://www.w3.org/2000/svg" enable-background="new 0 0 2800 2000" viewBox="0 0 2800 2000"><rect width="2000" height="2000" x="400" fill="#fff" fill-rule="evenodd" clip-rule="evenodd" display="none"/><path fill="#d5f0ff" d="M707.58,1359.79c19.22,29.67,207.5,255.11,359.27,257.85c136.87,2.47,181.26-195.94,325.02-181.25
	c107.05,10.94,120.67,124.87,244.7,164.42c121.91,38.87,283.1-8.02,364.25-95.77c422.15-456.43,199.57-1136.24-156.86-1327.9
	c-160.95-86.55-258.86,152.78-596.89,109.99c-203.27-25.73-165.41-147.52-340.55-66.72C703.32,314.16,374.55,845.69,707.58,1359.79z
	" display="none" opacity=".5"/><path fill="#d5f0ff" d="M2232.21,776.91c45.7,110.36,209.11,91.29,315.46,220.91c110.47,134.65,99.92,350.51-50.17,472.04
			c-152.29,123.32-387.44,100.25-502.09,89.01c-188.42-18.48-255.32-73.3-402.64-113.78c-515.7-141.68-830.72,218.34-1157.24,68.24
			c-177.67-81.68-289.2-282.59-244.66-416.67c76.23-229.49,623.92-234.54,608.25-353.61c-13.17-100.06-401.58-109.21-458.11-260.3
			c-50.68-135.46,199.88-292.86,372.11-357.72c79.38-29.9,311.93-121.1,495.72-34.69c145.42,68.36,134.16,180.53,263.44,216.49
			c155.86,43.35,226.81-104.51,452.27-102.16c166.12,1.74,372.09,84.56,414.12,203.95C2388.08,548.97,2177.09,643.81,2232.21,776.91
			z" opacity=".42"/><path fill="#d5f0ff" d="M2141.93,875.37c39.64,109.27,188.27,87.52,282.62,214.98c98.01,132.4,84.84,347.79-53.41,471.45
			c-140.28,125.49-353.3,106.42-457.17,97.12c-170.69-15.28-230.5-68.82-363.53-106.71c-465.67-132.65-757.59,231.54-1051.43,87.34
			c-159.89-78.47-257.76-276.91-215.1-411.33c73.02-230.07,570.18-244.24,557.94-362.7c-10.28-99.54-362.65-102.18-411.43-251.87
			c-43.73-134.21,186.3-295.31,343.69-362.85c72.54-31.13,285.12-125.94,450.48-42.86c130.84,65.73,118.75,177.75,235.48,211.44
			c140.73,40.61,207.6-107.98,412.17-109.39c150.74-1.04,336.29,78.1,372.44,196.42C2287.19,645.51,2094.12,743.59,2141.93,875.37z" opacity=".6"/><path fill="#8bdcef" d="M467.53,1458.95c-69.96,47.82-314.33-44.72-287.05-154.98c1.78-7.18,11.72-47.34,54.27-77.83
			c45.86-32.86,100.93-33.97,107.25-34.1C476.46,1189.34,538.01,1410.77,467.53,1458.95z"/><path fill="#d2edf7" d="M481.73,1456.84c-69.96,47.82-314.33-44.72-287.05-154.98c1.78-7.18,11.72-47.34,54.27-77.83
			c45.86-32.86,100.93-33.97,107.25-34.1C490.66,1187.22,552.22,1408.66,481.73,1456.84z"/><path fill="#fff" d="M513.76,1524.33c-0.05,0.02-0.09,0.04-0.14,0.06c-2.01,0.92-4.09,0.57-4.65-0.78
					c-25.76-62.62-64.21-118.89-114.3-167.26c-40.05-38.67-87.59-72.28-141.32-99.87c-1.45-0.75-1.41-2.53,0.09-3.98
					c1.5-1.45,3.89-2.03,5.34-1.28c54.11,27.8,102,61.64,142.34,100.6c50.45,48.72,89.18,105.4,115.13,168.47
					C516.8,1521.61,515.69,1523.39,513.76,1524.33z"/><path fill="#fff" d="M337.48,1303.31c-0.75,0.36-1.58,0.58-2.38,0.58c-1.97-0.01-3.01-1.34-2.33-2.97
					c6.32-15.05,9.04-29.77,8.07-43.73c-0.94-13.53-5.31-25.79-12.98-36.43c-0.86-1.19-0.01-3.06,1.89-4.18
					c1.9-1.12,4.14-1.06,5,0.13c8.06,11.18,12.65,24.06,13.64,38.28c1.02,14.68-1.83,30.14-8.48,45.96
					C339.51,1301.91,338.58,1302.77,337.48,1303.31z"/><path fill="#fff" d="M425.77,1377.63c-1.07,0.52-2.27,0.72-3.27,0.47c-1.73-0.43-2.17-2.06-1-3.64
					c10.83-14.51,18.37-29.44,22.42-44.38c3.92-14.47,4.39-28.33,1.39-41.2c-0.34-1.44,1.06-3.23,3.12-4c2.06-0.77,4-0.23,4.34,1.21
					c3.15,13.52,2.66,28.09-1.46,43.3c-4.25,15.69-12.18,31.39-23.56,46.64C427.26,1376.7,426.55,1377.25,425.77,1377.63z"/><path fill="#fff" d="M358.87,1343.13c-15.05,7.33-30.65,13.07-46.54,17.12c-19.57,4.98-38.74,7.18-57,6.53
					c-1.95-0.07-2.91-1.45-2.15-3.08c0.76-1.63,2.95-2.9,4.89-2.83c17.37,0.62,35.62-1.48,54.24-6.22
					c19.21-4.89,37.99-12.39,55.79-22.28c1.93-1.07,4.14-0.94,4.93,0.29c0.79,1.23-0.14,3.1-2.07,4.17
					C366.98,1339.05,362.95,1341.15,358.87,1343.13z"/><path fill="#fff" d="M460.67,1427.76c-0.19,0.09-0.4,0.18-0.6,0.26c-20.01,7.2-40.09,11.54-59.7,12.91
					c-19,1.33-36.74-0.2-52.72-4.54c-1.7-0.46-2.11-2.11-0.9-3.67c1.21-1.57,3.56-2.46,5.27-2c15.21,4.13,32.09,5.58,50.17,4.32
					c18.65-1.3,37.77-5.44,56.81-12.29c2.07-0.74,3.98-0.17,4.28,1.29C463.54,1425.34,462.41,1426.92,460.67,1427.76z"/><path fill="#62cbec" d="M2066.21,687.91c149.17-5.81,397.65-393.32,243.28-520.62c-10.05-8.29-66.28-54.65-158.49-53.11
				c-99.37,1.67-178.43,57.93-187.51,64.39C1770.48,315.92,1915.93,693.77,2066.21,687.91z"/><path fill="#bbe6f9" d="M2043.91,699.83c149.17-5.81,397.65-393.32,243.28-520.62c-10.05-8.29-66.28-54.65-158.49-53.11
				c-99.37,1.67-178.43,57.93-187.51,64.38C1748.17,327.84,1893.62,705.68,2043.91,699.83z"/><path fill="#fff" d="M2069.48,828.92c0.09-0.02,0.17-0.03,0.26-0.05c3.81-0.81,6.39-3.49,5.76-5.98
						c-29.32-115.62-34.02-235.59-13.96-356.6c16.04-96.75,48.01-194.21,95.02-289.65c1.27-2.58-0.66-5.05-4.31-5.53
						c-3.65-0.48-7.64,1.22-8.9,3.8c-47.35,96.14-79.55,194.3-95.7,291.75c-20.2,121.89-15.47,242.73,14.06,359.18
						C2062.31,828.27,2065.76,829.62,2069.48,828.92z"/><path fill="#fff" d="M2086.73,331.2c1.44-0.27,2.84-0.84,3.97-1.68c2.78-2.08,2.85-5.06,0.17-6.65
						c-24.75-14.65-44.04-32.61-57.34-53.39c-12.88-20.13-19.57-42.05-19.89-65.16c-0.03-2.59-3.2-4.35-7.06-3.93
						c-3.86,0.41-6.97,2.85-6.93,5.44c0.33,24.28,7.37,47.32,20.9,68.48c13.97,21.83,34.24,40.71,60.26,56.11
						C2082.41,331.35,2084.62,331.59,2086.73,331.2z"/><path fill="#fff" d="M2039.9,529.03c2.05-0.38,3.97-1.36,5.12-2.76c1.99-2.42,0.91-5.2-2.41-6.19
						c-30.55-9.16-56.9-22.36-78.3-39.23c-20.74-16.35-35.96-35.46-45.23-56.81c-1.04-2.39-4.89-3.46-8.62-2.38
						c-3.72,1.07-5.9,3.88-4.86,6.27c9.74,22.43,25.73,42.52,47.53,59.7c22.5,17.73,50.18,31.61,82.29,41.23
						C2036.82,529.28,2038.39,529.32,2039.9,529.03z"/><path fill="#fff" d="M2098.29,409.99c28.98-5.43,57.07-13.69,83.8-24.66c32.91-13.5,62.34-30.52,87.48-50.61
						c2.68-2.14,2.59-5.1-0.19-6.61c-2.78-1.51-7.21-1-9.89,1.13c-23.92,19.11-51.93,35.31-83.24,48.16
						c-32.32,13.25-66.74,22.36-102.32,27.07c-3.86,0.52-6.85,3.01-6.67,5.58c0.18,2.57,3.45,4.24,7.31,3.73
						C2082.54,412.72,2090.45,411.46,2098.29,409.99z"/><path fill="#fff" d="M2043.16,636.58c0.37-0.07,0.75-0.16,1.12-0.27c35.86-10.83,68.83-25.78,98-44.42
						c28.26-18.07,51.75-38.85,69.81-61.78c1.92-2.44,0.77-5.19-2.58-6.14c-3.35-0.95-7.63,0.26-9.55,2.7
						c-17.18,21.82-39.53,41.59-66.43,58.79c-27.75,17.74-59.13,31.97-93.25,42.27c-3.7,1.12-5.81,3.95-4.7,6.32
						C2036.57,636.17,2039.82,637.21,2043.16,636.58z"/><g><path fill="#8bdcef" d="M2149.94,754.27c82.08,93.57,463.55,51.06,464.96-115.77c0.09-10.86,0.6-71.63-48.82-130.54
				c-53.25-63.49-131.21-85.16-140.16-87.65C2235.62,367.4,2067.24,660,2149.94,754.27z"/><path fill="#d2edf7" d="M2130.51,746.08c82.08,93.57,463.55,51.06,464.96-115.77c0.09-10.86,0.6-71.63-48.81-130.54
				c-53.25-63.49-131.21-85.16-140.16-87.65C2216.19,359.21,2047.81,651.81,2130.51,746.08z"/><path fill="#fff" d="M2060.32,830.43c0.06,0.05,0.11,0.09,0.17,0.14c2.53,2.04,5.61,2.31,6.9,0.59
						c59.49-79.7,134.74-145.73,223.66-196.28c71.09-40.41,151-70.87,237.51-90.54c2.34-0.53,2.93-3.08,1.32-5.7
						c-1.61-2.61-4.8-4.31-7.13-3.77c-87.13,19.81-167.62,50.49-239.23,91.19c-89.56,50.91-165.35,117.42-225.27,197.7
						C2056.98,825.44,2057.92,828.39,2060.32,830.43z"/><path fill="#fff" d="M2391.78,580.27c0.93,0.79,2.04,1.4,3.17,1.69c2.81,0.7,4.78-0.81,4.4-3.38
						c-3.51-23.73-2-45.65,4.48-65.17c6.28-18.91,16.96-34.76,31.76-47.1c1.66-1.38,1.14-4.35-1.16-6.64
						c-2.29-2.28-5.51-3.01-7.16-1.63c-15.55,12.97-26.78,29.62-33.38,49.49c-6.81,20.51-8.39,43.55-4.71,68.49
						C2389.4,577.55,2390.41,579.11,2391.78,580.27z"/><path fill="#fff" d="M2239.04,653.81c1.33,1.13,2.97,1.86,4.48,1.86c2.61,0.01,3.84-2.14,2.75-4.81
						c-10.11-24.6-15.39-48.6-15.7-71.32c-0.3-22.02,4.09-41.91,13.05-59.13c1-1.93-0.32-4.98-2.98-6.83
						c-2.65-1.85-5.61-1.78-6.62,0.15c-9.42,18.09-14.03,38.99-13.71,62.13c0.32,23.88,5.88,49.1,16.5,74.95
						C2237.26,651.94,2238.06,652.98,2239.04,653.81z"/><path fill="#fff" d="M2346.81,629.13c18.74,15.92,38.84,29.78,59.97,41.34c26.02,14.23,52.51,24.36,78.71,30.09
						c2.79,0.61,4.67-1,4.18-3.6c-0.48-2.6-3.14-5.2-5.93-5.81c-24.94-5.46-50.14-15.09-74.9-28.64
						c-25.55-13.97-49.53-31.49-71.25-52.06c-2.36-2.23-5.54-2.85-7.12-1.39c-1.57,1.46-0.94,4.46,1.42,6.69
						C2336.76,620.36,2341.74,624.82,2346.81,629.13z"/><path fill="#fff" d="M2171.09,712.39c0.24,0.21,0.5,0.4,0.77,0.58c25.84,17.54,52.84,31.05,80.23,40.15
						c26.54,8.82,52.34,13.12,76.67,12.78c2.59-0.04,3.77-2.23,2.62-4.9c-1.14-2.67-4.17-4.8-6.76-4.77
						c-23.15,0.32-47.7-3.77-72.96-12.16c-26.07-8.66-51.75-21.52-76.34-38.21c-2.67-1.81-5.61-1.69-6.56,0.27
						C2167.89,707.91,2168.93,710.56,2171.09,712.39z"/></g><ellipse cx="1507.96" cy="1874.15" fill="#dfe6ff" rx="1102.29" ry="71.79"/><g><circle cx="676.79" cy="832.09" r="146.61" fill="#f8ea14"/><circle cx="676.79" cy="832.09" r="129.55" fill="#f09c23"/><circle cx="676.79" cy="832.09" r="121.85" fill="#f8cd12"/><path fill="#e34f25" d="M737.39,867.83
			c0.44,8.67-0.65,16.31-3.44,23.11c-2.8,6.8-6.94,12.56-12.61,17.47c-5.49,4.72-12.14,8.57-20.13,11.38
			c-2.91,0.89-5.83,1.78-8.93,2.49l0.3,5.9c0.23,4.43-3.27,8.3-7.52,8.52l-6.09,0.31c-4.24,0.22-8.12-3.28-8.35-7.71l-0.24-4.61
			c-4.24,0.22-8.33-0.13-12.42-0.66c-5.39-0.47-10.25-1.51-14.56-2.59c-4.32-1.26-7.9-2.56-10.92-3.88
			c-3.21-1.32-5.31-2.69-6.66-3.73c-1.54-1.22-2.55-2.83-3.21-5.01c-0.85-2.18-1.38-5.29-1.57-8.98c-0.12-2.4-0.04-4.44,0.25-5.93
			c0.1-1.67,0.4-2.98,0.54-3.91c0.31-1.13,0.83-1.89,1.55-2.3c0.72-0.41,1.45-0.63,2.19-0.67c1.47-0.08,3.54,0.56,6.21,2.09
			c2.67,1.53,6.08,3.2,10.06,5.03c3.97,1.65,8.67,3.26,13.92,4.65c5.43,1.39,11.57,2,18.39,1.65c5.16-0.26,9.93-1.06,13.92-2.56
			c4.2-1.14,7.8-2.99,10.64-5.35c3.02-2.37,5.28-5.26,6.77-8.67c1.49-3.4,2.02-7.5,1.79-12.11c-0.24-4.61-1.54-8.43-4.11-11.62
			c-2.56-3.01-5.83-5.62-9.84-8.01c-4.18-2.19-8.72-4.18-13.79-5.77c-4.9-1.78-10.16-3.36-15.43-5.31
			c-5.27-1.77-10.55-3.9-15.67-6.23c-5.12-2.51-9.71-5.42-13.78-9.1c-4.07-3.67-7.62-7.93-10.1-13.17
			c-2.67-5.23-4.28-11.43-4.66-18.81c-0.34-6.64,0.63-12.98,2.91-19.01c2.1-6.02,5.7-11.57,10.45-16.25
			c4.94-4.69,11.02-8.7,18.44-11.85c2.89-1.26,6.18-2.16,9.46-3.07l-0.39-7.75c-0.23-4.43,3.28-8.12,7.53-8.34l6.09-0.31
			c4.24-0.22,8.11,3.1,8.34,7.53l0.33,6.46c2.78,0.04,5.56,0.27,8.35,0.5c4.46,0.51,8.58,1.41,12.14,2.34
			c3.56,0.93,6.76,2.06,9.41,3.22c2.47,1.35,4.56,2.36,5.9,3.4c1.34,0.86,2.12,1.74,2.71,2.45c0.41,0.72,0.81,1.44,1.04,2.35
			c0.23,0.91,0.47,2.01,0.73,3.48c0.25,1.28,0.33,2.94,0.44,4.97c0.1,2.03,0.2,3.87,0.09,5.36c-0.11,1.48-0.41,2.79-0.73,3.74
			c-0.5,1.13-0.84,1.71-1.55,2.3c-0.53,0.4-1.26,0.62-2,0.66c-1.11,0.06-2.62-0.61-4.9-1.78c-2.09-1.19-4.94-2.52-8.34-4.01
			c-3.39-1.31-7.34-2.58-12.02-3.64c-4.5-1.25-9.7-1.72-15.42-1.43c-5.35,0.27-9.74,1.24-13.74,2.55c-3.82,1.3-7.05,3.13-9.34,5.47
			c-2.48,2.16-4.38,4.85-5.33,7.85c-1.32,3.03-1.72,6.19-1.54,9.69c0.24,4.79,1.74,8.79,4.3,11.8c2.57,3.2,6.03,5.8,10.03,8.18
			c4,2.2,8.72,4.18,13.8,5.95c5.27,1.77,10.35,3.54,15.8,5.3c5.27,1.77,10.55,3.9,15.85,6.22c5.11,2.33,9.88,5.23,13.94,8.72
			c4.25,3.48,7.61,7.75,10.27,12.79C735.61,854.61,737.03,860.82,737.39,867.83L737.39,867.83z"/><path fill="#fff" d="M792.5,736.87c-35.66,2.31-37.53,4.18-39.84,39.84c-2.31-35.66-4.18-37.53-39.84-39.84
			c35.66-2.31,37.53-4.18,39.84-39.84C754.97,732.69,756.84,734.56,792.5,736.87z"/></g><g><circle cx="970.53" cy="471.21" r="191.08" fill="#f8ea14"/><circle cx="970.53" cy="471.21" r="168.84" fill="#f09c23" transform="rotate(-45.001 970.528 471.228)"/><circle cx="970.53" cy="471.21" r="158.81" fill="#f8cd12"/><path fill="#e34f25" d="M1049.5,517.79
			c0.58,11.3-0.84,21.25-4.49,30.11c-3.65,8.86-9.05,16.37-16.43,22.77c-7.16,6.15-15.82,11.17-26.24,14.83
			c-3.8,1.16-7.6,2.32-11.64,3.25l0.39,7.69c0.29,5.77-4.27,10.82-9.8,11.1l-7.93,0.4c-5.53,0.28-10.58-4.28-10.88-10.05l-0.31-6.01
			c-5.53,0.28-10.85-0.17-16.19-0.86c-7.02-0.61-13.36-1.97-18.97-3.37c-5.63-1.64-10.29-3.33-14.24-5.06
			c-4.18-1.71-6.93-3.5-8.68-4.86c-2.01-1.58-3.32-3.69-4.19-6.53c-1.11-2.84-1.8-6.9-2.04-11.71c-0.16-3.12-0.05-5.78,0.33-7.73
			c0.13-2.18,0.52-3.88,0.7-5.1c0.41-1.47,1.08-2.47,2.02-2.99c0.94-0.53,1.89-0.82,2.85-0.87c1.92-0.1,4.62,0.73,8.09,2.72
			c3.48,1.99,7.93,4.17,13.11,6.56c5.17,2.14,11.3,4.24,18.14,6.06c7.08,1.81,15.08,2.6,23.97,2.15c6.73-0.34,12.94-1.38,18.15-3.34
			c5.47-1.48,10.16-3.89,13.86-6.97c3.94-3.09,6.88-6.86,8.82-11.3c1.94-4.44,2.63-9.77,2.33-15.78
			c-0.31-6.01-2.01-10.98-5.35-15.15c-3.33-3.93-7.6-7.32-12.82-10.43c-5.45-2.85-11.36-5.45-17.98-7.52
			c-6.39-2.32-13.24-4.39-20.12-6.93c-6.87-2.3-13.76-5.08-20.42-8.12c-6.67-3.27-12.65-7.07-17.96-11.86
			c-5.31-4.79-9.93-10.34-13.17-17.16c-3.48-6.81-5.58-14.9-6.07-24.51c-0.44-8.65,0.82-16.91,3.8-24.78
			c2.73-7.85,7.43-15.08,13.62-21.18c6.44-6.11,14.36-11.34,24.04-15.45c3.77-1.64,8.05-2.82,12.33-4l-0.51-10.1
			c-0.3-5.77,4.28-10.58,9.81-10.86l7.93-0.4c5.53-0.28,10.57,4.04,10.86,9.81l0.43,8.41c3.62,0.06,7.25,0.35,10.88,0.65
			c5.82,0.67,11.18,1.84,15.82,3.05c4.64,1.21,8.81,2.68,12.27,4.19c3.22,1.76,5.94,3.07,7.7,4.43c1.74,1.12,2.77,2.27,3.54,3.19
			c0.53,0.94,1.06,1.87,1.36,3.06c0.3,1.19,0.62,2.62,0.96,4.53c0.33,1.67,0.44,3.83,0.57,6.48c0.13,2.64,0.26,5.05,0.11,6.98
			c-0.14,1.94-0.54,3.64-0.96,4.87c-0.65,1.48-1.09,2.22-2.02,3c-0.7,0.52-1.65,0.81-2.61,0.86c-1.44,0.07-3.41-0.79-6.38-2.33
			c-2.73-1.55-6.43-3.29-10.87-5.23c-4.42-1.7-9.57-3.37-15.67-4.74c-5.87-1.63-12.65-2.25-20.1-1.87
			c-6.97,0.36-12.69,1.61-17.91,3.32c-4.98,1.7-9.19,4.09-12.17,7.13c-3.23,2.82-5.7,6.32-6.95,10.24
			c-1.73,3.94-2.24,8.07-2.01,12.63c0.32,6.25,2.27,11.45,5.6,15.38c3.35,4.17,7.86,7.55,13.08,10.66
			c5.21,2.87,11.37,5.44,17.99,7.76c6.87,2.3,13.49,4.61,20.6,6.9c6.86,2.3,13.75,5.08,20.66,8.1c6.66,3.04,12.88,6.82,18.17,11.36
			c5.53,4.54,9.91,10.1,13.38,16.67C1047.18,500.55,1049.04,508.65,1049.5,517.79L1049.5,517.79z"/><path fill="#fff" d="M1121.33,347.11c-46.47,3.01-48.91,5.45-51.93,51.93c-3.01-46.47-5.45-48.91-51.92-51.93
			c46.47-3.01,48.91-5.45,51.92-51.92C1072.41,341.65,1074.85,344.1,1121.33,347.11z"/></g><g><circle cx="1521.25" cy="343.33" r="231.33" fill="#f8ea14" transform="rotate(-45.001 1521.25 343.346)"/><circle cx="1521.25" cy="343.33" r="204.4" fill="#f09c23"/><circle cx="1521.25" cy="343.33" r="192.26" fill="#f8cd12"/><path fill="#e34f25" d="M1616.85,399.71
			c0.7,13.68-1.02,25.73-5.43,36.46c-4.41,10.73-10.95,19.82-19.89,27.57c-8.67,7.45-19.15,13.52-31.76,17.96
			c-4.6,1.4-9.2,2.8-14.1,3.93l0.47,9.31c0.36,6.98-5.17,13.1-11.86,13.44l-9.6,0.49c-6.69,0.34-12.81-5.18-13.17-12.17l-0.37-7.28
			c-6.69,0.34-13.14-0.2-19.6-1.04c-8.5-0.73-16.17-2.39-22.97-4.08c-6.81-1.99-12.46-4.03-17.24-6.12
			c-5.06-2.08-8.39-4.24-10.51-5.88c-2.43-1.92-4.02-4.46-5.07-7.91c-1.34-3.43-2.18-8.35-2.47-14.17c-0.19-3.78-0.07-7,0.4-9.36
			c0.16-2.63,0.64-4.7,0.85-6.17c0.49-1.78,1.31-2.98,2.44-3.62c1.14-0.64,2.28-0.99,3.45-1.05c2.33-0.12,5.59,0.88,9.8,3.29
			c4.21,2.41,9.59,5.05,15.87,7.94c6.26,2.6,13.68,5.14,21.97,7.34c8.57,2.19,18.25,3.15,29.02,2.6c8.15-0.42,15.67-1.67,21.97-4.04
			c6.62-1.8,12.31-4.71,16.78-8.44c4.77-3.74,8.33-8.3,10.68-13.68c2.35-5.37,3.19-11.83,2.82-19.11
			c-0.37-7.27-2.43-13.3-6.48-18.34c-4.04-4.75-9.21-8.87-15.53-12.63c-6.59-3.46-13.76-6.59-21.76-9.1
			c-7.73-2.81-16.03-5.31-24.35-8.39c-8.31-2.79-16.65-6.15-24.72-9.83c-8.08-3.96-15.32-8.55-21.74-14.36
			c-6.42-5.8-12.02-12.52-15.94-20.78c-4.21-8.25-6.76-18.04-7.35-29.68c-0.53-10.48,1-20.48,4.6-30
			c3.31-9.5,8.99-18.26,16.49-25.64c7.79-7.4,17.39-13.73,29.1-18.7c4.57-1.99,9.75-3.42,14.92-4.85l-0.62-12.22
			c-0.36-6.99,5.18-12.81,11.87-13.15l9.6-0.49c6.69-0.34,12.8,4.89,13.15,11.88l0.52,10.19c4.38,0.07,8.78,0.43,13.17,0.79
			c7.04,0.81,13.54,2.23,19.15,3.69c5.62,1.46,10.67,3.25,14.85,5.08c3.9,2.14,7.19,3.72,9.32,5.36c2.11,1.35,3.35,2.75,4.28,3.87
			c0.64,1.14,1.28,2.27,1.65,3.71c0.37,1.44,0.75,3.17,1.16,5.48c0.39,2.02,0.53,4.64,0.69,7.84c0.16,3.2,0.31,6.11,0.14,8.46
			c-0.17,2.34-0.65,4.41-1.16,5.89c-0.78,1.79-1.32,2.69-2.44,3.63c-0.84,0.63-1.99,0.98-3.16,1.04c-1.75,0.09-4.13-0.96-7.73-2.82
			c-3.3-1.87-7.79-3.98-13.16-6.33c-5.36-2.06-11.59-4.08-18.97-5.74c-7.1-1.97-15.31-2.72-24.33-2.26
			c-8.44,0.43-15.36,1.95-21.68,4.02c-6.02,2.06-11.13,4.95-14.73,8.63c-3.91,3.41-6.9,7.65-8.41,12.39
			c-2.09,4.77-2.71,9.77-2.43,15.3c0.39,7.57,2.75,13.86,6.79,18.62c4.05,5.05,9.51,9.14,15.83,12.91
			c6.31,3.47,13.76,6.59,21.78,9.39c8.31,2.79,16.33,5.59,24.94,8.36c8.31,2.79,16.65,6.15,25.01,9.81
			c8.07,3.68,15.59,8.25,22,13.76c6.7,5.5,12,12.23,16.2,20.18C1614.04,378.85,1616.29,388.65,1616.85,399.71L1616.85,399.71z"/><path fill="#fff" d="M1703.81,193.07c-56.26,3.64-59.22,6.6-62.86,62.86c-3.64-56.26-6.6-59.22-62.86-62.86
			c56.26-3.64,59.22-6.6,62.86-62.86C1644.59,186.48,1647.55,189.43,1703.81,193.07z"/></g><g><path fill="#2c7efe" d="M980.68,793.27v984.05c0,10.29,2.27,20.04,6.33,28.78c10.86,23.48,34.65,39.75,62.22,39.75H2441
			c37.86,0,68.55-30.69,68.55-68.54V793.27c0-27.56-16.28-51.33-39.75-62.22c-8.75-4.05-18.51-6.32-28.8-6.32H1049.23
			C1011.37,724.73,980.68,755.42,980.68,793.27z"/><path fill="#84b2fe" d="M980.68,793.27v984.05c0,10.29,2.27,20.04,6.33,28.78c8.75,4.05,18.5,6.32,28.79,6.32h1391.77
			c37.86,0,68.55-30.69,68.55-68.54V759.84c0-10.29-2.27-20.04-6.32-28.79c-8.75-4.05-18.51-6.32-28.8-6.32H1049.23
			C1011.37,724.73,980.68,755.42,980.68,793.27z"/><path fill="#fff" d="M1657.15,1734.27c0-21.55,17.54-39.09,39.09-39.09H1794c21.55,0,39.09,17.54,39.09,39.09
				c0,21.55-17.54,39.09-39.09,39.09h-97.77C1674.68,1773.36,1657.15,1755.82,1657.15,1734.27z M1696.23,1708.18
				c-14.39,0-26.09,11.7-26.09,26.09c0,14.39,11.7,26.09,26.09,26.09H1794c14.39,0,26.09-11.7,26.09-26.09
				c0-14.39-11.7-26.09-26.09-26.09H1696.23z"/><rect width="1331.27" height="850.45" x="1062.76" y="797.01" fill="#dfe6ff"/><rect width="1331.27" height="95.61" x="1062.76" y="797.01" fill="#fff"/><circle cx="1176.88" cy="846.08" r="19.62" fill="#2c7efe"/><circle cx="1238.19" cy="846.08" r="19.62" fill="#2c7efe"/><circle cx="1299.51" cy="846.08" r="19.62" fill="#2c7efe"/><path fill="#2c7efe" d="M2294.07,833.01h-900.48c-7.22,0-13.07,5.85-13.07,13.07c0,7.22,5.85,13.07,13.07,13.07h900.48
			c7.22,0,13.07-5.85,13.07-13.07C2307.14,838.86,2301.29,833.01,2294.07,833.01z"/></g><g><rect width="86.28" height="65.65" x="1140.45" y="1285.3" fill="#2c7efe"/><rect width="86.28" height="110.14" x="1258.99" y="1240.8" fill="#2c7efe"/><rect width="86.28" height="152.44" x="1378.34" y="1198.5" fill="#2c7efe"/><rect width="86.28" height="212.98" x="1499.23" y="1137.96" fill="#2c7efe"/><rect width="86.28" height="271.34" x="1615.17" y="1079.61" fill="#2c7efe"/><path fill="#0643a3" d="M1360.04,1099.86c0,60.64-49.16,109.79-109.79,109.79c-60.64,0-109.79-49.16-109.79-109.79
				c0-58.64,45.98-106.55,103.85-109.63c1.98,36.55,3.96,73.09,5.94,109.63l96.56-52.3
				C1355.24,1063.12,1360.04,1080.93,1360.04,1099.86z"/><path fill="#84b2fe" d="M1366.52,1015.62l-96.56,52.3c-1.98-36.54-3.96-73.09-5.94-109.63c1.97-0.11,3.95-0.16,5.94-0.16
				C1311.67,958.13,1347.94,981.38,1366.52,1015.62z"/><g opacity=".96"><line x1="1190.83" x2="1696.05" y1="1444.07" y2="1444.07" fill="#84b2fe"/><path fill="#84b2fe" d="M1696.05,1452.4h-505.22c-2.98,0-5.39-3.73-5.39-8.33c0-4.6,2.41-8.33,5.39-8.33h505.22
					c2.98,0,5.39,3.73,5.39,8.33C1701.45,1448.67,1699.03,1452.4,1696.05,1452.4z"/><line x1="1146.32" x2="1695.58" y1="1493.54" y2="1493.54" fill="#84b2fe"/><path fill="#84b2fe" d="M1695.58,1501.87h-549.27c-3.24,0-5.86-3.73-5.86-8.33c0-4.6,2.63-8.33,5.86-8.33h549.27
					c3.24,0,5.86,3.73,5.86,8.33C1701.45,1498.14,1698.82,1501.87,1695.58,1501.87z"/><g><line x1="1146.32" x2="1695.58" y1="1546.04" y2="1546.04" fill="#84b2fe"/><path fill="#84b2fe" d="M1695.58,1554.37h-549.27c-3.24,0-5.86-3.73-5.86-8.33c0-4.6,2.63-8.33,5.86-8.33h549.27
					c3.24,0,5.86,3.73,5.86,8.33C1701.45,1550.64,1698.82,1554.37,1695.58,1554.37z"/></g><g><line x1="1146.32" x2="1695.58" y1="1593.55" y2="1593.55" fill="#84b2fe"/><path fill="#84b2fe" d="M1695.58,1601.87h-549.27c-3.24,0-5.86-3.73-5.86-8.33c0-4.6,2.63-8.33,5.86-8.33h549.27
					c3.24,0,5.86,3.73,5.86,8.33C1701.45,1598.15,1698.82,1601.87,1695.58,1601.87z"/></g></g><g opacity=".96"><path fill="#84b2fe" d="M2339.25,1601.87h-555.1v-255.49h555.1V1601.87z M1796.43,1590.85h530.55v-233.44h-530.55V1590.85z"/><path fill="#84b2fe" d="M1976.19,1601.87h-147.07v-255.49h147.07V1601.87z M1841.4,1590.85h122.52v-233.44H1841.4V1590.85z"/><rect width="12.27" height="244.47" x="2146.17" y="1351.9" fill="#84b2fe"/><path fill="#84b2fe" d="M2339.25,1397.79h-555.1v-51.41h555.1V1397.79z M1796.43,1386.77h530.55v-29.36h-530.55V1386.77z"/></g><g><path fill="#2c7efe" d="M1824.7,1037.32c0,11.2-9.08,20.27-20.27,20.27c-11.2,0-20.27-9.08-20.27-20.27
				c0-11.2,9.08-20.27,20.27-20.27C1815.62,1017.04,1824.7,1026.12,1824.7,1037.32z"/><path fill="#2c7efe" d="M1824.7,1093.26c0,11.2-9.08,20.27-20.27,20.27c-11.2,0-20.27-9.08-20.27-20.27
				c0-11.2,9.08-20.27,20.27-20.27C1815.62,1072.99,1824.7,1082.07,1824.7,1093.26z"/><path fill="#2c7efe" d="M1824.7,1147.75c0,11.2-9.08,20.27-20.27,20.27c-11.2,0-20.27-9.08-20.27-20.27s9.08-20.27,20.27-20.27
				C1815.62,1127.48,1824.7,1136.56,1824.7,1147.75z"/><path fill="#2c7efe" d="M1824.7,1201.69c0,11.2-9.08,20.27-20.27,20.27c-11.2,0-20.27-9.08-20.27-20.27
				c0-11.2,9.08-20.27,20.27-20.27C1815.62,1181.41,1824.7,1190.49,1824.7,1201.69z"/></g><g><path fill="#84b2fe" d="M2174.47,1033.01h-307.19c-3.87,0-7,3.13-7,7s3.13,7,7,7h307.19c3.87,0,7-3.13,7-7
				S2178.34,1033.01,2174.47,1033.01z"/><path fill="#84b2fe" d="M2135.2,1089.43h-267.91c-3.87,0-7,3.13-7,7s3.13,7,7,7h267.91c3.87,0,7-3.13,7-7
				S2139.06,1089.43,2135.2,1089.43z"/><path fill="#84b2fe" d="M2041.25,1143.51h-173.97c-3.87,0-7,3.13-7,7s3.13,7,7,7h173.97c3.87,0,7-3.13,7-7
				S2045.12,1143.51,2041.25,1143.51z"/><path fill="#84b2fe" d="M1972.17,1194.69h-104.88c-3.87,0-7,3.13-7,7s3.13,7,7,7h104.88c3.87,0,7-3.13,7-7
				S1976.04,1194.69,1972.17,1194.69z"/></g></g><g><path fill="#0a5acc" d="M889.81,1798.09c-56.25,74.22-170.59,86.49-252.37,85.15c-54.7,0.89-123.98-4.3-180.7-30.06
			c-28.06-12.75-53.04-30.53-71.66-55.09c-83.78-110.53-29.06-345.77,175.96-585.65h152.81c5.48,6.41,10.85,12.82,16.12,19.22
			C921.69,1464.81,971.35,1690.52,889.81,1798.09z"/><path fill="#0a5acc" d="M780.84,1078.68c-15.9,12.75-35.27,31.3-51.01,59.88c-11.73,21.29-17.95,41.81-21.45,56.65
			c-40.67,0.78-81.34,1.56-122.01,2.34c-6.41,0.12-12.81,0.25-19.22,0.37c-87.52-126.55-96.12-166.8-87.25-179.82
			c14.87-21.85,74.44,39.39,182.65,44.95c79.86,4.11,145.54-24.2,148.63-11.69C812.59,1057.11,798.97,1064.13,780.84,1078.68z"/><path fill="#2c7efe" d="M889.81,1798.09c-69.01,78.2-235.99,84.89-252.37,85.15c-54.7,0.89-123.98-4.3-180.7-30.06
			c-15.65-10.77-27.97-22.9-37.65-35.87c-128.43-171.98,152.05-562.46,175.47-594.47c42.26-0.52,84.52-1.04,126.78-1.55
			C931.34,1445.8,978.99,1697.03,889.81,1798.09z"/><path fill="#2c7efe" d="M780.84,1072.3c-15.9,11.5-35.27,28.24-51.01,54.02c-11.73,19.21-17.95,37.72-21.45,51.1
			c-40.67,0.71-81.34,1.4-122.01,2.11c-73.69-98.85-80.8-131.61-72.46-142.67c14.87-19.72,74.44,35.54,182.64,40.56
			C727.78,1078.87,756.84,1075.84,780.84,1072.3z"/><line x1="558.54" x2="716.34" y1="1203.17" y2="1203.17" fill="#0643a3"/><rect width="157.79" height="7.67" x="558.54" y="1199.33" fill="#0643a3"/><path fill="#0643a3" d="M716.34,1210.84H558.54c-3.52,0-6.37-3.43-6.37-7.67c0-4.24,2.85-7.67,6.37-7.67h157.79
					c3.52,0,6.37,3.43,6.37,7.67C722.7,1207.4,719.85,1210.84,716.34,1210.84z"/><path fill="#0643a3" d="M716.34,1214.67H558.54c-5.27,0-9.55-5.16-9.55-11.5c0-6.34,4.28-11.5,9.55-11.5h157.79
					c5.27,0,9.55,5.16,9.55,11.5C725.89,1209.51,721.6,1214.67,716.34,1214.67z M558.54,1199.33c-1.76,0-3.18,1.72-3.18,3.83
					c0,2.11,1.43,3.83,3.18,3.83h157.79c1.76,0,3.18-1.72,3.18-3.83c0-2.11-1.43-3.83-3.18-3.83H558.54z"/><g><line x1="558.54" x2="716.34" y1="1173.04" y2="1173.04" fill="#0643a3"/><rect width="157.79" height="7.67" x="558.54" y="1169.21" fill="#0643a3"/><g><path fill="#0643a3" d="M716.34,1180.71H558.54c-3.52,0-6.37-3.43-6.37-7.67c0-4.23,2.85-7.67,6.37-7.67h157.79
					c3.52,0,6.37,3.43,6.37,7.67C722.7,1177.28,719.85,1180.71,716.34,1180.71z"/><path fill="#0643a3" d="M716.34,1184.54H558.54c-5.27,0-9.55-5.16-9.55-11.5c0-6.34,4.28-11.5,9.55-11.5h157.79
					c5.27,0,9.55,5.16,9.55,11.5C725.89,1179.38,721.6,1184.54,716.34,1184.54z M558.54,1169.21c-1.76,0-3.18,1.72-3.18,3.83
					c0,2.11,1.43,3.83,3.18,3.83h157.79c1.76,0,3.18-1.72,3.18-3.83c0-2.11-1.43-3.83-3.18-3.83H558.54z"/></g></g><g><path fill="#0643a3" d="M531.57,1244.28c-16.25,10.94-35.26,17.47-51.15,10.49c-10.15-4.46-18.71-14.59-23.49-27.79
					c-5.35-14.78-5.04-30.65,0.84-42.45c5.03-10.1,14.48-17.91,27.32-22.59c10.55-3.84,23.11-5.54,36.33-4.92
					c19.44,0.92,44.24,7.44,50.16,22.79l0,0c5.95,15.42-8.5,36.73-23.99,51.53C542.77,1235.94,537.34,1240.39,531.57,1244.28z
					 M480.91,1180.99c-4.02,2.71-7.29,6.13-9.41,10.38c-3.98,8-4.04,19.64-0.15,30.39c3.31,9.14,9.01,16.23,15.24,18.97
					c13.7,6.02,35.19-5.95,50.41-20.48c15.23-14.54,22.38-29.45,20.27-34.92l0,0c-1.85-4.81-15.59-11.99-36.57-12.98
					C507.12,1171.7,491.44,1173.9,480.91,1180.99z"/><path fill="#0643a3" d="M533.71,1247.46c-20.23,13.62-39.71,17.47-54.83,10.82c-11.11-4.88-20.42-15.81-25.55-29.99
					c-5.7-15.75-5.32-32.75,1.02-45.47c5.48-11,15.66-19.47,29.44-24.48c11.02-4.01,24.1-5.79,37.83-5.15
					c21.58,1.02,46.98,8.18,53.55,25.24c8.33,21.62-16.97,48.09-24.92,55.68C545.01,1239.1,539.45,1243.59,533.71,1247.46z
					 M474.49,1171.51c-5.9,3.97-10.41,8.94-13.29,14.72c-5.42,10.88-5.67,25.62-0.67,39.44c4.42,12.22,12.23,21.54,21.43,25.58
					c17.04,7.49,37.05-3.15,47.46-10.16c5.39-3.63,10.61-7.84,15.51-12.53c13.93-13.31,28.33-33.7,23.06-47.38
					c-4.92-12.76-27.03-19.41-46.76-20.34c-12.71-0.6-24.76,1.02-34.84,4.69C481.97,1167.16,477.98,1169.16,474.49,1171.51z
					 M525.05,1234.79c-13.17,8.87-28.34,14.57-40,9.44c-7.18-3.15-13.64-11.07-17.3-21.17c-4.24-11.7-4.11-24.5,0.32-33.41
					c2.31-4.64,5.91-8.62,10.7-11.85c14.14-9.52,34.16-9.67,42.11-9.3c22.5,1.06,37.39,8.75,39.96,15.44
					c3.07,7.97-5.84,24.41-21.2,39.07C535.34,1227.13,530.36,1231.22,525.05,1234.79z M483.05,1184.17
					c-3.68,2.48-6.41,5.47-8.12,8.91c-3.53,7.09-3.52,17.58,0.02,27.38c2.91,8.05,7.96,14.47,13.18,16.76
					c12.02,5.28,32.38-6.53,46.22-19.74c16.02-15.3,20.33-28.21,19.34-30.77c-0.97-2.52-12.64-9.56-33.17-10.53
					C505.54,1175.47,491.54,1178.46,483.05,1184.17z"/></g><path fill="#fff" d="M778.04,1621.01
			c0.84,16.53-1.23,31.09-6.56,44.05c-5.33,12.96-13.23,23.94-24.04,33.31c-10.47,9-23.14,16.34-38.38,21.7
			c-5.56,1.69-11.11,3.39-17.03,4.75l0.57,11.25c0.43,8.44-6.24,15.83-14.33,16.24l-11.6,0.59c-8.09,0.41-15.48-6.26-15.91-14.7
			l-0.45-8.79c-8.09,0.41-15.88-0.25-23.68-1.26c-10.27-0.89-19.54-2.88-27.75-4.93c-8.23-2.4-15.06-4.87-20.83-7.4
			c-6.12-2.51-10.13-5.12-12.7-7.11c-2.94-2.32-4.86-5.39-6.13-9.56c-1.62-4.15-2.63-10.09-2.99-17.12
			c-0.23-4.57-0.08-8.46,0.48-11.3c0.19-3.18,0.77-5.68,1.03-7.46c0.59-2.15,1.58-3.61,2.95-4.38c1.37-0.77,2.76-1.2,4.17-1.27
			c2.81-0.14,6.75,1.07,11.84,3.98c5.08,2.91,11.59,6.11,19.17,9.6c7.56,3.14,16.53,6.21,26.54,8.87
			c10.36,2.64,22.05,3.81,35.06,3.15c9.84-0.5,18.93-2.02,26.54-4.88c8-2.17,14.87-5.69,20.28-10.2
			c5.76-4.52,10.06-10.03,12.91-16.52c2.84-6.49,3.85-14.3,3.41-23.09c-0.45-8.79-2.94-16.07-7.83-22.16
			c-4.88-5.74-11.12-10.71-18.76-15.26c-7.97-4.18-16.62-7.97-26.3-11c-9.34-3.4-19.37-6.41-29.43-10.13
			c-10.04-3.37-20.12-7.43-29.87-11.87c-9.76-4.79-18.51-10.34-26.27-17.34c-7.76-7.01-14.52-15.12-19.26-25.1
			c-5.09-9.96-8.16-21.79-8.88-35.86c-0.65-12.66,1.21-24.74,5.55-36.24c4-11.48,10.86-22.06,19.93-30.98
			c9.41-8.94,21.01-16.58,35.16-22.59c5.52-2.4,11.78-4.13,18.03-5.86l-0.75-14.77c-0.43-8.44,6.26-15.48,14.35-15.89l11.6-0.59
			c8.09-0.41,15.46,5.91,15.89,14.35l0.63,12.31c5.29,0.08,10.6,0.52,15.91,0.95c8.51,0.98,16.35,2.69,23.14,4.46
			c6.79,1.77,12.89,3.92,17.94,6.13c4.71,2.58,8.69,4.49,11.26,6.48c2.55,1.63,4.05,3.32,5.17,4.67c0.78,1.37,1.55,2.74,1.99,4.48
			c0.44,1.74,0.9,3.83,1.4,6.63c0.48,2.45,0.64,5.61,0.84,9.48c0.2,3.87,0.37,7.39,0.17,10.22c-0.21,2.83-0.79,5.33-1.4,7.12
			c-0.95,2.16-1.6,3.25-2.95,4.38c-1.02,0.76-2.41,1.18-3.81,1.25c-2.11,0.11-4.99-1.16-9.34-3.4c-3.99-2.26-9.41-4.81-15.9-7.65
			c-6.47-2.49-14-4.93-22.92-6.94c-8.58-2.38-18.5-3.29-29.4-2.73c-10.2,0.52-18.56,2.36-26.19,4.86
			c-7.28,2.49-13.44,5.97-17.8,10.43c-4.72,4.12-8.34,9.24-10.16,14.97c-2.52,5.77-3.28,11.8-2.93,18.48
			c0.47,9.14,3.32,16.75,8.2,22.5c4.89,6.1,11.49,11.05,19.13,15.59c7.62,4.19,16.62,7.96,26.31,11.35
			c10.04,3.37,19.73,6.75,30.13,10.1c10.04,3.37,20.12,7.44,30.22,11.85c9.74,4.44,18.84,9.97,26.58,16.62
			c8.09,6.64,14.5,14.77,19.57,24.39C774.64,1595.8,777.36,1607.65,778.04,1621.01L778.04,1621.01z"/></g><g><path fill="#2c7efe" d="M1131.99,1098.97c-16.19-7.19-35.15,0.11-42.34,16.3c-7.19,16.19,0.11,35.15,16.3,42.34
				c16.19,7.19,35.15-0.11,42.34-16.3C1155.48,1125.12,1148.18,1106.16,1131.99,1098.97z M1107.77,1153.49
				c-13.92-6.18-20.19-22.48-14.01-36.39c6.18-13.92,22.48-20.19,36.4-14.01c13.92,6.18,20.19,22.48,14.01,36.4
				C1137.99,1153.4,1121.69,1159.67,1107.77,1153.49z"/><path fill="#2c7efe" d="M1144.17,1139.48c-6.18,13.92-22.48,20.19-36.4,14.01c-13.92-6.18-20.19-22.48-14.01-36.39
				c6.18-13.92,22.48-20.19,36.4-14.01C1144.08,1109.27,1150.35,1125.56,1144.17,1139.48z" opacity=".53"/><path fill="#2c7efe" d="M1112.38,1156.14l-3.03-1.35l-3.59-1.6l-3.03-1.35c-13.02,26.7-26.03,53.39-39.05,80.09
				c-0.61,1.67-0.68,2.96-0.65,3.8c0.14,3.17,2.13,5.71,5.16,6.9c2.92,1.45,6.14,1.22,8.58-0.8c0.64-0.53,1.55-1.46,2.38-3.02
				C1090.23,1211.26,1101.31,1183.7,1112.38,1156.14z"/><path fill="#ffcdad" d="M1068.38,1223.95c3.36,0.09,3.91-3.4,10.76-7.74c3.53-2.25,6.59-3.49,8.58-4.28c7.57-3,8.96-1.58,12.46-3.77
			c6.89-4.32,7.9-13.89,8.03-15.25c0.17-1.81,0.68-8.49-3.65-14.33c-5.46-7.36-16.83-11-23.32-7.13
			c-9.24,5.51-0.88,21.64-13.37,34.81c-3.35,3.53-7.5,6.14-7.26,10.21C1060.81,1220.14,1064.64,1223.85,1068.38,1223.95z"/><path fill="#ffcdad" d="M898.16,1816.45c-2.97,11.65-7.5,15.62-8.31,24.6c-1.08,12.05,5.56,21.79,9.08,26.95
				c19.66,28.83,68.06,26,70.97,25.8c-43.61-28.62-51.71-49.69-50.61-63.88c1.04-13.38,10.67-26.17,4.64-34.1
				c-4.75-6.24-16.18-5.5-24.31-4.16C900.34,1797.42,900.75,1806.29,898.16,1816.45z"/><path fill="#0643a3" d="M895.48,1825.34c6.32,0.15,7.03,15.89,16.37,29.71c6.54,9.68,19.31,21.38,47,27.61
				c9.53,0.63,31.47,2.65,32.49,9.52c0.73,4.91-9.46,10.65-16.35,13.07c-18.02,6.33-35.76-2.25-42.92-5.72
				c-5.82-2.82-15.02-8.17-24.12-18.1c-1.29,6.28-2.58,12.56-3.87,18.85c-0.21,0.26-1.83,2.17-4.32,2.1
				c-2.39-0.07-4.59-1.94-5.23-4.62c0-2.91-0.19-6.16-0.72-9.67c-1.18-7.91-3.64-14.37-5.95-19.1c-1.9-3.59-6.52-13.53-3.96-25.55
				C885.41,1836.39,890.13,1825.21,895.48,1825.34z"/><path fill="#ffcdad" d="M798.63,1816.47c-2.97,11.65-7.49,15.62-8.3,24.6c-1.08,12.05,5.55,21.79,9.06,26.95
				c19.61,28.83,67.91,25.99,70.82,25.78c-43.52-28.61-51.6-49.68-50.5-63.87c1.04-13.38,10.66-26.17,4.64-34.1
				c-4.74-6.24-16.15-5.49-24.26-4.16C800.81,1797.44,801.22,1806.31,798.63,1816.47z"/><path fill="#084db2" d="M795.95,1825.36c6.3,0.15,7.02,15.89,16.33,29.71c6.53,9.68,19.27,21.38,46.9,27.61
				c9.51,0.63,31.41,2.65,32.42,9.52c0.73,4.91-9.44,10.65-16.32,13.08c-17.99,6.33-35.69-2.25-42.83-5.71
				c-5.81-2.82-14.99-8.17-24.07-18.09c-1.29,6.28-2.58,12.57-3.86,18.85c-0.21,0.26-1.83,2.17-4.31,2.1
				c-2.39-0.07-4.58-1.94-5.22-4.62c0-2.91-0.19-6.16-0.72-9.67c-1.18-7.91-3.63-14.37-5.93-19.1c-1.89-3.59-6.5-13.53-3.94-25.54
				C785.9,1836.41,790.61,1825.23,795.95,1825.36z"/><path fill="#0643a3" d="M927.8,1477c9.85,33.63,18.66,74.3,22.53,120.86c7.59,91.19-6.85,167.34-21.51,219.18
				c-2.39,1.38-9.08,4.84-18.16,4.14c-9.38-0.73-15.6-5.46-17.69-7.21c9.05-38.24,17.18-95.64,3.07-160.8
				c-22.54-104.1-87.57-162.02-62.48-196.65c12.92-17.84,47.08-25.81,69.65-13.31C919.5,1452.21,925.68,1469.63,927.8,1477z"/><path fill="#084db2" d="M888.59,1483.51c3.51,34.86,4.7,76.46-0.03,122.94c-9.27,91.03-37.45,163.24-61.37,211.51
				c-2.64,0.93-9.75,3.03-18.42,0.76c-9.18-2.4-14.5-8.25-16.26-10.36c15.91-35.93,34.44-90.86,32.53-157.51
				c-3.05-106.47-56.34-175.34-25.32-204.78c15.98-15.16,51.02-16.73,70.91-0.31C884.98,1457.62,887.86,1475.87,888.59,1483.51z"/><path fill="#f98cb6" d="M807.21,1265.7c14.14-24.32,67.64-5.06,129.81-11.7c35.2-3.76,82.25-16.79,136.01-56.73
			c1.15,0.27,6.17,1.59,9.44,6.52c3.9,5.89,2.17,12.17,1.91,13.07c-52.5,44.11-101.94,66.07-135.72,77.66
			c-33.76,11.58-111.6,38.28-136.52,7.59C804.45,1292.62,800.89,1276.56,807.21,1265.7z"/><path fill="#f98cb6" d="M921.72,1462.26c-14.61,3.98-32.63,7.55-53.41,8.84c-30.3,1.86-56.08-1.77-75.19-6.08
			c-0.72-0.16-1.43-0.33-2.13-0.49c-8.61-31.35-14.09-60.73-16.5-86.8c-4-43.25,0.48-77.39,13.3-96.27
			c4.89-7.2,14.68-21.71,32.68-26.7c3.16-0.88,23.01-5.97,38.4,4.4c24.17,16.29,17.45,53.22,27.23,105.64
			C890.58,1388.86,899.93,1422.81,921.72,1462.26z"/><path fill="#f4ae87" d="M839.08,1229.98c5.1,9.96,5.07,19.5,4.45,25.3c0.07,7.2-6.13,13.98-14.39,16
			c-8.84,2.16-17.77-1.67-20.14-8.92c-3.03-7.92-5.89-17.18-7.95-27.69c-2.39-12.2-3.17-23.38-3.15-33.02
			C803.08,1202.79,828.26,1208.82,839.08,1229.98z"/><path fill="#ffcdad" d="M841.38,1179.24c5.45,2.9,8.06,7.5,10.88,12.46c2.42,4.25,15.88,27.93,3.91,42.47
			c-8.29,10.07-24.84,10.96-36.27,6.02c-17.07-7.38-28.62-30.34-19.41-47.28C808.3,1178.55,828.85,1172.55,841.38,1179.24z"/><path fill="#fff" d="M852.78,1227.73c-2.82,1.52-7.61,3.58-13.93,3.86c-4.55,0.2-8.4-0.58-11.13-1.38
			c0.73,0.98,4.56,5.96,10.65,6.69C844.31,1237.62,850.03,1234,852.78,1227.73z"/><path fill="#66f" d="M815.49,1255.36"/><path fill="#ffb68d" d="M969.02,1380.61c5-1.82,5.88-2.5,9.01-3.08c6.54-1.2,11.45,0.17,14.09,0.65
			c17.29,3.09,31.55-15.72,38.22-10.77c3.64,2.71,2.06,10.32,1.87,11.16c-3.12,14.18-24.62,22.97-41.14,21.95
			c-5.88-0.36-6.28-1.67-12.1-1.48c-14.37,0.47-20.18,8.7-25.59,5.7c-4.86-2.69-6.35-12.78-2.7-17.6
			C953.09,1383.95,956.02,1385.34,969.02,1380.61z"/><path fill="#f98cb6" d="M977.94,1409.54c-43.08,27.69-90.18,37.45-129.6,30.54c-21.73-3.8-41.14-12.67-56.25-26.4
			c-5.67-5.16-10.84-11.09-15.45-17.55c-27.99-39.21-35.63-98.06-11.62-122.27c9.63-9.7,27.49-16.27,39.87-9.98
			c16.94,8.61,11.63,37.33,11.36,65.84c-0.17,18.24,1.73,36.39,12.84,49.14c9.48,10.88,26.72,19.1,59.05,17.59
			c19.34-0.89,44.09-5.29,75.83-14.66c2.28,1.36,8.99,5.74,12.31,14.47C978.41,1401.84,978.24,1406.82,977.94,1409.54z"/><path fill="#060352" d="M854.42,1186.25c6.38-5.98,3.21-24.74-6.97-34.93c-20.34-20.37-73.04-10.87-87.52,15.47
			c-10.45,19,7.28,31.65,0.07,59.25c-9.32,35.66-47.12,34.49-54.73,65.8c-5.95,24.49,8.16,59.81,37.09,70.33
			c30.21,10.98,62.05-10.39,74.76-32.42c14.97-25.97,6.14-57.68,4.33-64.19c-7.41-26.59-22.08-36.06-17.86-54.85
			c2.06-9.17,8.93-18.82,18.14-22.85C835.97,1181.64,848.01,1192.26,854.42,1186.25z"/><g><path fill="#cad7f9" d="M858.41,1371.62h121.44c4.52,0,8.18,3.44,8.18,7.68s-3.66,7.68-8.18,7.68H858.41
				c-4.52,0-8.18-3.44-8.18-7.68S853.89,1371.62,858.41,1371.62z"/><path fill="#cad7f9" d="M916.93,1386.99h140.63c2.33,0,4.32-1.65,4.76-3.94c6.71-35.01,13.42-70.01,20.12-105.02
				c0.57-2.99-1.72-5.76-4.76-5.76H937.21c-2.32,0-4.32,1.65-4.76,3.93l-20.28,105.02C911.59,1384.21,913.88,1386.99,916.93,1386.99
				z"/><path fill="#fff" d="M923.98,1386.99h140.63c2.33,0,4.32-1.65,4.76-3.94c6.71-35.01,13.42-70.01,20.12-105.02
				c0.57-2.99-1.72-5.76-4.76-5.76H944.26c-2.32,0-4.32,1.65-4.76,3.93l-20.28,105.02C918.64,1384.21,920.93,1386.99,923.98,1386.99
				z"/><path fill="#c8d5fc" d="M988.09,1332.31c0,8.98,7.28,16.26,16.26,16.26c8.98,0,16.26-7.28,16.26-16.26
				c0-8.98-7.28-16.26-16.26-16.26C995.37,1316.05,988.09,1323.33,988.09,1332.31z"/></g><path fill="#ef70aa" d="M888.14,1396.45c-32.33,1.51-49.57-6.71-59.05-17.59c-11.12-12.74-13.02-30.9-12.84-49.14
			c0.88,6.96,4.21,25.9,19.78,42.61C856.25,1394.02,882.33,1396.12,888.14,1396.45z"/><path fill="#be96f8" d="M956.13,1393.56c-3.41,1.07-6.83,1.99-10.25,2.77C949.29,1395.41,952.72,1394.48,956.13,1393.56z"/><path fill="#ef70aa" d="M848.33,1440.08c-18.4,8.32-36.81,16.62-55.22,24.94c-0.72-0.16-1.43-0.33-2.13-0.49
			c-6.64-24.17-11.42-47.18-14.36-68.4c4.61,6.46,9.79,12.4,15.45,17.55C807.19,1427.41,826.6,1436.29,848.33,1440.08z"/></g></svg>