<svg xmlns="http://www.w3.org/2000/svg" viewBox="0 0 64 64"><path fill="#ffd54f" d="M42.673 12.646c0-5.811-5.031-10.447-10.975-9.789-4.401.487-8.022 3.996-8.63 8.383a9.842 9.842 0 0 0 4.48 9.722c.837.531 1.304 1.489 1.304 2.48v1.868h7.941v-1.926c0-1.023.56-1.935 1.416-2.495a9.832 9.832 0 0 0 4.465-8.243Z"/><path fill="#fcb316" d="M36.792 25.31v2.633l-3.97 2-3.97-2V25.31h7.94z"/><path fill="#fcb316" d="M35.465 11.172a.999.999 0 0 0-1.414 0l-1.229 1.229-1.229-1.229a.999.999 0 1 0-1.414 1.414l1.643 1.643V25.31a1 1 0 1 0 2 0V14.228l1.643-1.642a.999.999 0 0 0 0-1.414Z"/><path fill="#ffd54f" d="M19.015 14.815a1 1 0 1 0 0-2h-4.548a1 1 0 1 0 0 2h4.548zm.052 5.237-4.145 1.873a1 1 0 0 0 .823 1.822l4.145-1.873a1 1 0 0 0-.823-1.822zm.824-14.297-4.145-1.873a1 1 0 1 0-.823 1.822l4.145 1.873a1 1 0 0 0 .823-1.822zm31.286 7.06h-4.548a1 1 0 1 0 0 2h4.548a1 1 0 1 0 0-2zm-.456 9.11-4.145-1.873a1 1 0 1 0-.824 1.822l4.145 1.873a1 1 0 0 0 .824-1.822zM46.165 7.666a.986.986 0 0 0 .411-.089l4.145-1.873a1 1 0 1 0-.824-1.822l-4.145 1.873a1 1 0 0 0 .413 1.911z"/><rect width="11.881" height="24.327" x="3" y="36.878" fill="#95c8ec" rx="2" ry="2"/><path fill="#fecc81" d="m14.881 57.977 8.955.874a7.987 7.987 0 0 0 3.847-.575L59.006 45.26a3.235 3.235 0 0 0-1.932-6.147l-27.207 6.389a2.955 2.955 0 0 0 0-5.91H14.881v18.386Z"/></svg>