<svg xmlns="http://www.w3.org/2000/svg" enable-background="new 0 0 64 64" viewBox="0 0 64 64"><path d="M51.65,28.15c-0.77-0.67-1.56-1.37-1.76-1.96c-0.21-0.64,0.03-1.71,0.26-2.74c0.36-1.6,0.72-3.25-0.19-4.5
		c-0.92-1.26-2.61-1.42-4.25-1.57c-1.04-0.1-2.12-0.2-2.66-0.59c-0.52-0.38-0.95-1.37-1.36-2.32c-0.63-1.45-1.33-3.1-2.84-3.59
		c-1.45-0.47-2.89,0.38-4.28,1.21c-0.92,0.55-1.88,1.11-2.58,1.11c-0.7,0-1.66-0.56-2.58-1.11c-1.39-0.82-2.84-1.68-4.28-1.21
		c-1.5,0.49-2.21,2.13-2.84,3.59c-0.41,0.95-0.83,1.94-1.36,2.32c-0.53,0.39-1.61,0.49-2.66,0.59c-1.64,0.15-3.34,0.31-4.25,1.57
		c-0.91,1.25-0.54,2.9-0.19,4.5c0.23,1.03,0.47,2.1,0.26,2.74c-0.19,0.59-0.99,1.29-1.76,1.96c-1.2,1.05-2.56,2.24-2.56,3.85
		c0,1.61,1.36,2.8,2.56,3.85c0.77,0.67,1.56,1.37,1.76,1.97c0.21,0.64-0.03,1.71-0.26,2.74c-0.36,1.6-0.72,3.25,0.19,4.5
		c0.92,1.26,2.61,1.42,4.25,1.57c1.04,0.1,2.12,0.2,2.66,0.59c0.52,0.38,0.95,1.37,1.36,2.32c0.63,1.45,1.33,3.1,2.84,3.59
		c1.44,0.47,2.89-0.38,4.28-1.21c0.92-0.55,1.88-1.11,2.58-1.11c0.7,0,1.66,0.56,2.58,1.11c1.12,0.66,2.27,1.34,3.43,1.34
		c0.29,0,0.57-0.04,0.86-0.13c1.5-0.49,2.21-2.13,2.84-3.59c0.41-0.95,0.83-1.94,1.36-2.32c0.53-0.39,1.61-0.49,2.66-0.59
		c1.64-0.15,3.34-0.31,4.25-1.57c0.91-1.25,0.54-2.9,0.19-4.5c-0.23-1.03-0.47-2.1-0.26-2.74c0.19-0.59,0.99-1.29,1.76-1.96
		c1.2-1.05,2.56-2.24,2.56-3.85C54.21,30.39,52.85,29.2,51.65,28.15z M50.37,34.39c-0.97,0.85-1.97,1.72-2.32,2.82
		c-0.37,1.15-0.08,2.48,0.21,3.76c0.25,1.12,0.53,2.39,0.14,2.94c-0.4,0.55-1.71,0.68-2.87,0.78c-1.3,0.12-2.65,0.25-3.62,0.95
		c-0.95,0.69-1.48,1.93-2,3.12c-0.46,1.07-0.99,2.29-1.65,2.51c-0.61,0.2-1.72-0.45-2.7-1.03c-1.15-0.68-2.34-1.38-3.57-1.38
		c-1.23,0-2.42,0.7-3.57,1.38c-0.98,0.58-2.09,1.23-2.7,1.03c-0.67-0.22-1.19-1.43-1.65-2.51c-0.51-1.19-1.04-2.43-2-3.12
		c-0.96-0.7-2.31-0.83-3.62-0.95c-1.15-0.11-2.46-0.23-2.87-0.79c-0.39-0.54-0.11-1.81,0.14-2.94c0.29-1.29,0.58-2.62,0.21-3.76
		c-0.36-1.1-1.36-1.98-2.32-2.82c-0.93-0.82-1.9-1.66-1.9-2.39c0-0.73,0.96-1.57,1.9-2.39c0.97-0.85,1.97-1.72,2.32-2.82
		c0.37-1.15,0.08-2.48-0.21-3.76c-0.25-1.12-0.53-2.39-0.14-2.94c0.4-0.55,1.71-0.68,2.87-0.78c1.3-0.12,2.65-0.25,3.62-0.95
		c0.95-0.69,1.48-1.93,2-3.12c0.46-1.07,0.99-2.29,1.65-2.51c0.62-0.2,1.72,0.45,2.7,1.03c1.15,0.68,2.34,1.38,3.57,1.38
		c1.23,0,2.42-0.7,3.57-1.38c0.98-0.58,2.09-1.23,2.7-1.03c0.67,0.22,1.19,1.43,1.65,2.51c0.51,1.19,1.04,2.43,2,3.12
		c0.96,0.7,2.31,0.83,3.62,0.95c1.15,0.11,2.46,0.23,2.87,0.78c0.39,0.54,0.11,1.81-0.14,2.94c-0.29,1.29-0.58,2.62-0.21,3.76
		c0.36,1.1,1.36,1.98,2.32,2.82c0.93,0.82,1.9,1.66,1.9,2.39C52.27,32.73,51.31,33.57,50.37,34.39z"/><path d="M32,18.38c-7.51,0-13.62,6.11-13.62,13.62c0,7.51,6.11,13.62,13.62,13.62c7.51,0,13.62-6.11,13.62-13.62
		C45.62,24.49,39.51,18.38,32,18.38z M32,43.68c-6.44,0-11.68-5.24-11.68-11.68c0-6.44,5.24-11.68,11.68-11.68
		c6.44,0,11.68,5.24,11.68,11.68C43.68,38.44,38.44,43.68,32,43.68z"/><path d="M37.7 26.65l-8.65 8.65-2.75-2.75c-.38-.38-.99-.38-1.37 0-.38.38-.38.99 0 1.37l3.43 3.43c.19.19.44.28.69.28.25 0 .5-.09.69-.28l9.33-9.33c.38-.38.38-.99 0-1.37C38.69 26.27 38.08 26.27 37.7 26.65zM32 5.66c.54 0 .97-.43.97-.97V.97C32.97.43 32.53 0 32 0c-.54 0-.97.43-.97.97v3.72C31.03 5.22 31.46 5.66 32 5.66zM17.5 8.83c.18.31.51.48.84.48.16 0 .33-.04.48-.13.46-.27.62-.86.36-1.32l-1.86-3.22C17.05 4.18 16.46 4.02 16 4.29c-.46.27-.62.86-.36 1.32L17.5 8.83zM4.64 17.33l3.22 1.86c.15.09.32.13.48.13.34 0 .66-.17.84-.48.27-.46.11-1.06-.36-1.32l-3.22-1.86C5.15 15.38 4.55 15.54 4.28 16 4.02 16.47 4.18 17.06 4.64 17.33zM5.66 32c0-.54-.43-.97-.97-.97H.97C.43 31.03 0 31.47 0 32c0 .54.43.97.97.97h3.72C5.22 32.97 5.66 32.54 5.66 32zM7.86 44.82l-3.22 1.86C4.18 46.95 4.02 47.54 4.29 48c.18.31.51.48.84.48.16 0 .33-.04.48-.13l3.22-1.86c.46-.27.62-.86.36-1.32C8.92 44.71 8.32 44.55 7.86 44.82zM18.83 54.82c-.46-.27-1.06-.11-1.32.36l-1.86 3.22c-.27.46-.11 1.06.36 1.32.15.09.32.13.48.13.34 0 .66-.17.84-.48l1.86-3.22C19.45 55.68 19.3 55.08 18.83 54.82zM32 58.34c-.54 0-.97.43-.97.97v3.72c0 .54.43.97.97.97.54 0 .97-.43.97-.97v-3.72C32.97 58.78 32.54 58.34 32 58.34zM46.5 55.17c-.27-.46-.86-.62-1.32-.36-.46.27-.62.86-.36 1.32l1.86 3.22c.18.31.51.48.84.48.16 0 .33-.04.48-.13.46-.27.62-.86.36-1.32L46.5 55.17zM59.36 46.67l-3.22-1.86c-.46-.27-1.06-.11-1.32.36-.27.46-.11 1.06.36 1.32l3.22 1.86c.15.09.32.13.48.13.34 0 .66-.17.84-.48C59.98 47.53 59.82 46.94 59.36 46.67zM63.03 31.03h-3.72c-.54 0-.97.43-.97.97 0 .54.43.97.97.97h3.72c.54 0 .97-.43.97-.97C64 31.46 63.57 31.03 63.03 31.03zM55.65 19.31c.16 0 .33-.04.48-.13l3.22-1.86c.46-.27.62-.86.36-1.32-.27-.46-.86-.62-1.32-.36l-3.22 1.86c-.46.27-.62.86-.36 1.32C54.99 19.13 55.32 19.31 55.65 19.31zM45.17 9.18c.15.09.32.13.48.13.34 0 .66-.17.84-.48l1.86-3.22c.27-.46.11-1.06-.36-1.32-.46-.27-1.06-.11-1.32.36l-1.86 3.22C44.55 8.32 44.7 8.92 45.17 9.18z"/></svg>