<svg xmlns="http://www.w3.org/2000/svg" viewBox="0 0 512 512"><path fill="#7986bf" fill-rule="evenodd" d="M429.232,436.238c-1.783,0-3.567-.68-4.965-2.049l-33.933-33.933,.578,3.832c.578,3.827-2.073,7.384-5.881,7.953-3.856,.574-7.375-2.072-7.953-5.895l-3.712-24.799c-.289-2.193,.434-4.41,1.976-5.977,1.59-1.571,3.808-2.299,5.977-1.976l24.823,3.687c3.808,.564,6.459,4.126,5.881,7.948-.579,3.827-4.145,6.468-7.953,5.895l-3.808-.569,33.933,33.933c2.699,2.738,2.699,7.167,0,9.9-1.398,1.369-3.181,2.049-4.965,2.049h0Zm22.702-158.31c-1.446,0-2.892-.448-4.145-1.374l-20.148-14.932c-1.784-1.321-2.844-3.408-2.844-5.625s1.06-4.3,2.844-5.625l20.148-14.928c3.085-2.304,7.471-1.649,9.785,1.456,2.314,3.104,1.639,7.49-1.446,9.789l-3.133,2.309h48.008c3.856,0,6.989,3.133,6.989,6.999s-3.133,7.004-6.989,7.004h-48.008l3.133,2.304c3.085,2.304,3.76,6.69,1.446,9.794-1.398,1.851-3.47,2.829-5.64,2.829h0Zm-71.626-139.251c-1.832,0-3.615-.728-4.965-2.049-1.542-1.566-2.266-3.789-1.976-5.982l3.712-24.794c.578-3.827,4.097-6.468,7.953-5.895,3.808,.564,6.459,4.126,5.881,7.948l-.578,3.837,33.933-33.938c2.747-2.733,7.182-2.733,9.929,0,2.699,2.738,2.699,7.167,0,9.9l-33.933,33.933,3.808-.569c3.856-.569,7.375,2.073,7.953,5.9,.578,3.822-2.073,7.384-5.881,7.948l-24.823,3.682c-.337,.053-.675,.077-1.012,.077h0Zm-124.309-51.497c-2.217,0-4.29-1.046-5.639-2.829l-14.942-20.138c-2.265-3.104-1.639-7.49,1.494-9.79,3.085-2.304,7.471-1.653,9.785,1.451l2.313,3.114V11c0-3.866,3.133-6.999,6.989-6.999s6.989,3.133,6.989,6.999V58.988l2.314-3.114c2.314-3.104,6.7-3.755,9.785-1.451,3.133,2.299,3.76,6.686,1.446,9.79l-14.942,20.138c-1.301,1.783-3.374,2.829-5.591,2.829h0Zm-124.309,51.497c-.385,0-.723-.024-1.06-.077l-24.775-3.682c-3.856-.569-6.459-4.126-5.929-7.948,.578-3.827,4.145-6.473,7.953-5.9l3.856,.569-33.933-33.933c-2.747-2.733-2.747-7.163,0-9.9,2.748-2.733,7.134-2.733,9.881,0l33.933,33.938-.578-3.837c-.53-3.822,2.073-7.384,5.929-7.948,3.808-.569,7.375,2.068,7.953,5.895l3.663,24.794c.337,2.193-.386,4.415-1.976,5.982-1.301,1.321-3.085,2.049-4.916,2.049h0ZM60.017,277.929c-2.121,0-4.242-.978-5.591-2.829-2.314-3.104-1.687-7.49,1.446-9.794l3.085-2.304H10.997c-3.856,0-6.989-3.133-6.989-7.004s3.133-6.999,6.989-6.999H58.957l-3.085-2.309c-3.133-2.299-3.76-6.685-1.446-9.789,2.265-3.104,6.651-3.76,9.785-1.456l20.148,14.928c1.783,1.325,2.796,3.408,2.796,5.625s-1.012,4.304-2.796,5.625l-20.148,14.932c-1.253,.926-2.699,1.374-4.194,1.374h0Zm22.751,158.31c-1.831,0-3.615-.68-4.965-2.049-2.747-2.733-2.747-7.162,0-9.9l33.933-33.933-3.856,.569c-3.808,.573-7.375-2.068-7.953-5.895-.53-3.822,2.073-7.384,5.929-7.948l24.775-3.687c2.217-.323,4.434,.405,5.977,1.976,1.591,1.566,2.314,3.784,1.976,5.977l-3.663,24.799c-.578,3.822-4.145,6.463-7.953,5.895-3.856-.569-6.459-4.126-5.929-7.953l.578-3.832-33.933,33.933c-1.35,1.369-3.133,2.049-4.917,2.049h0Zm173.232,71.761c-3.856,0-6.989-3.133-6.989-6.999v-47.988l-2.313,3.109c-2.314,3.109-6.7,3.76-9.785,1.456-3.133-2.299-3.76-6.685-1.494-9.79l14.942-20.138c1.35-1.784,3.422-2.834,5.639-2.834s4.29,1.051,5.591,2.834l14.942,20.138c2.314,3.104,1.687,7.49-1.446,9.79-3.085,2.304-7.471,1.653-9.785-1.456l-2.314-3.109v47.988c0,3.866-3.133,6.999-6.989,6.999Z"/><path fill="#f9ac00" fill-rule="evenodd" d="M179.998,183.239c26.453,0,48.171,20.256,50.5,46.103h-101c2.329-25.847,24.047-46.103,50.5-46.103Z"/><path fill="#fdc72e" fill-rule="evenodd" d="M216.431,229.342h-86.933c2.188-24.29,21.5-43.64,45.774-45.884,21.673,4.154,38.529,22.732,41.16,45.884Z"/><circle cx="179.998" cy="158.925" r="24.151" fill="#fdb0a0"/><path fill="#ffcec0" fill-rule="evenodd" d="M175.108,182.581c-10.994-2.261-19.262-11.993-19.262-23.656s8.267-21.395,19.262-23.656c10.994,2.26,19.262,11.993,19.262,23.656s-8.268,21.395-19.262,23.656Z"/><path fill="#8bbd00" fill-rule="evenodd" d="M332.002,183.239c26.453,0,48.171,20.256,50.5,46.103h-101c2.329-25.847,24.047-46.103,50.5-46.103Z"/><path fill="#a8e304" fill-rule="evenodd" d="M368.435,229.342h-86.933c2.188-24.29,21.5-43.64,45.774-45.884,21.673,4.154,38.529,22.732,41.16,45.884Z"/><circle cx="332.002" cy="158.925" r="24.151" fill="#fdb0a0"/><path fill="#ffcec0" fill-rule="evenodd" d="M327.113,182.581c-10.994-2.261-19.262-11.993-19.262-23.656s8.267-21.395,19.262-23.656c10.994,2.26,19.262,11.993,19.262,23.656s-8.268,21.395-19.262,23.656Z"/><path fill="#2a92fa" fill-rule="evenodd" d="M258.549,183.239c26.453,0,48.171,20.256,50.5,46.103h-101c2.329-25.847,24.047-46.103,50.5-46.103Z"/><path fill="#4eb1fc" fill-rule="evenodd" d="M294.982,229.342h-86.933c2.188-24.29,21.501-43.64,45.774-45.884,21.673,4.154,38.528,22.732,41.16,45.884Z"/><circle cx="258.549" cy="158.925" r="24.151" fill="#fdb0a0"/><path fill="#ffcec0" fill-rule="evenodd" d="M253.66,182.581c-10.994-2.261-19.262-11.993-19.262-23.656s8.267-21.395,19.262-23.656c10.995,2.26,19.262,11.993,19.262,23.656s-8.268,21.395-19.262,23.656Z"/><path fill="#7986bf" fill-rule="evenodd" d="M129.5,250.604v21.062l25.438,5.016,11.171,26.93-14.45,21.548,29.786,29.786,21.548-14.45,26.931,11.171,5.016,25.437h42.124l5.016-25.437,26.93-11.171,21.548,14.45,29.786-29.786-14.45-21.548,11.171-26.93,25.438-5.016v-21.062h-54.971c0,39.504-32.025,71.529-71.53,71.529s-71.529-32.025-71.529-71.529h-54.971Z"/><path fill="#909cd1" fill-rule="evenodd" d="M370.204,271.666l-25.438,5.016-11.171,26.93,14.451,21.548-24.85,24.85-18.888-12.666-34.526,14.322-5.016,25.437h-29.827l-5.016-25.437-34.528-14.322-18.886,12.666-24.85-24.85,14.45-21.548-11.171-26.93-25.438-5.016v-21.062h54.971c0,39.504,32.025,71.529,71.529,71.529s71.53-32.025,71.53-71.529h42.674v21.062Z"/><path fill="#7986bf" fill-rule="evenodd" d="M175.471,250.604h9c0,37.992,29.622,69.061,67.029,71.384-1.489,.093-2.988,.145-4.5,.145-39.504,0-71.529-32.025-71.529-71.529Z"/></svg>