<svg xmlns="http://www.w3.org/2000/svg" viewBox="0 0 1920 1080"><defs><clipPath id="a"><circle cx="419.5" cy="306.5" r="96.5" fill="none"/></clipPath><clipPath id="b"><ellipse cx="827.5" cy="311.17" fill="none" rx="100.5" ry="100.17"/></clipPath></defs><ellipse cx="173.95" cy="174.38" fill="#fff7ef" rx="41.79" ry="40.47"/><path fill="#f7dfca" d="M281.13,950.89c-75.42-98.09-118.47-199-131.66-318.6-9-81.44,8.6-210,65.06-278.44,75.59-91.68,203-112.6,312.66-103,61.22,5.33,113.55,33.64,177.9,33.53,68.93-.11,138.18-15.79,204.22-37.71,118.45-39.32,232.83-96.91,355.58-114.19,206.93-29.12,421.75,74.31,506.69,252.4,23.05,48.33,36.92,100.8,45.3,154.09,12.1,77,12.62,158.06-15,233.42s-86.79,144.27-164.71,171.36c-88.7,30.83-187.54,7-278.68,7H281.07"/><ellipse cx="963.24" cy="957.55" fill="#e8d0bb" rx="789.97" ry="50.47"/><rect width="164.5" height="164.5" x="1469" y="94" fill="#fff" stroke="#6484ed" stroke-miterlimit="10"/><path fill="#6484ed" d="M1557.8,182.16l47.2.65c-.36,25.16-21.56,45.66-47.2,45.66h-.28Z"/><path fill="#ffc022" d="M1550.33,175.44l-.66,46.31c-25.65-.36-46.55-21.15-46.55-46.31,0-25.4,21.31-46.3,47.21-46.3s47.21,20.9,47.21,46.3Z"/><path fill="#ff8d40" d="M1550.16,175.67l31.1-35.09s13.08,12.56,16.68,35.09Z"/><rect width="862.43" height="564.94" x="287.87" y="114.64" fill="#fff" stroke="#f1bc65" stroke-miterlimit="10" stroke-width="2"/><rect width="863.43" height="48.62" x="287.87" y="114.64" fill="#f1bc65" stroke="#fff" stroke-miterlimit="10"/><circle cx="1049.81" cy="137.26" r="8.5" fill="#fff"/><circle cx="1082.81" cy="137.26" r="8.5" fill="#fff"/><circle cx="1115.81" cy="137.26" r="8.5" fill="#fff"/><rect width="862" height="20" x="287.81" y="163.26" fill="#dddde9"/><path fill="#48a4f7" d="M409,515.78l-6-4.45a32.39,32.39,0,0,0-.88-10.48l5.14-5.38a.62.62,0,0,0,.1-.71l-4.1-7.93a.6.6,0,0,0-.63-.33l-7.36,1.07a32.79,32.79,0,0,0-8-6.78l-.18-7.44a.6.6,0,0,0-.42-.57l-8.51-2.72a.62.62,0,0,0-.68.22l-4.45,6a32.39,32.39,0,0,0-10.48.88L357.21,472a.61.61,0,0,0-.7-.1L348.57,476a.63.63,0,0,0-.33.64l1.07,7.36a32.61,32.61,0,0,0-6.78,8l-7.44.17a.62.62,0,0,0-.57.43l-2.72,8.51a.62.62,0,0,0,.22.68l6,4.45a32.41,32.41,0,0,0,.88,10.48l-5.14,5.38a.61.61,0,0,0-.1.7l4.09,7.94a.64.64,0,0,0,.64.33l7.36-1.08a32.36,32.36,0,0,0,8,6.78l.18,7.45a.6.6,0,0,0,.42.57l8.51,2.71a.61.61,0,0,0,.68-.21l4.45-6a32.69,32.69,0,0,0,10.48-.88l5.38,5.14a.61.61,0,0,0,.7.1l7.94-4.1a.63.63,0,0,0,.33-.63l-1.08-7.36a32.62,32.62,0,0,0,6.79-8l7.44-.18a.6.6,0,0,0,.57-.42l2.72-8.51A.63.63,0,0,0,409,515.78Zm-17.29-.24a22,22,0,0,1-8.94,11.77,22.45,22.45,0,0,1-2,1.14,22.06,22.06,0,0,1-28.6-7.53,22.35,22.35,0,0,1-1.15-2c-.11-.21-.21-.43-.32-.65a22.67,22.67,0,0,1-1.26-3.3v0c0-.05,0-.09,0-.14l-.07-.25a.52.52,0,0,1,.22-.58.39.39,0,0,1,.15-.06.52.52,0,0,1,.64.36,21.08,21.08,0,0,0,18.44,15.47,20.82,20.82,0,0,0,11.52-2.25,20.29,20.29,0,0,0,1.87-1.09,21,21,0,0,0,7.17-27.25,21,21,0,0,0-28.33-9,19.87,19.87,0,0,0-1.85,1.08,20.9,20.9,0,0,0-6.38,6.52.52.52,0,0,1-.16.17.54.54,0,0,1-.56,0,.51.51,0,0,1-.17-.72,22.08,22.08,0,0,1,39.8,18.35Zm-27.17-13.48a9,9,0,1,1-.78,12.68,11.2,11.2,0,0,1-.8-1A9,9,0,0,1,364.58,502.06Z"/><path fill="#48a4f7" d="M409,606.78l-6-4.45a32.39,32.39,0,0,0-.88-10.48l5.14-5.38a.62.62,0,0,0,.1-.71l-4.1-7.93a.6.6,0,0,0-.63-.33l-7.36,1.07a32.79,32.79,0,0,0-8-6.78l-.18-7.44a.6.6,0,0,0-.42-.57l-8.51-2.72a.62.62,0,0,0-.68.22l-4.45,6a32.39,32.39,0,0,0-10.48.88L357.21,563a.61.61,0,0,0-.7-.1L348.57,567a.63.63,0,0,0-.33.64l1.07,7.36a32.61,32.61,0,0,0-6.78,8l-7.44.17a.62.62,0,0,0-.57.43l-2.72,8.51a.62.62,0,0,0,.22.68l6,4.45a32.41,32.41,0,0,0,.88,10.48l-5.14,5.38a.61.61,0,0,0-.1.7l4.09,7.94a.64.64,0,0,0,.64.33l7.36-1.08a32.36,32.36,0,0,0,8,6.78l.18,7.45a.6.6,0,0,0,.42.57l8.51,2.71a.61.61,0,0,0,.68-.21l4.45-6a32.69,32.69,0,0,0,10.48-.88l5.38,5.14a.61.61,0,0,0,.7.1l7.94-4.1a.63.63,0,0,0,.33-.63l-1.08-7.36a32.62,32.62,0,0,0,6.79-8l7.44-.18a.6.6,0,0,0,.57-.42l2.72-8.51A.63.63,0,0,0,409,606.78Zm-17.29-.24a22,22,0,0,1-8.94,11.77,22.45,22.45,0,0,1-2,1.14,22.06,22.06,0,0,1-28.6-7.53,22.35,22.35,0,0,1-1.15-2c-.11-.21-.21-.43-.32-.65a22.67,22.67,0,0,1-1.26-3.3v0c0-.05,0-.09,0-.14l-.07-.25a.52.52,0,0,1,.22-.58.39.39,0,0,1,.15-.06.52.52,0,0,1,.64.36,21.08,21.08,0,0,0,18.44,15.47,20.82,20.82,0,0,0,11.52-2.25,20.29,20.29,0,0,0,1.87-1.09,21,21,0,0,0,7.17-27.25,21,21,0,0,0-28.33-9,19.87,19.87,0,0,0-1.85,1.08,20.9,20.9,0,0,0-6.38,6.52.52.52,0,0,1-.16.17.54.54,0,0,1-.56,0,.51.51,0,0,1-.17-.72,22.08,22.08,0,0,1,39.8,18.35Zm-27.17-13.48a9,9,0,1,1-.78,12.68,11.2,11.2,0,0,1-.8-1A9,9,0,0,1,364.58,593.06Z"/><g clip-path="url(#a)"><polygon fill="#8192e7" points="518.72 458.64 447.27 458.64 427.22 512.29 498.45 512.29 518.72 458.64"/><path fill="#d0d03f" d="M341,342.49c-15.81,3.33-27.13,16.11-35.74,29.39a192.17,192.17,0,0,0-26.4,63.74c-1.72,7.94-4.86,17.16-3.29,25.4s8.3,15.61,15.88,19.61c7.85,4.15,17.31,3,24.49-1.09s12.44-10.71,17-17.56c7.95-11.89,10.94-25,17.26-37.92,7.78-15.87,19-31.95,21.18-49.9.94-7.73.66-18.64-6.12-24.64C358.16,343.24,349.77,340.63,341,342.49Z"/><path fill="#5e3417" d="M439.18,257.72a13.36,13.36,0,0,1,6.89-6.35c8-3.56,18.22-.5,23.62,6.44s6.06,17,2.37,25c-2.78,6-8.12,11-14.6,12.34s-13.91-1.79-16.63-7.81"/><path fill="none" stroke="#895f42" stroke-miterlimit="10" d="M471.26,272.43a10.17,10.17,0,0,1-1.19,5.55,21.92,21.92,0,0,1-5.84,8.22,10.91,10.91,0,0,1-9.5,2.36"/><path fill="none" stroke="#895f42" stroke-miterlimit="10" d="M464.77,274.28a7.06,7.06,0,0,1-3.38,3.2,21.28,21.28,0,0,1-4.51,1.41"/><path fill="none" stroke="#895f42" stroke-miterlimit="10" d="M466.31,264.92a17.44,17.44,0,0,0-11.45,2.65"/><path fill="none" stroke="#895f42" stroke-miterlimit="10" d="M462.79,257.2a10.11,10.11,0,0,0-6.7-1.51,22.93,22.93,0,0,0-6.71,1.93"/><path fill="#ffa987" d="M432,323l1.4,54.73L392.88,391l7.77-57.78s.78-9.48,5.25-13.63C412,313.86,430.91,312.77,432,323Z"/><path fill="#da7053" d="M397.53,352.94s12.72-5.91,16.88-12.37A32.32,32.32,0,0,0,419.25,328l-19.1,8.9Z"/><path fill="#6d4121" d="M386.39,267.2c.7-3.83,0-6.44,2.61-9.34s8.8-6.27,12.62-7.73c9.67-3.71,24.16-3.45,32.79,2.28,6.12,4.07,10.41,8.23,13.68,14.81A37.48,37.48,0,0,1,450.61,292c-1.73,7.4-12.51,34.8-17.66,40.4-5.84,6.35-4.91-9.92-13.54-9.84s-17.12-2.85-24.49-7.34a23.69,23.69,0,0,1-5.45-4.24,27,27,0,0,1-3.48-5.27,59.82,59.82,0,0,1-4.37-9.44,37.33,37.33,0,0,1,.82-26"/><path fill="none" stroke="#fff" stroke-miterlimit="10" d="M373.21,318.23a7.14,7.14,0,0,1,10.32,4.57A10.68,10.68,0,0,1,378.22,335"/><path fill="none" stroke="#fff" stroke-miterlimit="10" d="M378.22,335a7.14,7.14,0,0,1-10.31-4.57,10.68,10.68,0,0,1,5.3-12.24"/><path fill="#ffa987" d="M373.89,305.81c-2.3,20.59,1.4,33.61,21.31,35.08,14.45,1.06,27-6.95,31.53-27.16,4.62-20.63-4.37-37.9-18.57-40.79C385.17,268.26,376.47,282.78,373.89,305.81Z"/><path fill="#6d4121" d="M414.85,281.79c-4.69,2.07-9.25,3.41-14.67,1.61a18.37,18.37,0,0,1-11.37-11.25,38.6,38.6,0,0,0-10.24,14.67,35.09,35.09,0,0,1-7.65-27.16c.37,2.27,1.33,4.63,3.31,5.82,3.5,2.1,5.47-1.31,7.45-3.52,3-3.37,8.06-5,12.5-5.19a27.82,27.82,0,0,1,16.68,5.34c4.89,3.4,9.36,8.17,15.28,8.73,2.86.28,6.23-.33,8.2,1.75a7.36,7.36,0,0,1,1.47,2.91,41.11,41.11,0,0,1,.48,22.46,34.83,34.83,0,0,1-4.48,10.69c-1.17,1.71-2.9,5.74-5.15,2.43-2.88-4.2,1.28-10.85-2-14.71-1.53-1.79-4.15-2.23-5.9-3.8a7.59,7.59,0,0,1-2.24-6,17.78,17.78,0,0,1,1.73-6.34C417.08,280.77,416,281.3,414.85,281.79Z"/><path fill="none" stroke="#fff" stroke-miterlimit="10" d="M426.6,323.39A7.15,7.15,0,0,1,436.92,328a10.7,10.7,0,0,1-5.31,12.24"/><path fill="#ffa987" stroke="#da7b5d" stroke-miterlimit="10" d="M425.15,311.28a11.31,11.31,0,0,1,9.3-6,9.13,9.13,0,0,1,8.35,4.22c1.59,2.82,1.2,6.35.13,9.41a13.31,13.31,0,0,1-4,6.19,11,11,0,0,1-6.93,2.17,13.83,13.83,0,0,1-11.43-6.56"/><path fill="none" stroke="#c07a49" stroke-miterlimit="10" d="M436.77,311.63a8.87,8.87,0,0,0-9.49,5.25l1.54-.78a7.24,7.24,0,0,1,4-1.13c1.38.15,2.73,1.5,2.33,2.84"/><path fill="none" stroke="#fff" stroke-miterlimit="10" d="M431.61,340.2a7.14,7.14,0,0,1-10.32-4.57,10.68,10.68,0,0,1,5.31-12.24"/><path fill="none" stroke="#895f42" stroke-miterlimit="10" d="M418.74,274.91a26.71,26.71,0,0,1-7,5.23,13,13,0,0,1-16.83-3.9,25.84,25.84,0,0,1-4.34-9"/><path fill="none" stroke="#895f42" stroke-miterlimit="10" d="M384.93,271.1a10.13,10.13,0,0,1-3,3.92,5.23,5.23,0,0,1-4.72.87,6.37,6.37,0,0,1-1.93-1.24,11.88,11.88,0,0,1-2.21-2.63"/><path fill="none" stroke="#895f42" stroke-miterlimit="10" d="M431.54,291.64a6.84,6.84,0,0,1-5.52,0,5.15,5.15,0,0,1-3-4.48"/><path fill="none" stroke="#895f42" stroke-miterlimit="10" d="M437.76,259.41a32.68,32.68,0,0,0-41.4-1.8"/><path fill="none" stroke="#895f42" stroke-miterlimit="10" d="M426.28,257.05a26.22,26.22,0,0,0-19.84,1.75"/><path fill="none" stroke="#895f42" stroke-miterlimit="10" d="M447.62,273.05A35,35,0,0,1,439,306.33"/><path fill="none" stroke="#895f42" stroke-miterlimit="10" d="M444.12,277.74a14.37,14.37,0,0,1,.41,7,33.54,33.54,0,0,1-4.14,12"/><path fill="none" stroke="#895f42" stroke-miterlimit="10" d="M438.11,269.52a17.77,17.77,0,0,1-7.2,8.53"/><path fill="none" stroke="#895f42" stroke-miterlimit="10" d="M433.88,267.26a11.74,11.74,0,0,1-5.48,2.92"/><path fill="none" stroke="#895f42" stroke-miterlimit="10" d="M387.21,258.29a37.79,37.79,0,0,1,43.21,22.88"/><path fill="#fff" d="M385.1,320.82c4.45,6.94,10.34,5.25,11.61-1.94Z"/><path fill="#ffa987" stroke="#d27854" stroke-miterlimit="10" d="M393,300.61a5.92,5.92,0,0,1-3,4.92,14.51,14.51,0,0,1-5.7,1.78,6.32,6.32,0,0,0,6.54,8"/><path fill="#3d2e2c" d="M384.54,298.69a2.1,2.1,0,1,0,2.14-2.06A2.1,2.1,0,0,0,384.54,298.69Z"/><path fill="#3d2e2c" d="M400.2,302.68a2.62,2.62,0,1,0,2.67-2.56A2.62,2.62,0,0,0,400.2,302.68Z"/><path fill="#6d4121" d="M390.51,292c.3.29.58.7.43,1.08s-.94.48-1.48.36a23,23,0,0,0-6.87-.44,3.63,3.63,0,0,1-1.47-.07,1.09,1.09,0,0,1-.77-1.12c.09-.5.63-.78,1.11-.94C384.08,290,388.4,290,390.51,292Z"/><path fill="#6d4121" d="M402.47,295.5c-.54-.07-1.23-.21-1.35-.74a1,1,0,0,1,.45-1,3.49,3.49,0,0,1,2.79-.27,16.81,16.81,0,0,1,6,2.67,4.61,4.61,0,0,1,2.1,2.67c.18,1-.32,1.69-1.2,1.2s-1.62-1.57-2.48-2.16A14.29,14.29,0,0,0,402.47,295.5Z"/><path fill="#ffa987" d="M466,362.79s-17.79-.17-22.81-3.66-12.44-8.52-16-9.82-29.63,3.63-29.63,3.63-17-1-24.43-2-20.35-6.47-20.35-6.47-14.58,32-2.22,46.83,66.7,29,77.93,24.85,27.46-25,29.7-31.47S466,362.79,466,362.79Z"/><path fill="#fff8c1" d="M429.37,382c-8.84.78-17.74-.11-26.51-1.47-10.87-1.7-22.4-11.27-29.18-19.93.39,7.79,1.35,22.14,3.12,29.74,1,4.1,2.26,8.4,5.42,11.18a17,17,0,0,0,6.93,3.36c13.28,3.57,27.5-.7,39.6-7.22,5.35-2.88,15.38-8.39,17-14.87,1.1-4.31-2.1-4.41-5-3.28A41.45,41.45,0,0,1,429.37,382Z"/><path fill="#d0d03f" d="M453.63,361.45s-8.11,21.81-22.24,28.07-41.12,2.71-41.12,2.71S378,376.57,377.75,368.84s3.49-19.13,3.49-19.13-24.31-12.09-29.55-4-10.68,42-5,50.16,68.15,26.26,77.32,24.15,26.67-18.28,32.1-27.69,9.52-28.23,9.52-28.23Z"/><path fill="#d0d03f" d="M349.53,354.65c2.68,7.33,1.6,15.61-1.36,22.82s-7.65,13.57-12.36,19.79a52.29,52.29,0,0,0-6.54,10.15,39.71,39.71,0,0,0-2.85,12.19,155.81,155.81,0,0,0,0,24q1.44,26.1,4.53,52.09c.45,3.78.06,31,.91,34.72l127.59,2.39c11.82-33.49,9.06-74.86,16.08-114.15,2.89-16.19,4.1-33.65-3.26-48.36a14.12,14.12,0,0,0-4.47-5.7c-2-1.34-4.93-1.66-6.87-.17-6.55,5.05-11.11,18.87-17.51,24.11-9.63,7.9-20.76,7.78-32.4,12.21a41.72,41.72,0,0,1-32-1.1,17.89,17.89,0,0,1-6.3-4.4,21,21,0,0,1-3.42-6.78,154,154,0,0,1-6.65-25.78c-.74-4.4-1.64-9.39-5.4-11.77a4.29,4.29,0,0,0-1.8-.7C353,349.89,350.56,352.37,349.53,354.65Z"/><path fill="none" stroke="#9f9647" stroke-miterlimit="10" d="M344.66,380c-.4,10.77-10.86,18.15-15.41,27.91-3.78,8.1-3.31,17.44-2.77,26.36l3.63,59.25"/><path fill="#d0d03f" d="M482.12,367.85c13.41,10,19.34,27.13,22.6,43.55a214.07,214.07,0,0,1,1.88,72.34c-1.21,8.34-1.56,18.5-5.92,25.71s-13.15,11.33-21.56,11.89c-8.69.57-17-4.63-22.19-11.63s-7.7-15.61-9.5-24.13c-3.14-14.81-1.27-28.63-2.55-43.71-1.58-18.54-6.27-38.77-1.95-56.86,1.87-7.8,6-18.11,14.34-20.92C466,361.15,474.67,362.28,482.12,367.85Z"/><path fill="none" stroke="#9f9647" stroke-miterlimit="10" d="M448.35,489.15c-5-21.63,0-44.66-5.11-66.29"/><ellipse cx="395.73" cy="482.59" fill="#bbb158" rx="31.66" ry="19.07" transform="rotate(-89.52 395.692 482.584)"/><path fill="#ffa987" d="M411.88,454.47a187.9,187.9,0,0,1-25.68-7.14c-13.4-4.65-30.48-12.59-31.07-12.76-16.56-4.8-11.81,17.86-8.87,20.14s65.3,45.6,70.91,45.87S411.88,454.47,411.88,454.47Z"/><path fill="#d0d03f" d="M468,449.13A28.34,28.34,0,0,0,456,448c-5.68.53-9.8,2.76-15.44,3.22-9.76.79-12.5,1.44-17.52,1.36A156.86,156.86,0,0,1,398.63,450s14,7.58,7.68,38.89c-5.38,26.53-13.73,24.49-13.73,24.49s45.37,10.24,61,10.58c25.37.57,39.77-3.77,46.09-14.46,4.08-6.89,3.06-17.1,1.46-24.52-2.47-11.48-8.71-22.21-18.6-28.79A57.39,57.39,0,0,0,468,449.13Z"/><path fill="none" stroke="#9f9647" stroke-miterlimit="10" d="M469.82,450.69c-11.32-5.45-23.45-.22-26.53,0-17,1.4-25.66,2.47-44.47-.53"/><path fill="none" stroke="#9f9647" stroke-miterlimit="10" d="M490.35,517.85c-20.12,11-49.16,4.74-71.71.76-7.5-1.32-18.49-4.07-26-5.39"/><path fill="#ffa987" d="M293.21,334.64a8.53,8.53,0,0,0-1.91-3.57,7.86,7.86,0,0,0-2.8-1.48,42.68,42.68,0,0,0-13.33-2.4l-1.95,54.54c-.16,4.61.32,10.31,4.55,12.14,2.22,1,4.78.45,7.14-.08,4.39-1,8.83-2,12.8-4.11,11.28-6.05,8.6-13.55,5.5-23.91S296.75,345,293.21,334.64Z"/><path fill="#d0d03f" d="M270.63,372.9c-2,16.18-3.72,32.49-2.79,48.77.61,10.64,2.51,27.56,5.93,37.66,3.16,9.34,5.93,12,13.6,18.48,5.14,4.36,13.25,8.21,20,7.68,16.12-1.28,21.29-19.19,20.47-32.85-.52-8.69-3-17.13-5.43-25.48-4.85-16.54-9.6-33.11-14.54-49.63-1.19-4-1.34-5.4-5.51-5.06-3.36.28-6.81,2-10.25,2.48C290.31,375.18,270.16,375.05,270.63,372.9Z"/><path fill="#fffffd" stroke="#dcdde7" stroke-miterlimit="10" d="M323.62,330.36s-46.88-1.78-60.86-3.06c-13.7-1.26-21-1.4-21-1.4s7.75,76.24,9.21,90.08,10.25,23.63,10.25,23.63,3.25,7.25,19.62,10.55,49.86-.84,49.86-.84-6.22-56.31-6.22-69.5S323.62,330.36,323.62,330.36Z"/><polygon fill="#9c9cb9" points="255.83 347.06 312.41 347.77 312.72 343.61 256.13 343.08 255.83 347.06"/><path fill="#9c9cb9" d="M317.45,355.12c-17.57-.5-35.14-.82-52.71-1.25q-7.31-.18-14.61-.38c-1.94-.06-1.93,2.94,0,3,17.57.5,35.14.83,52.71,1.25q7.31.18,14.61.38c1.94.06,1.93-2.94,0-3Z"/><path fill="#9c9cb9" d="M281.57,364.14c-3.75,0-7.49-.24-11.23-.45-5.75-.32-11.5-.56-17.25-.68-1.94,0-1.94,3,0,3,5.75.12,11.5.36,17.25.68,3.74.21,7.48.45,11.23.45a1.5,1.5,0,0,0,0-3Z"/><path fill="#9c9cb9" d="M282.05,375.3c-9-.32-18.05-.5-27.08-.82-1.93-.07-1.93,2.93,0,3,9,.32,18.06.5,27.08.82,1.93.07,1.93-2.93,0-3Z"/><path fill="#9c9cb9" d="M283.47,388.88c-9.08.18-18.15-.31-27.23-.12-1.93,0-1.93,3,0,3,9.08-.19,18.15.3,27.23.12,1.93,0,1.94-3,0-3Z"/><path fill="#9c9cb9" d="M319.93,400.61l-49.75-.16-13.49,0a1.5,1.5,0,0,0,0,3l49.75.16,13.49,0a1.5,1.5,0,0,0,0-3Z"/><path fill="#9c9cb9" d="M294.35,409.7c-11.53,0-23.05-.23-34.57-.27a1.5,1.5,0,0,0,0,3c11.52,0,23,.23,34.57.27a1.5,1.5,0,0,0,0-3Z"/><path fill="#9c9cb9" d="M294.28,420c-11.52,0-23-.23-34.57-.27a1.5,1.5,0,0,0,0,3c11.53,0,23.05.23,34.57.27a1.5,1.5,0,0,0,0-3Z"/><path fill="#e0e2ee" d="M264,431.54c3.28-.32,6.61-1.13,9.81-.4a36.38,36.38,0,0,0,6.42,18.75c-.34-.5-4.25-.83-5-1.06a31.89,31.89,0,0,1-5.08-2,32.77,32.77,0,0,1-8.66-6.36c-2.34-2.39-5-5.57-6.11-8.81-.93-2.8.58-1.27,2.44-.6A14.39,14.39,0,0,0,264,431.54Z"/><path fill="#9c9cb9" d="M290.34,380a14.13,14.13,0,1,0,16.85-10.76l-3.05,13.81Z"/><path fill="#c7c7da" d="M303.21,381.58l3.05-13.8a14.13,14.13,0,0,0-16.85,10.75"/><path fill="#ffa987" d="M290,329l-.07.31a27.67,27.67,0,0,1-2.58,5.93c-1,2-1.64,4-2.8,5.93a4.29,4.29,0,0,1-2.43,2.23,2.7,2.7,0,0,1-1.69-.27,2.24,2.24,0,0,1-.83-.64,3,3,0,0,1-.32-2,30.71,30.71,0,0,1,.86-3.68c-1.09,2.55-2.18,5.12-3.25,7.69-.41,1-.95,2.1-1.91,2.36a2.1,2.1,0,0,1-2-.75c-1.59-1.72-1.19-4.83-.61-7-.62,2.34-1.38,4.64-2.13,6.94a2.42,2.42,0,0,1-1,1.5,1.56,1.56,0,0,1-1,.08A3.83,3.83,0,0,1,266,346c-1-1.45-1.11-3.82-.9-5.58a29.07,29.07,0,0,0,.44-4.15c0-.74,0,2.69-2,2.4a4.74,4.74,0,0,1-2-1.76c-.72-2.13-.31-3.89.11-5.88a34.94,34.94,0,0,1,1.77-6.64,5.35,5.35,0,0,1,1.44-2.31c.71-.54,4.36-1.21,4.82-.45,2.07-1.92,3.5-2,6-1,2.45-1.79,7.3-.13,8.43,2.72C287.11,323.27,290.76,325.71,290,329Z"/><path fill="none" stroke="#d27854" stroke-miterlimit="10" d="M283.2,328.52l-3.21,8.6"/><path fill="none" stroke="#d27854" stroke-miterlimit="10" d="M275.92,328.21a44.24,44.24,0,0,0-4,13.13"/><path fill="none" stroke="#d27854" stroke-miterlimit="10" d="M269.72,325.56a42.21,42.21,0,0,0-4.35,11"/><path fill="#ffa987" d="M356.9,433.74c-5.42-7.33-11.13-14.92-19.27-19a58.54,58.54,0,0,0-11.3-3.91,103.93,103.93,0,0,0-12.66-2.88c-1.8,3.52,8.76,9.38,12.94,12-4-.77-10.38-1.58-14.35-2.35s-7.81,2.06-11.86,2.48a2.29,2.29,0,0,0-1.76.72,1.77,1.77,0,0,0,.14,1.88,5.93,5.93,0,0,0,4.15,2.35,31.16,31.16,0,0,1,4.84.82c-2.5.66-4.57,2-7.07,2.68-.7.19-1.5.45-1.76,1.13-.38,1,.7,1.93,1.69,2.35a11.78,11.78,0,0,0,6.74.71c-3,0-5.9,2-8.41,3.63.25,1.76,2.44,2.41,4.22,2.47a23.21,23.21,0,0,0,6-.58,85.31,85.31,0,0,0,16,5.4,57.49,57.49,0,0,0,13.7,11.78c3.41,2.16,7.64,4,11.39,2.46a11.49,11.49,0,0,0,5-4.64A27.4,27.4,0,0,0,359.6,441C359.83,438.61,358.32,435.66,356.9,433.74Z"/><path fill="none" stroke="#d27854" stroke-miterlimit="10" d="M327.67,428a31.08,31.08,0,0,0-18-1.41"/><path fill="none" stroke="#d27854" stroke-miterlimit="10" d="M325.7,434.39c-5.93-2.28-12.54-1.61-18.85-.87"/><path fill="none" stroke="#d27854" stroke-miterlimit="10" d="M333.9,422.64l-7.48-2.2"/></g><g clip-path="url(#b)"><path fill="#e78e36" d="M824.25,342A29.25,29.25,0,0,1,851,347c6.87,5.56,10.81,14,13.56,22.37q-15.1,2.21-30.31,3.58c-9.67.87-20.69,2.85-30.32,1.77C803,360.48,809.94,346.56,824.25,342Z"/><path fill="#ffb584" d="M848.18,317.44l5.62,53.08-44.92,17.23,7.57-57s.75-9.35,5.2-13.45C827.74,311.69,847.08,307.32,848.18,317.44Z"/><path fill="#dc8352" d="M812.45,356.05s16.54-4.83,24.81-17.23a40.3,40.3,0,0,0,5.52-13.1L816,334.41Z"/><path fill="#915927" d="M790.57,266.74a13.92,13.92,0,0,0-3,7.77c-.58,5.18.62,10.69,4,14.65s9.14,6,14.07,4.33a7.39,7.39,0,0,0,2.78-1.61,8.15,8.15,0,0,0,2.13-4.72c.68-4.44-.53-8.92-1.73-13.25C806.68,266.25,797.65,258.73,790.57,266.74Z"/><path fill="#ffb584" d="M793.88,313.08c-.24,20.43,7.52,28.72,27.2,28.2,14.28-.38,27.51-10.19,30-30.47,1-8.61,5.22-26.05,2.43-32.33-3.93-8.83-25.88-9.44-34.18-10.28C796.28,265.87,794.14,290.22,793.88,313.08Z"/><path fill="#915927" d="M795.59,253.86a38.87,38.87,0,0,0,7.68,23c2.82,3.77,6.47,7.09,10.93,8.6,5.38,1.82,11.3.82,16.79-.65,6.7-1.79,13.32-4.3,18.85-8.48,3.47-2.62,6.54-6,8-10.11s1-9-1.81-12.35a14.6,14.6,0,0,0-6.42-4.08,24.66,24.66,0,0,0-12.63-1c-2.41.45-4.83,1.26-7.25.94-3.12-.42-5.66-2.63-7.82-4.91-3.89-4.09-9.45-9.45-15.74-7.78C798.74,239,795.57,246.94,795.59,253.86Z"/><path fill="#915927" d="M848.47,290.76c.18,3.46-1.14,6.8-1.78,10.21-.94,4.95,0,10.94,4.43,13.42a3.61,3.61,0,0,0,3,.45A4.5,4.5,0,0,0,856,313a131.86,131.86,0,0,0,12.74-25.2,17.1,17.1,0,0,0,1.46-6.37,6.41,6.41,0,0,0-2.94-5.55,7.78,7.78,0,0,1-1.57-.89c-1.75-1.58,0-4.36.13-6.71.23-3.43-3.44-6.1-6.89-6.12s-6.59,1.79-9.55,3.55c-2.67,1.59-16.34,9.46-13.48,13.53.81,1.16,6.6,1.9,8.29,3.34A11.76,11.76,0,0,1,848.47,290.76Z"/><path fill="none" stroke="#a45813" stroke-miterlimit="10" d="M799,248.21h-.31a44.67,44.67,0,0,0,2.7,18.28c2.83,7,7.85,13.47,14.78,16.55s15.85,2.16,21.09-3.33"/><path fill="none" stroke="#a45813" stroke-miterlimit="10" d="M807.14,261.71A14.44,14.44,0,0,0,824.46,276"/><path fill="none" stroke="#a45813" stroke-miterlimit="10" d="M834,255.89c5.71-2.33,12.48-2.79,17.89.17a9.62,9.62,0,0,1,3.72,3.32,5.46,5.46,0,0,1,.54,4.82"/><path fill="none" stroke="#a45813" stroke-miterlimit="10" d="M859.48,266.45a3.05,3.05,0,0,1,2,2.42,8.91,8.91,0,0,1-.15,3.29"/><path fill="none" stroke="#a45813" stroke-miterlimit="10" d="M847.5,280.08a1.38,1.38,0,0,1,1.66.08,3.74,3.74,0,0,1,1,1.46,25.42,25.42,0,0,1,.33,19.83"/><path fill="none" stroke="#a45813" stroke-miterlimit="10" d="M861.86,280.12a.68.68,0,0,1,.9-.46,1.63,1.63,0,0,1,.81.79c1.53,2.63.94,6-.14,8.83s-2.61,5.6-2.87,8.64"/><path fill="none" stroke="#a45813" stroke-miterlimit="10" d="M795.28,268.29a8,8,0,0,0-4.25,4.4,13.35,13.35,0,0,0-.86,6.17,20.48,20.48,0,0,0,3,9.27"/><path fill="#ac611c" d="M802.92,294.56a2.53,2.53,0,0,0,2.37,1.18,8.72,8.72,0,0,0,4.67-1.23,2.28,2.28,0,0,0,1.08-1.15,1.68,1.68,0,0,0-1.21-1.93,3.7,3.7,0,0,0-2.46.29C806.09,292.24,802.56,293.7,802.92,294.56Z"/><path fill="#ac611c" d="M830.9,296.22c.67.53,1.4,1.38,1,2.15s-1.2.71-1.91.63a12.05,12.05,0,0,1-5.4-2c-.25-.16-3.64-2.59-2.69-3.71S829.42,295,830.9,296.22Z"/><path fill="#fff" d="M808.06,322c6.5,9.45,12.19,3.76,11.2-3Z"/><path fill="#ffb584" stroke="#d58854" stroke-miterlimit="10" d="M813.84,301.37a5.87,5.87,0,0,1-2.44,5.13,14.67,14.67,0,0,1-5.43,2.31,6.23,6.23,0,0,0,7.21,7.15"/><path fill="#3d2e2c" d="M805.33,300.32a2.07,2.07,0,1,0,1.9-2.23A2.07,2.07,0,0,0,805.33,300.32Z"/><path fill="#3d2e2c" d="M821.09,302.7a2.59,2.59,0,1,0,2.37-2.78A2.59,2.59,0,0,0,821.09,302.7Z"/><path fill="#ffb584" stroke="#dc8f5b" stroke-miterlimit="10" d="M846.42,308.68A11.14,11.14,0,0,1,855,301.9a9,9,0,0,1,8.61,3.32c1.84,2.61,1.8,6.12,1,9.22a13.08,13.08,0,0,1-3.34,6.47,10.79,10.79,0,0,1-6.58,2.81,13.64,13.64,0,0,1-11.86-5.31"/><path fill="none" stroke="#dc8f5b" stroke-miterlimit="10" d="M857.86,307.88a8.73,8.73,0,0,0-8.79,6.09l1.42-.92a7.26,7.26,0,0,1,3.79-1.5c1.38,0,2.83,1.2,2.57,2.55"/><path fill="#ffa545" d="M787,363.63s-13.86-7.38-34.45.1-75.88,111.13-80.28,122a21.87,21.87,0,0,0,6.63,24c8.27,6.84,26.93-.39,32.29-1.38,11.05-2,67.56-101.91,69.32-108.84S793.46,369.41,787,363.63Z"/><path fill="#ffb584" d="M812.22,358.81s27.22-6.82,31.65-7.21,8.4.84,12.61,2.64,11.8,18.35,11.11,21.1-48.23,22.07-56.16,21-11.2-8.77-10.6-14.56S812.22,358.81,812.22,358.81Z"/><path fill="#fff" d="M806.25,369.14s6.89,17.23,24.81,16.54C847.6,385,860.7,376,860.7,376s4.78,40.35,3.77,46.36S850.6,538.82,850.6,538.82H799Z"/><path fill="#ffa545" d="M808.84,356.38S813.11,457.3,813.12,469s-3,69.78-3,69.78H739.4s10.34-101.75,11.72-112.48,8.15-64.95,23.43-66.16C800.74,358.11,808.84,356.38,808.84,356.38Z"/><path fill="none" stroke="#a46f5d" stroke-miterlimit="10" d="M753.92,398c-3.85,23.32-3.87,47.1-6.82,70.55-1.31,10.47-6.32,57.27-6.75,70.26"/><path fill="#e78e36" d="M810.39,351.22s2.65,38.6,3.05,55.14,0,74.1,0,74.1S802.76,441.82,798,427.88s-10.33-21.38-7.22-28a23,23,0,0,1,9.5-9.8s-14.32.95-17.25-2.76-.55-7.89,1.71-10.28S810.39,351.22,810.39,351.22Z"/><path fill="#ffa545" d="M856.56,354s37,11.95,42.67,13,10.19,35.23,11.78,40S921.34,538.82,921,538.82H847.6S859.51,440.53,861,431C867.59,389.13,856.56,354,856.56,354Z"/><path fill="#e78e36" d="M851.05,347.09s10.34,22.05,9.65,62c-.29,16.54-5.15,74.8-5.15,74.8s15.51-34.67,20.31-48.61,10.32-25.35,7.21-32-14.33-9.8-14.33-9.8,19.15,1,22.08-2.76-2.37-15.11-4.62-17.5S851.05,347.09,851.05,347.09Z"/><path fill="#ffa545" d="M983.79,480.92c-6.36-15.76-15.17-30.88-23.34-45.74-11.89-21.65-23.92-48.77-45.48-62.46-6.6-4.19-14.61-6.7-22.3-5.28a3.9,3.9,0,0,0-2.17.94c-.48.51,4.24,9.91,4.08,10.59-8,32.63-3.18,50.76,11.81,79.17,6.61,12.53,13.35,25.06,20.88,37.07,2.69,4.31,8.24,16.21,14.06,17.28,5.37,1,27.57-.75,35.84-7.58A21.86,21.86,0,0,0,983.79,480.92Z"/><path fill="none" stroke="#a46f5d" stroke-miterlimit="10" d="M887.74,420.87l29.46,59.35"/><path fill="#ffb584" d="M855.16,451.37a15.48,15.48,0,0,0-3.26-2.9,15.87,15.87,0,0,0-4.31-1.5l-27.1-6.59c-.2,0-.83-.35-1-.35a6,6,0,0,0,2.11,5.44,9.12,9.12,0,0,0,5.63,2c-2.23-.11-4.81,0-7-.07a.83.83,0,0,0-.42.05c-.27.15-.29.53-.24.83a6,6,0,0,0,5.92,5,30.27,30.27,0,0,0-5,1.49,4,4,0,0,0,3.08,2.89,38.56,38.56,0,0,0,4.43.55,40.45,40.45,0,0,1-5.93,3.13,4.12,4.12,0,0,0,2.69,3.75,10.42,10.42,0,0,0,4.84.52,51.94,51.94,0,0,0,7.46-1.06c1.37-.3,2.15,1.19,2.87,2.39a48.74,48.74,0,0,1,2.58,4.84c-.4.72-1.73.84-2.5.56a8.38,8.38,0,0,1-2.07-1.35,16.06,16.06,0,0,0-6.52-2.5,8.24,8.24,0,0,0-2.52-.2,3.14,3.14,0,0,0-2.17,1.15c-.18.26-.26.71,0,.81-.53.42-.26.75.06,1.35a12.65,12.65,0,0,0,3.12,3.45L840.29,484c6.05,5.2,13.1,7.92,20.75,10a19.4,19.4,0,0,0,8.05.87,11.69,11.69,0,0,0,9-8c2.19-7-2.65-12.49-6.87-17.43Q863.41,460.25,855.16,451.37Z"/><path fill="#ffb584" stroke="#a95233" stroke-miterlimit="10" d="M834.36,457.13l-.78.34a86.19,86.19,0,0,1,14.94-1.67"/><path fill="#ffb584" stroke="#a95233" stroke-miterlimit="10" d="M839.26,464.15a43.45,43.45,0,0,1,6.35.22,53.39,53.39,0,0,0,5,10.4"/><path fill="#ffb584" stroke="#a95233" stroke-miterlimit="10" d="M826.68,452.42q10.25.19,20.45,1"/><path fill="#ffb584" stroke="#a95233" stroke-miterlimit="10" d="M828.77,447.08l11,2.14"/><polygon fill="#305c77" points="846.6 512.58 770.1 512.58 742.85 414.63 819.35 414.63 846.6 512.58"/><path fill="#ffb584" d="M749.05,488.87q-4.83-12.24-8.61-24.85c-.74-2.46-1.45-5.13-.6-7.55a11.85,11.85,0,0,1,3.7-4.69A96.55,96.55,0,0,1,767,436.57a3.92,3.92,0,0,1,2.57-.51,2.73,2.73,0,0,1,1.6,3.3,7.94,7.94,0,0,1-2.16,3.38l-10.71,11.73a99.93,99.93,0,0,1,18.43-8.36c1.68-.56,3.62-1,5.13-.13a3.18,3.18,0,0,1-1.71,5.91c1.46-.31,2.47-.24,3.39.94a2.8,2.8,0,0,1-.11,3.13,8.2,8.2,0,0,1-2.51,2.16c.92-1,2.61,1,2.62,2.33s-1,2.43-1.94,3.36a201.63,201.63,0,0,1-20.89,17.83c.95,3.69,3.42,7.63,1.85,11.11-1.28,2.83-5,3.93-8,2.87S750.19,491.76,749.05,488.87Z"/><path fill="none" stroke="#a95233" stroke-miterlimit="10" d="M758.52,462.14l20.37-10.59"/><path fill="none" stroke="#a95233" stroke-miterlimit="10" d="M761.73,469.72l17.61-10.22"/><path fill="none" d="M786.32,375.15a79.91,79.91,0,1,0-27.75-23.76L746.4,383.92l32.2-9.8"/></g><path fill="#ffc022" d="M943.66,551.16C943,511,975,477.87,1014.92,477.23s72.95,31.47,73.59,71.59-31.33,73.29-71.26,73.93S944.3,591.28,943.66,551.16Zm107.05-1.73a34.63,34.63,0,1,0-34.07,35.35A34.74,34.74,0,0,0,1050.71,549.43Z"/><path fill="#ff8d40" d="M943.66,551.16C943,511,975,477.88,1014.92,477.23l.61,38a34.79,34.79,0,0,0,1.11,69.58l.61,38C977.31,623.39,944.3,591.28,943.66,551.16Z"/><path fill="#6484ed" d="M1008.42,471.39c46.72-.75,84,35.51,84.74,82.44l-44.22.72c-.36-22.44-17.43-36.57-39.77-36.21Z"/><rect width="86" height="8" x="530.31" y="317" fill="#b6dbfc"/><rect width="140.79" height="8" x="530.31" y="287.76" fill="#b6dbfc"/><rect width="86" height="8" x="941.31" y="308" fill="#b6dbfc"/><rect width="140.79" height="8" x="941.31" y="278.76" fill="#b6dbfc"/><rect width="219.3" height="8" x="434.31" y="499.76" fill="#b6dbfc"/><rect width="359" height="8" x="434.31" y="520.76" fill="#b6dbfc"/><rect width="219.3" height="8" x="434.31" y="588.76" fill="#b6dbfc"/><rect width="359" height="8" x="434.31" y="609.76" fill="#b6dbfc"/><polygon fill="#d39735" stroke="#7078c0" stroke-miterlimit="10" stroke-width=".5" points="1534.28 742.78 1584.98 975.45 1575.32 975.45 1499.42 748.84 1534.28 742.78"/><polygon fill="#ce8315" stroke="#7078c0" stroke-miterlimit="10" stroke-width=".5" points="1444.13 742.78 1494.84 975.45 1485.18 975.45 1409.27 748.84 1444.13 742.78"/><polygon fill="#ce8315" stroke="#7078c0" stroke-miterlimit="10" stroke-width=".5" points="1241.06 739.06 1190.35 971.73 1200.01 971.73 1275.91 745.12 1241.06 739.06"/><polygon fill="#d39735" stroke="#7078c0" stroke-miterlimit="10" stroke-width=".5" points="1331.2 739.06 1311 978.04 1320.66 978.04 1366.82 745.28 1331.2 739.06"/><path fill="#d3dff4" stroke="#7078c0" stroke-miterlimit="10" stroke-width=".5" d="M1334.66,716.19l256.58,20,28.22-225.15c5.4-37.19-30.39-69.87-76.52-69.87H1441.53c-39.06,0-71.94,23.73-76.52,55.22Z"/><path fill="#aabcd6" stroke="#7078c0" stroke-miterlimit="10" stroke-width=".5" d="M1228.48,763.62l176.29.61v-29l-195.26-.67v5.06C1209.51,752.85,1218,763.59,1228.48,763.62Z"/><path fill="#aabcd6" stroke="#7078c0" stroke-miterlimit="10" stroke-width=".5" d="M1319.17,728.89l258.5,7.09,28.22-225.15c5.4-37.19-30.39-69.87-76.52-69.87H1428c-39.06,0-71.94,23.73-76.52,55.22Z"/><path fill="#d3dff4" stroke="#7078c0" stroke-miterlimit="10" stroke-width=".5" d="M1570.41,764.28l-165.23-.36V735l188.48-4.18v12.55C1593.66,753.06,1584.19,761.59,1570.41,764.28Z"/><polygon fill="#ccd8e5" points="1204.65 735.65 1309.2 725.14 1578.24 730.78 1450.44 735.35 1204.65 735.65"/><g><path fill="#5ab1e2" d="M1462.56,598.18s13.5,63.18,4.18,80.35-59.84,9.76-66.88,12.3-175.33,22.93-193.95,18-40.07-10.36-43.65-21.81c-13.34-42.71,31.34-67.68,37.8-68.38s162-29.13,171.37-29.52S1462.1,595.31,1462.56,598.18Z"/></g><g><path fill="#ffb584" d="M1328.41,898.11l40.65-30.18s9.56,22.52,16.31,38.68c-17,12.59-27,9.87-47.83,12.67C1340.46,907.45,1328.41,898.11,1328.41,898.11Z"/><path fill="#34437a" d="M1315.93,942c3.18-3.39,17.79-21.79,19.85-30.1,20.85-2.8,30.77-1.58,47.81-14.17,8.52,20.41,19.67,41.61,20.37,46,1.25,7.94-33.47,13.16-47.24,21.11s-23.55,15.11-34.65,19.62-34.4-2.13-38.23-10.28S1306.25,952.33,1315.93,942Z"/><path fill="#5ab1e2" d="M1162.26,687.06s6.94,31.33,29,64.5c45.38,68.29,122.2,153,125.36,153,4.71,0,64-29.67,64.39-32S1281.8,660.06,1265.4,645.16,1186,611.07,1162.26,687.06Z"/></g><g><path fill="#7dbeea" d="M1493.49,609.66s24.17,27.71,30,46.35c14.23,45.37-35.69,64.1-42.73,66.64s-223.65,2.59-242.26-2.3-32.57-58.56-32.92-70.54,15.59-29.61,22.05-30.31,147-31.59,156.32-32S1493,606.79,1493.49,609.66Z"/><path fill="none" stroke="#fff" stroke-miterlimit="10" d="M1489.09,648.18c-7.5,5.59-12.87,20.52-22,22.7-69.65,16.65-124.24,15.68-195.53,22.39"/></g><g><polygon fill="#ffb584" points="1127.68 876.5 1112.62 933.18 1148.43 948.97 1178.21 897.98 1127.68 876.5"/><path fill="#7dbeea" d="M1212.69,632.1s-2.58-4.22-17.71,35.38c-31.15,81.55-88,231-86.78,234.71,1.85,5.46,50.19,32.11,61.1,30.1,2-.36,124.69-194.44,129-219.8S1276.18,627.8,1212.69,632.1Z"/><path fill="none" stroke="#fff" stroke-miterlimit="10" d="M1273.31,706.19c-18.69,34.11-101.5,175-129.62,201.9"/><path fill="#34437a" d="M1080.26,948.68c4.19-1.92,24.55-13.36,29.62-20.25,20,5.33,28.53,10.21,48.86,5.06-.14,22.06,1.81,45.86.73,50.21-1.93,7.81-35.45-.54-51,1.57s-27.2,5-39,5-30.4-15-30.74-24S1067.5,954.51,1080.26,948.68Z"/></g><g><path fill="#4a90ff" d="M1370.68,405.77s-5.89-16.33-22.93-4.73c-32,21.79-63.47,104.88-65.23,114.41-.9,4.9,21.08,10.24,31.38,14.24,9.74,3.78,28.7-1.29,37.36-6.73,9-5.66,26.18-85.36,26.28-91.22S1378.44,409.07,1370.68,405.77Z"/><path fill="none" stroke="#662c20" stroke-miterlimit="10" d="M1383,446.48c-5.55,18.68-11.14,37.6-16.69,56.27"/></g><g><path fill="#ffb584" d="M1277.8,524s17,10.21,6.8,27.23-37.44,3.4-37.44,3.4H1237s-34,20.43-34,6.81c0,0-17,3.4-3.41-6.81,0,0-17,10.21-10.21,0l17-13.61,6.81-6.81-20.42,3.41s-20.42,6.8-13.62-3.41L1209.73,524h68.07Z"/><path fill="#bf5e29" d="M1198.37,556.15c4-2.54,8-5.19,11.73-8.1,2.52-2,4.93-4,7.41-6q2.43-1.95,5-3.77c.52-.37,0-1.24-.5-.86-5.66,4.06-10.78,8.8-16.46,12.83-2.5,1.76-5.06,3.44-7.64,5.08-.54.34,0,1.21.5.86Z"/><path fill="#bf5e29" d="M1204.13,560.8c7.83-4.63,16.14-8.69,22.93-14.84.48-.44-.23-1.14-.71-.71-6.72,6.09-15,10.11-22.72,14.69a.5.5,0,0,0,.5.86Z"/><path fill="#4a90ff" d="M1257.24,521.16c11.26-6.54,25.73-8.72,37.3-12.68,2.35-.8,4.75-1.56,7-1.25,4.46.59,47.05,13.19,39.59,39.07-4.84,16.82-23.7,25.35-50.4,21.11-5.46-.87-31.89-6.28-34.77-8.5-2.3-1.78,1.52-6,3.36-13C1261.25,538.79,1258.66,527.89,1257.24,521.16Z"/><path fill="#bbd8f9" d="M1268,553.49a3.27,3.27,0,1,1-4.59.58A3.26,3.26,0,0,1,1268,553.49Z"/><path fill="none" stroke="#2a5f93" stroke-miterlimit="10" d="M1256.86,521.24a165.06,165.06,0,0,1,35.61-11.89"/><path fill="none" stroke="#2a5f93" stroke-miterlimit="10" d="M1254.69,558.64a166.83,166.83,0,0,0,29.19,7.58c9,1.43,26.69,3.94,34.79.46"/><path fill="none" stroke="#2a5f93" stroke-miterlimit="10" d="M1254.57,558.56c6.93-13.31,6-24.26,2.83-36.17"/></g><g><path fill="#ffb584" d="M1440.62,328.57l8.46,77.19L1399.73,408l3.38-56.36S1403,338.35,1408,332C1414.83,323.2,1438.12,314.41,1440.62,328.57Z"/><path fill="#c16536" d="M1401.05,388s19.79-9.05,28.56-27.71a63.92,63.92,0,0,0,5.3-19.26l-32,15.91Z"/></g><g><path fill="#fffcee" d="M1398.76,382.18s6.71,16.83,23.61,14.82c23.19-2.76,26.47-17.43,26.47-17.43S1487,385,1486.61,390.5s35.81,202.31,35.81,202.31-26.93,21.63-56.84,16.17c-13.83-2.53-44.17-9.17-51.7-9.54-17.69-.88-64.68,0-64.68,0l13.09-195.67Z"/><path fill="#4a90ff" d="M1384.69,389.2s-25.54,1.06-33.09,11.62c-6.22,8.7-11.69,108.07-14.28,131.14s-62.51,64.86-54,71.88,88.55,1.71,88.55,1.71,29.47-103.31,26.4-133.82S1384.69,389.2,1384.69,389.2Z"/><path fill="none" stroke="#2a5f93" stroke-miterlimit="10" d="M1343.29,456a513.83,513.83,0,0,1-27,157.61"/><path fill="#6097e8" stroke="#2f5d93" stroke-miterlimit="10" d="M1388.47,384.6s9.57,39.24,11.09,59.43-17.19,115.9-17.19,115.9-2.6-107.46-6-115.37,15.32-9.58,13-9.95-18.32-.08-17.84-6.33-6.08-29.53-3.87-34.35S1388.47,384.6,1388.47,384.6Z"/><path fill="#4a90ff" d="M1477.06,384.84s32.06,3,41.53,14.5c5.82,7.09-6.23,91.44-5.92,99.49s53.38,151.32,38,161.24-101.82,30.8-103.93,10.11c-.73-7.11-4.45-151.24-3.84-159.61C1449.49,420.66,1474.76,386.58,1477.06,384.84Z"/><path fill="#5b92d3" d="M1503.36,476.36c-7.14,14.07-17.15,27.06-30.56,35.37l77.62,111.69q-17.24-58.78-34.45-117.59a49.12,49.12,0,0,1-2.15-9.69c-.45-5.19.75-10.36,1.76-15.46a232.19,232.19,0,0,0,3.39-23.17c.49-5.17,3.4-18.54-.19-22.3C1512.16,447.93,1510,463.29,1503.36,476.36Z"/><path fill="#6097e8" stroke="#2f5d93" stroke-miterlimit="10" d="M1469,379.71s-20.6,36.58-25.13,59.12-.14,134.45-.14,134.45,23-120.68,27.68-129.18-14.51-12.53-12-12.68,19,2,19.46-5.09,6.92-34.49,5.33-40.17S1469,379.71,1469,379.71Z"/></g><g><path fill="#4a90ff" d="M1489.5,402.4s14.11-16.39,29.13-2.79c28.22,25.55,47,106.89,47.85,117.41.45,5.4-9.15,32.15-33.84,33.75-10.17.66-29.2-16.74-36.87-23.15-8-6.68-16.41-87.32-16-93.73S1482,405.58,1489.5,402.4Z"/><path fill="none" stroke="#2a5f93" stroke-miterlimit="10" d="M1479.24,441.72c3.22,19.59,6.45,39.42,9.67,59"/></g><g><path fill="#ffb584" d="M1427.11,511.61l-30.53-.26s-7.94,10-7.26,16.27,1.39,11.81,1.39,11.81l41.1,9.2Z"/><path fill="#4a90ff" d="M1517.52,498.16S1416.2,505.09,1413,510.35c-5.15,8.47.24,46.17,1.86,47.34s130.21,11.08,138.12,6.84c17.77-9.52,13.34-34.47,9.72-48.67C1558,497.36,1542.86,498.92,1517.52,498.16Z"/><path fill="#bbd8f9" d="M1419.4,545.82a4,4,0,1,0,2.93-4.83A4,4,0,0,0,1419.4,545.82Z"/><path fill="none" stroke="#2a5f93" stroke-miterlimit="10" d="M1520.49,498c-34.73,2.51-76.87,4.5-103.85,11.18"/><path fill="none" stroke="#2a5f93" stroke-miterlimit="10" d="M1544.25,565.51c-39,1.26-94.45-3.91-129.15-8.17"/></g><g><path fill="#ffb584" d="M1403.8,511s17,10.21,6.8,27.23-37.44,3.4-37.44,3.4H1363s-34,20.43-34,6.81c0,0-17,3.4-3.41-6.81,0,0-17,10.21-10.21,0l17-13.61,6.81-6.81-20.42,3.41s-20.42,6.8-13.62-3.41L1335.73,511h68.07Z"/><path fill="#bf5e29" d="M1324.37,543.15c4-2.54,8-5.19,11.73-8.1,2.52-2,4.93-4,7.41-6q2.43-1.95,5-3.77c.52-.37,0-1.24-.5-.86-5.66,4.06-10.78,8.8-16.46,12.83-2.5,1.76-5.06,3.44-7.64,5.08-.54.34,0,1.21.5.86Z"/><path fill="#bf5e29" d="M1330.13,547.8c7.83-4.63,16.14-8.69,22.93-14.84.48-.44-.23-1.14-.71-.71-6.72,6.09-15,10.11-22.72,14.69a.5.5,0,0,0,.5.86Z"/></g><g><path fill="#db7519" d="M1364.38,278a16.83,16.83,0,0,0-2.78,9.68c-.1,6.28,2,12.78,6.48,17.15s11.66,6.19,17.4,3.62a9,9,0,0,0,3.17-2.25,9.83,9.83,0,0,0,2-5.91c.31-5.41-1.64-10.66-3.57-15.73C1383.68,275.54,1372,267.52,1364.38,278Z"/><path fill="none" stroke="#a55813" stroke-miterlimit="10" d="M1370.21,279.28a9.69,9.69,0,0,0-4.61,5.77,16.15,16.15,0,0,0-.34,7.51,24.81,24.81,0,0,0,4.63,10.8"/><path fill="#ffb584" d="M1373.58,333.27c-2.38,35.84,12.28,33.67,35.88,30.82,17.12-2.06,31.91-15.34,32.58-40,.29-10.46,3.34-31.89-.73-39.13-5.71-10.17-32.16-8.43-42.24-8.5C1371.14,276.26,1376.62,287.33,1373.58,333.27Z"/><path fill="#db7519" d="M1436.68,300.29c.61,4.14-.6,8.31-1,12.47-.57,6.05,1.3,13.14,6.84,15.63a4.25,4.25,0,0,0,3.66.2,5.36,5.36,0,0,0,2-2.46,160,160,0,0,0,12.47-31.73,20.69,20.69,0,0,0,1-7.82c-.3-2.64-1.74-5.29-4.17-6.34a9.33,9.33,0,0,1-2-.9c-2.27-1.69-.53-5.24-.6-8.07-.11-4.16-4.83-6.95-9-6.59s-7.72,2.9-11.08,5.35c-3,2.21-18.57,13.21-14.68,17.78,1.11,1.3,8.15,1.54,10.35,3.08A14.2,14.2,0,0,1,1436.68,300.29Z"/><path fill="none" stroke="#a55813" stroke-miterlimit="10" d="M1447.17,269.83a3.68,3.68,0,0,1,2.68,2.68,10.79,10.79,0,0,1,.19,4"/><path fill="#db7519" d="M1436.1,308.27s-3.82,39.27-14,39.8c0,0-4.82-.53-6.69-4.55s-4-6.69-7-6.69S1386,339,1386,339a5,5,0,0,0-2.15,6.42s-1.73,3.18-7.69,0l-3.31-9.06s.84,43.06,25.45,39.05c20.35-3.32,33.61-16.22,37.81-27.38s4.21-35.08,4.21-35.08a30.72,30.72,0,0,0-2.63-23.8,4.47,4.47,0,0,0-1.37-1.64,1.66,1.66,0,0,0-2,.09"/><path fill="none" stroke="#a55813" stroke-miterlimit="10" d="M1451.57,286c0-.46.58-.75,1-.65a2,2,0,0,1,1.06.86c2.14,3,1.81,7.08.83,10.63s-2.5,7-2.47,10.71"/><path fill="#db7519" d="M1389.64,262.36c-3.37,2.68-6,6.14-8.93,9.32a32.74,32.74,0,0,0-4.73,5.86,8.4,8.4,0,0,0-.74,7.25c1.73,3.9,6.78,4.81,11,5,5,.27,10,.35,15.06.23,11.41-.27,31.06-2.19,34.37-16,3.27-13.64-14.88-17.81-24.75-18.11C1403.42,255.72,1395.62,257.6,1389.64,262.36Z"/><path fill="#db7519" d="M1369,261.9a46.86,46.86,0,0,0,11.83,26.76c3.81,4.21,8.57,7.8,14.1,9.11,6.67,1.58,13.67-.29,20.1-2.67,7.85-2.91,15.53-6.67,21.71-12.32,3.88-3.55,7.18-7.95,8.44-13s.2-11-3.56-14.65a17.72,17.72,0,0,0-8.18-4.18,29.91,29.91,0,0,0-15.29.26c-2.85.81-5.66,2.06-8.61,1.94-3.79-.16-7.1-2.52-10-5-5.14-4.48-12.42-10.3-19.8-7.57C1371.06,243.72,1368.16,253.58,1369,261.9Z"/><path fill="none" stroke="#a55813" stroke-miterlimit="10" d="M1372.44,254.72l-.37,0c.33,7.27,2,15.21,5.31,21.67,4.19,8.14,11,15.31,19.63,18.22s19.3.81,25-6.37"/><path fill="none" stroke="#a55813" stroke-miterlimit="10" d="M1383.72,270a17.43,17.43,0,0,0,22.44,15.22"/><path fill="none" stroke="#a55813" stroke-miterlimit="10" d="M1415.36,260c6.6-3.44,14.68-4.75,21.52-1.81a11.73,11.73,0,0,1,4.84,3.57,6.59,6.59,0,0,1,1.19,5.74"/><path fill="#754925" d="M1382.36,310c.53,1,1.86,1.22,3,1.14a10.4,10.4,0,0,0,5.47-2,2.63,2.63,0,0,0,1.17-1.5,2,2,0,0,0-1.67-2.17,4.5,4.5,0,0,0-2.93.62C1385.91,306.85,1381.83,309,1382.36,310Z"/><path fill="#754925" d="M1416.17,308.83c.87.57,1.84,1.5,1.46,2.47-.32.8-1.37,1-2.24,1a14.46,14.46,0,0,1-6.71-1.79c-.32-.17-4.67-2.7-3.65-4.15S1414.26,307.57,1416.17,308.83Z"/><path fill="none" stroke="#914027" stroke-miterlimit="10" d="M1396.25,317a7.07,7.07,0,0,1-2.36,6.43,17.31,17.31,0,0,1-6.26,3.39,7.53,7.53,0,0,0,9.47,7.79"/><path fill="#ffb584" d="M1436.24,322.06a13.44,13.44,0,0,1,9.5-9.11c3.79-.94,8.18,0,10.72,3s2.85,7.15,2.31,11a15.75,15.75,0,0,1-3.29,8.15,13,13,0,0,1-7.59,4.12,16.45,16.45,0,0,1-14.86-5"/><path fill="none" stroke="#aa5233" stroke-miterlimit="10" d="M1449.89,319.81a10.56,10.56,0,0,0-9.88,8.3l1.62-1.26a8.67,8.67,0,0,1,4.38-2.23c1.65-.13,3.53,1.13,3.38,2.78"/><path fill="none" stroke="#a55813" stroke-miterlimit="10" d="M1401,352.89s-4.82-1.88-8.56,0"/></g><g><path fill="#fffaf3" d="M1405,342.45l-16.59,1.61s1.88,8.56,10.44,6.15S1405,342.45,1405,342.45Z"/></g><g><path fill="#3d2e2c" d="M1405.11,317.73a3.13,3.13,0,1,0,2.54-3.61A3.14,3.14,0,0,0,1405.11,317.73Z"/></g><g><path fill="#3d2e2c" d="M1385.9,316.64a2.5,2.5,0,1,0,2-2.89A2.5,2.5,0,0,0,1385.9,316.64Z"/></g><g><rect width="277.58" height="12.59" x="1173.32" y="602.63" fill="#38387a" transform="rotate(-180 1312.11 608.925)"/><polygon fill="#5250aa" fill-rule="evenodd" points="1172.31 605.78 1371.59 605.78 1313.47 466.51 1114.18 466.51 1172.31 605.78"/><ellipse cx="1240.69" cy="540.71" fill="#7f7fc6" rx="13.25" ry="18.16" transform="rotate(-58.97 1240.636 540.712)"/></g><g><path fill="#fff" d="M918.4,845.47H554.64c-12.18,0-22-8.06-22-18v-158c0-9.95,9.87-18,22-18H918.4c12.18,0,22.05,8.06,22.05,18v158C940.45,837.41,930.58,845.47,918.4,845.47Z"/><path fill="#628ad3" d="M918.4,845.47c0-.06,1.1,0,3.21-.27a25.39,25.39,0,0,0,8.74-2.75,18.91,18.91,0,0,0,9-9.84c.93-2.37,1-5,.9-7.92s0-5.92,0-9.16c0-25.92-.13-63.38-.22-109.67q0-17.36-.05-36.33c.07-6.18-4.19-12.42-11.15-15.48a26.42,26.42,0,0,0-11.44-2.17H904.93l-106.42.05-243.84,0a24.42,24.42,0,0,0-14.28,4.49,16.61,16.61,0,0,0-7,11c-.27,8.59-.08,17.36-.14,25.93q0,25.8,0,50.81t0,49q0,12,0,23.78c0,3.9-.08,7.85.08,11.65a15.83,15.83,0,0,0,5.15,10.17,22.71,22.71,0,0,0,11.43,5.6,34.78,34.78,0,0,0,6.73.45h33.89l51.66,0,92.72.07,134.26.19,36.5.1,9.5.06c2.13,0,3.23.06,3.23.06s-1.1,0-3.23.06l-9.5.06-36.5.1-134.26.19-92.72.07-51.66,0H556.64a36.33,36.33,0,0,1-7-.46,24.07,24.07,0,0,1-12.12-5.94A16.79,16.79,0,0,1,532,828.8c-.17-3.94,0-7.79-.09-11.72q0-11.76,0-23.78,0-24,0-49t0-50.81c.06-8.63-.15-17.21.14-26.05a17.68,17.68,0,0,1,7.42-11.78,26,26,0,0,1,15.22-4.78l243.84,0,106.42,0h12.39a27.78,27.78,0,0,1,12,2.3c7.31,3.23,11.78,9.81,11.69,16.29q0,18.94,0,36.33c-.09,46.29-.17,83.75-.22,109.67q0,4.86,0,9.16a20.76,20.76,0,0,1-1,8,19.23,19.23,0,0,1-9.2,9.93,25,25,0,0,1-8.88,2.67,19.88,19.88,0,0,1-2.41.16Z"/><rect width="27.49" height="3.95" x="585.12" y="819.15" fill="#e6ddfe" rx=".43"/><rect width="27.49" height="3.95" x="664.77" y="819.15" fill="#e6ddfe" rx=".43"/><rect width="27.49" height="3.95" x="735.08" y="819.15" fill="#e6ddfe" rx=".43"/><rect width="27.49" height="3.95" x="807.5" y="819.15" fill="#e6ddfe" rx=".43"/><rect width="27.49" height="3.95" x="868.87" y="819.15" fill="#e6ddfe" rx=".43"/><path fill="#1a2e35" d="M903.21,808.86c0,.32-75.28.58-168.12.58S567,809.18,567,808.86s75.26-.58,168.13-.58S903.21,808.54,903.21,808.86Z"/><ellipse cx="571.53" cy="678.85" fill="#e6ddfe" rx="6.42" ry="5.25"/><path fill="#e6ddfe" d="M595.41,678.85c0,2.9-2.87,5.24-6.42,5.24s-6.42-2.34-6.42-5.24,2.87-5.25,6.42-5.25S595.41,676,595.41,678.85Z"/><ellipse cx="606.27" cy="678.85" fill="#e6ddfe" rx="6.42" ry="5.25"/></g><g><rect width="11.7" height="34.69" x="584.81" y="774.17" fill="#628ad3"/><rect width="11.7" height="62.75" x="626.48" y="746.11" fill="#628ad3"/><rect width="14.45" height="103.9" x="604.27" y="704.96" fill="#a7db56"/><rect width="11.7" height="23.74" x="668.16" y="785.12" fill="#628ad3"/><rect width="11.7" height="23.74" x="647.32" y="785.12" fill="#a7db56"/><rect width="11.7" height="38.88" x="709.84" y="769.98" fill="#628ad3"/><rect width="11.7" height="72.63" x="689" y="736.23" fill="#a7db56"/><rect width="11.7" height="72.63" x="772.35" y="736.23" fill="#a7db56"/><rect width="11.7" height="109.4" x="730.67" y="699.46" fill="#a7db56"/><rect width="11.7" height="27.09" x="751.51" y="781.77" fill="#628ad3"/><rect width="11.7" height="19.89" x="855.7" y="788.97" fill="#a7db56"/><rect width="11.7" height="107.33" x="814.03" y="701.53" fill="#a7db56"/><rect width="11.7" height="85.38" x="834.86" y="723.48" fill="#628ad3"/><rect width="11.7" height="88.48" x="793.19" y="720.38" fill="#628ad3"/><rect width="11.7" height="72.63" x="876.54" y="736.23" fill="#628ad3"/></g><g><path fill="#c7d166" d="M389.63,730.53c13.27-30.22,33.34-41.38,49-34.5s21,29.21,7.77,59.44-40.14,56.9-55.82,50S376.36,760.76,389.63,730.53Z"/><path fill="none" stroke="#365650" stroke-miterlimit="10" stroke-width=".75" d="M426.68,725c-10.59,21.76-21.2,43.58-29,66.48s-12.82,47-11.82,71.2"/><path fill="#a3c658" d="M455.33,763.73c23.3-16.13,41.86-16.89,48.84-6.82s-.29,27.18-23.59,43.3-53.82,25.17-60.79,15.09S432,779.85,455.33,763.73Z"/><path fill="none" stroke="#365650" stroke-miterlimit="10" stroke-width=".75" d="M487.66,766.26c-40,22.61-65.05,43.32-92.82,82.15"/><path fill="#a3c658" d="M326.11,733.06c-13.11-35.49-9-59.34,5-64.52s32.64,10.28,45.75,45.76,15.74,77.56,1.72,82.74S339.22,768.54,326.11,733.06Z"/><path fill="none" stroke="#365650" stroke-miterlimit="10" stroke-width=".75" d="M346.16,703.58c15.58,45.29,37.28,86.12,46.69,164"/><path fill="#c7d166" d="M286.93,793.68c-24.74-18.75-31.13-38.79-22.11-50.7s30.05-11.18,54.79,7.56,43.84,48.41,34.82,60.33S311.68,812.42,286.93,793.68Z"/><path fill="none" stroke="#365650" stroke-miterlimit="10" stroke-width=".75" d="M383.73,852.47c-9.52-23.2-41.21-56.46-90.82-90.58"/><path fill="#c7d166" d="M341.49,886.76c-10,21.82-25.14,29.5-37,24.07s-15.93-21.91-5.94-43.73,30.26-40.71,42.12-35.28S351.48,864.94,341.49,886.76Z"/><path fill="none" stroke="#365650" stroke-miterlimit="10" stroke-width=".75" d="M318.16,879.2c6.86-21.31,24.1-76.57,44.24-49.93"/><path fill="#b8bc58" d="M476.21,867.65c6.39,17,2.43,29.26-6.81,32.73s-20.28-3.14-26.67-20.16-5.71-38,3.53-41.45S469.82,850.64,476.21,867.65Z"/><path fill="none" stroke="#365650" stroke-miterlimit="10" stroke-width=".75" d="M418.77,829.27c7.35-19.78,22.31-7.79,42.71,45.12"/><polygon fill="#fc9b88" points="444.59 946.73 333.37 946.73 347.16 829.27 431.67 829.27 444.59 946.73"/><line x1="346.16" x2="431.67" y1="843.7" y2="843.7" fill="none" stroke="#fff" stroke-miterlimit="10" stroke-width="3"/><line x1="346.16" x2="430.4" y1="837.15" y2="837.15" fill="none" stroke="#fff" stroke-miterlimit="10" stroke-width="3"/></g><g><rect width="307" height="219" x="1008.31" y="199.76" fill="#48a4f7"/><path fill="#fff" d="M1241.31,226.76c-.13.3-.26.6-.4.9l-.56.34Z"/></g><g><rect width="21.63" height="107.39" x="1232.98" y="294" fill="#fff"/><rect width="21.63" height="65.32" x="1184.7" y="336.07" fill="#fff"/><rect width="21.63" height="44.14" x="1135.26" y="357.25" fill="#fff"/><rect width="21.63" height="20.49" x="1083.5" y="380.9" fill="#fff"/></g><g><path fill="#fff" d="M1242.57,226.66,1234.49,269l-13.82-8a178.73,178.73,0,0,1-12.89,14.22,221.23,221.23,0,0,1-22.72,19.19c-4.06,2.85-8.11,5.72-12.3,8.34s-8.46,5.14-12.74,7.63a300.26,300.26,0,0,1-54.24,23.36c-9.36,3-18.85,5.55-28.43,7.62-4.8,1-9.61,2-14.45,2.7s-9.7,1.42-14.59,1.74q27.86-9.15,54.51-20.16a500.65,500.65,0,0,0,51.84-24.86c4.14-2.37,8.32-4.69,12.34-7.24s8-5.1,12.07-7.68q11.85-8,22.91-17.06,6.49-5.42,12.62-11.31l-11.73-6.78L1240.35,228l.56-.34Z"/></g></svg>