<svg xmlns="http://www.w3.org/2000/svg" enable-background="new 0 0 100 100" viewBox="0 0 100 100"><path fill="#fac855" d="M15.178,50.087c0-19.232,15.591-34.822,34.823-34.822c19.232,0,34.822,15.59,34.822,34.822
				c0,19.232-15.59,34.823-34.822,34.823C30.768,84.91,15.178,69.319,15.178,50.087z"/><path fill="#fded9f" d="M15.178,54.581l6.566-0.848L15.178,54.581z"/><rect width="8.867" height="2.246" x="14.027" y="53.034" transform="rotate(-7.342 18.47 54.163)"/><path fill="#fded9f" d="M53.338,21.975l1.155-6.71L53.338,21.975z"/><rect width="9.056" height="2.247" x="49.388" y="17.496" transform="rotate(-80.23 53.917 18.619)"/><path fill="#fded9f" d="M15.178,35.484l8.175,3.429L15.178,35.484z"/><rect width="2.247" height="11.112" x="18.142" y="31.643" transform="rotate(-67.245 19.266 37.198)"/><path fill="#fded9f" d="M76.881,43.15l7.941-2.049L76.881,43.15z"/><rect width="10.448" height="2.247" x="75.628" y="41.002" transform="rotate(-14.478 80.846 42.124)"/><polygon fill="#f55555" points="69.658 17.511 71.048 20.053 73.589 21.443 71.048 22.833 69.658 25.375 68.268 22.833 65.726 21.443 68.268 20.053"/><path d="M69.658,27.716l-2.218-4.055l-4.055-2.218l4.055-2.218l2.218-4.056l2.218,4.056l4.056,2.218l-4.056,2.218L69.658,27.716
					z M68.068,21.443l1.028,0.562l0.562,1.028l0.562-1.028l1.028-0.562l-1.028-0.562l-0.562-1.028l-0.562,1.028L68.068,21.443z"/><polygon fill="#96f0fa" points="24.164 18.635 26.15 22.265 29.781 24.251 26.15 26.237 24.164 29.868 22.178 26.237 18.547 24.251 22.178 22.265"/><path d="M24.164,32.209l-2.813-5.145l-5.145-2.813l5.145-2.813l2.813-5.145l2.813,5.145l5.145,2.813l-5.145,2.813L24.164,32.209
					z M20.889,24.251l2.117,1.158l1.158,2.117l1.158-2.117l2.118-1.158l-2.118-1.158l-1.158-2.118l-1.158,2.118L20.889,24.251z"/><polygon fill="#8cf046" points="79.206 60.197 81.192 63.828 84.822 65.813 81.192 67.799 79.206 71.43 77.22 67.799 73.589 65.813 77.22 63.828"/><path d="M79.206,73.771l-2.813-5.145l-5.145-2.813L76.393,63l2.813-5.145L82.019,63l5.145,2.813l-5.145,2.813L79.206,73.771z
					 M75.931,65.813l2.117,1.158l1.158,2.117l1.158-2.117l2.118-1.158l-2.118-1.158l-1.158-2.117l-1.158,2.117L75.931,65.813z"/><polygon fill="#fff" points="20.794 70.307 22.78 73.937 26.411 75.923 22.78 77.909 20.794 81.539 18.809 77.909 15.178 75.923 18.809 73.937"/><path d="M20.794,83.881l-2.813-5.145l-5.145-2.813l5.145-2.813l2.813-5.145l2.813,5.145l5.145,2.813l-5.145,2.813L20.794,83.881
					z M17.519,75.923l2.117,1.158l1.158,2.117l1.158-2.117l2.118-1.158l-2.118-1.158l-1.158-2.117l-1.158,2.117L17.519,75.923z"/><polygon fill="#fff" points="80.891 28.744 82.281 31.286 84.822 32.676 82.281 34.066 80.891 36.608 79.501 34.066 76.959 32.676 79.501 31.286"/><path d="M80.891 38.949l-2.218-4.056-4.056-2.218 4.056-2.217 2.218-4.056 2.218 4.056 4.055 2.217-4.055 2.218L80.891 38.949zM79.301 32.676l1.028.563.562 1.027.562-1.027 1.028-.563-1.028-.562-.562-1.028-.562 1.028L79.301 32.676zM41.676 22.005l1.584-1.584 1.595 1.584-1.595 1.583C41.676 22.005 43.26 23.588 41.676 22.005zM45.046 17.511l1.585-1.584 1.583 1.584-1.583 1.595C45.046 17.511 46.63 19.106 45.046 17.511zM74.252 37.731l1.584-1.596 1.583 1.596-1.583 1.583C74.252 37.731 75.836 39.314 74.252 37.731zM18.087 48.964l1.584-1.584 1.583 1.584-1.583 1.595C18.087 48.964 19.671 50.559 18.087 48.964z"/><g><path d="M25.938,65.813l1.596-1.596l1.583,1.596l-1.583,1.583C25.938,65.813,27.534,67.397,25.938,65.813z"/></g><g><path d="M15.829,63.567l1.595-1.596l1.595,1.596l-1.595,1.595C15.829,63.567,17.424,65.162,15.829,63.567z"/></g><g><path d="M61.884,80.416l1.596-1.584l1.583,1.584L63.48,82C61.884,80.416,63.48,82,61.884,80.416z"/></g><g><path d="M54.021,75.923l1.595-1.595l1.595,1.595l-1.595,1.595C54.021,75.923,55.616,77.518,54.021,75.923z"/></g><g><path d="M79.869,50.087l1.584-1.596l1.583,1.596l-1.583,1.595C79.869,50.087,81.453,51.682,79.869,50.087z"/></g><g><path d="M24.827,34.361l1.584-1.584l1.595,1.584l-1.595,1.583C24.827,34.361,26.411,35.944,24.827,34.361z"/></g><g><path fill="#fded9f" d="M50,77.047v7.863V77.047z"/><rect width="2.247" height="10.11" x="48.877" y="75.923"/></g><g><polygon fill="#96f0fa" points="37.082 74.8 38.472 77.341 41.014 78.732 38.472 80.122 37.082 82.663 35.692 80.122 33.151 78.732 35.692 77.341"/><path d="M37.082,85.005l-2.217-4.056l-4.056-2.217l4.056-2.218l2.217-4.056l2.218,4.056l4.056,2.218l-4.056,2.217L37.082,85.005
					z M35.492,78.732l1.028,0.562l0.562,1.028l0.563-1.028l1.027-0.562l-1.027-0.563l-0.563-1.027l-0.562,1.027L35.492,78.732z"/></g><g><path d="M58.526,22.005l1.584-1.584l1.583,1.584l-1.583,1.583C58.526,22.005,60.11,23.588,58.526,22.005z"/></g><g><path fill="#d2d2d2" d="M65.2,66.937H34.8c-0.911,0-1.65-0.739-1.65-1.65V34.888c0-0.911,0.739-1.65,1.65-1.65h2.281
						H65.2c0.911,0,1.65,0.739,1.65,1.65v30.399C66.85,66.198,66.111,66.937,65.2,66.937z"/><path d="M63.48,68.06H36.52c-2.477,0-4.493-2.016-4.493-4.493V36.608c0-2.478,2.016-4.493,4.493-4.493H63.48
						c2.478,0,4.493,2.016,4.493,4.493v26.959C67.973,66.044,65.957,68.06,63.48,68.06z M36.52,34.361
						c-1.239,0-2.247,1.008-2.247,2.247v26.959c0,1.239,1.008,2.246,2.247,2.246H63.48c1.239,0,2.247-1.008,2.247-2.246V36.608
						c0-1.239-1.008-2.247-2.247-2.247H36.52z"/><path fill="#828282" d="M62.357,39.931v20.313c0,1.215-0.985,2.2-2.2,2.2H39.844c-1.215,0-2.2-0.985-2.2-2.2V39.931
						c0-1.215,0.985-2.2,2.2-2.2h6.786h13.527C61.371,37.731,62.357,38.716,62.357,39.931z"/><path d="M57.863,63.567H42.137c-3.097,0-5.617-2.52-5.617-5.617V42.224c0-3.097,2.52-5.617,5.617-5.617h15.726
						c3.097,0,5.617,2.52,5.617,5.617v15.726C63.48,61.047,60.96,63.567,57.863,63.567z M42.137,38.854
						c-1.858,0-3.37,1.511-3.37,3.37v15.726c0,1.858,1.511,3.37,3.37,3.37h15.726c1.858,0,3.37-1.512,3.37-3.37V42.224
						c0-1.859-1.511-3.37-3.37-3.37H42.137z"/><rect width="6.74" height="2.247" x="27.534" y="37.731"/><rect width="6.74" height="2.246" x="27.534" y="42.224"/><rect width="6.74" height="2.247" x="27.534" y="46.717"/><rect width="6.74" height="2.246" x="27.534" y="51.211"/><rect width="6.74" height="2.247" x="27.534" y="55.704"/><rect width="6.74" height="2.247" x="27.534" y="60.197"/><g><rect width="6.74" height="2.247" x="65.726" y="37.731"/><rect width="6.74" height="2.246" x="65.726" y="42.224"/><rect width="6.74" height="2.247" x="65.726" y="46.717"/><rect width="6.74" height="2.246" x="65.726" y="51.211"/><rect width="6.74" height="2.247" x="65.726" y="55.704"/><rect width="6.74" height="2.247" x="65.726" y="60.197"/></g><g><rect width="2.246" height="6.74" x="37.644" y="65.813"/><rect width="2.247" height="6.74" x="42.137" y="65.813"/><rect width="2.246" height="6.74" x="46.63" y="65.813"/><rect width="2.247" height="6.74" x="51.123" y="65.813"/><rect width="2.247" height="6.74" x="55.616" y="65.813"/><rect width="2.247" height="6.74" x="60.11" y="65.813"/></g><g><rect width="2.246" height="6.74" x="37.644" y="27.621"/><rect width="2.247" height="6.74" x="42.137" y="27.621"/><rect width="2.246" height="6.74" x="46.63" y="27.621"/><rect width="2.247" height="6.74" x="51.123" y="27.621"/><rect width="2.247" height="6.74" x="55.616" y="27.621"/><rect width="2.247" height="6.74" x="60.11" y="27.621"/></g><g><path fill="#8cf046" d="M56.763,50.087H43.237c-0.608,0-1.1-0.492-1.1-1.1v-2.293c0-0.608,0.492-1.1,1.1-1.1h7.887h5.64
					c0.608,0,1.1,0.492,1.1,1.1v2.293C57.863,49.595,57.371,50.087,56.763,50.087z"/><path d="M55.616,51.211H44.384c-1.859,0-3.37-1.512-3.37-3.37c0-1.858,1.511-3.37,3.37-3.37h11.233
					c1.859,0,3.37,1.512,3.37,3.37C58.987,49.699,57.475,51.211,55.616,51.211z M44.384,46.717c-0.619,0-1.124,0.504-1.124,1.123
					c0,0.619,0.504,1.124,1.124,1.124h11.233c0.619,0,1.124-0.504,1.124-1.124c0-0.619-0.504-1.123-1.124-1.123H44.384z"/></g><g><rect width="11.233" height="2.247" x="44.384" y="53.457"/></g></g><g><rect width="2.247" height="13.654" x="70.479" y="69.752" transform="rotate(-39.518 71.608 76.582)"/></g></svg>