<svg xmlns="http://www.w3.org/2000/svg" data-name="7" viewBox="0 0 4539.44 2938.16"><path fill="#e0effd" d="M2895.16,413.32c25.06,79.77,113.17,77.45,230.46,178.19,56.1,48.18,41.56,51.85,85.18,84.08,65.68,48.53,150.47,60.84,231.45,71.4,57.41,7.49,120.14,13.79,169.23-16.92,65.93-41.26,79.37-137.2,48.42-208.56S3565,399,3500.2,356c-45.36-30.2-93-58.3-145.47-73.08-65.41-18.44-115.88-17.47-180.42-14.87-110.38,4.44-253.68,10.21-281.35,82.77C2883.39,375.86,2891,400.11,2895.16,413.32Z"/><path fill="#e0effd" d="M974.86,2626c12,6.22,22.5,11.61,32,16.44h2999.9c31.63-35.95,58-76.78,84.05-117.2,73.56-114.32,148.09-230.73,185.77-361.35,69.82-242-3.53-519.79-183.74-695.78-99-96.66-223.73-161.59-344.94-228.25-166.55-91.59-330.82-189.62-475.49-312.89C3145.13,818.46,3033,690.44,2890.82,602.2,2587.6,414,2232,475,1904.18,529.33c-384.24,63.69-274.57,135-850.53,277.6-227.65,56.34-437.52,92.89-590,272.33-73.64,86.66-120,190.34-136.15,226.94-27.82,63.15-92.14,213.24-90.77,408.49.45,64.49,9.69,363.92,219.43,589.56C549.87,2405.05,691.53,2478.7,974.86,2626Z"/><path fill="#54a7cb" d="M4092.67,2525.23c29.69-46,59.49-92.44,87-140H543.57c92.24,67.15,222.91,134.94,426.79,240.72,12,6.22,22.54,11.61,32.11,16.44H4006.81c.81-.56,1.63-1.16,2.46-1.83a41.54,41.54,0,0,0,8-8.56C4045.12,2598.7,4069.08,2561.82,4092.67,2525.23Z"/><path fill="#0041bc" d="M4192.88,2385.63l-525.29-.14-35.73-21.22-8.1,11.75,15.93,9.46-841-.22,0-.06-.1.06L555,2384.66c2.82,2.37,5.93,4.81,9.36,7.25,4.33,3.1,8.53,5.76,12.47,8l311.73,0L809,2527.76l13.43,6.31L906,2399.92l319.39,0-94,238.39h21.35l94-238.4,295.11,0-60.17,235.69h15.45l60.17-235.69,855.89-.09,54.14,235.78h15.36l-54.13-235.78,361.89,0L2938.06,2637h17.36l-147.67-237.24,855.8-.08,368,218.56,9.33-11-349.45-207.54,493.54-.05C4187.51,2395.18,4190.28,2390.28,4192.88,2385.63Z"/><path fill="#a6d9f6" d="M254.58,1699.89c83.57-146.36,221.51-330.52,443.87-430C1127,1078.13,1393.53,1414.92,2317.35,1631c818.46,191.47,1276.62,83.44,1676.36,503.1a1280.38,1280.38,0,0,1,186,251.14h0l-3615.3,6.64c-68.33-53.84-239-203.88-295.25-454.21A755.26,755.26,0,0,1,254.58,1699.89Z"/><polygon fill="#202854" points="3538.2 2646.38 2637.51 2384.64 2972.03 2375.36 3850.53 2646.38 3538.2 2646.38"/><rect width="273.36" height="1313.91" x="2637.51" y="1070.72" fill="#10163e"/><rect width="15.16" height="1314.77" x="2739.55" y="1069.87" fill="#2684c6"/><rect width="15.16" height="1314.77" x="2775.58" y="1071.03" fill="#2684c6"/><rect width="15.16" height="1314.77" x="2810.49" y="1070.3" fill="#2684c6"/><rect width="15.16" height="1314.77" x="2840.76" y="1070.3" fill="#2684c6"/><rect width="15.16" height="1314.77" x="2873.35" y="1070.3" fill="#2684c6"/><path fill="#fff" d="M3538.2,1874.25v57.59l-754.71-52.95,6.84-37.9Z"/><polygon fill="#2e69b2" points="2714.39 1392.17 2922.25 1407.87 3538.2 1331.97 3538.2 1277.01 2714.39 1392.17"/><path fill="#2e69b2" d="M2723,1627.56l199.12,45.13a.82.82,0,0,0,.27,0l614.68-10.44a1.15,1.15,0,0,0,1.13-1.15V1598a1.14,1.14,0,0,0-1.19-1.14l-813.8,28.44A1.14,1.14,0,0,0,2723,1627.56Z"/><polygon fill="#80b2df" stroke="#3d469c" stroke-miterlimit="10" stroke-width="6" points="2782.01 1170.18 2782.01 1342.66 3538.2 1222.53 3538.2 1000.06 2782.01 1170.18"/><polygon fill="#80b2df" stroke="#3d469c" stroke-miterlimit="10" stroke-width="6" points="2784.37 1426.09 2784.37 1594.54 3540.55 1546.49 3540.55 1337.1 2784.37 1426.09"/><polygon fill="#80b2df" stroke="#3d469c" stroke-miterlimit="10" stroke-width="6" points="2782.01 1694.81 2782.01 1840.62 3538.2 1874.25 3538.51 1694.81 2782.01 1694.81"/><polygon fill="#fff" points="2715.86 1595.53 3539.66 1543.18 3539.66 1595.53 2715.86 1624.32 2715.86 1595.53"/><polygon fill="#2e69b2" points="2714.39 2002.51 2926.52 1989.42 3538.51 2052.24 3538.51 2096.73 2714.39 2002.51"/><path fill="#202854" d="M2910.86,1070.72l932.49-264.93a1,1,0,0,0-.29-2H3538.2l-899.41,266.59a.19.19,0,0,0,.06.38Z"/><polygon fill="#d9f0fc" stroke="#3d469c" stroke-miterlimit="10" stroke-width="6" points="3149.35 1414.83 3149.35 1547.89 3538.2 1524.25 3537.07 1375.07 3149.35 1414.83"/><path fill="#fff" stroke="#27397c" stroke-miterlimit="10" stroke-width="6" d="M3283.39,1725.06h253.76v39.6H3283.39Z"/><path fill="#fff" stroke="#27397c" stroke-miterlimit="10" stroke-width="6" d="M3283.39,1795.15v32.27l256.15,10.19q-.67-19.58-1.34-39.15Z"/><rect width="17" height="17.01" x="3305.11" y="1737.09" fill="#f7a022"/><rect width="17" height="17.01" x="3350.71" y="1736.36" fill="#f7a022"/><rect width="17" height="17.01" x="3394.46" y="1737.09" fill="#f7a022"/><rect width="17" height="17.01" x="3437.08" y="1736.36" fill="#f7a022"/><rect width="241.64" height="40.76" x="2888.51" y="1753.37" fill="#10163e" transform="rotate(.97 3006.338 1772.07)"/><rect width="17" height="17.01" x="3475.16" y="1736.36" fill="#f7a022"/><rect width="17" height="17.01" x="3513.04" y="1736.36" fill="#f7a022"/><rect width="17" height="17.01" x="3297.83" y="1803.02" fill="#f7a022" transform="rotate(1.66 3308.807 1813.057)"/><rect width="17" height="17.01" x="3343.43" y="1803.62" fill="#f7a022" transform="rotate(1.66 3354.73 1813.773)"/><rect width="17" height="17.01" x="3387.14" y="1805.61" fill="#f7a022" transform="rotate(1.66 3398.251 1815.558)"/><rect width="17" height="17.01" x="3429.77" y="1806.12" fill="#f7a022" transform="rotate(1.66 3441.763 1816.654)"/><rect width="17" height="17.01" x="3467.84" y="1807.22" fill="#f7a022" transform="rotate(1.66 3479.052 1817.15)"/><rect width="17" height="17.01" x="3505.7" y="1808.32" fill="#f7a022" transform="rotate(1.66 3517.736 1818.66)"/><polygon fill="#80b2df" points="2714.39 2002.51 2714.39 2382.9 3538.51 2609.72 3538.51 2096.73 2714.39 2002.51"/><path fill="#d9f0fc" d="M3186.07,2080.21l355.08,41.18-2.64,459.24-355.82-92.56Q3184.39,2284.14,3186.07,2080.21Z"/><polygon fill="#fcd645" stroke="#f16723" stroke-miterlimit="10" stroke-width="6" points="3181.09 1505.35 3207.7 1503.53 3207.7 1473.14 3181.09 1476.04 3181.09 1505.35"/><polygon fill="#27397c" stroke="#247cc0" stroke-miterlimit="10" stroke-width="6" points="2742.88 2183.92 2742.88 2221.16 2862.11 2244.24 2862.11 2207.64 2742.88 2183.92"/><polygon fill="#27397c" stroke="#247cc0" stroke-miterlimit="10" stroke-width="6" points="2918.99 2217.28 2918.99 2257.05 3054.01 2286.09 3054.01 2245.01 2918.99 2217.28"/><ellipse cx="2807.13" cy="2119.38" fill="#fff" stroke="#2968b2" stroke-miterlimit="10" stroke-width="6" rx="48.09" ry="48.08" transform="rotate(-89.85 2806.95 2119.408)"/><ellipse cx="2989.84" cy="2147.13" fill="#fff" stroke="#2968b2" stroke-miterlimit="10" stroke-width="6" rx="48.09" ry="48.08" transform="rotate(-89.85 2989.66 2147.161)"/><path fill="#fff" stroke="#005d97" stroke-miterlimit="10" stroke-width="6" d="M3163.07,1497.57l29.94-6.75s5.19,2.09,2.54,8.79L3164,1511.67Z"/><path fill="#2968b2" d="M3225.26,2128.91l53.08,6v340.18l-52.65-12.89Q3225.48,2295.57,3225.26,2128.91Z"/><path fill="#2968b2" d="M3310.82,2144.07l53.08,6v340.18l-52.65-12.89Q3311,2310.73,3310.82,2144.07Z"/><path fill="#2968b2" d="M3392.11,2156.12l53.08,6.16v348.2l-52.65-13.19Q3392.33,2326.71,3392.11,2156.12Z"/><path fill="#2968b2" d="M3472.68,2167.47l53.08,6.32v356.9l-52.64-13.52Q3472.89,2342.33,3472.68,2167.47Z"/><path fill="none" stroke="#202854" stroke-miterlimit="10" stroke-width="6" d="M3123.55,1511.67a26.41,26.41,0,0,0-9.63,10c-9.87,17.57,6,43.09,11.5,52.69,38.59,67,44,157.15,46.55,198.73a396,396,0,0,1-.07,49.15q-4.62,68.51-7.39,140.61-2.3,60.63-3,118.84s-8.29,143.13,86.17,207.4,204.61,18.51,204.61,18.51,61.15-34.35,77.36-50.73,47.14-43.28,47.14-43.28h0"/><path fill="#f5871f" stroke="#ed3724" stroke-miterlimit="10" stroke-width="6" d="M3115.44,1504.73l53.06-12.56c.61.4,4.77,3.23,5.77,10.14a22.18,22.18,0,0,1-2.89,14.07l-55,20.3Q3115.92,1520.71,3115.44,1504.73Z"/><polygon fill="#fcd645" stroke="#f16723" stroke-miterlimit="10" stroke-width="6" points="3454.09 1490.83 3489.4 1488.15 3489.4 1445.35 3454.09 1449.63 3454.09 1490.83"/><polygon fill="#fcd645" stroke="#f16723" stroke-miterlimit="10" stroke-width="6" points="3353.89 1495.89 3380.5 1494.08 3380.5 1457.14 3353.89 1460.04 3353.89 1495.89"/><polygon fill="#fcd645" stroke="#f16723" stroke-miterlimit="10" stroke-width="6" points="3262.45 1498.3 3289.07 1496.49 3289.07 1463.07 3262.45 1465.97 3262.45 1498.3"/><path fill="none" stroke="#202854" stroke-miterlimit="10" stroke-width="6" d="M3253.18,1490.82a38,38,0,0,0-6.08,5.59,39.51,39.51,0,0,0-4.36,6.08c-4.35,7.26-8.63,15.82-10.18,19a139.18,139.18,0,0,0-7.73,27.28,141.81,141.81,0,0,0-.09,47.79c16.44,104.9-20.71,509,145.14,588.27,37.57,17.95,107.12,29.53,167.06,1.1a170.83,170.83,0,0,0,44.25-30.49"/><path fill="none" stroke="#202854" stroke-miterlimit="10" stroke-width="6" d="M3332.52,1490.82a24,24,0,0,0-10.56,20.77c2.12,129,1.56,222.74.48,289.83-.91,56.2-3,141.84,38.91,227,11.88,24.17,22.47,38.49,31.89,49.13,50.92,57.55,121.54,68.72,157.43,74.4,94.64,15,172.11-14.51,208.2-31.29"/><path fill="none" stroke="#202854" stroke-miterlimit="10" stroke-width="6" d="M3442.16,1478a32.15,32.15,0,0,0-9.52,4.3,34.79,34.79,0,0,0-13.47,18.36c-1.27,38.36-2.06,90.71-.05,152.9,2.74,85.22,9.34,146,12.87,175.34,13.61,113.24,29.08,154.87,37.64,175.48,16.56,39.87,33.86,65.13,47.13,81.82a318.54,318.54,0,0,0,53.52,53"/><path fill="#f5871f" stroke="#ed3724" stroke-miterlimit="10" stroke-width="6" d="M3240.26,1490.44l29.72-12.86c.58.07,4.71.63,6.7,4,2.1,3.58,1,8.87-3.13,12.16l-25.72,15.08c-.37-.09-7-1.89-8.93-8.34A12.75,12.75,0,0,1,3240.26,1490.44Z"/><path fill="#f5871f" stroke="#ed3724" stroke-miterlimit="10" stroke-width="6" d="M3328.88,1485.31l28.24-14.72c4.13-1,8.37,0,10.71,2.81,3.36,4,2.62,11.43-3,15.83l-20.74,15.52a13.11,13.11,0,0,1-15.19-19.44Z"/><path fill="#f5871f" stroke="#ed3724" stroke-miterlimit="10" stroke-width="6" d="M3430,1474.91l29.92-16.6c.51,0,6.74-.18,10,4.39s2.2,11.67-3.09,16.22l-23.22,18.85a16.79,16.79,0,0,1-11.9-6.37A16.52,16.52,0,0,1,3430,1474.91Z"/><polygon fill="#fff" points="2714.39 1353.4 2714.39 1395.28 3538.2 1280.11 3538.2 1222.53 2714.39 1353.4"/><circle cx="2805.05" cy="2119.38" r="8" fill="#f47e20" transform="rotate(-89.05 2804.854 2119.411)"/><circle cx="2989.84" cy="2147.13" r="8" fill="#f47e20" transform="rotate(-89.05 2989.637 2147.164)"/><polygon fill="#fcd645" stroke="#f16723" stroke-miterlimit="10" stroke-width="6" points="2888.51 1178.01 2888.51 1222.53 2920.31 1216.95 2920.31 1171.36 2888.51 1178.01"/><polygon fill="#fcd645" stroke="#f16723" stroke-miterlimit="10" stroke-width="6" points="2888.51 1246.9 2888.51 1291.42 2920.31 1285.84 2920.31 1240.25 2888.51 1246.9"/><polygon fill="#fcd645" stroke="#f16723" stroke-miterlimit="10" stroke-width="6" points="2996.72 1159.35 2996.72 1203.87 3028.52 1198.29 3028.52 1152.7 2996.72 1159.35"/><polygon fill="#fcd645" stroke="#f16723" stroke-miterlimit="10" stroke-width="6" points="2996.72 1228.24 2996.72 1272.76 3028.52 1267.18 3028.52 1221.59 2996.72 1228.24"/><polygon fill="#fcd645" stroke="#f16723" stroke-miterlimit="10" stroke-width="6" points="3110.95 1138.89 3110.95 1183.41 3142.75 1177.82 3142.75 1132.23 3110.95 1138.89"/><polygon fill="#fcd645" stroke="#f16723" stroke-miterlimit="10" stroke-width="6" points="3110.95 1207.78 3110.95 1252.3 3142.75 1246.71 3142.75 1201.12 3110.95 1207.78"/><polygon fill="#fcd645" stroke="#f16723" stroke-miterlimit="10" stroke-width="6" points="3240.34 1108.41 3240.34 1157.67 3277.72 1151.49 3277.72 1101.05 3240.34 1108.41"/><polygon fill="#fcd645" stroke="#f16723" stroke-miterlimit="10" stroke-width="6" points="3240.34 1184.64 3240.34 1233.9 3277.72 1227.72 3277.72 1177.28 3240.34 1184.64"/><polygon fill="#fcd645" stroke="#f16723" stroke-miterlimit="10" stroke-width="6" points="3380.56 1087.57 3380.56 1136.83 3417.93 1130.65 3417.93 1080.2 3380.56 1087.57"/><polygon fill="#fcd645" stroke="#f16723" stroke-miterlimit="10" stroke-width="6" points="3380.56 1163.79 3380.56 1213.05 3417.93 1206.87 3417.93 1156.43 3380.56 1163.79"/><line x1="2807.13" x2="2805.05" y1="2086.82" y2="2116.44" fill="none" stroke="#f47e20" stroke-miterlimit="10" stroke-width="6"/><polyline fill="none" stroke="#f47e20" stroke-miterlimit="10" stroke-width="6" points="2797.05 2093.55 2807.13 2083.24 2815.12 2095.07"/><line x1="3010.6" x2="2991.92" y1="2122.95" y2="2146.02" fill="none" stroke="#f47e20" stroke-miterlimit="10" stroke-width="6"/><polyline fill="none" stroke="#f47e20" stroke-miterlimit="10" stroke-width="6" points="2998.49 2122.68 3012.66 2120.02 3012.42 2134.29"/><path fill="none" stroke="#10163e" stroke-miterlimit="10" stroke-width="6" d="M2857.89,1203.79s-23.67-10-22.46,7.34,0,57.07,0,57.07a104,104,0,0,0,12,2.43,102.94,102.94,0,0,0,10.49.92"/><path fill="none" stroke="#10163e" stroke-miterlimit="10" stroke-width="6" d="M2962.22,1186.91s-23.67-10-22.46,7.34,0,57.07,0,57.07a101.73,101.73,0,0,0,12,2.43,99.76,99.76,0,0,0,10.48.92"/><path fill="none" stroke="#10163e" stroke-miterlimit="10" stroke-width="6" d="M2939.72,1252.92c-7.2,14.29-35.79,73.95-7.85,101.14,8.35,8.12,19,10.59,25,11.88,108.78,23.26,255-5.28,255-5.28,43.7-8.52,76.59-16.2,99.84-21.68,94.58-22.32,175-42.76,237.43-59.14"/><path fill="none" stroke="#10163e" stroke-miterlimit="10" stroke-width="6" d="M3084.62,1165.86s-23.67-10-22.46,7.34,0,57.07,0,57.07a103.42,103.42,0,0,0,22.51,3.35"/><path fill="none" stroke="#10163e" stroke-miterlimit="10" stroke-width="6" d="M3062.11,1231.87c-4.17,7-40.46,69.38-12.21,99.87,12.74,13.75,33.69,15.69,44.92,16.33,118.24,6.81,360-50,437.06-65.45,53.17-10.62,131.77-22.25,231.33-21.84"/><path fill="none" stroke="#10163e" stroke-miterlimit="10" stroke-width="6" d="M3209.63,1140.47s-23.67-10.73-22.46,7.86,0,61.13,0,61.13a96.33,96.33,0,0,0,12,2.6,93.33,93.33,0,0,0,10.48,1"/><path fill="none" stroke="#10163e" stroke-miterlimit="10" stroke-width="6" d="M3186.84,1206.28c-14,31-16.71,58.65-13.27,74.18,0,0,3,13.58,13.27,28.84a22.35,22.35,0,0,0,5,5.27h0c8.71,7,108.4.92,132.39-1.41,47.93-4.66,230.44-34.18,478.69-77.49"/><path fill="none" stroke="#10163e" stroke-miterlimit="10" stroke-width="6" d="M3351.88,1114.13s-23.68-11.61-22.47,8.5,0,66.13,0,66.13a90.14,90.14,0,0,0,12,2.81,86,86,0,0,0,10.49,1.07"/><path fill="none" stroke="#10163e" stroke-miterlimit="10" stroke-width="6" d="M3328.6,1179.69s-3.64,97.39,0,104.89,6.59,6.83,13.05,6.83,311.16-33.55,461.32-81.81"/><path fill="#fff" stroke="#247cc0" stroke-miterlimit="10" stroke-width="6" d="M2864.35,1187.79a17,17,0,0,0-6.46,17.6c1.92,7.4,8.62,10.5,9.52,10.9l33.81-5.19s7.65-11.27-2.69-23.31Z"/><path fill="#fff" stroke="#247cc0" stroke-miterlimit="10" stroke-width="6" d="M2864.35,1255.55a17,17,0,0,0-6.46,17.6c1.92,7.41,8.62,10.5,9.52,10.9l33.81-5.19s7.65-11.27-2.69-23.31Z"/><path fill="#fff" stroke="#247cc0" stroke-miterlimit="10" stroke-width="6" d="M2970.18,1168.47a17,17,0,0,0-6.46,17.61c1.92,7.4,8.62,10.5,9.52,10.9l33.81-5.19s7.65-11.28-2.69-23.32Z"/><path fill="#fff" stroke="#247cc0" stroke-miterlimit="10" stroke-width="6" d="M2970.18,1236.23a17,17,0,0,0-6.46,17.61c1.92,7.4,8.62,10.5,9.52,10.9l33.81-5.19s7.65-11.28-2.69-23.32Z"/><path fill="#fff" stroke="#247cc0" stroke-miterlimit="10" stroke-width="6" d="M3087.25,1148.85a17,17,0,0,0-6.45,17.61c1.92,7.4,8.62,10.5,9.52,10.9l33.8-5.19s7.65-11.28-2.69-23.32Z"/><path fill="#fff" stroke="#247cc0" stroke-miterlimit="10" stroke-width="6" d="M3087.25,1216.61a17,17,0,0,0-6.45,17.61c1.92,7.4,8.62,10.5,9.52,10.9l33.8-5.19s7.65-11.27-2.69-23.32Z"/><path fill="#fff" stroke="#247cc0" stroke-miterlimit="10" stroke-width="6" d="M3216.65,1120.68a17,17,0,0,0-6.46,17.6c1.92,7.41,8.62,10.5,9.52,10.9l33.81-5.19s7.65-11.27-2.7-23.31Z"/><path fill="#fff" stroke="#247cc0" stroke-miterlimit="10" stroke-width="6" d="M3216.65,1193.78a17,17,0,0,0-6.46,17.61c1.92,7.4,8.62,10.5,9.52,10.9l33.81-5.2s7.65-11.27-2.7-23.31Z"/><path fill="#fff" stroke="#247cc0" stroke-miterlimit="10" stroke-width="6" d="M3359.65,1096a17,17,0,0,0-6.46,17.6c1.92,7.41,8.62,10.5,9.52,10.9l33.81-5.19s7.65-11.27-2.69-23.31Z"/><path fill="#fff" stroke="#247cc0" stroke-miterlimit="10" stroke-width="6" d="M3359.65,1174.19a17,17,0,0,0-6.46,17.6c1.92,7.4,8.62,10.5,9.52,10.9l33.81-5.19s7.65-11.27-2.69-23.31Z"/><rect width="312.33" height="1842.62" x="3538.2" y="803.75" fill="#263a7d"/><rect width="221.93" height="53.1" x="3536.94" y="1611.62" fill="#f5871f"/><rect width="221.93" height="53.1" x="3536.94" y="1702.82" fill="#f5871f"/><rect width="221.93" height="53.1" x="3536.48" y="1800.61" fill="#f5871f"/><rect width="221.93" height="53.1" x="3536.48" y="1892.8" fill="#f5871f"/><rect width="221.93" height="53.1" x="3536.94" y="1999.18" fill="#f5871f"/><rect width="221.93" height="53.1" x="3536.7" y="2463.74" fill="#f5871f"/><rect width="221.93" height="53.1" x="3536.48" y="2561.53" fill="#f5871f"/><rect width="221.93" height="53.1" x="3536.94" y="2090.38" fill="#f5871f"/><rect width="221.93" height="53.1" x="3536.94" y="1023.74" fill="#f5871f"/><rect width="221.93" height="53.1" x="3536.94" y="937.24" fill="#f5871f"/><rect width="221.93" height="53.1" x="3536.94" y="850.74" fill="#f5871f"/><rect width="221.93" height="53.1" x="3536.94" y="1114.94" fill="#f5871f"/><rect width="221.93" height="53.1" x="3536.48" y="1212.73" fill="#f5871f"/><rect width="221.93" height="53.1" x="3536.48" y="1304.92" fill="#f5871f"/><rect width="221.93" height="53.1" x="3536.94" y="1411.3" fill="#f5871f"/><rect width="221.93" height="53.1" x="3536.94" y="1502.5" fill="#f5871f"/><rect width="221.93" height="53.1" x="3536.94" y="2276.43" fill="#f5871f"/><rect width="221.93" height="53.1" x="3536.94" y="2372.17" fill="#f5871f"/><rect width="221.93" height="53.1" x="3536.94" y="2185.89" fill="#f5871f"/><polygon fill="#fff" points="2822.61 1446.14 2863.14 1441.08 2863.14 1472.3 2822.61 1475.26 2822.61 1446.14"/><polygon fill="#fff" points="2814.76 1516.09 2858.45 1510.63 2858.45 1544.29 2814.76 1547.47 2814.76 1516.09"/><polygon fill="#fff" points="2900.88 1436.87 2941.41 1431.07 2941.41 1466.84 2900.88 1470.23 2900.88 1436.87"/><rect width="6.1" height="31.02" x="2863.14" y="1441.08" fill="#3d469c"/><rect width="6.09" height="33.83" x="2858.45" y="1510.63" fill="#3d469c"/><rect width="6.09" height="36.15" x="2941.41" y="1431.07" fill="#3d469c"/><polygon fill="#fff" points="2900.88 1504.56 2941.41 1498.75 2941.41 1534.53 2900.88 1537.91 2900.88 1504.56"/><rect width="6.09" height="36.15" x="2941.41" y="1498.75" fill="#3d469c"/><polygon fill="#fff" points="2984.04 1494.29 3024.57 1488.24 3024.57 1525.52 2984.04 1529.05 2984.04 1494.29"/><rect width="6.09" height="37.67" x="3024.57" y="1488.24" fill="#3d469c"/><polygon fill="#fff" points="2984.04 1426.72 3024.57 1420.68 3024.57 1457.96 2984.04 1461.48 2984.04 1426.72"/><rect width="6.09" height="37.67" x="3024.57" y="1420.68" fill="#3d469c"/><circle cx="3208.69" cy="2105.75" r="10.68" fill="#3d469c"/><circle cx="3208.69" cy="2463.74" r="10.68" fill="#3d469c"/><path fill="none" stroke="#10163e" stroke-miterlimit="10" stroke-width="6" d="M2835.39,1269.8c-13.63,34.17-28.54,87.55,1.41,116.52a59.52,59.52,0,0,0,4.89,4.17c73.27,55.48,358.13-12.64,358.13-12.64,75.71-18.1,190.2-44.67,336.66-75.37"/><rect width="20.12" height="65.42" x="3494.09" y="1255.81" fill="#ffe159"/><line x1="3152.13" x2="3100.76" y1="1471.32" y2="1498.83" fill="#fff" stroke="#247cc0" stroke-miterlimit="10" stroke-width="6"/><line x1="3158.14" x2="3108.14" y1="1479.72" y2="1509.58" fill="#fff" stroke="#247cc0" stroke-miterlimit="10" stroke-width="6"/><rect width="1271.55" height="1294.64" x="599.81" y="1089.68" fill="#5eaaf4"/><rect width="513.55" height="1147.31" x="698.45" y="1154.05" fill="#fff"/><rect width="513.55" height="1147.31" x="1268.85" y="1154.05" fill="#fff"/><rect width="508.5" height="44.55" x="1262.66" y="1608.76" fill="#d1e5f6"/><path fill="#247cc0" d="M1773.83,1656H1260v-49.89h513.84Zm-508.5-5.34h503.15v-39.21H1265.33Z"/><rect width="513.55" height="44.55" x="1262.66" y="1837.22" fill="#d1e5f6"/><path fill="#247cc0" d="M1778.89,1884.45H1260v-49.9h518.9Zm-513.56-5.35h508.21v-39.2H1265.33Z"/><rect width="413.53" height="223.84" x="741.69" y="1236.29" fill="#9ccffd"/><rect width="503.03" height="132.81" x="1268.13" y="1475.95" fill="#80b2df"/><rect width="503.03" height="132.81" x="1268.13" y="1197.91" fill="#4387fb"/><rect width="511.96" height="132.81" x="1263.08" y="1700.45" fill="#9ccffd"/><rect width="513.55" height="169.1" x="693.1" y="1542.36" fill="#9ccffd"/><rect width="513.55" height="80.15" x="693.1" y="1882.63" fill="#6072e4"/><rect width="313.76" height="181.18" x="850.17" y="2079.24" fill="#d0e5f6"/><path fill="#2968b2" d="M1169.28,2265.77H844.82V2073.89h324.46Zm-313.76-10.7h303.07V2084.59H855.52Z"/><rect width="506.91" height="315.34" x="1268.13" y="1980.68" fill="#4d92fe"/><path fill="#2968b2" d="M1116.28,1414.52H965.52v-145.4h150.76Zm-140.06-10.7h129.36v-124H976.22Z"/><path fill="#0136bd" d="M858,1424.51H814.55V1297.94H858Zm-32.74-10.69h22V1308.63h-22Z"/><circle cx="775.64" cy="1282.12" r="13.95" fill="#fff"/><circle cx="775.64" cy="1330.72" r="13.95" fill="#fff"/><circle cx="775.64" cy="1379.33" r="13.95" fill="#fff"/><path fill="#2968b2" d="M761.8,1611.29H722.18v-39.63H761.8Zm-34.56-5.06h29.51v-29.51H727.24Z"/><path fill="#2968b2" d="M817.35,1611.29H777.73v-39.63h39.62Zm-34.56-5.06H812.3v-29.51H782.79Z"/><path fill="#2968b2" d="M872.9,1611.29H833.28v-39.63H872.9Zm-34.56-5.06h29.51v-29.51H838.34Z"/><path fill="#2968b2" d="M928.53,1611.29H888.91v-39.63h39.62ZM894,1606.23h29.52v-29.51H894Z"/><path fill="#2968b2" d="M761.8,1679.92H722.18V1640.3H761.8Zm-34.56-5.05h29.51v-29.52H727.24Z"/><path fill="#2968b2" d="M817.35,1679.92H777.73V1640.3h39.62Zm-34.56-5.05H812.3v-29.52H782.79Z"/><rect width="34.57" height="34.57" x="707.43" y="1905.42" fill="#fff"/><rect width="34.57" height="34.57" x="758.36" y="1905.42" fill="#fff"/><path fill="#2968b2" d="M872.9,1679.92H833.28V1640.3H872.9Zm-34.56-5.05h29.51v-29.52H838.34Z"/><path fill="#2968b2" d="M928.53,1679.92H888.91V1640.3h39.62ZM894,1674.87h29.52v-29.52H894Z"/><rect width="34.57" height="34.57" x="1295.94" y="1212.72" fill="#fff"/><rect width="34.57" height="34.57" x="1351.49" y="1212.72" fill="#fff"/><rect width="34.57" height="34.57" x="1407.04" y="1212.72" fill="#fff"/><rect width="34.57" height="34.57" x="1295.94" y="1281.35" fill="#fff"/><rect width="34.57" height="34.57" x="1351.49" y="1281.35" fill="#fff"/><rect width="34.57" height="34.57" x="1407.04" y="1281.35" fill="#fff"/><path fill="#2968b2" d="M1570.89,1530.67h-45.27v-45.26h45.27ZM1536.32,1520h23.87V1496.1h-23.87Z"/><path fill="#2968b2" d="M1626.43,1530.67h-45.26v-45.26h45.26ZM1591.87,1520h23.87V1496.1h-23.87Z"/><path fill="#2968b2" d="M1682,1530.67h-45.27v-45.26H1682ZM1647.42,1520h23.87V1496.1h-23.87Z"/><path fill="#2968b2" d="M1570.89,1599.31h-45.27V1554h45.27Zm-34.57-10.7h23.87v-23.88h-23.87Z"/><path fill="#2968b2" d="M1626.43,1599.31h-45.26V1554h45.26Zm-34.56-10.7h23.87v-23.88h-23.87Z"/><path fill="#2968b2" d="M1682,1599.31h-45.27V1554H1682Zm-34.57-10.7h23.87v-23.88h-23.87Z"/><path fill="#2968b2" d="M1341.71,1530.67h-45.26v-45.26h45.26ZM1307.14,1520H1331V1496.1h-23.88Z"/><path fill="#2968b2" d="M1397.26,1530.67H1352v-45.26h45.26ZM1362.69,1520h23.87V1496.1h-23.87Z"/><path fill="#2968b2" d="M1452.81,1530.67h-45.26v-45.26h45.26ZM1418.24,1520h23.88V1496.1h-23.88Z"/><path fill="#2968b2" d="M1508.44,1530.67h-45.27v-45.26h45.27ZM1473.87,1520h23.87V1496.1h-23.87Z"/><path fill="#2968b2" d="M1341.71,1599.31h-45.26V1554h45.26Zm-34.57-10.7H1331v-23.88h-23.88Z"/><path fill="#2968b2" d="M1397.26,1599.31H1352V1554h45.26Zm-34.57-10.7h23.87v-23.88h-23.87Z"/><path fill="#2968b2" d="M1452.81,1599.31h-45.26V1554h45.26Zm-34.57-10.7h23.88v-23.88h-23.88Z"/><path fill="#2968b2" d="M1508.44,1599.31h-45.27V1554h45.27Zm-34.57-10.7h23.87v-23.88h-23.87Z"/><rect width="167.84" height="21.18" x="870.38" y="1912.79" fill="#0136bd"/><rect width="5.05" height="62.32" x="1304.96" y="1735.62" fill="#0136bd"/><rect width="5.05" height="62.32" x="1318.27" y="1735.62" fill="#0136bd"/><rect width="5.05" height="62.32" x="1333.45" y="1735.62" fill="#0136bd"/><rect width="5.05" height="62.32" x="1346.94" y="1735.62" fill="#0136bd"/><rect width="5.05" height="62.32" x="1361.27" y="1735.62" fill="#0136bd"/><rect width="5.05" height="62.32" x="1375.61" y="1735.62" fill="#0136bd"/><rect width="5.05" height="62.32" x="1389.11" y="1735.62" fill="#0136bd"/><path fill="#2968b2" d="M875.49,2116.1A10.47,10.47,0,1,1,886,2105.63,10.48,10.48,0,0,1,875.49,2116.1Zm-.23-10.47a.24.24,0,0,0,.23.24Z"/><path fill="#2968b2" d="M875.49,2239.77A10.47,10.47,0,1,1,886,2229.31,10.48,10.48,0,0,1,875.49,2239.77Zm-.23-10.46a.24.24,0,0,0,.23.23Z"/><path fill="#2968b2" d="M1140.94,2116.1a10.47,10.47,0,1,1,10.46-10.47A10.48,10.48,0,0,1,1140.94,2116.1Zm-.23-10.47a.23.23,0,0,0,.23.24Z"/><path fill="#2968b2" d="M1140.94,2239.77a10.47,10.47,0,1,1,10.46-10.46A10.48,10.48,0,0,1,1140.94,2239.77Zm-.23-10.46a.23.23,0,0,0,.23.23Z"/><path fill="#2968b2" d="M1004.62,1414.52h-39.1v-145.4h39.1Zm-28.4-10.7h17.71v-124H976.22Z"/><path fill="#2968b2" d="M1033,1414.52h-39.1v-145.4H1033Zm-28.41-10.7h17.72v-124h-17.72Z"/><path fill="#2968b2" d="M1061.44,1414.52h-39.1v-145.4h39.1Zm-28.41-10.7h17.71v-124H1033Z"/><path fill="#2968b2" d="M1089.85,1414.52h-39.11v-145.4h39.11Zm-28.41-10.7h17.71v-124h-17.71Z"/><path fill="#0136bd" d="M1510.56,1816H1288.1v-99h222.46Zm-211.77-10.7h201.08v-77.61H1298.79Z"/><rect width="219.49" height="10.7" x="896.49" y="2105.4" fill="#2968b2"/><rect width="219.49" height="10.7" x="896.49" y="2133" fill="#2968b2"/><rect width="219.49" height="10.7" x="896.49" y="2164.49" fill="#2968b2"/><rect width="219.49" height="10.7" x="896.49" y="2191.58" fill="#2968b2"/><rect width="219.49" height="10.7" x="896.49" y="2218.84" fill="#2968b2"/><rect width="41.98" height="202.39" x="1307.49" y="2036.72" fill="#0136bd"/><rect width="41.98" height="202.39" x="1398.08" y="2036.72" fill="#0136bd"/><path fill="#2968b2" d="M1212,2301.36H687.75v-1158H1212Zm-513.55-10.69h502.86V1154.05H698.45Z"/><path fill="#2968b2" d="M1781.77,2301.36H1257.52v-1158h524.25Zm-513.56-10.69h502.86V1154.05H1268.21Z"/><rect width="513.55" height="44.55" x="693.1" y="1711.46" fill="#d1e5f6"/><path fill="#247cc0" d="M1209.33,1758.68H690.43v-49.9h518.9Zm-513.56-5.35H1204v-39.2H695.77Z"/><rect width="513.55" height="44.55" x="693.1" y="1460.13" fill="#d1e5f6"/><path fill="#247cc0" d="M1209.33,1507.35H690.43v-49.9h518.9ZM695.77,1502H1204v-39.2H695.77Z"/><rect width="513.55" height="44.55" x="693.1" y="1962.79" fill="#d1e5f6"/><path fill="#247cc0" d="M1209.33,2010H690.43v-49.9h518.9Zm-513.56-5.35H1204v-39.2H695.77Z"/><rect width="513.55" height="44.55" x="1261.08" y="1322.4" fill="#d1e5f6"/><path fill="#247cc0" d="M1777.31,1369.62h-518.9v-49.9h518.9Zm-513.56-5.35H1772v-39.2H1263.75Z"/><rect width="34.57" height="34.57" x="1700.27" y="1491.98" fill="none" stroke="#2968b2" stroke-miterlimit="10" stroke-width="6"/><rect width="34.57" height="34.57" x="1700.27" y="1560.61" fill="none" stroke="#2968b2" stroke-miterlimit="10" stroke-width="6"/><rect width="131.07" height="81.24" x="1038.21" y="1591.47" fill="#2968b2"/><path fill="#2968b2" d="M1478.59,879.59c-124.27,0-225.37-101.11-225.37-225.39s101.1-225.4,225.37-225.4S1704,529.92,1704,654.2,1602.86,879.59,1478.59,879.59Zm0-425c-110.06,0-199.61,89.55-199.61,199.63s89.55,199.63,199.61,199.63,199.62-89.55,199.62-199.63S1588.66,454.57,1478.59,454.57Z"/><ellipse cx="1480.35" cy="652.72" fill="#fff" rx="200.84" ry="200.86"/><rect width="124.01" height="12.88" x="1419.54" y="584.46" fill="#f47e20" transform="rotate(-85.49 1481.566 590.895)"/><polygon fill="#f47e20" points="1518.93 579.29 1485.58 535.51 1443.37 573.83 1434.71 564.29 1487.32 516.54 1529.17 571.49 1518.93 579.29"/><rect width="12.88" height="159.1" x="1547.34" y="599.17" fill="#f47e20" transform="rotate(-65.23 1553.692 678.737)"/><polygon fill="#f47e20" points="1558 731.92 1555.9 719.22 1619.76 708.62 1589.66 652.31 1601.02 646.24 1639.59 718.38 1558 731.92"/><circle cx="1478.59" cy="654.2" r="21.22" fill="#f5871f" transform="rotate(-89.64 1478.634 654.186)"/><rect width="41.43" height="12.88" x="1459.64" y="460.04" fill="#2968b2" transform="rotate(-89.44 1480.358 466.482)"/><rect width="41.43" height="12.88" x="1459.64" y="841.06" fill="#2968b2" transform="rotate(-89.44 1480.371 847.493)"/><rect width="12.88" height="41.42" x="1664.4" y="633.49" fill="#2968b2" transform="rotate(-89.44 1670.907 654.167)"/><rect width="12.88" height="41.42" x="1283.42" y="633.49" fill="#2968b2" transform="rotate(-89.44 1289.916 654.18)"/><rect width="12.88" height="41.43" x="1610.75" y="765.76" fill="#2968b2" transform="rotate(-44.84 1617.326 786.486)"/><rect width="12.88" height="41.43" x="1339.47" y="498.25" fill="#2968b2" transform="rotate(-44.84 1346.025 518.965)"/><rect width="41.43" height="12.88" x="1325.19" y="780.03" fill="#2968b2" transform="rotate(-45.16 1345.76 786.45)"/><rect width="41.43" height="12.88" x="1596.47" y="512.52" fill="#2968b2" transform="rotate(-45.16 1617.027 518.975)"/><rect width="258.18" height="1168.03" x="2379.33" y="1216.6" fill="#fff" stroke="#247cc0" stroke-miterlimit="10" stroke-width="6"/><path fill="#5f93ce" stroke="#2968b2" stroke-miterlimit="10" stroke-width="6" d="M2379,1217.31l-89,168.1a.25.25,0,0,0,0,.07l14.8,470.24v447.21a.14.14,0,0,0,0,.1l74.24,81.23c.11.12.35,0,.35-.1V1217.37C2379.33,1217.2,2379,1217.15,2379,1217.31Z"/><rect width="35.08" height="306.15" x="2425.15" y="1248.91" fill="#2e69b2"/><rect width="35.08" height="306.15" x="2495.86" y="1248.91" fill="#2e69b2"/><rect width="35.08" height="306.15" x="2566.68" y="1248.91" fill="#2e69b2"/><path fill="none" stroke="#2968b2" stroke-miterlimit="10" stroke-width="6" d="M1841.39,2499.2a5.12,5.12,0,1,1-5.11-5.12A5.11,5.11,0,0,1,1841.39,2499.2Z"/><rect width="15.16" height="1313.92" x="2655.51" y="1070.72" fill="#2684c6"/><rect width="15.16" height="1314.77" x="2696.39" y="1069.87" fill="#2684c6"/><polygon fill="#202854" points="2426.32 2520.22 2426.32 2642.43 1789.7 2642.43 1880.64 2489.67 2426.32 2520.22"/><path fill="#fcd645" d="M1907.8,1568.56l365-45.72,137.76,316.65-22.85,479.72,38,258.66s-147.36,32.28-417.25,0S1907.8,1568.56,1907.8,1568.56Z"/><path fill="#fe8200" d="M2039.94,2463.74s111.57,115.85,294.68,67.48c0,0-69.5,95.24-310.62-7.49Z"/><path fill="#fe8200" d="M2375.32,1632.09S2307.4,1963,2026.27,2018c0,0,211.54-8.71,285.33-111.48a2211.44,2211.44,0,0,1-100,209.51,2215.48,2215.48,0,0,1-201.9,307.42c248.15-62.26,315.64-183.82,334.52-225.38,26.19-57.69,28.18-161,31.09-365.22C2376.49,1748,2376,1678.25,2375.32,1632.09Z"/><path fill="#441413" d="M1954.55,1200.31s-40.28-112.32,86.78-165.65c0,0,26.32-25.61,121.87-31.94s112.41,9.26,131.28-5.13c0,0,7.51,19.29-5.3,22,0,0,19.06,1.86,25.37-20.09,0,0,34.69,89.59-10.56,140.19s-248,253.6-248,253.6a108.32,108.32,0,0,1-45.35-6.19c-52.94-19.52-69.59-75.21-71.59-82.33C1924.05,1251.41,1950,1207.76,1954.55,1200.31Z"/><path fill="#ffcaa9" d="M2087.13,1424.15a63.78,63.78,0,0,1-1.78,26,65.29,65.29,0,0,1-21.33,32.29L2112.74,1592s67.49,55.91,126.2-15.85c-2.74-8.79-5.29-18.15-7.52-28a366.36,366.36,0,0,1-8.94-81.39l-96-60.35Z"/><path fill="#2968b2" d="M2169.15,1679.62s46.5,301.44,23.33,506.51l-12,213.3s-14.62,170.08-80.66,257c0,0-96.54-26.79-136.83-2s-113.71,15.37-113.71,15.37-61.07-4.44-188.67-74.68l106.68-247.88,142.09-778.69,141.84-81.75Z"/><path fill="#27397c" d="M2272.76,1522.84s71.57,3.12,200.4,114.42,285.74,51.57,285.74,51.57,93.83-39,195.63-77.5c0,0,43.39-4.75,122.79,60,0,0-127.1,194-329.74,254.25,0,0-202.5,106.77-343.48,42.71Z"/><path fill="#2968b2" d="M2255.28,1621.16c4.33,18.23,11.29,46.56,20.71,81,32.53,118.68,54.14,162.3,70.6,227.81,11.61,46.2,23.65,115.23,19.79,205.22.81,61.74,3.24,126.18,7.72,193.06,7,104.3,18.11,202.36,31.78,293.56l87.12-30.92A632.88,632.88,0,0,1,2445.17,2487c-18.27-51.51-24.36-94.22-29.92-121.21-19.09-92.54-11.15-397.51-11.15-397.51q.93-137.45,1.87-274.89l.87-108a372.51,372.51,0,0,0-38.23-25.48,368.78,368.78,0,0,0-60.13-28,357.21,357.21,0,0,0-41.51-12.44l-34.17-9.86Z"/><circle cx="2140.94" cy="1808" r="13.86" fill="#231f20" transform="rotate(-89.46 2140.926 1807.999)"/><path fill="#632726" d="M1978.51,1204.34c-2.32-10.17-9-45.45,11-78.69,12.89-21.45,31-32.11,39.94-37.4,18.85-11.2,41.55-17.48,70.44-18.67,138.74-5.71,185.46-58.41,185.46-58.41a43.38,43.38,0,0,1,1,16.85c-2.73,18.85-18,30.56-28.2,38.2-36.38,27.14-91.84,36.66-107.43,39.07,12.63,4,44.05,12,79.09-.49,33.24-11.87,67.33-41.36,74.27-79.06a78,78,0,0,0,1.26-11.59,62,62,0,0,1,4.2,23.87c-.54,18.62-9.91,32.89-21.7,50.84a176,176,0,0,1-12.28,16.85c-2,2.41-24.94,29.4-59.81,46.31-42.64,20.68-59,4.86-145,20.8a321.94,321.94,0,0,0-66.62,19.52C1993.18,1196.86,1984.44,1201.22,1978.51,1204.34Z"/><circle cx="2140.5" cy="2148.8" r="13.86" fill="#231f20" transform="rotate(-89.45 2140.466 2148.799)"/><circle cx="2112.14" cy="2475.11" r="13.86" fill="#231f20" transform="rotate(-89.46 2112.123 2475.107)"/><circle cx="2153.25" cy="1988.72" r="13.86" fill="#231f20" transform="rotate(-89.4 2153.25 1988.617)"/><path fill="#27397c" d="M2156.41,2523.73s-78.61,78.92-116.47,64.51l58.3,68.16a220.71,220.71,0,0,0,19.93-29.22c3.72-6.53,9.78-17.93,20.09-46.44C2143.43,2566.44,2149.93,2547.14,2156.41,2523.73Z"/><path fill="#ef7e7b" d="M2087.13,1424.15s32.78,128.15,130.76,102.13l8.66-3.44-4.07-56.1-96-60.35Z"/><path fill="#27397c" d="M2087,1437.9s-5.86,19.5-43.53,38.3-12.42,100-12.42,100l46.12,204,45.47-97.27s25.92-35.22,44.9-3.31L2064,1482.45S2091.06,1461.75,2087,1437.9Z"/><path fill="#27397c" d="M1907.8,1568.56s123.73,56.6,97.71,287.12c0,0-7.4,26.61-18.58,60.12-16.78,50.3-29.63,63.49-41.24,101.46-13.54,44.31-20.32,66.47-12.75,88.29,19.11,55.13,109.14,69.76,155.24,77.25,33.93,5.51,86,9.42,149.88-3.93,0,0,51.51,31.51,68.41,159a590.79,590.79,0,0,1-286.8,93.76c-31.2,2.24-89.18,2-153.22-25.78-97-42.14-143.59-119.72-158.06-146.39A554.47,554.47,0,0,1,1682,2140.8a561.57,561.57,0,0,1,17.09-209.45,610.2,610.2,0,0,1,208.67-362.79Z"/><path fill="#27397c" d="M2238.94,1576.18l33,106.75,8.66-35.86s24.76,2,41.59,28.53c0,0,15.24-90.23-99.75-208.86C2222.48,1466.74,2219.81,1514.39,2238.94,1576.18Z"/><polygon fill="#fe8200" stroke="#fff" stroke-miterlimit="10" stroke-width="6" points="2455.15 1927.73 2337.78 2373.44 2647.35 2321.17 2769.33 1882.66 2455.15 1927.73"/><path fill="#ffcaa9" d="M2271.19,1123.66s136.08,198.58,76.81,303.75-225.28-5.38-225.28-5.38-94,21.5-98.72-61c0,0,6.84-44.66,47.05-18.4,0,0-3.25-68.2-15.4-89.7C2055.65,1252.91,2212.73,1207.94,2271.19,1123.66Z"/><path fill="#ffcaa9" d="M3000,1626.56s8.44-20.07,18.17-42.74c11.24-26.19,24.2-55.85,27.84-62,6.79-11.49,68.92-49,99.74-55.64,0,0,6.43-2.82,3,7.35,0,0,11.52-3.77,6.91,8.45,0,0,13.72-.43,2.77,10.3s-70,42.81-54.08,61.83,30.48-33,58-34.73c0,0-8,48.06-41,79.82s-65.83,63-65.83,63Z"/><path fill="#ef7e7b" d="M3019.94,1580.79a94.21,94.21,0,0,0,51.64,67.11l-17.22,15.46-54.32-36.8Z"/><path fill="#ef7e7b" d="M3154.48,1482.07l-39.7,19.68L3086.33,1526s-4.22-2.46-2.81-3.87,28.45-20.72,32.67-22.83S3154.48,1482.07,3154.48,1482.07Z"/><path fill="#ef7e7b" d="M3149.12,1473.1,3108,1489.48l-30.33,21.85s-4-2.8-2.49-4.08,30.05-18.35,34.42-20.11S3149.12,1473.1,3149.12,1473.1Z"/><path fill="#ffcaa9" d="M2475.29,2146.73q-.39-3.95-.88-7.58h0l-8.07,11.11,9.7-27.11-5.54-41.38a18.83,18.83,0,0,0-2.68,1.95c-.23.19-.44.44-.66.65-.62.58-1.24,1.17-1.83,1.83-.22.25-.41.54-.63.8-.56.69-1.13,1.38-1.66,2.14-.19.26-.36.55-.54.83-.53.8-1.07,1.6-1.57,2.46-.15.26-.29.54-.44.81-.51.9-1,1.8-1.48,2.74-.12.25-.22.5-.34.74-.48,1-1,2-1.39,3l-.26.63c-.45,1.06-.88,2.12-1.29,3.19-.08.19-.14.37-.21.57-.41,1.08-.8,2.17-1.17,3.24,0,.15-.09.3-.14.45-.38,1.11-.73,2.2-1.06,3.27l-.09.31c-.34,1.1-.65,2.16-.93,3.19l-.09.3c-.28,1-.54,2-.77,2.93l-.06.23c-.24.93-.45,1.8-.64,2.61a1.74,1.74,0,0,1-.05.22c-.18.79-.34,1.51-.48,2.15,0,.07,0,.13,0,.2-.13.62-.25,1.15-.33,1.6a1.77,1.77,0,0,0,0,.2c-.09.43-.15.74-.19.95s0,.15,0,.22,0,.1,0,.12-.11,0-.34.28l-.07.08c-.12.13-.27.29-.47.53l-.1.11c-.18.22-.41.49-.67.82l-.2.24-1.11,1.4-.24.32-1.43,1.84-.24.31c-.61.79-1.31,1.72-2.08,2.74l-.41.54-2.73,3.64a24.62,24.62,0,0,1-2.26,2.57c-.24.25-.51.51-.77.76-.69.66-1.43,1.33-2.23,2-.27.23-.53.46-.82.69-1.08.87-2.22,1.75-3.45,2.62l-.57.39c-1.07.74-2.19,1.48-3.35,2.22l-1.28.81c-1,.64-2.1,1.27-3.18,1.9l-1.19.69q-2.1,1.2-4.28,2.35l-1.6.82c-1,.5-1.92,1-2.89,1.46l-2.08,1-2.46,1.15c-1.43.66-2.84,1.29-4.25,1.9l-1.66.72c-.95.41-1.88.79-2.81,1.16l-1.27.51-2.84,1.11-.57.2c-2.1.78-4.11,1.48-5.93,2h0c-5.65,1.78-9.75,2.5-10.69,1.63-2.91-2.74,7.51-17.13,14.52-21.59q3.1-11.76,6.2-23.54l-3.49.7s-53,8.34-62.37,33.56a268.39,268.39,0,0,1-21.31,44.25c-28.81,18.63-54.07,15.26-54.07,15.26l-10.6,19.26q21.35,28.47,42.71,56.93a493.75,493.75,0,0,1,76.85-28.06c14.36-3.92,26.66-6.54,37.57-9.35,18.2-4.68,32.55-9.85,46.16-22.27a89.92,89.92,0,0,0,9.17-9.73,95.65,95.65,0,0,0,9.74-14.67q1.28-2.35,2.34-4.59c1.42-3,2.58-5.75,3.54-8.24a204.79,204.79,0,0,0,2.32-24.86c.1-3.17.12-6.27.08-9.27C2476.14,2157.64,2475.8,2152,2475.29,2146.73Z"/><path fill="#ef7e7b" d="M2269.93,2217.75s9.13-.36,14.4-2.46,20.73,41.8,20.73,41.8l10.89,26.7-22.83,7.73Z"/><path fill="#007dc2" d="M2895.67,1632.59s125,49.15,136.23,97l45.42-58.29s-48.91-83.7-115.72-62.24C2954.53,1611.33,2895.67,1632.59,2895.67,1632.59Z"/><path fill="#007dc2" d="M2155.73,2187.87s93.1,93.33,61.34,199.17c0,0,77.52-38.6,89.4-49.22,0,0-10.65-110.2-68.41-159C2238.06,2178.87,2175.09,2191.63,2155.73,2187.87Z"/><path fill="#293a6e" d="M2309.84,2195.68s-.73,20.36,7.41,30.28,17.37,25.38,17.37,25.38l-24.69,16.83s-29.68-39.81-25.47-61.47Z"/><circle cx="2326.06" cy="2261.95" r="26.42" fill="#d9f0fc" stroke="#504d9f" stroke-miterlimit="10" stroke-width="6" transform="rotate(-.28 2355.815 2291.458)"/><path fill="#ed2d25" d="M2236.2,1392.91h53.45a5.88,5.88,0,0,1,4.77,9.32c-9.37,13-30.47,31.73-62.24.84A5.89,5.89,0,0,1,2236.2,1392.91Z"/><circle cx="2181.93" cy="1306.46" r="13.23" fill="#231f20" transform="rotate(-89.44 2181.878 1306.475)"/><circle cx="2305.26" cy="1251.91" r="13.23" fill="#231f20"/><path fill="#231f20" d="M2130.08,1285.92c-3.12,1.14-6.3-.15-7.36-2.47s.44-4.8.57-5a134.44,134.44,0,0,1,15.83-12.64c8.11-5.7,17.87-11.35,25.83-12.29a5.58,5.58,0,0,1,3.24,2.65c1.12,2.25.35,5.33-2.05,7.38C2160.61,1265.49,2153.76,1268.46,2130.08,1285.92Z"/><path fill="#231f20" d="M2278,1215.11a5.46,5.46,0,0,1-4.88-2.68,5.57,5.57,0,0,1,1.41-6.82,81.79,81.79,0,0,1,14.47-4.16c6.63-1.39,14-2.1,18.76-.09a5.21,5.21,0,0,1-3.9,9.32C2300.6,1210.48,2296.65,1210.49,2278,1215.11Z"/><path fill="#ef7e7b" d="M2064,1358.64l31.17,34.27S2034.74,1398.66,2064,1358.64Z"/><path fill="#632726" d="M2018.43,1217.21s6.2,13.14,76.76-6.85l56.29-21.41Z"/><ellipse cx="2353.89" cy="1271.98" fill="#ef7e7b" rx="37.24" ry="18.09" transform="rotate(-23.39 2353.72 1271.927)"/><ellipse cx="2185.09" cy="1347.69" fill="#ef7e7b" rx="41.84" ry="18.09" transform="rotate(-23.39 2184.9 1347.615)"/><path fill="#ef7e7b" d="M2280.64,1293.41c-.24,3.81-1.6,31.85,17.74,46a38.23,38.23,0,0,0,11.77,5.8c6.59-12.21,5.69-18,3.69-21.08s-4.74-2.73-13.35-8.08a52.65,52.65,0,0,1-11.77-9.48A43.4,43.4,0,0,1,2280.64,1293.41Z"/><path fill="#231f20" d="M2307.58,1354.41l-3.76-3.38c5.54-6.15,8.4-12.41,8.48-18.6a11.9,11.9,0,0,0-8.27-11.52c-22.63-6.58-25.6-30.21-25.72-31.22l5-.58c.1.87,2.75,21.32,22.11,27a16.82,16.82,0,0,1,11.91,16.44C2317.25,1340,2314,1347.32,2307.58,1354.41Z"/><path fill="#ef7e7b" d="M2391.83,2144s-28.81,15.46-22.84,24.59,26.35-3.16,26.35-3.16-13.28,5.69-18.48,4.47c0,0-1.45-1,.39-4.89,0,0,4.36-7.94,7.83-11,0,0,4.08-4.38,6.3-5.69l1.44-5Z"/><polygon fill="#ef7e7b" points="2467.18 2148.09 2450.84 2177.08 2454.01 2179.19 2467.18 2148.09"/><path fill="#ef7e7b" d="M2475.61,2170.23l-11.85,24.5s-1.85,2.9.52,2.38S2475.61,2170.23,2475.61,2170.23Z"/></svg>