<svg xmlns="http://www.w3.org/2000/svg" enable-background="new 0 0 1200 900" viewBox="0 0 1200 900"><path fill="#edf5fc" d="M288.515 747.627c0-.014 10.53 0 11.074 0H900.822c18.461 0 36.925-.076 55.386 0 19.877.082 33.1-21.825 43.828-35.668 18.36-23.692 32.357-50.66 36.106-79.622 5.776-44.635-18.115-94.51-64.368-111.011-15.898-5.672-33.203-7.184-49.65-11.389-16.446-4.204-33.075-12.032-40.79-25.815-11.96-21.369 1.877-46.884 17.206-66.416s33.444-40.797 30.05-64.546c-2.603-18.204-18.14-33.369-36.512-41.195-18.372-7.827-39.254-9.334-59.56-8.985-74.496 1.283-148.204 26.72-204.686 70.634-23.619 18.364-46.099 40.713-76.54 46.713-42.788 8.433-83.035-18.04-123.038-34.144-72.575-29.217-160.86-24.117-228.727 13.214-30.777 16.93-58.387 41.55-67.95 72.943-10.378 34.067 2.3 71.277 25.17 99.936 12.2 15.288 27.13 28.602 43.158 40.597 14.078 10.536 32.969 18.56 45.825 29.876 13.205 11.623 22.523 34.791 29.465 50.001 7.942 17.4 13.508 35.934 13.32 54.877z"/><path fill="#d7e7ff" d="M638.402 703.958H564.73l19.388-164.609h17.467z"/><path fill="#d7e7ff" d="M834.565 749.155H383.827c3.541-9.428 14.364-16.247 27.183-16.247 1.646 0 3.242.12 4.838.36-1.347-3.29-2.095-6.82-2.095-10.47 0-18.254 18.405-33.057 41.149-33.057a50.5 50.5 0 0 1 8.977.802c1.846-17.932 20.5-32.054 43.293-32.054 13.567 0 25.737 5.015 33.717 12.878 4.888-10.19 17.258-17.41 31.672-17.41 12.37 0 23.243 5.335 29.178 13.318 8.879-10.31 23.642-17.01 40.35-17.01 14.216 0 26.984 4.814 35.912 12.557 8.978-9.468 23.143-15.566 39.104-15.566 27.133 0 49.128 17.692 49.128 39.556 0 3.33-.498 6.54-1.446 9.589a43.428 43.428 0 0 1 7.681-.682c19.901 0 36.061 12.957 36.061 29.005 0 2.848-.499 5.576-1.496 8.184h.25c12.867 0 23.69 6.82 27.282 16.247z"/><path fill="#e4f0fd" d="M747.952 749.155H469.276c6.234-20.34 32.208-35.624 63.32-35.624 2.02 0 4.04.08 6.06.2 5.772-21.663 33.075-38.031 65.918-38.031 35.152 0 64.012 18.775 66.84 42.685a90.995 90.995 0 0 1 14.604-1.164c29.265 0 53.854 13.44 61.934 31.934z"/><path fill="#5388f2" d="M645.636 581.998c0 .68-.019 1.38-.058 2.059-1.068 24.416-21.191 43.878-45.879 43.878-24.707 0-44.83-19.462-45.898-43.878a36.38 36.38 0 0 1-.058-2.059c0-25.367 20.57-45.937 45.956-45.937 25.368 0 45.937 20.57 45.937 45.937z"/><path d="M645.636 581.998c0 .68-.019 1.38-.058 2.059h-91.777a36.38 36.38 0 0 1-.058-2.059c0-25.367 20.57-45.937 45.956-45.937 25.368 0 45.937 20.57 45.937 45.937z" opacity=".15"/><path fill="#c2d1f2" d="M762.588 341.743c-.473-.166-.961-.365-1.45-.532-1.355-.454-2.373-1.588-2.766-2.95l-1.066-3.895c-.541-1.97-2.393-3.298-4.448-3.212l-12.517.587a4.35 4.35 0 0 0-4.086 3.58l-.737 4.027c-.266 1.4-1.178 2.603-2.474 3.183-.484.21-.937.42-1.405.644-1.264.628-2.771.551-4.02-.14l-3.507-1.983a4.43 4.43 0 0 0-5.405.863l-8.444 9.266c-1.38 1.492-1.525 3.769-.36 5.45l2.316 3.348a4.293 4.293 0 0 1 .517 3.98c-.182.473-.38.977-.547 1.466-.424 1.355-1.558 2.357-2.934 2.75l-3.88 1.066a4.386 4.386 0 0 0-3.212 4.448l.587 12.518a4.368 4.368 0 0 0 3.611 4.116l3.964.707c1.4.266 2.619 1.146 3.184 2.473.209.453.434.922.675 1.405.627 1.264.551 2.771-.172 4.02l-1.983 3.508c-1 1.785-.627 4.04.864 5.405l9.281 8.443c1.507 1.38 3.77 1.525 5.466.36l3.332-2.3c1.168-.798 2.672-1.02 3.98-.518.489.199.962.366 1.466.532 1.371.456 2.357 1.59 2.75 2.95l1.066 3.896c.526 1.97 2.393 3.299 4.433 3.212l12.533-.588a4.354 4.354 0 0 0 4.101-3.61l.738-3.995c.266-1.385 1.146-2.604 2.442-3.168.484-.226.952-.436 1.405-.66 1.263-.66 2.802-.583 4.035.14l3.508 1.984c1.8.999 4.04.627 5.404-.865l8.444-9.281a4.401 4.401 0 0 0 .375-5.466l-2.33-3.362c-.799-1.153-1.02-2.625-.502-3.95.182-.488.35-.962.485-1.418.455-1.37 1.589-2.357 2.965-2.75l3.911-1.098c1.971-.542 3.3-2.409 3.213-4.417l-.588-12.564a4.365 4.365 0 0 0-3.611-4.101l-4.011-.738c-1.384-.266-2.603-1.146-3.184-2.442-.178-.453-.419-.921-.643-1.358-.628-1.295-.567-2.802.14-4.067l1.999-3.508c.999-1.785.643-4.04-.864-5.404l-9.266-8.445c-1.491-1.378-3.769-1.525-5.45-.36m-20.875 61.139c-12.311.145-22.396-9.721-22.541-22.016-.146-12.295 9.704-22.396 22.015-22.542 12.295-.145 22.397 9.722 22.542 22.016.145 12.295-9.721 22.397-22.016 22.542zM457.968 291.896c-.46-.163-.937-.356-1.413-.519-1.32-.443-2.313-1.548-2.695-2.874l-1.04-3.797c-.527-1.92-2.332-3.215-4.335-3.13l-12.2.572a4.24 4.24 0 0 0-3.981 3.489l-.719 3.924c-.259 1.365-1.148 2.537-2.41 3.103a39.43 39.43 0 0 0-1.37.627c-1.231.612-2.7.537-3.917-.136l-3.419-1.933a4.318 4.318 0 0 0-5.267.842l-8.23 9.03c-1.344 1.454-1.486 3.673-.35 5.312l2.256 3.262a4.184 4.184 0 0 1 .505 3.879c-.178.461-.371.953-.534 1.429-.413 1.32-1.518 2.297-2.86 2.68l-3.78 1.039a4.274 4.274 0 0 0-3.131 4.335l.572 12.2a4.257 4.257 0 0 0 3.52 4.011l3.862.689c1.365.26 2.553 1.117 3.103 2.411.204.441.424.898.659 1.369.611 1.232.537 2.7-.168 3.918l-1.933 3.419a4.315 4.315 0 0 0 .842 5.267l9.046 8.23c1.469 1.344 3.673 1.486 5.327.35l3.247-2.241c1.138-.779 2.604-.994 3.88-.505.476.193.937.356 1.428.518 1.336.444 2.297 1.55 2.68 2.875l1.04 3.797c.511 1.92 2.331 3.215 4.319 3.13l12.215-.572a4.243 4.243 0 0 0 3.997-3.519l.719-3.894c.259-1.35 1.117-2.537 2.38-3.087.471-.22.928-.425 1.369-.644 1.231-.642 2.731-.567 3.933.138l3.418 1.933a4.312 4.312 0 0 0 5.268-.843l8.23-9.045a4.29 4.29 0 0 0 .365-5.328l-2.272-3.277c-.778-1.123-.994-2.558-.49-3.85.179-.475.342-.936.474-1.381.443-1.336 1.549-2.297 2.89-2.68l3.812-1.07c1.92-.528 3.215-2.348 3.13-4.305l-.572-12.245a4.254 4.254 0 0 0-3.52-3.997l-3.909-.719c-1.349-.26-2.537-1.117-3.102-2.38-.174-.442-.409-.897-.628-1.323a4.275 4.275 0 0 1 .137-3.964l1.948-3.419c.974-1.74.627-3.938-.842-5.267l-9.03-8.23c-1.454-1.344-3.673-1.486-5.312-.35m-20.345 59.585c-11.998.141-21.827-9.474-21.969-21.457-.141-11.982 9.459-21.827 21.457-21.969 11.983-.141 21.827 9.474 21.969 21.457.141 11.982-9.474 21.828-21.457 21.969z"/><path fill="#9bb2e1" d="M632.49 514.621c-.015 0-.029 0-.042-.002a399.812 399.812 0 0 1-5.985-.543.5.5 0 1 1 .098-.995c1.988.195 3.977.376 5.969.542a.5.5 0 0 1-.04.998zm-11.946-1.174a.506.506 0 0 1-.057-.003c-1.99-.225-3.979-.465-5.964-.72a.5.5 0 0 1 .127-.992c1.981.254 3.965.494 5.95.719a.5.5 0 0 1-.056.996zm-11.903-1.526a.514.514 0 0 1-.072-.005 408.41 408.41 0 0 1-5.94-.895.5.5 0 0 1 .156-.988c1.973.312 3.948.61 5.926.893a.5.5 0 0 1-.07.995zm-11.853-1.875a.51.51 0 0 1-.085-.007 415.195 415.195 0 0 1-5.913-1.068.5.5 0 0 1 .186-.983c1.963.37 3.929.725 5.896 1.066a.5.5 0 0 1-.084.992zm-11.793-2.218a.5.5 0 0 1-.1-.01 412.492 412.492 0 0 1-5.878-1.238.5.5 0 1 1 .213-.977c1.952.426 3.906.838 5.864 1.235a.5.5 0 0 1-.1.99zm-11.724-2.557a.505.505 0 0 1-.113-.013 419.66 419.66 0 0 1-5.84-1.406.5.5 0 0 1 .24-.97c1.94.481 3.882.949 5.826 1.402a.5.5 0 0 1-.113.987zm-11.646-2.891a.493.493 0 0 1-.127-.017c-1.936-.51-3.869-1.034-5.797-1.57a.5.5 0 1 1 .267-.964c1.925.536 3.854 1.059 5.784 1.567a.5.5 0 0 1-.127.984zm-11.557-3.22a.491.491 0 0 1-.14-.021 421.561 421.561 0 0 1-5.752-1.735.5.5 0 1 1 .295-.955c1.908.59 3.821 1.167 5.737 1.73a.5.5 0 0 1-.14.98zm-11.463-3.546a.5.5 0 0 1-.154-.025 429.193 429.193 0 0 1-5.7-1.895.5.5 0 1 1 .322-.947c1.891.644 3.786 1.274 5.686 1.891a.5.5 0 0 1-.154.976zm-11.36-3.866a.501.501 0 0 1-.167-.03 438.128 438.128 0 0 1-5.645-2.053.5.5 0 0 1 .348-.937c1.874.696 3.75 1.379 5.632 2.049a.5.5 0 0 1-.168.971zm-11.247-4.181a.5.5 0 0 1-.18-.034 446.747 446.747 0 0 1-5.586-2.21.5.5 0 1 1 .375-.927 433.01 433.01 0 0 0 5.572 2.204.5.5 0 0 1-.18.967zm-11.125-4.492a.498.498 0 0 1-.193-.04 432.79 432.79 0 0 1-5.522-2.364.5.5 0 0 1 .4-.916c1.831.799 3.667 1.585 5.509 2.359a.5.5 0 0 1-.194.96zm-10.998-4.799a.496.496 0 0 1-.206-.044 430.29 430.29 0 0 1-5.456-2.516.5.5 0 1 1 .426-.905c1.808.849 3.622 1.686 5.442 2.51a.5.5 0 0 1-.206.955zm-10.861-5.1a.498.498 0 0 1-.219-.05c-1.8-.876-3.594-1.765-5.384-2.666a.499.499 0 1 1 .45-.893 442.28 442.28 0 0 0 5.372 2.66.5.5 0 0 1-.219.949zm-10.719-5.398a.499.499 0 0 1-.23-.057 440.538 440.538 0 0 1-5.308-2.812.5.5 0 1 1 .475-.88c1.759.947 3.524 1.882 5.296 2.806a.5.5 0 0 1-.233.943zm-10.563-5.691a.497.497 0 0 1-.243-.064 419.49 419.49 0 0 1-5.229-2.957.5.5 0 0 1 .498-.867 420.7 420.7 0 0 0 5.217 2.95.5.5 0 0 1-.243.938zm-10.405-5.98a.496.496 0 0 1-.254-.07 439.877 439.877 0 0 1-5.145-3.1.5.5 0 0 1 .522-.853 441.268 441.268 0 0 0 5.132 3.093.499.499 0 0 1-.255.93zm-10.234-6.264a.498.498 0 0 1-.266-.078 438.494 438.494 0 0 1-5.058-3.24.5.5 0 0 1 .545-.84 436.479 436.479 0 0 0 5.046 3.235.5.5 0 0 1-.267.923zm-10.06-6.545a.495.495 0 0 1-.278-.085 435.628 435.628 0 0 1-4.967-3.38.5.5 0 1 1 .569-.822 440.02 440.02 0 0 0 4.955 3.372.5.5 0 0 1-.278.915zm-9.873-6.82c-.101 0-.203-.03-.29-.092a424.774 424.774 0 0 1-4.872-3.517.5.5 0 0 1 .592-.807c1.612 1.181 3.232 2.35 4.86 3.509a.5.5 0 0 1-.29.907zm-9.681-7.091a.495.495 0 0 1-.3-.101 433.82 433.82 0 0 1-4.772-3.65.5.5 0 0 1 .613-.79 428.752 428.752 0 0 0 4.76 3.641.5.5 0 0 1-.301.9zm493.95-5.299a.5.5 0 0 1-.003-1c1.984-.012 3.997-.054 5.984-.125.245-.006.507.206.517.481a.5.5 0 0 1-.482.518 202.58 202.58 0 0 1-6.013.126h-.003zm-5.999-.054h-.012c-1.999-.049-4.02-.127-6.01-.235a.5.5 0 0 1-.472-.526.485.485 0 0 1 .526-.472c1.98.107 3.991.185 5.98.233a.5.5 0 0 1-.012 1zm17.988-.378a.5.5 0 0 1-.032-1c1.979-.13 3.985-.294 5.966-.485a.511.511 0 0 1 .546.45.5.5 0 0 1-.45.545 198.778 198.778 0 0 1-6.03.49zm-29.968-.27h-.043a202.19 202.19 0 0 1-5.985-.594.5.5 0 0 1 .114-.993c1.977.225 3.981.424 5.955.59a.5.5 0 0 1-.041.998zm41.91-.887a.5.5 0 0 1-.062-.996c1.966-.251 3.96-.537 5.925-.85a.5.5 0 0 1 .156.988c-1.974.314-3.978.601-5.954.854a.519.519 0 0 1-.064.004zM402 422.028a.5.5 0 0 1-.313-.11c-1.564-1.25-3.12-2.51-4.667-3.782a.5.5 0 1 1 .635-.773 425.669 425.669 0 0 0 4.657 3.774.5.5 0 0 1-.313.89zm473.529-.002a.514.514 0 0 1-.073-.005c-1.98-.286-3.977-.605-5.939-.95a.5.5 0 1 1 .172-.984c1.953.342 3.941.66 5.91.944a.5.5 0 0 1-.07.995zm65.68-1.414a.5.5 0 0 1-.092-.991c1.95-.372 3.921-.781 5.859-1.214a.501.501 0 0 1 .219.976c-1.949.435-3.931.846-5.89 1.22a.518.518 0 0 1-.096.01zm-77.498-.657a.488.488 0 0 1-.101-.01c-1.96-.405-3.936-.843-5.872-1.304a.5.5 0 1 1 .231-.973 200 200 0 0 0 5.842 1.297.5.5 0 0 1-.1.99zm89.207-1.962a.5.5 0 0 1-.124-.984c1.802-.463 3.626-.961 5.421-1.48l.35-.101a.5.5 0 1 1 .28.96l-.352.102a190.01 190.01 0 0 1-5.45 1.487.491.491 0 0 1-.125.016zm-100.88-.816a.508.508 0 0 1-.131-.017c-1.924-.52-3.87-1.077-5.782-1.657a.5.5 0 0 1 .29-.957c1.903.577 3.838 1.131 5.753 1.648a.5.5 0 0 1-.13.983zm112.4-2.538a.501.501 0 0 1-.154-.975c1.888-.616 3.793-1.27 5.659-1.944a.5.5 0 1 1 .34.94c-1.876.678-3.79 1.336-5.689 1.955a.503.503 0 0 1-.155.024zm-571.708-.232a.501.501 0 0 1-.323-.119 423.752 423.752 0 0 1-4.559-3.912.5.5 0 0 1 .656-.754 407.412 407.412 0 0 0 4.55 3.903.5.5 0 0 1-.324.882zm447.825-.71a.497.497 0 0 1-.16-.027 195.849 195.849 0 0 1-5.669-2.007.5.5 0 0 1 .348-.938c1.855.69 3.753 1.362 5.64 1.998a.5.5 0 0 1-.159.974zm135.17-3.131a.5.5 0 0 1-.185-.965 193.828 193.828 0 0 0 5.529-2.293.5.5 0 1 1 .397.918 196.305 196.305 0 0 1-5.556 2.304.501.501 0 0 1-.185.036zm-146.416-1.048a.496.496 0 0 1-.189-.037 193.464 193.464 0 0 1-5.535-2.356.5.5 0 0 1 .407-.914c1.81.804 3.662 1.593 5.505 2.344a.5.5 0 0 1-.188.963zm-445.63-2.99a.5.5 0 0 1-.335-.128 434.964 434.964 0 0 1-4.446-4.04.5.5 0 0 1 .678-.735 410.78 410.78 0 0 0 4.436 4.03.5.5 0 0 1-.334.872zm603.056-.73a.5.5 0 0 1-.213-.952 196.476 196.476 0 0 0 5.376-2.628.5.5 0 1 1 .453.892c-1.782.905-3.6 1.793-5.403 2.641a.5.5 0 0 1-.213.048zm-168.39-1.153a.503.503 0 0 1-.219-.05 189.016 189.016 0 0 1-5.374-2.7.5.5 0 0 1 .463-.886 184.747 184.747 0 0 0 5.347 2.686.5.5 0 0 1-.218.95zm179.088-4.278a.5.5 0 0 1-.241-.938 195.74 195.74 0 0 0 5.208-2.95.5.5 0 1 1 .506.863 199.235 199.235 0 0 1-5.234 2.964.501.501 0 0 1-.239.061zm-189.724-1.263a.497.497 0 0 1-.243-.063 216.82 216.82 0 0 1-5.198-3.002.5.5 0 1 1 .512-.859 215.66 215.66 0 0 0 5.174 2.988.5.5 0 0 1-.245.936zm-432.854-.709a.496.496 0 0 1-.344-.137 422.182 422.182 0 0 1-4.33-4.164.5.5 0 0 1 .7-.716c1.429 1.395 2.868 2.78 4.318 4.155a.5.5 0 0 1-.344.862zm632.928-4.096a.5.5 0 0 1-.266-.924c1.68-1.054 3.37-2.15 5.02-3.257a.499.499 0 1 1 .557.831 200.365 200.365 0 0 1-5.046 3.273.498.498 0 0 1-.265.077zm-210.365-1.325a.499.499 0 0 1-.267-.077 243.045 243.045 0 0 1-5.035-3.275.5.5 0 1 1 .554-.832 241.094 241.094 0 0 0 5.016 3.262.5.5 0 0 1-.268.922zm-431.152-2.959a.5.5 0 0 1-.355-.147 414.755 414.755 0 0 1-4.208-4.287.5.5 0 1 1 .72-.695 403.114 403.114 0 0 0 4.197 4.276.5.5 0 0 1-.354.853zm651.484-2.395a.5.5 0 0 1-.29-.907 200.374 200.374 0 0 0 4.817-3.551.499.499 0 1 1 .605.796 204.324 204.324 0 0 1-4.84 3.568.5.5 0 0 1-.292.094zm-230.303-1.306a.5.5 0 0 1-.287-.09 270.55 270.55 0 0 1-4.877-3.513.5.5 0 0 1 .593-.805 273.284 273.284 0 0 0 4.859 3.5.5.5 0 0 1-.288.908zm-429.523-4.922a.5.5 0 0 1-.364-.158 409.528 409.528 0 0 1-4.082-4.406.5.5 0 1 1 .738-.675 417.793 417.793 0 0 0 4.072 4.396.5.5 0 0 1-.364.843zm669.377-1.035a.499.499 0 0 1-.314-.889 198.107 198.107 0 0 0 4.596-3.832.5.5 0 0 1 .653.758 199.511 199.511 0 0 1-4.62 3.852.5.5 0 0 1-.315.111zm-249.515-1.16a.497.497 0 0 1-.304-.103 311.798 311.798 0 0 1-4.729-3.713.5.5 0 0 1 .625-.781c1.56 1.25 3.131 2.483 4.713 3.701a.5.5 0 0 1-.305.896zm258.615-6.66a.5.5 0 0 1-.337-.87 199.214 199.214 0 0 0 4.36-4.1.5.5 0 1 1 .695.718 198.415 198.415 0 0 1-4.381 4.122.499.499 0 0 1-.337.13zm-686.567-.006a.498.498 0 0 1-.374-.168 420.274 420.274 0 0 1-3.952-4.524.5.5 0 1 1 .758-.652 420.635 420.635 0 0 0 3.942 4.513.5.5 0 0 1-.374.831zm418.58-.835a.497.497 0 0 1-.319-.115 380.396 380.396 0 0 1-4.594-3.879.5.5 0 1 1 .65-.759 378.427 378.427 0 0 0 4.583 3.869.5.5 0 0 1-.32.884zm276.602-7.51a.499.499 0 0 1-.358-.849 197.393 197.393 0 0 0 4.103-4.355.5.5 0 0 1 .738.674 196.062 196.062 0 0 1-4.125 4.378.497.497 0 0 1-.358.152zm-285.717-.308a.497.497 0 0 1-.33-.125 449.677 449.677 0 0 1-4.478-4.011.5.5 0 1 1 .671-.741c1.482 1.345 2.971 2.68 4.468 4.003a.5.5 0 0 1-.33.874zm-417.289-.44a.499.499 0 0 1-.384-.179 406.332 406.332 0 0 1-3.817-4.638.5.5 0 0 1 .777-.63 404.322 404.322 0 0 0 3.808 4.627.5.5 0 0 1-.384.82zm408.395-7.63a.496.496 0 0 1-.34-.133 564.8 564.8 0 0 1-4.383-4.114.5.5 0 0 1 .688-.726 600.423 600.423 0 0 0 4.375 4.107.499.499 0 0 1-.34.867zm302.706-.478a.5.5 0 0 1-.38-.826 196.46 196.46 0 0 0 3.832-4.598.5.5 0 1 1 .777.629 195.552 195.552 0 0 1-3.85 4.62.498.498 0 0 1-.38.175zm-718.657-1.212a.502.502 0 0 1-.393-.19 431.734 431.734 0 0 1-3.678-4.75.5.5 0 1 1 .795-.607 394.944 394.944 0 0 0 3.669 4.738.5.5 0 0 1-.393.81zm407.234-6.572a.497.497 0 0 1-.347-.14 818.454 818.454 0 0 1-4.307-4.189.5.5 0 1 1 .699-.714c1.43 1.4 2.863 2.795 4.303 4.183a.5.5 0 0 1-.348.86zm318.96-1.55a.5.5 0 0 1-.398-.802 189.825 189.825 0 0 0 3.54-4.825.5.5 0 0 1 .816.58 193.854 193.854 0 0 1-3.559 4.849.5.5 0 0 1-.398.198zm-733.461-1.425a.501.501 0 0 1-.403-.204 284.393 284.393 0 0 1-3.506-4.883.5.5 0 1 1 .818-.574 282.396 282.396 0 0 0 3.494 4.865.5.5 0 0 1-.403.796zm405.92-5.425a.497.497 0 0 1-.352-.145c-1.422-1.408-2.84-2.821-4.257-4.238a.5.5 0 1 1 .707-.707 1311.39 1311.39 0 0 0 4.253 4.234.5.5 0 0 1-.351.856zm334.487-2.932a.5.5 0 0 1-.415-.777 191.66 191.66 0 0 0 3.23-5.036.499.499 0 1 1 .85.526 190.762 190.762 0 0 1-3.247 5.063.501.501 0 0 1-.418.224zm-747.293-1.47a.498.498 0 0 1-.416-.224 204.713 204.713 0 0 1-3.259-5.055.5.5 0 1 1 .848-.53 209.044 209.044 0 0 0 3.243 5.032.5.5 0 0 1-.416.776zm404.312-4.086a.497.497 0 0 1-.355-.148c-1.41-1.418-2.82-2.84-4.228-4.262a.5.5 0 0 1 .71-.703 3164.4 3164.4 0 0 0 4.227 4.26.5.5 0 0 1-.354.853zm-410.658-6.1a.5.5 0 0 1-.432-.248c-1.02-1.76-2.003-3.53-2.923-5.262a.5.5 0 1 1 .883-.469c.914 1.72 1.891 3.48 2.905 5.23a.5.5 0 0 1-.433.75zm402.206-2.426a.499.499 0 0 1-.355-.149l-4.223-4.262a.5.5 0 1 1 .71-.705l4.224 4.264a.5.5 0 0 1-.356.852zm-407.828-8.172a.5.5 0 0 1-.45-.284 133.723 133.723 0 0 1-2.486-5.485.5.5 0 1 1 .92-.392 133.333 133.333 0 0 0 2.468 5.444.5.5 0 0 1-.452.717zm399.374-.346a.5.5 0 0 1-.354-.147c-1.411-1.416-2.825-2.83-4.241-4.24a.5.5 0 1 1 .705-.709c1.418 1.411 2.832 2.826 4.245 4.243a.5.5 0 0 1-.355.853zm-8.505-8.464a.496.496 0 0 1-.351-.144 989.327 989.327 0 0 0-4.284-4.193.5.5 0 1 1 .697-.717 890.765 890.765 0 0 1 4.288 4.198.5.5 0 0 1-.35.856zm-395.562-2.228a.5.5 0 0 1-.469-.327 115.458 115.458 0 0 1-1.941-5.703.5.5 0 0 1 .955-.297c.582 1.872 1.23 3.774 1.924 5.653a.5.5 0 0 1-.469.674zm386.958-6.132a.498.498 0 0 1-.346-.139 657.722 657.722 0 0 0-4.348-4.122.499.499 0 1 1 .683-.73 614.543 614.543 0 0 1 4.357 4.13.5.5 0 0 1-.346.861zm-390.503-5.325a.5.5 0 0 1-.485-.38 97.032 97.032 0 0 1-1.263-5.896.5.5 0 0 1 .984-.18 95.76 95.76 0 0 0 1.25 5.837.5.5 0 0 1-.486.62zm381.758-2.883a.496.496 0 0 1-.338-.131 505.891 505.891 0 0 0-4.437-4.027.5.5 0 0 1 .668-.744c1.489 1.334 2.97 2.68 4.445 4.034a.5.5 0 0 1-.338.868zm-8.93-8.002a.498.498 0 0 1-.329-.123 410.289 410.289 0 0 0-4.545-3.902.5.5 0 1 1 .647-.764 414.797 414.797 0 0 1 4.554 3.912.5.5 0 0 1-.328.877zm-374.97-.914a.5.5 0 0 1-.496-.443 92.036 92.036 0 0 1-.5-6.01.5.5 0 0 1 .473-.525.49.49 0 0 1 .524.474c.1 1.97.267 3.97.498 5.946a.5.5 0 0 1-.499.558zm365.805-6.828a.498.498 0 0 1-.316-.113 352.164 352.164 0 0 0-4.671-3.751.5.5 0 0 1 .619-.785 349.855 349.855 0 0 1 4.685 3.762.5.5 0 0 1-.317.887zm-366.394-5.149h-.01a.5.5 0 0 1-.49-.51c.04-2.026.153-4.054.337-6.026a.5.5 0 0 1 .996.093 81.528 81.528 0 0 0-.333 5.953.5.5 0 0 1-.5.49zm356.978-2.284a.494.494 0 0 1-.303-.102 358.354 358.354 0 0 0-4.795-3.593.5.5 0 0 1 .593-.805 360.179 360.179 0 0 1 4.808 3.602.5.5 0 0 1-.303.898zm-9.663-7.114c-.1 0-.202-.03-.29-.092a360.342 360.342 0 0 0-4.911-3.431.5.5 0 1 1 .566-.825c1.65 1.133 3.292 2.28 4.925 3.44a.5.5 0 0 1-.29.908zm-346.192-2.539a.5.5 0 0 1-.494-.585 73.835 73.835 0 0 1 1.27-5.904.5.5 0 1 1 .969.251 72.308 72.308 0 0 0-1.253 5.823.5.5 0 0 1-.492.415zm336.299-4.25a.496.496 0 0 1-.276-.083 354.644 354.644 0 0 0-5.022-3.268.5.5 0 0 1 .539-.842 363.304 363.304 0 0 1 5.036 3.276.5.5 0 0 1-.277.917zm-10.113-6.46a.498.498 0 0 1-.262-.075c-1.7-1.048-3.409-2.081-5.125-3.101a.499.499 0 1 1 .51-.86 366.692 366.692 0 0 1 5.14 3.11.5.5 0 0 1-.263.926zm-323.167-.888a.5.5 0 0 1-.47-.668 64.976 64.976 0 0 1 2.288-5.593.5.5 0 1 1 .906.421 64.043 64.043 0 0 0-2.253 5.508.5.5 0 0 1-.47.332zm312.852-5.24a.497.497 0 0 1-.248-.066 372.557 372.557 0 0 0-5.226-2.933.5.5 0 1 1 .483-.876c1.753.966 3.5 1.947 5.239 2.941a.5.5 0 0 1-.248.934zm-307.794-5.621a.5.5 0 0 1-.43-.754 64.54 64.54 0 0 1 3.304-5.056.5.5 0 1 1 .81.586 63.987 63.987 0 0 0-3.254 4.978.499.499 0 0 1-.43.246zm297.283-.168a.499.499 0 0 1-.234-.059 375.328 375.328 0 0 0-5.317-2.763.5.5 0 1 1 .453-.891c1.786.91 3.562 1.833 5.332 2.77a.499.499 0 0 1-.234.943zm-10.692-5.45a.496.496 0 0 1-.22-.05 375.642 375.642 0 0 0-5.403-2.592.499.499 0 1 1 .425-.905c1.813.852 3.62 1.718 5.417 2.599a.5.5 0 0 1-.22.949zm-279.581-4.09a.5.5 0 0 1-.377-.829 68.442 68.442 0 0 1 4.171-4.368.5.5 0 1 1 .692.721 67.476 67.476 0 0 0-4.11 4.305.5.5 0 0 1-.376.171zm268.721-1.013a.495.495 0 0 1-.205-.045c-1.822-.82-3.65-1.626-5.483-2.418a.5.5 0 1 1 .396-.918c1.838.794 3.671 1.602 5.497 2.425a.5.5 0 0 1-.205.956zm-11.018-4.756a.496.496 0 0 1-.19-.038c-1.848-.762-3.7-1.51-5.558-2.243a.5.5 0 1 1 .367-.93c1.862.735 3.72 1.484 5.571 2.249a.5.5 0 0 1-.19.962zm-249.068-2.534a.5.5 0 0 1-.315-.888 78.943 78.943 0 0 1 4.83-3.62.5.5 0 1 1 .568.822 77.813 77.813 0 0 0-4.767 3.574.499.499 0 0 1-.316.112zm237.906-1.87a.498.498 0 0 1-.176-.032 378.179 378.179 0 0 0-5.626-2.066.5.5 0 0 1 .338-.941c1.885.675 3.765 1.366 5.64 2.071a.5.5 0 0 1-.176.969zm-11.297-4.048a.496.496 0 0 1-.161-.027 381.768 381.768 0 0 0-5.687-1.888.5.5 0 1 1 .307-.951c1.906.616 3.807 1.246 5.702 1.892a.5.5 0 0 1-.161.974zm-216.762-.916a.499.499 0 0 1-.255-.93 95.735 95.735 0 0 1 5.28-2.909.5.5 0 0 1 .455.891 95.108 95.108 0 0 0-5.225 2.878.497.497 0 0 1-.255.07zm205.345-2.774a.504.504 0 0 1-.147-.022 382.561 382.561 0 0 0-5.744-1.707.5.5 0 0 1 .277-.961 381.79 381.79 0 0 1 5.76 1.712.5.5 0 0 1-.146.978zm-194.672-2.691a.5.5 0 0 1-.201-.958c1.8-.793 3.674-1.562 5.574-2.284a.5.5 0 0 1 .355.935 117.292 117.292 0 0 0-5.527 2.264.494.494 0 0 1-.201.043zm183.141-.636a.508.508 0 0 1-.13-.018 379.948 379.948 0 0 0-5.795-1.525.5.5 0 0 1 .246-.969c1.941.494 3.879 1.004 5.81 1.529a.5.5 0 0 1-.13.983zm-11.626-2.962a.504.504 0 0 1-.117-.014c-1.943-.462-3.89-.909-5.84-1.34a.5.5 0 1 1 .216-.977c1.955.433 3.908.881 5.856 1.345a.5.5 0 0 1-.115.986zm-160.31-.676a.5.5 0 0 1-.156-.976c1.863-.61 3.8-1.2 5.76-1.753a.5.5 0 1 1 .27.962c-1.944.549-3.87 1.135-5.718 1.742a.505.505 0 0 1-.156.025zm148.593-1.916a.51.51 0 0 1-.1-.01 374.85 374.85 0 0 0-5.88-1.155.5.5 0 0 1 .185-.983c1.968.37 3.933.757 5.895 1.158a.5.5 0 0 1-.1.99zm-137.048-1.35a.501.501 0 0 1-.117-.986c1.91-.461 3.886-.901 5.874-1.308a.5.5 0 0 1 .201.98c-1.976.404-3.942.842-5.841 1.3a.499.499 0 0 1-.117.014zm125.257-.869a.494.494 0 0 1-.086-.007c-1.969-.338-3.94-.66-5.914-.967a.5.5 0 0 1 .154-.988c1.978.307 3.955.63 5.93.97a.5.5 0 0 1-.084.992zm-113.501-1.546a.5.5 0 0 1-.084-.993c1.938-.334 3.938-.648 5.944-.934a.5.5 0 1 1 .14.99c-1.995.285-3.986.598-5.914.93a.51.51 0 0 1-.086.007zm101.643-.296a.464.464 0 0 1-.07-.004 371.467 371.467 0 0 0-5.94-.777.5.5 0 1 1 .12-.993c1.989.244 3.975.504 5.959.78a.5.5 0 0 1-.069.994zm-89.759-1.402a.5.5 0 0 1-.056-.997c1.426-.164 2.847-.315 4.263-.453l1.716-.163a.5.5 0 1 1 .092.996l-1.71.162c-1.41.138-2.826.288-4.246.451a.472.472 0 0 1-.059.004zm77.851-.058a.55.55 0 0 1-.054-.003 369.933 369.933 0 0 0-5.964-.586.5.5 0 0 1 .09-.996c1.995.18 3.988.376 5.98.588a.5.5 0 0 1-.052.997zm-65.903-1.06a.5.5 0 0 1-.037-.998c1.997-.15 3.995-.284 5.995-.401a.5.5 0 0 1 .058.998 353.837 353.837 0 0 0-6.016.401zm53.95-.017a366.549 366.549 0 0 1 .037-.999.5.5 0 0 1-.036 1zm-41.97-.683a.501.501 0 0 1-.021-1c2-.083 4.002-.15 6.005-.2.325-.013.505.212.512.488a.5.5 0 0 1-.487.512c-1.997.05-3.994.116-5.99.2h-.02zm29.991-.004h-.02a365.734 365.734 0 0 0-5.99-.198.5.5 0 1 1 .026-1c2.001.05 4.003.116 6.005.198a.5.5 0 0 1-.02 1zm-17.996-.296a.5.5 0 0 1-.004-1c2.002-.016 4.006-.017 6.008 0a.5.5 0 0 1 .496.504c-.002.276-.222.454-.504.496a365.858 365.858 0 0 0-5.992 0h-.004z"/><path fill="#ffc837" d="M709.852 435.912c-21.444 20.356-36.944 45.684-45.899 73.325a192.134 192.134 0 0 0-2.234 7.42H537.388a193.44 193.44 0 0 0-2.312-7.42c-9.42-28.087-25.64-53.785-47.277-74.976-29.68-29.038-48.113-69.557-48.113-114.386 0-91.273 76.433-164.695 168.773-159.761 82.163 4.39 148.165 71.615 151.137 153.856 1.729 48.035-17.734 91.544-49.744 121.942z"/><circle cx="599.694" cy="320.395" r="135.488" fill="#fff" opacity=".1"/><circle cx="599.694" cy="320.395" r="104.634" fill="#fff" opacity=".1"/><path d="M663.953 509.237a192.134 192.134 0 0 0-2.234 7.42H537.388a193.44 193.44 0 0 0-2.312-7.42h128.877z" opacity=".1"/><path fill="#719bff" d="M671.47 519.026v55.397a4.647 4.647 0 0 1-4.642 4.662H532.55a4.647 4.647 0 0 1-4.642-4.662v-55.397a4.642 4.642 0 0 1 4.642-4.642h134.277a4.642 4.642 0 0 1 4.642 4.642z"/><path d="M671.47 531.01v13.305H530.473a6.244 6.244 0 0 1-2.564-.525v-12.256a6.31 6.31 0 0 1 2.564-.525H671.47zM671.47 552.997v13.325H530.473a6.244 6.244 0 0 1-2.564-.524v-12.276a6.65 6.65 0 0 1 2.564-.525H671.47z" opacity=".15"/><path fill="#5388f2" d="M676.79 534.54c0 1.84-.749 3.5-1.943 4.714a6.704 6.704 0 0 1-4.714 1.942H529.246a6.649 6.649 0 0 1-6.657-6.656c0-1.821.75-3.5 1.943-4.694a6.636 6.636 0 0 1 4.714-1.963h140.887c3.682 0 6.657 2.994 6.657 6.657zM676.79 556.538c0 1.84-.749 3.5-1.943 4.714a6.703 6.703 0 0 1-4.714 1.942H529.246a6.649 6.649 0 0 1-6.657-6.656c0-1.822.75-3.5 1.943-4.695a6.636 6.636 0 0 1 4.714-1.962h140.887c3.682 0 6.657 2.994 6.657 6.657z"/><path fill="#fcc922" d="M603.455 114.572v24.746a5.014 5.014 0 0 1-5.012 5.012 5.015 5.015 0 0 1-5.013-5.012v-24.746a4.996 4.996 0 0 1 5.013-5.012 4.996 4.996 0 0 1 5.012 5.012zM530.65 141.94l3.775 9.116a5.014 5.014 0 0 1-2.713 6.55 5.014 5.014 0 0 1-6.55-2.714l-3.775-9.115a4.996 4.996 0 0 1 2.713-6.55 4.996 4.996 0 0 1 6.55 2.714zM425.515 241.653l9.115 3.776a5.014 5.014 0 0 1-3.837 9.262l-9.115-3.775a4.996 4.996 0 0 1-2.713-6.55 4.996 4.996 0 0 1 6.55-2.713zM775.211 250.91l-9.115 3.775a5.014 5.014 0 0 1-3.837-9.262l9.116-3.776c2.57-1.064 5.485.143 6.55 2.713s-.144 5.485-2.714 6.55zM675.499 145.774l-3.776 9.116a5.014 5.014 0 0 1-6.55 2.712 5.014 5.014 0 0 1-2.712-6.549l3.775-9.115a4.996 4.996 0 0 1 6.55-2.713 4.996 4.996 0 0 1 2.713 6.55zM457.644 170.82l17.498 17.497a5.015 5.015 0 0 1 0 7.09 5.015 5.015 0 0 1-7.09 0l-17.497-17.498a4.996 4.996 0 0 1 0-7.09 4.996 4.996 0 0 1 7.09 0zM746.332 177.904 728.835 195.4a5.014 5.014 0 0 1-7.09 0 5.014 5.014 0 0 1 0-7.089l17.498-17.497a4.996 4.996 0 0 1 7.09 0 4.996 4.996 0 0 1 0 7.089z"/><path fill="#f9b723" d="M521.12 283.748c2 0 3.75.745 5.322 1.75 16.238-12.116 31.91-16.127 46.605-11.73 11.138 3.35 21.518 12.544 28.658 21.435V236.73c0-12.82-9.552-23.737-22.234-25.405a2.405 2.405 0 0 1-.951-.345c-4.632-2.922-10.008-4.466-15.536-4.466-14.515 0-27.017 10.807-29.071 25.157a30.002 30.002 0 0 0-.303 4.204c0 .758.04 1.517.11 2.26.041.635.165 1.2.248 1.807 3.046 1.985 7.402 5.43 10.573 10.145 5.403.124 9.745 4.508 9.745 9.939 0 5.514-4.466 9.98-9.98 9.98s-9.98-4.466-9.98-9.98c0-3.64 2.04-6.686 4.949-8.423-2.357-2.99-5.21-5.348-7.485-6.906-.097 0-.18.11-.29.097-1.323-.276-2.687-.427-4.094-.496-2.247-.138-4.562.027-6.713.413-13.991 2.523-24.137 14.68-24.137 28.907 0 3.308.566 6.575 1.655 9.704.206.634.44 1.227.675 1.792a2.345 2.345 0 0 1-1.047 2.991c-.524.276-1.048.565-1.558.869-9.167 5.265-14.405 13.178-14.405 21.724 0 6.906 3.474 13.495 9.773 18.568.055.055.11.097.166.152 2.384 1.902 5.183 3.46 8.174 4.783 1.047-4.384 4.824-7.72 9.525-7.72 5.514 0 9.994 4.467 9.994 9.98 0 5.514-4.48 9.994-9.994 9.994-3.86 0-7.113-2.26-8.767-5.472-2.302 2.426-4.356 5.073-5.9 8.05-.028.055-.055.11-.082.152-2.675 5.141-4.095 10.972-4.095 16.858 0 18.43 13.757 34.076 31.994 36.392.331.055.58.082.828.096 1.295.138 2.591.22 3.887.22.276 0 .606.152.923.249 16.5-3.46 28.879-11.62 34.655-22.8-2.881-1.75-4.907-4.783-4.907-8.395 0-5.514 4.466-9.994 9.98-9.994s9.98 4.48 9.98 9.994a9.977 9.977 0 0 1-9.98 9.98c-.028 0-.056-.013-.083-.013-6.093 12.502-19.12 21.697-36.543 25.832.538 1.227 1.103 2.398 1.75 3.515 5.542 9.635 14.957 16.183 25.86 17.961a36 36 0 0 0 5.983.497c20.25 0 36.708-16.473 36.708-36.709V303.97c-6.078-9.153-17.534-21.476-30.146-25.267-12.903-3.86-26.894-.234-41.603 10.614.676 1.337 1.145 2.812 1.145 4.425a9.977 9.977 0 0 1-9.98 9.98c-5.514 0-9.994-4.466-9.994-9.98s4.48-9.994 9.994-9.994zm44.856-56.558c2.853 0 5.155 2.288 5.224 5.128 10.214 5.9 14.102 15.08 11.565 27.404 1.062.965 1.737 2.315 1.737 3.846a5.236 5.236 0 0 1-5.238 5.238 5.245 5.245 0 0 1-5.238-5.238c0-2.854 2.302-5.156 5.128-5.211 1.971-10.214-1.075-17.451-9.346-22.414-.951 1.048-2.302 1.723-3.832 1.723a5.245 5.245 0 0 1-5.238-5.238 5.245 5.245 0 0 1 5.238-5.238zM542.583 346.4c-1.392-11.704 3.64-20.32 15.04-25.668.137-1.42.813-2.77 2.04-3.694a5.24 5.24 0 0 1 7.333 1.075c1.723 2.316 1.254 5.597-1.062 7.32-2.288 1.723-5.5 1.254-7.25-.979-9.36 4.521-13.344 11.304-12.365 20.884 1.406.152 2.757.827 3.667 2.054 1.723 2.302 1.254 5.596-1.048 7.32a5.234 5.234 0 0 1-7.333-1.062c-1.723-2.288-1.255-5.5.978-7.25zm156-19.92c4.715 0 8.478 3.336 9.526 7.72 3.005-1.323 5.79-2.881 8.188-4.783.041-.055.096-.097.152-.152 6.313-5.073 9.773-11.662 9.773-18.568 0-8.546-5.238-16.459-14.391-21.724a43.909 43.909 0 0 0-1.558-.869 2.338 2.338 0 0 1-1.061-2.991c.248-.565.468-1.158.689-1.792a29.476 29.476 0 0 0 1.654-9.704c0-14.226-10.16-26.384-24.15-28.907a28.574 28.574 0 0 0-6.714-.413c-1.392.069-2.757.22-4.094.496-.096.014-.179-.097-.29-.097-2.274 1.558-5.127 3.915-7.47 6.906 2.908 1.737 4.948 4.784 4.948 8.423 0 5.514-4.466 9.98-9.994 9.98a9.977 9.977 0 0 1-9.98-9.98c0-5.431 4.356-9.815 9.76-9.939 3.157-4.714 7.526-8.16 10.559-10.145.083-.607.22-1.172.262-1.806.055-.744.11-1.503.11-2.26 0-1.434-.11-2.84-.317-4.205-2.054-14.35-14.557-25.157-29.058-25.157a29.154 29.154 0 0 0-15.55 4.466c-.289.18-.606.303-.95.345-12.668 1.668-22.235 12.585-22.235 25.405v58.474c7.155-8.89 17.534-18.085 28.672-21.435 14.68-4.397 30.354-.386 46.606 11.73 1.558-1.005 3.322-1.75 5.321-1.75 5.514 0 9.98 4.48 9.98 9.994 0 5.514-4.466 9.98-9.98 9.98s-9.98-4.466-9.98-9.98c0-1.613.468-3.088 1.144-4.425-14.722-10.848-28.713-14.474-41.616-10.614-12.613 3.79-24.068 16.114-30.147 25.267v88.897c0 20.236 16.473 36.709 36.709 36.709 2.012 0 4.025-.166 5.996-.497 10.904-1.778 20.319-8.326 25.86-17.961a37.943 37.943 0 0 0 1.737-3.515c-17.41-4.135-30.45-13.33-36.53-25.832-.027 0-.055.013-.096.013a9.977 9.977 0 0 1-9.98-9.98c0-5.514 4.466-9.994 9.98-9.994s9.994 4.48 9.994 9.994c0 3.612-2.026 6.644-4.907 8.395 5.775 11.18 18.154 19.34 34.654 22.8.317-.097.634-.248.924-.248 1.295 0 2.577-.083 3.873-.22.262-.015.51-.042.827-.097 18.251-2.316 32.008-17.962 32.008-36.392a36.69 36.69 0 0 0-4.108-16.858c-.014-.042-.041-.097-.069-.152-1.557-2.977-3.597-5.624-5.9-8.05-1.667 3.212-4.92 5.472-8.78 5.472-5.514 0-9.98-4.48-9.98-9.993a9.977 9.977 0 0 1 9.98-9.98zm-56.461-88.814c-1.53 0-2.867-.675-3.832-1.723-8.257 4.963-11.317 12.2-9.346 22.414 2.84.055 5.141 2.357 5.141 5.21a5.245 5.245 0 0 1-5.237 5.239 5.239 5.239 0 0 1-5.252-5.238c0-1.53.689-2.881 1.736-3.846-2.536-12.324 1.365-21.504 11.58-27.404.055-2.84 2.356-5.128 5.21-5.128 2.895 0 5.252 2.343 5.252 5.238 0 2.895-2.357 5.238-5.252 5.238zm24.385 115.984a5.236 5.236 0 0 1-7.333 1.061c-2.316-1.723-2.785-5.017-1.062-7.32.924-1.226 2.26-1.901 3.68-2.053.966-9.58-3.005-16.363-12.364-20.884-1.75 2.233-4.963 2.702-7.265.979-2.302-1.723-2.77-5.004-1.047-7.32 1.737-2.33 5.017-2.798 7.32-1.075 1.24.924 1.902 2.274 2.04 3.694 11.4 5.349 16.43 13.964 15.038 25.667 2.248 1.75 2.702 4.963.993 7.251z"/><path fill="#253066" d="M111.391 771.837a1 1 0 0 1-.908-1.418L218.91 534.951a1 1 0 0 1 1.816.836L112.3 771.255a1 1 0 0 1-.909.582zM214.647 771.837a1 1 0 0 1-.908-1.418l108.426-235.468a1 1 0 1 1 1.817.836L215.556 771.255a1 1 0 0 1-.91.582z"/><path fill="#253066" d="M304.722 576.222H201.466a1 1 0 0 1 0-2h103.256a1 1 0 1 1 0 2zM287.504 613.615H184.248a1 1 0 0 1 0-2h103.256a1 1 0 1 1 0 2zM270.285 651.008H167.03a1 1 0 0 1 0-2h103.255a1 1 0 1 1 0 2zM253.068 688.4H149.81a1 1 0 0 1 0-2h103.257a1 1 0 1 1 0 2zM235.849 725.794H132.593a1 1 0 0 1 0-2H235.85a1 1 0 1 1 0 2zM340.593 538.54H209.772a4 4 0 0 1 0-8h130.821a4 4 0 0 1 0 8z"/><path fill="#253066" d="M333.073 769.628a1 1 0 0 1-1-1V534.54a1 1 0 1 1 2 0v234.088a1 1 0 0 1-1 1zM233.831 769.628a1 1 0 0 1-1-1V534.54a1 1 0 1 1 2 0v234.088a1 1 0 0 1-1 1z"/><path d="M269.341 598.136a.481.481 0 0 0 .475.522h3.614c.243 0 .44-.186.463-.417l.44-3.567h1.888l.347.787.255.579 1.031 2.328c.07.174.243.29.429.29h18.74a.47.47 0 0 0 .474-.475V595.6c0-.926-.266-1.818-.776-2.583a2.63 2.63 0 0 0-.44-.579c-.37-.44-.822-.799-1.355-1.077l-8.27-4.32s-.845-3.15-1.054-3.359c-.208-.208-14.963 0-14.963 0l-.626 6.915-.046.579-.626 6.96z"/><path fill="#fff" d="M269.967 591.176h9.207v-.58h-9.16zM276.568 595.46l.255.58h13.088c.15 0 .29-.127.29-.29v-2.733h6.52a2.63 2.63 0 0 0-.44-.579h-6.37a.287.287 0 0 0-.29.29v2.733h-13.053z"/><path fill="#1258ff" d="m323.34 490.864-14.626-.996s-19.987-11.103-20.777-10.807c-.79.296-7.404 18.263-7.108 18.559.296.296 16.684 17.967 16.684 17.967l-30.71 70.079c0 2.579 21.63 2.037 21.63-.542l48.956-65.19c8.156-11.861.312-28.092-14.05-29.07z"/><path fill="#fff" d="M296.288 568.354c-.045-.065.22-.297.67-.819.459-.516 1.037-1.368 1.8-2.57l4.06-5.97c1.644-2.314 2.541-3.402 2.663-3.32.122.083-.564 1.316-2.107 3.698l-4.059 5.97c-.81 1.161-1.507 2.018-2.076 2.477-.561.468-.914.591-.95.534z"/><path d="M333.729 598.136a.481.481 0 0 0 .475.522h3.613c.243 0 .44-.186.464-.417l.44-3.567h1.887l.348.787.255.579 1.03 2.328c.07.174.244.29.429.29h18.74a.47.47 0 0 0 .474-.475V595.6c0-.926-.266-1.818-.776-2.583a2.631 2.631 0 0 0-.44-.579c-.37-.44-.822-.799-1.355-1.077l-8.27-4.32s-.845-3.15-1.053-3.359c-.209-.208-14.964 0-14.964 0l-.625 6.915-.047.579-.625 6.96z"/><path fill="#fff" d="M334.354 591.176h9.208v-.58H334.4zM340.956 595.46l.255.58h13.087c.15 0 .29-.127.29-.29v-2.733h6.52a2.631 2.631 0 0 0-.44-.579h-6.37a.287.287 0 0 0-.29.29v2.733h-13.052z"/><path fill="#1258ff" d="m294.148 530.607 38.73 54.637 20.076-.362s-15.878-56.61-25.938-76.333a22.87 22.87 0 0 0-14.21-11.63l-32.372-6.407-31.349 1.393c-.38.983-3.936 33.371 10.19 38.284.89.309 1.836.418 2.777.418h32.096z"/><path fill="#fff" d="M350.093 576.964c.022.142-1.42.506-4.37 1.041l-7.522 1.212c-2.966.417-4.45.525-4.474.38s1.42-.506 4.367-1.044l7.521-1.212c2.97-.414 4.454-.525 4.478-.377zM305.76 495.522c.013-.07.902.035 2.674.327l3.32.578c.333.06.679.123 1.039.19.402.099.738.21 1.131.323.761.244 1.563.548 2.402.916a23.184 23.184 0 0 1 10.232 9.185c.813 1.334 1.386 2.748 2.05 4.129 1.498 3.286 2.595 5.752 3.3 7.403.705 1.651 1.02 2.488.952 2.518-.068.03-.507-.752-1.317-2.353-.81-1.6-1.99-4.02-3.538-7.27-.66-1.373-1.242-2.803-2.024-4.082a22.514 22.514 0 0 0-9.936-8.918 26.417 26.417 0 0 0-2.316-.939l-1.05-.334-1.032-.221-3.29-.732c-1.75-.405-2.612-.646-2.597-.72zM304.974 547.03c-.12.08-1.355-1.558-3.685-4.983l-5.793-8.785-.857-1.351-.376-.602-.176-.282-.073-.12-.013-.028-1.267-.056-1.008-.066c-.537-.046-.805-.096-.805-.15s.268-.103.805-.149l1.008-.065.656-.029.903-.027 1.764 2.555 5.794 8.785c2.227 3.492 3.249 5.27 3.123 5.354zM255.56 517.36c-.024-.081.517-.265 1.517-.774a12.625 12.625 0 0 0 3.916-3.103 11.4 11.4 0 0 0 2.523-5.007c.427-1.85.466-3.784.275-5.688-.207-2.253-.568-3.929-.754-5.051-.2-1.122-.267-1.69-.195-1.707.071-.016.272.518.585 1.618.3 1.101.758 2.767 1.033 5.074.196 1.957.159 3.962-.289 5.905a12.078 12.078 0 0 1-2.67 5.296c-1.58 1.764-3.19 2.602-4.258 3.027-1.085.42-1.667.47-1.682.41zM293.932 577.69c-.01.142-1.818.142-5.458-.06l-9.239-.667c-3.628-.321-5.416-.58-5.406-.727.011-.147 1.818-.143 5.454.056l9.24.666c3.63.326 5.42.58 5.409.731zM346.055 575.228c-.067.026-.531-.978-1.39-3.022-.887-2.033-2.177-5.104-4.041-9.154-3.096-6.885-6.492-13.66-9.263-20.719-1.622-4.165-2.594-7.365-3.23-9.492-.595-2.141-.852-3.216-.781-3.237.07-.02.459 1.015 1.162 3.116.746 2.087 1.803 5.243 3.474 9.366 2.757 7.025 6.147 13.787 9.251 20.69a166.596 166.596 0 0 1 3.8 9.281c.753 2.092 1.089 3.145 1.018 3.171z"/><path fill="#ffc6b2" d="M299.816 441.589s20.848 12.815 28.348 11.478c14.12-2.522 43.957-35.544 43.957-35.544s10.576-1.489 9.065-6.717c-2.25-7.794-7.728-6.467-8.141-6.359.544-.533 10.261-9.924 9.435-12.435-.848-2.597-13.794 11.598-13.794 11.598s.13-5.054-1.956-6.467c-2.065-1.435-2.392 9.837-2.392 9.837l-34.554 20.902c-6.5-3.587-23.033-11.359-23.033-11.359l-.707-.326-6.228 25.392z"/><path fill="#ff784b" d="M324.344 424.081c-7.543-4.735-17.552-8.834-17.552-8.834l-.7-.323-6.485 28.122s13.447 8.165 22.658 10.137c2.841.367 6.14-26.507 2.08-29.102z"/><path fill="#ff784b" d="M250.105 490.243c.908-26.949 2.972-67.39 7.428-70.385 15.953-10.719 43.5-7.907 49.096-4.697 8.133 4.663 4.823 54.21 4.03 74.867 0 3.831-60.554 4.046-60.554.215z"/><path fill="#ffc6b2" d="m241.94 453.204-.115-.04c-1.217 3.736-2.118 7.14-2.57 9.715-2.224 12.698 2.034 58.824 2.034 58.824l13.638 1.566 4.2-51.944s2.117-4.665 4.499-10.471a3.714 3.714 0 0 1-.709-.157c-7.063-2.317-14.144-4.604-20.977-7.493z"/><path fill="#ff784b" d="M263.994 462.1c2.45-6.301 3.892-21.651 3.927-24.705.14-12.076-7.434-19.319-10.387-17.537-6.348 4.543-16.741 20.897-20.411 33.484-.535 2.166 26.337 10.923 26.871 8.758z"/><path fill="#ffc6b2" d="M258.596 533.729c-1.607 1.824-5.25-3.464-5.25-3.464s-23.178 2.964-25.297-1.762c-3.535-7.887 13.92-6.741 13.92-6.741l12.958 1.507c-.036.28 5.265 8.626 3.669 10.46z"/><path fill="#fff" d="M313.605 451.088c-.173-.02.097-2.202.147-6.613a61.288 61.288 0 0 0-.793-11.164c-.672-4.355-1.246-6.476-1.075-6.522.07-.02.28.492.61 1.549.313 1.061.74 2.672 1.13 4.865.61 3.727.878 7.51.8 11.286a44.335 44.335 0 0 1-.432 4.98c-.178 1.093-.313 1.629-.387 1.619z"/><path fill="#ffc6b2" d="M290.587 406.394c-1.151 1.329-.612 4.025-.582 6.502.79 3.326-10.805 4.6-12.457.498.91-3.661.74-8.599-.22-12.405-.958-3.805 13.26 5.405 13.26 5.405z"/><path fill="#ffc6b2" d="M277.33 400.986h-.01c-.045-.064-.082-.118-.128-.164.055.055.101.11.138.164z"/><path fill="#fff" d="M275.356 413.287s7.268 7.04 7.399 7.04c.022-.076 3.068-4.652 3.068-4.652l-7.82-4.94c-.01.088-2.647 2.552-2.647 2.552zM285.775 415.808s3.386 3.002 3.41 3.075c.14.45 3.65-6.53 3.65-6.53l-2.906-1.203-4.106 4.525"/><path fill="#ffc6b2" d="M291.155 407.062c-5.433 2.816-11.081-2.798-13.274-5.402-.22-.255-.413-.492-.551-.674a1.083 1.083 0 0 0-.138-.164c-.009-.009-.018-.027-.037-.045-.137-.182-.21-.292-.21-.292-.01-.018-.065-.045-.147-.081-.796-.345-4.492-1.728-3.3-5.304.668-2.067 4.622.01 4.622.01s1.98-7.717 5.44-8.023c3.452-.315 9.234 4.358 9.234 4.358s.139.502.27 1.305c.093.53.205 1.196.309 1.945.582 4.072.973 10.701-2.218 12.367z"/><path d="M297.052 387.09c.496.765 4.924 2.648 2.847 6.392-.435.787-1.576 1.176-3.11 1.291-1.004.077-2.164.036-3.416-.078a52.305 52.305 0 0 0-.31-1.945c-.13-.803-.27-1.305-.27-1.305s-5.78-4.673-9.232-4.358c-3.461.306-5.44 8.023-5.44 8.023s-3.955-2.077-4.623-.01c-1.192 3.576 2.504 4.96 3.3 5.304.137.136.257.254.357.373.019.018.028.036.037.045.055.055.101.11.138.164h-.01c-8.271-1.393-11.996-17.629-6.755-22.718 4.405-4.265 11.708-.538 15.482-.215 3.774.323 8.535-6.125 11.992-5.043 3.475 1.092-.211 6.779.496 7.909.708 1.13 1.81.33 2.806 2.748.987 2.416-4.776 2.658-4.29 3.423z"/><path d="M278.12 395.11s1.465-2.84 3.695-4.189c.162-.097 11.042 2.869 11.92.148.88-2.72-.591-6.693-.591-6.693s-4.957-2.051-5.572-2.146c-.615-.095-8.237 2.878-8.851 3.075s-2.834 3.31-2.834 3.31l2.062 6.41M283.895 406.236c.045-.072.535.23 1.598.634a9.04 9.04 0 0 0 2.805.633c1.132.092 1.704.029 1.714.115.01.059-.555.253-1.736.22a9.367 9.367 0 0 1-2.908-.656c-1.081-.478-1.509-.897-1.473-.946z"/><path fill="#fff" d="M269.597 447.597c.127.011.154 1.68-.345 5.004a69.698 69.698 0 0 1-1.967 8.296c-.126.395-.262.81-.517 1.158a1.943 1.943 0 0 1-.95.689c-.676.228-1.262.126-1.674.019-.83-.25-1.17-.49-1.153-.55.024-.081.44.036 1.23.156.746.114 2.166.047 2.42-1.667a69.03 69.03 0 0 0 1.948-8.216c.615-3.268.843-4.906 1.008-4.889z"/><path d="M977.722 749.638h36.357v6.046h-36.357zM997.335 734.084l-19.612 15.554h36.356v-15.554z"/><path fill="#fff" d="M995.748 749.89h-18.03a.25.25 0 0 1 0-.5h18.03a.25.25 0 0 1 0 .5zM1006.439 754.06c0 .594.058 1.116.188 1.623h.725c0-.029 0-.058-.014-.087a6.473 6.473 0 0 1-.174-1.537c0-1.536.507-3.03 1.435-4.204.058-.073.116-.145.188-.217a6.89 6.89 0 0 1 5.292-2.494v-.725c-2.363 0-4.639 1.116-6.06 3-.058.074-.102.146-.16.219-.913 1.246-1.42 2.812-1.42 4.421z"/><path d="M1027.777 749.638h36.357v6.046h-36.357zM1047.39 734.084l-19.613 15.554h36.357v-15.554z"/><path fill="#fff" d="M1045.803 749.89h-18.031a.25.25 0 0 1 0-.5h18.031a.25.25 0 0 1 0 .5zM1056.493 754.06c0 .594.058 1.116.189 1.623h.725c0-.029 0-.058-.015-.087a6.476 6.476 0 0 1-.174-1.537c0-1.536.507-3.03 1.436-4.204.058-.073.116-.145.188-.217a6.89 6.89 0 0 1 5.292-2.494v-.725c-2.363 0-4.64 1.116-6.06 3-.058.074-.102.146-.16.219-.913 1.246-1.42 2.812-1.42 4.421z"/><path fill="#3cd278" d="M1003.922 540.34c-6.55 9.848-7.718 24.818-9.164 39.523l-26.817 9.01 1.493 11.82 46.278 2.633.5-36.228-12.29-26.758z"/><path fill="#1258ff" d="m1014.01 632.523 26.95 104.1c0 1.38 26.457 1.38 26.457 0l-18.335-129.9-35.072 25.8z"/><path fill="#1258ff" d="m1005.32 616.033-14.276 120.59c0 1.38 25.675 1.38 25.675 0l41.292-120.59h-52.69z"/><path fill="#fff" d="M1034.14 645.516c-.055.04-.421-.365-1.068-1.255a21.932 21.932 0 0 1-2.285-4.403 26.087 26.087 0 0 1-1.566-11.075c.194-2.211.641-3.817.973-4.86.375-1.035.615-1.525.681-1.502.21.061-.674 2.095-.983 6.411-.28 3.65.245 7.363 1.526 10.792 1.496 4.066 2.91 5.773 2.722 5.892z"/><path fill="#3cd278" d="M1003.318 616.402c.014 2.3 57.195 1.937 57.18-.364 0 0 1.46-74.08-4.201-78.338-2.276-1.707-8.545-3.198-16.04-3.943-.05-.01-.108-.01-.158-.02-6.298-.618-13.45-.706-19.797.049-.363.04-.716.088-1.07.137-6.926.942-12.763 2.934-15.314 6.416-2.806 3.836-.6 76.063-.6 76.063z"/><path fill="#fff" d="M1005.049 598.876c-.07.01-.284-1.04-.62-3.165-.32-2.128-.755-5.334-1.153-9.645a235.564 235.564 0 0 1-.852-21.977c.063-4.325.248-7.553.403-9.698.171-2.145.304-3.207.376-3.203.074.005.08 1.076.024 3.222-.039 2.147-.13 5.371-.13 9.684-.058 7.313.225 14.628.85 21.915.335 4.304.675 7.513.879 9.652.221 2.136.299 3.205.223 3.215zM1048.234 567.603c-.039.046-.56-.286-1.448-1.147-.87-.867-2.123-2.283-3.278-4.503a19.92 19.92 0 0 1-1.914-6.024c-.3-2.097-.254-4.238.118-6.32.475-2.455 1.27-4.167 1.858-5.246.606-1.077 1.011-1.544 1.064-1.51.072.044-.215.582-.704 1.687-.473 1.108-1.157 2.805-1.556 5.188a18.884 18.884 0 0 0 1.734 11.923c1.063 2.173 2.203 3.605 2.972 4.533.785.92 1.212 1.355 1.154 1.42zM1020.302 533.786s-1.115 15.592 2.972 16.874c5.693 1.786 16.825-16.923 16.825-16.923-6.298-.618-13.45-.706-19.797.049z"/><path fill="#ffc6b2" d="M1024.877 529.592s-10.376 2.058-12.71-1.08-.484-25.47-.484-25.47h27.434l-1.848 30.454s-8.85 12.072-12.654 10.378c-2.022-.9.262-14.282.262-14.282z"/><path fill="#3cd278" d="M1045.136 552.994c.922 7.21 21.71 20.112 21.71 20.112l20.363-4.845c-1.334-13.46-31.301-30.464-31.301-30.464s-11.37 10.576-10.772 15.197z"/><path fill="#1258ff" d="m932.37 562.178 39.154 43.186c.294.333.716.52 1.167.52h40.047c1.354 0 2.08-1.6 1.187-2.62l-37.78-43.176a1.557 1.557 0 0 0-1.188-.54h-41.42c-1.373 0-2.09 1.62-1.167 2.63z"/><path d="M1037.428 525.945s-2.27-2.03-2.21-4.42 2.625-5.732-.001-6.807c-2.626-1.075-4.064 2.747-4.064 2.747s-4.176-3.344-3.758-4.777c.418-1.433-17.258 4.3-19.885-1.254-2.628-5.554 2.687-8.002 2.687-8.002s-9.137-8.54-1.553-10.152c7.584-1.613 10.51 4.24 18.453 2.926 7.942-1.314 16.243-4.957 20.064 5.554s-9.733 24.185-9.733 24.185z"/><path fill="#ff5252" d="m1085.408 519.962-25.767-8.932-45.631 130.637 25.767 8.932z"/><path fill="#ffc6b2" d="m1039.779 650.6-25.768-8.933 4.705 28.054z"/><path d="m1023.702 665.194-4.986 4.527-1.114-6.642z"/><path d="m1018.716 669.72-4.705-28.053 5.586 1.936-.88 26.117z" opacity=".05"/><path fill="#fff" d="m1018.72 669.717 15.473-21.054 5.586 1.936z" opacity=".1"/><path fill="#ffc6b2" d="M1018.717 669.721v-.001l.003-.003z"/><path d="m1014.011 641.667 5.586 1.937 45.63-130.637-5.586-1.936z" opacity=".05"/><path fill="#fff" d="m1039.779 650.6 45.63-130.637-5.586-1.936-45.63 130.636z" opacity=".1"/><path d="m1059.642 511.025 25.763 8.938.902-2.6 3.022-8.721a5.014 5.014 0 0 0-3.1-6.387l-16.276-5.641a5.007 5.007 0 0 0-6.387 3.1l-3.021 8.712-.903 2.6z"/><path fill="#dae3f7" d="m1060.545 508.426 5.582 1.932 14.598 5.072 5.582 1.933 3.022-8.721a5.014 5.014 0 0 0-3.1-6.387l-.834-.294-14.598-5.053-.844-.294a5.007 5.007 0 0 0-6.387 3.1l-3.021 8.712z"/><path d="m1059.642 511.025 5.582 1.943.903-2.61 4.67-13.45-.844-.294a5.007 5.007 0 0 0-6.387 3.1l-3.021 8.712-.903 2.6z" opacity=".05"/><path fill="#fff" d="m1079.822 518.03 5.583 1.933.902-2.6 3.022-8.721a5.014 5.014 0 0 0-3.1-6.387l-.834-.294-4.67 13.47-.903 2.6z" opacity=".1"/><path fill="#3cd278" d="m1057.201 594.744 5.508 8.732s26.1-19.096 24.5-35.215l-20.362 4.845-9.646 21.638z"/><path fill="#ffc6b2" d="M1057.201 594.744s-4.438-.69-4.687 1.465c-.248 2.156 2.012 2.646 2.012 2.646s-10.116 6.717-4.063 11.277 12.246-6.656 12.246-6.656l-5.508-8.732zM963.267 596.593c3.509-2.81 4.384-7.533 1.958-10.563-2.426-3.03-7.235-3.218-10.743-.409-3.509 2.81 5.276 13.781 8.785 10.972z"/><path fill="#fff" d="M1014.076 721.99c-.137-.045 1.582-5.741 5.25-17.197l9.465-29.068c3.777-11.408 5.742-17.024 5.882-16.979.14.046-1.582 5.74-5.243 17.187l-9.465 29.068c-3.784 11.418-5.746 17.035-5.89 16.989zM998.47 730.087c.004-.144 1.462-.22 4.403-.173l7.467.271c2.933.166 4.382.349 4.377.496-.006.147-1.464.22-4.401.177l-7.468-.272c-2.936-.17-4.384-.349-4.379-.5zM1061.113 722.964c-.036.006-.135-.353-.299-1.08-.16-.73-.398-1.824-.674-3.293-.561-2.938-1.32-7.368-2.22-13.312l-4.273-30.245-1.949-13.332-.488-3.32c-.097-.74-.127-1.112-.091-1.118.036-.007.136.352.3 1.08.16.728.398 1.822.674 3.29.56 2.937 1.319 7.364 2.22 13.302l4.272 30.245 1.95 13.342.488 3.322c.097.74.127 1.112.09 1.119zM1036.288 686.273c.128.066-.362 1.3-1.532 3.705l-3.107 6.042c-1.275 2.348-1.995 3.464-2.126 3.397-.13-.067.362-1.3 1.528-3.704l3.107-6.042c1.28-2.349 1.996-3.467 2.13-3.398zM1043.186 732.074c-.004-.151 1.594-.29 4.815-.548 2.73-.174 5.456-.438 8.17-.793 3.206-.363 4.801-.535 4.827-.382.024.137-1.531.561-4.74 1.05-2.729.355-5.469.621-8.214.796-3.247.138-4.855.02-4.858-.123z"/><path d="M796.741 784.837h33.085v5.534h-33.085z" transform="rotate(-.222 813.28 787.596)"/><path d="m796.73 784.906 33.085-.138-.06-15.768-19.176.086z"/><path fill="#fff" d="M796.726 784.622h16.31v.5h-16.31z" transform="rotate(-.223 804.89 784.87)"/><path fill="#fff" d="M822.837 788.842c.002.545.057 1.022.178 1.486l.664-.002c0-.027 0-.053-.014-.08a5.925 5.925 0 0 1-.164-1.406 6.22 6.22 0 0 1 1.299-3.854c.053-.067.106-.133.171-.2a6.307 6.307 0 0 1 4.836-2.301l-.003-.664c-2.163.009-4.243 1.039-5.537 2.769-.052.067-.092.133-.145.2-.832 1.144-1.29 2.58-1.285 4.052z"/><path d="M753.919 784.837h33.085v5.534h-33.085z" transform="rotate(-.222 770.458 787.596)"/><path d="m753.909 784.906 33.084-.138-.06-15.768-19.176.086z"/><path fill="#fff" d="M753.904 784.622h16.31v.5h-16.31z" transform="rotate(-.223 762.068 784.87)"/><path fill="#fff" d="M780.015 788.842c.002.545.057 1.022.178 1.486l.664-.002c0-.027 0-.053-.014-.08a5.928 5.928 0 0 1-.164-1.406 6.22 6.22 0 0 1 1.299-3.854c.052-.067.105-.133.171-.2a6.307 6.307 0 0 1 4.835-2.301l-.002-.664c-2.163.009-4.243 1.039-5.537 2.769-.053.067-.093.133-.145.2-.832 1.144-1.29 2.58-1.285 4.052z"/><path fill="#0039b2" d="M764.396 770.763c4.356 1.924 22.12 1.15 23.378.16.277-.223 16.324-86.951 16.324-86.951s3.573 85.85 3.796 86.071c1.226 1.243 18.055 3.057 22.802.361.692-.39 2.796-89.206 2.796-89.206-.141.29 7.71-30.531-5.158-42.667l-51.296.881s-13.42 131.007-12.642 131.35z"/><path fill="#fff" d="M804.068 684.386c-.068 0-.16-.642-.144-1.944.02-.653.033-1.466.257-2.46.059-.25.142-.512.304-.793l.51-.69c.386-.443.826-.89 1.323-1.322.845-.728 1.717-1.392 2.524-2.117a15.512 15.512 0 0 0 2.173-2.377c.638-.863 1.112-1.83 1.522-2.82a16.79 16.79 0 0 0 .814-3.12c.447-2.518.366-4.456.284-5.726-.094-1.276-.197-1.912-.116-1.93.062-.014.302.595.514 1.884.2 1.284.38 3.269-.018 5.88a17.444 17.444 0 0 1-.85 3.254c-.43 1.04-.931 2.061-1.605 2.972-1.312 1.855-3.146 3.221-4.802 4.609-.494.409-.919.818-1.293 1.218l-.488.611a2.37 2.37 0 0 0-.258.613c-.248.892-.32 1.706-.395 2.338-.13 1.277-.177 1.92-.256 1.92z"/><path fill="#ffbdae" d="M837.803 600.179s.065 16.889-2.007 21.324c-2.295 4.912-13.887 11.431-13.887 11.431s-5.526-28.073-5.373-28.306c.154-.232 2.53-6.279 2.84-6.28.31 0 7.758-4.648 7.758-4.648l10.669 6.479z"/><path fill="#1258ff" d="m742.242 623.32 86.11.48-32.182-61.454-83.168.323a1.35 1.35 0 0 0-1.19 1.973l30.43 58.678z"/><path fill="#d250dc" d="m827.2 600.22-12.79-18.87 13.854-16.24s8.305 6.828 10.28 15.725c1.5 6.757.894 14.595.274 19.34l-11.618.045z"/><path fill="#d250dc" d="M775.03 568.644c9.552-11.498 46.917-12.901 55.868-.93 7.817 10.456 1.918 75.765 1.918 75.765.079 3.05-57.012 4.523-57.09 1.472 0 0-4.632-71.568-.696-76.307z"/><path fill="#ffc6b2" d="m758.706 591.857-7.173 13.325-15.046 4.9.166 10.977 22.319 3.28a18.01 18.01 0 0 0 15.952-10.444l6.03-13.037-22.248-9z"/><path fill="#d250dc" d="M775.853 567.727s-11.63 9.392-19.304 22.909c-.614 2.296 19.523 14.504 25.795 11.967 2.302-.931 5.323-33.505-6.491-34.876z"/><path fill="#fff" d="M788.559 589.276c.137.04-.208 1.693-1.12 4.973-.833 2.765-1.635 5.523-2.56 8.28l-.117.302-.03.075-.08.118c-.059.07-.092.174-.17.214-.418.142-.558.044-.76.055a18.86 18.86 0 0 1-1.042-.116 29.863 29.863 0 0 1-1.574-.256c-.834-.162-1.242-.288-1.232-.36.01-.074.436-.084 1.28-.038l1.582.1 1.018.05c.158.008.44 0 .37-.006V602.658l.023-.07.099-.286c.909-2.71 1.719-5.49 2.547-8.245 1.03-3.243 1.62-4.824 1.766-4.781z"/><path fill="#ffc6b2" d="m736.65 621.063-.162-10.977s.83-7.354-1.25-7.415c-1.942-.062-2.295 1.797-2.238 2.116-.238-.443-3.283-5.619-3.297-5.646-.097 0-6.7 4.53-7.065 10.992-.22 3.881 9.577 10.93 14.013 10.93zM779.276 534.115c.805 4.273 3.586 8.474 4.178 8.671 1.055.324 6.764-3.187 9.801-.5 3.037 2.686 1.42 10.127-2.055 12.771-3.477 2.645-6.83 3.317-6.83 3.317l-.574 4.673 15.833-5.915 2.406-7.379-.577-12.893s-12.396-7.19-19.364-5.454c-1.248.336-2.167 1.325-2.818 2.71z"/><path fill="#ffc6b2" d="M778.774 557.54c.066.196.264.33.463.458h.065c1.45.785 5.068.376 5.068.376s3.353-.672 6.83-3.317c3.476-2.644 5.092-10.085 2.055-12.771-3.037-2.687-8.746.824-9.801.5-.592-.197-3.373-4.398-4.178-8.67-3.199 6.527-1.033 22.309-.502 23.425z"/><path d="M803.916 525.532c-9.564-6.016-21.56-2.635-25.556 2.315-1.44 1.782-2.622 3.894-2.152 6.26.805 4.273 6.654 8.482 7.246 8.68 1.055.323 6.764-3.188 9.801-.501 4.777 4.226-3.756 8.055-4.986 11.436-2.252 6.191-2.217 13.128.867 19.038 2.158 4.136 5.598 7.56 7.325 11.892 2.618 6.565 1.033 14.53 4.846 20.481 3.535 5.517 11.094 7.562 17.41 5.822 6.316-1.74 11.392-6.63 14.752-12.254 2.042-3.418 3.56-7.197 4.025-11.151.465-3.954-.171-8.095-2.174-11.536-1.758-3.022-4.454-5.365-6.713-8.034-3.638-4.299-6.13-9.428-8.583-14.497-2.575-5.321-5.73-10.571-7.48-16.167-1.52-4.853-4.298-9.018-8.628-11.784z"/><circle cx="809.002" cy="526.868" r="8.902"/><path fill="#fff" d="M809.04 536.098a9.258 9.258 0 0 0 2.796-.442.33.33 0 1 0-.202-.626 8.609 8.609 0 0 1-2.598.41c-4.725.018-8.589-3.812-8.607-8.538a8.56 8.56 0 0 1 .477-2.86.327.327 0 0 0-.2-.42.324.324 0 0 0-.418.201 9.135 9.135 0 0 0-.515 3.081c.02 5.09 4.177 9.214 9.266 9.194zM792.025 668.963c-.537 0-1.08-.062-1.621-.187-3.454-.81-5.782-4.34-5.3-8.037l.85-6.495c.035-.272.175-.518.396-.689.219-.17.487-.243.756-.209l11.838 1.563c.564.07.967.587.897 1.15l-.903 6.802a7.026 7.026 0 0 1-2.954 4.854 6.906 6.906 0 0 1-3.96 1.248zm-1.508-.674a6.428 6.428 0 0 0 5.182-.985 6.524 6.524 0 0 0 2.743-4.508l.903-6.8a.533.533 0 0 0-.466-.591l-11.839-1.563a.533.533 0 0 0-.383.109.532.532 0 0 0-.206.357l-.85 6.496c-.45 3.444 1.709 6.732 4.916 7.485z"/><circle cx="792.583" cy="658.004" r="1.166" fill="#fff"/><path fill="#fff" d="M823.743 665.38a4.933 4.933 0 0 1-2.797-.87 5.018 5.018 0 0 1-2.136-3.45l-.673-4.78a.803.803 0 0 1 .69-.9l8.32-1.163a.784.784 0 0 1 .588.157c.173.131.283.32.311.533l.633 4.564c.366 2.635-1.276 5.168-3.74 5.766-.4.096-.8.143-1.196.143zm3.51-10.67c-.011 0-.024 0-.037.002l-8.321 1.164a.302.302 0 0 0-.262.337l.672 4.777a4.516 4.516 0 0 0 1.923 3.107 4.459 4.459 0 0 0 3.594.654c2.216-.539 3.693-2.827 3.361-5.211l-.633-4.566a.304.304 0 0 0-.297-.264z"/><circle cx="823.329" cy="657.597" r=".82" fill="#fff"/><path fill="#30005c" d="M789.217 548.412c-.33 0-.666-.05-.993-.151a.25.25 0 0 1 .148-.477c.706.218 1.45.157 2.048-.164.62-.334 1.063-.973 1.128-1.63.069-.685-.282-1.386-.852-1.703-.479-.267-1.13-.305-1.99-.113a.25.25 0 1 1-.11-.488c.987-.219 1.752-.165 2.344.164.738.411 1.193 1.312 1.106 2.19-.083.83-.615 1.604-1.39 2.02-.433.234-.93.352-1.439.352z"/><path fill="#719bff" d="m1049.58 380.86 22.56-50.239-54.282 21.786a.05.05 0 0 0-.015.084l31.659 28.385a.05.05 0 0 0 .079-.017z"/><path fill="#5388f2" d="m1069.256 333.74-32.048 36.107a.045.045 0 0 0-.006.007l-4.766 7.739a.05.05 0 0 1-.092-.016l-3.36-15.072c-.005-.02.002-.04 1.948-1.475l38.324-27.29z"/><path fill="#5388f2" d="m1032.538 377.606 8.191-4.505a.05.05 0 0 0 .01-.082l-3.49-3.128a.05.05 0 0 0-.076.01l-4.702 7.635c-.027.044.021.095.067.07z"/><circle cx="308.949" cy="280.48" r="33.18" fill="#ff5d5d"/><circle cx="308.949" cy="280.48" r="26.479" fill="#fff"/><circle cx="308.949" cy="280.48" r="19.247" fill="#ff5d5d"/><circle cx="308.949" cy="280.48" r="11.986" fill="#fff"/><circle cx="308.949" cy="280.48" r="5.938" fill="#ff5d5d"/><path d="m274.985 250.676-8.889-5.423c-.834-.51-1.867.246-1.635 1.195l1.72 7.027a1.096 1.096 0 0 1-.81 1.326l-7.034 1.684c-.951.228-1.15 1.492-.316 2.001l8.889 5.424c.248.151.545.198.827.13l9.163-2.206c.589-.142.951-.735.808-1.324l-2.229-9.157a1.096 1.096 0 0 0-.494-.677z"/><path d="M308.51 277.872 262.2 249.615a1.999 1.999 0 1 0-2.082 3.412l46.309 28.257a1.999 1.999 0 0 0 2.082-3.412z"/><path fill="#d250dc" d="M949.217 388.083v47.38a3.941 3.941 0 0 1-3.93 3.93H871.83a3.941 3.941 0 0 1-3.93-3.93v-47.409a3.894 3.894 0 0 1 3.901-3.902h73.486a3.941 3.941 0 0 1 3.93 3.93z"/><path fill="#fff" d="M888.807 414.907h7.919v10.285h-7.919zM899.274 408.308h7.919v16.884h-7.919zM909.741 411.812h7.919v13.38h-7.919zM920.209 401.755h7.919v23.437h-7.919zM892.766 407.607a.437.437 0 0 1-.243-.8l10.467-7.008a.444.444 0 0 1 .383-.052l10.217 3.421 10.276-9.785a.437.437 0 0 1 .603.633l-10.467 9.967a.442.442 0 0 1-.44.098l-10.263-3.437-10.29 6.89a.438.438 0 0 1-.243.073z"/><circle cx="924.252" cy="393.7" r="2.536" fill="#fff"/><circle cx="913.701" cy="403.157" r="2.536" fill="#fff"/><circle cx="903.233" cy="400.244" r="2.536" fill="#fff"/><circle cx="892.766" cy="407.17" r="2.536" fill="#fff"/><path fill="#fff" d="M931.568 427.673a.845.845 0 0 1-.845.844h-44.33a.845.845 0 0 1-.844-.844c0-.437.378-.815.844-.815h44.33c.466 0 .845.378.845.815z"/></svg>