<svg xmlns="http://www.w3.org/2000/svg" enable-background="new 0 0 2800 2000" viewBox="0 0 2800 2000"><rect width="2000" height="2000" x="400" fill="#fff" fill-rule="evenodd" clip-rule="evenodd" display="none"/><path fill="#d5f0ff" d="M707.58,1359.79c19.22,29.67,207.5,255.11,359.27,257.85c136.87,2.47,181.26-195.94,325.02-181.25
	c107.05,10.94,120.67,124.87,244.7,164.42c121.91,38.87,283.1-8.02,364.25-95.77c422.15-456.43,199.57-1136.24-156.86-1327.9
	c-160.95-86.55-258.86,152.78-596.89,109.99c-203.27-25.73-165.41-147.52-340.55-66.72C703.32,314.16,374.55,845.69,707.58,1359.79z
	" display="none" opacity=".5"/><path fill="#d5f0ff" d="M584.65,748.49c-49.36,109.89-211.8,84.3-322.34,211.34c-114.82,131.96-111.62,350.74,34.04,479.46
		c147.8,130.61,383.27,116.33,498.07,109.37c188.67-11.44,257.31-64.33,405.7-99.6c519.48-123.48,821.66,252.85,1152.63,113.57
		c180.09-75.79,298.22-274.75,258.33-412.1c-68.29-235.1-614.72-261.28-595.04-381.13c16.54-100.72,404.49-95.02,466.04-245.7
		c55.18-135.09-189.54-303.96-359.23-376.2c-78.21-33.3-307.19-134.51-493.56-54.17c-147.45,63.56-140.03,177.47-270.27,208.87
		c-157.02,37.85-222.81-114.46-447.9-120.75c-165.85-4.64-374.22,71.23-420.22,190.39C436.84,511.9,644.19,615.96,584.65,748.49z" opacity=".42"/><path fill="#d5f0ff" d="M639.64,873.93c-46.18,102.81-198.15,78.87-301.57,197.73c-107.42,123.46-104.43,328.14,31.85,448.57
		c138.28,122.2,358.57,108.84,465.98,102.32c176.51-10.71,240.73-60.19,379.57-93.19c486.02-115.52,768.72,236.56,1078.37,106.25
		c168.49-70.91,279.01-257.05,241.68-385.55c-63.89-219.95-575.12-244.45-556.7-356.58c15.48-94.23,378.43-88.9,436.01-229.87
		c51.62-126.39-177.33-284.37-336.08-351.97c-73.17-31.15-287.4-125.85-461.76-50.68c-137.95,59.47-131,166.04-252.86,195.41
		c-146.91,35.41-208.46-107.08-419.04-112.97c-155.16-4.34-350.11,66.64-393.15,178.12C501.35,652.58,695.34,749.94,639.64,873.93z" opacity=".6"/><ellipse cx="1397.32" cy="1873" fill="#dfe6ff" rx="1156.34" ry="63.97"/><path fill="#62cbec" d="M496.46,1247.85c90.96-54.16,114.48-379.76-24.82-406.77c-9.07-1.76-59.81-11.6-116.73,20.61
			c-61.34,34.7-91.54,96.54-95,103.64C186.19,1116.3,404.82,1302.42,496.46,1247.85z"/><path fill="#bbe6f9" d="M486.6,1262.84c90.96-54.16,114.48-379.76-24.82-406.77c-9.07-1.76-59.81-11.6-116.73,20.61
			c-61.34,34.7-91.54,96.54-95,103.64C176.34,1131.28,394.96,1317.4,486.6,1262.84z"/><path fill="#fff" d="M546.27,1334.6c0.05-0.04,0.1-0.08,0.14-0.12c2.1-1.8,2.8-4.34,1.56-5.68
					c-57.44-62.1-101.01-135.25-129.51-217.43c-22.79-65.71-35.89-137.25-38.94-212.65c-0.08-2.03-2.12-2.92-4.56-1.99
					c-2.44,0.94-4.34,3.35-4.26,5.38c3.07,75.94,16.27,148,39.22,214.19c28.71,82.78,72.59,156.46,130.45,219.01
					C541.58,1336.62,544.19,1336.29,546.27,1334.6z"/><path fill="#fff" d="M388.39,1018.67c0.81-0.66,1.49-1.49,1.9-2.39c1.02-2.24,0.06-4.12-2.15-4.2
					c-20.38-0.74-38.49-5.4-53.81-13.84c-14.84-8.18-26.44-19.57-34.47-33.86c-0.9-1.6-3.46-1.63-5.73-0.06
					c-2.26,1.57-3.37,4.14-2.47,5.74c8.44,15.02,20.62,26.99,36.22,35.58c16.1,8.87,35.13,13.76,56.55,14.54
					C385.75,1020.23,387.21,1019.63,388.39,1018.67z"/><path fill="#fff" d="M426.24,1157.79c1.15-0.94,2.01-2.2,2.25-3.46c0.42-2.18-1.2-3.54-3.6-3.04
					c-22.14,4.64-43.02,5.35-62.08,2.09c-18.46-3.16-34.42-9.91-47.42-20.07c-1.46-1.14-4.22-0.5-6.17,1.44
					c-1.95,1.93-2.36,4.42-0.9,5.55c13.67,10.68,30.44,17.77,49.84,21.09c20.02,3.43,41.97,2.69,65.24-2.19
					C424.41,1158.99,425.4,1158.47,426.24,1157.79z"/><path fill="#fff" d="M422.29,1063.84c16.21-13.2,30.92-27.87,43.86-43.75c15.93-19.56,28.5-40.14,37.36-61.17
					c0.94-2.24-0.11-4.06-2.36-4.06c-2.25,0-4.83,1.82-5.78,4.06c-8.43,20.01-20.39,39.59-35.55,58.2
					c-15.64,19.21-34,36.54-54.57,51.53c-2.23,1.63-3.25,4.19-2.27,5.74c0.98,1.54,3.58,1.47,5.82-0.15
					C413.4,1070.88,417.9,1067.41,422.29,1063.84z"/><path fill="#fff" d="M464.71,1223.69c0.21-0.17,0.41-0.35,0.61-0.55c18.67-18.9,34.15-39.38,46-60.88
					c11.49-20.83,19.08-41.74,22.56-62.14c0.37-2.17-1.28-3.5-3.69-2.95c-2.41,0.54-4.66,2.75-5.03,4.92
					c-3.31,19.41-10.54,39.31-21.47,59.13c-11.28,20.46-26.01,39.95-43.78,57.93c-1.93,1.95-2.28,4.43-0.79,5.53
					C460.47,1225.66,462.84,1225.21,464.71,1223.69z"/><path fill="#8bdcef" d="M2195.95,1666.46c91.63,64.77,417.1-52.68,383.27-199.22c-2.2-9.54-14.53-62.92-70.23-104.18
			c-60.03-44.46-132.92-47.08-141.29-47.38C2189.73,1309.3,2103.63,1601.2,2195.95,1666.46z"/><path fill="#d2edf7" d="M2177.19,1663.36c91.63,64.77,417.1-52.68,383.27-199.22c-2.2-9.54-14.53-62.92-70.23-104.18
			c-60.03-44.46-132.92-47.08-141.29-47.38C2170.97,1306.2,2084.87,1598.1,2177.19,1663.36z"/><path fill="#fff" d="M2133.38,1752.06c0.06,0.03,0.12,0.06,0.18,0.09c2.65,1.26,5.41,0.84,6.17-0.93
					c35.4-82.37,87.49-156.08,154.81-219.08c53.83-50.37,117.48-93.87,189.18-129.29c1.94-0.96,1.92-3.32-0.04-5.27
					c-1.96-1.95-5.11-2.77-7.05-1.81c-72.22,35.68-136.33,79.49-190.55,130.23c-67.81,63.45-120.27,137.69-155.93,220.66
					C2129.41,1748.38,2130.85,1750.77,2133.38,1752.06z"/><path fill="#fff" d="M2371.37,1463.08c0.98,0.5,2.08,0.8,3.14,0.81c2.61,0.03,4.02-1.71,3.14-3.89
					c-8.06-20.06-11.35-39.6-9.77-58.07c1.53-17.9,7.56-34.04,17.94-47.96c1.16-1.56,0.08-4.05-2.41-5.57
					c-2.49-1.52-5.46-1.49-6.62,0.07c-10.91,14.64-17.25,31.59-18.86,50.4c-1.65,19.41,1.8,39.95,10.27,61.03
					C2368.72,1461.2,2369.93,1462.35,2371.37,1463.08z"/><path fill="#fff" d="M2252.93,1559.66c1.4,0.71,2.99,1,4.32,0.69c2.29-0.54,2.92-2.68,1.4-4.79
					c-14.03-19.44-23.71-39.37-28.76-59.22c-4.89-19.24-5.22-37.6-0.99-54.57c0.48-1.9-1.33-4.3-4.05-5.36
					c-2.71-1.06-5.29-0.38-5.77,1.52c-4.45,17.84-4.1,37.13,1.04,57.35c5.31,20.87,15.47,41.81,30.22,62.24
					C2250.98,1558.4,2251.9,1559.14,2252.93,1559.66z"/><path fill="#fff" d="M2342.22,1515.37c19.77,10.02,40.31,17.94,61.26,23.63c25.8,7.01,51.15,10.31,75.33,9.84
					c2.58-0.05,3.88-1.86,2.91-4.03c-0.97-2.18-3.84-3.9-6.42-3.85c-23.01,0.46-47.13-2.69-71.68-9.36
					c-25.34-6.88-50.04-17.19-73.41-30.66c-2.54-1.46-5.46-1.34-6.53,0.28c-1.07,1.61,0.12,4.11,2.65,5.57
					C2331.57,1509.79,2336.87,1512.66,2342.22,1515.37z"/><path fill="#fff" d="M2205.68,1625.3c0.25,0.13,0.52,0.25,0.8,0.35c26.34,9.95,52.84,16.11,78.77,18.34
					c25.12,2.15,48.64,0.5,69.9-4.91c2.26-0.58,2.83-2.75,1.27-4.84c-1.56-2.1-4.67-3.33-6.93-2.76
					c-20.23,5.15-42.61,6.72-66.51,4.67c-24.67-2.11-49.89-7.98-74.96-17.45c-2.72-1.03-5.27-0.3-5.69,1.62
					C2201.93,1622.04,2203.4,1624.14,2205.68,1625.3z"/><g><path fill="#dfe6ff" d="M2115.54,700.42H703.96c-26.64,0-48.23,21.59-48.23,48.23v945.46c0,26.64,21.59,48.23,48.23,48.23h1411.58
			c26.64,0,48.23-21.59,48.23-48.23V748.65C2163.77,722.01,2142.18,700.42,2115.54,700.42z"/><path fill="#2c7efe" d="M2109.55,1751.39H709.95c-34.89,0-63.28-28.39-63.28-63.28V754.64c0-34.89,28.39-63.28,63.28-63.28h1399.59
			c34.89,0,63.28,28.39,63.28,63.28v933.47C2172.83,1723,2144.44,1751.39,2109.55,1751.39z M709.95,709.47
			c-24.9,0-45.17,20.26-45.17,45.16v933.47c0,24.9,20.26,45.16,45.17,45.16h1399.59c24.9,0,45.17-20.26,45.17-45.16V754.64
			c0-24.9-20.26-45.16-45.17-45.16H709.95z"/><path fill="#153663" d="M2040.1,804.9H779.4c-26.64,0-48.23,21.59-48.23,48.23v840.97c0,26.64,21.59,48.23,48.23,48.23h1260.7
			c26.64,0,48.23-21.59,48.23-48.23V853.13C2088.33,826.5,2066.74,804.9,2040.1,804.9z"/><circle cx="1409.75" cy="751.98" r="33.78" fill="#0643a3" transform="rotate(-63.243 1409.795 752.016)"/><circle cx="1409.75" cy="756.69" r="24.74" fill="#62cbec"/><circle cx="1423.5" cy="738.63" r="11" fill="#fff" transform="rotate(-76.714 1423.62 738.64)"/><path fill="#2c7efe" d="M2034.11,1751.39H785.39c-34.89,0-63.28-28.39-63.28-63.28V859.13c0-34.89,28.39-63.28,63.28-63.28h1248.72
			c34.89,0,63.28,28.39,63.28,63.28v828.98C2097.39,1723,2069,1751.39,2034.11,1751.39z M785.39,813.96
			c-24.9,0-45.16,20.26-45.16,45.17v828.98c0,24.9,20.26,45.16,45.16,45.16h1248.72c24.9,0,45.16-20.26,45.16-45.16V859.13
			c0-24.9-20.26-45.17-45.16-45.17H785.39z"/><path fill="#84b2fe" d="M502.84,1673.85v45.63c0,67.3,58.63,121.84,130.98,121.84h1551.85c72.34,0,130.99-54.55,130.99-121.84
			v-45.63H502.84z"/><path fill="#dfe6ff" d="M503.1,1673.85c4.18,63.77,61.09,114.29,130.72,114.29h1551.85c69.63,0,126.55-50.52,130.73-114.29H503.1z"/><path fill="#84b2fe" d="M1191.43,1673.85v14.96c0,22.07,14.12,39.96,31.53,39.96h373.57c17.41,0,31.53-17.89,31.53-39.96v-14.96
			H1191.43z"/><path fill="#2c7efe" d="M1596.54,1737.83h-373.57c-22.38,0-40.59-21.99-40.59-49.01v-24.02h454.75v24.02
			C1637.12,1715.84,1618.92,1737.83,1596.54,1737.83z M1200.49,1682.91v5.91c0,16.75,10.29,30.9,22.47,30.9h373.57
			c12.18,0,22.47-14.15,22.47-30.9v-5.91H1200.49z"/><path fill="#2c7efe" d="M2185.67,1850.37H633.82c-77.22,0-140.04-58.72-140.04-130.9v-54.68h1831.93v54.68
			C2325.72,1791.65,2262.9,1850.37,2185.67,1850.37z M511.9,1682.91v36.57c0,62.19,54.69,112.79,121.92,112.79h1551.85
			c67.23,0,121.93-50.6,121.93-112.79v-36.57H511.9z"/></g><g><rect width="883.41" height="767.44" x="961" y="860.97" fill="#dfe6ff"/><rect width="883.41" height="767.44" x="975.1" y="848.72" fill="#fff"/><rect width="883.41" height="168.16" x="975.1" y="848.72" fill="#84b2fe"/><circle cx="1053.3" cy="932.8" r="33.4" fill="#fff"/><circle cx="1148.46" cy="932.8" r="33.4" fill="#fff"/><circle cx="1243.63" cy="932.8" r="33.4" fill="#fff"/><path fill="#b7d2f9" d="M1030.75,1072.46c0,167.75,0,335.5,0,503.25"/><rect width="5.87" height="503.25" x="1027.81" y="1072.46" fill="#b7d2f9"/><path fill="#b7d2f9" d="M1127.19,1072.46c0,167.75,0,335.5,0,503.25"/><rect width="5.87" height="503.25" x="1124.25" y="1072.46" fill="#b7d2f9"/><path fill="#b7d2f9" d="M1223.62,1072.46c0,167.75,0,335.5,0,503.25"/><rect width="5.87" height="503.25" x="1220.69" y="1072.46" fill="#b7d2f9"/><path fill="#b7d2f9" d="M1320.06,1072.46c0,167.75,0,335.5,0,503.25"/><rect width="5.87" height="503.25" x="1317.12" y="1072.46" fill="#b7d2f9"/><path fill="#b7d2f9" d="M1416.5,1072.46c0,167.75,0,335.5,0,503.25"/><rect width="5.87" height="503.25" x="1413.56" y="1072.46" fill="#b7d2f9"/><g><path fill="#b7d2f9" d="M1512.93,1072.46c0,167.75,0,335.5,0,503.25"/><rect width="5.87" height="503.25" x="1510" y="1072.46" fill="#b7d2f9"/></g><g><path fill="#b7d2f9" d="M1609.37,1072.46c0,167.75,0,335.5,0,503.25"/><rect width="5.87" height="503.25" x="1606.43" y="1072.46" fill="#b7d2f9"/></g><g><path fill="#b7d2f9" d="M1705.81,1072.46c0,167.75,0,335.5,0,503.25"/><rect width="5.87" height="503.25" x="1702.87" y="1072.46" fill="#b7d2f9"/></g><g><path fill="#b7d2f9" d="M1802.24,1072.46c0,167.75,0,335.5,0,503.25"/><rect width="5.87" height="503.25" x="1799.31" y="1072.46" fill="#b7d2f9"/></g><path fill="#2c7efe" d="M1807.85,1575.72h-780.04v-335.94c29.16-3.43,70.96-3.93,114.3,13.88c76.84,31.59,82.4,89.48,142.05,100.42
			c68.35,12.53,102.68-55.84,151.85-35.92c54.5,22.09,39.04,116.67,84.89,130.62c50.58,15.37,95.94-92.26,156.74-88.17
			C1716.03,1363.19,1761.86,1410.35,1807.85,1575.72z"/><path fill="#84b2fe" d="M1807.1,1575.72h-778.12v-217.98c29.16-2.27,70.96-2.61,114.3,9.2c76.84,20.92,82.4,59.27,142.05,66.51
			c68.35,8.31,102.68-36.99,151.85-23.79c54.5,14.62,39.04,77.28,84.89,86.52c50.58,10.18,95.94-61.12,156.74-58.41
			C1716.66,1439.46,1761.74,1469.87,1807.1,1575.72z"/></g><g><path fill="#f8cd12" d="M2167.58,1868.79c0,0.32-0.04,0.64-0.11,0.95v0.09h-0.02c-0.81,3.26-5.4,6.37-13.08,9.2
				c-1.21,0.44-2.49,0.88-3.84,1.31c-4.17,1.33-9.03,2.58-14.5,3.75c-1.25,0.27-2.53,0.53-3.84,0.79c-4.67,0.92-9.74,1.79-15.16,2.6
				c-1.26,0.19-2.54,0.37-3.84,0.55c-4.47,0.62-9.15,1.2-14.04,1.74c-1.27,0.14-2.55,0.28-3.84,0.41c-4.62,0.48-9.4,0.91-14.32,1.3
				c-1.27,0.1-2.55,0.2-3.84,0.29c-4.92,0.37-9.98,0.69-15.16,0.97c-1.27,0.07-2.55,0.13-3.84,0.2c-4.59,0.23-9.28,0.42-14.04,0.58
				c-1.28,0.04-2.56,0.08-3.84,0.11c-5.19,0.15-10.47,0.25-15.83,0.32c-1.28,0.01-2.56,0.03-3.84,0.03
				c-2.26,0.02-4.53,0.02-6.81,0.02c-2.8,0-5.58-0.01-8.34-0.04c-1.28-0.01-2.56-0.02-3.84-0.04c-4.74-0.06-9.43-0.16-14.04-0.29
				c-1.29-0.03-2.57-0.07-3.84-0.12c-4.49-0.15-8.92-0.32-13.26-0.53c-1.29-0.06-2.57-0.13-3.84-0.2
				c-5.18-0.27-10.23-0.59-15.16-0.95c-1.29-0.09-2.57-0.19-3.84-0.29c-4.82-0.38-9.51-0.8-14.04-1.25
				c-1.29-0.13-2.58-0.26-3.84-0.4c-5.53-0.59-10.82-1.25-15.83-1.95c-1.3-0.18-2.58-0.37-3.84-0.56
				c-5.42-0.81-10.49-1.69-15.16-2.62c-1.31-0.26-2.59-0.53-3.84-0.8c-5.29-1.14-9.99-2.37-14.04-3.65
				c-1.35-0.43-2.64-0.87-3.84-1.31c-7.67-2.83-12.26-5.93-13.08-9.2h-0.02v-0.09c-0.07-0.32-0.11-0.63-0.11-0.95
				c0-0.32,0.04-0.64,0.11-0.95v-35.83c102.46,1.06,204.92,2.11,307.39,3.17v32.66C2167.55,1868.15,2167.58,1868.47,2167.58,1868.79
				z"/><ellipse cx="2013.78" cy="1833.46" fill="#f8ea14" rx="153.8" ry="25.23"/><path fill="#f09c23" d="M2152.69,1830.61c0,0.48-0.23,0.96-0.67,1.43c-6.91,7.29-66.16,12.99-138.23,12.99
				c-72.07,0-131.33-5.7-138.24-12.99c-0.45-0.47-0.67-0.95-0.67-1.43c0-7.96,62.19-14.41,138.91-14.41
				C2090.5,1816.2,2152.69,1822.65,2152.69,1830.61z"/><path fill="#f8cd12" d="M2152.02,1832.04c-6.91,7.29-66.16,12.99-138.23,12.99c-72.07,0-131.33-5.7-138.24-12.99
				c6.9-7.29,66.15-12.99,138.24-12.99C2085.86,1819.05,2145.12,1824.75,2152.02,1832.04z"/><path fill="#f09c23" d="M1877.03,1851.64v28.7c-1.35-0.43-2.64-0.87-3.84-1.31v-27.39c0-1.06,0.86-1.92,1.92-1.92
					C1876.17,1849.72,1877.03,1850.58,1877.03,1851.64z"/><path fill="#f09c23" d="M1894.91,1856.67v28.13c-1.31-0.26-2.59-0.53-3.84-0.8v-27.33c0-1.06,0.86-1.92,1.92-1.92
					C1894.05,1854.75,1894.91,1855.61,1894.91,1856.67z"/><path fill="#f09c23" d="M1913.91,1860.59v27.39c-1.3-0.18-2.58-0.37-3.84-0.56v-26.83c0-1.06,0.86-1.92,1.92-1.92
					S1913.91,1859.53,1913.91,1860.59z"/><path fill="#f09c23" d="M1933.58,1863.38v26.95c-1.29-0.13-2.58-0.26-3.84-0.4v-26.55c0-1.06,0.86-1.92,1.92-1.92
					C1932.72,1861.46,1933.58,1862.32,1933.58,1863.38z"/><path fill="#f09c23" d="M1951.46,1865.18v26.69c-1.29-0.09-2.57-0.18-3.84-0.27v-26.42c0-0.99,0.86-1.8,1.92-1.8
					C1950.6,1863.38,1951.46,1864.18,1951.46,1865.18z"/><path fill="#f09c23" d="M1970.46,1866.88v26.13c-1.29-0.06-2.57-0.11-3.84-0.17v-25.96c0-0.94,0.86-1.69,1.92-1.69
					C1969.6,1865.18,1970.46,1865.94,1970.46,1866.88z"/><path fill="#f09c23" d="M1987.56,1868.72v24.93c-1.29-0.03-2.57-0.07-3.84-0.1v-24.83c0-0.94,0.86-1.71,1.92-1.71
					C1986.7,1867.01,1987.56,1867.78,1987.56,1868.72z"/><path fill="#f09c23" d="M2005.44,1868.73v25.26c-1.28-0.01-2.56-0.02-3.84-0.04v-25.22c0-0.95,0.86-1.71,1.92-1.71
					C2004.58,1867.01,2005.44,1867.78,2005.44,1868.73z"/><path fill="#f09c23" d="M2024.44,1868.73v25.24c-1.28,0.01-2.56,0.02-3.84,0.03v-25.27c0-0.95,0.86-1.71,1.92-1.71
					C2023.58,1867.01,2024.44,1867.78,2024.44,1868.73z"/><path fill="#f09c23" d="M2044.11,1868.59v24.95c-1.28,0.03-2.56,0.07-3.84,0.1v-25.05c0-0.95,0.86-1.72,1.92-1.72
					C2043.25,1866.87,2044.11,1867.64,2044.11,1868.59z"/><path fill="#f09c23" d="M2061.99,1866.87v25.9c-1.27,0.06-2.55,0.12-3.84,0.17v-26.08c0-0.94,0.86-1.69,1.92-1.69
					S2061.99,1865.94,2061.99,1866.87z"/><path fill="#f09c23" d="M2080.99,1865.18v26.33c-1.27,0.09-2.55,0.19-3.84,0.27v-26.61c0-0.99,0.86-1.8,1.92-1.8
					C2080.13,1863.38,2080.99,1864.18,2080.99,1865.18z"/><path fill="#f09c23" d="M2099.16,1862.74v27.03c-1.27,0.14-2.55,0.28-3.84,0.42v-27.44c0-1.09,0.86-1.97,1.92-1.97
					C2098.3,1860.78,2099.16,1861.66,2099.16,1862.74z"/><path fill="#f09c23" d="M2117.04,1860.59v26.9c-1.26,0.19-2.54,0.37-3.84,0.55v-27.45c0-1.06,0.86-1.92,1.92-1.92
					C2116.18,1858.67,2117.04,1859.53,2117.04,1860.59z"/><path fill="#f09c23" d="M2136.04,1856.67v27.43c-1.25,0.27-2.53,0.53-3.84,0.79v-28.22c0-1.06,0.86-1.92,1.92-1.92
					S2136.04,1855.61,2136.04,1856.67z"/><path fill="#f09c23" d="M2154.38,1851.64v27.39c-1.21,0.44-2.49,0.88-3.84,1.31v-28.7c0-1.06,0.86-1.92,1.92-1.92
					C2153.52,1849.72,2154.38,1850.58,2154.38,1851.64z"/><g><path fill="#f8cd12" d="M2161.27,1826.78c0,0.32-0.04,0.64-0.11,0.95v0.09h-0.02c-0.81,3.26-5.4,6.37-13.08,9.2
				c-1.21,0.44-2.49,0.88-3.84,1.31c-4.17,1.33-9.03,2.58-14.5,3.75c-1.25,0.27-2.53,0.53-3.84,0.79c-4.67,0.92-9.74,1.79-15.16,2.6
				c-1.26,0.19-2.54,0.37-3.84,0.55c-4.47,0.62-9.15,1.2-14.04,1.74c-1.27,0.14-2.55,0.28-3.84,0.41c-4.62,0.48-9.4,0.91-14.32,1.3
				c-1.27,0.1-2.55,0.2-3.84,0.29c-4.92,0.37-9.98,0.69-15.16,0.97c-1.27,0.07-2.55,0.13-3.84,0.2c-4.59,0.23-9.28,0.42-14.04,0.58
				c-1.28,0.04-2.56,0.08-3.84,0.12c-5.19,0.15-10.47,0.25-15.83,0.32c-1.28,0.01-2.56,0.03-3.84,0.03
				c-2.26,0.02-4.53,0.02-6.81,0.02c-2.8,0-5.58-0.01-8.34-0.04c-1.28-0.01-2.56-0.02-3.84-0.04c-4.74-0.06-9.43-0.16-14.04-0.29
				c-1.29-0.03-2.57-0.07-3.84-0.12c-4.49-0.15-8.92-0.32-13.26-0.53c-1.29-0.06-2.57-0.13-3.84-0.2
				c-5.18-0.27-10.24-0.59-15.16-0.95c-1.29-0.09-2.57-0.19-3.84-0.29c-4.82-0.38-9.51-0.8-14.04-1.25
				c-1.29-0.13-2.58-0.26-3.84-0.4c-5.53-0.59-10.82-1.24-15.83-1.95c-1.3-0.18-2.58-0.37-3.84-0.56
				c-5.42-0.81-10.49-1.69-15.16-2.62c-1.31-0.26-2.59-0.53-3.84-0.8c-5.29-1.15-9.99-2.37-14.04-3.65
				c-1.35-0.43-2.64-0.87-3.84-1.31c-7.67-2.83-12.26-5.93-13.08-9.2h-0.02v-0.09c-0.07-0.32-0.11-0.63-0.11-0.95
				s0.04-0.64,0.11-0.95V1790c102.46,1.06,204.92,2.11,307.39,3.17v32.66C2161.23,1826.14,2161.27,1826.46,2161.27,1826.78z"/><ellipse cx="2007.47" cy="1791.45" fill="#f8ea14" rx="153.8" ry="25.23"/><path fill="#f09c23" d="M2146.38,1788.6c0,0.48-0.23,0.96-0.67,1.43c-6.91,7.29-66.16,12.99-138.23,12.99
				c-72.07,0-131.33-5.7-138.24-12.99c-0.45-0.47-0.67-0.95-0.67-1.43c0-7.96,62.19-14.41,138.91-14.41
				C2084.18,1774.18,2146.38,1780.64,2146.38,1788.6z"/><path fill="#f8cd12" d="M2145.7,1790.02c-6.91,7.29-66.16,12.99-138.23,12.99c-72.07,0-131.33-5.7-138.24-12.99
				c6.9-7.29,66.15-12.99,138.24-12.99C2079.55,1777.03,2138.8,1782.73,2145.7,1790.02z"/><path fill="#f09c23" d="M1870.72,1809.63v28.7c-1.35-0.43-2.64-0.87-3.84-1.31v-27.39c0-1.06,0.86-1.92,1.92-1.92
					C1869.86,1807.71,1870.72,1808.57,1870.72,1809.63z"/><path fill="#f09c23" d="M1888.6,1814.66v28.13c-1.31-0.26-2.59-0.53-3.84-0.8v-27.33c0-1.06,0.86-1.92,1.92-1.92
					C1887.74,1812.74,1888.6,1813.6,1888.6,1814.66z"/><path fill="#f09c23" d="M1907.59,1818.58v27.39c-1.3-0.18-2.58-0.37-3.84-0.56v-26.83c0-1.06,0.86-1.92,1.92-1.92
					C1906.73,1816.66,1907.59,1817.52,1907.59,1818.58z"/><path fill="#f09c23" d="M1927.27,1821.36v26.95c-1.29-0.13-2.58-0.26-3.84-0.4v-26.55c0-1.06,0.86-1.92,1.92-1.92
					C1926.41,1819.44,1927.27,1820.3,1927.27,1821.36z"/><path fill="#f09c23" d="M1945.15,1823.16v26.69c-1.29-0.09-2.57-0.18-3.84-0.27v-26.42c0-0.99,0.86-1.8,1.92-1.8
					C1944.29,1821.36,1945.15,1822.17,1945.15,1823.16z"/><path fill="#f09c23" d="M1964.14,1824.86v26.13c-1.29-0.06-2.57-0.11-3.84-0.17v-25.96c0-0.94,0.86-1.69,1.92-1.69
					C1963.29,1823.17,1964.14,1823.93,1964.14,1824.86z"/><path fill="#f09c23" d="M1981.24,1826.71v24.93c-1.29-0.03-2.57-0.07-3.84-0.1v-24.83c0-0.94,0.86-1.71,1.92-1.71
					S1981.24,1825.76,1981.24,1826.71z"/><path fill="#f09c23" d="M1999.12,1826.71v25.26c-1.28-0.01-2.56-0.02-3.84-0.04v-25.22c0-0.95,0.86-1.71,1.92-1.71
					C1998.26,1825,1999.12,1825.77,1999.12,1826.71z"/><path fill="#f09c23" d="M2018.12,1826.71v25.24c-1.28,0.01-2.56,0.02-3.84,0.03v-25.27c0-0.95,0.86-1.71,1.92-1.71
					C2017.26,1825,2018.12,1825.77,2018.12,1826.71z"/><path fill="#f09c23" d="M2037.79,1826.58v24.95c-1.28,0.03-2.56,0.07-3.84,0.1v-25.05c0-0.95,0.86-1.72,1.92-1.72
					S2037.79,1825.63,2037.79,1826.58z"/><path fill="#f09c23" d="M2055.68,1824.86v25.9c-1.27,0.06-2.55,0.12-3.84,0.17v-26.08c0-0.93,0.86-1.69,1.92-1.69
					C2054.82,1823.17,2055.68,1823.93,2055.68,1824.86z"/><path fill="#f09c23" d="M2074.67,1823.16v26.33c-1.27,0.09-2.55,0.19-3.84,0.27v-26.61c0-0.99,0.86-1.8,1.92-1.8
					C2073.81,1821.36,2074.67,1822.17,2074.67,1823.16z"/><path fill="#f09c23" d="M2092.84,1820.73v27.03c-1.27,0.14-2.55,0.28-3.84,0.42v-27.44c0-1.09,0.86-1.97,1.92-1.97
					C2091.98,1818.76,2092.84,1819.65,2092.84,1820.73z"/><path fill="#f09c23" d="M2110.72,1818.58v26.9c-1.26,0.19-2.54,0.37-3.84,0.55v-27.45c0-1.06,0.86-1.92,1.92-1.92
					S2110.72,1817.52,2110.72,1818.58z"/><path fill="#f09c23" d="M2129.72,1814.66v27.43c-1.25,0.27-2.53,0.53-3.84,0.79v-28.22c0-1.06,0.86-1.92,1.92-1.92
					S2129.72,1813.6,2129.72,1814.66z"/><path fill="#f09c23" d="M2148.06,1809.63v27.39c-1.21,0.44-2.49,0.88-3.84,1.31v-28.7c0-1.06,0.86-1.92,1.92-1.92
					C2147.2,1807.71,2148.06,1808.57,2148.06,1809.63z"/></g><g><path fill="#f8cd12" d="M2170,1782.42c0,0.32-0.04,0.64-0.11,0.95v0.09h-0.02c-0.81,3.26-5.4,6.37-13.08,9.2
				c-1.21,0.44-2.49,0.88-3.84,1.31c-4.17,1.33-9.03,2.58-14.5,3.75c-1.25,0.27-2.53,0.53-3.84,0.79c-4.67,0.92-9.74,1.79-15.16,2.6
				c-1.26,0.19-2.54,0.37-3.84,0.55c-4.47,0.62-9.15,1.2-14.04,1.74c-1.27,0.14-2.55,0.28-3.84,0.41c-4.62,0.48-9.4,0.91-14.32,1.3
				c-1.27,0.1-2.55,0.2-3.84,0.29c-4.92,0.37-9.98,0.69-15.16,0.97c-1.27,0.07-2.55,0.13-3.84,0.2c-4.59,0.23-9.28,0.42-14.04,0.58
				c-1.28,0.04-2.56,0.08-3.84,0.12c-5.19,0.15-10.47,0.25-15.83,0.32c-1.28,0.01-2.56,0.03-3.84,0.03
				c-2.26,0.02-4.53,0.02-6.81,0.02c-2.8,0-5.58-0.01-8.34-0.04c-1.28-0.01-2.56-0.02-3.84-0.04c-4.74-0.06-9.43-0.16-14.04-0.29
				c-1.29-0.03-2.57-0.07-3.84-0.11c-4.49-0.15-8.92-0.32-13.26-0.53c-1.29-0.06-2.57-0.13-3.84-0.2
				c-5.18-0.27-10.23-0.59-15.16-0.95c-1.29-0.09-2.57-0.19-3.84-0.29c-4.82-0.38-9.51-0.8-14.04-1.25
				c-1.29-0.13-2.58-0.26-3.84-0.4c-5.53-0.59-10.82-1.24-15.83-1.95c-1.3-0.18-2.58-0.37-3.84-0.56
				c-5.42-0.81-10.49-1.69-15.16-2.62c-1.31-0.26-2.59-0.53-3.84-0.8c-5.29-1.15-9.99-2.37-14.04-3.66
				c-1.35-0.43-2.64-0.87-3.84-1.31c-7.67-2.83-12.26-5.93-13.08-9.2h-0.02v-0.09c-0.07-0.31-0.11-0.63-0.11-0.95
				c0-0.32,0.04-0.64,0.11-0.95v-35.83c102.46,1.06,204.92,2.11,307.39,3.17v32.66C2169.97,1781.78,2170,1782.1,2170,1782.42z"/><ellipse cx="2016.2" cy="1747.1" fill="#f8ea14" rx="153.8" ry="25.23"/><path fill="#f09c23" d="M2155.11,1744.24c0,0.48-0.23,0.96-0.67,1.43c-6.91,7.29-66.16,12.99-138.23,12.99
				c-72.07,0-131.32-5.7-138.24-12.99c-0.45-0.47-0.67-0.95-0.67-1.43c0-7.96,62.19-14.41,138.91-14.41
				C2092.92,1729.83,2155.11,1736.28,2155.11,1744.24z"/><path fill="#f8cd12" d="M2154.44,1745.67c-6.91,7.29-66.16,12.99-138.23,12.99c-72.07,0-131.33-5.7-138.24-12.99
				c6.9-7.29,66.15-12.99,138.24-12.99C2088.28,1732.68,2147.54,1738.38,2154.44,1745.67z"/><path fill="#f09c23" d="M1879.45,1765.27v28.7c-1.35-0.43-2.64-0.87-3.84-1.31v-27.39c0-1.06,0.86-1.92,1.92-1.92
					C1878.59,1763.35,1879.45,1764.21,1879.45,1765.27z"/><path fill="#f09c23" d="M1897.33,1770.3v28.13c-1.31-0.26-2.59-0.53-3.84-0.8v-27.33c0-1.06,0.86-1.92,1.92-1.92
					C1896.47,1768.38,1897.33,1769.24,1897.33,1770.3z"/><path fill="#f09c23" d="M1916.33,1774.22v27.39c-1.3-0.18-2.58-0.37-3.84-0.56v-26.83c0-1.06,0.86-1.92,1.92-1.92
					C1915.47,1772.3,1916.33,1773.16,1916.33,1774.22z"/><path fill="#f09c23" d="M1936,1777.01v26.94c-1.29-0.13-2.58-0.26-3.84-0.4v-26.55c0-1.06,0.86-1.92,1.92-1.92
					S1936,1775.95,1936,1777.01z"/><path fill="#f09c23" d="M1953.88,1778.81v26.69c-1.29-0.09-2.57-0.18-3.84-0.27v-26.42c0-0.99,0.86-1.8,1.92-1.8
					C1953.02,1777.01,1953.88,1777.82,1953.88,1778.81z"/><path fill="#f09c23" d="M1972.88,1780.51v26.13c-1.29-0.06-2.57-0.11-3.84-0.17v-25.96c0-0.94,0.86-1.69,1.92-1.69
					C1972.02,1778.81,1972.88,1779.57,1972.88,1780.51z"/><path fill="#f09c23" d="M1989.98,1782.35v24.93c-1.29-0.03-2.57-0.07-3.84-0.1v-24.83c0-0.94,0.86-1.71,1.92-1.71
					C1989.12,1780.64,1989.98,1781.41,1989.98,1782.35z"/><path fill="#f09c23" d="M2007.86,1782.36v25.26c-1.28-0.01-2.56-0.02-3.84-0.04v-25.22c0-0.95,0.86-1.71,1.92-1.71
					C2007,1780.64,2007.86,1781.41,2007.86,1782.36z"/><path fill="#f09c23" d="M2026.86,1782.36v25.24c-1.28,0.01-2.56,0.02-3.84,0.03v-25.27c0-0.95,0.86-1.71,1.92-1.71
					C2026,1780.64,2026.86,1781.41,2026.86,1782.36z"/><path fill="#f09c23" d="M2046.53,1782.23v24.95c-1.28,0.04-2.56,0.07-3.84,0.1v-25.05c0-0.95,0.86-1.72,1.92-1.72
					C2045.67,1780.5,2046.53,1781.28,2046.53,1782.23z"/><path fill="#f09c23" d="M2064.41,1780.51v25.9c-1.27,0.06-2.55,0.12-3.84,0.17v-26.08c0-0.94,0.86-1.69,1.92-1.69
					C2063.55,1778.81,2064.41,1779.57,2064.41,1780.51z"/><path fill="#f09c23" d="M2083.41,1778.81v26.33c-1.27,0.09-2.55,0.19-3.84,0.27v-26.61c0-0.99,0.86-1.8,1.92-1.8
					C2082.55,1777.01,2083.41,1777.81,2083.41,1778.81z"/><path fill="#f09c23" d="M2101.57,1776.38v27.03c-1.27,0.14-2.55,0.28-3.84,0.42v-27.44c0-1.09,0.86-1.97,1.92-1.97
					C2100.71,1774.41,2101.57,1775.29,2101.57,1776.38z"/><path fill="#f09c23" d="M2119.45,1774.22v26.9c-1.26,0.19-2.54,0.37-3.84,0.55v-27.45c0-1.06,0.86-1.92,1.92-1.92
					C2118.59,1772.3,2119.45,1773.16,2119.45,1774.22z"/><path fill="#f09c23" d="M2138.45,1770.3v27.43c-1.25,0.27-2.53,0.53-3.84,0.79v-28.22c0-1.06,0.86-1.92,1.92-1.92
					C2137.59,1768.38,2138.45,1769.24,2138.45,1770.3z"/><path fill="#f09c23" d="M2156.79,1765.27v27.39c-1.21,0.44-2.49,0.88-3.84,1.31v-28.7c0-1.06,0.86-1.92,1.92-1.92
					C2155.93,1763.35,2156.79,1764.21,2156.79,1765.27z"/></g><g><path fill="#f8cd12" d="M2193.32,1739.06c0,0.32-0.04,0.64-0.11,0.95v0.09h-0.02c-0.81,3.26-5.4,6.37-13.08,9.2
				c-1.21,0.44-2.49,0.88-3.84,1.31c-4.17,1.33-9.03,2.58-14.5,3.75c-1.25,0.27-2.53,0.53-3.84,0.79c-4.67,0.92-9.74,1.79-15.16,2.6
				c-1.26,0.19-2.54,0.37-3.84,0.55c-4.47,0.62-9.16,1.2-14.04,1.74c-1.27,0.14-2.55,0.28-3.84,0.41c-4.62,0.48-9.4,0.91-14.32,1.3
				c-1.27,0.1-2.55,0.2-3.84,0.29c-4.92,0.37-9.98,0.69-15.16,0.97c-1.27,0.07-2.55,0.13-3.84,0.2c-4.59,0.23-9.28,0.42-14.04,0.58
				c-1.28,0.04-2.56,0.08-3.84,0.11c-5.19,0.15-10.47,0.25-15.83,0.32c-1.28,0.01-2.56,0.03-3.84,0.03
				c-2.26,0.02-4.53,0.02-6.81,0.02c-2.8,0-5.58-0.01-8.34-0.04c-1.28-0.01-2.56-0.02-3.84-0.04c-4.74-0.06-9.43-0.16-14.04-0.29
				c-1.29-0.03-2.57-0.07-3.84-0.12c-4.49-0.15-8.92-0.32-13.26-0.53c-1.29-0.06-2.57-0.13-3.84-0.2
				c-5.18-0.27-10.23-0.59-15.16-0.95c-1.29-0.09-2.57-0.19-3.84-0.29c-4.82-0.38-9.51-0.8-14.04-1.25
				c-1.29-0.13-2.58-0.26-3.84-0.4c-5.53-0.59-10.82-1.25-15.83-1.95c-1.3-0.18-2.58-0.37-3.84-0.56
				c-5.42-0.81-10.49-1.69-15.16-2.62c-1.31-0.26-2.59-0.53-3.84-0.8c-5.29-1.15-9.99-2.37-14.04-3.65
				c-1.35-0.43-2.64-0.87-3.84-1.31c-7.67-2.83-12.26-5.93-13.08-9.2h-0.02v-0.09c-0.07-0.32-0.11-0.63-0.11-0.95
				c0-0.32,0.04-0.64,0.11-0.95v-35.83c102.46,1.06,204.92,2.11,307.39,3.17v32.66C2193.28,1738.42,2193.32,1738.74,2193.32,1739.06
				z"/><ellipse cx="2039.52" cy="1703.73" fill="#f8ea14" rx="153.8" ry="25.23"/><path fill="#f09c23" d="M2178.43,1700.88c0,0.48-0.23,0.96-0.67,1.43c-6.91,7.29-66.16,12.99-138.23,12.99
				c-72.07,0-131.33-5.7-138.24-12.99c-0.45-0.47-0.67-0.95-0.67-1.43c0-7.96,62.19-14.41,138.91-14.41
				C2116.24,1686.47,2178.43,1692.92,2178.43,1700.88z"/><path fill="#f8cd12" d="M2177.75,1702.31c-6.91,7.29-66.16,12.99-138.23,12.99c-72.07,0-131.33-5.7-138.24-12.99
				c6.9-7.29,66.15-12.99,138.24-12.99C2111.6,1689.32,2170.85,1695.02,2177.75,1702.31z"/><path fill="#f09c23" d="M1902.77,1721.91v28.7c-1.35-0.43-2.64-0.87-3.84-1.31v-27.39c0-1.06,0.86-1.92,1.92-1.92
					C1901.91,1719.99,1902.77,1720.85,1902.77,1721.91z"/><path fill="#f09c23" d="M1920.65,1726.94v28.13c-1.31-0.26-2.59-0.53-3.84-0.8v-27.33c0-1.06,0.86-1.92,1.92-1.92
					S1920.65,1725.88,1920.65,1726.94z"/><path fill="#f09c23" d="M1939.65,1730.86v27.39c-1.3-0.18-2.58-0.37-3.84-0.56v-26.83c0-1.06,0.86-1.92,1.92-1.92
					C1938.79,1728.94,1939.65,1729.8,1939.65,1730.86z"/><path fill="#f09c23" d="M1959.32,1733.65v26.95c-1.29-0.13-2.58-0.26-3.84-0.4v-26.55c0-1.06,0.86-1.92,1.92-1.92
					C1958.46,1731.73,1959.32,1732.59,1959.32,1733.65z"/><path fill="#f09c23" d="M1977.2,1735.45v26.69c-1.29-0.09-2.57-0.18-3.84-0.27v-26.42c0-0.99,0.86-1.8,1.92-1.8
					C1976.34,1733.65,1977.2,1734.45,1977.2,1735.45z"/><path fill="#f09c23" d="M1996.2,1737.15v26.13c-1.29-0.06-2.57-0.11-3.84-0.17v-25.96c0-0.94,0.86-1.69,1.92-1.69
					C1995.34,1735.45,1996.2,1736.21,1996.2,1737.15z"/><path fill="#f09c23" d="M2013.3,1738.99v24.93c-1.29-0.03-2.57-0.07-3.84-0.1v-24.83c0-0.95,0.86-1.71,1.92-1.71
					C2012.44,1737.28,2013.3,1738.05,2013.3,1738.99z"/><path fill="#f09c23" d="M2031.18,1739v25.26c-1.28-0.01-2.56-0.02-3.84-0.04V1739c0-0.95,0.86-1.71,1.92-1.71
					C2030.32,1737.28,2031.18,1738.05,2031.18,1739z"/><path fill="#f09c23" d="M2050.17,1739v25.24c-1.28,0.01-2.56,0.02-3.84,0.03V1739c0-0.95,0.86-1.71,1.92-1.71
					C2049.32,1737.28,2050.17,1738.05,2050.17,1739z"/><path fill="#f09c23" d="M2069.85,1738.86v24.95c-1.28,0.04-2.56,0.07-3.84,0.1v-25.05c0-0.95,0.86-1.72,1.92-1.72
					S2069.85,1737.91,2069.85,1738.86z"/><path fill="#f09c23" d="M2087.73,1737.15v25.9c-1.27,0.06-2.55,0.12-3.84,0.17v-26.08c0-0.94,0.86-1.69,1.92-1.69
					C2086.87,1735.45,2087.73,1736.21,2087.73,1737.15z"/><path fill="#f09c23" d="M2106.73,1735.45v26.33c-1.27,0.09-2.55,0.19-3.84,0.27v-26.61c0-0.99,0.86-1.8,1.92-1.8
					C2105.87,1733.65,2106.73,1734.45,2106.73,1735.45z"/><path fill="#f09c23" d="M2124.89,1733.01v27.03c-1.27,0.14-2.55,0.28-3.84,0.42v-27.44c0-1.09,0.86-1.97,1.92-1.97
					C2124.03,1731.05,2124.89,1731.93,2124.89,1733.01z"/><path fill="#f09c23" d="M2142.77,1730.86v26.9c-1.26,0.19-2.54,0.37-3.84,0.55v-27.45c0-1.06,0.86-1.92,1.92-1.92
					C2141.91,1728.94,2142.77,1729.8,2142.77,1730.86z"/><path fill="#f09c23" d="M2161.77,1726.94v27.43c-1.25,0.27-2.53,0.53-3.84,0.79v-28.22c0-1.06,0.86-1.92,1.92-1.92
					S2161.77,1725.88,2161.77,1726.94z"/><path fill="#f09c23" d="M2180.11,1721.91v27.39c-1.21,0.44-2.49,0.88-3.84,1.31v-28.7c0-1.06,0.86-1.92,1.92-1.92
					S2180.11,1720.85,2180.11,1721.91z"/></g><g><path fill="#f8cd12" d="M2164.99,1698.51c0,0.32-0.04,0.64-0.11,0.95v0.09h-0.02c-0.81,3.26-5.4,6.37-13.08,9.2
				c-1.21,0.44-2.49,0.88-3.84,1.31c-4.17,1.33-9.03,2.58-14.5,3.75c-1.25,0.27-2.53,0.53-3.84,0.79c-4.67,0.92-9.74,1.79-15.16,2.6
				c-1.26,0.19-2.54,0.37-3.84,0.55c-4.47,0.62-9.15,1.2-14.04,1.74c-1.27,0.14-2.55,0.28-3.84,0.41c-4.62,0.48-9.4,0.91-14.32,1.3
				c-1.27,0.1-2.55,0.2-3.84,0.29c-4.92,0.37-9.98,0.69-15.16,0.97c-1.27,0.07-2.55,0.13-3.84,0.2c-4.59,0.23-9.28,0.42-14.04,0.58
				c-1.28,0.04-2.56,0.08-3.84,0.12c-5.19,0.15-10.47,0.25-15.83,0.32c-1.28,0.01-2.56,0.03-3.84,0.03
				c-2.26,0.02-4.53,0.02-6.81,0.02c-2.8,0-5.58-0.01-8.34-0.04c-1.28-0.01-2.56-0.02-3.84-0.04c-4.74-0.06-9.43-0.16-14.04-0.29
				c-1.29-0.03-2.57-0.07-3.84-0.12c-4.49-0.15-8.92-0.32-13.26-0.53c-1.29-0.06-2.57-0.13-3.84-0.2
				c-5.18-0.27-10.23-0.59-15.16-0.95c-1.29-0.09-2.57-0.19-3.84-0.29c-4.82-0.38-9.51-0.8-14.04-1.25
				c-1.29-0.13-2.58-0.26-3.84-0.4c-5.53-0.59-10.82-1.25-15.83-1.95c-1.3-0.18-2.58-0.37-3.84-0.56
				c-5.42-0.81-10.49-1.69-15.16-2.62c-1.31-0.26-2.59-0.53-3.84-0.8c-5.29-1.15-9.99-2.37-14.04-3.65
				c-1.35-0.43-2.64-0.87-3.84-1.31c-7.67-2.83-12.26-5.93-13.08-9.2h-0.02v-0.09c-0.07-0.32-0.11-0.63-0.11-0.95
				c0-0.32,0.04-0.64,0.11-0.95v-35.83c102.46,1.06,204.92,2.11,307.39,3.17v32.66C2164.96,1697.87,2164.99,1698.19,2164.99,1698.51
				z"/><ellipse cx="2011.19" cy="1663.19" fill="#f8ea14" rx="153.8" ry="25.23"/><path fill="#f09c23" d="M2150.1,1660.33c0,0.48-0.23,0.96-0.67,1.43c-6.91,7.29-66.16,12.99-138.23,12.99
				c-72.07,0-131.33-5.7-138.24-12.99c-0.45-0.47-0.67-0.95-0.67-1.43c0-7.96,62.19-14.41,138.91-14.41
				C2087.91,1645.92,2150.1,1652.37,2150.1,1660.33z"/><path fill="#f8cd12" d="M2149.43,1661.76c-6.91,7.29-66.16,12.99-138.23,12.99c-72.07,0-131.33-5.7-138.24-12.99
				c6.9-7.29,66.15-12.99,138.24-12.99C2083.27,1648.77,2142.53,1654.47,2149.43,1661.76z"/><path fill="#f09c23" d="M1874.44,1681.37v28.7c-1.35-0.43-2.64-0.87-3.84-1.31v-27.39c0-1.06,0.86-1.92,1.92-1.92
					C1873.58,1679.44,1874.44,1680.31,1874.44,1681.37z"/><path fill="#f09c23" d="M1892.32,1686.39v28.13c-1.31-0.26-2.59-0.53-3.84-0.8v-27.33c0-1.06,0.86-1.92,1.92-1.92
					C1891.46,1684.48,1892.32,1685.33,1892.32,1686.39z"/><path fill="#f09c23" d="M1911.32,1690.31v27.39c-1.3-0.18-2.58-0.37-3.84-0.56v-26.83c0-1.06,0.86-1.92,1.92-1.92
					C1910.46,1688.39,1911.32,1689.25,1911.32,1690.31z"/><path fill="#f09c23" d="M1930.99,1693.1v26.95c-1.29-0.13-2.58-0.26-3.84-0.4v-26.55c0-1.06,0.86-1.92,1.92-1.92
					C1930.13,1691.18,1930.99,1692.04,1930.99,1693.1z"/><path fill="#f09c23" d="M1948.87,1694.9v26.69c-1.29-0.09-2.57-0.18-3.84-0.27v-26.42c0-0.99,0.86-1.8,1.92-1.8
					C1948.01,1693.1,1948.87,1693.91,1948.87,1694.9z"/><path fill="#f09c23" d="M1967.87,1696.6v26.13c-1.29-0.06-2.57-0.11-3.84-0.17v-25.96c0-0.94,0.86-1.69,1.92-1.69
					C1967.01,1694.9,1967.87,1695.66,1967.87,1696.6z"/><path fill="#f09c23" d="M1984.97,1698.45v24.93c-1.29-0.03-2.57-0.07-3.84-0.1v-24.83c0-0.94,0.86-1.71,1.92-1.71
					C1984.11,1696.73,1984.97,1697.5,1984.97,1698.45z"/><path fill="#f09c23" d="M2002.85,1698.45v25.26c-1.28-0.01-2.56-0.02-3.84-0.04v-25.22c0-0.95,0.86-1.71,1.92-1.71
					C2001.99,1696.73,2002.85,1697.5,2002.85,1698.45z"/><path fill="#f09c23" d="M2021.85,1698.45v25.24c-1.28,0.01-2.56,0.02-3.84,0.03v-25.27c0-0.95,0.86-1.71,1.92-1.71
					C2020.99,1696.73,2021.85,1697.5,2021.85,1698.45z"/><path fill="#f09c23" d="M2041.52,1698.32v24.95c-1.28,0.04-2.56,0.07-3.84,0.1v-25.05c0-0.95,0.86-1.72,1.92-1.72
					S2041.52,1697.37,2041.52,1698.32z"/><path fill="#f09c23" d="M2059.4,1696.6v25.9c-1.27,0.06-2.55,0.12-3.84,0.17v-26.08c0-0.94,0.86-1.69,1.92-1.69
					C2058.54,1694.9,2059.4,1695.66,2059.4,1696.6z"/><path fill="#f09c23" d="M2078.4,1694.9v26.33c-1.27,0.09-2.55,0.19-3.84,0.27v-26.61c0-0.99,0.86-1.8,1.92-1.8
					C2077.54,1693.1,2078.4,1693.91,2078.4,1694.9z"/><path fill="#f09c23" d="M2096.56,1692.47v27.03c-1.27,0.14-2.55,0.28-3.84,0.42v-27.44c0-1.09,0.86-1.97,1.92-1.97
					C2095.71,1690.5,2096.56,1691.38,2096.56,1692.47z"/><path fill="#f09c23" d="M2114.45,1690.31v26.9c-1.26,0.19-2.54,0.37-3.84,0.55v-27.45c0-1.06,0.86-1.92,1.92-1.92
					C2113.58,1688.39,2114.45,1689.25,2114.45,1690.31z"/><path fill="#f09c23" d="M2133.44,1686.39v27.43c-1.25,0.27-2.53,0.53-3.84,0.79v-28.22c0-1.06,0.86-1.92,1.92-1.92
					C2132.58,1684.48,2133.44,1685.33,2133.44,1686.39z"/><path fill="#f09c23" d="M2151.79,1681.37v27.39c-1.21,0.44-2.49,0.88-3.84,1.31v-28.7c0-1.06,0.86-1.92,1.92-1.92
					S2151.79,1680.31,2151.79,1681.37z"/></g><g><path fill="#f8cd12" d="M2174.4,1658.49c0,0.32-0.04,0.64-0.11,0.95v0.09h-0.02c-0.81,3.26-5.4,6.37-13.08,9.2
				c-1.21,0.44-2.49,0.88-3.84,1.31c-4.17,1.33-9.03,2.58-14.5,3.76c-1.25,0.27-2.53,0.53-3.84,0.79c-4.67,0.92-9.74,1.79-15.16,2.6
				c-1.26,0.19-2.54,0.37-3.84,0.55c-4.47,0.62-9.15,1.2-14.04,1.74c-1.27,0.14-2.55,0.28-3.84,0.41c-4.62,0.48-9.4,0.91-14.32,1.3
				c-1.27,0.1-2.55,0.2-3.84,0.29c-4.92,0.37-9.98,0.69-15.16,0.97c-1.27,0.07-2.55,0.13-3.84,0.2c-4.59,0.23-9.28,0.42-14.04,0.58
				c-1.28,0.04-2.56,0.08-3.84,0.12c-5.19,0.15-10.47,0.25-15.83,0.32c-1.28,0.01-2.56,0.03-3.84,0.03
				c-2.26,0.02-4.53,0.02-6.81,0.02c-2.8,0-5.58-0.01-8.34-0.04c-1.28-0.01-2.56-0.02-3.84-0.04c-4.74-0.06-9.43-0.16-14.04-0.29
				c-1.29-0.03-2.57-0.07-3.84-0.12c-4.49-0.15-8.92-0.32-13.26-0.53c-1.29-0.06-2.57-0.13-3.84-0.2
				c-5.18-0.27-10.23-0.59-15.16-0.95c-1.29-0.09-2.57-0.19-3.84-0.29c-4.82-0.38-9.51-0.8-14.04-1.25
				c-1.29-0.13-2.57-0.26-3.84-0.4c-5.53-0.59-10.82-1.25-15.83-1.95c-1.3-0.18-2.58-0.37-3.84-0.56
				c-5.42-0.81-10.49-1.69-15.16-2.62c-1.31-0.26-2.59-0.53-3.84-0.8c-5.29-1.15-9.99-2.37-14.04-3.66
				c-1.35-0.43-2.64-0.87-3.84-1.31c-7.67-2.83-12.26-5.93-13.08-9.2h-0.02v-0.09c-0.07-0.32-0.11-0.63-0.11-0.95
				s0.04-0.64,0.11-0.95v-35.83c102.46,1.06,204.92,2.11,307.39,3.17v32.66C2174.36,1657.85,2174.4,1658.17,2174.4,1658.49z"/><ellipse cx="2020.6" cy="1623.16" fill="#f8ea14" rx="153.8" ry="25.23"/><path fill="#f09c23" d="M2159.51,1620.31c0,0.48-0.23,0.96-0.67,1.43c-6.91,7.29-66.16,12.99-138.23,12.99
				c-72.07,0-131.32-5.7-138.24-12.99c-0.45-0.47-0.67-0.95-0.67-1.43c0-7.96,62.19-14.41,138.91-14.41
				C2097.31,1605.9,2159.51,1612.35,2159.51,1620.31z"/><path fill="#f8cd12" d="M2158.83,1621.74c-6.91,7.29-66.16,12.99-138.23,12.99c-72.07,0-131.33-5.7-138.24-12.99
				c6.9-7.29,66.15-12.99,138.24-12.99C2092.68,1608.75,2151.93,1614.45,2158.83,1621.74z"/><path fill="#f09c23" d="M1883.85,1641.34v28.7c-1.35-0.43-2.64-0.87-3.84-1.31v-27.39c0-1.06,0.86-1.92,1.92-1.92
					C1882.99,1639.42,1883.85,1640.28,1883.85,1641.34z"/><path fill="#f09c23" d="M1901.73,1646.37v28.13c-1.31-0.26-2.59-0.53-3.84-0.8v-27.33c0-1.06,0.86-1.92,1.92-1.92
					S1901.73,1645.31,1901.73,1646.37z"/><path fill="#f09c23" d="M1920.72,1650.29v27.39c-1.3-0.18-2.58-0.37-3.84-0.56v-26.83c0-1.06,0.86-1.92,1.92-1.92
					C1919.86,1648.37,1920.72,1649.23,1920.72,1650.29z"/><path fill="#f09c23" d="M1940.4,1653.08v26.95c-1.29-0.13-2.57-0.26-3.84-0.4v-26.55c0-1.06,0.86-1.92,1.92-1.92
					S1940.4,1652.02,1940.4,1653.08z"/><path fill="#f09c23" d="M1958.28,1654.88v26.69c-1.29-0.09-2.57-0.18-3.84-0.27v-26.42c0-0.99,0.86-1.8,1.92-1.8
					C1957.42,1653.08,1958.28,1653.88,1958.28,1654.88z"/><path fill="#f09c23" d="M1977.27,1656.58v26.13c-1.29-0.06-2.57-0.11-3.84-0.17v-25.96c0-0.94,0.86-1.69,1.92-1.69
					C1976.42,1654.88,1977.27,1655.64,1977.27,1656.58z"/><path fill="#f09c23" d="M1994.37,1658.42v24.93c-1.29-0.03-2.57-0.07-3.84-0.1v-24.83c0-0.94,0.86-1.71,1.92-1.71
					S1994.37,1657.48,1994.37,1658.42z"/><path fill="#f09c23" d="M2012.25,1658.43v25.26c-1.28-0.01-2.56-0.02-3.84-0.04v-25.22c0-0.95,0.86-1.71,1.92-1.71
					C2011.39,1656.71,2012.25,1657.48,2012.25,1658.43z"/><path fill="#f09c23" d="M2031.25,1658.43v25.24c-1.28,0.01-2.56,0.02-3.84,0.03v-25.27c0-0.95,0.86-1.71,1.92-1.71
					C2030.39,1656.71,2031.25,1657.48,2031.25,1658.43z"/><path fill="#f09c23" d="M2050.92,1658.29v24.95c-1.28,0.03-2.56,0.07-3.84,0.1v-25.05c0-0.95,0.86-1.72,1.92-1.72
					C2050.06,1656.57,2050.92,1657.34,2050.92,1658.29z"/><path fill="#f09c23" d="M2068.81,1656.58v25.9c-1.27,0.06-2.55,0.12-3.84,0.17v-26.08c0-0.93,0.86-1.69,1.92-1.69
					C2067.95,1654.88,2068.81,1655.64,2068.81,1656.58z"/><path fill="#f09c23" d="M2087.8,1654.88v26.33c-1.27,0.09-2.55,0.19-3.84,0.27v-26.61c0-0.99,0.86-1.8,1.92-1.8
					C2086.94,1653.08,2087.8,1653.88,2087.8,1654.88z"/><path fill="#f09c23" d="M2105.97,1652.44v27.03c-1.27,0.14-2.55,0.28-3.84,0.42v-27.44c0-1.09,0.86-1.97,1.92-1.97
					C2105.11,1650.48,2105.97,1651.36,2105.97,1652.44z"/><path fill="#f09c23" d="M2123.85,1650.29v26.9c-1.26,0.19-2.54,0.37-3.84,0.55v-27.45c0-1.06,0.86-1.92,1.92-1.92
					S2123.85,1649.23,2123.85,1650.29z"/><path fill="#f09c23" d="M2142.85,1646.37v27.43c-1.25,0.27-2.53,0.53-3.84,0.79v-28.22c0-1.06,0.86-1.92,1.92-1.92
					C2141.99,1644.45,2142.85,1645.31,2142.85,1646.37z"/><path fill="#f09c23" d="M2161.19,1641.34v27.39c-1.21,0.44-2.49,0.88-3.84,1.31v-28.7c0-1.06,0.86-1.92,1.92-1.92
					C2160.33,1639.42,2161.19,1640.28,2161.19,1641.34z"/></g><path fill="#fff" d="M2153.36,1715.3c-34.23,2.22-36.03,4.01-38.25,38.25c-2.22-34.23-4.01-36.03-38.25-38.25
			c34.23-2.22,36.03-4.01,38.25-38.25C2117.33,1711.28,2119.13,1713.08,2153.36,1715.3z"/><path fill="#fff" d="M2047.76,1820.9c-34.23,2.22-36.03,4.01-38.25,38.25c-2.22-34.23-4.02-36.03-38.25-38.25
			c34.23-2.22,36.03-4.01,38.25-38.25C2011.73,1816.88,2013.53,1818.68,2047.76,1820.9z"/><path fill="#fff" d="M1965.51,1645.92c-34.23,2.22-36.03,4.01-38.25,38.25c-2.22-34.23-4.01-36.03-38.25-38.25
			c34.23-2.22,36.03-4.02,38.25-38.25C1929.48,1641.9,1931.28,1643.7,1965.51,1645.92z"/></g><g><path fill="#f7cd23" d="M1968.77,1035.4c-4.15,0.12-14.87-24.73-6.12-41.65c12.47-24.11,62.52-28.35,82.13-8.61
			c14.2,14.29,1.61,30.13,15.12,52.93c19.36,32.67,61.07,24.81,65.74,44.74c5.27,22.46-39.37,66.8-74.29,55.87
			c-20.5-6.42-33.76-29.93-36.19-49.56c-3.48-28.08,14.58-52.62,6.96-57.98c-4.02-2.82-8.7,4.22-19.2,2.35
			c-13.54-2.42-18.54-14.94-25.39-12.8C1971.07,1022.69,1971.71,1035.32,1968.77,1035.4z"/><path fill="#ffcdad" d="M2007.45,1554.93c2.57,10.09,6.5,13.52,7.19,21.3c0.94,10.43-4.82,18.86-7.87,23.34
			c-17.02,24.96-58.93,22.52-61.45,22.34c37.77-24.78,44.78-43.02,43.83-55.32c-0.9-11.59-9.24-22.66-4.02-29.53
			c4.11-5.41,14.01-4.76,21.05-3.6C2005.57,1538.45,2005.21,1546.13,2007.45,1554.93z"/><path fill="#dfe6ff" d="M2009.77,1562.63c-5.47,0.13-6.09,13.76-14.17,25.73c-5.66,8.38-16.72,18.52-40.7,23.91
			c-8.25,0.55-27.25,2.3-28.13,8.25c-0.63,4.25,8.19,9.22,14.16,11.32c15.6,5.48,30.97-1.95,37.17-4.95
			c5.04-2.44,13.01-7.08,20.88-15.67c1.12,5.44,2.23,10.88,3.35,16.32c0.18,0.23,1.59,1.88,3.74,1.82c2.07-0.06,3.98-1.68,4.53-4
			c0-2.52,0.17-5.33,0.62-8.38c1.03-6.85,3.16-12.44,5.15-16.54c1.64-3.11,5.65-11.72,3.43-22.12
			C2018.49,1572.19,2014.41,1562.52,2009.77,1562.63z"/><path fill="#ffcdad" d="M2093.64,1554.94c2.57,10.09,6.49,13.53,7.18,21.3c0.94,10.43-4.8,18.86-7.84,23.34
			c-16.98,24.96-58.81,22.5-61.32,22.32c37.69-24.77,44.68-43.01,43.73-55.31c-0.9-11.59-9.23-22.66-4.02-29.53
			c4.1-5.41,13.99-4.76,21.01-3.6C2091.75,1538.46,2091.4,1546.14,2093.64,1554.94z"/><path fill="#fff" d="M2095.96,1562.64c-5.46,0.13-6.08,13.76-14.14,25.72c-5.65,8.38-16.69,18.51-40.61,23.9
			c-8.24,0.55-27.2,2.29-28.08,8.24c-0.63,4.25,8.18,9.23,14.14,11.32c15.57,5.48,30.9-1.95,37.09-4.94
			c5.03-2.44,12.98-7.07,20.84-15.67c1.11,5.44,2.23,10.88,3.34,16.32c0.18,0.23,1.58,1.88,3.73,1.82c2.07-0.06,3.97-1.68,4.52-4
			c0-2.52,0.17-5.33,0.62-8.38c1.02-6.85,3.15-12.44,5.14-16.54c1.64-3.11,5.63-11.72,3.41-22.12
			C2104.66,1572.21,2100.58,1562.53,2095.96,1562.64z"/><path fill="#dfe6ff" d="M1981.79,1260.99c-8.53,29.12-16.15,64.34-19.51,104.65c-6.58,78.96,5.93,144.9,18.62,189.79
			c2.07,1.2,7.87,4.19,15.72,3.58c8.12-0.63,13.5-4.73,15.32-6.24c-7.83-33.11-14.88-82.81-2.66-139.24
			c19.52-90.14,75.82-140.3,54.1-170.28c-11.19-15.44-40.77-22.35-60.31-11.53C1988.97,1239.53,1983.63,1254.61,1981.79,1260.99z"/><path fill="#fff" d="M2015.74,1266.63c-3.04,30.19-4.07,66.21,0.03,106.46c8.03,78.82,32.43,141.35,53.14,183.15
			c2.29,0.8,8.44,2.62,15.95,0.66c7.95-2.08,12.56-7.14,14.08-8.97c-13.78-31.11-29.82-78.68-28.17-136.39
			c2.64-92.19,48.79-151.83,21.93-177.32c-13.83-13.13-44.18-14.49-61.4-0.26C2018.86,1244.21,2016.37,1260.02,2015.74,1266.63z"/><path fill="#f9a5c7" d="M1977.51,1089.12c-15.64,20.97,3.76,49.01,8.58,100.99c2.63,28.31-0.25,51.57-2.75,65.78
			c5.1,4.78,23.29,20.66,51.01,21.96c38.51,1.8,62.83-26.03,65.77-29.52c-5.55-80.1-26.13-141.28-53.44-161.49
			c-6.51-4.82-19.54-14.53-36.86-13.37C2006.79,1073.66,1987.82,1075.3,1977.51,1089.12z"/><path fill="#ffcdad" d="M1990.14,1061.85c-0.68,2.35-0.55,12.16,2.02,23.73c1.43,6.45,7.29,10.91,13.63,10.6
			c6.79-0.33,12.42-6.05,12.62-13.13c0.37-12.71,1.22-23.09,0-26.76c-2.65-7.95-6.98-13.42-9.75-16.41
			C2005.98,1041.3,1994.18,1047.88,1990.14,1061.85z"/><path fill="#f9d5c0" d="M1975.22,1017.13c-4.36,1.5-5.22,8.52-6.53,13.92c-1.07,4.42-7.02,29.01,7.39,38.93
			c10.54,7.25,25.73,1.76,33.93-3.92c14.27-9.89,21.22-29.99,15.5-36.42c-5.13-5.78-16.38,4.09-32.01-2.77
			C1983.89,1022.64,1980.2,1015.41,1975.22,1017.13z"/><path fill="#fff" d="M1977.47,1063.35c2.91,0.64,7.71,1.25,13.43-0.12c4.11-0.98,7.36-2.67,9.59-4.08
			c-0.4,1.07-2.54,6.49-7.79,8.7C1987.57,1070.02,1981.54,1068.25,1977.47,1063.35z"/><path fill="#66f" d="M2014.37,1072.46"/><path fill="#2c7efe" d="M1859.79,995.69l98.67,28.8c0.84,1.07,3.11,4.26,2.49,8.27c-0.6,3.89-3.56,6.24-4.68,7.04
					c-34.26-0.02-68.52-0.04-102.79-0.06L1859.79,995.69z"/><ellipse cx="1857.62" cy="1017.85" fill="#0643a3" rx="22.35" ry="13.5" transform="rotate(-81.842 1857.685 1017.81)"/><ellipse cx="1857.48" cy="1018.79" fill="#2c7efe" rx="18.83" ry="11.38" transform="rotate(-81.848 1857.405 1018.803)"/><path fill="#62cbec" d="M1860.42,998.28c6.22,0.89,10.06,9.96,8.59,20.25c-1.48,10.29-7.71,17.92-13.93,17.02
						c-6.22-0.89-10.06-9.96-8.59-20.25C1847.97,1005.01,1854.2,997.39,1860.42,998.28z"/><path fill="#2c7efe" d="M1897.18,1006.18l85.71,25.02c3.88,1.13,6.51,4.84,6.09,8.86c-0.02,0.15-0.03,0.3-0.06,0.45
				c-0.02,0.14-0.05,0.28-0.07,0.41c-0.79,3.9-4.32,6.63-8.3,6.63c-29.76-0.02-59.53-0.04-89.29-0.05c-5.17,0-9.15-4.59-8.41-9.71
				l3.53-24.65C1887.11,1008.01,1892.21,1004.73,1897.18,1006.18z"/><path fill="#0643a3" d="M1888.76,1003.48c7.38,1.06,11.95,11.82,10.2,24.04c-1.75,12.22-9.16,21.27-16.54,20.21
				c-7.38-1.06-11.95-11.82-10.2-24.04C1873.98,1011.47,1881.38,1002.42,1888.76,1003.48z"/><g><path fill="#2c7efe" d="M1888.13,1007.9c6.22,0.89,10.07,9.96,8.59,20.25c-1.47,10.29-7.71,17.92-13.93,17.02
					c-6.22-0.89-10.06-9.96-8.59-20.25C1875.67,1014.63,1881.91,1007.01,1888.13,1007.9z"/><path fill="#62cbec" d="M1888.4,1006.02c6.22,0.89,10.06,9.96,8.59,20.25c-1.48,10.29-7.71,17.92-13.93,17.02
					c-6.22-0.89-10.06-9.96-8.59-20.25C1875.94,1012.75,1882.18,1005.13,1888.4,1006.02z"/></g><path fill="#ffcdad" d="M1916.2,1077.42c-3.34-2.09-1.56-5.79-5.35-14.38c-1.65-3.75-3.53-6.61-5.53-9.65
			c-4.18-6.36-5.53-6.7-6.87-10.26c-0.57-1.52-2.14-6.28-0.75-11.86c1.44-5.79,5.82-11.5,12.08-13.76
			c9.14-3.29,20.43,1.47,23.95,8.71c4.62,9.53-7.49,16.3-5.27,34.55c0.8,6.61,3.06,10.97,0.31,14.49
			C1926.11,1078.65,1919.9,1079.74,1916.2,1077.42z"/><path fill="#f98cb6" d="M1930.09,1061.88c10.76,36.12,24.65,46.73,35.54,49.59c28.34,7.44,55.53-32.58,80.34-20.62
			c7.99,3.85,14.47,12.48,14.49,20.76c0.04,24.08-54.58,59.2-99.89,44.01c-33.44-11.22-56.81-48.18-55.59-90.84
			c0.73-0.88,5.77-6.74,14-6.76C1924.75,1058,1928.78,1060.85,1930.09,1061.88z"/></g><g><path fill="#2c7efe" d="M717.94,553.33l-30.13-47.47l99.29-63.01l30.13,47.47L717.94,553.33z M704.08,509.5l17.49,27.56
				l79.38-50.38l-17.49-27.56L704.08,509.5z"/><path fill="#2c7efe" d="M792.21,472.9c-16.64-26.21-27.64-54.91-32.71-85.28c-4.89-29.33-4.07-58.99,2.44-88.14
				c6.52-29.15,18.4-56.33,35.32-80.79c17.52-25.32,39.69-46.6,65.9-63.24c26.21-16.64,54.91-27.64,85.28-32.71
				c29.33-4.9,58.99-4.07,88.14,2.44c29.15,6.51,56.33,18.4,80.79,35.31c25.32,17.52,46.6,39.69,63.24,65.9
				c16.64,26.21,27.64,54.91,32.71,85.28c4.9,29.33,4.07,58.99-2.44,88.14c-6.51,29.15-18.4,56.33-35.31,80.79
				c-17.52,25.32-39.69,46.6-65.91,63.24c-26.21,16.64-54.91,27.64-85.28,32.71c-29.33,4.9-58.99,4.07-88.14-2.44
				c-29.15-6.52-56.33-18.4-80.79-35.31C830.12,521.28,808.85,499.11,792.21,472.9z M1170.65,232.71
				c-64.48-101.59-199.58-131.79-301.18-67.31c-101.59,64.48-131.79,199.58-67.32,301.18c64.48,101.59,199.59,131.79,301.18,67.31
				C1204.93,469.42,1235.13,334.31,1170.65,232.71z M818.8,456.02c-28.41-44.77-37.69-97.93-26.13-149.67
				c11.57-51.75,42.59-95.9,87.36-124.31c44.77-28.41,97.93-37.69,149.68-26.13c51.75,11.57,95.9,42.59,124.31,87.36
				c28.41,44.77,37.69,97.93,26.13,149.68c-11.57,51.75-42.59,95.9-87.36,124.31c-44.77,28.41-97.93,37.69-149.68,26.13
				C891.36,531.82,847.21,500.79,818.8,456.02z M1144.07,249.58c-55.17-86.93-170.79-112.77-257.72-57.6
				c-86.93,55.17-112.77,170.78-57.6,257.72c55.17,86.94,170.79,112.78,257.72,57.6C1173.4,452.13,1199.24,336.52,1144.07,249.58z"/><path fill="#2c7efe" d="M818.8,456.02c-28.41-44.77-37.69-97.93-26.13-149.67c11.57-51.75,42.59-95.9,87.36-124.31
				c44.77-28.41,97.93-37.69,149.68-26.13c51.75,11.57,95.9,42.59,124.31,87.36c28.41,44.77,37.69,97.93,26.13,149.68
				c-11.57,51.75-42.59,95.9-87.36,124.31c-44.77,28.41-97.93,37.69-149.68,26.13C891.36,531.82,847.21,500.79,818.8,456.02z
				 M1144.07,249.58c-55.17-86.93-170.79-112.77-257.72-57.6c-86.93,55.17-112.77,170.78-57.6,257.72
				c55.17,86.94,170.79,112.78,257.72,57.6C1173.4,452.13,1199.24,336.52,1144.07,249.58z" opacity=".53"/><path fill="#2c7efe" d="M353.02,754.29c-0.4-0.63-0.79-1.27-1.17-1.91c-11.44-16.86-14.16-35.65-7.3-50.32
				c2.73-5.83,6.92-10.93,12.46-15.17l0.31-0.24l0.34-0.2c110.55-63.24,221.1-126.48,331.66-189.72l4.89-2.79l37.25,58.69
				l-4.61,3.23C623,628.65,519.17,701.44,415.33,774.23l-1.68,1.18l-0.35,0.18c-6.21,3.22-12.62,4.83-19.05,4.81
				C378.68,780.37,363.41,770.65,353.02,754.29z M361.81,746.06l0.1,0.17c8.26,13.99,20.36,22.36,32.39,22.39
				c4.41,0.02,8.86-1.1,13.25-3.31l1.02-0.72c102.3-71.72,204.59-143.43,306.9-215.15l-25.18-39.68
				C581.47,572,472.67,634.24,363.87,696.48c-3.87,3.03-6.78,6.58-8.64,10.57c-5.1,10.9-2.68,25.42,6.47,38.85L361.81,746.06z"/><path fill="#2c7efe" d="M1003.01,510.35c-0.32-0.5-0.53-1.07-0.61-1.69c-0.29-2.26,1.32-4.32,3.58-4.61
				c22.79-2.87,44.26-10.62,63.81-23.03c3.56-2.26,7.07-4.69,10.43-7.22c1.82-1.37,4.41-1.01,5.78,0.81
				c1.37,1.82,1.01,4.41-0.81,5.78c-3.53,2.66-7.22,5.22-10.97,7.6c-20.58,13.06-43.19,21.22-67.2,24.25
				C1005.37,512.44,1003.83,511.65,1003.01,510.35z"/><path fill="#2c7efe" d="M1106.52,453.1c-0.93-1.46-0.86-3.41,0.29-4.83c28.43-34.7,40.5-80.01,33.1-124.32
				c-0.38-2.25,1.14-4.37,3.39-4.75c2.25-0.37,4.37,1.14,4.75,3.39c7.79,46.65-4.92,94.37-34.86,130.91
				c-1.44,1.76-4.04,2.02-5.81,0.58C1107.04,453.79,1106.75,453.46,1106.52,453.1z"/></g><g><path fill="#2c7efe" d="M2116.63,513.56l-14.8-0.59c-21.69-0.86-43.49-6.65-63.03-16.74c-20.41-10.54-37.91-25.24-52.01-43.71
				l-0.14-0.18l-0.13-0.2c-21.14-32.85-29.11-71.8-22.43-109.66c6.71-38.05,27.52-71.01,58.61-92.83
				c31.09-21.82,69.17-30.19,107.23-23.57c37.88,6.59,71.8,27.32,95.51,58.37l0.14,0.18l0.13,0.2c12.57,19.54,20.46,41,23.43,63.77
				c2.85,21.81,0.88,44.28-5.69,64.97l-4.47,14.1l-3.72-7.98l-124.87,87.64L2116.63,513.56z M2098.95,501.27l134.47-94.38
				c11.29-38.82,5.06-80.76-17.3-115.62c-45.63-59.56-127.64-73.7-186.8-32.18c-59.16,41.52-73.73,123.45-33.23,186.61
				C2021.28,478.58,2058.61,498.7,2098.95,501.27z"/><path fill="#2c7efe" d="M2254.28,580.22c-8.89,6.24-18.61,10.35-27.36,11.58c-10.09,1.41-18.01-1.11-22.3-7.1l-3.39-4.73
				l70.85-49.73l3.3,4.8c4.17,6.08,3.85,14.38-0.9,23.39C2270.35,566.24,2263.18,573.98,2254.28,580.22z M2220.4,580.6
				c1.48,0.1,3.14,0.02,4.93-0.23c6.87-0.96,15.01-4.46,22.33-9.6c7.32-5.14,13.37-11.6,16.61-17.74c0.84-1.6,1.48-3.14,1.89-4.56
				L2220.4,580.6z"/><path fill="#2c7efe" d="M2279.35,539.22l-71.56,50.23c-10.54,7.4-24.83,6.18-33.98-2.89l-76.44-75.88l-4.88-4.86l147.41-103.47
				l3.28,7.05l45.01,96.88C2293.61,517.96,2289.9,531.82,2279.35,539.22z M2110.38,507.35l71.55,71.02
				c5.18,5.13,13.26,5.82,19.23,1.64l71.56-50.23c5.97-4.19,8.07-12.03,5-18.64l-42.48-91.43L2110.38,507.35z"/><path fill="#2c7efe" d="M2126.66,530c43.51-22.04,87.02-44.09,130.53-66.13"/><path fill="#2c7efe" d="M2260.51,468.59c-0.22,0.16-0.46,0.3-0.71,0.43l-130.53,66.13c-2.84,1.44-6.31,0.3-7.75-2.54
				c-1.44-2.84-0.3-6.31,2.54-7.75l130.53-66.13c2.84-1.44,6.31-0.3,7.75,2.54C2263.65,463.85,2262.82,466.97,2260.51,468.59z"/><path fill="#2c7efe" d="M2142.32,542.81c40.98-20.76,81.96-41.52,122.94-62.28"/><path fill="#2c7efe" d="M2268.58,485.24c-0.22,0.16-0.46,0.3-0.71,0.43l-122.94,62.28c-2.84,1.44-6.31,0.3-7.75-2.54
				c-1.44-2.84-0.3-6.31,2.54-7.75l122.94-62.28c2.84-1.44,6.31-0.3,7.75,2.54C2271.72,480.51,2270.89,483.62,2268.58,485.24z"/><path fill="#2c7efe" d="M2152.97,557.26c40.49-20.51,80.98-41.03,121.48-61.54"/><path fill="#2c7efe" d="M2277.76,500.44c-0.22,0.16-0.46,0.3-0.71,0.43l-121.48,61.54c-2.84,1.44-6.31,0.3-7.75-2.54
				c-1.44-2.84-0.3-6.31,2.54-7.75l121.48-61.54c2.84-1.44,6.31-0.3,7.75,2.54C2280.9,495.7,2280.07,498.82,2277.76,500.44z"/><path fill="#2c7efe" d="M2082.96,186.16c-0.96,0.68-2.14,1.06-3.4,1.04c-3.19-0.05-5.73-2.68-5.67-5.86l0.99-61.18
				c0.05-3.18,2.68-5.73,5.86-5.67c3.19,0.05,5.73,2.68,5.67,5.86l-0.99,61.18C2085.38,183.45,2084.42,185.14,2082.96,186.16z"/><path fill="#2c7efe" d="M1949.22,285.04c-1.54,1.08-3.58,1.39-5.46,0.64l-56.82-22.72c-2.96-1.18-4.4-4.54-3.21-7.5
				c1.18-2.96,4.54-4.4,7.5-3.21l56.82,22.72c2.96,1.18,4.4,4.54,3.21,7.5C1950.83,283.55,1950.11,284.42,1949.22,285.04z"/><path fill="#2c7efe" d="M2245.84,264.93c-1.98,1.39-4.71,1.43-6.76-0.1c-2.56-1.9-3.08-5.52-1.18-8.07l36.54-49.09
				c1.9-2.56,5.52-3.08,8.07-1.18c2.56,1.9,3.08,5.52,1.18,8.07l-36.54,49.09C2246.77,264.16,2246.33,264.59,2245.84,264.93z"/><path fill="#2c7efe" d="M2175.06,196.61c-1.38,0.97-3.18,1.33-4.93,0.82c-3.06-0.89-4.82-4.09-3.93-7.15l17.08-58.76
				c0.89-3.06,4.09-4.82,7.15-3.93c3.06,0.89,4.82,4.09,3.93,7.15l-17.08,58.76C2176.9,194.81,2176.1,195.88,2175.06,196.61z"/><path fill="#2c7efe" d="M1959.38,466c-0.49,0.34-1.04,0.62-1.65,0.8l-58.58,17.68c-3.05,0.92-6.27-0.81-7.19-3.86
				c-0.92-3.05,0.81-6.27,3.86-7.19l58.58-17.68c3.05-0.92,6.27,0.81,7.19,3.86C1962.32,462.05,1961.36,464.6,1959.38,466z"/><g><path fill="#2c7efe" d="M2003.29,220.19c-0.03,0.02-0.06,0.04-0.09,0.06c-2.64,1.78-6.23,1.09-8.01-1.55l-34.24-50.72
				c-1.78-2.64-1.09-6.22,1.55-8.01c2.64-1.78,6.23-1.09,8.01,1.55l34.24,50.72C2006.52,214.86,2005.86,218.39,2003.29,220.19z"/></g><g><path fill="#2c7efe" d="M1919.18,376.21c-1.04,0.73-2.32,1.12-3.68,1.03l-61.07-3.91c-3.18-0.2-5.59-2.95-5.39-6.13
				c0.2-3.18,2.95-5.59,6.12-5.39l61.07,3.91c3.18,0.2,5.59,2.95,5.39,6.13C1921.51,373.67,1920.56,375.24,1919.18,376.21z"/></g><g><path fill="#2c7efe" d="M2157.83,470.52c-1.26,0.88-3,0.62-3.94-0.61c-19.01-24.79-35.82-44.73-50.25-59.61
				c-3.07,1.63-6.18,3.05-9.31,4.25c-10.58,4.06-21.11,5.45-30.45,4.01c-2.54-0.39-24.9-4.24-28.35-18.53
				c-2.41-10,5.77-22.64,14.15-26.44c8.82-4,20.79,0.19,36.6,12.79c5.6,4.47,11.73,10.05,18.38,16.73
				c4.85-2.87,9.57-6.31,14.02-10.26c1.34-1.19,2.63-2.4,3.87-3.63c-18.87-27.54-24.62-48.43-17.09-62.15
				c4.3-7.83,15.42-18.45,25.64-16.39c12.08,2.43,18.08,21.06,18.48,33.52c0.48,14.95-6.72,31.46-19.6,45.6
				c0.56,0.78,1.13,1.57,1.71,2.37c12.14,16.61,28.82,35.48,48.24,54.56c1.14,1.12,1.15,2.94,0.04,4.08
				c-1.11,1.14-2.94,1.15-4.08,0.04c-19.64-19.29-36.53-38.41-48.85-55.27c-0.38-0.52-0.76-1.04-1.13-1.56
				c-1.1,1.07-2.24,2.13-3.41,3.16c-4.31,3.82-8.92,7.24-13.7,10.18c14.38,14.95,30.99,34.7,49.66,59.05
				c0.97,1.26,0.73,3.07-0.53,4.04C2157.9,470.47,2157.86,470.5,2157.83,470.52z M2050.01,380.04c-2.33,1.64-4.64,4.2-6.36,7.12
				c-2.39,4.06-3.3,8.26-2.52,11.52c2.09,8.66,16.37,13.06,23.62,14.18c10.53,1.62,22.78-0.93,34.63-6.86
				c-6.02-5.98-11.59-11.02-16.7-15.1c-13.75-10.97-24.05-15.02-30.62-12.05C2051.39,379.15,2050.7,379.55,2050.01,380.04z
				 M2119.99,319.46c-3.94,2.77-7.52,6.84-9.48,10.39c-6.24,11.37-0.68,30.32,16.09,55.09c11.33-12.8,17.64-27.41,17.22-40.55
				c-0.39-12.02-6.17-26.5-13.86-28.05C2126.9,315.72,2123.32,317.12,2119.99,319.46z"/></g></g><g><path fill="#19a1d1" d="M880.48,1229.01v607.29c0,16.66-13.5,30.16-30.16,30.16H406.31c-9.4,0-17.79-4.3-23.32-11.04
			c-4.27-5.2-6.83-11.85-6.83-19.11v-607.29c0-16.66,13.5-30.16,30.16-30.16h444.01C866.98,1198.86,880.48,1212.36,880.48,1229.01z"/><path fill="#62cbec" d="M903.87,1229.02v607.29c0,16.66-13.5,30.16-30.16,30.16h-444c-9.4,0-17.79-4.3-23.33-11.04
			c-4.27-5.19-6.83-11.85-6.83-19.12v-607.29c0-16.66,13.5-30.16,30.16-30.16h444C890.37,1198.86,903.87,1212.35,903.87,1229.02z"/><path fill="#84dbef" d="M903.87,1229.02v607.29c0,16.66-13.5,30.16-30.16,30.16H651.95v-667.6h221.77
			C890.37,1198.86,903.87,1212.35,903.87,1229.02z"/><path fill="#fff" d="M855.19,1275.33v81.17c0,12.15-9.85,22-22,22H470.24c-12.15,0-22-9.85-22-22v-81.17c0-12.15,9.85-22,22-22
			h362.95C845.34,1253.33,855.19,1263.18,855.19,1275.33z"/><polygon fill="#dfe6ff" points="764.22 1253.33 683.33 1378.51 610.64 1378.51 691.53 1253.33"/><polygon fill="#dfe6ff" points="825.44 1253.33 744.55 1378.51 707.85 1378.51 788.74 1253.33"/><path fill="#27aae1" d="M848.03,1234.24H709.26c-3.95,0-7.16-3.2-7.16-7.16v-0.66c0-3.95,3.2-7.16,7.16-7.16h138.78
			c3.95,0,7.16,3.2,7.16,7.16v0.66C855.19,1231.03,851.99,1234.24,848.03,1234.24z"/><path fill="#f98cb6" d="M813.54,1421.31L813.54,1421.31c-22.06,0-39.94,17.88-39.94,39.94l0,0c0,22.06,17.88,39.94,39.94,39.94h0
			c22.06,0,39.94-17.88,39.94-39.94l0,0C853.48,1439.19,835.6,1421.31,813.54,1421.31z"/><path fill="#f98cb6" d="M813.54,1528.77L813.54,1528.77c-22.06,0-39.94,17.88-39.94,39.94v0c0,22.06,17.88,39.94,39.94,39.94h0
			c22.06,0,39.94-17.88,39.94-39.94v0C853.48,1546.66,835.6,1528.77,813.54,1528.77z"/><path fill="#0853bf" d="M705.66,1421.31L705.66,1421.31c-22.06,0-39.94,17.88-39.94,39.94l0,0c0,22.06,17.88,39.94,39.94,39.94h0
			c22.06,0,39.94-17.88,39.94-39.94l0,0C745.6,1439.19,727.72,1421.31,705.66,1421.31z"/><path fill="#0853bf" d="M489.89,1421.31L489.89,1421.31c-22.06,0-39.94,17.88-39.94,39.94l0,0c0,22.06,17.88,39.94,39.94,39.94h0
			c22.06,0,39.94-17.88,39.94-39.94l0,0C529.83,1439.19,511.94,1421.31,489.89,1421.31z"/><path fill="#0853bf" d="M489.89,1528.77L489.89,1528.77c-22.06,0-39.94,17.88-39.94,39.94v0c0,22.06,17.88,39.94,39.94,39.94h0
			c22.06,0,39.94-17.88,39.94-39.94v0C529.83,1546.66,511.94,1528.77,489.89,1528.77z"/><path fill="#0853bf" d="M489.89,1743.71L489.89,1743.71c-22.06,0-39.94,17.88-39.94,39.94l0,0c0,22.06,17.88,39.94,39.94,39.94h0
			c22.06,0,39.94-17.88,39.94-39.94l0,0C529.83,1761.59,511.94,1743.71,489.89,1743.71z"/><path fill="#0853bf" d="M705.66,1528.77L705.66,1528.77c-22.06,0-39.94,17.88-39.94,39.94v0c0,22.06,17.88,39.94,39.94,39.94h0
			c22.06,0,39.94-17.88,39.94-39.94v0C745.6,1546.66,727.72,1528.77,705.66,1528.77z"/><path fill="#0853bf" d="M597.77,1421.31L597.77,1421.31c-22.06,0-39.94,17.88-39.94,39.94l0,0c0,22.06,17.88,39.94,39.94,39.94h0
			c22.06,0,39.94-17.88,39.94-39.94l0,0C637.71,1439.19,619.83,1421.31,597.77,1421.31z"/><path fill="#0853bf" d="M705.66,1636.24L705.66,1636.24c-22.06,0-39.94,17.88-39.94,39.94v0c0,22.06,17.88,39.94,39.94,39.94h0
			c22.06,0,39.94-17.88,39.94-39.94v0C745.6,1654.12,727.72,1636.24,705.66,1636.24z"/><path fill="#0853bf" d="M597.77,1636.24L597.77,1636.24c-22.06,0-39.94,17.88-39.94,39.94v0c0,22.06,17.88,39.94,39.94,39.94h0
			c22.06,0,39.94-17.88,39.94-39.94v0C637.71,1654.12,619.83,1636.24,597.77,1636.24z"/><path fill="#0853bf" d="M489.89,1636.24L489.89,1636.24c-22.06,0-39.94,17.88-39.94,39.94v0c0,22.06,17.88,39.94,39.94,39.94h0
			c22.06,0,39.94-17.88,39.94-39.94v0C529.83,1654.12,511.94,1636.24,489.89,1636.24z"/><path fill="#0853bf" d="M597.77,1528.77L597.77,1528.77c-22.06,0-39.94,17.88-39.94,39.94v0c0,22.06,17.88,39.94,39.94,39.94h0
			c22.06,0,39.94-17.88,39.94-39.94v0C637.71,1546.66,619.83,1528.77,597.77,1528.77z"/><path fill="#fff" d="M813.54,1636.24L813.54,1636.24c-22.06,0-39.94,17.88-39.94,39.94v67.53v18.84v21.1
			c0,22.06,17.88,39.94,39.94,39.94h0c22.06,0,39.94-17.88,39.94-39.94v-21.1v-18.84v-67.53
			C853.48,1654.12,835.6,1636.24,813.54,1636.24z"/><path fill="#fff" d="M597.77,1743.71L597.77,1743.71c-22.06,0-39.94,17.88-39.94,39.94l0,0c0,22.06,17.88,39.94,39.94,39.94h0
			c22.06,0,39.94-17.88,39.94-39.94l0,0C637.71,1761.59,619.83,1743.71,597.77,1743.71z"/><path fill="#fff" d="M705.66,1743.71L705.66,1743.71c-22.06,0-39.94,17.88-39.94,39.94l0,0c0,22.06,17.88,39.94,39.94,39.94h0
			c22.06,0,39.94-17.88,39.94-39.94l0,0C745.6,1761.59,727.72,1743.71,705.66,1743.71z"/></g><g><path fill="#cdcff9" d="M2236.44,770.61h332.45c11.96,0,21.66,8.52,21.66,19.02v168.03c0,10.5-9.7,19.02-21.66,19.02h-225.46
			c-13.27,12.02-36.81,27.17-70.63,45.44c4.71-15.15,9.41-30.29,14.12-45.44h-50.48c-11.96,0-21.66-8.52-21.66-19.02V789.63
			C2214.78,779.12,2224.48,770.61,2236.44,770.61z"/><path fill="#fff" d="M2383.71,869.04c-40.3,0-80.6,0-120.9,0"/><path fill="#fff" d="M2262.82,875.63h120.9c3.64,0,6.59-2.95,6.59-6.59s-2.95-6.59-6.59-6.59h-120.9
					c-3.64,0-6.59,2.95-6.59,6.59S2259.18,875.63,2262.82,875.63z"/><path fill="#fff" d="M2542.52,869.04c-45.31,0-90.61,0-135.92,0"/><path fill="#fff" d="M2406.6,875.63h135.92c3.64,0,6.59-2.95,6.59-6.59s-2.95-6.59-6.59-6.59H2406.6
					c-3.64,0-6.59,2.95-6.59,6.59S2402.96,875.63,2406.6,875.63z"/><path fill="#fff" d="M2542.52,834.08c-93.23,0-186.47,0-279.7,0"/><path fill="#fff" d="M2262.82,840.67h279.7c3.64,0,6.59-2.95,6.59-6.59c0-3.64-2.95-6.59-6.59-6.59h-279.7
					c-3.64,0-6.59,2.95-6.59,6.59C2256.23,837.72,2259.18,840.67,2262.82,840.67z"/><g><path fill="#fff" d="M2315.91,904c-17.7,0-35.39,0-53.09,0"/><path fill="#fff" d="M2262.82,910.59h53.09c3.64,0,6.59-2.95,6.59-6.59c0-3.64-2.95-6.59-6.59-6.59h-53.09
					c-3.64,0-6.59,2.95-6.59,6.59C2256.23,907.64,2259.18,910.59,2262.82,910.59z"/></g><g><path fill="#fff" d="M2542.52,904c-68.47,0-136.95,0-205.42,0"/><path fill="#fff" d="M2337.09,910.59h205.42c3.64,0,6.59-2.95,6.59-6.59c0-3.64-2.95-6.59-6.59-6.59h-205.42
					c-3.64,0-6.59,2.95-6.59,6.59C2330.5,907.64,2333.45,910.59,2337.09,910.59z"/></g></g></svg>