<svg xmlns="http://www.w3.org/2000/svg" enable-background="new 0 0 2800 2000" viewBox="0 0 2800 2000"><rect width="2000" height="2000" x="400" fill="#fff" fill-rule="evenodd" clip-rule="evenodd" display="none"/><path fill="#d5f0ff" d="M707.58,1359.79c19.22,29.67,207.5,255.11,359.27,257.85c136.87,2.47,181.26-195.94,325.02-181.25
	c107.05,10.94,120.67,124.87,244.7,164.42c121.91,38.87,283.1-8.02,364.25-95.77c422.15-456.43,199.57-1136.24-156.86-1327.9
	c-160.95-86.55-258.86,152.78-596.89,109.99c-203.27-25.73-165.41-147.52-340.55-66.72C703.32,314.16,374.55,845.69,707.58,1359.79z
	" display="none" opacity=".5"/><path fill="#d5f0ff" d="M2175.23,736.74c49.36,109.89,211.8,84.3,322.34,211.34c114.82,131.96,111.62,350.74-34.04,479.46
			c-147.8,130.61-383.27,116.33-498.07,109.37c-188.67-11.44-257.31-64.33-405.7-99.6c-519.48-123.48-821.66,252.85-1152.63,113.57
			c-180.09-75.79-298.22-274.75-258.33-412.1c68.29-235.1,614.72-261.28,595.04-381.13c-16.54-100.72-404.49-95.02-466.04-245.7
			c-55.18-135.09,189.54-303.96,359.23-376.2c78.21-33.3,307.2-134.51,493.56-54.17c147.45,63.56,140.03,177.47,270.27,208.87
			c157.02,37.85,222.81-114.46,447.9-120.75c165.85-4.64,374.22,71.23,420.22,190.39C2323.05,500.15,2115.7,604.21,2175.23,736.74z" opacity=".42"/><path fill="#d5f0ff" d="M2120.24,862.18c46.18,102.81,198.15,78.87,301.57,197.73c107.42,123.46,104.43,328.14-31.85,448.57
			c-138.28,122.2-358.57,108.84-465.98,102.32c-176.51-10.71-240.73-60.19-379.57-93.19
			c-486.02-115.52-768.72,236.56-1078.37,106.25c-168.49-70.91-279.01-257.05-241.68-385.55
			c63.89-219.95,575.12-244.45,556.7-356.58c-15.48-94.23-378.43-88.9-436.01-229.87C293.44,525.48,522.39,367.49,681.14,299.9
			c73.17-31.15,287.4-125.85,461.76-50.68c137.95,59.47,131,166.04,252.86,195.41c146.91,35.41,208.46-107.08,419.04-112.97
			c155.16-4.34,350.11,66.64,393.15,178.12C2258.54,640.84,2064.55,738.19,2120.24,862.18z" opacity=".6"/><ellipse cx="1105.43" cy="1882.6" fill="#edf0f9" rx="876.1" ry="66.13"/><ellipse cx="1902.84" cy="1756.94" fill="#edf0f9" rx="737.97" ry="99.29"/><path fill="#62cbec" d="M2216.09,874.14c90.96-54.16,114.48-379.76-24.82-406.77c-9.07-1.76-59.81-11.6-116.73,20.61
			c-61.34,34.7-91.54,96.54-95,103.64C1905.82,742.58,2124.45,928.7,2216.09,874.14z"/><path fill="#bbe6f9" d="M2206.23,889.13c90.96-54.16,114.48-379.76-24.82-406.77c-9.07-1.76-59.81-11.6-116.73,20.61
			c-61.34,34.7-91.54,96.54-95,103.64C1895.96,757.57,2114.59,943.69,2206.23,889.13z"/><path fill="#fff" d="M2265.9,960.89c0.05-0.04,0.1-0.08,0.14-0.12c2.1-1.8,2.8-4.34,1.56-5.68
					c-57.44-62.1-101.01-135.25-129.51-217.43c-22.79-65.71-35.89-137.25-38.94-212.65c-0.08-2.03-2.12-2.92-4.56-1.99
					c-2.44,0.94-4.34,3.35-4.26,5.38c3.07,75.94,16.27,148,39.22,214.19c28.71,82.78,72.59,156.46,130.45,219.01
					C2261.21,962.9,2263.82,962.58,2265.9,960.89z"/><path fill="#fff" d="M2108.02,644.96c0.81-0.66,1.49-1.49,1.9-2.39c1.02-2.24,0.06-4.12-2.15-4.2
					c-20.39-0.74-38.49-5.4-53.81-13.84c-14.84-8.18-26.44-19.57-34.47-33.86c-0.9-1.6-3.46-1.63-5.73-0.06
					c-2.26,1.57-3.37,4.14-2.47,5.74c8.44,15.02,20.62,26.99,36.22,35.58c16.1,8.87,35.13,13.76,56.55,14.54
					C2105.38,646.52,2106.84,645.92,2108.02,644.96z"/><path fill="#fff" d="M2145.87,784.08c1.15-0.94,2.01-2.2,2.25-3.46c0.42-2.18-1.2-3.54-3.6-3.04
					c-22.14,4.64-43.02,5.35-62.08,2.09c-18.46-3.16-34.42-9.91-47.42-20.07c-1.46-1.14-4.22-0.5-6.17,1.44
					c-1.95,1.93-2.36,4.42-0.9,5.56c13.67,10.68,30.44,17.77,49.84,21.09c20.02,3.43,41.97,2.69,65.24-2.19
					C2144.03,785.27,2145.03,784.76,2145.87,784.08z"/><path fill="#fff" d="M2141.92,690.13c16.21-13.2,30.92-27.87,43.86-43.75c15.93-19.56,28.5-40.14,37.36-61.17
					c0.94-2.24-0.11-4.06-2.36-4.06c-2.25,0-4.83,1.82-5.78,4.06c-8.43,20.01-20.39,39.59-35.55,58.2
					c-15.64,19.21-34,36.54-54.57,51.53c-2.23,1.63-3.25,4.19-2.27,5.74c0.98,1.54,3.58,1.47,5.82-0.15
					C2133.03,697.17,2137.53,693.7,2141.92,690.13z"/><path fill="#fff" d="M2184.34,849.97c0.21-0.17,0.41-0.35,0.61-0.55c18.67-18.9,34.15-39.38,46-60.88
					c11.49-20.83,19.08-41.74,22.56-62.14c0.37-2.17-1.28-3.5-3.69-2.95c-2.41,0.54-4.66,2.75-5.03,4.92
					c-3.31,19.41-10.54,39.31-21.47,59.13c-11.28,20.46-26.01,39.95-43.78,57.93c-1.93,1.95-2.28,4.43-0.79,5.53
					C2180.1,851.95,2182.47,851.5,2184.34,849.97z"/><path fill="#8bdcef" d="M2273.23,924.75c91.63,64.77,417.1-52.68,383.27-199.22c-2.2-9.54-14.53-62.92-70.23-104.18
			c-60.03-44.46-132.92-47.08-141.29-47.38C2267.02,567.6,2180.92,859.5,2273.23,924.75z"/><path fill="#d2edf7" d="M2254.47,921.66c91.63,64.77,417.1-52.68,383.27-199.22c-2.2-9.54-14.53-62.92-70.23-104.18
			c-60.03-44.46-132.93-47.08-141.29-47.38C2248.26,564.5,2162.16,856.4,2254.47,921.66z"/><path fill="#fff" d="M2210.67,1010.35c0.06,0.03,0.12,0.06,0.18,0.09c2.65,1.26,5.41,0.84,6.17-0.93
					c35.4-82.37,87.49-156.08,154.81-219.08c53.83-50.37,117.48-93.87,189.18-129.29c1.94-0.96,1.92-3.32-0.04-5.27
					c-1.96-1.95-5.11-2.77-7.05-1.81c-72.22,35.68-136.33,79.49-190.55,130.23c-67.81,63.45-120.27,137.69-155.93,220.66
					C2206.7,1006.68,2208.14,1009.07,2210.67,1010.35z"/><path fill="#fff" d="M2448.66,721.38c0.98,0.5,2.08,0.8,3.14,0.81c2.61,0.03,4.02-1.71,3.14-3.89
					c-8.06-20.06-11.35-39.6-9.77-58.07c1.53-17.9,7.56-34.04,17.94-47.96c1.16-1.56,0.08-4.05-2.41-5.57
					c-2.49-1.52-5.46-1.49-6.62,0.07c-10.91,14.64-17.25,31.59-18.86,50.4c-1.65,19.41,1.8,39.95,10.27,61.03
					C2446.01,719.5,2447.21,720.65,2448.66,721.38z"/><path fill="#fff" d="M2330.22,817.95c1.4,0.71,2.99,1,4.32,0.69c2.29-0.54,2.92-2.68,1.4-4.79
					c-14.03-19.44-23.71-39.37-28.76-59.22c-4.89-19.24-5.22-37.6-0.99-54.57c0.48-1.9-1.33-4.3-4.05-5.36
					c-2.71-1.06-5.29-0.38-5.77,1.52c-4.45,17.84-4.1,37.13,1.04,57.35c5.31,20.87,15.47,41.81,30.22,62.24
					C2328.27,816.69,2329.19,817.44,2330.22,817.95z"/><path fill="#fff" d="M2419.51,773.67c19.77,10.02,40.31,17.94,61.26,23.63c25.8,7.01,51.15,10.31,75.33,9.84
					c2.58-0.05,3.88-1.86,2.91-4.03c-0.97-2.18-3.84-3.9-6.42-3.85c-23.01,0.46-47.13-2.69-71.68-9.36
					c-25.34-6.88-50.04-17.19-73.41-30.66c-2.54-1.46-5.46-1.34-6.53,0.28c-1.07,1.61,0.12,4.11,2.65,5.57
					C2408.86,768.09,2414.16,770.96,2419.51,773.67z"/><path fill="#fff" d="M2282.96,883.59c0.25,0.13,0.52,0.25,0.79,0.35c26.34,9.95,52.85,16.11,78.77,18.34
					c25.12,2.15,48.64,0.5,69.9-4.91c2.26-0.58,2.83-2.75,1.27-4.84c-1.56-2.1-4.67-3.33-6.93-2.76
					c-20.23,5.15-42.61,6.72-66.51,4.67c-24.67-2.11-49.89-7.98-74.96-17.45c-2.72-1.03-5.27-0.3-5.69,1.62
					C2279.22,880.34,2280.69,882.44,2282.96,883.59z"/><g><path fill="#2c7efe" d="M2364.84,903.28v784.49c0,15.79-12.8,28.59-28.59,28.59h-616.73c-15.79,0-28.59-12.8-28.59-28.59V903.28
			c0-15.79,12.8-28.59,28.59-28.59h616.73C2352.04,874.69,2364.84,887.49,2364.84,903.28z"/><path fill="#84b2fe" d="M2331.47,874.69v176.08c0,21.36-17.32,38.68-38.68,38.68h-533.53c-19.31,0-34.96-15.65-34.96-34.96V874.69
			H2331.47z"/><path fill="#fff" d="M2279.32,927.07h-502.86c-15.21,0-27.54,12.33-27.54,27.54v70.66c0,15.21,12.33,27.54,27.54,27.54h502.86
			c15.21,0,27.54-12.33,27.54-27.54v-70.66C2306.86,939.4,2294.53,927.07,2279.32,927.07z"/><path fill="#fff" d="M1863.7,1232.44h-114.49c-5.61,0-10.16-4.55-10.16-10.16v-61.51c0-5.61,4.55-10.16,10.16-10.16h114.49
				c5.61,0,10.16,4.55,10.16,10.16v61.51C1873.86,1227.89,1869.31,1232.44,1863.7,1232.44z"/><path fill="#fff" d="M2011.33,1232.44h-114.49c-5.61,0-10.16-4.55-10.16-10.16v-61.51c0-5.61,4.55-10.16,10.16-10.16h114.49
				c5.61,0,10.16,4.55,10.16,10.16v61.51C2021.48,1227.89,2016.94,1232.44,2011.33,1232.44z"/><path fill="#fff" d="M2158.95,1232.44h-114.49c-5.61,0-10.16-4.55-10.16-10.16v-61.51c0-5.61,4.55-10.16,10.16-10.16h114.49
				c5.61,0,10.16,4.55,10.16,10.16v61.51C2169.1,1227.89,2164.56,1232.44,2158.95,1232.44z"/><path fill="#fff" d="M1863.7,1330.27h-114.49c-5.61,0-10.16-4.55-10.16-10.16v-61.51c0-5.61,4.55-10.16,10.16-10.16h114.49
				c5.61,0,10.16,4.55,10.16,10.16v61.51C1873.86,1325.72,1869.31,1330.27,1863.7,1330.27z"/><path fill="#fff" d="M2011.33,1330.27h-114.49c-5.61,0-10.16-4.55-10.16-10.16v-61.51c0-5.61,4.55-10.16,10.16-10.16h114.49
				c5.61,0,10.16,4.55,10.16,10.16v61.51C2021.48,1325.72,2016.94,1330.27,2011.33,1330.27z"/><path fill="#fff" d="M2158.95,1330.27h-114.49c-5.61,0-10.16-4.55-10.16-10.16v-61.51c0-5.61,4.55-10.16,10.16-10.16h114.49
				c5.61,0,10.16,4.55,10.16,10.16v61.51C2169.1,1325.72,2164.56,1330.27,2158.95,1330.27z"/><path fill="#fff" d="M1863.7,1430.83h-114.49c-5.61,0-10.16-4.55-10.16-10.16v-61.51c0-5.61,4.55-10.16,10.16-10.16h114.49
				c5.61,0,10.16,4.55,10.16,10.16v61.51C1873.86,1426.29,1869.31,1430.83,1863.7,1430.83z"/><path fill="#fff" d="M1863.7,1531.62h-114.49c-5.61,0-10.16-4.55-10.16-10.16v-61.51c0-5.61,4.55-10.16,10.16-10.16h114.49
				c5.61,0,10.16,4.55,10.16,10.16v61.51C1873.86,1527.07,1869.31,1531.62,1863.7,1531.62z"/><path fill="#fff" d="M2011.33,1430.83h-114.49c-5.61,0-10.16-4.55-10.16-10.16v-61.51c0-5.61,4.55-10.16,10.16-10.16h114.49
				c5.61,0,10.16,4.55,10.16,10.16v61.51C2021.48,1426.29,2016.94,1430.83,2011.33,1430.83z"/><path fill="#fff" d="M2158.95,1430.83h-114.49c-5.61,0-10.16-4.55-10.16-10.16v-61.51c0-5.61,4.55-10.16,10.16-10.16h114.49
				c5.61,0,10.16,4.55,10.16,10.16v61.51C2169.1,1426.29,2164.56,1430.83,2158.95,1430.83z"/><path fill="#84b2fe" d="M2011.33,1531.4h-114.49c-5.61,0-10.16-4.55-10.16-10.16v-61.51c0-5.61,4.55-10.16,10.16-10.16h114.49
				c5.61,0,10.16,4.55,10.16,10.16v61.51C2021.48,1526.85,2016.94,1531.4,2011.33,1531.4z"/><path fill="#84b2fe" d="M2158.95,1531.4h-114.49c-5.61,0-10.16-4.55-10.16-10.16v-61.51c0-5.61,4.55-10.16,10.16-10.16h114.49
				c5.61,0,10.16,4.55,10.16,10.16v61.51C2169.1,1526.85,2164.56,1531.4,2158.95,1531.4z"/><path fill="#84b2fe" d="M1868.02,1629.95h-123.11c-3.23,0-5.85-2.62-5.85-5.85v-57.05c0-3.23,2.62-5.85,5.85-5.85h123.11
				c3.23,0,5.85,2.62,5.85,5.85v57.05C1873.86,1627.33,1871.24,1629.95,1868.02,1629.95z"/><path fill="#84b2fe" d="M2015.64,1629.95h-123.11c-3.23,0-5.85-2.62-5.85-5.85v-57.05c0-3.23,2.62-5.85,5.85-5.85h123.11
				c3.23,0,5.85,2.62,5.85,5.85v57.05C2021.48,1627.33,2018.87,1629.95,2015.64,1629.95z"/><path fill="#84b2fe" d="M2163.26,1629.95h-123.11c-3.23,0-5.85-2.62-5.85-5.85v-57.05c0-3.23,2.62-5.85,5.85-5.85h123.11
				c3.23,0,5.85,2.62,5.85,5.85v57.05C2169.1,1627.33,2166.49,1629.95,2163.26,1629.95z"/><path fill="#84b2fe" d="M2306.57,1232.44h-114.49c-5.61,0-10.16-4.55-10.16-10.16v-61.51c0-5.61,4.55-10.16,10.16-10.16h114.49
				c5.61,0,10.16,4.55,10.16,10.16v61.51C2316.72,1227.89,2312.18,1232.44,2306.57,1232.44z"/><path fill="#84b2fe" d="M2299.99,1629.95h-101.34c-9.24,0-16.73-7.49-16.73-16.73v-349.43c0-9.24,7.49-16.73,16.73-16.73h101.34
				c9.24,0,16.73,7.49,16.73,16.73v349.43C2316.72,1622.46,2309.23,1629.95,2299.99,1629.95z"/><path fill="#fff" d="M2274.97,1432.29h-51.29v-14.4h51.29V1432.29z M2274.97,1456.6h-51.29v-14.4h51.29V1456.6z"/><path fill="#fff" d="M1791.24,1585.75c0-1.98,0.64-3.57,1.93-4.79c1.29-1.22,3.02-1.82,5.18-1.82c2.2,0,3.93,0.6,5.21,1.81
					c1.27,1.21,1.91,2.84,1.91,4.91v1.58c0,1.98-0.64,3.57-1.91,4.77c-1.27,1.2-2.99,1.8-5.16,1.8c-2.15,0-3.88-0.6-5.19-1.79
					c-1.31-1.19-1.97-2.83-1.97-4.91V1585.75z M1796.01,1587.43c0,0.76,0.21,1.37,0.64,1.84c0.42,0.47,1.01,0.71,1.76,0.71
					c1.54,0,2.31-0.97,2.31-2.92v-1.31c0-0.76-0.21-1.38-0.62-1.87c-0.41-0.49-0.99-0.73-1.74-0.73c-0.72,0-1.29,0.24-1.71,0.71
					c-0.42,0.47-0.64,1.12-0.64,1.93V1587.43z M1799.81,1609.18l-3.45-1.74l15.62-25l3.45,1.74L1799.81,1609.18z M1806.44,1603.74
					c0-1.99,0.65-3.59,1.94-4.79c1.3-1.2,3.02-1.8,5.17-1.8c2.18,0,3.92,0.59,5.21,1.78c1.29,1.19,1.93,2.84,1.93,4.96v1.54
					c0,1.99-0.64,3.59-1.91,4.79c-1.27,1.2-3,1.8-5.18,1.8c-2.15,0-3.88-0.6-5.19-1.79c-1.31-1.19-1.97-2.83-1.97-4.91V1603.74z
					 M1811.18,1605.42c0,0.68,0.23,1.28,0.7,1.8c0.47,0.52,1.04,0.77,1.71,0.77c1.42,0,2.19-0.67,2.31-2.01l0.02-2.25
					c0-0.77-0.21-1.39-0.64-1.87c-0.43-0.47-1-0.71-1.74-0.71c-0.7,0-1.27,0.22-1.69,0.67c-0.42,0.44-0.65,1.04-0.68,1.8V1605.42z"/><path fill="#fff" d="M2079.72,1598.43v-8.85h34.53v8.85H2079.72z M2092.27,1610.76v-33.52h9.36v33.52H2092.27z"/><rect width="32.23" height="9.23" x="1930.6" y="1589.94" fill="#fff"/><g><path fill="#2c7efe" d="M2208.23,963.48c0-4.77,1.55-8.62,4.67-11.56c3.11-2.93,7.28-4.4,12.51-4.4c5.3,0,9.49,1.46,12.56,4.37
					c3.07,2.92,4.61,6.86,4.61,11.85v3.82c0,4.77-1.54,8.61-4.61,11.5c-3.07,2.9-7.23,4.35-12.46,4.35c-5.2,0-9.38-1.44-12.54-4.32
					c-3.16-2.88-4.75-6.83-4.75-11.85V963.48z M2219.74,967.55c0,1.83,0.51,3.31,1.54,4.45s2.44,1.71,4.24,1.71
					c3.71,0,5.57-2.35,5.57-7.06v-3.16c0-1.82-0.5-3.33-1.48-4.5c-0.99-1.18-2.39-1.77-4.19-1.77c-1.73,0-3.11,0.57-4.14,1.71
					c-1.03,1.14-1.54,2.7-1.54,4.66V967.55z M2228.91,1020.05l-8.32-4.19l37.69-60.33l8.32,4.19L2228.91,1020.05z M2244.92,1006.9
					c0-4.81,1.56-8.66,4.69-11.56c3.13-2.9,7.29-4.35,12.48-4.35c5.27,0,9.45,1.43,12.56,4.29c3.11,2.86,4.66,6.86,4.66,11.98v3.71
					c0,4.81-1.54,8.66-4.61,11.56c-3.07,2.9-7.25,4.35-12.51,4.35c-5.2,0-9.37-1.44-12.54-4.32c-3.16-2.88-4.74-6.83-4.74-11.85
					V1006.9z M2256.37,1010.97c0,1.65,0.56,3.1,1.7,4.35c1.13,1.25,2.51,1.87,4.13,1.87c3.43,0,5.28-1.62,5.57-4.85l0.05-5.42
					c0-1.86-0.51-3.36-1.54-4.5c-1.03-1.14-2.42-1.71-4.19-1.71c-1.7,0-3.06,0.54-4.08,1.61c-1.03,1.07-1.57,2.52-1.64,4.35V1010.97
					z"/><path fill="#2c7efe" d="M2160.26,948.13h-20.85c-10.25,0-18.59,9.5-18.59,21.18v11.51c0,3.43,2.79,6.22,6.22,6.22
					c3.43,0,6.22-2.79,6.22-6.22v-11.51c0-4.25,2.76-7.71,6.16-7.71h20.85c3.4,0,6.16,3.46,6.16,7.71v11.51
					c0,3.43,2.79,6.22,6.22,6.22s6.22-2.79,6.22-6.22v-11.51C2178.85,957.64,2170.51,948.13,2160.26,948.13z"/><path fill="#2c7efe" d="M2172.63,993.44c-3.43,0-6.22,2.79-6.22,6.22v11.51c0,4.25-2.76,7.71-6.16,7.71h-20.85
					c-3.4,0-6.16-3.46-6.16-7.71v-11.51c0-3.43-2.79-6.22-6.22-6.22c-3.43,0-6.22,2.79-6.22,6.22v11.51
					c0,11.68,8.34,21.18,18.59,21.18h20.85c10.25,0,18.59-9.5,18.59-21.18v-11.51C2178.85,996.23,2176.06,993.44,2172.63,993.44z"/><path fill="#2c7efe" d="M2088.94,948.13h-20.85c-10.25,0-18.59,9.5-18.59,21.18v11.51c0,3.43,2.79,6.22,6.22,6.22
					c3.43,0,6.22-2.79,6.22-6.22v-11.51c0-4.25,2.76-7.71,6.16-7.71h20.85c3.4,0,6.16,3.46,6.16,7.71v11.51
					c0,3.43,2.79,6.22,6.22,6.22s6.22-2.79,6.22-6.22v-11.51C2107.54,957.64,2099.2,948.13,2088.94,948.13z"/><path fill="#2c7efe" d="M2101.32,993.44c-3.43,0-6.22,2.79-6.22,6.22v11.51c0,4.25-2.76,7.71-6.16,7.71h-20.85
					c-3.4,0-6.16-3.46-6.16-7.71v-11.51c0-3.43-2.79-6.22-6.22-6.22c-3.43,0-6.22,2.79-6.22,6.22v11.51
					c0,11.68,8.34,21.18,18.59,21.18h20.85c10.25,0,18.59-9.5,18.59-21.18v-11.51C2107.54,996.23,2104.75,993.44,2101.32,993.44z"/><g><path fill="#2c7efe" d="M2030.83,988.2L2030.83,988.2c-3.74,0-6.77-3.03-6.77-6.77v-25.01c0-3.74,3.03-6.77,6.77-6.77l0,0
					c3.74,0,6.77,3.03,6.77,6.77v25.01C2037.6,985.16,2034.57,988.2,2030.83,988.2z"/><path fill="#2c7efe" d="M2030.83,1032.35L2030.83,1032.35c-3.74,0-6.77-3.03-6.77-6.77v-24.6c0-3.74,3.03-6.77,6.77-6.77l0,0
					c3.74,0,6.77,3.03,6.77,6.77v24.6C2037.6,1029.31,2034.57,1032.35,2030.83,1032.35z"/></g></g></g><path fill="#2c7efe" d="M795.14,1601.9c0,15.28-12.39,27.67-27.67,27.67c-15.28,0-27.67-12.39-27.67-27.67
		c0-15.28,12.39-27.67,27.67-27.67C782.75,1574.24,795.14,1586.62,795.14,1601.9z"/><path fill="#fff" d="M782.17,1601.9c0,8.12-6.58,14.69-14.69,14.69c-8.12,0-14.69-6.58-14.69-14.69s6.58-14.69,14.69-14.69
		C775.59,1587.21,782.17,1593.79,782.17,1601.9z"/><path fill="#2c7efe" d="M960.68,1549.62c0,15.28-12.39,27.67-27.67,27.67c-15.28,0-27.67-12.39-27.67-27.67
		c0-15.28,12.39-27.67,27.67-27.67C948.3,1521.95,960.68,1534.33,960.68,1549.62z"/><path fill="#fff" d="M947.71,1549.62c0,8.12-6.58,14.69-14.69,14.69c-8.12,0-14.69-6.58-14.69-14.69c0-8.12,6.58-14.69,14.69-14.69
		C941.13,1534.92,947.71,1541.5,947.71,1549.62z"/><path fill="#2c7efe" d="M1113.65,1499.9c0,15.28-12.39,27.67-27.67,27.67c-15.28,0-27.67-12.39-27.67-27.67s12.39-27.67,27.67-27.67
		C1101.27,1472.23,1113.65,1484.62,1113.65,1499.9z"/><path fill="#fff" d="M1100.68,1499.9c0,8.12-6.58,14.69-14.69,14.69c-8.12,0-14.7-6.58-14.7-14.69c0-8.12,6.58-14.69,14.7-14.69
		C1094.1,1485.2,1100.68,1491.78,1100.68,1499.9z"/><g><path fill="#fff" d="M1395.6,1878.13H459.43c-44.91,0-81.31-36.41-81.31-81.31V391.44h946.77c39.05,0,70.71,31.66,70.71,70.71
			V1878.13z"/><path fill="#84b2fe" d="M812.4,1170.42c0,1.67-0.03,3.35-0.08,5.01c-2.6,79.31-66.4,143.11-145.71,145.7
					c-1.66,0.06-3.34,0.09-5.01,0.09c-1.67,0-3.35-0.03-5.01-0.09c-79.31-2.59-143.11-66.39-145.71-145.7
					c-0.05-1.66-0.08-3.34-0.08-5.01c0-1.67,0.03-3.35,0.08-5.01c2.6-79.31,66.4-143.11,145.71-145.7c1.66-0.06,3.34-0.09,5.01-0.09
					c1.67,0,3.35,0.03,5.01,0.09c79.31,2.59,143.11,66.39,145.71,145.7C812.37,1167.08,812.4,1168.75,812.4,1170.42z"/><path fill="#fff" d="M812.4,1170.42c-100.54,0-201.07,0-301.61,0"/><path fill="#fff" d="M812.4,1170.42c0,1.67-0.03,3.35-0.08,5.01H510.87c-0.05-1.66-0.08-3.34-0.08-5.01
					c0-1.67,0.03-3.35,0.08-5.01h301.45C812.37,1167.08,812.4,1168.75,812.4,1170.42z"/><path fill="#fff" d="M661.59,1321.23c0-100.54,0-201.07,0-301.61"/><path fill="#fff" d="M666.61,1019.71v301.43c-1.66,0.06-3.34,0.09-5.01,0.09c-1.67,0-3.35-0.03-5.01-0.09v-301.43
					c1.66-0.06,3.34-0.09,5.01-0.09C663.27,1019.62,664.94,1019.65,666.61,1019.71z"/><path fill="#dfe6ff" d="M761.31,1170.42c0,1.11-0.02,2.21-0.05,3.31c-1.72,52.44-43.91,94.63-96.35,96.34
					c-1.1,0.04-2.21,0.06-3.31,0.06c-1.11,0-2.21-0.02-3.31-0.06c-52.44-1.71-94.63-43.9-96.35-96.34c-0.03-1.1-0.05-2.21-0.05-3.31
					c0-1.11,0.02-2.21,0.05-3.31c1.72-52.44,43.91-94.63,96.35-96.34c1.1-0.04,2.21-0.06,3.31-0.06c1.11,0,2.21,0.02,3.31,0.06
					c52.44,1.71,94.63,43.9,96.35,96.34C761.29,1168.21,761.31,1169.32,761.31,1170.42z"/><path fill="#2c7efe" d="M597.3,1200.23v-54.51l3.89,5.96h-11.68v-11.07h16.79v59.62H597.3z"/><path fill="#2c7efe" d="M629.76,1201.26c-3.19,0-6.03-1.21-8.53-3.62c-2.5-2.41-4.48-5.9-5.95-10.48
					c-1.46-4.57-2.2-10.15-2.2-16.74c0-6.59,0.73-12.17,2.2-16.74c1.46-4.57,3.45-8.06,5.95-10.48c2.5-2.41,5.35-3.62,8.53-3.62
					c3.22,0,6.09,1.21,8.59,3.62c2.5,2.41,4.48,5.91,5.95,10.48c1.46,4.57,2.2,10.15,2.2,16.74c0,6.59-0.73,12.17-2.2,16.74
					c-1.46,4.57-3.45,8.06-5.95,10.48C635.85,1200.05,632.99,1201.26,629.76,1201.26z M629.76,1189.67c1.52,0,2.84-0.67,3.98-2
					c1.13-1.33,2.02-3.42,2.67-6.26c0.65-2.84,0.97-6.5,0.97-10.99c0-4.49-0.33-8.15-0.97-10.99c-0.65-2.84-1.54-4.92-2.67-6.26
					c-1.13-1.33-2.46-2-3.98-2c-1.45,0-2.74,0.67-3.89,2c-1.15,1.34-2.06,3.42-2.72,6.26c-0.67,2.84-1,6.5-1,10.99
					c0,4.49,0.33,8.15,1,10.99c0.67,2.84,1.57,4.93,2.72,6.26C627.02,1189.01,628.32,1189.67,629.76,1189.67z"/><path fill="#2c7efe" d="M667.52,1201.26c-3.19,0-6.03-1.21-8.53-3.62c-2.5-2.41-4.48-5.9-5.95-10.48
					c-1.46-4.57-2.2-10.15-2.2-16.74c0-6.59,0.73-12.17,2.2-16.74c1.46-4.57,3.45-8.06,5.95-10.48c2.5-2.41,5.35-3.62,8.53-3.62
					c3.22,0,6.09,1.21,8.59,3.62c2.5,2.41,4.48,5.91,5.95,10.48c1.46,4.57,2.2,10.15,2.2,16.74c0,6.59-0.73,12.17-2.2,16.74
					c-1.46,4.57-3.45,8.06-5.95,10.48C673.6,1200.05,670.74,1201.26,667.52,1201.26z M667.52,1189.67c1.52,0,2.84-0.67,3.98-2
					c1.13-1.33,2.02-3.42,2.67-6.26c0.65-2.84,0.97-6.5,0.97-10.99c0-4.49-0.33-8.15-0.97-10.99c-0.65-2.84-1.54-4.92-2.67-6.26
					c-1.13-1.33-2.46-2-3.98-2c-1.45,0-2.74,0.67-3.89,2c-1.15,1.34-2.06,3.42-2.72,6.26c-0.67,2.84-1,6.5-1,10.99
					c0,4.49,0.33,8.15,1,10.99c0.67,2.84,1.58,4.93,2.72,6.26C664.77,1189.01,666.07,1189.67,667.52,1189.67z"/><path fill="#2c7efe" d="M697.54,1172.81c-1.85,0-3.5-0.67-4.95-2c-1.45-1.33-2.58-3.24-3.39-5.71c-0.82-2.47-1.22-5.38-1.22-8.73
					c0-3.35,0.41-6.26,1.22-8.73c0.81-2.47,1.95-4.37,3.39-5.71c1.45-1.33,3.09-2,4.95-2c1.93,0,3.61,0.67,5.06,2
					c1.45,1.33,2.58,3.22,3.39,5.66c0.81,2.44,1.22,5.37,1.22,8.77c0,3.35-0.41,6.26-1.22,8.73c-0.82,2.47-1.95,4.37-3.39,5.71
					C701.15,1172.14,699.46,1172.81,697.54,1172.81z M697.59,1165.82c1.22,0,2.2-0.78,2.92-2.34c0.72-1.56,1.08-3.93,1.08-7.11
					c0-3.18-0.36-5.55-1.08-7.11c-0.72-1.56-1.7-2.34-2.92-2.34c-1.22,0-2.21,0.8-2.95,2.39c-0.74,1.59-1.11,3.95-1.11,7.07
					c0,3.12,0.37,5.48,1.11,7.07C695.39,1165.03,696.37,1165.82,697.59,1165.82z M694.2,1200.23l26.58-59.62h6.62l-26.58,59.62
					H694.2z M724,1200.92c-1.85,0-3.51-0.67-4.98-2c-1.46-1.33-2.59-3.24-3.39-5.71c-0.8-2.47-1.2-5.38-1.2-8.73
					c0-3.35,0.4-6.26,1.2-8.73c0.8-2.47,1.93-4.37,3.39-5.71c1.46-1.33,3.12-2,4.98-2c1.93,0,3.61,0.67,5.06,2
					c1.45,1.33,2.58,3.24,3.39,5.71c0.81,2.47,1.22,5.38,1.22,8.73c0,3.35-0.41,6.26-1.22,8.73c-0.82,2.47-1.95,4.37-3.39,5.71
					C727.62,1200.25,725.93,1200.92,724,1200.92z M724,1193.93c1.22,0,2.21-0.79,2.97-2.38c0.76-1.59,1.14-3.95,1.14-7.07
					c0-3.12-0.38-5.48-1.14-7.07c-0.76-1.59-1.75-2.39-2.97-2.39c-1.19,0-2.16,0.78-2.92,2.34c-0.76,1.56-1.14,3.93-1.14,7.11
					c0,3.18,0.38,5.55,1.14,7.11C721.84,1193.15,722.82,1193.93,724,1193.93z"/><rect width="126.77" height="154.29" x="510.79" y="1539.06" fill="#84b2fe"/><rect width="126.77" height="258.87" x="669.45" y="1434.48" fill="#84b2fe"/><rect width="126.77" height="358.31" x="829.3" y="1335.04" fill="#84b2fe"/><rect width="126.77" height="500.6" x="987.97" y="1192.75" fill="#84b2fe"/><rect width="126.77" height="637.75" x="1146.25" y="1055.6" fill="#84b2fe"/><g><polygon fill="#2c7efe" points="575.15 1619.16 573.2 1613.25 731.91 1560.94 891.53 1511.3 1053.74 1431.77 1207.95 1332.43 1211.32 1337.66 1056.81 1437.19 1056.65 1437.27 893.84 1517.1 893.61 1517.17 733.78 1566.88"/><polygon fill="#2c7efe" points="571.26 1626.87 565.49 1609.36 730 1555.14 889.27 1505.61 1050.73 1426.44 1209.77 1323.99 1219.76 1339.49 1059.34 1442.75 896.1 1522.79 735.6 1572.71"/></g><path fill="#2c7efe" d="M1079.02,1440.89c0,15.28-12.39,27.67-27.67,27.67c-15.28,0-27.67-12.39-27.67-27.67
			c0-15.28,12.39-27.67,27.67-27.67C1066.63,1413.22,1079.02,1425.61,1079.02,1440.89z"/><path fill="#fff" d="M1066.04,1440.89c0,8.12-6.58,14.69-14.7,14.69c-8.12,0-14.69-6.58-14.69-14.69
			c0-8.12,6.58-14.69,14.69-14.69C1059.46,1426.19,1066.04,1432.77,1066.04,1440.89z"/><path fill="#2c7efe" d="M1238.98,1335.04c0,15.28-12.39,27.67-27.67,27.67c-15.28,0-27.67-12.39-27.67-27.67
			c0-15.28,12.39-27.67,27.67-27.67C1226.6,1307.38,1238.98,1319.76,1238.98,1335.04z"/><circle cx="1211.32" cy="1335.04" r="14.69" fill="#fff"/><rect width="31.04" height="28.04" x="510.79" y="720.91" fill="#2c7efe"/><rect width="31.04" height="28.04" x="510.79" y="822.08" fill="#2c7efe"/><rect width="31.04" height="28.04" x="510.79" y="923.24" fill="#2c7efe"/><rect width="788.13" height="28.04" x="510.79" y="511.08" fill="#84b2fe"/><rect width="701.96" height="28.04" x="596.96" y="720.91" fill="#84b2fe"/><rect width="516.06" height="28.04" x="596.96" y="822.08" fill="#84b2fe"/><rect width="372.04" height="28.04" x="596.96" y="923.24" fill="#84b2fe"/><rect width="436.05" height="28.04" x="510.79" y="597.02" fill="#84b2fe"/></g><g><path fill="#0643a3" d="M1778.91,283.65c8.88,2.39,18.62,5.09,30.44,10.08c4.7,1.98,10.96,4.86,18.15,8.83
			c0.28,0.15,0.56,0.31,0.84,0.47c0.04,0.02,0.08,0.05,0.13,0.07c0.44,0.25,0.88,0.49,1.32,0.75c0.06,0.03,0.11,0.06,0.16,0.09
			c0,0,0,0,0,0c65.15,37.73,91.59,141.13,58.8,245.56c-34.2,108.95-120.65,180.13-198.3,166.64c-5.2-0.72-9.65-1.56-13.19-2.31
			c-12.47-2.64-21.96-5.97-30.56-9.06L1778.91,283.65z"/><ellipse cx="1712.8" cy="494.2" fill="#84b2fe" rx="220.85" ry="146.61" transform="rotate(-72.572 1712.753 494.216)"/><ellipse cx="1699.47" cy="490.02" fill="#fff" rx="170.6" ry="108.42" transform="rotate(-72.572 1699.415 490.028)"/><ellipse cx="1684.72" cy="485.39" fill="#84b2fe" rx="82.71" ry="56.24" transform="rotate(-72.572 1684.673 485.4)"/><path fill="#fff" d="M1653.08,475.45c-5.88,18.73-0.32,37.15,12.41,41.15c12.73,4,27.82-7.94,33.7-26.67
			c5.88-18.73,0.32-37.15-12.41-41.15C1674.05,444.78,1658.96,456.73,1653.08,475.45z"/><polygon fill="#0643a3" points="1476.75 211.41 1515.85 256.64 1518.57 302.75 1465.74 241.65"/><polygon fill="#0643a3" points="1432.01 245.62 1471.12 290.84 1516.35 300.19 1463.52 239.09"/><path fill="#2c7efe" d="M1449.05,222.35c4.1-3.55,10.33-3.1,13.88,1.01l219.9,254.32c3.55,4.1,3.1,10.33-1.01,13.88
			c-1.99,1.72-4.53,2.56-7.15,2.37c-0.78-0.06-1.53-0.2-2.25-0.43c-1.72-0.54-3.27-1.55-4.48-2.95l-219.9-254.32
			C1444.49,232.12,1444.94,225.9,1449.05,222.35z"/></g><g><path fill="#153663" d="M1629.97,1742.65c-25.22,18.35-51,10.3-56.44,24.66c-2.48,6.56,0.55,14.45,3.98,18.94
			c21.08,27.66,117.65,7.16,124.46-25.67c4.16-20.06-24.39-48.64-43.34-45.68C1646.75,1716.76,1647.99,1729.54,1629.97,1742.65z"/><path fill="#153663" d="M1470.76,1740.33c-26.58,14.08-50.11,2.88-57.26,15.86c-3.27,5.93-1.44,13.87,1.22,18.63
			c16.36,29.28,111.37,22.87,122.34-7.55c6.71-18.59-16.66-49.77-35.16-49.53C1490.31,1717.9,1489.76,1730.27,1470.76,1740.33z"/><path fill="#04367f" d="M1567.65,1219.52c-20.17,12.52-83.66,57.13-112.24,172.03c-39.15,157.4,19.17,318.21,27.87,341.4
			c3.8,1.77,10.83,4.4,19.65,3.92c12.23-0.68,20.51-6.94,23.71-9.66c-52.18-142.49-37.59-234.39-8.7-294.69
			c48.92-102.1,158.51-154.68,142.76-191.82C1651.68,1219.4,1607.44,1217.27,1567.65,1219.52z"/><path fill="#0643a3" d="M1574.08,1212.67c-18.04,47.3-39.42,121.79-37.53,214.18c3.12,152.47,67.76,262.9,99.49,310.1
			c4.03,0.23,11.32,0.03,19.42-3.84c11.23-5.37,17.25-14.57,19.49-18.42c-65.18-113.59-76.1-206.17-67.41-277.9
			c14.42-119.03,86.51-210.75,56.64-238.69C1647.84,1182.82,1610.21,1195.2,1574.08,1212.67z"/><path fill="#ffcdad" d="M1268.56,996.01c-2.11-1.19-3.98-2.28-6.78-3.25c-5.88-2.03-9.62-1.22-18.17-5.98
			c-5.93-3.3-20.04-11.06-23.36-25.65c-3.58-15.72,5.83-34.6,14.91-35.53c2.11-0.22,3.83,0.58,4.22,0.77
			c6.73,3.29,3.34,13.89,9.5,23.6c5.03,7.92,14.53,12.3,17.3,10.25c2.83-2.09-2.74-9.99,1.71-17.68c1.11-1.92,4.01-5.91,6.46-5.41
			c5.34,1.09-2.61,23.65,9.01,37.11c6.67,7.72,14.47,6.37,15.59,12.29c1.51,7.98-10.93,19.39-18.54,17.63
			C1277.11,1003.41,1276.7,1000.62,1268.56,996.01z"/><path fill="#8183f1" d="M1611.52,974.4c-32.23-18.92-76.72,22.17-125.8,38.13c-40.32,13.11-104.53,16.01-203.79-40.43
			c-2.04,0.71-8.2,3.16-12.63,9.74c-4.62,6.85-4.39,13.8-4.24,15.91c28.92,26.73,114.44,98.02,221.45,87.23
			c59.96-6.05,143.92-40.55,144.53-78.84C1631.26,993.37,1622.18,980.66,1611.52,974.4z"/><path fill="#8183f1" d="M1526.49,1104.69c1.58,5.39,3,9.59,4.31,13.14c0.98,2.66,1.91,5.17,2.78,7.53v0.01
			c4.08,11.19,6.8,18.9,7.29,20.16c2.04,5.34,3.92,14.39,4.8,30.53c0.07,1.25,0.13,2.54,0.19,3.89c0.28,6.73,0.39,14.59,0.3,23.76
			v0.01c-0.1,9.55-0.43,20.51-1.05,33.13c7.41,2.82,18,6.21,31.07,8.24c8.42,1.31,17.88,2.05,28.16,1.71
			c30.76-1.02,53.92-11.21,65.99-17.59c4.1-27.82,6.02-53.21,6.57-75.94c0.09-3.45,0.14-6.83,0.17-10.15
			c0.2-29.31-1.85-53.78-4.27-72.8c-1.51-11.8-3.3-22.73-6.15-32.82c-1.47-5.26-3.24-10.3-5.4-15.12
			c-4.07-9.12-9.54-17.45-17.12-24.98c-2.9-2.89-9.88-9.82-20.43-15.56c-3.95-2.17-8.4-4.14-13.32-5.69
			c-3.56-1.11-7.37-2-11.43-2.56c-2.78-0.37-5.67-0.6-8.67-0.64c-2.45-0.02-11.95-0.01-23.47,3.75c-0.25,0.07-0.51,0.17-0.77,0.25
			c-8.35,2.82-17.71,7.61-26.19,15.74c-17.97,17.24-20.76,38.73-22.25,50.19C1514.75,1064.68,1519.86,1082.08,1526.49,1104.69z"/><path fill="#fff" d="M1581.97,978.48c-17.25,27.75-41.46,76.03-48,142.56c-2.38,24.24-1.98,46.41-0.35,65.52
			c8.14,11.14,16.27,22.27,24.41,33.41c7.6-10.61,15.21-21.22,22.81-31.83c-5.93-14.91-11.84-34.26-14.43-57.13
			c-7.38-65.17,17.32-113.71,27.69-131.63C1590.05,992.42,1586.01,985.45,1581.97,978.48z"/><path fill="#fcb490" d="M1573.96,942.99c-7.92,15.92-9.51,30.85-9.73,39.89c-1.31,11.28,5.13,21.5,14.89,24.15
				c10.44,2.83,22.02-3.74,26.14-15.25c5.05-12.6,10.12-27.28,14.41-43.85c4.99-19.25,7.84-36.81,9.45-51.9
				C1622.6,898.14,1590.78,909.18,1573.96,942.99z"/><path fill="#ffcdad" d="M1577.24,874.59c-8.9,4.32-13.37,11.52-18.19,19.3c-4.13,6.66-27.14,43.76-8.85,67.78
				c12.67,16.64,39.11,19.07,57.71,11.86c27.78-10.78,47.68-46.84,33.97-74.53C1630.26,875.5,1597.72,864.65,1577.24,874.59z"/><path fill="#060352" d="M1563.32,892.92c-0.63-0.67-8.8-9.67-8.52-22.15c0.34-15.21,13.12-30.31,24.55-30.24
				c5.77,0.04,6.88,3.91,16.65,9.42c14.35,8.1,22.59,5.73,34.57,10.17c2.32,0.86,23.92,9.65,30.84,27.51
				c11.65,30.05-25.2,67.94-30.93,65.26c-4.43-2.07,12.09-27.31,1.01-41.53C1618.4,894.57,1582.77,913.74,1563.32,892.92z"/><path fill="#fff" d="M1552.84,953.39c4.79,2.82,12.94,6.7,23.86,7.61c7.86,0.65,14.58-0.44,19.36-1.65
				c-1.33,1.66-8.29,10.01-18.88,10.88C1566.84,971.08,1557.19,964.44,1552.84,953.39z"/><g><rect width="50.77" height="397.99" x="1342.87" y="878" fill="#84b2fe" transform="rotate(141.288 1368.242 1077.038)"/><path fill="#2c7efe" d="M899.9,901.99c88.43,110.34,249.57,128.11,359.92,39.68c110.34-88.43,128.1-249.57,39.68-359.91
				c-88.43-110.35-249.57-128.11-359.91-39.68C829.24,630.51,811.47,791.65,899.9,901.99z M927.98,879.5
				c-76.01-94.84-60.74-233.34,34.11-309.35c94.84-76,233.34-60.73,309.35,34.11s60.73,233.34-34.11,309.34
				C1142.48,989.61,1003.98,974.34,927.98,879.5z"/><path fill="#dfe6ff" d="M927.98,879.5c76.01,94.84,214.5,110.11,309.35,34.1c94.84-76,110.11-214.5,34.11-309.34
				s-214.51-110.11-309.35-34.11C867.24,646.16,851.97,784.66,927.98,879.5z" opacity=".53"/><path fill="#2c7efe" d="M1309.45,1056.82l16.31-13.07l19.32-15.48l16.31-13.07c96.11,109.25,192.22,218.5,288.33,327.75
				c4.82,7.24,6.3,13.69,6.76,18c1.77,16.4-7.61,33.41-24.02,45.7c-15.57,13.34-34.22,18.79-49.84,13.49
				c-4.1-1.39-10.08-4.24-16.09-10.52C1480.82,1292.02,1395.13,1174.42,1309.45,1056.82z"/></g><path fill="#6a70ea" d="M1576.16,1245.08c8.42,1.31,17.88,2.05,28.16,1.71c30.76-1.02,53.92-11.21,65.99-17.59
			c4.1-27.82,6.02-53.21,6.57-75.94c0.09-3.45,0.14-6.83,0.17-10.15c0.2-29.31-1.85-53.78-4.27-72.8
			c-1.51-11.8-3.3-22.73-6.15-32.82c-18.78,2.65-37.98,7.67-56.82,15.05c2.29,5.61,8.02,20.44,11.29,41.06
			c4.05,25.48,4.34,59.81-10.28,96.46C1601.63,1213.1,1588.88,1231.21,1576.16,1245.08z"/><g><path fill="#ffcdad" d="M1613.46,1317.95c-1.66,1.76-3.17,3.32-4.78,5.8c-3.38,5.22-3.49,9.04-10.16,16.21
				c-4.62,4.97-15.53,16.81-30.5,16.54c-16.12-0.29-32.2-13.94-30.93-22.98c0.3-2.1,1.48-3.58,1.76-3.92
				c4.8-5.74,14.29,0.08,25.19-3.58c8.89-2.98,15.42-11.17,14.1-14.34c-1.35-3.24-10.35,0.27-16.76-5.89
				c-1.6-1.54-4.78-5.31-3.7-7.56c2.34-4.92,22.34,8.19,38.19,0.13c9.1-4.63,9.65-12.52,15.67-12.19
				c8.11,0.44,16.21,15.25,12.68,22.22C1622.69,1311.42,1619.88,1311.15,1613.46,1317.95z"/><path fill="#8183f1" d="M1597.04,1296.94c0.48,1.97,1.42,4.99,3.37,8.26c0.76,1.27,1.66,2.59,2.74,3.89
				c5.6,6.69,12.55,9,15.31,9.75c1.42-1.67,2.89-3.42,4.42-5.27c15.49-18.81,35.71-46.88,50.55-81.63
				c8.21-19.21,14.77-40.5,17.96-63.37c2.05-14.68,2.71-30.01,1.54-45.9c-1.28-17.52-5.07-39.2-11.01-59.39
				c-2.75-9.35-5.97-18.38-9.63-26.52c-3.52-7.86-7.44-14.9-11.73-20.62c-3.36-4.46-6.93-8.11-10.72-10.72
				c-3.63-2.48-7.43-4.02-11.44-4.4c-1.04-0.09-2.07-0.1-3.11-0.06c-7.12,0.39-14.11,4.18-19.53,9.19
				c-0.94,0.87-1.83,1.77-2.67,2.71c-1.17,1.28-2.22,2.62-3.15,3.98c-0.05,0.05-0.09,0.12-0.13,0.17
				c-5.51,8.14-6.73,17.27-5.39,27.32c1.93,14.57,9.25,31.07,16.64,49.27c5.94,14.61,11.93,30.3,15.26,46.99
				c2.01,10.04,3.22,21.46,2.86,34.38c-0.39,14.99-2.91,31.98-8.79,51.06C1623.95,1247.08,1613.38,1270.66,1597.04,1296.94z"/></g></g><g><path fill="#dfe6ff" d="M547.57,1878.12c13.34-1.67,137.36-19.27,196.92-130.01c18.87-35.08,25.99-69.7,27.93-98.25
			c2.29-33.71,30.2-59.96,63.98-60.63c243.52-4.81,487.04-9.63,730.56-14.44c8.76,21.29,28.85,78.33,12.6,148.11
			c-14.74,63.31-52.12,105.83-80.81,130.43c-18.71,16.05-42.59,24.8-67.24,24.8L547.57,1878.12z"/><path fill="#c8d5fc" d="M861.1,1588.74c16.13,2.63,66.14,12.91,103.98,56.95c30.73,35.76,39.11,77.11,39.56,110.31
			c0.46,33.93,28.66,60.93,62.59,60.46c243.78-3.35,487.57-6.71,731.35-10.06c4.35-14.39,19.86-71.82-9.45-132.35
			c-40.7-84.04-131.71-99.54-140.23-100.84C1386.3,1578.39,1123.7,1583.57,861.1,1588.74z"/><path fill="#b1c5fc" d="M1091.15,1816.14c47.36-1.85,89.46-28.67,108.7-69.6c22.74-48.39,3.18-94.47,0-101.63
			c273.37,0.79,546.74,1.58,820.11,2.36c-0.4,16.37-3.5,48.91-23.63,82.72c-29.48,49.49-75.47,68.1-89.81,73.27
			C1634.72,1807.55,1362.93,1811.84,1091.15,1816.14z"/></g></svg>