<svg xmlns="http://www.w3.org/2000/svg" enable-background="new 0 0 2800 2000" viewBox="0 0 2800 2000"><rect width="2000" height="2000" x="400" fill="#fff" fill-rule="evenodd" clip-rule="evenodd" display="none"/><path fill="#d5f0ff" d="M707.58,1359.79c19.22,29.67,207.5,255.11,359.27,257.85c136.87,2.47,181.26-195.94,325.02-181.25
	c107.05,10.94,120.67,124.87,244.7,164.42c121.91,38.87,283.1-8.02,364.25-95.77c422.15-456.43,199.57-1136.24-156.86-1327.9
	c-160.95-86.55-258.86,152.78-596.89,109.99c-203.27-25.73-165.41-147.52-340.55-66.72C703.32,314.16,374.55,845.69,707.58,1359.79z
	" display="none" opacity=".5"/><path fill="#d5f0ff" d="M591.73,750.05c-53.33,110.6-225.52,86.35-343.93,214.68c-123,133.3-121.49,352.64,32,480.44
			c155.75,129.69,405.78,113.34,527.68,105.37c200.34-13.1,273.64-66.71,431.45-103.36c552.41-128.28,869.89,246.45,1222.36,103.95
			c191.79-77.54,318.88-278.05,277.72-415.42c-70.46-235.14-650.18-256.68-628.26-377.03c18.42-101.13,430.12-98.75,496.74-250.36
			c59.72-135.92-198.56-303.14-378.03-374.11c-82.72-32.71-324.88-132.23-523.37-50.07c-157.04,65-150.14,179.15-288.65,211.75
			c-166.98,39.3-235.5-112.84-474.34-117.22c-175.98-3.22-397.79,74.63-447.64,194.51C436.88,514.1,656.05,616.66,591.73,750.05z" opacity=".42"/><path fill="#d5f0ff" d="M682.92,852.65c-46.86,109.68-203.27,83.15-308.89,209.65c-109.71,131.39-105.39,350.32,35.46,479.95
			c142.93,131.53,369.36,118.57,479.76,112.25c181.43-10.38,247.16-62.91,389.72-97.37c499.04-120.61,791.86,257.65,1109.46,120.16
			c172.82-74.82,285.33-273.23,246.17-410.89c-67.02-235.63-592.84-264.92-574.58-384.74c15.34-100.68,388.58-92.79,446.93-243.21
			c52.31-134.86-184.06-305.22-347.7-378.47c-75.42-33.76-296.28-136.33-475.1-57c-141.48,62.77-133.7,176.79-258.81,207.46
			c-150.84,36.99-214.99-115.79-431.56-123.36c-159.57-5.58-359.6,69.15-403.17,188.12C539.38,615.08,739.44,720.38,682.92,852.65z" opacity=".6"/><path fill="#8bdcef" d="M2219.07,1791.33c103.05,44.42,397.18-137.83,333.76-274.2c-4.13-8.88-27.23-58.55-90.27-87.4
			c-67.93-31.08-139.79-18.56-148.03-17.12C2139.1,1443.19,2115.25,1746.58,2219.07,1791.33z"/><path fill="#d2edf7" d="M2200.08,1792.18c103.05,44.42,397.18-137.83,333.76-274.2c-4.13-8.88-27.23-58.55-90.27-87.4
			c-67.93-31.08-139.79-18.56-148.03-17.12C2120.11,1444.04,2096.26,1747.43,2200.08,1792.18z"/><path fill="#fff" d="M2175.57,1888.02c0.06,0.02,0.13,0.03,0.19,0.05c2.85,0.69,5.47-0.29,5.84-2.19
					c17.6-87.91,53.31-170.8,106.14-246.36c42.24-60.42,95.51-116.14,158.34-165.63c1.7-1.34,1.19-3.64-1.13-5.15
					c-2.32-1.51-5.57-1.65-7.27-0.31c-63.28,49.85-116.94,105.98-159.49,166.83c-53.21,76.11-89.18,159.6-106.91,248.14
					C2170.92,1885.25,2172.82,1887.29,2175.57,1888.02z"/><path fill="#fff" d="M2348.63,1556.07c1.07,0.28,2.2,0.35,3.24,0.14c2.56-0.51,3.58-2.51,2.27-4.46
					c-12.04-17.96-19.3-36.4-21.58-54.79c-2.21-17.83,0.36-34.86,7.63-50.64c0.82-1.77-0.76-3.98-3.51-4.95
					c-2.75-0.97-5.65-0.32-6.46,1.44c-7.65,16.58-10.34,34.48-8.02,53.22c2.4,19.33,10.03,38.71,22.67,57.58
					C2345.64,1554.77,2347.06,1555.65,2348.63,1556.07z"/><path fill="#fff" d="M2252.73,1675.05c1.52,0.41,3.14,0.36,4.37-0.22c2.13-1,2.3-3.23,0.37-4.98
					c-17.75-16.12-31.34-33.61-40.39-51.99c-8.77-17.81-12.89-35.71-12.26-53.19c0.07-1.96-2.19-3.93-5.07-4.41
					c-2.87-0.48-5.26,0.72-5.33,2.68c-0.67,18.37,3.67,37.18,12.88,55.9c9.51,19.32,23.79,37.7,42.44,54.64
					C2250.56,1674.22,2251.62,1674.76,2252.73,1675.05z"/><path fill="#fff" d="M2330.92,1613.25c21.42,5.71,43.15,9.22,64.83,10.45c26.69,1.52,52.18-0.49,75.73-5.96
					c2.51-0.58,3.41-2.62,2.01-4.55c-1.4-1.93-4.57-3.02-7.08-2.44c-22.42,5.21-46.66,7.11-72.07,5.67
					c-26.21-1.49-52.51-6.47-78.16-14.81c-2.79-0.9-5.62-0.18-6.33,1.62c-0.71,1.8,0.96,3.99,3.75,4.9
					C2319.35,1610,2325.13,1611.71,2330.92,1613.25z"/><path fill="#fff" d="M2220.08,1749.05c0.28,0.07,0.56,0.13,0.85,0.18c27.83,4.28,55.04,4.83,80.86,1.64
					c25.03-3.09,47.69-9.57,67.37-19.26c2.1-1.03,2.2-3.27,0.24-5c-1.96-1.73-5.26-2.3-7.35-1.26
					c-18.73,9.22-40.3,15.39-64.11,18.33c-24.57,3.04-50.46,2.51-76.95-1.57c-2.87-0.44-5.22,0.79-5.24,2.76
					C2215.74,1746.64,2217.61,1748.39,2220.08,1749.05z"/><ellipse cx="1464" cy="1874.57" fill="#dfe6ff" rx="1215.06" ry="73.03"/><path fill="#8bdcef" d="M849.42,485.85c69.13-88.39-32.44-419.16-180.45-392.46c-9.64,1.74-63.55,11.47-107.46,65.11
			c-47.32,57.81-53.45,130.49-54.16,138.83C492.39,474.78,779.78,574.9,849.42,485.85z"/><path fill="#d2edf7" d="M845.43,504.44c69.13-88.39-32.44-419.16-180.45-392.46c-9.64,1.74-63.55,11.47-107.45,65.11
			c-47.32,57.81-53.45,130.49-54.16,138.83C488.39,493.36,775.78,593.49,845.43,504.44z"/><path fill="#fff" d="M931.9,552.48c0.03-0.06,0.07-0.12,0.1-0.17c1.39-2.58,1.1-5.36-0.63-6.21
					c-80.56-39.35-151.66-94.94-211.33-165.23c-47.71-56.2-88.08-121.88-119.99-195.21c-0.86-1.98-3.22-2.08-5.27-0.22
					c-2.05,1.86-3.01,4.97-2.15,6.95c32.14,73.86,72.81,140.02,120.86,196.63c60.1,70.8,131.71,126.79,212.86,166.42
					C928.04,556.27,930.49,554.95,931.9,552.48z"/><path fill="#fff" d="M654.78,300.79c0.55-0.96,0.9-2.04,0.96-3.09c0.15-2.61-1.52-4.1-3.73-3.33
					c-20.43,7.08-40.1,9.42-58.48,6.95c-17.8-2.39-33.63-9.2-47.04-20.24c-1.5-1.24-4.05-0.28-5.68,2.14
					c-1.64,2.41-1.75,5.38-0.25,6.62c14.09,11.61,30.72,18.76,49.43,21.27c19.31,2.59,39.99,0.13,61.45-7.31
					C652.77,303.35,653.98,302.2,654.78,300.79z"/><path fill="#fff" d="M745.51,423.77c0.78-1.37,1.15-2.94,0.9-4.28c-0.43-2.32-2.54-3.04-4.72-1.63
					c-20.1,13.08-40.47,21.77-60.54,25.86c-19.46,3.96-37.81,3.4-54.56-1.65c-1.87-0.57-4.36,1.12-5.55,3.79
					c-1.19,2.66-0.64,5.27,1.24,5.84c17.6,5.31,36.89,5.9,57.34,1.74c21.1-4.29,42.51-13.43,63.63-27.17
					C744.15,425.65,744.94,424.77,745.51,423.77z"/><path fill="#fff" d="M705.59,332.44c10.96-19.26,19.87-39.39,26.57-60.05c8.25-25.43,12.78-50.59,13.47-74.76
					c0.07-2.58-1.67-3.97-3.89-3.1c-2.22,0.86-4.08,3.65-4.15,6.22c-0.66,23.01-4.97,46.94-12.82,71.14
					c-8.1,24.98-19.6,49.15-34.18,71.84c-1.58,2.47-1.6,5.39-0.04,6.54c1.56,1.15,4.11,0.08,5.69-2.38
					C699.5,342.81,702.62,337.65,705.59,332.44z"/><path fill="#fff" d="M808.78,474.14c0.14-0.25,0.27-0.51,0.39-0.78c11.21-25.83,18.65-52,22.13-77.79
					c3.37-24.99,2.85-48.56-1.52-70.06c-0.47-2.29-2.61-2.96-4.78-1.5c-2.17,1.46-3.55,4.5-3.09,6.79
					c4.17,20.45,4.65,42.88,1.45,66.66c-3.31,24.54-10.39,49.44-21.06,74.02c-1.16,2.67-0.56,5.25,1.34,5.76
					C805.35,477.72,807.52,476.36,808.78,474.14z"/><g><path fill="#62cbec" d="M532.76,1539.14c58.63-88.14-60.85-391.94-198.14-356.11c-8.94,2.33-58.95,15.38-96.37,69.02
			c-40.32,57.8-40.84,126.62-40.9,134.51C196.11,1554.56,473.69,1627.94,532.76,1539.14z"/><path fill="#bbe6f9" d="M530.35,1556.91c58.63-88.14-60.85-391.94-198.14-356.11c-8.94,2.33-58.95,15.38-96.37,69.02
			c-40.32,57.8-40.84,126.62-40.9,134.51C193.69,1572.33,471.27,1645.72,530.35,1556.91z"/><path fill="#fff" d="M615.16,1595.85c0.03-0.06,0.05-0.11,0.08-0.17c1.12-2.53,0.65-5.12-1.05-5.79
					c-78.63-31.18-149.53-78.33-210.75-140.13c-48.94-49.41-91.67-108.27-127-174.95c-0.95-1.8-3.18-1.72-4.97,0.18
					c-1.79,1.9-2.47,4.9-1.52,6.69c35.58,67.16,78.62,126.44,127.92,176.21c61.66,62.25,133.07,109.74,212.27,141.14
					C611.81,1599.69,614.02,1598.27,615.16,1595.85z"/><path fill="#fff" d="M336.27,1379.15c0.44-0.94,0.7-1.98,0.68-2.98c-0.04-2.46-1.72-3.74-3.75-2.86
					c-18.7,8.14-37.04,11.76-54.5,10.77c-16.92-0.96-32.3-6.22-45.71-15.64c-1.5-1.06-3.83,0.03-5.19,2.42
					c-1.36,2.39-1.25,5.19,0.25,6.24c14.1,9.9,30.26,15.43,48.04,16.44c18.35,1.04,37.62-2.77,57.28-11.32
					C334.57,1381.7,335.62,1380.53,336.27,1379.15z"/><path fill="#fff" d="M430.52,1488.26c0.63-1.34,0.87-2.85,0.54-4.09c-0.57-2.15-2.61-2.68-4.56-1.19
					c-17.96,13.75-36.49,23.41-55.08,28.7c-18.01,5.13-35.32,5.93-51.44,2.39c-1.8-0.4-4.02,1.37-4.95,3.96
					c-0.93,2.59-0.22,5,1.59,5.4c16.94,3.72,35.13,2.88,54.06-2.51c19.54-5.56,39.01-15.71,57.89-30.16
					C429.38,1490.13,430.06,1489.24,430.52,1488.26z"/><path fill="#fff" d="M386.36,1405.24c8.92-18.91,15.84-38.49,20.65-58.41c5.92-24.52,8.36-48.51,7.26-71.3
					c-0.12-2.43-1.85-3.61-3.88-2.64c-2.03,0.97-3.57,3.73-3.46,6.16c1.05,21.69-1.28,44.52-6.91,67.85
					c-5.81,24.08-14.88,47.65-26.95,70.05c-1.31,2.43-1.11,5.18,0.44,6.15c1.55,0.97,3.87-0.22,5.18-2.65
					C381.39,1415.43,383.95,1410.36,386.36,1405.24z"/><path fill="#fff" d="M493.69,1531.06c0.12-0.24,0.22-0.5,0.31-0.76c8.67-25.11,13.78-50.27,15.18-74.78
					c1.36-23.75-0.83-45.89-6.5-65.79c-0.6-2.12-2.66-2.6-4.6-1.07c-1.94,1.53-3.02,4.49-2.41,6.61c5.4,18.94,7.48,40,6.19,62.6
					c-1.33,23.32-6.19,47.26-14.45,71.16c-0.9,2.59-0.15,4.98,1.68,5.33C490.71,1534.68,492.66,1533.24,493.69,1531.06z"/></g><g><path fill="#060352" d="M2341.04,1094.42c-5.26-1.15-10.93-35.82,5.43-54.36c23.3-26.42,87.63-15.97,106.1,15.05
			c13.37,22.46-7.47,38.43,2.35,71.4c14.07,47.22,69.06,50.49,68.65,77.05c-0.45,29.94-70.63,71.68-111.14,46.9
			c-23.78-14.55-33.06-48.32-29.93-73.8c4.47-36.44,34.95-61.64,27.04-70.79c-4.17-4.82-12.29,2.57-24.92-3.1
			c-16.28-7.31-18.63-24.66-27.93-24.12C2347.95,1079.14,2344.77,1095.23,2341.04,1094.42z"/><path fill="#ffcdad" d="M2373.63,1779.88c3.34,13.09,8.43,17.55,9.34,27.64c1.21,13.53-6.25,24.48-10.21,30.29
			c-22.09,32.4-76.47,29.22-79.75,28.99c49.01-32.16,58.11-55.83,56.87-71.78c-1.16-15.03-11.99-29.41-5.22-38.32
			c5.33-7.02,18.19-6.18,27.32-4.68C2371.19,1758.49,2370.72,1768.46,2373.63,1779.88z"/><path fill="#0643a3" d="M2376.65,1789.87c-7.1,0.17-7.91,17.86-18.39,33.39c-7.35,10.88-21.7,24.03-52.81,31.03
			c-10.71,0.71-35.36,2.98-36.51,10.7c-0.82,5.51,10.63,11.97,18.38,14.69c20.25,7.11,40.19-2.53,48.23-6.42
			c6.54-3.16,16.88-9.18,27.1-20.34c1.45,7.06,2.9,14.12,4.34,21.18c0.24,0.29,2.06,2.44,4.85,2.36c2.69-0.07,5.16-2.18,5.88-5.2
			c0-3.27,0.22-6.92,0.81-10.87c1.33-8.89,4.1-16.14,6.68-21.47c2.13-4.04,7.33-15.21,4.45-28.71
			C2387.96,1802.28,2382.66,1789.73,2376.65,1789.87z"/><path fill="#ffcdad" d="M2485.48,1779.9c3.33,13.09,8.42,17.55,9.32,27.64c1.21,13.54-6.23,24.48-10.18,30.28
			c-22.04,32.39-76.32,29.2-79.58,28.97c48.91-32.15,57.98-55.82,56.75-71.77c-1.17-15.04-11.97-29.41-5.21-38.32
			c5.32-7.02,18.15-6.17,27.26-4.67C2483.04,1758.51,2482.57,1768.48,2485.48,1779.9z"/><path fill="#084db2" d="M2488.49,1789.9c-7.08,0.17-7.89,17.86-18.35,33.38c-7.33,10.88-21.66,24.02-52.7,31.02
			c-10.69,0.71-35.29,2.97-36.43,10.69c-0.82,5.51,10.61,11.97,18.34,14.69c20.21,7.12,40.1-2.52,48.13-6.42
			c6.53-3.16,16.85-9.18,27.04-20.33c1.45,7.06,2.89,14.12,4.34,21.18c0.24,0.29,2.06,2.44,4.84,2.36c2.68-0.07,5.15-2.18,5.86-5.2
			c0-3.27,0.22-6.92,0.8-10.87c1.33-8.89,4.08-16.14,6.67-21.46c2.13-4.04,7.31-15.21,4.43-28.7
			C2499.78,1802.31,2494.49,1789.75,2488.49,1789.9z"/><path fill="#0643a3" d="M2340.33,1398.44c-11.07,37.79-20.96,83.49-25.32,135.81c-8.53,102.47,7.7,188.04,24.17,246.3
			c2.68,1.55,10.21,5.44,20.4,4.65c10.54-0.82,17.52-6.14,19.88-8.1c-10.17-42.97-19.31-107.47-3.45-180.69
			c25.33-116.98,98.4-182.07,70.21-220.98c-14.52-20.04-52.91-29-78.26-14.96C2349.66,1370.59,2342.72,1390.16,2340.33,1398.44z"/><path fill="#084db2" d="M2384.39,1405.75c-3.95,39.18-5.28,85.92,0.04,138.15c10.42,102.29,42.08,183.44,68.96,237.68
			c2.97,1.04,10.96,3.41,20.7,0.86c10.32-2.7,16.29-9.27,18.27-11.64c-17.88-40.37-38.7-102.1-36.56-176.99
			c3.43-119.64,63.31-197.03,28.46-230.11c-17.95-17.04-57.33-18.8-79.68-0.34C2388.45,1376.66,2385.22,1397.17,2384.39,1405.75z"/><path fill="#62cbec" d="M2334.78,1175.39c-20.29,27.22,4.87,63.61,11.14,131.06c3.41,36.74-0.32,66.92-3.57,85.36
			c6.62,6.21,30.22,26.81,66.2,28.49c49.97,2.34,81.53-33.78,85.35-38.31c-7.2-103.95-33.9-183.35-69.35-209.57
			c-8.44-6.25-25.36-18.85-47.84-17.35C2372.78,1155.33,2348.16,1157.45,2334.78,1175.39z"/><path fill="#ffcdad" d="M2359.6,1134.45c-1.6,2.74-4.52,15.13-4.94,30.51c-0.23,8.57,5.73,16.04,13.82,17.65
			c8.65,1.72,17.54-3.69,20.03-12.55c4.47-15.88,8.82-28.68,8.44-33.69c-0.82-10.84-4.56-19.09-7.09-23.73
			C2386.03,1113.57,2369.09,1118.14,2359.6,1134.45z"/><path fill="#ffcdad" d="M2354.93,1073.44c-5.96,0.52-9.26,9.08-12.6,15.47c-2.74,5.22-17.99,34.31-2.97,51.34
			c10.99,12.46,31.84,10.33,43.95,5.77c21.09-7.95,36.17-31.06,31-40.96c-4.64-8.89-21.9-0.01-39.42-13.58
			C2364.11,1083.12,2361.74,1072.85,2354.93,1073.44z"/><path fill="#fff" d="M2343.19,1132.34c3.46,1.72,9.32,4,16.94,4.08c5.49,0.06,10.1-1.04,13.36-2.12
			c-0.84,1.22-5.25,7.37-12.56,8.5C2353.79,1143.92,2346.76,1139.79,2343.19,1132.34z"/><path fill="#66f" d="M2382.62,1153.77"/><path fill="#0643a3" d="M2216.38,1010.06l115.12,67.37c0.72,1.62,2.57,6.34,0.53,11.2c-1.98,4.71-6.45,6.74-8.12,7.39
				c-43.12-10.83-86.25-21.66-129.37-32.49L2216.38,1010.06z"/><path fill="#2c7efe" d="M2217.62,1010.43c8.96,3.66,11.31,18.65,5.26,33.48c-6.06,14.83-18.23,23.88-27.19,20.23
				c-8.96-3.66-11.31-18.65-5.26-33.48C2196.49,1015.83,2208.66,1006.77,2217.62,1010.43z"/><path fill="#d5f0ff" d="M2215.43,1015.8c7.55,3.08,9.53,15.71,4.43,28.2c-5.1,12.49-15.36,20.12-22.91,17.04
					c-7.55-3.08-9.53-15.71-4.43-28.2C2197.62,1020.35,2207.88,1012.72,2215.43,1015.8z"/><path fill="#d5f0ff" d="M2216.36,1013.52c7.55,3.08,9.53,15.71,4.43,28.2c-5.1,12.49-15.36,20.12-22.91,17.04
					c-7.55-3.08-9.53-15.71-4.43-28.2C2198.56,1018.07,2208.81,1010.44,2216.36,1013.52z"/><path fill="#0643a3" d="M2260.13,1035.05l100.01,58.52c4.52,2.65,6.67,8.15,4.88,13.07c-0.07,0.18-0.14,0.36-0.21,0.54
				c-0.07,0.17-0.15,0.33-0.22,0.49c-2.22,4.66-7.53,6.99-12.54,5.73c-37.46-9.41-74.93-18.82-112.39-28.22
				c-6.51-1.64-10.07-8.66-7.53-14.88l12.22-29.92C2246.88,1034.19,2254.34,1031.66,2260.13,1035.05z"/><path fill="#2c7efe" d="M2250.4,1029c8.96,3.66,11.31,18.65,5.26,33.48c-6.06,14.83-18.23,23.88-27.19,20.23
				c-8.96-3.66-11.31-18.65-5.26-33.48C2229.26,1034.4,2241.44,1025.34,2250.4,1029z"/><g><path fill="#d5f0ff" d="M2248.2,1034.37c7.55,3.08,9.53,15.71,4.43,28.2c-5.1,12.49-15.36,20.12-22.91,17.04
					c-7.55-3.08-9.53-15.71-4.43-28.2C2230.4,1038.92,2240.65,1031.29,2248.2,1034.37z"/><path fill="#d5f0ff" d="M2249.13,1032.09c7.55,3.08,9.53,15.71,4.43,28.2c-5.1,12.49-15.36,20.12-22.91,17.04
					c-7.55-3.08-9.53-15.71-4.43-28.2C2231.33,1036.64,2241.58,1029.01,2249.13,1032.09z"/></g><path fill="#ffcdad" d="M2267.73,1139.79c-3.88-3.33-0.89-7.73-4.08-19.49c-1.39-5.13-3.25-9.16-5.23-13.46
			c-4.13-8.97-5.8-9.66-6.84-14.49c-0.44-2.06-1.53-8.47,1.33-15.37c2.97-7.16,9.7-13.64,18.16-15.32
			c12.37-2.45,25.94,5.84,29.04,15.81c4.09,13.12-12.76,19.47-13.45,43.32c-0.25,8.64,1.81,14.67-2.41,18.66
			C2280.21,1143.29,2272.04,1143.49,2267.73,1139.79z"/><path fill="#89dbef" d="M2288.56,1122.53c6.82,48.43,22.58,64.74,36.01,70.52c34.93,15.03,77.56-31.07,107.08-10.92
			c9.51,6.49,16.15,18.82,14.57,29.44c-4.6,30.91-81.5,65.4-136.69,37.14c-40.75-20.87-63.58-72.82-53.76-127.32
			c1.1-0.98,8.71-7.53,19.28-5.97C2282.46,1116.52,2287.07,1120.97,2288.56,1122.53z"/></g><g><polygon fill="#9fc5fc" points="2092.74 370.2 2092.74 1854.95 867.38 1854.95 867.38 195.06 1917.6 195.06 1919.11 196.57 2091.45 368.91"/><polygon fill="#84b2fe" points="2091.45 368.91 1919.11 368.91 1919.11 196.57"/><rect width="640.15" height="1659.89" x="867.38" y="195.06" fill="#84b2fe"/><rect width="154.96" height="95.03" x="1016.59" y="923.48" fill="#fff"/><rect width="154.96" height="159.43" x="1210.55" y="859.07" fill="#fff"/><rect width="154.96" height="220.67" x="1405.95" y="797.83" fill="#fff"/><rect width="154.96" height="308.31" x="1599.9" y="710.19" fill="#fff"/><rect width="154.96" height="392.78" x="1793.39" y="625.73" fill="#fff"/><g><path fill="#fff" d="M1945.85,1474.91h-929.25v-361.02h929.25V1474.91z M1037.14,1459.34h888.16v-329.87h-888.16V1459.34z"/><path fill="#fff" d="M1338.07,1474.91h-246.2v-361.02h246.2V1474.91z M1112.42,1459.34h205.11v-329.87h-205.11V1459.34z"/><rect width="20.55" height="345.44" x="1622.62" y="1121.68" fill="#fff"/><path fill="#fff" d="M1945.85,1186.53h-929.25v-72.64h929.25V1186.53z M1037.14,1170.96h888.16v-41.49h-888.16V1170.96z"/></g><g><path fill="#fff" d="M1026.27,1569.42h906.37c8.4,0,14.5-4.63,14.5-11.01c0-6.38-6.1-11.01-14.5-11.01h-906.37
					c-8.4,0-14.5,4.63-14.5,11.01C1011.77,1564.79,1017.87,1569.42,1026.27,1569.42z"/><path fill="#fff" d="M1932.64,1617.53h-906.37c-8.4,0-14.5,4.63-14.5,11.01c0,6.38,6.1,11.01,14.5,11.01h906.37
					c8.4,0,14.5-4.63,14.5-11.01C1947.14,1622.16,1941.04,1617.53,1932.64,1617.53z"/><path fill="#fff" d="M1932.64,1684.35h-906.37c-8.4,0-14.5,4.63-14.5,11.01c0,6.38,6.1,11.01,14.5,11.01h906.37
					c8.4,0,14.5-4.63,14.5-11.01C1947.14,1688.97,1941.04,1684.35,1932.64,1684.35z"/><path fill="#fff" d="M1932.64,1753.85h-906.37c-8.4,0-14.5,4.63-14.5,11.01c0,6.38,6.1,11.01,14.5,11.01h906.37
					c8.4,0,14.5-4.63,14.5-11.01C1947.14,1758.48,1941.04,1753.85,1932.64,1753.85z"/></g><rect width="797.95" height="76.56" x="1006.97" y="457.59" fill="#fff"/><rect width="452.99" height="42.27" x="1006.97" y="587.44" fill="#fff"/></g><g><path fill="#00aeef" d="M1987.44,1565.85c-8.7,55.53-16.53,113.45-23.15,173.65c-5.24,47.59-9.44,93.92-12.73,138.92
			c9.78-2.06,19.55-4.12,29.33-6.17c4.12-41.93,8.23-83.87,12.35-125.8c13.59-58.28,27.18-116.57,40.77-174.85
			C2018.48,1569.67,2002.96,1567.76,1987.44,1565.85z"/><path fill="#153663" d="M1473.97,1837.63c-18.01-25.41-9.65-51.05-23.93-56.65c-6.52-2.56-14.43,0.37-18.96,3.74
			c-27.88,20.7-8.6,117.37,24.09,124.58c19.98,4.4,48.87-23.75,46.15-42.71C1499.61,1854.7,1486.84,1855.78,1473.97,1837.63z"/><path fill="#153663" d="M1535.87,1858.91c-25.3-10.66-30.97-33.75-44.27-31.31c-6.08,1.11-10.63,6.99-12.47,11.62
			c-11.25,28.47,48.14,91.91,75.98,82.11c17.01-5.99,25.56-40.51,14.7-53.45C1563.02,1859.77,1553.95,1866.53,1535.87,1858.91z"/><path fill="#0643a3" d="M1807.64,1665.08c-7.31-4.05-27.69-15.82-49.34-10.05c-7.86,2.09-13.48,5.8-17.01,8.43
			c-31.59,23.52-191.49,180.79-201.94,191.08c1.13,4.54,4.24,14.43,13.04,23.46c9.8,10.07,20.98,13.22,25.51,14.24
			c63.38-49.36,126.76-98.73,190.14-148.09c58.16,43.27,116.32,86.54,174.47,129.81c21.4-38.15,42.8-76.3,64.21-114.45
			C1906.09,1713.11,1835.45,1680.49,1807.64,1665.08z"/><path fill="#0643a3" d="M2028.82,1907.74c-71.25-6.5-146.62-11.18-225.76-13.29c-111.53-2.98-216.2-0.46-312.99,5.56
			c-3.11-5-8.66-15.38-9.8-29.73c-1.12-14.03,2.51-24.96,4.74-30.39c71.6,2.37,134.84-0.64,187.47-5.48
			c64.6-5.94,108.1-9.94,166.52-24.78c69.85-17.74,86.77-32.12,144.91-37.29c49.45-4.4,106.69-9.49,127.75,24.13
			c16.34,26.09,9.36,73.02-21.88,97C2064.83,1912.62,2035.34,1908.75,2028.82,1907.74z"/><path fill="#62cbec" d="M2019.52,1523.82c-23.33,15.42-30.74,38.58-34.7,50.94c-7.52,23.49-5.38,43.74-2.61,70.04
			c0.66,6.25,1.38,11.19,2.11,15.38c3.12,17.82,5.16,30.64,5.53,32.62c2.2,11.89,0.33,34.36-17.49,80.76
			c7.4,8.66,30.35,33.27,69.49,42.35c34.77,8.07,63.03-0.58,74.09-4.63c25.2-74.44,32.58-134.98,34.73-174.96
			c1.8-33.48,0.44-61.31-16.96-86.29c-4.8-6.9-21.94-31.51-54.53-37.84C2074.49,1511.27,2046.14,1506.22,2019.52,1523.82z"/><path fill="#ffcdad" d="M2050.17,1480.09c-8,15.18-9.46,29.62-9.56,38.4c-1.21,10.91,5.6,21.07,15.74,23.99
			c10.86,3.12,22.77-2.84,26.89-13.87c5.07-12.05,10.13-26.13,14.36-42.08c4.92-18.52,7.64-35.47,9.12-50.07
			C2100,1438.28,2067.16,1447.86,2050.17,1480.09z"/><path fill="#ffcdad" d="M2048.83,1399.31c-9.56,4.5-14.41,12.13-19.66,20.38c-4.49,7.06-29.51,46.39-10.28,72.26
			c13.32,17.92,41.53,20.84,61.47,13.36c29.79-11.17,51.48-49.42,37.18-79.16C2105.42,1400.94,2070.82,1388.95,2048.83,1399.31z"/><path fill="#fff" d="M2025.26,1481.22c4.69,2.84,12.7,6.76,23.47,7.78c7.75,0.73,14.41-0.27,19.14-1.41
			c-1.33,1.62-8.3,9.79-18.76,10.53C2038.88,1498.85,2029.42,1492.18,2025.26,1481.22z"/><path fill="#060352" d="M2106.68,1439.2c-13.6-33.81-75.36-22.06-85.35-51.65c-5.4-16.01,6.42-37.46,22.63-47.85
			c15.11-9.68,34.51-10.08,49.47-2.25c18.18,9.51,23.92,28.08,25.25,32.41c3.28,10.62,0.19,12.36,3.38,24.09
			c5.17,19.03,15.37,22.08,18.62,33.81c7.28,26.29-29.69,62.13-37.22,58.28C2098.14,1483.3,2115.46,1461.03,2106.68,1439.2z"/><path fill="#f4629d" d="M1912.99,1347.14L1912.99,1347.14c-2.84,8.49-12.03,13.06-20.52,10.22l-37.13-12.44
				c-8.49-2.84-13.06-12.03-10.22-20.52l0,0c2.84-8.49,12.03-13.06,20.52-10.22l37.13,12.44
				C1911.26,1329.46,1915.84,1338.65,1912.99,1347.14z"/><path fill="#153663" d="M1690.84,1272.81L1690.84,1272.81c-0.63,1.88,1.29,4.22,4.29,5.22l16.2,5.43c3,1,5.94,0.3,6.57-1.59l0,0
					c0.63-1.88-1.29-4.22-4.29-5.22l-16.2-5.43C1694.41,1270.22,1691.47,1270.93,1690.84,1272.81z"/><path fill="#fee7ed" d="M1704.71,1274.09l-2.15,6.42c2.62,3.27,6.43,7.39,11.79,11.68c7.43,5.96,14.85,9.85,20.07,12.22
					c2.04-6.1,4.09-12.21,6.13-18.31L1704.71,1274.09z"/><path fill="#fee7ed" d="M1702.73,1279.98l2.15-6.42c4.06-1.03,9.59-2.02,16.45-2.23c9.52-0.28,17.79,1.08,23.38,2.34
					c-2.04,6.1-4.09,12.21-6.13,18.31L1702.73,1279.98z"/><path fill="#f8ea14" d="M1728.66,1296.76L1728.66,1296.76c-0.95,2.84,1.95,6.37,6.48,7.89l125.2,41.94
					c4.53,1.52,8.98,0.45,9.93-2.39l0,0c0.95-2.84-1.95-6.37-6.48-7.89l-125.2-41.94
					C1734.05,1292.85,1729.61,1293.92,1728.66,1296.76z"/><path fill="#f8cd12" d="M1732.1,1286.48L1732.1,1286.48c-0.95,2.84,1.95,6.37,6.48,7.89l125.2,41.94
					c4.53,1.52,8.98,0.45,9.93-2.39l0,0c0.95-2.84-1.95-6.37-6.48-7.89l-125.2-41.94C1737.5,1282.56,1733.05,1283.64,1732.1,1286.48
					z"/><path fill="#f09c23" d="M1735.51,1276.31L1735.51,1276.31c-0.95,2.84,1.95,6.37,6.48,7.89l125.2,41.94
					c4.53,1.52,8.98,0.45,9.93-2.39l0,0c0.95-2.84-1.95-6.37-6.48-7.89l-125.2-41.94C1740.9,1272.4,1736.46,1273.47,1735.51,1276.31
					z"/><rect width="32.42" height="18.54" x="1857.53" y="1324.72" fill="#fff" transform="rotate(-71.482 1873.704 1334.035)"/><g><linearGradient id="a" x1="2836.563" x2="2868.981" y1="1727.288" y2="1727.288" gradientTransform="rotate(-71.482 2083.542 2215.476)" gradientUnits="userSpaceOnUse"><stop offset="0" stop-color="#dfe6ff"/><stop offset="1" stop-color="#84b2fe"/></linearGradient><polygon fill="url(#a)" points="1867.43 1314.78 1872.77 1316.57 1862.47 1347.31 1857.13 1345.52"/><linearGradient id="b" x1="2836.562" x2="2868.98" y1="1736.511" y2="1736.511" gradientTransform="rotate(-71.482 2083.542 2215.476)" gradientUnits="userSpaceOnUse"><stop offset="0" stop-color="#dfe6ff"/><stop offset="1" stop-color="#84b2fe"/></linearGradient><polygon fill="url(#b)" points="1876.08 1317.68 1881.6 1319.53 1871.31 1350.27 1865.78 1348.42"/><linearGradient id="c" x1="2836.562" x2="2868.98" y1="1745.831" y2="1745.831" gradientTransform="rotate(-71.482 2083.542 2215.476)" gradientUnits="userSpaceOnUse"><stop offset="0" stop-color="#dfe6ff"/><stop offset="1" stop-color="#84b2fe"/></linearGradient><polygon fill="url(#c)" points="1884.92 1320.64 1890.44 1322.49 1880.15 1353.23 1874.62 1351.38"/></g><g><path fill="#ffcdad" d="M1831.64,1388.48c-5.61-2.65-3.53-8.76-11.06-21.5c-3.28-5.55-6.75-9.67-10.45-14.06
				c-7.72-9.16-9.9-9.44-12.67-14.76c-1.18-2.27-4.52-9.41-3.39-18.42c1.17-9.33,6.96-19.08,16.33-23.77
				c13.69-6.85,32.23-1.52,39.08,9.15c9.01,14.03-8.67,26.89-1.79,55.03c2.49,10.19,6.84,16.58,3.19,22.61
				C1847.38,1388.56,1837.87,1391.42,1831.64,1388.48z"/><path fill="#a6e9f4" d="M1920.52,1531.27c-30.46-28.34-51.16-53.95-67.43-80.19c-16.25-26.2-26.91-50.54-33.88-69
				c0.97-3.86,3.06-10.06,7.89-16.24c7.37-9.45,16.66-13.23,20.7-14.6c13.75,30.27,45.58,89.64,110.55,140.34
				c64.68,50.48,129.67,66.98,162.35,73.02c3.49,1.31,11.97,5.05,18.39,14.06c0.87,1.22,9.63,13.94,6.67,29.32
				c0,0-3.23,16.78-21.29,27.93C2080.76,1662.88,1971.47,1578.67,1920.52,1531.27z"/></g></g><g><path fill="#f09c23" d="M480.05,1814.55v58.2c0,1.19,0.15,2.34,0.43,3.43c1.37,5.4,5.89,9.37,11.26,9.37h493.73
					c5.37,0,9.89-3.97,11.26-9.37c0.28-1.09,0.43-2.24,0.43-3.43v-58.2c0-1.19-0.15-2.34-0.43-3.43c-1.37-5.4-5.89-9.37-11.26-9.37
					H491.73c-5.37,0-9.89,3.97-11.26,9.37C480.2,1812.21,480.05,1813.36,480.05,1814.55z"/><path fill="#f8cd12" d="M480.05,1814.55v58.2c0,1.19,0.15,2.34,0.43,3.43h516.25c0.28-1.09,0.42-2.24,0.42-3.43v-58.2
					c0-1.19-0.15-2.34-0.42-3.43H480.47C480.2,1812.21,480.05,1813.36,480.05,1814.55z"/><path fill="#f29e30" d="M480.05,1814.55v58.2c0,1.19,0.15,2.34,0.43,3.43h246.57v-65.06H480.47
					C480.2,1812.21,480.05,1813.36,480.05,1814.55z"/><rect width="8.7" height="54.86" x="966.35" y="1816.22" fill="#f09c23" transform="rotate(-180 970.707 1843.648)"/><rect width="8.7" height="54.86" x="937.34" y="1816.22" fill="#f09c23" transform="rotate(-180 941.693 1843.648)"/><rect width="8.7" height="54.86" x="908.33" y="1816.22" fill="#f09c23" transform="rotate(-180 912.68 1843.648)"/><rect width="8.7" height="54.86" x="879.31" y="1816.22" fill="#f09c23" transform="rotate(-180 883.666 1843.648)"/><rect width="8.7" height="54.86" x="850.3" y="1816.22" fill="#f09c23" transform="rotate(-180 854.653 1843.648)"/><rect width="8.7" height="54.86" x="821.29" y="1816.22" fill="#f09c23" transform="rotate(-180 825.639 1843.648)"/><rect width="8.7" height="54.86" x="792.27" y="1816.22" fill="#f09c23" transform="rotate(-180 796.625 1843.648)"/><rect width="8.7" height="54.86" x="763.26" y="1816.22" fill="#f09c23" transform="rotate(-180 767.612 1843.648)"/><rect width="8.7" height="54.86" x="734.25" y="1816.22" fill="#f09c23" transform="rotate(-180 738.598 1843.648)"/><rect width="8.7" height="54.86" x="705.23" y="1816.22" fill="#e58e1a" transform="rotate(-180 709.585 1843.648)"/><rect width="8.7" height="54.86" x="676.22" y="1816.22" fill="#e58e1a" transform="rotate(-180 680.571 1843.648)"/><rect width="8.7" height="54.86" x="647.21" y="1816.22" fill="#e58e1a" transform="rotate(-180 651.558 1843.648)"/><rect width="8.7" height="54.86" x="618.19" y="1816.22" fill="#e58e1a" transform="rotate(-180 622.544 1843.648)"/><rect width="8.7" height="54.86" x="589.18" y="1816.22" fill="#e58e1a" transform="rotate(-180 593.53 1843.648)"/><rect width="8.7" height="54.86" x="560.17" y="1816.22" fill="#e58e1a" transform="rotate(-180 564.517 1843.648)"/><rect width="8.7" height="54.86" x="531.15" y="1816.22" fill="#e58e1a" transform="rotate(-180 535.503 1843.648)"/><rect width="8.7" height="54.86" x="502.14" y="1816.22" fill="#e58e1a" transform="rotate(-180 506.49 1843.648)"/><g><path fill="#f8cd12" d="M418.96,1730.74v58.2c0,1.19,0.15,2.34,0.43,3.43c1.37,5.4,5.89,9.37,11.26,9.37h493.73
					c5.37,0,9.89-3.97,11.26-9.37c0.28-1.09,0.43-2.24,0.43-3.43v-58.2c0-1.19-0.15-2.34-0.43-3.43c-1.37-5.4-5.89-9.37-11.26-9.37
					H430.64c-5.37,0-9.89,3.97-11.26,9.37C419.11,1728.4,418.96,1729.55,418.96,1730.74z"/><path fill="#f8cd12" d="M418.96,1730.74v58.2c0,1.19,0.15,2.34,0.43,3.43h516.25c0.28-1.09,0.42-2.24,0.42-3.43v-58.2
					c0-1.19-0.15-2.34-0.42-3.43H419.39C419.11,1728.4,418.96,1729.55,418.96,1730.74z"/><path fill="#f29e30" d="M418.96,1730.74v58.2c0,1.19,0.15,2.34,0.43,3.43h246.57v-65.06H419.39
					C419.11,1728.4,418.96,1729.55,418.96,1730.74z"/><rect width="8.7" height="54.86" x="905.27" y="1732.41" fill="#f8ea14" transform="rotate(-180 909.62 1759.84)"/><rect width="8.7" height="54.86" x="876.25" y="1732.41" fill="#f8ea14" transform="rotate(-180 880.606 1759.84)"/><rect width="8.7" height="54.86" x="847.24" y="1732.41" fill="#f8ea14" transform="rotate(-180 851.592 1759.84)"/><rect width="8.7" height="54.86" x="818.23" y="1732.41" fill="#f8ea14" transform="rotate(-180 822.579 1759.84)"/><rect width="8.7" height="54.86" x="789.21" y="1732.41" fill="#f8ea14" transform="rotate(-180 793.565 1759.84)"/><rect width="8.7" height="54.86" x="760.2" y="1732.41" fill="#f8ea14" transform="rotate(-180 764.552 1759.84)"/><rect width="8.7" height="54.86" x="731.19" y="1732.41" fill="#f8ea14" transform="rotate(-180 735.538 1759.84)"/><rect width="8.7" height="54.86" x="702.17" y="1732.41" fill="#f8ea14" transform="rotate(-180 706.525 1759.84)"/><rect width="8.7" height="54.86" x="673.16" y="1732.41" fill="#f8ea14" transform="rotate(-180 677.511 1759.84)"/><g><rect width="8.7" height="54.86" x="644.15" y="1732.41" fill="#f8cd12" transform="rotate(-180 648.498 1759.84)"/><rect width="8.7" height="54.86" x="615.13" y="1732.41" fill="#f8cd12" transform="rotate(-180 619.484 1759.84)"/><rect width="8.7" height="54.86" x="586.12" y="1732.41" fill="#f8cd12" transform="rotate(-180 590.47 1759.84)"/><rect width="8.7" height="54.86" x="557.1" y="1732.41" fill="#f8cd12" transform="rotate(-180 561.457 1759.84)"/><rect width="8.7" height="54.86" x="528.09" y="1732.41" fill="#f8cd12" transform="rotate(-180 532.444 1759.84)"/><rect width="8.7" height="54.86" x="499.08" y="1732.41" fill="#f8cd12" transform="rotate(-180 503.43 1759.84)"/><rect width="8.7" height="54.86" x="470.06" y="1732.41" fill="#f8cd12" transform="rotate(-180 474.416 1759.84)"/><rect width="8.7" height="54.86" x="441.05" y="1732.41" fill="#f8cd12" transform="rotate(-180 445.403 1759.84)"/></g></g><g><path fill="#f09c23" d="M480.05,1646.93v58.2c0,1.19,0.15,2.34,0.43,3.43c1.37,5.4,5.89,9.37,11.26,9.37h493.73
					c5.37,0,9.89-3.97,11.26-9.37c0.28-1.09,0.43-2.24,0.43-3.43v-58.2c0-1.19-0.15-2.34-0.43-3.43c-1.37-5.4-5.89-9.37-11.26-9.37
					H491.73c-5.37,0-9.89,3.97-11.26,9.37C480.2,1644.59,480.05,1645.74,480.05,1646.93z"/><path fill="#f8cd12" d="M480.05,1646.93v58.2c0,1.19,0.15,2.34,0.43,3.43h516.25c0.28-1.09,0.42-2.24,0.42-3.43v-58.2
					c0-1.19-0.15-2.34-0.42-3.43H480.47C480.2,1644.59,480.05,1645.74,480.05,1646.93z"/><path fill="#f29e30" d="M480.05,1646.93v58.2c0,1.19,0.15,2.34,0.43,3.43h246.57v-65.06H480.47
					C480.2,1644.59,480.05,1645.74,480.05,1646.93z"/><rect width="8.7" height="54.86" x="966.35" y="1648.6" fill="#f09c23" transform="rotate(-180 970.707 1676.032)"/><rect width="8.7" height="54.86" x="937.34" y="1648.6" fill="#f09c23" transform="rotate(-180 941.693 1676.032)"/><rect width="8.7" height="54.86" x="908.33" y="1648.6" fill="#f09c23" transform="rotate(-180 912.68 1676.032)"/><rect width="8.7" height="54.86" x="879.31" y="1648.6" fill="#f09c23" transform="rotate(-180 883.666 1676.032)"/><rect width="8.7" height="54.86" x="850.3" y="1648.6" fill="#f09c23" transform="rotate(-180 854.653 1676.032)"/><rect width="8.7" height="54.86" x="821.29" y="1648.6" fill="#f09c23" transform="rotate(-180 825.639 1676.032)"/><rect width="8.7" height="54.86" x="792.27" y="1648.6" fill="#f09c23" transform="rotate(-180 796.625 1676.032)"/><rect width="8.7" height="54.86" x="763.26" y="1648.6" fill="#f09c23" transform="rotate(-180 767.612 1676.032)"/><rect width="8.7" height="54.86" x="734.25" y="1648.6" fill="#f09c23" transform="rotate(-180 738.598 1676.032)"/><rect width="8.7" height="54.86" x="705.23" y="1648.6" fill="#e58e1a" transform="rotate(-180 709.585 1676.032)"/><rect width="8.7" height="54.86" x="676.22" y="1648.6" fill="#e58e1a" transform="rotate(-180 680.571 1676.032)"/><rect width="8.7" height="54.86" x="647.21" y="1648.6" fill="#e58e1a" transform="rotate(-180 651.558 1676.032)"/><rect width="8.7" height="54.86" x="618.19" y="1648.6" fill="#e58e1a" transform="rotate(-180 622.544 1676.032)"/><rect width="8.7" height="54.86" x="589.18" y="1648.6" fill="#e58e1a" transform="rotate(-180 593.53 1676.032)"/><rect width="8.7" height="54.86" x="560.17" y="1648.6" fill="#e58e1a" transform="rotate(-180 564.517 1676.032)"/><rect width="8.7" height="54.86" x="531.15" y="1648.6" fill="#e58e1a" transform="rotate(-180 535.503 1676.032)"/><rect width="8.7" height="54.86" x="502.14" y="1648.6" fill="#e58e1a" transform="rotate(-180 506.49 1676.032)"/></g><g><path fill="#f09c23" d="M454.97,1479.32v58.2c0,1.19,0.15,2.34,0.43,3.43c1.37,5.4,5.89,9.37,11.26,9.37h493.73
					c5.37,0,9.89-3.97,11.26-9.37c0.28-1.09,0.43-2.24,0.43-3.43v-58.2c0-1.19-0.15-2.34-0.43-3.43c-1.37-5.4-5.89-9.37-11.26-9.37
					H466.65c-5.37,0-9.89,3.97-11.26,9.37C455.12,1476.98,454.97,1478.13,454.97,1479.32z"/><path fill="#f8cd12" d="M454.97,1479.32v58.2c0,1.19,0.15,2.34,0.43,3.43h516.25c0.28-1.09,0.42-2.24,0.42-3.43v-58.2
					c0-1.19-0.15-2.34-0.42-3.43H455.4C455.12,1476.98,454.97,1478.13,454.97,1479.32z"/><path fill="#f29e30" d="M454.97,1479.32v58.2c0,1.19,0.15,2.34,0.43,3.43h246.57v-65.06H455.4
					C455.12,1476.98,454.97,1478.13,454.97,1479.32z"/><rect width="8.7" height="54.86" x="941.28" y="1480.98" fill="#f09c23" transform="rotate(-180 945.628 1508.416)"/><rect width="8.7" height="54.86" x="912.26" y="1480.98" fill="#f09c23" transform="rotate(-180 916.614 1508.416)"/><rect width="8.7" height="54.86" x="883.25" y="1480.98" fill="#f09c23" transform="rotate(-180 887.6 1508.416)"/><rect width="8.7" height="54.86" x="854.24" y="1480.98" fill="#f09c23" transform="rotate(-180 858.587 1508.416)"/><rect width="8.7" height="54.86" x="825.22" y="1480.98" fill="#f09c23" transform="rotate(-180 829.574 1508.416)"/><rect width="8.7" height="54.86" x="796.21" y="1480.98" fill="#f09c23" transform="rotate(-180 800.56 1508.416)"/><rect width="8.7" height="54.86" x="767.19" y="1480.98" fill="#f09c23" transform="rotate(-180 771.547 1508.416)"/><rect width="8.7" height="54.86" x="738.18" y="1480.98" fill="#f09c23" transform="rotate(-180 742.533 1508.416)"/><rect width="8.7" height="54.86" x="709.17" y="1480.98" fill="#f09c23" transform="rotate(-180 713.52 1508.416)"/><rect width="8.7" height="54.86" x="680.15" y="1480.98" fill="#e58e1a" transform="rotate(-180 684.506 1508.416)"/><rect width="8.7" height="54.86" x="651.14" y="1480.98" fill="#e58e1a" transform="rotate(-180 655.492 1508.416)"/><rect width="8.7" height="54.86" x="622.13" y="1480.98" fill="#e58e1a" transform="rotate(-180 626.479 1508.416)"/><rect width="8.7" height="54.86" x="593.11" y="1480.98" fill="#e58e1a" transform="rotate(-180 597.465 1508.416)"/><rect width="8.7" height="54.86" x="564.1" y="1480.98" fill="#e58e1a" transform="rotate(-180 568.452 1508.416)"/><rect width="8.7" height="54.86" x="535.09" y="1480.98" fill="#e58e1a" transform="rotate(-180 539.438 1508.416)"/><rect width="8.7" height="54.86" x="506.07" y="1480.98" fill="#e58e1a" transform="rotate(-180 510.425 1508.416)"/><rect width="8.7" height="54.86" x="477.06" y="1480.98" fill="#e58e1a" transform="rotate(-180 481.411 1508.416)"/></g><g><path fill="#f8cd12" d="M509.78,1563.12v58.2c0,1.19,0.15,2.34,0.43,3.43c1.37,5.4,5.89,9.37,11.26,9.37h493.73
					c5.37,0,9.89-3.97,11.26-9.37c0.28-1.09,0.43-2.24,0.43-3.43v-58.2c0-1.19-0.15-2.34-0.43-3.43c-1.37-5.4-5.89-9.37-11.26-9.37
					H521.46c-5.37,0-9.89,3.97-11.26,9.37C509.93,1560.78,509.78,1561.94,509.78,1563.12z"/><path fill="#f8cd12" d="M509.78,1563.13v58.2c0,1.19,0.15,2.34,0.43,3.43h516.25c0.28-1.09,0.43-2.24,0.43-3.43v-58.2
					c0-1.19-0.15-2.34-0.43-3.43H510.2C509.93,1560.79,509.78,1561.94,509.78,1563.13z"/><path fill="#f29e30" d="M509.78,1563.13v58.2c0,1.19,0.15,2.34,0.43,3.43h246.57v-65.06H510.2
					C509.93,1560.79,509.78,1561.94,509.78,1563.13z"/><rect width="8.7" height="54.86" x="996.08" y="1564.79" fill="#f8ea14" transform="rotate(-180 1000.437 1592.224)"/><rect width="8.7" height="54.86" x="967.07" y="1564.79" fill="#f8ea14" transform="rotate(-180 971.423 1592.224)"/><rect width="8.7" height="54.86" x="938.06" y="1564.79" fill="#f8ea14" transform="rotate(-180 942.41 1592.224)"/><rect width="8.7" height="54.86" x="909.04" y="1564.79" fill="#f8ea14" transform="rotate(-180 913.396 1592.224)"/><rect width="8.7" height="54.86" x="880.03" y="1564.79" fill="#f8ea14" transform="rotate(-180 884.382 1592.224)"/><rect width="8.7" height="54.86" x="851.02" y="1564.79" fill="#f8ea14" transform="rotate(-180 855.369 1592.224)"/><rect width="8.7" height="54.86" x="822" y="1564.79" fill="#f8ea14" transform="rotate(-180 826.355 1592.224)"/><rect width="8.7" height="54.86" x="792.99" y="1564.79" fill="#f8ea14" transform="rotate(-180 797.342 1592.224)"/><rect width="8.7" height="54.86" x="763.98" y="1564.79" fill="#f8ea14" transform="rotate(-180 768.328 1592.224)"/><g><rect width="8.7" height="54.86" x="734.96" y="1564.79" fill="#f8cd12" transform="rotate(-180 739.315 1592.224)"/><rect width="8.7" height="54.86" x="705.95" y="1564.79" fill="#f8cd12" transform="rotate(-180 710.301 1592.224)"/><rect width="8.7" height="54.86" x="676.94" y="1564.79" fill="#f8cd12" transform="rotate(-180 681.288 1592.224)"/><rect width="8.7" height="54.86" x="647.92" y="1564.79" fill="#f8cd12" transform="rotate(-180 652.274 1592.224)"/><rect width="8.7" height="54.86" x="618.91" y="1564.79" fill="#f8cd12" transform="rotate(-180 623.26 1592.224)"/><rect width="8.7" height="54.86" x="589.89" y="1564.79" fill="#f8cd12" transform="rotate(-180 594.247 1592.224)"/><rect width="8.7" height="54.86" x="560.88" y="1564.79" fill="#f8cd12" transform="rotate(-180 565.233 1592.224)"/><rect width="8.7" height="54.86" x="531.87" y="1564.79" fill="#f8cd12" transform="rotate(-180 536.22 1592.224)"/></g></g><path fill="#fff" d="M635.9,1550.12c49.89,3.23,52.51,5.85,55.74,55.74c3.23-49.89,5.85-52.51,55.74-55.74
				c-49.89-3.23-52.51-5.85-55.74-55.74C688.42,1544.27,685.8,1546.89,635.9,1550.12z"/><path fill="#fff" d="M635.9,1772.6c49.89,3.23,52.51,5.85,55.74,55.74c3.23-49.89,5.85-52.51,55.74-55.74
				c-49.89-3.23-52.51-5.85-55.74-55.74C688.42,1766.75,685.8,1769.37,635.9,1772.6z"/><g><path fill="#66f" d="M917.03,1128.17H517.97c-9.06,0-16.4,7.34-16.4,16.4v305c0,9.06,7.34,16.4,16.4,16.4h399.06
				c9.06,0,16.4-7.34,16.4-16.4v-305C933.44,1135.51,926.09,1128.17,917.03,1128.17z"/><path fill="#8183f1" d="M931.58,1128.17H532.51c-9.06,0-16.4,7.34-16.4,16.4v305c0,9.06,7.34,16.4,16.4,16.4h399.06
				c9.06,0,16.4-7.34,16.4-16.4v-305C947.98,1135.51,940.64,1128.17,931.58,1128.17z"/><path fill="#fff" d="M901.44,1222.58H562.65c-8.08,0-14.63-6.55-14.63-14.63v-35.65c0-8.08,6.55-14.63,14.63-14.63h338.78
				c8.08,0,14.63,6.55,14.63,14.63v35.65C916.07,1216.03,909.52,1222.58,901.44,1222.58z"/><path fill="#fff" d="M637.05,1294.79h-53.93c-5.61,0-10.16-4.55-10.16-10.16v-24.75c0-5.61,4.55-10.16,10.16-10.16h53.93
				c5.61,0,10.16,4.55,10.16,10.16v24.75C647.21,1290.24,642.66,1294.79,637.05,1294.79z"/><path fill="#fff" d="M718.36,1294.79h-53.93c-5.61,0-10.16-4.55-10.16-10.16v-24.75c0-5.61,4.55-10.16,10.16-10.16h53.93
				c5.61,0,10.16,4.55,10.16,10.16v24.75C728.51,1290.24,723.97,1294.79,718.36,1294.79z"/><path fill="#fff" d="M799.66,1294.79h-53.93c-5.61,0-10.16-4.55-10.16-10.16v-24.75c0-5.61,4.55-10.16,10.16-10.16h53.93
				c5.61,0,10.16,4.55,10.16,10.16v24.75C809.82,1290.24,805.27,1294.79,799.66,1294.79z"/><path fill="#fff" d="M637.05,1347.17h-53.93c-5.61,0-10.16-4.55-10.16-10.16v-24.75c0-5.61,4.55-10.16,10.16-10.16h53.93
				c5.61,0,10.16,4.55,10.16,10.16v24.75C647.21,1342.62,642.66,1347.17,637.05,1347.17z"/><path fill="#fff" d="M718.36,1347.17h-53.93c-5.61,0-10.16-4.55-10.16-10.16v-24.75c0-5.61,4.55-10.16,10.16-10.16h53.93
				c5.61,0,10.16,4.55,10.16,10.16v24.75C728.51,1342.62,723.97,1347.17,718.36,1347.17z"/><path fill="#fff" d="M799.66,1347.17h-53.93c-5.61,0-10.16-4.55-10.16-10.16v-24.75c0-5.61,4.55-10.16,10.16-10.16h53.93
				c5.61,0,10.16,4.55,10.16,10.16v24.75C809.82,1342.62,805.27,1347.17,799.66,1347.17z"/><path fill="#fff" d="M637.05,1399.54h-53.93c-5.61,0-10.16-4.55-10.16-10.16v-24.75c0-5.61,4.55-10.16,10.16-10.16h53.93
				c5.61,0,10.16,4.55,10.16,10.16v24.75C647.21,1394.99,642.66,1399.54,637.05,1399.54z"/><path fill="#fff" d="M718.36,1399.54h-53.93c-5.61,0-10.16-4.55-10.16-10.16v-24.75c0-5.61,4.55-10.16,10.16-10.16h53.93
				c5.61,0,10.16,4.55,10.16,10.16v24.75C728.51,1394.99,723.97,1399.54,718.36,1399.54z"/><path fill="#fff" d="M799.66,1399.54h-53.93c-5.61,0-10.16-4.55-10.16-10.16v-24.75c0-5.61,4.55-10.16,10.16-10.16h53.93
				c5.61,0,10.16,4.55,10.16,10.16v24.75C809.82,1394.99,805.27,1399.54,799.66,1399.54z"/><path fill="#c9b8f4" d="M641.37,1444h-62.55c-3.23,0-5.85-2.62-5.85-5.85v-14.25c0-3.23,2.62-5.85,5.85-5.85h62.55
				c3.23,0,5.85,2.62,5.85,5.85v14.25C647.21,1441.38,644.59,1444,641.37,1444z"/><path fill="#c9b8f4" d="M722.67,1444h-62.55c-3.23,0-5.85-2.62-5.85-5.85v-14.25c0-3.23,2.62-5.85,5.85-5.85h62.55
				c3.23,0,5.85,2.62,5.85,5.85v14.25C728.51,1441.38,725.9,1444,722.67,1444z"/><path fill="#c9b8f4" d="M803.97,1444h-62.55c-3.23,0-5.85-2.62-5.85-5.85v-14.25c0-3.23,2.62-5.85,5.85-5.85h62.55
				c3.23,0,5.85,2.62,5.85,5.85v14.25C809.82,1441.38,807.2,1444,803.97,1444z"/><path fill="#c9b8f4" d="M880.96,1294.79h-53.93c-5.61,0-10.16-4.55-10.16-10.16v-24.75c0-5.61,4.55-10.16,10.16-10.16h53.93
				c5.61,0,10.16,4.55,10.16,10.16v24.75C891.12,1290.24,886.57,1294.79,880.96,1294.79z"/><path fill="#fff" d="M874.39,1442.78h-40.78c-9.24,0-16.73-7.49-16.73-16.73v-107.22c0-9.24,7.49-16.73,16.73-16.73h40.78
				c9.24,0,16.73,7.49,16.73,16.73v107.22C891.12,1435.29,883.63,1442.78,874.39,1442.78z"/><path fill="#8183f1" d="M868.12,1367.21h-28.25v-7.93h28.25V1367.21z M868.12,1380.6h-28.25v-7.93h28.25V1380.6z"/><path fill="#fff" d="M691.72,1435.55c0.85,0,1.5-0.23,1.97-0.69c0.47-0.46,0.69-1.1,0.68-1.92h5.66c0,2.12-0.76,3.87-2.28,5.23
					c-1.52,1.36-3.48,2.04-5.88,2.04c-2.82,0-5.04-0.88-6.66-2.65c-1.62-1.77-2.44-4.21-2.44-7.34v-0.25c0-1.96,0.36-3.69,1.08-5.18
					c0.72-1.5,1.76-2.65,3.12-3.46c1.36-0.81,2.97-1.21,4.83-1.21c2.52,0,4.52,0.7,6,2.1c1.48,1.4,2.22,3.29,2.22,5.68h-5.66
					c0-1-0.24-1.77-0.73-2.31c-0.49-0.54-1.15-0.81-1.97-0.81c-1.56,0-2.48,1-2.74,2.99c-0.08,0.63-0.13,1.5-0.13,2.61
					c0,1.95,0.23,3.29,0.7,4.05C689.96,1435.18,690.7,1435.55,691.72,1435.55z"/><path fill="#fff" d="M601.98,1425.62c0-1.09,0.35-1.97,1.06-2.64c0.71-0.67,1.66-1,2.85-1c1.21,0,2.17,0.33,2.87,1
					c0.7,0.67,1.05,1.57,1.05,2.7v0.87c0,1.09-0.35,1.96-1.05,2.62c-0.7,0.66-1.65,0.99-2.84,0.99c-1.19,0-2.14-0.33-2.86-0.99
					c-0.72-0.66-1.08-1.56-1.08-2.7V1425.62z M604.6,1426.55c0,0.42,0.12,0.76,0.35,1.02c0.23,0.26,0.56,0.39,0.97,0.39
					c0.85,0,1.27-0.54,1.27-1.61v-0.72c0-0.42-0.11-0.76-0.34-1.03c-0.23-0.27-0.54-0.4-0.96-0.4c-0.4,0-0.71,0.13-0.94,0.39
					c-0.23,0.26-0.35,0.61-0.35,1.06V1426.55z M606.7,1438.52l-1.9-0.96l8.6-13.77l1.9,0.96L606.7,1438.52z M610.35,1435.52
					c0-1.1,0.36-1.98,1.07-2.64c0.71-0.66,1.66-0.99,2.85-0.99c1.2,0,2.16,0.33,2.87,0.98s1.06,1.56,1.06,2.73v0.85
					c0,1.1-0.35,1.98-1.05,2.64c-0.7,0.66-1.65,0.99-2.85,0.99c-1.19,0-2.14-0.33-2.86-0.99c-0.72-0.66-1.08-1.56-1.08-2.7V1435.52z
					 M612.96,1436.45c0,0.38,0.13,0.71,0.39,0.99c0.26,0.28,0.57,0.43,0.94,0.43c0.78,0,1.21-0.37,1.27-1.11l0.01-1.24
					c0-0.42-0.12-0.77-0.35-1.03c-0.23-0.26-0.55-0.39-0.96-0.39c-0.39,0-0.7,0.12-0.93,0.37c-0.23,0.24-0.36,0.58-0.38,0.99
					V1436.45z"/><path fill="#8183f1" d="M847.25,1175.52c0-2.94,0.96-5.31,2.87-7.12c1.91-1.81,4.48-2.71,7.7-2.71c3.26,0,5.84,0.9,7.74,2.69
					c1.89,1.8,2.84,4.23,2.84,7.3v2.35c0,2.94-0.95,5.3-2.84,7.08c-1.89,1.79-4.45,2.68-7.67,2.68c-3.2,0-5.77-0.89-7.72-2.66
					c-1.95-1.77-2.92-4.21-2.92-7.3V1175.52z M854.33,1178.02c0,1.12,0.32,2.04,0.95,2.74c0.63,0.7,1.5,1.05,2.61,1.05
					c2.28,0,3.43-1.45,3.43-4.35v-1.95c0-1.12-0.3-2.05-0.91-2.77c-0.61-0.72-1.47-1.09-2.58-1.09c-1.07,0-1.92,0.35-2.55,1.05
					c-0.63,0.7-0.95,1.66-0.95,2.87V1178.02z M859.98,1210.35l-5.13-2.58l23.21-37.15l5.13,2.58L859.98,1210.35z M869.84,1202.25
					c0-2.96,0.96-5.33,2.89-7.12c1.93-1.78,4.49-2.68,7.69-2.68c3.24,0,5.82,0.88,7.74,2.64c1.91,1.76,2.87,4.22,2.87,7.38v2.29
					c0,2.96-0.95,5.33-2.84,7.12c-1.89,1.78-4.46,2.68-7.7,2.68c-3.2,0-5.77-0.89-7.72-2.66c-1.95-1.77-2.92-4.21-2.92-7.3V1202.25z
					 M876.89,1204.76c0,1.02,0.35,1.91,1.04,2.68c0.7,0.77,1.55,1.15,2.55,1.15c2.11,0,3.25-0.99,3.43-2.98l0.03-3.34
					c0-1.15-0.32-2.07-0.95-2.77c-0.63-0.7-1.49-1.05-2.58-1.05c-1.04,0-1.88,0.33-2.51,0.99c-0.63,0.66-0.97,1.55-1.01,2.68
					V1204.76z"/><path fill="#fff" d="M763.19,1433.47v-4.87h19.02v4.87H763.19z M770.1,1440.26v-18.46h5.15v18.46H770.1z"/><path fill="#8183f1" d="M817.7,1165.69h-12.84c-6.31,0-11.45,5.85-11.45,13.05v7.09c0,2.11,1.72,3.83,3.83,3.83
					c2.11,0,3.83-1.72,3.83-3.83v-7.09c0-2.62,1.7-4.75,3.79-4.75h12.84c2.09,0,3.79,2.13,3.79,4.75v7.09
					c0,2.11,1.72,3.83,3.83,3.83c2.11,0,3.83-1.72,3.83-3.83v-7.09C829.15,1171.54,824.02,1165.69,817.7,1165.69z"/><path fill="#8183f1" d="M825.32,1193.59c-2.11,0-3.83,1.72-3.83,3.83v7.09c0,2.62-1.7,4.75-3.79,4.75h-12.84
					c-2.09,0-3.79-2.13-3.79-4.75v-7.09c0-2.11-1.72-3.83-3.83-3.83c-2.11,0-3.83,1.72-3.83,3.83v7.09
					c0,7.19,5.14,13.05,11.45,13.05h12.84c6.31,0,11.45-5.85,11.45-13.05v-7.09C829.15,1195.31,827.44,1193.59,825.32,1193.59z"/></g><g><circle cx="1054.59" cy="1676.03" r="218.94" fill="#f8ea14"/><circle cx="1054.59" cy="1676.03" r="193.45" fill="#f09c23"/><circle cx="1054.59" cy="1676.03" r="181.96" fill="#f8cd12"/><path fill="#e34f25" d="M1145.07,1729.4
				c0.66,12.94-0.97,24.35-5.14,34.5c-4.18,10.15-10.37,18.75-18.83,26.09c-8.2,7.05-18.13,12.8-30.06,17
				c-4.35,1.33-8.7,2.65-13.34,3.72l0.45,8.81c0.34,6.61-4.89,12.4-11.22,12.72l-9.09,0.46c-6.34,0.32-12.12-4.9-12.46-11.51
				l-0.35-6.89c-6.33,0.32-12.44-0.19-18.55-0.99c-8.04-0.69-15.3-2.26-21.74-3.86c-6.45-1.88-11.79-3.82-16.31-5.8
				c-4.79-1.96-7.94-4.01-9.95-5.57c-2.3-1.82-3.8-4.22-4.8-7.49c-1.27-3.25-2.06-7.9-2.34-13.41c-0.18-3.58-0.06-6.62,0.38-8.85
				c0.15-2.49,0.6-4.45,0.81-5.84c0.47-1.68,1.24-2.82,2.31-3.43c1.07-0.61,2.16-0.94,3.26-1c2.2-0.11,5.29,0.83,9.27,3.12
				c3.98,2.28,9.08,4.78,15.02,7.52c5.92,2.46,12.95,4.86,20.79,6.95c8.11,2.07,17.27,2.98,27.47,2.46
				c7.71-0.39,14.83-1.58,20.79-3.82c6.26-1.7,11.65-4.46,15.89-7.99c4.51-3.54,7.88-7.86,10.11-12.94
				c2.23-5.08,3.02-11.2,2.67-18.08c-0.35-6.89-2.3-12.58-6.13-17.36c-3.82-4.5-8.71-8.39-14.69-11.95
				c-6.24-3.27-13.02-6.24-20.6-8.61c-7.32-2.66-15.17-5.02-23.05-7.94c-7.87-2.64-15.76-5.82-23.39-9.3
				c-7.65-3.75-14.5-8.1-20.58-13.59c-6.08-5.49-11.37-11.85-15.09-19.66c-3.99-7.8-6.39-17.07-6.96-28.09
				c-0.51-9.92,0.94-19.38,4.35-28.39c3.13-9,8.51-17.28,15.61-24.27c7.37-7,16.46-12.99,27.54-17.7c4.32-1.88,9.22-3.23,14.12-4.59
				l-0.59-11.57c-0.34-6.61,4.9-12.13,11.24-12.45l9.09-0.46c6.33-0.32,12.11,4.63,12.45,11.24l0.49,9.64
				c4.15,0.07,8.31,0.4,12.47,0.74c6.67,0.76,12.81,2.11,18.13,3.49c5.32,1.39,10.1,3.07,14.05,4.8c3.69,2.02,6.81,3.52,8.82,5.07
				c2,1.28,3.17,2.6,4.05,3.66c0.61,1.07,1.21,2.15,1.56,3.51c0.35,1.36,0.71,3,1.09,5.19c0.37,1.92,0.5,4.39,0.65,7.42
				c0.15,3.03,0.29,5.78,0.13,8c-0.16,2.22-0.62,4.17-1.1,5.58c-0.74,1.69-1.25,2.55-2.31,3.43c-0.8,0.59-1.89,0.93-2.99,0.98
				c-1.65,0.08-3.91-0.9-7.32-2.67c-3.13-1.77-7.37-3.77-12.46-5.99c-5.07-1.95-10.97-3.86-17.95-5.43
				c-6.72-1.87-14.49-2.57-23.03-2.14c-7.99,0.41-14.54,1.85-20.52,3.81c-5.7,1.95-10.53,4.68-13.94,8.17
				c-3.7,3.23-6.53,7.24-7.96,11.73c-1.98,4.52-2.57,9.24-2.3,14.48c0.37,7.16,2.6,13.12,6.42,17.62c3.83,4.78,9,8.65,14.98,12.22
				c5.97,3.28,13.02,6.24,20.61,8.89c7.87,2.64,15.46,5.29,23.6,7.91c7.87,2.64,15.76,5.82,23.67,9.29
				c7.63,3.48,14.76,7.81,20.82,13.02c6.34,5.2,11.36,11.57,15.33,19.1C1142.41,1709.65,1144.54,1718.93,1145.07,1729.4
				L1145.07,1729.4z"/><path fill="#fff" d="M1227.37,1533.83c-53.25,3.45-56.04,6.25-59.49,59.49c-3.45-53.25-6.24-56.05-59.49-59.49
				c53.25-3.45,56.04-6.25,59.49-59.49C1171.32,1527.59,1174.12,1530.38,1227.37,1533.83z"/></g></g><g><path fill="#2c7efe" d="M0,1034.2c0.91-96.19,1.82-192.38,2.73-288.58c86.34,5.89,172.67,11.78,259,17.67
			c30.14,2.06,60.28,4.11,90.42,6.17c-9.84,24.19-22.62,64.15-23.31,114.86c-0.75,55.18,13.16,98.46,23.31,123.41
			c-30.14,2.27-60.28,4.53-90.42,6.8C174.49,1021.09,87.24,1027.65,0,1034.2z"/><path fill="#ffcdad" d="M661.85,991.71c-26.4-5.46-56.59-11.24-91.52-16.01c-117.46-16.01-214.5-10.32-275.29-3.72V809.54
			c116.49,15.99,201.65,1.28,259.17-16.12c16.85-5.1,42.12-13.69,75.01-21.23c31.21-7.16,69.26-13.36,113.48-14.73
			c1.74-0.05,3.44-0.1,5.11-0.14c62.99-1.38,80.46,9.27,89.13,16.25c53.97,43.52,48.7,172.98-11.16,219.49
			C788.4,1022.1,743.02,1008.48,661.85,991.71z"/><path fill="#fcb892" d="M548.08,832.19L548.08,832.19c0,0.01-16.62,28.08-18.78,53.54c-2.73,32.11,17.51,60.38,19.72,59.24
			c1.85-0.96-9.94-22.1-9.39-55.82C539.63,889.15,540.02,864.64,548.08,832.19z"/><path fill="#f69668" d="M663.3,913.87c-20.45-7.76-63.02,42.27-65.72,39.68c-1.69-1.62,15.25-22.02,18.6-26.04
			c18.22-21.86,30.97-35.31,35.96-40.92c38.19-42.92,23.26-77.9,59.52-109.12c11.86-10.22,24.68-16.33,36.15-20.15
			c62.99-1.38,80.46,9.27,89.13,16.25c53.97,43.52,48.7,172.98-11.16,219.49c-37.38,29.04-82.76,15.42-163.93-1.36
			c2.12-1.83,21.06-18.73,18.81-44.36C680.45,944.94,678.18,919.52,663.3,913.87z"/><path fill="#fcb892" d="M539.12,797.73c29.39-28.74,79.21-53.22,110.54-64.9c10.57-3.94,22.16-8.26,34.19-12.06
			c-47.21,43.79-72.74,58.01-87.51,61.66c-2.08,0.51-19.06,4.55-42.13,10.99C547.85,795.19,542.62,796.7,539.12,797.73z"/><path fill="#fcb892" d="M295.04,811.85v-2.31c62.58,10.18,155.73,15.64,259.17-16.12c27.96-8.59,53.17-18.82,75.61-29.59
			c-24.43,18.82-80.51,56.78-162.45,68.2C387.01,843.23,323.75,823.03,295.04,811.85z"/><path fill="#84b2fe" d="M293.77,894.03"/><path fill="#84b2fe" d="M261.73,1014.53V763.29c30.14,2.06,60.28,4.11,90.42,6.17c-5.53,33.12-9.76,72.59-9.88,117.1
			c-0.13,46.23,4.19,87.1,9.88,121.17C350.05,1007.89,309.05,1010.97,261.73,1014.53z"/><path fill="#66f" d="M1223.78,387.26c-79.81-78.39-208.07-77.24-286.46,2.58c-78.39,79.81-77.24,208.07,2.57,286.46
				c79.82,78.39,208.07,77.24,286.46-2.58C1304.75,593.91,1303.6,465.66,1223.78,387.26z M959.84,656
				c-68.6-67.38-69.59-177.61-2.21-246.21c67.38-68.6,177.62-69.59,246.21-2.22c68.6,67.38,69.59,177.62,2.21,246.22
				C1138.68,722.39,1028.44,723.38,959.84,656z"/><path fill="#dfe6ff" d="M1206.06,653.78c-67.38,68.6-177.61,69.59-246.21,2.21c-68.6-67.38-69.59-177.61-2.21-246.21
				c67.38-68.6,177.62-69.59,246.21-2.22C1272.44,474.95,1273.44,585.18,1206.06,653.78z" opacity=".53"/><path fill="#66f" d="M981.22,681.87l-14.96-14.69l-17.72-17.4l-14.96-14.69c-136.09,129-272.19,258.01-408.28,387.01
				c-7.28,8.5-10.6,16.01-12.23,21.01c-6.21,19.03-0.05,38.47,15.22,52.25c14.06,15.02,33.61,20.83,52.52,14.28
				c4.97-1.72,12.42-5.17,20.79-12.61C728.15,958.65,854.68,820.26,981.22,681.87z"/><g><path fill="#fcb892" d="M780.8,1021.75c-30.38-3.96-84.89-17.62-84.45-35.03c0.09-3.44,2.31-6.8,6.12-9.95
					c14.02-11.61,49.5-20.44,78.73-20.44c27.92,0,77.8,5.76,84.86,30.4c2.08,7.27-0.07,14.01-2.07,18.16
					c-1.14,2.37-2.23,3.89-2.44,4.17C845.51,1030.19,799.59,1024.2,780.8,1021.75z"/><path fill="#ffcdad" d="M777.89,1006.42c-22.36-5.32-56.53-16.85-75.42-29.65c14.02-11.61,49.5-20.44,78.73-20.44
					c27.92,0,77.8,5.76,84.86,30.4c2.08,7.27-0.07,14.01-2.07,18.16C842.74,1021.86,797.14,1011.01,777.89,1006.42z"/><path fill="#fcb892" d="M815.2,970.28c-11.99-1.09-116.97-11.05-118.83-35.95c-0.48-6.4,5.89-13.27,16.6-19.56
					c21.55-12.65,60.71-22.89,97.11-21.98c39.99,1,94.36,15.92,101.41,42.46c0.13,0.5,0.52,2.07,0.68,4.31
					c0.33,4.48-0.28,11.61-5.79,18.03C889.6,977.16,842.85,972.81,815.2,970.28z"/><path fill="#ffcdad" d="M794.95,955.05c-30.89-7.52-61.44-23.65-81.98-40.28c21.55-12.65,60.71-22.89,97.11-21.98
					c39.99,1,94.36,15.92,101.41,42.46c0.13,0.5,0.52,2.07,0.68,4.31C893.66,964.14,835.43,964.9,794.95,955.05z"/><path fill="#fcb892" d="M798.42,900.9c-27.56-3.11-74.16-8.28-83.69-30.54c-4.69-10.95,1.8-21.22,2.69-22.58
					c18.31-27.95,91.61-22.23,112.35-20.65c0.87,0.07,1.77,0.13,2.69,0.2c29.47,2.28,82.08,7.07,95.08,33.57
					c0.68,1.39,7.73,16.42-2.17,29.13c-5.81,7.46-15.73,11.86-27.9,14.23C868.74,909.86,827.51,904.17,798.42,900.9z"/><path fill="#ffcdad" d="M897.47,904.25c-10.69-1.08-20.96-2.33-30.04-3.36c-27.56-3.11-74.16-8.28-83.69-30.54
					c-4.69-10.95,1.8-21.22,2.69-22.58c7.93-12.11,26.2-17.9,46.03-20.44c29.47,2.28,82.08,7.07,95.08,33.57
					c0.68,1.39,7.73,16.42-2.17,29.13C919.56,897.48,909.63,901.88,897.47,904.25z"/><g><path fill="#fcb892" d="M785.62,832.03c-27.85-0.16-74.94-0.36-88.38-21.4c-6.61-10.35-2.03-21.21-1.39-22.65
					c13.11-29.61,86.74-31.7,107.57-32.33c11.71-0.35,27.8-0.83,44.02,0.41c23.89,1.84,48.06,7.42,58.89,22.7
					c0.92,1.3,10.6,15.44,3.08,29.08c-2.59,4.69-6.76,8.48-12.11,11.55C871.95,833.95,820.18,832.23,785.62,832.03z"/><path fill="#ffcdad" d="M897.3,819.39c-27.22-0.66-61.32-3.81-72.43-21.2c-6.61-10.35-2.03-21.21-1.4-22.65
					c3.81-8.6,12.72-14.88,23.96-19.48c23.89,1.84,48.06,7.42,58.89,22.7c0.92,1.3,10.6,15.44,3.08,29.08
					C906.82,812.53,902.64,816.32,897.3,819.39z"/></g><g><path fill="#ffcdad" d="M515.74,848.15c-2.99-17.14,7.04-34.44,23.39-50.42c29.39-28.74,79.21-53.22,110.54-64.9
					c10.57-3.94,22.16-8.26,34.19-12.06c36.89-11.65,77.86-18.37,105.83,5.98c39.71,34.58,23.18,105.53,14.33,128.43
					c-8.43,21.8-20.86,38.48-34.23,42.85c-0.88,0.29-4.74,1.49-9.19,1.54c0,0-0.41-0.02-1.1-0.1c-1.88-0.23-5.85-0.93-9.52-3.07
					c-6.97-4.06-8.18-47.32-8.5-57.1c-1.01-30.44-4.04-34.02-6.23-35.79c0,0-5.5-4.69-15.09-3.76
					c-10.74,1.04-19.45,32.76-31.12,52.51c-14.51,24.56-40.75,42.7-64.97,48.38C578.97,911.19,521.84,883.11,515.74,848.15z"/><path fill="#fee7ed" d="M760.58,899.56c-1.7-10.68,0.96-25.46,11.88-35.47c8.7-7.98,20.49-10.98,31.55-8.92
					c-8.43,21.8-20.86,38.48-34.23,42.85C768.89,898.32,765.04,899.52,760.58,899.56z"/><path fill="#f69668" d="M759.48,899.47c-1.88-0.23-5.85-0.93-9.52-3.07c-6.97-4.06-8.18-47.32-8.5-57.1
					c-1.01-30.44-4.04-34.02-6.23-35.79c-3.68-2.97-9.05-4.12-15.09-3.76c9.15-21.12,23.16-35.24,28.73-33.44
					c7.43,2.4-3.57,32.05,2.48,88.04C753.46,873.87,756.79,888.69,759.48,899.47z"/></g></g></g><g><path fill="#a7c8f9" d="M2470.59,463.96c-112.19,0-203.13,90.95-203.13,203.13c0,55.06,21.92,105,57.5,141.59
			c-31.17,20.51-62.34,41.03-93.52,61.54h222.88c1.61,0,3.2-0.12,4.75-0.33c3.81,0.21,7.65,0.33,11.52,0.33
			c112.19,0,203.13-90.95,203.13-203.13S2582.78,463.96,2470.59,463.96z"/><path fill="#fff" d="M2471.3,659.69h119.11c9.35,0,16.94,7.58,16.94,16.94c0,9.35-7.58,16.94-16.94,16.94H2471.3
			c-9.35,0-16.94-7.58-16.94-16.94C2454.37,667.27,2461.95,659.69,2471.3,659.69z"/><path fill="#fff" d="M2338.39,659.69h78.35c9.35,0,16.94,7.58,16.94,16.94c0,9.35-7.58,16.94-16.94,16.94h-78.35
			c-9.35,0-16.94-7.58-16.94-16.94C2321.45,667.27,2329.03,659.69,2338.39,659.69z"/><path fill="#fff" d="M2338.39,576.41h252.02c9.35,0,16.94,7.58,16.94,16.94c0,9.35-7.58,16.94-16.94,16.94h-252.02
			c-9.35,0-16.94-7.58-16.94-16.94C2321.45,583.99,2329.03,576.41,2338.39,576.41z"/><path fill="#fff" d="M2428.04,733.97h162.37c9.35,0,16.94,7.58,16.94,16.94v0c0,9.35-7.58,16.94-16.94,16.94h-162.37
			c-9.35,0-16.94-7.58-16.94-16.94v0C2411.11,741.55,2418.69,733.97,2428.04,733.97z"/></g></svg>