<svg xmlns="http://www.w3.org/2000/svg" enable-background="new 0 0 2800 2000" viewBox="0 0 2800 2000"><rect width="2000" height="2000" x="400" fill="#fff" fill-rule="evenodd" clip-rule="evenodd" display="none"/><path fill="#d5f0ff" d="M707.58,1359.79c19.22,29.67,207.5,255.11,359.27,257.85c136.87,2.47,181.26-195.94,325.02-181.25
	c107.05,10.94,120.67,124.87,244.7,164.42c121.91,38.87,283.1-8.02,364.25-95.77c422.15-456.43,199.57-1136.24-156.86-1327.9
	c-160.95-86.55-258.86,152.78-596.89,109.99c-203.27-25.73-165.41-147.52-340.55-66.72C703.32,314.16,374.55,845.69,707.58,1359.79z
	" display="none" opacity=".5"/><path fill="#d5f0ff" d="M573.26,782.37c-44.22,106.79-202.34,88.33-305.25,213.76c-106.89,130.29-96.68,339.16,48.54,456.75
			c147.36,119.32,374.89,97.01,485.83,86.13c182.31-17.88,247.05-70.93,389.6-110.09c499-137.09,803.82,211.27,1119.76,66.03
			c171.92-79.03,279.84-273.44,236.74-403.17c-73.76-222.06-603.72-226.94-588.55-342.16c12.75-96.82,388.58-105.67,443.27-251.87
			c49.04-131.08-193.41-283.37-360.06-346.14c-76.81-28.93-301.82-117.18-479.66-33.57c-140.71,66.15-129.82,174.69-254.91,209.48
			c-150.81,41.94-219.47-101.13-437.62-98.85C710.22,230.34,510.91,310.48,470.25,426C422.44,561.81,626.6,653.58,573.26,782.37z" opacity=".42"/><path fill="#d5f0ff" d="M660.62,877.64c-38.36,105.73-182.17,84.69-273.47,208.02c-94.84,128.11-82.09,336.52,51.68,456.19
			c135.73,121.42,341.86,102.97,442.37,93.97c165.17-14.79,223.04-66.59,351.76-103.26c450.59-128.35,733.06,224.04,1017.38,84.51
			c154.71-75.92,249.41-267.95,208.13-398.01c-70.65-222.62-551.71-236.33-539.87-350.95c9.95-96.31,350.9-98.87,398.1-243.72
			c42.32-129.86-180.27-285.75-332.56-351.1c-70.19-30.12-275.89-121.86-435.9-41.47c-126.6,63.6-114.9,172-227.86,204.59
			c-136.18,39.3-200.87-104.48-398.83-105.85c-145.85-1.01-325.4,75.57-360.38,190.06C520.06,655.23,706.88,750.13,660.62,877.64z" opacity=".6"/><path fill="#62cbec" d="M446.57,1766.39c84.24-62.52,74.74-385.89-65.3-398.53c-9.12-0.82-60.13-5.43-113.01,32.04
				c-56.99,40.37-80.55,104.37-83.26,111.71C127.47,1667.84,361.69,1829.39,446.57,1766.39z"/><path fill="#bbe6f9" d="M438.35,1782.16c84.24-62.52,74.74-385.89-65.3-398.53c-9.12-0.82-60.13-5.43-113.01,32.04
				c-56.99,40.37-80.55,104.37-83.26,111.71C119.26,1683.6,353.48,1845.15,438.35,1782.16z"/><path fill="#fff" d="M504.38,1846.91c0.04-0.04,0.09-0.09,0.13-0.13c1.89-1.98,2.32-4.56,0.97-5.75
						c-62.86-55.45-113.16-123.2-149.51-201.36c-29.06-62.49-49.16-131.71-59.74-205.73c-0.29-2-2.39-2.67-4.7-1.5
						c-2.31,1.17-3.95,3.74-3.66,5.73c10.65,74.56,30.89,144.28,60.17,207.22c36.61,78.73,87.28,146.97,150.59,202.82
						C499.96,1849.37,502.5,1848.79,504.38,1846.91z"/><path fill="#fff" d="M317.02,1551.29c0.73-0.73,1.32-1.61,1.64-2.55c0.79-2.31-0.35-4.07-2.54-3.93
						c-20.17,1.31-38.49-1.46-54.44-8.24c-15.46-6.57-28.03-16.64-37.38-29.92c-1.05-1.49-3.58-1.26-5.65,0.52
						c-2.07,1.77-2.91,4.42-1.86,5.9c9.82,13.96,23.04,24.53,39.28,31.44c16.76,7.13,36.01,10.04,57.21,8.66
						C314.57,1553.1,315.95,1552.36,317.02,1551.29z"/><path fill="#fff" d="M368.29,1684.65c1.04-1.04,1.76-2.37,1.87-3.63c0.19-2.19-1.53-3.37-3.85-2.64
						c-21.36,6.8-41.88,9.59-60.99,8.29c-18.52-1.26-34.93-6.32-48.77-15.03c-1.55-0.98-4.21-0.07-5.94,2.03
						c-1.73,2.1-1.88,4.59-0.33,5.57c14.55,9.15,31.79,14.47,51.25,15.79c20.08,1.37,41.65-1.56,64.1-8.71
						C366.61,1686.01,367.53,1685.41,368.29,1684.65z"/><path fill="#fff" d="M354.97,1592.42c14.66-14.65,27.68-30.58,38.84-47.54c13.74-20.88,24.07-42.43,30.69-64.05
						c0.71-2.3-0.52-3.99-2.73-3.76c-2.22,0.23-4.58,2.28-5.29,4.58c-6.3,20.57-16.13,41.08-29.2,60.95
						c-13.49,20.51-29.86,39.44-48.63,56.28c-2.03,1.83-2.78,4.46-1.66,5.88c1.12,1.42,3.68,1.09,5.72-0.73
						C346.91,1600.26,351,1596.39,354.97,1592.42z"/><path fill="#fff" d="M412.84,1745.76c0.19-0.19,0.37-0.39,0.54-0.6c16.51-20.5,29.71-42.25,39.24-64.64
						c9.23-21.69,14.62-43.06,16.01-63.53c0.15-2.18-1.61-3.32-3.93-2.54c-2.32,0.78-4.32,3.18-4.47,5.36
						c-1.32,19.47-6.44,39.81-15.23,60.45c-9.07,21.3-21.63,41.99-37.34,61.5c-1.7,2.12-1.81,4.59-0.22,5.53
						C408.85,1748.13,411.15,1747.44,412.84,1745.76z"/><path fill="#8bdcef" d="M507.54,1760.28c87.18,7.18,259.15-200.64,178.37-285.61c-5.26-5.53-34.68-36.48-88.43-42.11
				c-57.92-6.06-107.89,21.06-113.63,24.18C361.85,1522.97,419.71,1753.05,507.54,1760.28z"/><path fill="#d2edf7" d="M493.72,1765.64c87.18,7.18,259.15-200.64,178.37-285.61c-5.26-5.53-34.68-36.48-88.43-42.11
				c-57.92-6.06-107.89,21.06-113.63,24.18C348.03,1528.32,405.89,1758.41,493.72,1765.64z"/><path fill="#fff" d="M499.46,1842.54c0.05,0,0.1-0.01,0.16-0.01c2.28-0.2,3.96-1.58,3.77-3.07
						c-8.87-69.33-3.11-139.45,17.13-208.42c16.18-55.14,41.67-109.57,75.77-161.76c0.92-1.41-0.03-2.99-2.12-3.52
						c-2.09-0.54-4.53,0.17-5.45,1.58c-34.35,52.57-60.03,107.39-76.32,162.93c-20.38,69.47-26.19,140.1-17.25,209.92
						C495.34,1841.65,497.25,1842.68,499.46,1842.54z"/><path fill="#fff" d="M544.73,1554.24c0.86-0.06,1.71-0.29,2.43-0.7c1.76-1.02,2.02-2.74,0.57-3.86
						c-13.36-10.28-23.31-22.09-29.57-35.11c-6.07-12.62-8.41-25.85-6.96-39.31c0.16-1.51-1.55-2.75-3.83-2.79
						c-2.27-0.03-4.25,1.17-4.42,2.67c-1.53,14.15,0.94,28.05,7.31,41.31c6.58,13.69,17.04,26.1,31.08,36.9
						C542.2,1554.03,543.47,1554.32,544.73,1554.24z"/><path fill="#fff" d="M503.48,1666.01c1.22-0.08,2.41-0.51,3.17-1.25c1.33-1.27,0.9-2.96-0.96-3.77
						c-17.12-7.49-31.51-17.04-42.77-28.37c-10.91-10.98-18.41-23.17-22.29-36.25c-0.43-1.46-2.6-2.36-4.84-2
						c-2.24,0.36-3.71,1.84-3.27,3.31c4.08,13.74,11.96,26.55,23.42,38.09c11.83,11.91,26.95,21.94,44.95,29.81
						C501.67,1665.93,502.59,1666.06,503.48,1666.01z"/><path fill="#fff" d="M545.88,1600.89c17.24-1.11,34.17-3.93,50.49-8.41c20.1-5.52,38.43-13.34,54.47-23.24
						c1.71-1.06,1.87-2.78,0.36-3.86c-1.51-1.08-4.12-1.1-5.83-0.04c-15.27,9.42-32.71,16.87-51.83,22.12
						c-19.74,5.42-40.41,8.28-61.43,8.5c-2.28,0.03-4.19,1.27-4.27,2.77c-0.08,1.51,1.7,2.71,3.99,2.69
						C536.52,1601.37,541.21,1601.19,545.88,1600.89z"/><path fill="#fff" d="M497.77,1728.8c0.22-0.01,0.45-0.04,0.67-0.08c21.63-3.76,41.86-10.12,60.15-18.9
						c17.72-8.51,32.85-18.94,44.98-30.99c1.29-1.28,0.81-2.97-1.07-3.76c-1.88-0.79-4.45-0.39-5.75,0.9
						c-11.54,11.47-25.94,21.4-42.8,29.49c-17.4,8.36-36.66,14.41-57.24,17.99c-2.23,0.39-3.66,1.88-3.18,3.34
						C493.96,1728.09,495.78,1728.92,497.77,1728.8z"/><ellipse cx="1375.72" cy="1852.88" fill="#dfe6ff" rx="1144.27" ry="64.19"/><g><path fill="#62cbec" d="M2099.1,547.91c-115.94-4.69-308.61-306.19-188.47-404.95c7.82-6.43,51.58-42.4,123.25-41.09
				c77.23,1.41,138.62,45.24,145.67,50.27C2329.41,259.13,2215.91,552.64,2099.1,547.91z"/><path fill="#bbe6f9" d="M2116.43,557.2c-115.94-4.69-308.61-306.19-188.47-404.95c7.82-6.43,51.58-42.4,123.25-41.09
				c77.23,1.41,138.62,45.24,145.67,50.27C2346.73,268.42,2233.23,561.93,2116.43,557.2z"/><path fill="#fff" d="M2096.4,657.51c-0.07-0.01-0.14-0.03-0.2-0.04c-2.96-0.64-4.96-2.72-4.47-4.66
						c22.93-89.83,26.72-183.08,11.27-277.16c-12.35-75.22-37.08-151.01-73.51-225.25c-0.98-2,0.52-3.93,3.36-4.3
						c2.84-0.37,5.93,0.96,6.92,2.96c36.69,74.78,61.6,151.12,74.04,226.88c15.56,94.76,11.74,188.69-11.35,279.16
						C2101.97,657.01,2099.28,658.06,2096.4,657.51z"/><path fill="#fff" d="M2083.58,270.62c-1.12-0.21-2.21-0.66-3.08-1.31c-2.16-1.62-2.21-3.94-0.12-5.17
						c19.26-11.36,34.27-25.3,44.63-41.43c10.04-15.63,15.26-32.66,15.54-50.62c0.03-2.01,2.49-3.37,5.49-3.05
						c3,0.33,5.41,2.23,5.38,4.24c-0.29,18.87-5.78,36.77-16.33,53.2c-10.88,16.95-26.66,31.6-46.9,43.54
						C2086.94,270.75,2085.22,270.93,2083.58,270.62z"/><path fill="#fff" d="M2119.75,424.45c-1.6-0.3-3.09-1.06-3.97-2.15c-1.54-1.89-0.7-4.04,1.88-4.81
						c23.76-7.08,44.25-17.31,60.91-30.4c16.14-12.68,27.99-27.52,35.22-44.1c0.81-1.86,3.8-2.68,6.7-1.84
						c2.89,0.84,4.58,3.03,3.77,4.88c-7.6,17.43-20.05,33.02-37.02,46.35c-17.51,13.76-39.04,24.51-64.01,31.95
						C2122.14,424.64,2120.92,424.67,2119.75,424.45z"/><path fill="#fff" d="M2074.5,331.85c-22.52-4.26-44.35-10.71-65.11-19.26c-25.56-10.53-48.42-23.8-67.94-39.44
						c-2.08-1.67-2.01-3.97,0.16-5.14c2.17-1.17,5.61-0.77,7.69,0.89c18.57,14.88,40.32,27.51,64.65,37.53
						c25.1,10.34,51.85,17.46,79.5,21.16c3,0.41,5.32,2.35,5.18,4.34c-0.14,2-2.68,3.29-5.68,2.89
						C2086.74,333.99,2080.59,333,2074.5,331.85z"/><path fill="#fff" d="M2117.08,508.04c-0.29-0.05-0.58-0.13-0.87-0.21c-27.86-8.46-53.47-20.12-76.12-34.65
						c-21.95-14.08-40.18-30.26-54.19-48.1c-1.49-1.9-0.59-4.04,2.01-4.77c2.6-0.73,5.93,0.21,7.42,2.11
						c13.33,16.98,30.68,32.38,51.56,45.77c21.55,13.82,45.92,24.92,72.43,32.97c2.88,0.87,4.51,3.07,3.65,4.92
						C2122.2,507.73,2119.67,508.53,2117.08,508.04z"/><g><path fill="#8bdcef" d="M2152.58,577.3c76.37,64.64,374.6-14.47,355.9-147.27c-1.22-8.65-8.03-57.02-54.32-97.99
				c-49.88-44.15-114.43-52.12-121.84-53.03C2174.74,259.55,2075.63,512.18,2152.58,577.3z"/><path fill="#d2edf7" d="M2136.16,573.1c76.37,64.64,374.6-14.47,355.9-147.27c-1.22-8.65-8.03-57.02-54.32-97.99
				c-49.88-44.15-114.43-52.12-121.84-53.03C2158.32,255.35,2059.21,507.97,2136.16,573.1z"/><path fill="#fff" d="M2090.37,648.49c0.05,0.03,0.1,0.06,0.15,0.09c2.25,1.32,4.74,1.17,5.55-0.35
						c37.83-70.43,89.81-131.87,154.5-182.61c51.72-40.57,111.63-74.28,178.07-100.19c1.79-0.7,1.96-2.8,0.37-4.69
						c-1.59-1.89-4.33-2.85-6.12-2.15c-66.92,26.1-127.27,60.05-179.36,100.92c-65.15,51.11-117.51,112.99-155.61,183.93
						C2087.13,644.92,2088.22,647.15,2090.37,648.49z"/><path fill="#fff" d="M2324.17,410.24c0.84,0.52,1.79,0.87,2.72,0.96c2.32,0.23,3.7-1.21,3.09-3.21
						c-5.61-18.45-7.01-36.06-4.18-52.34c2.74-15.78,9.36-29.65,19.66-41.22c1.15-1.29,0.39-3.6-1.71-5.14
						c-2.09-1.54-4.73-1.74-5.89-0.45c-10.83,12.16-17.78,26.73-20.66,43.31c-2.97,17.12-1.5,35.62,4.39,55.01
						C2321.96,408.36,2322.95,409.48,2324.17,410.24z"/><path fill="#fff" d="M2211.47,486.85c1.19,0.74,2.58,1.12,3.78,0.95c2.08-0.3,2.8-2.16,1.61-4.15
						c-10.96-18.36-18.01-36.81-20.95-54.84c-2.86-17.47-1.73-33.81,3.35-48.56c0.57-1.65-0.85-3.92-3.18-5.08
						c-2.33-1.15-4.67-0.75-5.24,0.9c-5.34,15.5-6.52,32.67-3.52,51.03c3.1,18.95,10.5,38.34,22.02,57.63
						C2209.84,485.57,2210.6,486.3,2211.47,486.85z"/><path fill="#fff" d="M2294.22,454.42c16.79,10.43,34.41,19.06,52.59,25.74c22.38,8.22,44.64,13.13,66.15,14.58
						c2.29,0.15,3.59-1.35,2.9-3.36c-0.69-2.01-3.11-3.76-5.4-3.92c-20.48-1.38-41.65-6.05-62.95-13.87
						c-21.98-8.07-43.12-19.15-62.83-32.93c-2.14-1.49-4.75-1.61-5.82-0.26c-1.08,1.35-0.22,3.66,1.92,5.15
						C2285.2,448.64,2289.68,451.6,2294.22,454.42z"/><path fill="#fff" d="M2164.41,541.49c0.22,0.13,0.44,0.26,0.68,0.37c22.63,10.88,45.69,18.41,68.55,22.39
						c22.15,3.86,43.17,4.22,62.47,1.06c2.06-0.34,2.73-2.22,1.5-4.21c-1.23-1.99-3.89-3.32-5.94-2.99
						c-18.37,3.01-38.37,2.67-59.45-1c-21.75-3.79-43.7-10.96-65.23-21.31c-2.34-1.12-4.66-0.68-5.18,0.99
						C2161.34,538.31,2162.48,540.29,2164.41,541.49z"/></g></g><g><path fill="#62cbec" d="M2339.53,1175.51c20.46-8.55,67.88,28.84,79.73,75.36c15.21,59.67-34.94,107.5-13.99,131.15
			c18.84,21.26,67.15-8.64,84.25,12.87c14.6,18.37-6.81,62.41-28.6,89.89c-43.67,55.09-105.95,64.78-102.87,85
			c2.37,15.54,39.58,12.58,44.08,28.85c8.3,29.96-96.19,118.49-160.06,87.93c-68.75-32.9-55.92-187.29-18.76-202.04
			c18.67-7.42,44.52,20.02,50.6,13.46c8.91-9.62-55.61-58.88-57.16-128.82c-0.67-30.04,10.23-66.36,28.98-70.77
			c26.02-6.11,50.09,52.34,68.74,46.67C2343.38,1336.28,2305.05,1189.92,2339.53,1175.51z"/><path fill="#dfe6ff" d="M2211.39,1735.54c1.76,1.01,4.05,0.58,5.31-1.08c23.48-30.94,44.62-63.96,62.84-98.15
					c24.64-46.24,44.25-95.15,58.29-145.39c19.03-68.12,27.93-138.71,26.45-209.8c-0.05-2.27-1.92-4.07-4.19-4.02
					c-2.27,0.05-4.07,1.92-4.02,4.19c1.46,70.29-7.34,140.08-26.15,207.42c-24.33,87.11-64.62,168.12-119.76,240.78
					c-1.37,1.81-1.02,4.38,0.79,5.75C2211.09,1735.36,2211.24,1735.45,2211.39,1735.54z"/><path fill="#dfe6ff" d="M2339.29,1459.63c0.83,0.48,1.83,0.67,2.84,0.47c2.23-0.44,3.67-2.6,3.23-4.83
					c-2.53-12.82-6.4-25.42-11.49-37.44c-4.62-10.91-10.29-21.44-16.85-31.31c-1.26-1.89-3.8-2.4-5.69-1.15
					c-1.89,1.26-2.4,3.8-1.15,5.69c6.28,9.45,11.71,19.53,16.13,29.97c4.87,11.51,8.57,23.56,11,35.83
					C2337.55,1458.08,2338.3,1459.06,2339.29,1459.63z"/><path fill="#dfe6ff" d="M2298.17,1587.54c0.75,0.43,1.65,0.63,2.57,0.51c2.25-0.29,3.83-2.36,3.54-4.61
					c-1.43-10.89-3.98-21.66-7.6-32.02c-3.28-9.4-7.46-18.54-12.43-27.18c-1.13-1.97-3.64-2.64-5.61-1.51
					c-1.97,1.13-2.64,3.64-1.51,5.61c4.71,8.19,8.68,16.87,11.79,25.79c3.43,9.83,5.85,20.05,7.21,30.39
					C2296.31,1585.83,2297.1,1586.92,2298.17,1587.54z"/><path fill="#dfe6ff" d="M2340.12,1468.83c1.78,1.02,4.09,0.57,5.34-1.13c9.06-12.27,19.41-23.65,30.76-33.81
					c10.3-9.22,21.53-17.52,33.37-24.67c1.94-1.17,2.56-3.7,1.39-5.64c-1.17-1.94-3.7-2.56-5.64-1.39
					c-12.28,7.42-23.92,16.02-34.6,25.58c-11.77,10.53-22.5,22.33-31.89,35.05c-1.35,1.83-0.96,4.4,0.87,5.74
					C2339.85,1468.66,2339.99,1468.75,2340.12,1468.83z"/><path fill="#dfe6ff" d="M2299.66,1580.17c1.59,0.91,3.65,0.67,4.99-0.71c10.62-10.95,22.4-20.83,35.02-29.37
					c11.45-7.75,23.69-14.47,36.38-19.97c2.08-0.9,3.04-3.32,2.14-5.4c-0.9-2.08-3.32-3.04-5.4-2.14
					c-13.16,5.7-25.85,12.67-37.72,20.7c-13.08,8.86-25.3,19.1-36.31,30.45c-1.58,1.63-1.54,4.23,0.09,5.81
					C2299.09,1579.8,2299.37,1580,2299.66,1580.17z"/><path fill="#dfe6ff" d="M2265.71,1655.9c1.44,0.82,3.29,0.72,4.65-0.39c5.32-4.37,11.11-8.21,17.21-11.4
					c5.53-2.9,11.36-5.29,17.34-7.11c2.17-0.66,3.39-2.96,2.73-5.13c-0.66-2.17-2.96-3.39-5.13-2.73
					c-6.46,1.97-12.77,4.56-18.76,7.69c-6.59,3.45-12.86,7.6-18.61,12.33c-1.75,1.44-2.01,4.03-0.57,5.78
					C2264.91,1655.34,2265.29,1655.66,2265.71,1655.9z"/><path fill="#dfe6ff" d="M2264.55,1653.56c0.56,0.32,1.2,0.51,1.9,0.54c2.27,0.08,4.17-1.69,4.25-3.96
					c0.26-7.45-0.24-14.94-1.5-22.28c-1.14-6.66-2.91-13.24-5.27-19.57c-0.79-2.13-3.16-3.21-5.28-2.42
					c-2.13,0.79-3.21,3.16-2.42,5.28c2.18,5.86,3.82,11.95,4.87,18.1c1.16,6.78,1.63,13.71,1.38,20.6
					C2262.43,1651.43,2263.27,1652.83,2264.55,1653.56z"/><path fill="#8ee1f4" d="M2548.59,1375.28c18.58,2.31,37.64,49.6,26.82,88.65c-13.88,50.1-70.69,64.12-65.25,90.22
			c4.89,23.48,52.83,21.83,56.33,44.76c2.99,19.58-31.16,42.87-58.65,53.87c-55.1,22.05-104.8,3.04-111.02,19.14
			c-4.78,12.38,23.72,25.82,20.2,39.63c-6.49,25.43-120.17,46.48-154.15-2.7c-36.58-52.94,37.57-160.67,70.98-155.91
			c16.79,2.4,24.23,33.34,31.43,31.08c10.56-3.31-16.05-66.46,12.14-118.35c12.11-22.29,35.32-44.34,50.91-39.7
			c21.63,6.43,14.75,59.35,30.79,63.02C2483.99,1494.69,2517.29,1371.39,2548.59,1375.28z"/><g><path fill="#fff" d="M2219.85,1731.88c0.87,1.48,2.72,2.12,4.34,1.43c30.18-12.83,59.52-28.16,87.2-45.56
					c37.44-23.54,72.33-51.16,103.67-82.08c42.51-41.93,78.63-89.92,107.37-142.63c0.92-1.68,0.3-3.79-1.38-4.7
					c-1.68-0.92-3.79-0.3-4.7,1.38c-28.41,52.11-64.12,99.56-106.15,141.01c-54.36,53.62-117.85,96.08-188.72,126.2
					c-1.76,0.75-2.58,2.78-1.83,4.55C2219.7,1731.62,2219.77,1731.75,2219.85,1731.88z"/><path fill="#fff" d="M2429.27,1583.36c0.41,0.7,1.06,1.25,1.88,1.53c1.81,0.61,3.78-0.37,4.39-2.18
					c3.52-10.46,5.97-21.31,7.28-32.25c1.19-9.93,1.46-20.02,0.79-30.01c-0.13-1.91-1.78-3.35-3.69-3.23
					c-1.91,0.13-3.35,1.78-3.23,3.69c0.64,9.56,0.39,19.22-0.75,28.72c-1.26,10.47-3.6,20.86-6.97,30.86
					C2428.64,1581.49,2428.78,1582.52,2429.27,1583.36z"/><path fill="#fff" d="M2345.5,1659.83c0.37,0.63,0.94,1.15,1.67,1.45c1.77,0.73,3.8-0.12,4.52-1.89
					c3.52-8.58,6.17-17.54,7.86-26.65c1.54-8.26,2.31-16.72,2.29-25.13c0-1.91-1.56-3.46-3.47-3.46c-1.91,0-3.46,1.56-3.46,3.47
					c0.02,7.98-0.71,16-2.17,23.84c-1.61,8.64-4.12,17.15-7.46,25.29C2344.85,1657.8,2344.97,1658.93,2345.5,1659.83z"/><path fill="#fff" d="M2426.02,1590.45c0.88,1.5,2.76,2.13,4.39,1.41c11.78-5.2,24.14-9.19,36.72-11.87
					c11.41-2.43,23.12-3.81,34.8-4.08c1.91-0.05,3.43-1.63,3.38-3.55c-0.04-1.91-1.63-3.43-3.55-3.38
					c-12.11,0.29-24.24,1.71-36.08,4.23c-13.04,2.78-25.85,6.92-38.07,12.31c-1.75,0.77-2.55,2.82-1.77,4.57
					C2425.89,1590.21,2425.95,1590.33,2426.02,1590.45z"/><path fill="#fff" d="M2349.68,1655.06c0.78,1.33,2.4,2.02,3.95,1.58c12.37-3.57,25.15-5.87,37.98-6.83
					c11.64-0.88,23.42-0.67,35.03,0.63c1.9,0.21,3.62-1.16,3.83-3.06c0.21-1.9-1.16-3.62-3.06-3.83
					c-12.03-1.34-24.25-1.56-36.32-0.65c-13.3,1-26.55,3.39-39.38,7.09c-1.84,0.53-2.9,2.45-2.37,4.29
					C2349.42,1654.55,2349.53,1654.81,2349.68,1655.06z"/><path fill="#fff" d="M2293.04,1696.31c0.71,1.21,2.11,1.91,3.57,1.66c5.73-0.97,11.58-1.35,17.39-1.14
					c5.27,0.2,10.55,0.89,15.69,2.06c1.87,0.42,3.72-0.74,4.15-2.61c0.43-1.87-0.74-3.72-2.61-4.15
					c-5.56-1.27-11.27-2.02-16.97-2.23c-6.28-0.23-12.61,0.18-18.81,1.23c-1.89,0.32-3.16,2.11-2.84,4
					C2292.69,1695.56,2292.84,1695.96,2293.04,1696.31z"/><path fill="#fff" d="M2293.18,1694.11c0.28,0.47,0.67,0.88,1.16,1.19c1.63,1.01,3.76,0.51,4.77-1.12
					c3.32-5.35,6.09-11.05,8.24-16.95c1.95-5.36,3.42-10.92,4.35-16.55c0.31-1.89-0.97-3.67-2.86-3.99
					c-1.89-0.31-3.67,0.97-3.99,2.86c-0.86,5.2-2.21,10.35-4.02,15.3c-1.99,5.46-4.56,10.73-7.62,15.67
					C2292.52,1691.66,2292.55,1693.03,2293.18,1694.11z"/></g></g><g><path fill="#cdd9fc" d="M2609.25,647.67v276.31h-384.87V647.67c0-15.65,12.68-28.32,28.31-28.32h328.23c1.7,0,3.37,0.15,4.99,0.44
			C2599.18,622.14,2609.25,633.73,2609.25,647.67z"/><path fill="#2c7efe" d="M2609.25,647.67v50.67h-384.87v-50.67c0-15.64,12.68-28.32,28.32-28.32h328.23
			C2596.58,619.35,2609.25,632.03,2609.25,647.67z"/><path fill="#fff" d="M2635.08,647.67v276.31h-384.87V647.67c0-5.62,1.64-10.86,4.46-15.27c0.37-0.57,0.75-1.13,1.17-1.68
			c0,0,0,0,0,0c0.4-0.54,0.83-1.07,1.28-1.58c0,0,0,0,0,0c0.89-1.03,1.85-1.99,2.88-2.88c0,0,0,0,0,0c0.51-0.45,1.04-0.88,1.58-1.28
			c0,0,0,0,0,0c0.54-0.41,1.1-0.8,1.68-1.17c4.4-2.82,9.64-4.46,15.26-4.46h328.23c5.62,0,10.86,1.64,15.26,4.46
			c0.57,0.37,1.13,0.75,1.68,1.17c0,0,0,0,0,0c0.54,0.4,1.07,0.83,1.58,1.28c0,0,0,0,0,0c1.03,0.89,1.99,1.85,2.88,2.88c0,0,0,0,0,0
			c0.45,0.51,0.88,1.04,1.28,1.58c0,0,0,0,0,0c0.41,0.54,0.8,1.1,1.17,1.68C2633.44,636.8,2635.08,642.05,2635.08,647.67z"/><path fill="#84b2fe" d="M2635.07,647.67v50.67h-384.87v-50.67c0-15.64,12.68-28.32,28.32-28.32h328.23
			C2622.4,619.35,2635.07,632.03,2635.07,647.67z"/><circle cx="2312.27" cy="657.64" r="15.98" fill="#fff" transform="rotate(-45.001 2312.27 657.668)"/><circle cx="2312.27" cy="657.64" r="8.73" fill="#2c7efe" transform="rotate(-45.001 2312.27 657.668)"/><path fill="#2c7efe" d="M2317.61,615.84v40.52c0,2.93-2.4,5.31-5.37,5.31c-2.96,0-5.37-2.38-5.37-5.31v-40.52
			c0-6.29-4.74-11.4-10.56-11.4c-5.82,0-10.56,5.12-10.56,11.4v3.46h-10.74v-3.46c0-12.68,9.56-23,21.3-23
			C2308.05,592.84,2317.61,603.16,2317.61,615.84z"/><path fill="#fff" d="M2311.19,611.54c-0.62,0-1.18-0.43-1.32-1.06c-0.32-1.43-1.44-5.04-4.95-7.65
				c-3.71-2.75-7.69-2.65-9.23-2.47c-0.75,0.08-1.41-0.45-1.5-1.19c-0.08-0.74,0.45-1.41,1.19-1.49c1.86-0.21,6.66-0.33,11.14,2.99
				c4.25,3.15,5.6,7.51,5.98,9.24c0.16,0.73-0.3,1.45-1.03,1.61C2311.38,611.53,2311.28,611.54,2311.19,611.54z"/><circle cx="2401.71" cy="657.25" r="15.98" fill="#fff" transform="rotate(-22.5 2401.6 657.232)"/><circle cx="2401.71" cy="657.25" r="8.73" fill="#2c7efe" transform="rotate(-22.5 2401.602 657.232)"/><path fill="#2c7efe" d="M2407.05,615.45v40.52c0,2.93-2.4,5.31-5.37,5.31c-2.96,0-5.37-2.38-5.37-5.31v-40.52
			c0-6.29-4.74-11.4-10.56-11.4c-5.82,0-10.56,5.12-10.56,11.4v3.46h-10.74v-3.46c0-12.68,9.56-23,21.3-23
			C2397.49,592.46,2407.05,602.77,2407.05,615.45z"/><path fill="#fff" d="M2400.63,611.16c-0.62,0-1.18-0.43-1.32-1.06c-0.32-1.43-1.44-5.04-4.95-7.65
				c-3.71-2.75-7.69-2.65-9.23-2.47c-0.74,0.08-1.41-0.45-1.49-1.19c-0.08-0.74,0.45-1.41,1.19-1.49c1.86-0.21,6.66-0.33,11.14,2.99
				c4.25,3.15,5.6,7.51,5.98,9.24c0.16,0.73-0.3,1.45-1.03,1.61C2400.82,611.15,2400.72,611.16,2400.63,611.16z"/><circle cx="2491.15" cy="657.25" r="15.98" fill="#fff" transform="rotate(-76.714 2491.345 657.229)"/><circle cx="2491.15" cy="657.25" r="8.73" fill="#2c7efe" transform="rotate(-76.714 2491.344 657.23)"/><path fill="#2c7efe" d="M2496.49,615.45v40.52c0,2.93-2.4,5.31-5.37,5.31c-2.96,0-5.37-2.38-5.37-5.31v-40.52
			c0-6.29-4.74-11.4-10.56-11.4s-10.56,5.12-10.56,11.4v3.46h-10.74v-3.46c0-12.68,9.56-23,21.3-23S2496.49,602.77,2496.49,615.45z"/><path fill="#fff" d="M2490.06,611.16c-0.62,0-1.18-0.43-1.32-1.06c-0.32-1.43-1.44-5.04-4.95-7.65
				c-3.71-2.75-7.69-2.65-9.23-2.47c-0.75,0.09-1.41-0.45-1.5-1.19c-0.08-0.74,0.45-1.41,1.19-1.49c1.86-0.21,6.66-0.33,11.14,2.99
				c4.25,3.15,5.6,7.51,5.98,9.24c0.16,0.73-0.3,1.45-1.03,1.61C2490.26,611.15,2490.16,611.16,2490.06,611.16z"/><circle cx="2580.58" cy="657.25" r="15.98" fill="#fff" transform="rotate(-45.001 2580.59 657.284)"/><circle cx="2580.58" cy="657.25" r="8.73" fill="#2c7efe" transform="rotate(-22.5 2580.474 657.232)"/><path fill="#2c7efe" d="M2585.93,615.45v40.52c0,2.93-2.4,5.31-5.37,5.31c-2.96,0-5.37-2.38-5.37-5.31v-40.52
			c0-6.29-4.74-11.4-10.56-11.4c-5.82,0-10.56,5.12-10.56,11.4v3.46h-10.74v-3.46c0-12.68,9.56-23,21.3-23
			S2585.93,602.77,2585.93,615.45z"/><path fill="#fff" d="M2579.5,611.16c-0.62,0-1.18-0.43-1.32-1.06c-0.32-1.43-1.44-5.04-4.95-7.65c-3.71-2.75-7.69-2.65-9.23-2.47
				c-0.75,0.09-1.41-0.45-1.5-1.19c-0.08-0.74,0.45-1.41,1.19-1.49c1.86-0.21,6.66-0.34,11.14,2.99c4.25,3.15,5.6,7.51,5.98,9.24
				c0.16,0.73-0.3,1.45-1.03,1.61C2579.7,611.15,2579.6,611.16,2579.5,611.16z"/><path fill="#dfe6ff" d="M2635.08,700.91v223.07h-214.13c32.01-19.14,65.82-43.48,99.01-74.45
			C2573.82,799.27,2610.42,746.17,2635.08,700.91z"/><path fill="#1c66d1" d="M2349.42,763.54h2.08c7.48,0,13.54,6.47,13.54,14.45v97.81c0,7.98,6.06,14.45,13.54,14.45h6.67
				c7.48,0,13.54-6.47,13.54-14.45V749.09c0-7.98-6.06-14.45-13.54-14.45h-35.83c-7.48,0-13.54,6.47-13.54,14.45l0,0
				C2335.88,757.07,2341.94,763.54,2349.42,763.54z"/><path fill="#1c66d1" d="M2541.18,768.76c-5.49-11.93-12.92-21.04-22.29-27.34c-9.38-6.3-20.1-9.45-32.19-9.45
				c-11.95,0-22.6,3.15-31.98,9.45c-9.38,6.3-16.81,15.42-22.29,27.34c-5.49,11.93-8.23,26.49-8.23,43.68
				c0,17.19,2.74,31.76,8.23,43.68c5.48,11.93,12.92,21.05,22.29,27.34c9.37,6.3,20.03,9.45,31.98,9.45
				c12.08,0,22.81-3.15,32.19-9.45c9.37-6.3,16.8-15.41,22.29-27.34c5.48-11.93,8.23-26.49,8.23-43.68
				C2549.41,795.25,2546.66,780.69,2541.18,768.76z M2511.6,841.12c-2.43,7.41-5.76,12.86-10,16.34c-4.24,3.48-9.2,5.22-14.9,5.22
				c-5.42,0-10.28-1.74-14.58-5.22c-4.31-3.48-7.71-8.93-10.21-16.34c-2.5-7.41-3.75-16.97-3.75-28.68
				c0-11.71,1.25-21.26,3.75-28.68c2.5-7.41,5.9-12.86,10.21-16.34c4.3-3.48,9.17-5.22,14.58-5.22c5.69,0,10.66,1.74,14.9,5.22
				c4.23,3.48,7.57,8.93,10,16.34c2.43,7.41,3.65,16.97,3.65,28.68C2515.24,824.15,2514.03,833.71,2511.6,841.12z"/></g><g><path fill="#84b2fe" d="M718.93,239.5v383.86c0,14.01-9.24,25.36-20.65,25.36H185.57c-11.41,0-20.65-11.35-20.65-25.36V239.5
			c0-14,9.24-25.35,20.65-25.35h512.71C709.69,214.15,718.93,225.5,718.93,239.5z"/><path fill="#fff" d="M737.94,223.17v383.86c0,14.01-9.24,25.36-20.65,25.36H204.58c-11.41,0-20.65-11.35-20.65-25.36V223.17
			c0-14,9.24-25.35,20.65-25.35H717.3C728.7,197.82,737.94,209.17,737.94,223.17z"/><path fill="#84b2fe" d="M737.94,223.17v38.5H183.93v-38.5c0-14,9.24-25.35,20.65-25.35H717.3
			C728.7,197.82,737.94,209.17,737.94,223.17z"/><circle cx="236.86" cy="229.74" r="17.41" fill="#dd4a71" transform="rotate(-76.714 236.883 229.752)"/><circle cx="289.65" cy="229.74" r="17.41" fill="#feb542" transform="rotate(-76.714 289.682 229.75)"/><circle cx="342.45" cy="229.74" r="17.41" fill="#2c7efe" transform="rotate(-85.268 342.456 229.738)"/><path fill="#84b2fe" d="M625.11,444.82c0,1.73-0.03,3.46-0.08,5.18c-2.68,81.91-68.58,147.81-150.49,150.48
					c-1.72,0.06-3.45,0.09-5.18,0.09c-1.73,0-3.46-0.03-5.18-0.09c-81.91-2.67-147.81-68.57-150.49-150.48
					c-0.05-1.72-0.08-3.45-0.08-5.18c0-1.73,0.03-3.46,0.08-5.18c2.68-81.91,68.58-147.81,150.49-150.48
					c1.72-0.06,3.45-0.09,5.18-0.09c1.73,0,3.46,0.03,5.18,0.09c81.91,2.67,147.81,68.57,150.49,150.48
					C625.08,441.36,625.11,443.09,625.11,444.82z"/><path fill="#fff" d="M625.11,444.82c-103.84,0-207.67,0-311.51,0"/><path fill="#fff" d="M625.11,444.82c0,1.73-0.03,3.46-0.08,5.18H313.69c-0.05-1.72-0.08-3.45-0.08-5.18
					c0-1.73,0.03-3.46,0.08-5.18h311.34C625.08,441.36,625.11,443.09,625.11,444.82z"/><path fill="#fff" d="M469.36,600.57c0-103.84,0-207.67,0-311.5"/><path fill="#fff" d="M474.54,289.16v311.32c-1.72,0.06-3.45,0.09-5.18,0.09c-1.73,0-3.46-0.03-5.18-0.09V289.16
					c1.72-0.06,3.45-0.09,5.18-0.09C471.09,289.06,472.82,289.1,474.54,289.16z"/><path fill="#dfe6ff" d="M572.35,444.82c0,1.14-0.02,2.29-0.05,3.42c-1.77,54.16-45.35,97.73-99.51,99.5
					c-1.14,0.04-2.28,0.06-3.42,0.06s-2.29-0.02-3.42-0.06c-54.16-1.77-97.73-45.34-99.51-99.5c-0.03-1.14-0.06-2.28-0.06-3.42
					c0-1.14,0.02-2.29,0.06-3.42c1.77-54.16,45.35-97.73,99.51-99.5c1.14-0.04,2.28-0.06,3.42-0.06s2.29,0.02,3.42,0.06
					c54.16,1.77,97.73,45.34,99.51,99.5C572.33,442.53,572.35,443.67,572.35,444.82z"/><g><path fill="#2c7efe" d="M402.95,475.6v-56.3l4.02,6.16h-12.06v-11.44h17.34v61.58H402.95z"/><path fill="#2c7efe" d="M436.49,476.66c-3.29,0-6.23-1.24-8.81-3.74c-2.58-2.49-4.63-6.1-6.14-10.82
					c-1.51-4.72-2.27-10.48-2.27-17.28c0-6.8,0.76-12.56,2.27-17.29c1.51-4.72,3.56-8.33,6.14-10.82c2.58-2.49,5.52-3.74,8.81-3.74
					c3.33,0,6.29,1.25,8.87,3.74c2.58,2.49,4.63,6.1,6.14,10.82c1.51,4.72,2.27,10.48,2.27,17.29c0,6.8-0.76,12.57-2.27,17.28
					c-1.51,4.72-3.56,8.33-6.14,10.82C442.78,475.42,439.82,476.66,436.49,476.66z M436.49,464.7c1.57,0,2.94-0.69,4.11-2.07
					c1.17-1.38,2.09-3.53,2.76-6.47c0.67-2.93,1-6.71,1-11.35c0-4.63-0.34-8.41-1-11.35c-0.67-2.93-1.59-5.09-2.76-6.47
					c-1.17-1.38-2.54-2.07-4.11-2.07c-1.49,0-2.83,0.69-4.02,2.07c-1.19,1.38-2.12,3.53-2.81,6.47c-0.69,2.93-1.03,6.72-1.03,11.35
					c0,4.63,0.34,8.42,1.03,11.35c0.69,2.93,1.63,5.09,2.81,6.47C433.65,464.01,435,464.7,436.49,464.7z"/><path fill="#2c7efe" d="M475.48,476.66c-3.29,0-6.23-1.24-8.81-3.74c-2.58-2.49-4.63-6.1-6.14-10.82
					c-1.51-4.72-2.27-10.48-2.27-17.28c0-6.8,0.76-12.56,2.27-17.29c1.51-4.72,3.56-8.33,6.14-10.82c2.58-2.49,5.52-3.74,8.81-3.74
					c3.33,0,6.29,1.25,8.87,3.74c2.58,2.49,4.63,6.1,6.14,10.82c1.51,4.72,2.27,10.48,2.27,17.29c0,6.8-0.76,12.57-2.27,17.28
					c-1.51,4.72-3.56,8.33-6.14,10.82C481.77,475.42,478.81,476.66,475.48,476.66z M475.48,464.7c1.57,0,2.94-0.69,4.11-2.07
					c1.17-1.38,2.09-3.53,2.76-6.47c0.67-2.93,1.01-6.71,1.01-11.35c0-4.63-0.34-8.41-1.01-11.35c-0.67-2.93-1.59-5.09-2.76-6.47
					c-1.17-1.38-2.54-2.07-4.11-2.07c-1.49,0-2.83,0.69-4.02,2.07c-1.19,1.38-2.12,3.53-2.81,6.47c-0.69,2.93-1.03,6.72-1.03,11.35
					c0,4.63,0.34,8.42,1.03,11.35c0.69,2.93,1.63,5.09,2.81,6.47C472.64,464.01,473.99,464.7,475.48,464.7z"/><path fill="#2c7efe" d="M506.48,447.28c-1.91,0-3.62-0.69-5.11-2.07c-1.49-1.38-2.66-3.34-3.5-5.89
					c-0.84-2.55-1.26-5.56-1.26-9.02c0-3.46,0.42-6.47,1.26-9.02c0.84-2.55,2.01-4.52,3.5-5.89c1.49-1.38,3.2-2.07,5.11-2.07
					c1.99,0,3.73,0.69,5.23,2.07c1.49,1.38,2.66,3.33,3.5,5.85c0.84,2.52,1.26,5.54,1.26,9.06c0,3.46-0.42,6.47-1.26,9.02
					c-0.84,2.55-2.01,4.52-3.5,5.89C510.22,446.59,508.48,447.28,506.48,447.28z M506.54,440.07c1.26,0,2.27-0.81,3.01-2.42
					c0.75-1.61,1.12-4.06,1.12-7.35c0-3.28-0.37-5.73-1.12-7.35c-0.75-1.61-1.75-2.42-3.01-2.42c-1.26,0-2.28,0.82-3.04,2.46
					c-0.77,1.64-1.15,4.08-1.15,7.3c0,3.23,0.38,5.66,1.15,7.3C504.26,439.25,505.28,440.07,506.54,440.07z M503.04,475.6
					l27.45-61.58h6.83l-27.45,61.58H503.04z M533.82,476.31c-1.91,0-3.63-0.69-5.14-2.07c-1.51-1.38-2.68-3.34-3.5-5.89
					c-0.82-2.55-1.23-5.56-1.23-9.02c0-3.46,0.41-6.47,1.23-9.02c0.82-2.55,1.99-4.52,3.5-5.89c1.51-1.38,3.22-2.07,5.14-2.07
					c1.99,0,3.73,0.69,5.23,2.07c1.49,1.38,2.66,3.34,3.5,5.89c0.84,2.55,1.26,5.56,1.26,9.02c0,3.46-0.42,6.47-1.26,9.02
					c-0.84,2.55-2.01,4.52-3.5,5.89C537.55,475.62,535.81,476.31,533.82,476.31z M533.82,469.1c1.26,0,2.29-0.82,3.07-2.46
					c0.78-1.64,1.18-4.08,1.18-7.3c0-3.22-0.39-5.66-1.18-7.3c-0.78-1.64-1.81-2.46-3.07-2.46c-1.23,0-2.23,0.81-3.02,2.42
					c-0.78,1.61-1.18,4.06-1.18,7.35c0,3.28,0.39,5.73,1.18,7.35C531.59,468.29,532.59,469.1,533.82,469.1z"/></g></g><g><rect width="365.67" height="256.24" x="1199.53" y="1497.72" fill="#adcbf7"/><rect width="326.17" height="256.24" x="1239.03" y="1497.72" fill="#dfe6ff"/><path fill="#adcbf7" d="M1239.03,1588.5v165.46h277.91c16.09-6.85,32.17-13.71,48.26-20.57c19.42-8.27,38.84-16.56,58.27-24.83
			c-18.16-1.24-37.63-3.14-58.27-5.96c-73.75-10.11-162.18-32.02-257.21-77.45C1283.62,1613.52,1260.64,1601.18,1239.03,1588.5z"/><path fill="#fff" d="M1027.17,1843.52h710.39c-1.95-16.08-5.35-31.44-9.98-45.78c-20.25-62.74-64.21-106.21-115.18-106.21h-460.06
			C1089.71,1691.53,1037.67,1757.16,1027.17,1843.52z"/><path fill="#adcbf7" d="M1027.17,1843.52h710.39c-1.95-16.08-5.35-31.44-9.98-45.78c-209.31,0.09-418.62,0.17-627.93,0.26
			c1.91-13.54,6.35-35.07,17.77-58.02c12.36-24.84,27.35-40.22,36.73-48.46h-1.81C1089.71,1691.53,1037.67,1757.16,1027.17,1843.52z
			"/><path fill="#153663" d="M2177.31,557.98v899.64c0,38.29-31.03,69.33-69.32,69.33H646.45c-38.29,0-69.33-31.04-69.33-69.33V557.98
			c0-38.29,31.04-69.32,69.33-69.32h1461.54C2146.28,488.66,2177.31,519.69,2177.31,557.98z"/><path fill="#84b2fe" d="M2109.64,583.23v784.48H644.8V583.23c0-13.01,10.54-23.57,23.56-23.57h1417.73
			C2099.1,559.67,2109.64,570.22,2109.64,583.23z"/><path fill="#fff" d="M2109.64,583.23v56.16H644.8v-56.16c0-13.01,10.54-23.57,23.56-23.57h1417.73
			C2099.1,559.67,2109.64,570.22,2109.64,583.23z"/><path fill="#dfe6ff" d="M1868.04,579.32H909.08c-9.47,0-17.15,7.68-17.15,17.15c0,9.47,7.68,17.15,17.15,17.15h958.96
				c9.47,0,17.15-7.68,17.15-17.15C1885.18,587,1877.5,579.32,1868.04,579.32z"/><circle cx="731.15" cy="596.47" r="15.06" fill="#dfe6ff"/><circle cx="777.27" cy="596.47" r="15.06" fill="#dfe6ff"/><circle cx="823.38" cy="596.47" r="15.06" fill="#dfe6ff"/><g><polygon fill="#dfe6ff" points="1956.3 596.47 1986 613.61 1986 579.32"/><polygon fill="#dfe6ff" points="2038.35 596.47 2008.65 613.61 2008.65 579.32"/></g><path fill="#fff" d="M2109.65,1367.72H644.8h-67.67v90.76c0,38.29,31.04,69.33,69.33,69.33h1461.54
			c38.29,0,69.32-31.04,69.32-69.33v-90.76H2109.65z"/><g><path fill="#fff" d="M1434.35,1416.9h-114.26c-14.38,0-26.03,11.66-26.03,26.03l0,0c0,14.38,11.66,26.03,26.03,26.03h42.92
				c0.06,0,0.12,0,0.18,0l0,0c0.06,0,0.12,0,0.18,0h70.98c14.38,0,26.03-11.66,26.03-26.03l0,0
				C1460.39,1428.56,1448.73,1416.9,1434.35,1416.9z"/><path fill="#84b2fe" d="M1434.35,1474.37h-114.26c-17.33,0-31.43-14.1-31.43-31.43c0-17.33,14.1-31.43,31.43-31.43h114.26
				c17.33,0,31.43,14.1,31.43,31.43C1465.79,1460.27,1451.68,1474.37,1434.35,1474.37z M1320.09,1422.3
				c-11.38,0-20.63,9.26-20.63,20.64c0,11.38,9.26,20.63,20.63,20.63h114.26c11.38,0,20.63-9.26,20.63-20.63
				c0-11.38-9.26-20.64-20.63-20.64H1320.09z"/></g></g><g><path fill="#a6e4ff" d="M895.49,141.52h0.7C895.96,141.52,895.73,141.52,895.49,141.52C895.49,141.53,895.49,141.52,895.49,141.52z"/><path fill="#fff" d="M1692.29,141.52h-658.32h-58.54h-79.23c43.76,0,79.23,35.47,79.23,79.23v47.56v984.23
			c0,54.22,43.95,98.17,98.17,98.17h729.39V252.21C1802.98,191.08,1753.42,141.52,1692.29,141.52z"/><path fill="#dfe6ff" d="M975.42,344.11v-75.8v-47.56c0-43.76-35.47-79.23-79.23-79.23c-0.23,0-0.46,0-0.69,0.01
			c-21.6,0.18-41.14,9.01-55.33,23.2c-14.34,14.34-23.2,34.14-23.2,56.03v123.36H975.42z"/><rect width="102.45" height="124.69" x="1081.04" y="633.52" fill="#c2d1f9"/><rect width="102.45" height="209.21" x="1209.26" y="549.01" fill="#c2d1f9"/><rect width="102.45" height="289.57" x="1338.45" y="468.65" fill="#c2d1f9"/><rect width="102.45" height="404.56" x="1466.67" y="353.65" fill="#c2d1f9"/><rect width="102.45" height="515.4" x="1594.59" y="242.82" fill="#c2d1f9"/><polygon fill="#2c7efe" points="1133.05 698.26 1131.48 693.48 1259.74 651.21 1388.74 611.09 1519.83 546.82 1644.45 466.54 1647.17 470.76 1522.31 551.2 1522.17 551.27 1390.6 615.78 1390.42 615.83 1261.25 656.01"/><polygon fill="#2c7efe" points="1129.91 704.49 1125.24 690.34 1258.2 646.52 1386.91 606.49 1517.4 542.51 1645.93 459.71 1653.99 472.24 1524.36 555.69 1392.43 620.38 1262.72 660.72"/><path fill="#2c7efe" d="M1154.62,695.87c0,12.35-10.01,22.36-22.36,22.36c-12.35,0-22.36-10.01-22.36-22.36
						c0-12.35,10.01-22.36,22.36-22.36C1144.61,673.51,1154.62,683.52,1154.62,695.87z"/><path fill="#fff" d="M1144.14,695.87c0,6.56-5.32,11.88-11.88,11.88c-6.56,0-11.87-5.32-11.87-11.88
						c0-6.56,5.32-11.87,11.87-11.87C1138.82,683.99,1144.14,689.31,1144.14,695.87z"/><path fill="#2c7efe" d="M1288.41,653.61c0,12.35-10.01,22.36-22.36,22.36s-22.36-10.01-22.36-22.36s10.01-22.36,22.36-22.36
						S1288.41,641.26,1288.41,653.61z"/><path fill="#fff" d="M1277.92,653.61c0,6.56-5.32,11.87-11.88,11.87c-6.56,0-11.88-5.32-11.88-11.87
						c0-6.56,5.32-11.88,11.88-11.88C1272.61,641.74,1277.92,647.05,1277.92,653.61z"/><path fill="#2c7efe" d="M1412.03,613.43c0,12.35-10.01,22.36-22.36,22.36c-12.35,0-22.36-10.01-22.36-22.36
						s10.01-22.36,22.36-22.36C1402.02,591.07,1412.03,601.08,1412.03,613.43z"/><path fill="#fff" d="M1401.54,613.43c0,6.56-5.32,11.88-11.88,11.88c-6.56,0-11.88-5.32-11.88-11.88
						c0-6.56,5.32-11.88,11.88-11.88C1396.23,601.56,1401.54,606.88,1401.54,613.43z"/><path fill="#2c7efe" d="M1540.25,554.19c0,12.35-10.01,22.36-22.36,22.36c-12.35,0-22.36-10.01-22.36-22.36
						s10.01-22.36,22.36-22.36C1530.24,531.83,1540.25,541.84,1540.25,554.19z"/><path fill="#fff" d="M1529.77,554.19c0,6.56-5.32,11.88-11.88,11.88c-6.56,0-11.87-5.32-11.87-11.88
						c0-6.56,5.32-11.88,11.87-11.88C1524.45,542.31,1529.77,547.63,1529.77,554.19z"/><path fill="#2c7efe" d="M1669.53,468.65c0,12.35-10.01,22.36-22.36,22.36c-12.35,0-22.36-10.01-22.36-22.36
						c0-12.35,10.01-22.36,22.36-22.36C1659.52,446.29,1669.53,456.3,1669.53,468.65z"/><circle cx="1647.17" cy="468.65" r="11.88" fill="#fff"/><g><path fill="#84b2fe" d="M1293.06,379.67c0,58.55-47.46,106.01-106.01,106.01s-106.01-47.46-106.01-106.01
						c0-56.62,44.39-102.87,100.27-105.85c1.91,35.29,3.82,70.57,5.74,105.85l93.23-50.49
						C1288.43,344.18,1293.06,361.39,1293.06,379.67z"/><path fill="#2c7efe" d="M1299.32,298.33l-93.23,50.49c-1.91-35.28-3.83-70.57-5.74-105.85c1.9-0.1,3.81-0.16,5.74-0.16
						C1246.35,242.82,1281.37,265.26,1299.32,298.33z"/></g><g><path fill="#84b2fe" d="M1226.74,1006.15c23.93,0,47.85,0,71.78,0"/><path fill="#84b2fe" d="M1298.52,1012.47h-71.78c-4.67,0-8.45-2.83-8.45-6.33c0-3.49,3.78-6.33,8.45-6.33h71.78
								c4.67,0,8.45,2.83,8.45,6.33C1306.96,1009.64,1303.18,1012.47,1298.52,1012.47z"/><path fill="#84b2fe" d="M1507.32,1006.15c65.89,0,131.79,0,197.68,0"/><path fill="#84b2fe" d="M1705,1012.47h-197.68c-4.67,0-8.45-2.83-8.45-6.33c0-3.49,3.78-6.33,8.45-6.33H1705
								c4.67,0,8.45,2.83,8.45,6.33C1713.45,1009.64,1709.66,1012.47,1705,1012.47z"/><path fill="#84b2fe" d="M1329.8,1006.15c49.43,0,98.86,0,148.29,0"/><path fill="#84b2fe" d="M1478.08,1012.47H1329.8c-4.67,0-8.45-2.83-8.45-6.33c0-3.49,3.78-6.33,8.45-6.33h148.29
								c4.67,0,8.45,2.83,8.45,6.33C1486.53,1009.64,1482.75,1012.47,1478.08,1012.47z"/><path fill="#84b2fe" d="M1226.74,1042.32c49.91,0,99.83,0,149.74,0"/><path fill="#84b2fe" d="M1376.48,1048.64h-149.74c-4.67,0-8.45-2.83-8.45-6.33c0-3.49,3.78-6.33,8.45-6.33h149.74
								c4.67,0,8.45,2.83,8.45,6.33C1384.93,1045.81,1381.15,1048.64,1376.48,1048.64z"/><g><path fill="#84b2fe" d="M1411.26,1042.32c97.91,0,195.83,0,293.74,0"/><path fill="#84b2fe" d="M1705,1048.64h-293.74c-4.67,0-8.45-2.83-8.45-6.33c0-3.49,3.78-6.33,8.45-6.33H1705
								c4.67,0,8.45,2.83,8.45,6.33C1713.45,1045.81,1709.66,1048.64,1705,1048.64z"/></g><g><path fill="#84b2fe" d="M1226.74,1075.45c15.18,0,30.36,0,45.54,0"/><path fill="#84b2fe" d="M1272.28,1081.78h-45.54c-4.67,0-8.45-2.83-8.45-6.33s3.78-6.33,8.45-6.33h45.54
								c4.67,0,8.45,2.83,8.45,6.33S1276.95,1081.78,1272.28,1081.78z"/></g><g><path fill="#84b2fe" d="M1301.61,1075.45c27.86,0,55.72,0,83.58,0"/><path fill="#84b2fe" d="M1385.19,1081.78h-83.58c-4.67,0-8.45-2.83-8.45-6.33s3.78-6.33,8.45-6.33h83.58
								c4.67,0,8.45,2.83,8.45,6.33S1389.86,1081.78,1385.19,1081.78z"/></g><g><path fill="#84b2fe" d="M1419.08,1075.45c36.44,0,72.88,0,109.31,0"/><path fill="#84b2fe" d="M1528.39,1081.78h-109.31c-4.67,0-8.45-2.83-8.45-6.33s3.78-6.33,8.45-6.33h109.31
								c4.67,0,8.45,2.83,8.45,6.33S1533.06,1081.78,1528.39,1081.78z"/></g><circle cx="1119.98" cy="1055.18" r="55.36" fill="#2c7efe"/><circle cx="1119.98" cy="1055.18" r="47.36" fill="#fff"/><circle cx="1119.98" cy="1055.18" r="43.45" fill="#84b2fe"/><path fill="#153663" d="M1085.59,1054.18l42.91,15.79l-12.07,2.17l70.07-75.14l-55.58,86.41l-0.49,0.75
						c-2.27,3.52-6.96,4.54-10.49,2.28c-0.39-0.25-0.78-0.56-1.1-0.86L1085.59,1054.18L1085.59,1054.18z"/><g><path fill="#84b2fe" d="M1226.74,867.68c49.91,0,99.83,0,149.74,0"/><path fill="#84b2fe" d="M1376.48,874.01h-149.74c-4.67,0-8.45-2.83-8.45-6.33c0-3.49,3.78-6.33,8.45-6.33h149.74
									c4.67,0,8.45,2.83,8.45,6.33C1384.93,871.18,1381.15,874.01,1376.48,874.01z"/><path fill="#84b2fe" d="M1589,867.68c38.67,0,77.33,0,116,0"/><path fill="#84b2fe" d="M1705,874.01h-116c-4.67,0-8.45-2.83-8.45-6.33c0-3.49,3.78-6.33,8.45-6.33h116
									c4.67,0,8.45,2.83,8.45,6.33C1713.45,871.18,1709.66,874.01,1705,874.01z"/><path fill="#84b2fe" d="M1403.21,867.68c24.96,0,49.91,0,74.87,0"/><path fill="#84b2fe" d="M1478.08,874.01h-74.87c-4.67,0-8.45-2.83-8.45-6.33c0-3.49,3.78-6.33,8.45-6.33h74.87
									c4.67,0,8.45,2.83,8.45,6.33C1486.53,871.18,1482.75,874.01,1478.08,874.01z"/><g><path fill="#84b2fe" d="M1507.32,867.68c18.03,0,36.07,0,54.1,0"/><path fill="#84b2fe" d="M1561.41,874.01h-54.1c-4.67,0-8.45-2.83-8.45-6.33c0-3.49,3.78-6.33,8.45-6.33h54.1
									c4.67,0,8.45,2.83,8.45,6.33C1569.86,871.18,1566.08,874.01,1561.41,874.01z"/></g><g><path fill="#84b2fe" d="M1226.74,903.85c49.91,0,99.83,0,149.74,0"/><path fill="#84b2fe" d="M1376.48,910.18h-149.74c-4.67,0-8.45-2.83-8.45-6.33c0-3.49,3.78-6.33,8.45-6.33h149.74
									c4.67,0,8.45,2.83,8.45,6.33C1384.93,907.35,1381.15,910.18,1376.48,910.18z"/><path fill="#84b2fe" d="M1403.21,903.85c24.96,0,49.91,0,74.87,0"/><path fill="#84b2fe" d="M1478.08,910.18h-74.87c-4.67,0-8.45-2.83-8.45-6.33c0-3.49,3.78-6.33,8.45-6.33h74.87
									c4.67,0,8.45,2.83,8.45,6.33C1486.53,907.35,1482.75,910.18,1478.08,910.18z"/><g><path fill="#84b2fe" d="M1507.32,903.85c65.89,0,131.79,0,197.68,0"/><path fill="#84b2fe" d="M1705,910.18h-197.68c-4.67,0-8.45-2.83-8.45-6.33c0-3.49,3.78-6.33,8.45-6.33H1705
									c4.67,0,8.45,2.83,8.45,6.33C1713.45,907.35,1709.66,910.18,1705,910.18z"/></g></g><g><path fill="#84b2fe" d="M1226.74,936.99c15.18,0,30.36,0,45.54,0"/><path fill="#84b2fe" d="M1272.28,943.31h-45.54c-4.67,0-8.45-2.83-8.45-6.33c0-3.49,3.78-6.33,8.45-6.33h45.54
									c4.67,0,8.45,2.83,8.45,6.33C1280.73,940.48,1276.95,943.31,1272.28,943.31z"/><path fill="#84b2fe" d="M1301.61,936.99c58.82,0,117.65,0,176.47,0"/><path fill="#84b2fe" d="M1478.08,943.31h-176.47c-4.67,0-8.45-2.83-8.45-6.33c0-3.49,3.78-6.33,8.45-6.33h176.47
									c4.67,0,8.45,2.83,8.45,6.33C1486.53,940.48,1482.75,943.31,1478.08,943.31z"/><g><path fill="#84b2fe" d="M1558.76,936.99c48.75,0,97.49,0,146.24,0"/><path fill="#84b2fe" d="M1705,943.31h-146.24c-4.67,0-8.45-2.83-8.45-6.33c0-3.49,3.78-6.33,8.45-6.33H1705
									c4.67,0,8.45,2.83,8.45,6.33C1713.45,940.48,1709.66,943.31,1705,943.31z"/></g><g><path fill="#84b2fe" d="M1507.32,936.99c7.03,0,14.05,0,21.08,0"/><path fill="#84b2fe" d="M1528.39,943.31h-21.08c-4.67,0-8.45-2.83-8.45-6.33c0-3.49,3.78-6.33,8.45-6.33h21.08
									c4.67,0,8.45,2.83,8.45,6.33C1536.84,940.48,1533.06,943.31,1528.39,943.31z"/></g></g><circle cx="1119.98" cy="916.71" r="55.36" fill="#2c7efe" transform="rotate(-68.278 1120.005 916.705)"/><circle cx="1119.98" cy="916.71" r="47.36" fill="#fff" transform="rotate(-45.001 1119.98 916.73)"/><circle cx="1119.98" cy="916.71" r="43.45" fill="#84b2fe" transform="rotate(-80.846 1119.93 916.68)"/><path fill="#153663" d="M1085.59,909.39l42.91,15.79l-12.07,2.17l70.07-75.14l-55.58,86.41l-0.49,0.75
						c-2.27,3.52-6.96,4.54-10.49,2.28c-0.39-0.25-0.78-0.56-1.1-0.86L1085.59,909.39L1085.59,909.39z"/></g><g><path fill="#84b2fe" d="M1226.74,1150.94c49.91,0,99.83,0,149.74,0"/><path fill="#84b2fe" d="M1376.48,1157.26h-149.74c-4.67,0-8.45-2.83-8.45-6.33c0-3.49,3.78-6.33,8.45-6.33h149.74
								c4.67,0,8.45,2.83,8.45,6.33C1384.93,1154.43,1381.15,1157.26,1376.48,1157.26z"/><path fill="#84b2fe" d="M1559.8,1150.94c5.65,0,11.3,0,16.94,0"/><path fill="#84b2fe" d="M1576.75,1157.26h-16.94c-4.67,0-8.45-2.83-8.45-6.33c0-3.49,3.78-6.33,8.45-6.33h16.94
								c4.67,0,8.45,2.83,8.45,6.33C1585.2,1154.43,1581.41,1157.26,1576.75,1157.26z"/><path fill="#84b2fe" d="M1403.21,1150.94c24.96,0,49.91,0,74.87,0"/><path fill="#84b2fe" d="M1478.08,1157.26h-74.87c-4.67,0-8.45-2.83-8.45-6.33c0-3.49,3.78-6.33,8.45-6.33h74.87
								c4.67,0,8.45,2.83,8.45,6.33C1486.53,1154.43,1482.75,1157.26,1478.08,1157.26z"/><path fill="#84b2fe" d="M1607.28,1150.94c32.57,0,65.15,0,97.72,0"/><path fill="#84b2fe" d="M1705,1157.26h-97.72c-4.67,0-8.45-2.83-8.45-6.33c0-3.49,3.78-6.33,8.45-6.33H1705
								c4.67,0,8.45,2.83,8.45,6.33C1713.45,1154.43,1709.66,1157.26,1705,1157.26z"/><path fill="#84b2fe" d="M1507.32,1150.94c9.02,0,18.03,0,27.05,0"/><path fill="#84b2fe" d="M1534.36,1157.26h-27.05c-4.67,0-8.45-2.83-8.45-6.33c0-3.49,3.78-6.33,8.45-6.33h27.05
								c4.67,0,8.45,2.83,8.45,6.33C1542.81,1154.43,1539.03,1157.26,1534.36,1157.26z"/><path fill="#84b2fe" d="M1226.74,1187.11c49.91,0,99.83,0,149.74,0"/><path fill="#84b2fe" d="M1376.48,1193.43h-149.74c-4.67,0-8.45-2.83-8.45-6.33s3.78-6.33,8.45-6.33h149.74
								c4.67,0,8.45,2.83,8.45,6.33S1381.15,1193.43,1376.48,1193.43z"/><g><path fill="#84b2fe" d="M1403.21,1187.11c70.88,0,141.76,0,212.63,0"/><path fill="#84b2fe" d="M1615.85,1193.43h-212.63c-4.67,0-8.45-2.83-8.45-6.33s3.78-6.33,8.45-6.33h212.63
								c4.67,0,8.45,2.83,8.45,6.33S1620.51,1193.43,1615.85,1193.43z"/></g><g><path fill="#84b2fe" d="M1647,1187.11c19.33,0,38.67,0,58,0"/><path fill="#84b2fe" d="M1705,1193.43h-58c-4.67,0-8.45-2.83-8.45-6.33s3.78-6.33,8.45-6.33h58c4.67,0,8.45,2.83,8.45,6.33
								S1709.66,1193.43,1705,1193.43z"/></g><g><path fill="#84b2fe" d="M1226.74,1220.24c15.18,0,30.36,0,45.54,0"/><path fill="#84b2fe" d="M1272.28,1226.57h-45.54c-4.67,0-8.45-2.83-8.45-6.33s3.78-6.33,8.45-6.33h45.54
								c4.67,0,8.45,2.83,8.45,6.33S1276.95,1226.57,1272.28,1226.57z"/></g><g><path fill="#84b2fe" d="M1301.61,1220.24c15.66,0,31.31,0,46.97,0"/><path fill="#84b2fe" d="M1348.58,1226.57h-46.97c-4.67,0-8.45-2.83-8.45-6.33s3.78-6.33,8.45-6.33h46.97
								c4.67,0,8.45,2.83,8.45,6.33S1353.24,1226.57,1348.58,1226.57z"/></g><g><path fill="#84b2fe" d="M1381.66,1220.24c11.59,0,23.19,0,34.78,0"/><path fill="#84b2fe" d="M1416.43,1226.57h-34.78c-4.67,0-8.45-2.83-8.45-6.33s3.78-6.33,8.45-6.33h34.78
								c4.67,0,8.45,2.83,8.45,6.33S1421.1,1226.57,1416.43,1226.57z"/></g><circle cx="1119.98" cy="1199.97" r="55.36" fill="#2c7efe" transform="rotate(-66.678 1119.933 1199.945)"/><circle cx="1119.98" cy="1199.97" r="47.36" fill="#fff"/><circle cx="1119.98" cy="1199.97" r="43.45" fill="#84b2fe" transform="rotate(-21.883 1120.122 1200.085)"/><path fill="#153663" d="M1085.59,1192.65l42.91,15.79l-12.07,2.17l70.07-75.14l-55.58,86.41l-0.49,0.75
						c-2.27,3.52-6.96,4.54-10.49,2.28c-0.39-0.25-0.78-0.56-1.1-0.86L1085.59,1192.65L1085.59,1192.65z"/></g></g><path fill="#dfe6ff" d="M1192.48,1209.69c-3.15,22.05-10.63,47.8-27.22,72.22c-21.99,32.39-55.45,55.72-95.22,68.8h742.37
			c17.62,0,34.97-3.87,50.17-11.4c27.5-13.62,50.66-32.92,67.29-57.4c16.58-24.42,24.07-50.18,27.22-72.22H1192.48z"/></g><g><path fill="#153663" d="M595.92,1814.39c17.8,20.66,41.24,18.84,43.04,32.2c0.82,6.1-3.29,12.25-7.08,15.43
				c-23.28,19.53-101.17-16.99-100.52-46.42c0.39-17.99,30.19-36.83,45.68-30.57C586.75,1788.94,583.2,1799.63,595.92,1814.39z"/><path fill="#153663" d="M898.25,1821.74c24.15,10.18,43.65-1.5,50.87,9.27c3.3,4.92,2.34,12.01,0.41,16.39
				c-11.87,26.91-94.72,28.93-106.63,3.21c-7.28-15.72,10.51-44.85,26.57-46.12C879.54,1803.69,881,1814.47,898.25,1821.74z"/><path fill="#04367f" d="M773.26,1374.17c18.47,9.33,77.01,43.24,110.83,141.41c46.33,134.48,8.45,279.74,2.73,300.72
				c-3.15,1.85-9.04,4.72-16.72,5c-10.65,0.39-18.32-4.42-21.31-6.55c18.98-80.03,28.21-178.91-15.68-258.35
				c-50.43-91.28-149.32-122.34-143.48-156.11C691.46,1389.72,707.4,1377.79,773.26,1374.17z"/><path fill="#0643a3" d="M746.91,1371.88c9.19,19.96,35.95,86.75,8.2,189.41c-38.01,140.62-147.26,233.75-163.23,247.03
				c-3.46-0.6-9.6-2.2-15.72-7.11c-8.47-6.8-11.78-15.85-12.92-19.59c58.72-52.56,120.25-127.01,129.89-221.13
				c11.08-108.15-48.53-199.6-25.44-223.23C674.92,1329.86,693.84,1330.8,746.91,1371.88z"/><path fill="#fff" d="M716.18,1145.27c20.1-20.31,84.49,43.68,161.28,37.8c45.7-3.5,81.16-30.63,104-53.04
			c0.68,0.04,13.11,1.08,19.01,12.35c5.83,11.14-0.18,21.8-0.56,22.44c-22.77,23.86-58.04,51.64-106.51,63.02
			c-67.13,15.77-158.93-0.08-177.75-48.22C714.78,1177.4,706.37,1155.18,716.18,1145.27z"/><path fill="#fff" d="M667.94,1387c0.77,0.29,1.57,0.58,2.38,0.88c12.62,4.53,30.98,9.44,53.49,9.94
			c29.57,0.64,52.91-6.63,66.58-12.09c-18.93-59.78-21.95-84.23-20.02-94.33c0.22-1.15,1.95-11.76,4.57-26.41
			c0.61-3.38,1.2-7.37,1.75-12.43c2.32-21.3,4.1-37.69-1.93-56.72c-2.14-6.77-8.27-27.22-27.95-41.35
			c-1.92-1.37-32.87-22.83-65.99-9.13c-21.85,9.05-31.62,28-34.94,34.71c-11.92,24.03-8.39,47.86-5.59,65.15
			c3.13,19.3,6.91,40.99,11.5,64.82c0,0.01,0,0.01,0,0.01c3.55,18.46,7.58,38.2,12.17,59.12
			C665.24,1375.02,666.56,1380.96,667.94,1387z"/><path fill="#dfe6ff" d="M737.94,1311.62c-10.91-9.37-21.6-22.3-28.42-39.89c-5.35-13.8-6.98-26.99-6.75-38.53
			c-5.56,15.71-8.56,31.7-2.04,46.29C705.45,1290.05,715.84,1301.44,737.94,1311.62z"/><path fill="#dfe6ff" d="M667.94,1387c0.77,0.29,1.57,0.58,2.38,0.88c33.76-5.85,67.53-11.7,101.29-17.55
			c-33.73-5.11-63.82-16.01-87.34-31.28c-12.98-8.42-23.97-18.16-32.47-29.01c3.55,18.46,7.58,38.2,12.17,59.12
			C665.24,1375.02,666.56,1380.96,667.94,1387z"/><g><rect width="68.15" height="160.21" x="957.43" y="1098.98" fill="#a7a9ac" transform="rotate(32.382 991.486 1179.215)"/><path fill="#a7a9ac" d="M959.32,1229.82L959.32,1229.82c-23.77-15.08-59-2.15-78.69,28.89l-141.3,222.77
				c-19.68,31.03-16.37,68.42,7.41,83.5v0c23.77,15.08,59,2.15,78.69-28.89l141.3-222.77
				C986.41,1282.28,983.09,1244.9,959.32,1229.82z"/><path fill="#a7a9ac" d="M1235.28,794.73c-94.25-59.78-219.11-31.84-278.89,62.41c-59.78,94.25-31.84,219.11,62.41,278.89
					c94.25,59.78,219.11,31.84,278.89-62.41C1357.48,979.38,1329.53,854.51,1235.28,794.73z M1047.31,1091.1
					c-69.43-44.04-90.01-136.02-45.97-205.45c44.04-69.43,136.02-90.01,205.45-45.98c69.43,44.04,90.02,136.02,45.98,205.45
					C1208.72,1114.55,1116.74,1135.14,1047.31,1091.1z"/><path fill="#a7a9ac" d="M1252.76,1045.12c-44.04,69.43-136.02,90.02-205.45,45.98c-69.43-44.04-90.01-136.02-45.97-205.45
					c44.04-69.43,136.02-90.01,205.45-45.98C1276.21,883.71,1296.8,975.69,1252.76,1045.12z" opacity=".25"/></g><g><path fill="#fcdbca" d="M871.89,1361.43c11.27,0.9,11.51,5,23.21,6.33c6.1,0.69,20.56,2.4,30.68-6.59
				c10.9-9.68,13.91-28.53,7.71-33.99c-1.44-1.27-3.12-1.59-3.51-1.65c-6.68-1.12-9.76,8.47-19.4,12.37
				c-7.86,3.19-17.16,1.41-18.12-1.55c-0.98-3.02,7.27-5.91,8.04-13.91c0.19-2,0.16-6.45-1.91-7.38c-4.5-2-10.34,16.49-26.15,22.57
				c-14.5,5.58-25.36-4.45-31.45,2.02c-5.18,5.51-3.24,18.91,3.41,23.39C850.74,1367.3,856.54,1360.2,871.89,1361.43z"/><path fill="#fff" d="M643.61,1297.95c9.05,15.76,23.01,29.66,40.65,41.1c23.53,15.26,53.61,26.16,87.34,31.28
				c0.01,0,0.01,0,0.02,0c28.59,4.34,59.8,4.52,91.85-0.32c0.97-0.65,5.19-3.6,7.95-8.61c1.39-2.5,2.41-5.52,2.47-9.03
				c0.11-6.6-3.22-11.55-4.76-13.56c-0.15-0.01-0.3-0.02-0.44-0.04c-64.92-5.46-105.49-15.51-130.76-27.14
				c-22.11-10.18-32.49-21.57-37.21-32.13c-6.51-14.59-3.52-30.59,2.04-46.29c10.52-29.72,30.26-58.42,12.22-74.66
				c-9.48-8.54-25.51-10.12-36.29-7.72c-36.98,8.2-60.53,73.71-43.97,126.69c1.02,3.28,2.2,6.51,3.54,9.68
				C639.83,1290.87,641.61,1294.47,643.61,1297.95z"/><path fill="#ffcdad" d="M732.95,1116.17c6.37,12.35,7.43,24.06,7.45,31.17c0.9,8.84-4.69,17.02-12.93,19.31
					c-8.81,2.45-18.42-2.47-21.67-11.43c-4.02-9.8-8-21.24-11.31-34.18c-3.84-15.03-5.92-28.78-7-40.62
					C692.92,1081.93,719.43,1089.94,732.95,1116.17z"/><path fill="#ffcdad" d="M734.65,1050.77c7.7,3.72,11.58,9.94,15.76,16.65c3.59,5.75,23.54,37.79,7.77,58.59
					c-10.92,14.41-33.78,16.56-49.88,10.36c-24.04-9.27-41.31-40.41-29.51-64.38C688.81,1051.66,716.92,1042.22,734.65,1050.77z"/><path fill="#fff" d="M753.12,1117.28c-3.82,2.27-10.34,5.38-19.07,6.12c-6.28,0.54-11.66-0.33-15.49-1.29
					c1.07,1.32,6.64,7.99,15.11,8.67C741.95,1131.45,749.66,1126.12,753.12,1117.28z"/><path fill="#060352" d="M687.5,1082.63c11.27-27.28,61.19-17.29,69.5-41.18c4.5-12.92-4.91-30.38-17.96-38.92
					c-12.16-7.96-27.87-8.42-40.04-2.2c-14.8,7.56-19.58,22.55-20.7,26.05c-2.74,8.57-0.25,10-2.92,19.48
					c-4.33,15.37-12.62,17.76-15.34,27.24c-6.09,21.23,23.57,50.54,29.69,47.48C694.08,1118.41,680.22,1100.24,687.5,1082.63z"/></g></g><g><path fill="#0a67ed" d="M2094.2,1440.4v400.76c0,10.99-8.91,19.9-19.9,19.9h-293c-6.2,0-11.74-2.84-15.39-7.29
			c-2.82-3.43-4.51-7.82-4.51-12.61V1440.4c0-10.99,8.91-19.9,19.9-19.9h293C2085.3,1420.49,2094.2,1429.4,2094.2,1440.4z"/><path fill="#4b92f9" d="M2109.64,1440.4v400.76c0,10.99-8.91,19.9-19.9,19.9h-293c-6.2,0-11.74-2.84-15.39-7.29
			c-2.82-3.43-4.51-7.82-4.51-12.61V1440.4c0-10.99,8.91-19.9,19.9-19.9h293C2100.74,1420.49,2109.64,1429.4,2109.64,1440.4z"/><path fill="#fff" d="M2077.52,1470.96v53.57c0,8.02-6.5,14.52-14.52,14.52h-239.51c-8.02,0-14.52-6.5-14.52-14.52v-53.57
			c0-8.02,6.5-14.52,14.52-14.52H2063C2071.02,1456.44,2077.52,1462.94,2077.52,1470.96z"/><path fill="#2c7efe" d="M2109.64,1594.87v246.29c0,10.99-8.91,19.9-19.9,19.9h-293c-6.2,0-11.74-2.84-15.39-7.29
			c58.91-16.82,133.79-48.49,205.25-109.17C2045.98,1694.19,2084.79,1639.2,2109.64,1594.87z"/><polygon fill="#dfe6ff" points="2017.48 1456.44 1964.1 1539.05 1916.14 1539.05 1969.52 1456.44"/><polygon fill="#dfe6ff" points="2057.88 1456.44 2004.5 1539.05 1980.28 1539.05 2033.67 1456.44"/><rect width="52.71" height="52.71" x="1810.09" y="1567.29" fill="#0643a3"/><rect width="52.71" height="52.71" x="1881.29" y="1567.29" fill="#0643a3"/><rect width="52.71" height="52.71" x="1952.48" y="1567.29" fill="#0643a3"/><rect width="52.71" height="52.71" x="2023.68" y="1567.29" fill="#f8cd12"/><rect width="52.71" height="52.71" x="1810.09" y="1638.21" fill="#0643a3"/><rect width="52.71" height="52.71" x="1881.29" y="1638.21" fill="#0643a3"/><rect width="52.71" height="52.71" x="1952.48" y="1638.21" fill="#0643a3"/><rect width="52.71" height="52.71" x="2023.68" y="1638.21" fill="#f8cd12"/><rect width="52.71" height="52.71" x="1810.09" y="1709.13" fill="#0643a3"/><rect width="52.71" height="52.71" x="1881.29" y="1709.13" fill="#0643a3"/><rect width="52.71" height="52.71" x="1952.48" y="1709.13" fill="#0643a3"/><rect width="52.71" height="52.71" x="1810.09" y="1780.05" fill="#0643a3"/><rect width="52.71" height="52.71" x="1881.29" y="1780.05" fill="#fff"/><rect width="52.71" height="52.71" x="1952.48" y="1780.05" fill="#fff"/><polygon fill="#fff" points="2023.68 1709.13 2023.68 1780.05 2023.68 1792.48 2023.68 1832.76 2076.39 1832.76 2076.39 1792.48 2076.39 1780.05 2076.39 1709.13"/><rect width="101.03" height="9.88" x="1976.49" y="1433.96" fill="#0a67ed"/></g><g><path fill="#f09c23" d="M2094.64,1853.99v20.64c0,0.42,0.06,0.83,0.17,1.22c0.54,1.92,2.31,3.32,4.42,3.32h193.98
				c2.11,0,3.89-1.41,4.42-3.32c0.11-0.39,0.17-0.8,0.17-1.22v-20.64c0-0.42-0.06-0.83-0.17-1.22c-0.54-1.92-2.31-3.32-4.42-3.32
				h-193.98c-2.11,0-3.89,1.41-4.42,3.32C2094.7,1853.16,2094.64,1853.56,2094.64,1853.99z"/><path fill="#f8cd12" d="M2094.64,1853.99v20.64c0,0.42,0.06,0.83,0.17,1.22h202.83c0.11-0.39,0.17-0.8,0.17-1.22v-20.64
				c0-0.42-0.06-0.83-0.17-1.22h-202.83C2094.7,1853.16,2094.64,1853.57,2094.64,1853.99z"/><path fill="#f29e30" d="M2094.64,1853.99v20.64c0,0.42,0.06,0.83,0.17,1.22h96.88v-23.07h-96.88
				C2094.7,1853.16,2094.64,1853.57,2094.64,1853.99z"/><rect width="3.42" height="19.45" x="2285.71" y="1854.58" fill="#f09c23" transform="rotate(-180 2287.415 1864.304)"/><rect width="3.42" height="19.45" x="2274.31" y="1854.58" fill="#f09c23" transform="rotate(-180 2276.016 1864.304)"/><rect width="3.42" height="19.45" x="2262.91" y="1854.58" fill="#f09c23" transform="rotate(-180 2264.617 1864.304)"/><rect width="3.42" height="19.45" x="2251.51" y="1854.58" fill="#f09c23" transform="rotate(-180 2253.217 1864.304)"/><rect width="3.42" height="19.45" x="2240.11" y="1854.58" fill="#f09c23" transform="rotate(-180 2241.818 1864.304)"/><rect width="3.42" height="19.45" x="2228.71" y="1854.58" fill="#f09c23" transform="rotate(-180 2230.419 1864.304)"/><rect width="3.42" height="19.45" x="2217.31" y="1854.58" fill="#f09c23" transform="rotate(-180 2219.02 1864.304)"/><rect width="3.42" height="19.45" x="2205.91" y="1854.58" fill="#f09c23" transform="rotate(-180 2207.62 1864.304)"/><rect width="3.42" height="19.45" x="2194.51" y="1854.58" fill="#f09c23" transform="rotate(-180 2196.221 1864.304)"/><rect width="3.42" height="19.45" x="2183.11" y="1854.58" fill="#e58e1a" transform="rotate(-180 2184.822 1864.304)"/><rect width="3.42" height="19.45" x="2171.71" y="1854.58" fill="#e58e1a" transform="rotate(-180 2173.423 1864.304)"/><rect width="3.42" height="19.45" x="2160.31" y="1854.58" fill="#e58e1a" transform="rotate(-180 2162.024 1864.304)"/><rect width="3.42" height="19.45" x="2148.91" y="1854.58" fill="#e58e1a" transform="rotate(-180 2150.625 1864.304)"/><rect width="3.42" height="19.45" x="2137.52" y="1854.58" fill="#e58e1a" transform="rotate(-180 2139.225 1864.304)"/><rect width="3.42" height="19.45" x="2126.12" y="1854.58" fill="#e58e1a" transform="rotate(-180 2127.826 1864.304)"/><rect width="3.42" height="19.45" x="2114.72" y="1854.58" fill="#e58e1a" transform="rotate(-180 2116.427 1864.304)"/><rect width="3.42" height="19.45" x="2103.32" y="1854.58" fill="#e58e1a" transform="rotate(-180 2105.028 1864.304)"/><g><path fill="#f8cd12" d="M2107.75,1824.27v20.64c0,0.42,0.06,0.83,0.17,1.22c0.54,1.92,2.31,3.32,4.42,3.32h193.98
				c2.11,0,3.89-1.41,4.42-3.32c0.11-0.39,0.17-0.8,0.17-1.22v-20.64c0-0.42-0.06-0.83-0.17-1.22c-0.54-1.92-2.31-3.32-4.42-3.32
				h-193.98c-2.11,0-3.89,1.41-4.42,3.32C2107.81,1823.44,2107.75,1823.85,2107.75,1824.27z"/><path fill="#f8cd12" d="M2107.75,1824.27v20.64c0,0.42,0.06,0.83,0.17,1.22h202.83c0.11-0.39,0.17-0.8,0.17-1.22v-20.64
				c0-0.42-0.06-0.83-0.17-1.22h-202.83C2107.81,1823.44,2107.75,1823.85,2107.75,1824.27z"/><path fill="#f29e30" d="M2107.75,1824.27v20.64c0,0.42,0.06,0.83,0.17,1.22h96.88v-23.07h-96.88
				C2107.81,1823.44,2107.75,1823.85,2107.75,1824.27z"/><rect width="3.42" height="19.45" x="2298.81" y="1824.86" fill="#f8ea14" transform="rotate(-180 2300.524 1834.588)"/><rect width="3.42" height="19.45" x="2287.41" y="1824.86" fill="#f8ea14" transform="rotate(-180 2289.125 1834.588)"/><rect width="3.42" height="19.45" x="2276.02" y="1824.86" fill="#f8ea14" transform="rotate(-180 2277.726 1834.588)"/><rect width="3.42" height="19.45" x="2264.62" y="1824.86" fill="#f8ea14" transform="rotate(-180 2266.326 1834.588)"/><rect width="3.42" height="19.45" x="2253.22" y="1824.86" fill="#f8ea14" transform="rotate(-180 2254.927 1834.588)"/><rect width="3.42" height="19.45" x="2241.82" y="1824.86" fill="#f8ea14" transform="rotate(-180 2243.528 1834.588)"/><rect width="3.42" height="19.45" x="2230.42" y="1824.86" fill="#f8ea14" transform="rotate(-180 2232.129 1834.588)"/><rect width="3.42" height="19.45" x="2219.02" y="1824.86" fill="#f8ea14" transform="rotate(-180 2220.73 1834.588)"/><rect width="3.42" height="19.45" x="2207.62" y="1824.86" fill="#f8ea14" transform="rotate(-180 2209.33 1834.588)"/><g><rect width="3.42" height="19.45" x="2196.22" y="1824.86" fill="#f8cd12" transform="rotate(-180 2197.931 1834.588)"/><rect width="3.42" height="19.45" x="2184.82" y="1824.86" fill="#f8cd12" transform="rotate(-180 2186.532 1834.588)"/><rect width="3.42" height="19.45" x="2173.42" y="1824.86" fill="#f8cd12" transform="rotate(-180 2175.133 1834.588)"/><rect width="3.42" height="19.45" x="2162.02" y="1824.86" fill="#f8cd12" transform="rotate(-180 2163.734 1834.588)"/><rect width="3.42" height="19.45" x="2150.62" y="1824.86" fill="#f8cd12" transform="rotate(-180 2152.334 1834.588)"/><rect width="3.42" height="19.45" x="2139.23" y="1824.86" fill="#f8cd12" transform="rotate(-180 2140.935 1834.588)"/><rect width="3.42" height="19.45" x="2127.83" y="1824.86" fill="#f8cd12" transform="rotate(-180 2129.536 1834.588)"/><rect width="3.42" height="19.45" x="2116.43" y="1824.86" fill="#f8cd12" transform="rotate(-180 2118.137 1834.588)"/></g></g><g><path fill="#f09c23" d="M2094.64,1794.55v20.64c0,0.42,0.06,0.83,0.17,1.22c0.54,1.92,2.31,3.32,4.42,3.32h193.98
				c2.11,0,3.89-1.41,4.42-3.32c0.11-0.39,0.17-0.8,0.17-1.22v-20.64c0-0.42-0.06-0.83-0.17-1.22c-0.54-1.92-2.31-3.32-4.42-3.32
				h-193.98c-2.11,0-3.89,1.41-4.42,3.32C2094.7,1793.72,2094.64,1794.13,2094.64,1794.55z"/><path fill="#f8cd12" d="M2094.64,1794.55v20.64c0,0.42,0.06,0.83,0.17,1.22h202.83c0.11-0.39,0.17-0.8,0.17-1.22v-20.64
				c0-0.42-0.06-0.83-0.17-1.22h-202.83C2094.7,1793.72,2094.64,1794.13,2094.64,1794.55z"/><path fill="#f29e30" d="M2094.64,1794.55v20.64c0,0.42,0.06,0.83,0.17,1.22h96.88v-23.07h-96.88
				C2094.7,1793.72,2094.64,1794.13,2094.64,1794.55z"/><rect width="3.42" height="19.45" x="2285.71" y="1795.15" fill="#f09c23" transform="rotate(-180 2287.415 1804.871)"/><rect width="3.42" height="19.45" x="2274.31" y="1795.15" fill="#f09c23" transform="rotate(-180 2276.016 1804.871)"/><rect width="3.42" height="19.45" x="2262.91" y="1795.15" fill="#f09c23" transform="rotate(-180 2264.617 1804.871)"/><rect width="3.42" height="19.45" x="2251.51" y="1795.15" fill="#f09c23" transform="rotate(-180 2253.217 1804.871)"/><rect width="3.42" height="19.45" x="2240.11" y="1795.15" fill="#f09c23" transform="rotate(-180 2241.818 1804.871)"/><rect width="3.42" height="19.45" x="2228.71" y="1795.15" fill="#f09c23" transform="rotate(-180 2230.419 1804.871)"/><rect width="3.42" height="19.45" x="2217.31" y="1795.15" fill="#f09c23" transform="rotate(-180 2219.02 1804.871)"/><rect width="3.42" height="19.45" x="2205.91" y="1795.15" fill="#f09c23" transform="rotate(-180 2207.62 1804.871)"/><rect width="3.42" height="19.45" x="2194.51" y="1795.15" fill="#f09c23" transform="rotate(-180 2196.221 1804.871)"/><rect width="3.42" height="19.45" x="2183.11" y="1795.15" fill="#e58e1a" transform="rotate(-180 2184.822 1804.871)"/><rect width="3.42" height="19.45" x="2171.71" y="1795.15" fill="#e58e1a" transform="rotate(-180 2173.423 1804.871)"/><rect width="3.42" height="19.45" x="2160.31" y="1795.15" fill="#e58e1a" transform="rotate(-180 2162.024 1804.871)"/><rect width="3.42" height="19.45" x="2148.91" y="1795.15" fill="#e58e1a" transform="rotate(-180 2150.625 1804.871)"/><rect width="3.42" height="19.45" x="2137.52" y="1795.15" fill="#e58e1a" transform="rotate(-180 2139.225 1804.871)"/><rect width="3.42" height="19.45" x="2126.12" y="1795.15" fill="#e58e1a" transform="rotate(-180 2127.826 1804.871)"/><rect width="3.42" height="19.45" x="2114.72" y="1795.15" fill="#e58e1a" transform="rotate(-180 2116.427 1804.871)"/><rect width="3.42" height="19.45" x="2103.32" y="1795.15" fill="#e58e1a" transform="rotate(-180 2105.028 1804.871)"/></g><g><path fill="#f09c23" d="M2099.07,1735.12v20.64c0,0.42,0.06,0.83,0.17,1.22c0.54,1.92,2.31,3.32,4.42,3.32h193.98
				c2.11,0,3.89-1.41,4.42-3.32c0.11-0.39,0.17-0.8,0.17-1.22v-20.64c0-0.42-0.06-0.83-0.17-1.22c-0.54-1.92-2.31-3.32-4.42-3.32
				h-193.98c-2.11,0-3.89,1.41-4.42,3.32C2099.13,1734.29,2099.07,1734.7,2099.07,1735.12z"/><path fill="#f8cd12" d="M2099.07,1735.12v20.64c0,0.42,0.06,0.83,0.17,1.22h202.83c0.11-0.39,0.17-0.8,0.17-1.22v-20.64
				c0-0.42-0.06-0.83-0.17-1.22h-202.83C2099.13,1734.29,2099.07,1734.7,2099.07,1735.12z"/><path fill="#f29e30" d="M2099.07,1735.12v20.64c0,0.42,0.06,0.83,0.17,1.22h96.88v-23.07h-96.88
				C2099.13,1734.29,2099.07,1734.7,2099.07,1735.12z"/><rect width="3.42" height="19.45" x="2290.14" y="1735.71" fill="#f09c23" transform="rotate(-180 2291.845 1745.438)"/><rect width="3.42" height="19.45" x="2278.74" y="1735.71" fill="#f09c23" transform="rotate(-180 2280.446 1745.438)"/><rect width="3.42" height="19.45" x="2267.34" y="1735.71" fill="#f09c23" transform="rotate(-180 2269.047 1745.438)"/><rect width="3.42" height="19.45" x="2255.94" y="1735.71" fill="#f09c23" transform="rotate(-180 2257.648 1745.438)"/><rect width="3.42" height="19.45" x="2244.54" y="1735.71" fill="#f09c23" transform="rotate(-180 2246.249 1745.438)"/><rect width="3.42" height="19.45" x="2233.14" y="1735.71" fill="#f09c23" transform="rotate(-180 2234.85 1745.438)"/><rect width="3.42" height="19.45" x="2221.74" y="1735.71" fill="#f09c23" transform="rotate(-180 2223.45 1745.438)"/><rect width="3.42" height="19.45" x="2210.34" y="1735.71" fill="#f09c23" transform="rotate(-180 2212.05 1745.438)"/><rect width="3.42" height="19.45" x="2198.94" y="1735.71" fill="#f09c23" transform="rotate(-180 2200.652 1745.438)"/><rect width="3.42" height="19.45" x="2187.54" y="1735.71" fill="#e58e1a" transform="rotate(-180 2189.252 1745.438)"/><rect width="3.42" height="19.45" x="2176.14" y="1735.71" fill="#e58e1a" transform="rotate(-180 2177.853 1745.438)"/><rect width="3.42" height="19.45" x="2164.74" y="1735.71" fill="#e58e1a" transform="rotate(-180 2166.454 1745.438)"/><rect width="3.42" height="19.45" x="2153.34" y="1735.71" fill="#e58e1a" transform="rotate(-180 2155.055 1745.438)"/><rect width="3.42" height="19.45" x="2141.95" y="1735.71" fill="#e58e1a" transform="rotate(-180 2143.656 1745.438)"/><rect width="3.42" height="19.45" x="2130.55" y="1735.71" fill="#e58e1a" transform="rotate(-180 2132.257 1745.438)"/><rect width="3.42" height="19.45" x="2119.15" y="1735.71" fill="#e58e1a" transform="rotate(-180 2120.857 1745.438)"/><rect width="3.42" height="19.45" x="2107.75" y="1735.71" fill="#e58e1a" transform="rotate(-180 2109.458 1745.438)"/></g><g><path fill="#f8cd12" d="M2107.75,1764.84v20.64c0,0.42,0.06,0.83,0.17,1.22c0.54,1.92,2.31,3.32,4.42,3.32h193.98
				c2.11,0,3.89-1.41,4.42-3.32c0.11-0.39,0.17-0.8,0.17-1.22v-20.64c0-0.42-0.06-0.83-0.17-1.22c-0.54-1.92-2.31-3.32-4.42-3.32
				h-193.98c-2.11,0-3.89,1.41-4.42,3.32C2107.81,1764.01,2107.75,1764.42,2107.75,1764.84z"/><path fill="#f8cd12" d="M2107.75,1764.84v20.64c0,0.42,0.06,0.83,0.17,1.22h202.83c0.11-0.39,0.17-0.8,0.17-1.22v-20.64
				c0-0.42-0.06-0.83-0.17-1.22h-202.83C2107.81,1764.01,2107.75,1764.42,2107.75,1764.84z"/><path fill="#f29e30" d="M2107.75,1764.84v20.64c0,0.42,0.06,0.83,0.17,1.22h96.88v-23.07h-96.88
				C2107.81,1764.01,2107.75,1764.42,2107.75,1764.84z"/><rect width="3.42" height="19.45" x="2298.81" y="1765.43" fill="#f8ea14" transform="rotate(-180 2300.524 1775.155)"/><rect width="3.42" height="19.45" x="2287.41" y="1765.43" fill="#f8ea14" transform="rotate(-180 2289.125 1775.155)"/><rect width="3.42" height="19.45" x="2276.02" y="1765.43" fill="#f8ea14" transform="rotate(-180 2277.726 1775.155)"/><rect width="3.42" height="19.45" x="2264.62" y="1765.43" fill="#f8ea14" transform="rotate(-180 2266.326 1775.155)"/><rect width="3.42" height="19.45" x="2253.22" y="1765.43" fill="#f8ea14" transform="rotate(-180 2254.927 1775.155)"/><rect width="3.42" height="19.45" x="2241.82" y="1765.43" fill="#f8ea14" transform="rotate(-180 2243.528 1775.155)"/><rect width="3.42" height="19.45" x="2230.42" y="1765.43" fill="#f8ea14" transform="rotate(-180 2232.129 1775.155)"/><rect width="3.42" height="19.45" x="2219.02" y="1765.43" fill="#f8ea14" transform="rotate(-180 2220.73 1775.155)"/><rect width="3.42" height="19.45" x="2207.62" y="1765.43" fill="#f8ea14" transform="rotate(-180 2209.33 1775.155)"/><g><rect width="3.42" height="19.45" x="2196.22" y="1765.43" fill="#f8cd12" transform="rotate(-180 2197.931 1775.155)"/><rect width="3.42" height="19.45" x="2184.82" y="1765.43" fill="#f8cd12" transform="rotate(-180 2186.532 1775.155)"/><rect width="3.42" height="19.45" x="2173.42" y="1765.43" fill="#f8cd12" transform="rotate(-180 2175.133 1775.155)"/><rect width="3.42" height="19.45" x="2162.02" y="1765.43" fill="#f8cd12" transform="rotate(-180 2163.734 1775.155)"/><rect width="3.42" height="19.45" x="2150.62" y="1765.43" fill="#f8cd12" transform="rotate(-180 2152.334 1775.155)"/><rect width="3.42" height="19.45" x="2139.23" y="1765.43" fill="#f8cd12" transform="rotate(-180 2140.935 1775.155)"/><rect width="3.42" height="19.45" x="2127.83" y="1765.43" fill="#f8cd12" transform="rotate(-180 2129.536 1775.155)"/><rect width="3.42" height="19.45" x="2116.43" y="1765.43" fill="#f8cd12" transform="rotate(-180 2118.137 1775.155)"/></g></g><g><path fill="#f09c23" d="M2085.91,1705.7v20.64c0,0.42,0.06,0.83,0.17,1.22c0.54,1.92,2.31,3.32,4.42,3.32h193.98
				c2.11,0,3.89-1.41,4.42-3.32c0.11-0.39,0.17-0.8,0.17-1.22v-20.64c0-0.42-0.06-0.83-0.17-1.22c-0.54-1.92-2.31-3.32-4.42-3.32
				H2090.5c-2.11,0-3.89,1.41-4.42,3.32C2085.96,1704.87,2085.91,1705.27,2085.91,1705.7z"/><path fill="#f8cd12" d="M2085.91,1705.7v20.64c0,0.42,0.06,0.83,0.17,1.22h202.83c0.11-0.39,0.17-0.8,0.17-1.22v-20.64
				c0-0.42-0.06-0.83-0.17-1.22h-202.83C2085.96,1704.87,2085.91,1705.27,2085.91,1705.7z"/><path fill="#f29e30" d="M2085.91,1705.7v20.64c0,0.42,0.06,0.83,0.17,1.22h96.88v-23.07h-96.88
				C2085.96,1704.87,2085.91,1705.27,2085.91,1705.7z"/><rect width="3.42" height="19.45" x="2276.97" y="1706.29" fill="#f09c23" transform="rotate(-180 2278.682 1716.014)"/><rect width="3.42" height="19.45" x="2265.57" y="1706.29" fill="#f09c23" transform="rotate(-180 2267.283 1716.014)"/><rect width="3.42" height="19.45" x="2254.17" y="1706.29" fill="#f09c23" transform="rotate(-180 2255.884 1716.014)"/><rect width="3.42" height="19.45" x="2242.77" y="1706.29" fill="#f09c23" transform="rotate(-180 2244.485 1716.014)"/><rect width="3.42" height="19.45" x="2231.38" y="1706.29" fill="#f09c23" transform="rotate(-180 2233.086 1716.014)"/><rect width="3.42" height="19.45" x="2219.98" y="1706.29" fill="#f09c23" transform="rotate(-180 2221.686 1716.014)"/><rect width="3.42" height="19.45" x="2208.58" y="1706.29" fill="#f09c23" transform="rotate(-180 2210.287 1716.014)"/><rect width="3.42" height="19.45" x="2197.18" y="1706.29" fill="#f09c23" transform="rotate(-180 2198.888 1716.014)"/><rect width="3.42" height="19.45" x="2185.78" y="1706.29" fill="#f09c23" transform="rotate(-180 2187.489 1716.014)"/><rect width="3.42" height="19.45" x="2174.38" y="1706.29" fill="#e58e1a" transform="rotate(-180 2176.09 1716.014)"/><rect width="3.42" height="19.45" x="2162.98" y="1706.29" fill="#e58e1a" transform="rotate(-180 2164.69 1716.014)"/><rect width="3.42" height="19.45" x="2151.58" y="1706.29" fill="#e58e1a" transform="rotate(-180 2153.291 1716.014)"/><rect width="3.42" height="19.45" x="2140.18" y="1706.29" fill="#e58e1a" transform="rotate(-180 2141.892 1716.014)"/><rect width="3.42" height="19.45" x="2128.78" y="1706.29" fill="#e58e1a" transform="rotate(-180 2130.493 1716.014)"/><rect width="3.42" height="19.45" x="2117.38" y="1706.29" fill="#e58e1a" transform="rotate(-180 2119.094 1716.014)"/><rect width="3.42" height="19.45" x="2105.98" y="1706.29" fill="#e58e1a" transform="rotate(-180 2107.695 1716.014)"/><rect width="3.42" height="19.45" x="2094.59" y="1706.29" fill="#e58e1a" transform="rotate(-180 2096.295 1716.014)"/></g><g><path fill="#f8cd12" d="M2099.02,1675.98v20.64c0,0.42,0.06,0.83,0.17,1.22c0.54,1.92,2.31,3.32,4.42,3.32h193.98
				c2.11,0,3.89-1.41,4.42-3.32c0.11-0.39,0.17-0.8,0.17-1.22v-20.64c0-0.42-0.06-0.83-0.17-1.22c-0.54-1.92-2.31-3.32-4.42-3.32
				h-193.98c-2.11,0-3.89,1.41-4.42,3.32C2099.07,1675.15,2099.02,1675.56,2099.02,1675.98z"/><path fill="#f8cd12" d="M2099.02,1675.98v20.64c0,0.42,0.06,0.83,0.17,1.22h202.83c0.11-0.39,0.17-0.8,0.17-1.22v-20.64
				c0-0.42-0.06-0.83-0.17-1.22h-202.83C2099.07,1675.15,2099.02,1675.56,2099.02,1675.98z"/><path fill="#f29e30" d="M2099.02,1675.98v20.64c0,0.42,0.06,0.83,0.17,1.22h96.88v-23.07h-96.88
				C2099.07,1675.15,2099.02,1675.56,2099.02,1675.98z"/><rect width="3.42" height="19.45" x="2290.08" y="1676.57" fill="#f8ea14" transform="rotate(-180 2291.791 1686.297)"/><rect width="3.42" height="19.45" x="2278.68" y="1676.57" fill="#f8ea14" transform="rotate(-180 2280.392 1686.297)"/><rect width="3.42" height="19.45" x="2267.28" y="1676.57" fill="#f8ea14" transform="rotate(-180 2268.993 1686.297)"/><rect width="3.42" height="19.45" x="2255.88" y="1676.57" fill="#f8ea14" transform="rotate(-180 2257.594 1686.297)"/><rect width="3.42" height="19.45" x="2244.48" y="1676.57" fill="#f8ea14" transform="rotate(-180 2246.195 1686.297)"/><rect width="3.42" height="19.45" x="2233.09" y="1676.57" fill="#f8ea14" transform="rotate(-180 2234.795 1686.297)"/><rect width="3.42" height="19.45" x="2221.69" y="1676.57" fill="#f8ea14" transform="rotate(-180 2223.396 1686.297)"/><rect width="3.42" height="19.45" x="2210.29" y="1676.57" fill="#f8ea14" transform="rotate(-180 2211.997 1686.297)"/><rect width="3.42" height="19.45" x="2198.89" y="1676.57" fill="#f8ea14" transform="rotate(-180 2200.598 1686.297)"/><g><rect width="3.42" height="19.45" x="2187.49" y="1676.57" fill="#f8cd12" transform="rotate(-180 2189.199 1686.297)"/><rect width="3.42" height="19.45" x="2176.09" y="1676.57" fill="#f8cd12" transform="rotate(-180 2177.8 1686.297)"/><rect width="3.42" height="19.45" x="2164.69" y="1676.57" fill="#f8cd12" transform="rotate(-180 2166.4 1686.297)"/><rect width="3.42" height="19.45" x="2153.29" y="1676.57" fill="#f8cd12" transform="rotate(-180 2155.001 1686.297)"/><rect width="3.42" height="19.45" x="2141.89" y="1676.57" fill="#f8cd12" transform="rotate(-180 2143.602 1686.297)"/><rect width="3.42" height="19.45" x="2130.49" y="1676.57" fill="#f8cd12" transform="rotate(-180 2132.203 1686.297)"/><rect width="3.42" height="19.45" x="2119.09" y="1676.57" fill="#f8cd12" transform="rotate(-180 2120.803 1686.297)"/><rect width="3.42" height="19.45" x="2107.69" y="1676.57" fill="#f8cd12" transform="rotate(-180 2109.404 1686.297)"/></g></g><path fill="#fff" d="M2227.01,1696.02c19.6,1.15,20.63,2.07,21.9,19.77c1.27-17.69,2.3-18.62,21.9-19.77
			c-19.6-1.15-20.63-2.07-21.9-19.77C2247.65,1693.95,2246.62,1694.88,2227.01,1696.02z"/><path fill="#fff" d="M2155.87,1760.23c19.6,1.15,20.63,2.07,21.9,19.77c1.27-17.69,2.3-18.62,21.9-19.77
			c-19.6-1.15-20.63-2.07-21.9-19.77C2176.51,1758.15,2175.48,1759.08,2155.87,1760.23z"/><path fill="#fff" d="M2155.87,1839.11c19.6,1.15,20.63,2.07,21.9,19.77c1.27-17.69,2.3-18.62,21.9-19.77
			c-19.6-1.15-20.63-2.07-21.9-19.77C2176.51,1837.04,2175.48,1837.97,2155.87,1839.11z"/></g></svg>