<svg xmlns="http://www.w3.org/2000/svg" viewBox="0 0 1920 1080"><path fill="#ede6db" d="M1695.69,796.38a383.26,383.26,0,0,1-2.61,103c-6.43,40.25-19.42,80.39-42.25,115.88-11.06,17.18-24.47,34.24-40.94,47.76-16.75,13.76-26.2,12.17-47.8,12.15-75.08-.08-150.25,4.1-225.4,4.12l-182.12,0-262,.07H877.34l-583.13.16c-57.68,0-103.45-27.71-125.29-65.12a99.2,99.2,0,0,1-14-50.11c0-.42,0-.85,0-1.28s0-.75,0-1.13c0-.9.06-1.81.11-2.72,0-.43,0-.86.08-1.29s.07-.9.1-1.36.07-.81.12-1.21.09-.93.14-1.39c.14-1.26.31-2.51.5-3.77.07-.41.13-.82.2-1.23q.24-1.39.51-2.79l.24-1.14c.18-.86.37-1.72.58-2.58s.38-1.54.59-2.31c.14-.53.29-1.07.44-1.61q.36-1.23.75-2.46v0l.42-1.28c.14-.43.29-.86.44-1.29q1.11-3.19,2.47-6.39c.54-1.27,1.11-2.54,1.72-3.81q1.25-2.61,2.65-5.2c.24-.43.47-.86.72-1.29s.48-.87.73-1.29.51-.86.76-1.29L170,913c.27-.43.53-.86.81-1.28.5-.79,1-1.58,1.54-2.36l.47-.69c.69-1,1.41-2,2.14-3l.4-.53.73-1,1-1.25,1.82-2.34c.58-.76,1.18-1.52,1.77-2.28,2.08-2.67,4.15-5.33,6.23-8,.72-.92,1.43-1.85,2.14-2.79q3-3.95,6-8l1.1-1.5.11-.15c1-1.41,2.05-2.84,3.06-4.27l.94-1.34c.57-.81,1.13-1.63,1.69-2.45l.83-1.22.61-.91.78-1.18c.37-.55.73-1.11,1.09-1.67.67-1,1.32-2,2-3.07l1.23-2c.33-.55.67-1.1,1-1.65.71-1.17,1.39-2.34,2.06-3.52.3-.51.59-1,.87-1.54.75-1.33,1.47-2.67,2.19-4l.58-1.14c.6-1.15,1.18-2.3,1.75-3.47l.51-1.07c1-2,1.86-4,2.73-6l.55-1.33c.35-.85.7-1.7,1-2.56l.17-.42.52-1.38.54-1.47c.18-.49.35-1,.53-1.48.34-1,.68-2,1-3l.48-1.51c.16-.51.31-1,.46-1.53l.45-1.54c.11-.4.23-.81.33-1.22a3,3,0,0,0,.09-.32.88.88,0,0,0,.05-.15l.32-1.25c.1-.36.19-.73.29-1.11s.12-.49.17-.74c.12-.47.24-1,.34-1.44,0-.14.08-.29.11-.44.11-.49.22-1,.32-1.48.07-.29.13-.57.18-.85.1-.45.19-.89.27-1.34a4.35,4.35,0,0,0,.1-.52c.11-.56.22-1.13.32-1.69,0-.16.06-.32.08-.48.12-.65.22-1.3.32-2s.23-1.43.32-2.15a.09.09,0,0,0,0-.05c.21-1.46.39-2.93.55-4.43s.29-3,.39-4.54c.06-.76.1-1.52.14-2.3.22-4.22.25-8.57.06-13,0-.72-.07-1.45-.11-2.19,0-.54-.06-1.09-.1-1.63A180.15,180.15,0,0,0,222,733.47c-15.83-50-17.28-95.44-7.47-136q1.32-5.52,2.94-10.93a218.23,218.23,0,0,1,10.35-27.72q4.42-9.75,9.75-19a251.73,251.73,0,0,1,33-44.9C316.18,445.08,383,408.48,458.25,386.21c162.7-48.2,364.59-29.37,475.2,68.1,77.83,68.57,230.44,41.49,328.67,44.14,125.05,3.37,252.79,16.05,341.4,102.88a295,295,0,0,1,27.55,31C1668.35,680.89,1689.13,737.84,1695.69,796.38Z"/><path fill="#ede6db" d="M381.12,345.82c14.35-11.09,30.22-23.9,32.18-41.94,2-18.43-12.62-35.73-30.19-41.65s-37-2.58-54.43,3.73C256.35,292.14,208.3,373.09,220,449.13c2.4,15.63,12.17,41.93,33,35,14.73-4.92,26.36-36.87,35.5-49C314.4,400.76,347.18,372.05,381.12,345.82Z"/><path fill="#ede6db" d="M1553.83,523.77c22.72,15.92,44.08,35,70.46,43.59s60.3,2.83,73.57-21.54c9-16.44,6.31-36.71,1.13-54.7-21.71-75.36-87.48-137.14-164.74-150.66-30.44-5.33-61.66-3.57-92.42-.55-55.21,5.41-110.44,15-162.91,33.44-25.05,8.81-126.49,42.62-118.2,81.62,7.47,35.17,86.34,9.65,108.16,7,46.37-5.69,93.68-5.21,139.72,3C1460.45,474.21,1510.59,493.47,1553.83,523.77Z"/><path fill="#ede6db" d="M581.54,266.19c48.6-28.49,105.74-45.91,161.45-37.5,72.87,11,131.74,63.13,186,113l51.67,47.45c9.94,9.13,20.62,19.82,20.87,33.31.23,12.16-8.25,22.68-17.23,30.9-36.44,33.35-86.44,47.18-135,56.09-64.54,11.83-130.15,16.91-195.72,19.26-36.14,1.29-72.79,1.7-107.88-7s-68.9-27.74-88.62-58.05C399.84,375.61,516.7,304.19,581.54,266.19Z"/><path fill="#fff" d="M755.34,356.93V902.12c0,15.18,15.86,27.49,35.42,27.49h687.6c19.57,0,35.43-12.31,35.43-27.49V356.93Z"/><path fill="#3a6bea" d="M1478.36,931.32H790.76c-20.75,0-37.64-13.1-37.64-29.2V355.22H1516v546.9C1516,918.22,1499.12,931.32,1478.36,931.32ZM757.55,358.65V902.12c0,14.21,14.9,25.77,33.21,25.77h687.6c18.31,0,33.21-11.56,33.21-25.77V358.65Z"/><path fill="#3a6bea" d="M1516,324.2c0-15.18-16-27.48-35.64-27.48H788.64C769,296.72,753,309,753,324.2v32.73h763Z"/><circle cx="801.8" cy="326.59" r="12.02" fill="#fff" transform="rotate(-80.75 801.778 326.595)"/><path fill="#dadada" d="M1446.72,568.23H822.4V405h624.32Zm-619.89-3.44h615.46V408.47H826.83Z"/><rect width="619.89" height="3.44" x="824.62" y="524.85" fill="#dadada"/><rect width="619.89" height="3.44" x="824.62" y="484.91" fill="#dadada"/><rect width="619.89" height="3.44" x="824.62" y="444.97" fill="#dadada"/><rect width="4.43" height="159.76" x="1380.3" y="406.75" fill="#dadada"/><rect width="4.43" height="159.76" x="1318.31" y="406.75" fill="#dadada"/><rect width="4.43" height="159.76" x="1256.33" y="406.75" fill="#dadada"/><rect width="4.43" height="159.76" x="1194.34" y="406.75" fill="#dadada"/><rect width="4.43" height="159.76" x="1132.35" y="406.75" fill="#dadada"/><rect width="4.43" height="159.76" x="1070.36" y="406.75" fill="#dadada"/><rect width="4.43" height="159.76" x="1008.37" y="406.75" fill="#dadada"/><rect width="4.43" height="159.76" x="946.38" y="406.75" fill="#dadada"/><rect width="4.43" height="159.76" x="884.39" y="406.75" fill="#dadada"/><rect width="45.76" height="259.99" x="1398.2" y="620.03" fill="#86a7ff"/><rect width="45.76" height="249.84" x="1302.69" y="630.26" fill="#d3dfff"/><rect width="45.76" height="207.94" x="1207.19" y="672.43" fill="#86a7ff"/><rect width="45.76" height="178.69" x="1111.68" y="701.77" fill="#d3dfff"/><rect width="45.76" height="125.25" x="1016.18" y="755.84" fill="#86a7ff"/><rect width="45.76" height="80.77" x="920.67" y="800.58" fill="#d3dfff"/><rect width="45.76" height="54.84" x="825.17" y="826.98" fill="#86a7ff"/><path fill="#3a6bea" d="M875.34,541.53a23.53,23.53,0,0,1-3.64-.29c-9.86-1.55-11.65-8.42-13.09-14-1.49-5.72-2.7-9.25-8.37-9.63-6.54-.43-17.7,6-23.17,10.52l-3.22-2.36c4.18-3.44,17.16-12.22,26.76-11.58,9.27.61,10.9,6.86,12.34,12.37,1.65,6.33,3.12,10.24,9.63,11.26,10.8,1.69,15.22-6.84,19.15-16.5l13.69-33.66c2.12-5.21,4.52-11.12,9.9-15.53s14.83-7,22.23-3.56c5.53,2.59,8.34,7.58,8.35,14.83,0,1.31,0,2.69-.1,4.14-.2,5.36-.43,11.43,2.08,15.67a9.28,9.28,0,0,0,5.81,4.09,7.65,7.65,0,0,0,5.23-.62c5.15-2.6,5.77-7.46,6.42-12.6.41-3.22.83-6.55,2.45-9.39,3-5.28,10.16-7.53,17.39-5.48,14.78,4.2,14.1,18.05,13.65,27.22l-.05,1c-.31,6.54.64,15.73,6.9,22.36a12.07,12.07,0,0,0,8.94,4,9.19,9.19,0,0,0,7.08-3.86c3.2-4.16,3.58-9.89,4-15.44.11-1.68.22-3.28.4-4.81l3-24.33c1.22-10.07,5.73-16.1,13-17.42a12.62,12.62,0,0,1,8.5,1.09c3.75,2.06,6,6.27,7,12.89a30.06,30.06,0,0,1,0,5.92c-.45,6.95-.26,11.6,6.25,12.92,4,.81,8.64-1.42,10.8-4,2.83-3.44,3.57-7.77,4.28-12,.21-1.19.41-2.38.66-3.55,1.73-8.14,3.89-17.74,6.87-27.12l0-.12c1.67-5.25,3.95-12.44,11-15.62,5.36-2.41,9.61-1.75,12.23-.76,6.35,2.38,10.28,9.21,11.36,14.92a56.44,56.44,0,0,1,.49,11.65c-.14,5.17-.28,10.52,1.55,15.07s7.63,10.15,15,8.62c7.78-1.63,9.4-6.86,11.27-12.9.36-1.18.74-2.4,1.17-3.57,3.44-9.46,8.15-22.41,18.7-30.77,6.51-5.15,16.76-6.31,24.93-2.81,12.3,5.26,12.19,16.76,12.09,26.91-.05,5.27-.1,10.25,1.45,14,2,4.94,5.52,8,10.37,9.15a16.44,16.44,0,0,0,10.88-.83c5.94-2.73,9.52-9.07,10.89-14.08l.58-2.17c2.79-10.4,6.62-24.65,15.27-32.53a24.08,24.08,0,0,1,21.45-5.75c8.4,1.77,14.89,7.6,16.53,14.84.2.88.37,1.76.54,2.64a28,28,0,0,0,2.36,7.87,10.83,10.83,0,0,0,8.63,5.91,14.72,14.72,0,0,0,11.76-4.47,39.21,39.21,0,0,0,5.87-8.29c1.06-1.8,2.15-3.66,3.43-5.44,11.62-16.17,36.11-22.5,55.15-23,22.12-.63,43.54,4.77,62.45,9.53l-1.37,3.27c-18.56-4.68-39.59-10-60.92-9.37-17.84.51-40.72,6.36-51.44,21.28-1.19,1.66-2.25,3.45-3.27,5.19a42.66,42.66,0,0,1-6.4,9,19.75,19.75,0,0,1-15.86,5.77,15.23,15.23,0,0,1-12.13-8,30.29,30.29,0,0,1-2.63-8.65c-.17-.85-.34-1.71-.53-2.56-1.35-5.94-6.58-10.7-13.34-12.13a19,19,0,0,0-16.9,4.66c-7.93,7.22-11.62,21-14.32,31l-.58,2.18c-2,7.42-6.87,13.52-13,16.33a21.92,21.92,0,0,1-14.42,1.16,18.45,18.45,0,0,1-13.31-11.4c-1.77-4.29-1.71-9.53-1.66-15.09.1-9.63.2-19.6-9.79-23.87-6.44-2.76-14.51-1.85-19.63,2.2-9.77,7.74-14.3,20.2-17.61,29.3-.4,1.11-.77,2.29-1.12,3.44-1.93,6.21-4.11,13.25-14.43,15.42-9.2,1.93-17.56-4-20.33-10.92-2-5.08-1.89-10.72-1.75-16.17a52.08,52.08,0,0,0-.45-11.07c-.9-4.81-4.25-10.59-8.9-12.33-2.44-.92-5.08-.71-8.08.64-5.46,2.46-7.4,8.56-9,13.47l0,.12c-2.94,9.27-5.09,18.78-6.8,26.86-.24,1.13-.44,2.28-.64,3.45-.78,4.55-1.58,9.27-4.94,13.35a17,17,0,0,1-15.65,5.51c-10.48-2.12-9.94-10.38-9.55-16.41a28.61,28.61,0,0,0,0-5.38c-1-6.85-3.31-9.47-5.11-10.46a7.3,7.3,0,0,0-4.94-.55c-7,1.28-9,9.57-9.63,14.41l-3,24.32c-.18,1.46-.28,3-.39,4.67-.39,5.69-.82,12.13-4.57,17a13.88,13.88,0,0,1-10.68,5.53,16.71,16.71,0,0,1-12.72-5.4c-7-7.43-8.09-17.44-7.76-24.53l0-1c.43-8.65,1-20.51-10.74-23.85-5-1.43-9.77,0-11.82,3.64-1.33,2.34-1.7,5.25-2.09,8.34-.7,5.46-1.48,11.64-8.42,15.14a13.12,13.12,0,0,1-8.87,1,13.47,13.47,0,0,1-8.6-5.95c-3-5-2.7-11.47-2.49-17.21,0-1.43.11-2.78.1-4,0-6-2.1-10-6.21-11.89-5.41-2.53-12.65-.36-16.72,3-4.68,3.84-6.92,9.35-8.9,14.21L896,522.33C893,529.7,888.17,541.53,875.34,541.53Z"/><circle cx="1013.65" cy="533.87" r="10" fill="#102048"/><circle cx="1382.28" cy="423.93" r="10" fill="#102048"/><path fill="#365791" d="M626.83,1359.68c-29.73,19.23-68.58,33.65-100.64,17.63-28.82-16-15.86-57.69-25.6-84.93a26.19,26.19,0,0,1-2.95-4.51l-9.8-207,4.23-31.46-3.94-92c12.8-31.75,51,28,56.86-4.92l96.8-22s.83,102.42,2,114.81c.13,1.47,10.16,224.78-11,309.38A70.69,70.69,0,0,1,626.83,1359.68Z"/><path fill="none" stroke="#161719" stroke-linecap="round" stroke-linejoin="round" stroke-width="1.5" d="M503.21,1063.22c14.65,88.76,20.64,131.89,25.6,222.75"/><path fill="#4363aa" d="M352,965l193-12.48c-8.32,47.08-27.62,92.23-46.89,137.51l-4.36.34c-65.3,4.77-136.14,11-142.2-7.11C340.55,1050.47,352,965,352,965Z"/><path fill="#4363aa" d="M348.7,1286c.31-.49.62-1,.94-1.47a9.13,9.13,0,0,0,2.29,4.43c3,18.36,7.65,36.74,21.09,48.41,15,13.06,37.56,14.65,58.67,15.09,7.56.16,15.26.23,22.81-1.74s15.06-6.29,19.37-13a57,57,0,0,0,6.31-14c.11.41.21.82.32,1.23,0,0,.14-1.29.41-3.7,5.68-20.38,5.17-46.34,7.13-63.88l9.57-85.74q6.19-55.44,12.38-110.86s-53.28-25.88-93.67-37.46c-1.65-.48-3.3-.93-4.95-1.37-22.78-6.19-44.51-9.6-57.31-5.4,0,0-8.62,25.69-8.66,27.21C343.76,1102.37,347.38,1222.61,348.7,1286Z"/><path fill="none" stroke="#161719" stroke-linecap="round" stroke-linejoin="round" stroke-width="1.5" d="M439,995c-3.52,14.28-8.55,28.81-18.15,40.69s-24.6,20.7-38.93,19.45"/><path fill="none" stroke="#161719" stroke-linecap="round" stroke-linejoin="round" stroke-width="1.5" d="M372.37,1017.59c-10.27,72.16-10.89,161.89-7.48,233.12"/><path fill="#7a9cfc" d="M557.5,548.45c22.26-14.55,49.5-17.29,64,4.93.68,1.11,91.46,153.32,96.61,160.49,30.65,40.47,1.77,96-43.6,117a22.29,22.29,0,0,1-10.73,2c-38-11.56-54.75-48.33-54.75-48.33L523.4,670.44C518.91,663.59,542.14,558.51,557.5,548.45Z"/><path fill="#7a9cfc" d="M651.34,963.4c3.47-.37-12-74.52-13-86.11-7.8-92.18,2.78-149.36-3.18-249,0,0-5.68-69-19.23-80.45-45.84-38.6-142.47-58.56-294.7-6.18-25.59,8.8-39.59,45.32-40.18,47C271.24,615.87,303,695.41,303,695.41c4.94,46,39.14,150,35.92,219.5-.48,10.17-9.58,64.49-1.63,71.41,44.19,38.49,227.31,16,299-1.67C657.14,979.52,651.34,963.4,651.34,963.4Z"/><path fill="none" stroke="#161719" stroke-linecap="round" stroke-linejoin="round" stroke-width="1.5" d="M631.63,602.54c5.14,126,3.46,155,3.35,284.31"/><path fill="#ea8d65" d="M527.3,512s-51.87-5.28-72.69-.2S391,523.16,391,523.16s29.35,47,92.42,41.64C527.5,561,527.3,512,527.3,512Z"/><path fill="none" stroke="#161719" stroke-linecap="round" stroke-linejoin="round" stroke-width="1.5" d="M527.3,512s8.15,47.26-43.85,52.83-90.16-38.22-90.16-38.22"/><path fill="#ea8d65" d="M424.13,413.58l.77,67.17L423.53,505s-1.21,18.87-.77,21.93a19.8,19.8,0,0,0,.42,3A39.84,39.84,0,0,0,470,561.5a39.3,39.3,0,0,0,15.94-7,39.73,39.73,0,0,0,16.34-31.33c.09-2.77,1,5.39.48,2.51-.46-2.35-7.57-31.4-7.57-31.4L480.6,412.37v-.08Z"/><path fill="#c66d4e" d="M479.54,413.33l-49.85-.19L425.2,485.5s19.15,6.16,72.31,23.05Z"/><path fill="#ea8d65" d="M535.54,356.39l0,52.09c0,37.74-13.31,70.12-47.87,80.09-3.83,1.11-10.66,1.63-17.8,1.58a79.09,79.09,0,0,1-33.43-7.83l-9.85-4.69c-11.82-7-21.32-14.62-25.2-27l-22.94-73.05C363.15,329,396.37,277,447.25,273.67c1.8-.12,3.61-.18,5.44-.18a82.95,82.95,0,0,1,82.85,82.9Z"/><path fill="#492931" d="M498,317.44c-8.27,9.37-20.53,14.18-32.66,17.16s-24.68,4.46-36.41,8.78-11.25,9.32-15.95,20.9c-2,4.92,5.83,38,4.63,43.18S402.64,410,399,413.78s-18-11.17-22.8-13.42c-2.32-1.07-4.47,2.58-6.08.6-13.24-16.17-20.35-57.84-14.16-77.81s17.88-35.41,35.66-46.39,54-19.34,89.9-9.65c7.41,2,21,9.83,25,16.67,3.9,6.61.47,14.58-1.8,21.75A33.27,33.27,0,0,1,498,317.44Z"/><path fill="#492931" d="M517.54,331.74a46.89,46.89,0,0,1-25.8-6.58,25.33,25.33,0,0,1-7.15-5.86,25.63,25.63,0,0,1-4.25-9c-2.68-9.51-2.9-19.82,3.69-27.8,6.07-7.35,14.44-7.86,23.28-5.43,6,1.66,11.66,4.51,17.43,6.91a126.07,126.07,0,0,0,20.59,6.55c7,1.57,15.15,2.23,20.36-2.64-.46,11.58-6.69,22.42-15.3,30.17A52.31,52.31,0,0,1,517.54,331.74Z"/><path fill="#492931" d="M521.08,290.51s-11.76-17.65-44.7-21.29,13.12,39.45,13.12,39.45Z"/><path fill="none" stroke="#161719" stroke-linecap="round" stroke-linejoin="round" stroke-width="1.5" d="M476,306.57a100.42,100.42,0,0,1-40.66,15.64c-11,1.63-23.64,2.06-30.87,10.54"/><path fill="none" stroke="#161719" stroke-linecap="round" stroke-linejoin="round" stroke-width="1.5" d="M416.07,281.43a63.2,63.2,0,0,0-49.83,77.09"/><path fill="none" stroke="#161719" stroke-linecap="round" stroke-linejoin="round" stroke-width="1.5" d="M500.64,288.94C511,294,531,305,551,301"/><path fill="#603a45" d="M428.73,334.1c-5.29,1-10.75,1.27-15.87,2.94-9.76,3.17-17.52,11.22-21.56,20.65s-4.6,20.11-2.9,30.23c-5.77-10-4-22.66-.41-33.65,2.81-8.62,6.85-17.21,13.85-23,9.1-7.49,21.56-9,33.28-10.23,7.85-.82,16.12-2.21,23.85-2C451.15,327.07,439.64,332.09,428.73,334.1Z"/><path fill="#603a45" d="M395.74,302.27c-16.57,15.87-26.1,39.71-22.06,62.29q2.1-10.79,4.81-21.42c1.87-7.38,4-14.79,7.7-21.45,8.48-15.27,24.39-25.08,40.79-31.09,7.12-2.61,15.76-4.32,21.74-8.73C436.32,270.34,404.88,293.51,395.74,302.27Z"/><path fill="#492931" d="M461,358.14c.87,1.61-8.87,5.34-17.69,10.08s-16.73,10.45-17.55,8.92c-.54-1-1.66-12.66,12-20S460.38,357,461,358.14Z"/><path fill="#492931" d="M499.18,360c-.31,1.8,5.64-1.4,15.51.27s18.56,5.92,18.86,4.2c.19-1.1-2.85-11.58-18.19-14.21S499.39,358.78,499.18,360Z"/><path fill="#fff" d="M463.83,383.16c1.14,6.3-1.53,12.06-6,12.87s-9-3.65-10.12-9.95,1.54-12.05,6-12.86S462.69,376.87,463.83,383.16Z"/><path fill="#0e1b2d" d="M458.81,385.63c.7,3.87-1,7.43-3.89,7.94s-5.72-2.2-6.42-6.08,1-7.43,3.88-7.94S458.1,381.75,458.81,385.63Z"/><path fill="#fff" d="M525.78,379.83c.8,6.13-1.82,11.52-5.84,12.05s-7.94-4-8.74-10.15,1.81-11.52,5.84-12S525,373.7,525.78,379.83Z"/><path fill="#0e1b2d" d="M520.62,382.12c.49,3.73-.9,7-3.09,7.26s-4.36-2.5-4.84-6.22.89-7,3.08-7.26S520.13,378.4,520.62,382.12Z"/><polyline fill="none" stroke="#000" stroke-miterlimit="10" points="491.16 402.48 498.75 419.08 488.22 420.21"/><path fill="#ea8d65" d="M366.74,401.56C365.3,413.37,376,428.18,389,430.92s24.7-4.59,26.14-16.4-9-28.77-22-31.51A22.1,22.1,0,0,0,366.74,401.56Z"/><path fill="none" stroke="#000" stroke-linecap="round" stroke-linejoin="round" stroke-width=".96" d="M382,402.36s13.32-4.7,22.08,9.28c0,0-9.44-7.88-15.23-2.73"/><path fill="#fffbf5" d="M504.88,432.69l-38.18,1.66s16.73,18.44,23.24,18.25S504.88,432.69,504.88,432.69Z"/><path fill="#7a9cfc" d="M313.9,547.9c70.73-21.37,71.55,66.73,60.74,114.13-7.54,33-18.82,65.19-30.67,96.88-12.61,33.73-22.07,79.26-46.29,105.86-16.8,18.46-36.64,42.21-61,36.92-76.48-16.58-31.12-144.8-14.86-190.21S260.74,564,313.9,547.9Z"/><path fill="none" stroke="#161719" stroke-linecap="round" stroke-linejoin="round" stroke-width="1.5" d="M376.58,656.11q-31.53,93.84-63.07,187.67"/><polygon fill="#ea8d65" points="791.17 581.65 776.22 648.98 713.18 627.61 747 552 791.17 581.65"/><path fill="#7a9cfc" d="M645.41,748.19c10-23.88,58.07-122.89,71.52-154.57l70.17,21.8c-9.53,41.44-21.23,124.36-32.8,165.29-10.76,38.08-24.81,76.18-66.53,66.91-17.86-4-32-14.52-40.16-30.9-4-8-10.89-3-12.06-11.83C632.93,785.12,637.76,766.37,645.41,748.19Z"/><path fill="none" stroke="#161719" stroke-linecap="round" stroke-linejoin="round" stroke-width="1.5" d="M637.89,761.64q40.47-83.5,78.43-168.2l70.78,22L747,801.26"/><path fill="#ea8d65" d="M783.56,460.09s16.55-4.37,17,23.7c.29,19.9-3.11,25.21-3.11,25.21l38.64-.56s13.94,2.23,13.3,11.17-2.58,8.56-2.58,8.56,8.93-.44,9.72,10.14c.45,6.08-5.54,11.31-5.54,11.31s4.89,2.26,2.5,12.54c-.62,2.65-9.55,7.85-9.55,7.85s2.8,6.46-.62,10.16-23,11.7-23,11.7-23.35,1.53-32.61,2.88-27.19-2.46-27.19-2.46S747.41,571.14,746,565c-2-8.61,4.16-22.48,6-29s23.3-32.36,23.3-32.36,7.15-13.09,7.79-22.44S781.28,459.36,783.56,460.09Z"/><line x1="845.47" x2="816.56" y1="527.55" y2="531.14" fill="none" stroke="#0e1a2b" stroke-linecap="round" stroke-linejoin="round"/><line x1="848.54" x2="819.29" y1="550.53" y2="554.19" fill="none" stroke="#0e1a2b" stroke-linecap="round" stroke-linejoin="round"/><line x1="842.38" x2="816.74" y1="571.24" y2="573.63" fill="none" stroke="#0e1a2b" stroke-linecap="round" stroke-linejoin="round"/><path fill="none" stroke="#0e1a2b" stroke-linecap="round" stroke-linejoin="round" d="M784.72,535.71a32.37,32.37,0,0,1-18.14,27.8"/><path fill="none" stroke="#0e1a2b" stroke-linecap="round" stroke-linejoin="round" d="M801.13,574.21a27.06,27.06,0,0,0-22.9,1.24"/><path fill="none" stroke="#0e1a2b" stroke-linecap="round" stroke-linejoin="round" d="M803,513.89c-3.15,4.65-1.59,20.75,4,20.49-3.44,6.63-.88,15.29,4.85,20.09-5.65,3-6.46,10.72-2.34,15.58-2.87,3.66-.41,11.36,2.49,15"/><path fill="#7a9cfc" d="M323.17,805.91l146.77,58.7,26.26,24.72s-23.17,17-49.44,24.72-209.24,5.48-225.56-13.9C196.48,870.79,235.11,790.46,323.17,805.91Z"/><line x1="310.81" x2="426.23" y1="802.82" y2="847.51" fill="none" stroke="#161719" stroke-linecap="round" stroke-linejoin="round" stroke-width="1.5"/><path fill="none" stroke="#161719" stroke-linecap="round" stroke-linejoin="round" stroke-width="1.5" d="M496.2,889.33s-26.44,25.77-71.15,27.5c-47.81,1.86-139,4.95-173-7.41"/><rect width="349.17" height="28.71" x="276.26" y="836.59" fill="#e3e7ff" rx="1.23"/><path fill="#2f3035" d="M624.2,837.09a.73.73,0,0,1,.73.73v26.25a.73.73,0,0,1-.73.73H277.49a.73.73,0,0,1-.73-.73V837.82a.73.73,0,0,1,.73-.73H624.2m0-1H277.49a1.72,1.72,0,0,0-1.73,1.73v26.25a1.73,1.73,0,0,0,1.73,1.73H624.2a1.73,1.73,0,0,0,1.73-1.73V837.82a1.72,1.72,0,0,0-1.73-1.73Z"/><path fill="#e3e7ff" d="M371.18,865.3a14.17,14.17,0,0,1-12.88-20.07l66.35-144.88a14.2,14.2,0,0,1,12.88-8.27H680.22a14.17,14.17,0,0,1,12.88,20.07L626.75,857a14.2,14.2,0,0,1-12.88,8.27Z"/><path fill="#2f3035" d="M680.22,692.58a13.67,13.67,0,0,1,12.43,19.36L626.3,856.82a13.7,13.7,0,0,1-12.43,8H371.18a13.67,13.67,0,0,1-12.43-19.36L425.1,700.56a13.7,13.7,0,0,1,12.43-8H680.22m0-1H437.53a14.66,14.66,0,0,0-13.34,8.56L357.84,845a14.67,14.67,0,0,0,13.34,20.77H613.87a14.68,14.68,0,0,0,13.34-8.56l66.35-144.89a14.67,14.67,0,0,0-13.34-20.77Z"/><path fill="#819eef" d="M517.59,778.69a21.08,21.08,0,1,0,21.08-21.07A21.07,21.07,0,0,0,517.59,778.69Z"/><path fill="#ea8d65" d="M434.17,886.41c6.39,11.7,17.53,17.46,28.53,15.53a50.2,50.2,0,0,0,17.52-6.6c4.3-2.62,9.64-7.37,13.33-6.72,9.16,1.62,12.66-6.41,15-7.07a13.53,13.53,0,0,0,9,2.33,25.78,25.78,0,0,0,11.15-4.12h0c9.15.19,17.11.92,19.73-1.29,5.24-4.41,11.11-49.38,2.37-51.56-11.58-2.89-6.31,30.62-17,36.53,0,0,8.78-41.79-4.24-45.38-8.89-2.44-11.12,39.47-20.75,46.73,0,0,9.74-38.66.21-45.27s-10.4,40.4-20.28,41.26c-2,.16,8.63-33-2.91-35.23s-5.83,38.07-40,35.92C431.93,860.6,426.1,871.66,434.17,886.41Z"/><circle cx="1488.24" cy="940.87" r="124.87" fill="#ffc022" transform="rotate(-45 1488.241 940.87)"/><path fill="#fff" d="M1501.09,996.75V1014h-22v-16.5c-15.56-.94-30.66-5.14-40-10.9L1451,959.86a74.78,74.78,0,0,0,36,10c10.44,0,14.18-2.18,14.18-5.92,0-13.7-60.25-2.65-60.25-43.27,0-17.6,12.76-32.39,38.29-36v-17h22v16.65c11.5,1.09,22.72,4.06,31.59,9l-11,26.62c-10.75-5.45-20.86-8.1-30.36-8.1-10.74,0-14.17,3.11-14.17,6.85,0,13.07,60.25,2.18,60.25,42.34C1537.35,977.91,1525.21,992.55,1501.09,996.75Z"/><circle cx="1649.74" cy="752.44" r="83.26" fill="#ffc022" transform="rotate(-76.72 1649.678 752.452)"/><path fill="#fff" d="M1658.3,789.71v11.52h-14.63v-11c-10.38-.62-20.45-3.42-26.68-7.27l7.89-17.85a49.82,49.82,0,0,0,24,6.65c7,0,9.44-1.46,9.44-4,0-9.14-40.17-1.77-40.17-28.86,0-11.73,8.51-21.59,25.54-24V703.65h14.63v11.1c7.68.73,15.16,2.71,21.08,6L1672,738.53c-7.17-3.63-13.92-5.4-20.25-5.4-7.16,0-9.45,2.08-9.45,4.57,0,8.72,40.18,1.46,40.18,28.23C1682.49,777.14,1674.39,786.9,1658.3,789.71Z"/><circle cx="675.39" cy="257.09" r="59.91" fill="#ffc022" transform="rotate(-72.88 675.438 257.078)"/><path fill="#fff" d="M681.55,283.9v8.29H671v-7.91c-7.47-.45-14.71-2.47-19.19-5.23l5.67-12.85A35.89,35.89,0,0,0,674.75,271c5,0,6.8-1,6.8-2.84,0-6.57-28.9-1.27-28.9-20.76,0-8.44,6.12-15.54,18.37-17.26V222h10.53v8a39.13,39.13,0,0,1,15.16,4.34l-5.3,12.77a32.35,32.35,0,0,0-14.57-3.89c-5.15,0-6.79,1.5-6.79,3.29,0,6.27,28.9,1.05,28.9,20.32C699,274.86,693.13,281.89,681.55,283.9Z"/><path fill="#ffc022" d="M1652.48,347a109.53,109.53,0,0,0-95.78,67l101,42.3Z"/><path fill="#6484ed" d="M1567.58,432.07a109.46,109.46,0,0,0,182.23,115.61l-81.25-73.31Z"/><path fill="#ff8431" d="M1668.56,364.93c-1.75,0-3.49,0-5.19.13l5.19,109.31,81.25,73.31a109.43,109.43,0,0,0-81.25-182.75Z"/><line x1="146.83" x2="1739.62" y1="1071.96" y2="1071.96" fill="none" stroke="#81b4fd" stroke-miterlimit="10" stroke-width="15"/><rect width="176.33" height="132.91" x="141" y="261.65" fill="#6484ed" rx="30.98"/><path fill="#6484ed" d="M286.28,370.64v64.69L234.89,367.1S287.65,370.64,286.28,370.64Z"/><polygon fill="#f5f7f5" points="226.68 282.76 240.58 310.93 271.68 315.45 249.18 337.38 254.49 368.35 226.68 353.73 198.86 368.35 204.18 337.38 181.68 315.45 212.77 310.93 226.68 282.76"/><rect width="393.12" height="277.85" x="797.36" y="776.28" fill="#4969c1" rx="9.21"/><path fill="#335091" d="M1178.55,805.12V1025.3a16.87,16.87,0,0,1-16.88,16.87H1136.2V802.51H819.05a7.13,7.13,0,0,1-7.13-7.13h0a7.13,7.13,0,0,1,7.13-7.13h342.62A16.87,16.87,0,0,1,1178.55,805.12Z"/><path fill="#eaa307" d="M1060.3,714.82a62.24,62.24,0,1,0,43.93,76.28A62.24,62.24,0,0,0,1060.3,714.82ZM1092.51,788a50.1,50.1,0,1,1-36.71-61.75l1.35.35a50.15,50.15,0,0,1,35.69,60.07C1092.74,787.06,1092.63,787.51,1092.51,788Z"/><path fill="#ffc022" d="M1092.84,786.62c-.1.45-.21.89-.33,1.33a50.1,50.1,0,1,1-36.71-61.75l1.35.35A50.15,50.15,0,0,1,1092.84,786.62Z"/><path fill="#fffaf3" d="M1032.09,811.44l2.2-9.16c-5.24-1.36-10.29-4.3-12.92-7.33l3.64-5.56a24.88,24.88,0,0,0,12.13,7c6.44,1.55,11.69-1.12,12.94-6.3,1.2-5-1.6-8.93-7.66-13.26-8.39-5.86-13.1-11.4-11.21-19.3,1.81-7.53,8.54-12,17.22-11.32l2.2-9.17,5.63,1.36-2.12,8.8a25,25,0,0,1,11,6l-3.71,5.44a22.72,22.72,0,0,0-10.7-5.83c-7-1.68-10.62,1.87-11.49,5.5-1.14,4.72,1.66,7.88,8.77,13,8.43,6.05,12,11.91,10.07,20-1.72,7.17-8.32,12.69-18,12l-2.27,9.44Z"/><path fill="#eaa307" d="M925.3,675.45a69.4,69.4,0,1,0,82,53.91A69.4,69.4,0,0,0,925.3,675.45Zm68.77,56.66a55.86,55.86,0,1,1-67.54-43.06l1.52-.33a55.94,55.94,0,0,1,65.69,41.9C993.85,731.11,994,731.61,994.07,732.11Z"/><path fill="#ffc022" d="M993.74,730.62c.11.49.23,1,.33,1.49a55.87,55.87,0,1,1-67.54-43.06c.51-.12,1-.23,1.52-.33A55.93,55.93,0,0,1,993.74,730.62Z"/><path fill="#fffaf3" d="M945.7,785.82l-2.4-10.24c-5.9,1.29-12.41.89-16.55-.81l.83-7.36a27.71,27.71,0,0,0,15.61.93c7.2-1.69,11.08-7,9.72-12.77-1.31-5.57-6.07-8.08-14.28-9.36-11.29-1.62-18.76-4.78-20.84-13.59-2-8.41,2.5-16.2,11.46-19.91l-2.4-10.23,6.28-1.48,2.31,9.83a27.75,27.75,0,0,1,14,.44l-1,7.28a25.25,25.25,0,0,0-13.57-.44c-7.8,1.84-9.64,7.19-8.69,11.24,1.24,5.27,5.61,7,15.28,8.6,11.43,1.8,17.94,5.83,20.06,14.84,1.88,8-1.92,16.81-11.95,21l2.48,10.54Z"/><path fill="#373844" d="M953.68,812.66l-.53-2.55a68.09,68.09,0,0,0,52.9-80.48c-.32-1.53-.68-3-1.08-4.48l2.51-.7c.42,1.5.8,3.07,1.12,4.65a70.69,70.69,0,0,1-54.92,83.56Z"/><path fill="#6484ed" d="M806.28,788.51h349.66a8.92,8.92,0,0,1,8.92,8.92v256.49a8.92,8.92,0,0,1-8.92,8.92H806.28a8.93,8.93,0,0,1-8.93-8.93V797.43A8.92,8.92,0,0,1,806.28,788.51Z"/><path fill="#fefefe" d="M1136.61,1048.58h-13.89v-1.73h13.79Zm-24.23,0h-13.79v-1.73h13.79Zm-24.13,0h-13.79v-1.73h13.79Zm-24.13,0h-13.78v-1.73h13.78Zm-24.12,0h-13.79v-1.73H1040Zm-24.13,0h-13.79v-1.73h13.79Zm-24.13,0H978v-1.73h13.79Zm-24.13,0H953.83v-1.73h13.78Zm-24.12,0H929.7v-1.73h13.79Zm-24.13,0H905.57v-1.73h13.79Zm-24.13,0H881.44v-1.73h13.79Zm-24.13,0H857.32v-1.73H871.1Zm-24.12,0h-5.7a14.57,14.57,0,0,1-8.12-2.46l1-1.44a12.8,12.8,0,0,0,7.15,2.17H847Zm299.59-4-1.2-1.26a12.76,12.76,0,0,0,4-9.31v-2.67h1.74V1034A14.46,14.46,0,0,1,1146.57,1044.56Zm-319.51-7.27a14.09,14.09,0,0,1-.37-3.3v-10.65h1.74V1034a11.87,11.87,0,0,0,.33,2.91Zm324-16.31h-1.74V1007.2h1.74Zm-322.67-8h-1.74V999.21h1.74Zm322.67-16.14h-1.74V983.07h1.74Zm-322.67-8h-1.74V975.08h1.74Zm322.67-16.14h-1.74V958.94h1.74Zm-322.67-8h-1.74V951h1.74ZM1151.1,948.6h-1.74V934.81h1.74Zm-322.67-8h-1.74V926.83h1.74Zm322.67-16.14h-1.74V910.69h1.74Zm-322.67-8h-1.74V902.7h1.74Zm322.67-16.14h-1.74V886.56h1.74Zm-322.67-8h-1.74V878.57h1.74Zm322.67-16.14h-1.74V862.43h1.74Zm-322.67-8h-1.74V854.44h1.74Zm322.67-16.14h-1.74V838.3h1.74Zm-322.67-8h-1.74V830.32h1.74ZM1151.1,828h-1.74v-10.6a12.8,12.8,0,0,0-.34-3l1.69-.39a14.47,14.47,0,0,1,.39,3.35Zm-322.67-8h-1.74v-2.62a14.47,14.47,0,0,1,4.57-10.61l1.19,1.27a12.74,12.74,0,0,0-4,9.34Zm315.18-13.33a12.79,12.79,0,0,0-7.1-2.14h-5.75v-1.74h5.75a14.51,14.51,0,0,1,8.06,2.43Zm-23.19-2.14h-13.79v-1.74h13.79Zm-24.13,0H1082.5v-1.74h13.79Zm-24.13,0h-13.78v-1.74h13.78Zm-24.12,0h-13.79v-1.74H1048Zm-24.13,0h-13.79v-1.74h13.79Zm-24.13,0H986v-1.74h13.79Zm-24.13,0H961.87v-1.74h13.78Zm-24.12,0H937.74v-1.74h13.79Zm-24.13,0H913.61v-1.74H927.4Zm-24.13,0H889.48v-1.74h13.79Zm-24.13,0H865.36v-1.74h13.78Zm-24.12,0H841.28l0-1.74H855Z"/><path fill="#83a4ff" d="M1190,869.35v77.52a17.61,17.61,0,0,1-17.62,17.62h-67.07a38.82,38.82,0,1,1,0-77.64h67.07a12.06,12.06,0,0,1,1.47.07A17.63,17.63,0,0,0,1190,869.35Z"/><circle cx="1101.78" cy="925.68" r="18.12" fill="#fff"/><path fill="#eaa307" d="M918.12,1075.88c0,4.19-30.76,7.6-68.71,7.6s-68.71-3.41-68.71-7.6a1,1,0,0,1,0-.23v-20.53H918.08v20.49A.8.8,0,0,1,918.12,1075.88Z"/><ellipse cx="849.41" cy="1055.3" fill="#ffc022" rx="68.71" ry="7.6"/><path fill="#eaa307" d="M934.36,1051.1c0,4.19-30.77,7.6-68.71,7.6s-68.71-3.41-68.71-7.6a2.08,2.08,0,0,1,0-.23v-20.53H934.31v20.49A.81.81,0,0,1,934.36,1051.1Z"/><ellipse cx="865.65" cy="1030.52" fill="#ffc022" rx="68.71" ry="7.6"/><path fill="#eaa307" d="M918.12,1026.32c0,4.19-30.76,7.6-68.71,7.6s-68.71-3.41-68.71-7.6a1,1,0,0,1,0-.23v-20.53H918.08v20.49A.8.8,0,0,1,918.12,1026.32Z"/><ellipse cx="849.41" cy="1005.74" fill="#ffc022" rx="68.71" ry="7.6"/><path fill="#eaa307" d="M942.48,1001.54c0,4.19-30.77,7.6-68.71,7.6s-68.71-3.41-68.71-7.6a1,1,0,0,1,0-.23V980.78H942.43v20.49A.81.81,0,0,1,942.48,1001.54Z"/><ellipse cx="873.76" cy="980.96" fill="#ffc022" rx="68.71" ry="7.6"/><ellipse cx="873.76" cy="980.96" fill="#eaa307" rx="55.96" ry="5.11"/><path fill="#eaa307" d="M948,947.37a69.4,69.4,0,1,0,83.66,51.32A69.4,69.4,0,0,0,948,947.37Zm70.5,54.48a55.86,55.86,0,1,1-68.85-40.93c.5-.14,1-.25,1.51-.38a55.94,55.94,0,0,1,67,39.83C1018.2,1000.86,1018.33,1001.36,1018.45,1001.85Z"/><path fill="#ffc022" d="M1018.07,1000.37c.13.49.26,1,.38,1.48a55.86,55.86,0,1,1-68.85-40.93c.5-.14,1-.26,1.51-.38A55.94,55.94,0,0,1,1018.07,1000.37Z"/><path fill="#fffaf3" d="M971.78,1057l-2.73-10.15c-5.85,1.47-12.37,1.28-16.56-.29l.6-7.38a27.79,27.79,0,0,0,15.64.43c7.13-1.91,10.85-7.33,9.31-13.06-1.48-5.53-6.32-7.89-14.56-8.91-11.34-1.27-18.91-4.19-21.26-12.94-2.24-8.34,2-16.27,10.84-20.26l-2.73-10.15,6.23-1.67,2.62,9.75a27.69,27.69,0,0,1,14,0l-.73,7.31a25.1,25.1,0,0,0-13.58,0c-7.74,2.08-9.42,7.48-8.34,11.5,1.41,5.23,5.83,6.85,15.54,8.12,11.49,1.44,18.12,5.26,20.52,14.21,2.13,7.94-1.4,16.86-11.29,21.35l2.8,10.45Z"/><path fill="#373844" d="M895.68,1032.66a70.63,70.63,0,0,1,25.45-74l1.59,2.08A68,68,0,0,0,898.21,1032Z"/><path fill="#373844" d="M924,1073.08a70.68,70.68,0,0,1-28.29-40.42l2.53-.66a68,68,0,0,0,27.24,38.93Z"/></svg>