<svg xmlns="http://www.w3.org/2000/svg" viewBox="0 0 1920 1080"><defs><clipPath id="a"><circle cx="699.22" cy="304.05" r="96.5" fill="none"/></clipPath><clipPath id="b"><ellipse cx="1107.22" cy="308.72" fill="none" rx="100.5" ry="100.17"/></clipPath></defs><ellipse cx="1626.52" cy="163.03" fill="#fff" rx="38.82" ry="39.16"/><ellipse cx="227.47" cy="147.85" fill="#fff" rx="41.25" ry="41.61"/><path fill="#e6ddfe" d="M363.52,946.33c-81.66-101-130.93-204.84-151.29-328-13.85-83.84-3.79-216.16,48.93-286.66,72.1-96.41,222.3-128,348.1-99,40,9.21,78.85,23.61,120,26.46C801,264.05,869.06,233.68,935,208c82.27-32.08,168.41-58.19,257.7-66.62s182.34,1.66,262,38.65c142.86,66.37,223.83,212.83,230.49,356.37s-51.12,284-129,409.73H363.44"/><path fill="#d2c1fe" d="M1645,990.39c0,24.87-328.29,45-733.25,45s-728.5-20.63-733.25-45c-10.68-54.83,325.86-60.71,730.82-60.71S1645,945.35,1645,990.39Z"/><rect width="862.43" height="564.94" x="567.6" y="112.19" fill="#fff" stroke="#f2eeff" stroke-miterlimit="10"/><rect width="863.43" height="48.62" x="567.6" y="112.19" fill="#d2c1fe"/><circle cx="1329.53" cy="134.81" r="8.5" fill="#fff"/><circle cx="1362.53" cy="134.81" r="8.5" fill="#fff"/><circle cx="1395.53" cy="134.81" r="8.5" fill="#fff"/><rect width="862" height="20" x="567.53" y="160.81" fill="#dddde9"/><g clip-path="url(#a)"><polygon fill="#8192e7" points="798.44 456.19 726.99 456.19 706.95 509.84 778.17 509.84 798.44 456.19"/><path fill="#d0d03f" d="M620.69,340c-15.81,3.33-27.13,16.11-35.74,29.39a192.17,192.17,0,0,0-26.4,63.74c-1.72,7.94-4.86,17.16-3.29,25.4s8.3,15.61,15.88,19.61c7.85,4.15,17.31,3,24.49-1.09s12.44-10.71,17-17.56c8-11.89,10.94-25,17.26-37.92,7.78-15.87,19-31.95,21.18-49.9.94-7.73.66-18.64-6.12-24.64C637.88,340.79,629.49,338.18,620.69,340Z"/><path fill="#5e3417" d="M718.9,255.27a13.4,13.4,0,0,1,6.89-6.35c8-3.56,18.22-.5,23.63,6.44s6.06,17,2.36,25c-2.78,6-8.11,11-14.6,12.34s-13.9-1.79-16.63-7.81"/><path fill="none" stroke="#895f42" stroke-miterlimit="10" d="M751,270a10.08,10.08,0,0,1-1.19,5.55,21.81,21.81,0,0,1-5.84,8.22,10.91,10.91,0,0,1-9.5,2.36"/><path fill="none" stroke="#895f42" stroke-miterlimit="10" d="M744.49,271.83a7,7,0,0,1-3.38,3.2,21.28,21.28,0,0,1-4.51,1.41"/><path fill="none" stroke="#895f42" stroke-miterlimit="10" d="M746,262.47a17.44,17.44,0,0,0-11.45,2.65"/><path fill="none" stroke="#895f42" stroke-miterlimit="10" d="M742.52,254.75a10.15,10.15,0,0,0-6.71-1.51,22.93,22.93,0,0,0-6.71,1.93"/><path fill="#ffa987" d="M711.71,320.58l1.4,54.73-40.51,13.2,7.77-57.78s.78-9.48,5.26-13.63C691.76,311.41,710.64,310.32,711.71,320.58Z"/><path fill="#da7053" d="M677.25,350.49s12.72-5.91,16.88-12.37A32.32,32.32,0,0,0,699,325.54l-19.1,8.9Z"/><path fill="#6d4121" d="M666.11,264.75c.7-3.83,0-6.44,2.61-9.34s8.8-6.27,12.62-7.73c9.67-3.7,24.17-3.45,32.79,2.28,6.12,4.07,10.41,8.23,13.68,14.81a37.48,37.48,0,0,1,2.52,24.78c-1.73,7.4-12.51,34.8-17.66,40.4-5.84,6.35-4.91-9.92-13.54-9.84s-17.12-2.85-24.49-7.34a23.43,23.43,0,0,1-5.44-4.24,26.63,26.63,0,0,1-3.49-5.27,60.73,60.73,0,0,1-4.37-9.44,37.33,37.33,0,0,1,.82-26"/><path fill="none" stroke="#fff" stroke-miterlimit="10" d="M652.94,315.78a7.14,7.14,0,0,1,10.31,4.57,10.68,10.68,0,0,1-5.31,12.24"/><path fill="none" stroke="#fff" stroke-miterlimit="10" d="M657.94,332.59A7.14,7.14,0,0,1,647.63,328a10.68,10.68,0,0,1,5.31-12.24"/><path fill="#ffa987" d="M653.61,303.36C651.31,324,655,337,674.92,338.44c14.45,1.06,27-6.95,31.53-27.16,4.62-20.63-4.37-37.9-18.57-40.79C664.89,265.81,656.19,280.33,653.61,303.36Z"/><path fill="#6d4121" d="M694.57,279.34c-4.69,2.07-9.25,3.41-14.67,1.61a18.33,18.33,0,0,1-11.36-11.25,38.52,38.52,0,0,0-10.25,14.67,35,35,0,0,1-7.64-27.16c.36,2.27,1.32,4.63,3.3,5.82,3.5,2.1,5.47-1.31,7.45-3.52,3-3.37,8.06-5,12.5-5.19a27.82,27.82,0,0,1,16.68,5.34c4.89,3.4,9.36,8.17,15.28,8.73,2.86.28,6.23-.33,8.2,1.75a7.23,7.23,0,0,1,1.47,2.91,41,41,0,0,1,.48,22.46,34.83,34.83,0,0,1-4.48,10.69c-1.17,1.71-2.89,5.74-5.15,2.43-2.87-4.2,1.28-10.85-2-14.71-1.53-1.79-4.15-2.23-5.9-3.8a7.59,7.59,0,0,1-2.24-6,18.21,18.21,0,0,1,1.73-6.34C696.8,278.32,695.68,278.85,694.57,279.34Z"/><path fill="none" stroke="#fff" stroke-miterlimit="10" d="M706.32,320.94a7.15,7.15,0,0,1,10.32,4.57,10.7,10.7,0,0,1-5.31,12.24"/><path fill="#ffa987" stroke="#da7b5d" stroke-miterlimit="10" d="M704.87,308.83a11.31,11.31,0,0,1,9.3-6,9.13,9.13,0,0,1,8.35,4.22c1.6,2.82,1.2,6.35.13,9.41a13.31,13.31,0,0,1-4,6.19,11,11,0,0,1-6.92,2.17,13.83,13.83,0,0,1-11.44-6.56"/><path fill="none" stroke="#c07a49" stroke-miterlimit="10" d="M716.49,309.18a8.87,8.87,0,0,0-9.49,5.25l1.54-.78a7.24,7.24,0,0,1,4-1.13c1.39.15,2.73,1.5,2.33,2.84"/><path fill="none" stroke="#fff" stroke-miterlimit="10" d="M711.33,337.75A7.14,7.14,0,0,1,701,333.18a10.69,10.69,0,0,1,5.31-12.24"/><path fill="none" stroke="#895f42" stroke-miterlimit="10" d="M698.46,272.46a26.71,26.71,0,0,1-7,5.23,13,13,0,0,1-16.83-3.9,25.84,25.84,0,0,1-4.34-9"/><path fill="none" stroke="#895f42" stroke-miterlimit="10" d="M664.65,268.65a10.13,10.13,0,0,1-3,3.92,5.21,5.21,0,0,1-4.71.87A6.3,6.3,0,0,1,655,272.2a12.15,12.15,0,0,1-2.21-2.63"/><path fill="none" stroke="#895f42" stroke-miterlimit="10" d="M711.26,289.19a6.84,6.84,0,0,1-5.52,0,5.15,5.15,0,0,1-3-4.48"/><path fill="none" stroke="#895f42" stroke-miterlimit="10" d="M717.48,257a32.67,32.67,0,0,0-41.39-1.8"/><path fill="none" stroke="#895f42" stroke-miterlimit="10" d="M706,254.6a26.22,26.22,0,0,0-19.84,1.75"/><path fill="none" stroke="#895f42" stroke-miterlimit="10" d="M727.34,270.6a35,35,0,0,1-8.64,33.28"/><path fill="none" stroke="#895f42" stroke-miterlimit="10" d="M723.85,275.29a14.49,14.49,0,0,1,.4,7,33.54,33.54,0,0,1-4.14,12"/><path fill="none" stroke="#895f42" stroke-miterlimit="10" d="M717.83,267.07a17.77,17.77,0,0,1-7.2,8.53"/><path fill="none" stroke="#895f42" stroke-miterlimit="10" d="M713.6,264.81a11.76,11.76,0,0,1-5.47,2.92"/><path fill="none" stroke="#895f42" stroke-miterlimit="10" d="M666.93,255.84a37.79,37.79,0,0,1,43.21,22.88"/><path fill="#fff" d="M664.82,318.37c4.45,6.94,10.34,5.25,11.61-1.94Z"/><path fill="#ffa987" stroke="#d27854" stroke-miterlimit="10" d="M672.73,298.16a5.91,5.91,0,0,1-3,4.92,14.56,14.56,0,0,1-5.71,1.78,6.32,6.32,0,0,0,6.54,8"/><path fill="#3d2e2c" d="M664.26,296.24a2.1,2.1,0,1,0,2.14-2.06A2.1,2.1,0,0,0,664.26,296.24Z"/><path fill="#3d2e2c" d="M679.92,300.23a2.62,2.62,0,1,0,2.67-2.56A2.62,2.62,0,0,0,679.92,300.23Z"/><path fill="#6d4121" d="M670.24,289.55c.29.29.57.7.42,1.08s-.94.48-1.48.36a23,23,0,0,0-6.87-.44,3.63,3.63,0,0,1-1.47-.07,1.09,1.09,0,0,1-.77-1.12c.09-.5.63-.78,1.12-.94C663.81,287.54,668.12,287.53,670.24,289.55Z"/><path fill="#6d4121" d="M682.19,293.05c-.54-.07-1.23-.21-1.35-.74a1,1,0,0,1,.45-1,3.49,3.49,0,0,1,2.79-.27,16.86,16.86,0,0,1,6,2.67,4.59,4.59,0,0,1,2.09,2.67c.18,1-.32,1.69-1.2,1.2s-1.61-1.57-2.48-2.16A14.29,14.29,0,0,0,682.19,293.05Z"/><path fill="#ffa987" d="M745.69,360.34s-17.79-.17-22.81-3.66-12.44-8.52-16-9.82-29.63,3.63-29.63,3.63-17-1-24.43-2S632.47,342,632.47,342s-14.58,32-2.22,46.83,66.7,29,77.93,24.85,27.47-25,29.7-31.47S745.69,360.34,745.69,360.34Z"/><path fill="#fff8c1" d="M709.09,379.52c-8.83.78-17.74-.11-26.51-1.47-10.86-1.7-22.4-11.27-29.18-19.93.39,7.79,1.35,22.15,3.12,29.74,1,4.1,2.26,8.4,5.42,11.18a16.91,16.91,0,0,0,6.93,3.36c13.28,3.57,27.5-.7,39.6-7.22,5.35-2.88,15.38-8.39,17-14.87,1.1-4.31-2.1-4.41-5-3.28A41.6,41.6,0,0,1,709.09,379.52Z"/><path fill="#d0d03f" d="M733.35,359s-8.11,21.81-22.24,28.07S670,389.78,670,389.78s-12.23-15.66-12.52-23.39S661,347.26,661,347.26s-24.31-12.09-29.55-4-10.68,42-5,50.16,68.15,26.26,77.32,24.15,26.67-18.28,32.1-27.69,9.53-28.23,9.53-28.23Z"/><path fill="#d0d03f" d="M629.25,352.2c2.68,7.33,1.6,15.61-1.36,22.82s-7.65,13.57-12.36,19.79A52.29,52.29,0,0,0,609,405a39.41,39.41,0,0,0-2.84,12.19,154.55,154.55,0,0,0,0,24q1.44,26.1,4.53,52.09c.45,3.78.06,31,.91,34.72l127.59,2.39c11.82-33.49,9.06-74.86,16.08-114.15,2.89-16.19,4.1-33.65-3.26-48.36a14,14,0,0,0-4.47-5.69c-2-1.35-4.93-1.67-6.86-.18C734.08,367,729.53,380.8,723.13,386c-9.64,7.9-20.77,7.78-32.41,12.21a41.72,41.72,0,0,1-32-1.1,17.76,17.76,0,0,1-6.29-4.4A20.86,20.86,0,0,1,649,386a154.92,154.92,0,0,1-6.65-25.78c-.74-4.4-1.64-9.39-5.4-11.77a4.29,4.29,0,0,0-1.8-.7C632.7,347.44,630.28,349.92,629.25,352.2Z"/><path fill="none" stroke="#9f9647" stroke-miterlimit="10" d="M624.39,377.55C624,388.32,613.52,395.7,609,405.46c-3.78,8.1-3.31,17.44-2.76,26.36l3.63,59.25"/><path fill="#d0d03f" d="M761.84,365.4c13.41,10,19.34,27.13,22.61,43.55a214.07,214.07,0,0,1,1.87,72.34c-1.21,8.34-1.56,18.5-5.92,25.71s-13.15,11.33-21.56,11.89c-8.69.57-17-4.63-22.19-11.63s-7.7-15.61-9.5-24.13c-3.13-14.81-1.27-28.63-2.55-43.71-1.57-18.54-6.27-38.77-1.94-56.86,1.86-7.8,6-18.11,14.33-20.92C745.73,358.7,754.39,359.83,761.84,365.4Z"/><path fill="none" stroke="#9f9647" stroke-miterlimit="10" d="M728.07,486.7c-5-21.63,0-44.66-5.11-66.29"/><ellipse cx="675.45" cy="480.14" fill="#bbb158" rx="31.66" ry="19.07" transform="rotate(-89.52 675.399 480.147)"/><path fill="#ffa987" d="M691.61,452a187.42,187.42,0,0,1-25.69-7.14c-13.39-4.65-30.48-12.59-31.07-12.76C618.29,427.32,623,450,626,452.26s65.3,45.6,70.91,45.87S691.61,452,691.61,452Z"/><path fill="#d0d03f" d="M747.76,446.68a28.3,28.3,0,0,0-12-1.11c-5.69.53-9.8,2.76-15.45,3.22-9.75.79-12.5,1.44-17.52,1.36a156.86,156.86,0,0,1-24.45-2.59s14,7.58,7.69,38.89c-5.39,26.53-13.74,24.49-13.74,24.49s45.37,10.24,61,10.58c25.37.57,39.77-3.77,46.09-14.46,4.08-6.89,3.06-17.1,1.46-24.52-2.47-11.48-8.71-22.21-18.6-28.79A57.22,57.22,0,0,0,747.76,446.68Z"/><path fill="none" stroke="#9f9647" stroke-miterlimit="10" d="M749.54,448.24c-11.32-5.45-23.45-.22-26.53,0-17,1.4-25.66,2.47-44.47-.53"/><path fill="none" stroke="#9f9647" stroke-miterlimit="10" d="M770.07,515.4c-20.12,11-49.16,4.74-71.71.76-7.5-1.32-18.49-4.07-26-5.39"/><path fill="#ffa987" d="M572.93,332.19a8.53,8.53,0,0,0-1.91-3.57,7.86,7.86,0,0,0-2.8-1.48,42.68,42.68,0,0,0-13.33-2.4l-1.95,54.54c-.16,4.61.32,10.31,4.55,12.14,2.22,1,4.78.45,7.14-.08,4.39-1,8.84-2,12.8-4.11,11.29-6.05,8.6-13.55,5.5-23.91S576.47,342.5,572.93,332.19Z"/><path fill="#d0d03f" d="M550.36,370.45c-2,16.18-3.73,32.49-2.8,48.77.61,10.64,2.51,27.56,5.93,37.66,3.16,9.34,5.93,12,13.6,18.48,5.14,4.36,13.25,8.21,20,7.68,16.12-1.28,21.29-19.19,20.47-32.85-.52-8.69-3-17.13-5.43-25.48-4.85-16.54-9.6-33.11-14.54-49.63-1.19-4-1.34-5.4-5.5-5.06-3.37.28-6.82,2-10.26,2.48C570,372.73,549.88,372.6,550.36,370.45Z"/><path fill="#fffffd" stroke="#dcdde7" stroke-miterlimit="10" d="M603.35,327.91s-46.89-1.78-60.87-3.06c-13.7-1.26-21-1.4-21-1.4s7.75,76.24,9.21,90.08,10.25,23.63,10.25,23.63,3.25,7.25,19.62,10.55,49.86-.84,49.86-.84-6.22-56.31-6.21-69.5S603.35,327.91,603.35,327.91Z"/><polygon fill="#9c9cb9" points="535.55 344.62 592.13 345.32 592.45 341.16 535.85 340.63 535.55 344.62"/><path fill="#9c9cb9" d="M597.18,352.67c-17.57-.5-35.15-.82-52.72-1.25q-7.31-.18-14.61-.38c-1.93-.06-1.93,2.94,0,3,17.57.5,35.14.83,52.71,1.25q7.31.18,14.62.38c1.93.06,1.92-2.94,0-3Z"/><path fill="#9c9cb9" d="M561.29,361.69c-3.75,0-7.49-.24-11.23-.45-5.75-.32-11.5-.56-17.25-.68-1.93,0-1.93,3,0,3,5.75.12,11.5.36,17.25.68,3.74.21,7.48.45,11.23.45a1.5,1.5,0,0,0,0-3Z"/><path fill="#9c9cb9" d="M561.77,372.85c-9-.32-18-.5-27.08-.82-1.93-.07-1.92,2.93,0,3,9,.32,18.06.5,27.08.82,1.93.07,1.93-2.93,0-3Z"/><path fill="#9c9cb9" d="M563.2,386.43c-9.09.18-18.15-.31-27.24-.12-1.93,0-1.93,3,0,3,9.09-.19,18.15.3,27.24.12,1.92,0,1.93-3,0-3Z"/><path fill="#9c9cb9" d="M599.65,398.16,549.9,398l-13.49,0a1.5,1.5,0,0,0,0,3l49.75.16,13.49,0a1.5,1.5,0,0,0,0-3Z"/><path fill="#9c9cb9" d="M574.07,407.25c-11.52,0-23.05-.23-34.57-.27a1.5,1.5,0,0,0,0,3c11.52,0,23,.23,34.57.27a1.5,1.5,0,0,0,0-3Z"/><path fill="#9c9cb9" d="M574,417.55c-11.52,0-23-.23-34.57-.27a1.5,1.5,0,0,0,0,3c11.53,0,23.05.23,34.57.27a1.5,1.5,0,0,0,0-3Z"/><path fill="#e0e2ee" d="M543.73,429.09c3.28-.32,6.61-1.13,9.82-.4A36.28,36.28,0,0,0,560,447.44c-.34-.5-4.24-.83-5-1.06a31.41,31.41,0,0,1-5.07-2,32.66,32.66,0,0,1-8.67-6.36c-2.34-2.39-5-5.57-6.11-8.81-.93-2.8.59-1.27,2.44-.6A14.39,14.39,0,0,0,543.73,429.09Z"/><path fill="#9c9cb9" d="M570.06,377.55a14.14,14.14,0,1,0,16.85-10.76l-3,13.81Z"/><path fill="#c7c7da" d="M582.93,379.13l3.05-13.8a14.13,14.13,0,0,0-16.85,10.75"/><path fill="#ffa987" d="M569.75,326.56l-.07.31a27.45,27.45,0,0,1-2.58,5.93c-1,2-1.64,4-2.8,5.93a4.29,4.29,0,0,1-2.43,2.23,2.66,2.66,0,0,1-1.68-.27,2.09,2.09,0,0,1-.83-.64,2.94,2.94,0,0,1-.32-2,28.87,28.87,0,0,1,.85-3.68c-1.09,2.55-2.18,5.12-3.25,7.69-.41,1-.95,2.1-1.91,2.36a2.1,2.1,0,0,1-2-.75c-1.59-1.72-1.19-4.83-.6-7-.62,2.34-1.39,4.64-2.14,6.94a2.42,2.42,0,0,1-1,1.5,1.56,1.56,0,0,1-1,.08,3.83,3.83,0,0,1-2.37-1.6c-1-1.45-1.11-3.82-.9-5.58a29.07,29.07,0,0,0,.44-4.15c0-.74,0,2.69-2,2.4a4.77,4.77,0,0,1-2-1.76c-.72-2.13-.31-3.89.11-5.88A35.7,35.7,0,0,1,543.1,322a5.35,5.35,0,0,1,1.44-2.31c.71-.54,4.36-1.21,4.82-.45,2.07-1.92,3.5-2,6-1,2.45-1.79,7.3-.13,8.43,2.72C566.83,320.82,570.48,323.26,569.75,326.56Z"/><path fill="none" stroke="#d27854" stroke-miterlimit="10" d="M562.92,326.07c-1.07,2.87-2.14,5.73-3.2,8.6"/><path fill="none" stroke="#d27854" stroke-miterlimit="10" d="M555.64,325.76a44.54,44.54,0,0,0-4,13.13"/><path fill="none" stroke="#d27854" stroke-miterlimit="10" d="M549.44,323.11a42.21,42.21,0,0,0-4.35,11"/><path fill="#ffa987" d="M636.62,431.29c-5.42-7.33-11.13-14.92-19.27-19a58.54,58.54,0,0,0-11.3-3.91,103.93,103.93,0,0,0-12.66-2.88c-1.8,3.52,8.76,9.38,12.94,12-4-.77-10.38-1.58-14.35-2.35s-7.81,2.06-11.86,2.48a2.31,2.31,0,0,0-1.76.72,1.79,1.79,0,0,0,.14,1.88,5.93,5.93,0,0,0,4.16,2.35,31.24,31.24,0,0,1,4.83.82c-2.5.66-4.57,2-7.07,2.68-.7.19-1.5.45-1.76,1.13-.38,1,.7,1.93,1.69,2.35a11.78,11.78,0,0,0,6.74.71c-3,0-5.9,2-8.41,3.63.25,1.76,2.45,2.41,4.22,2.47a23.21,23.21,0,0,0,6-.58,85.55,85.55,0,0,0,16,5.4A57.49,57.49,0,0,0,618.56,453c3.41,2.16,7.64,4,11.39,2.46a11.49,11.49,0,0,0,5-4.64,27.28,27.28,0,0,0,4.34-12.24C639.55,436.16,638,433.21,636.62,431.29Z"/><path fill="none" stroke="#d27854" stroke-miterlimit="10" d="M607.39,425.57a31.08,31.08,0,0,0-18-1.41"/><path fill="none" stroke="#d27854" stroke-miterlimit="10" d="M605.42,431.94c-5.93-2.28-12.54-1.61-18.85-.87"/><path fill="none" stroke="#d27854" stroke-miterlimit="10" d="M613.62,420.19l-7.48-2.2"/></g><g clip-path="url(#b)"><path fill="#e78e36" d="M1104,339.55a29.25,29.25,0,0,1,26.75,5c6.88,5.56,10.81,14,13.56,22.37q-15.1,2.2-30.31,3.58c-9.67.87-20.69,2.85-30.32,1.77C1082.69,358,1089.66,344.11,1104,339.55Z"/><path fill="#ffb584" d="M1127.9,315l5.63,53.08L1088.6,385.3l7.57-57s.76-9.35,5.2-13.45C1107.46,309.24,1126.8,304.87,1127.9,315Z"/><path fill="#dc8352" d="M1092.18,353.6s16.54-4.83,24.81-17.23a40.14,40.14,0,0,0,5.51-13.1L1095.69,332Z"/><path fill="#915927" d="M1070.29,264.29a13.92,13.92,0,0,0-3,7.77c-.58,5.18.62,10.69,4,14.65s9.14,6,14.07,4.33a7.5,7.5,0,0,0,2.79-1.61,8.2,8.2,0,0,0,2.12-4.72c.68-4.44-.53-8.92-1.73-13.25C1086.4,263.8,1077.37,256.28,1070.29,264.29Z"/><path fill="#ffb584" d="M1073.6,310.63c-.24,20.43,7.52,28.72,27.2,28.2,14.29-.38,27.51-10.19,30-30.47,1-8.61,5.22-26.05,2.43-32.33-3.92-8.83-25.88-9.44-34.18-10.28C1076,263.42,1073.86,287.77,1073.6,310.63Z"/><path fill="#915927" d="M1075.31,251.41a38.87,38.87,0,0,0,7.68,23c2.82,3.77,6.47,7.09,10.93,8.6,5.38,1.82,11.3.82,16.79-.65,6.7-1.79,13.32-4.3,18.85-8.48a22.38,22.38,0,0,0,8-10.11c1.44-4.11,1-9-1.81-12.35a14.6,14.6,0,0,0-6.42-4.08,24.55,24.55,0,0,0-12.63-1c-2.41.44-4.83,1.25-7.25.93-3.11-.42-5.66-2.63-7.82-4.91-3.89-4.09-9.45-9.45-15.74-7.78C1078.46,236.58,1075.29,244.49,1075.31,251.41Z"/><path fill="#915927" d="M1128.2,288.31c.17,3.46-1.15,6.8-1.79,10.21-.94,5,0,10.94,4.43,13.42a3.61,3.61,0,0,0,3,.45,4.5,4.5,0,0,0,1.86-1.88,131.86,131.86,0,0,0,12.74-25.2,17.1,17.1,0,0,0,1.46-6.37,6.41,6.41,0,0,0-2.94-5.55,8.06,8.06,0,0,1-1.57-.89c-1.74-1.58,0-4.36.13-6.71.23-3.43-3.44-6.1-6.89-6.12s-6.59,1.79-9.55,3.55c-2.66,1.59-16.34,9.46-13.48,13.53.82,1.16,6.6,1.9,8.29,3.34A11.81,11.81,0,0,1,1128.2,288.31Z"/><path fill="none" stroke="#a45813" stroke-miterlimit="10" d="M1078.74,245.76h-.31a44.67,44.67,0,0,0,2.7,18.28c2.83,7,7.85,13.47,14.78,16.55s15.85,2.16,21.09-3.33"/><path fill="none" stroke="#a45813" stroke-miterlimit="10" d="M1086.86,259.26a14.44,14.44,0,0,0,17.33,14.29"/><path fill="none" stroke="#a45813" stroke-miterlimit="10" d="M1113.73,253.44c5.7-2.33,12.47-2.79,17.88.17a9.62,9.62,0,0,1,3.72,3.32,5.43,5.43,0,0,1,.54,4.82"/><path fill="none" stroke="#a45813" stroke-miterlimit="10" d="M1139.2,264a3.05,3.05,0,0,1,2,2.42,8.91,8.91,0,0,1-.15,3.29"/><path fill="none" stroke="#a45813" stroke-miterlimit="10" d="M1127.22,277.63a1.38,1.38,0,0,1,1.66.08,3.54,3.54,0,0,1,1,1.46,25.42,25.42,0,0,1,.33,19.83"/><path fill="none" stroke="#a45813" stroke-miterlimit="10" d="M1141.58,277.67a.68.68,0,0,1,.9-.46,1.63,1.63,0,0,1,.81.79c1.53,2.63.94,6-.14,8.83s-2.61,5.6-2.87,8.64"/><path fill="none" stroke="#a45813" stroke-miterlimit="10" d="M1075,265.84a8,8,0,0,0-4.25,4.4,13.48,13.48,0,0,0-.86,6.17,20.48,20.48,0,0,0,3,9.27"/><path fill="#ac611c" d="M1082.64,292.11a2.53,2.53,0,0,0,2.37,1.18,8.72,8.72,0,0,0,4.67-1.23,2.28,2.28,0,0,0,1.08-1.15,1.68,1.68,0,0,0-1.21-1.93,3.7,3.7,0,0,0-2.46.29C1085.81,289.79,1082.28,291.25,1082.64,292.11Z"/><path fill="#ac611c" d="M1110.62,293.77c.67.53,1.4,1.38,1,2.15s-1.21.71-1.92.63a12.05,12.05,0,0,1-5.4-2c-.25-.16-3.64-2.59-2.69-3.71S1109.14,292.58,1110.62,293.77Z"/><path fill="#fff" d="M1087.78,319.53c6.51,9.45,12.2,3.76,11.2-3Z"/><path fill="#ffb584" stroke="#d58854" stroke-miterlimit="10" d="M1093.56,298.92a5.87,5.87,0,0,1-2.44,5.13,14.6,14.6,0,0,1-5.43,2.31,6.23,6.23,0,0,0,7.21,7.15"/><path fill="#3d2e2c" d="M1085.05,297.87a2.07,2.07,0,1,0,1.9-2.23A2.07,2.07,0,0,0,1085.05,297.87Z"/><path fill="#3d2e2c" d="M1100.81,300.25a2.59,2.59,0,1,0,2.37-2.78A2.59,2.59,0,0,0,1100.81,300.25Z"/><path fill="#ffb584" stroke="#dc8f5b" stroke-miterlimit="10" d="M1126.14,306.23a11.14,11.14,0,0,1,8.54-6.78,9,9,0,0,1,8.61,3.32c1.84,2.61,1.8,6.12,1.06,9.22a13.1,13.1,0,0,1-3.35,6.47,10.78,10.78,0,0,1-6.57,2.81,13.65,13.65,0,0,1-11.87-5.31"/><path fill="none" stroke="#dc8f5b" stroke-miterlimit="10" d="M1137.58,305.43a8.73,8.73,0,0,0-8.79,6.09l1.42-.92a7.26,7.26,0,0,1,3.79-1.5c1.38,0,2.83,1.2,2.57,2.56"/><path fill="#ffa545" d="M1066.68,361.18s-13.87-7.38-34.46.1-75.88,111.13-80.28,122a21.87,21.87,0,0,0,6.63,24c8.27,6.84,26.93-.39,32.3-1.38,11-2,67.55-101.91,69.31-108.84S1073.18,367,1066.68,361.18Z"/><path fill="#ffb584" d="M1092,356.36s27.22-6.82,31.64-7.21,8.4.84,12.61,2.64,11.8,18.35,11.11,21.1-48.23,22.07-56.16,21-11.2-8.77-10.6-14.55S1092,356.36,1092,356.36Z"/><path fill="#fff" d="M1086,366.69s6.89,17.23,24.81,16.54c16.55-.64,29.64-9.65,29.64-9.65s4.78,40.35,3.77,46.36-13.86,116.43-13.86,116.43h-51.61Z"/><path fill="#ffa545" d="M1088.56,353.93s4.27,100.92,4.29,112.66-3,69.78-3,69.78h-70.74s10.34-101.75,11.72-112.48,8.15-64.95,23.43-66.16C1080.46,355.66,1088.56,353.93,1088.56,353.93Z"/><path fill="none" stroke="#a46f5d" stroke-miterlimit="10" d="M1033.64,395.56c-3.85,23.32-3.87,47.1-6.81,70.55-1.32,10.47-6.33,57.27-6.75,70.26"/><path fill="#e78e36" d="M1090.11,348.77s2.66,38.6,3.05,55.14,0,74.1,0,74.1-10.68-38.64-15.48-52.58-10.33-21.38-7.22-28a23,23,0,0,1,9.5-9.8s-14.32.95-17.25-2.76-.55-7.89,1.71-10.28S1090.11,348.77,1090.11,348.77Z"/><path fill="#ffa545" d="M1136.28,351.53s37,12,42.67,13,10.19,35.23,11.78,40,10.34,131.78,9.94,131.78h-73.35s11.91-98.29,13.41-107.82C1147.31,386.68,1136.28,351.53,1136.28,351.53Z"/><path fill="#e78e36" d="M1130.77,344.64s10.34,22.05,9.65,62c-.29,16.54-5.15,74.8-5.15,74.8s15.51-34.67,20.31-48.61,10.33-25.35,7.22-32-14.34-9.8-14.34-9.8,19.15.95,22.08-2.76-2.36-15.11-4.62-17.5S1130.77,344.64,1130.77,344.64Z"/><path fill="#ffa545" d="M1263.52,478.47c-6.37-15.76-15.18-30.88-23.35-45.74-11.89-21.65-23.92-48.77-45.48-62.46-6.6-4.19-14.61-6.7-22.3-5.28a3.87,3.87,0,0,0-2.16.94c-.49.51,4.24,9.91,4.07,10.59-8,32.63-3.18,50.76,11.81,79.17,6.61,12.53,13.35,25.06,20.88,37.07,2.7,4.31,8.24,16.21,14.06,17.28,5.37,1,27.57-.75,35.84-7.58A21.89,21.89,0,0,0,1263.52,478.47Z"/><path fill="none" stroke="#a46f5d" stroke-miterlimit="10" d="M1167.46,418.43l29.46,59.34"/><path fill="#ffb584" d="M1134.88,448.92a15.48,15.48,0,0,0-3.26-2.9,15.75,15.75,0,0,0-4.31-1.5l-27.1-6.59c-.19,0-.83-.35-1-.35a6,6,0,0,0,2.11,5.44,9.17,9.17,0,0,0,5.63,2.05c-2.23-.11-4.81,0-7-.07a.83.83,0,0,0-.42.05c-.27.15-.29.53-.24.83a6,6,0,0,0,5.92,5,30.16,30.16,0,0,0-5,1.49,4,4,0,0,0,3.07,2.89,38.56,38.56,0,0,0,4.43.55,39.94,39.94,0,0,1-5.93,3.13,4.12,4.12,0,0,0,2.69,3.75,10.42,10.42,0,0,0,4.84.52,51.94,51.94,0,0,0,7.46-1.06c1.37-.3,2.15,1.19,2.87,2.39a48.74,48.74,0,0,1,2.58,4.84c-.4.72-1.72.84-2.5.56a8.38,8.38,0,0,1-2.07-1.35,16,16,0,0,0-6.52-2.5,8.2,8.2,0,0,0-2.51-.2,3.14,3.14,0,0,0-2.18,1.15c-.18.26-.26.71,0,.81-.53.42-.25.75.06,1.35a12.65,12.65,0,0,0,3.12,3.45l10.42,8.93c6.06,5.2,13.1,7.92,20.75,10a19.4,19.4,0,0,0,8,.87,11.68,11.68,0,0,0,9-8c2.19-7-2.65-12.49-6.87-17.43Q1143.13,457.8,1134.88,448.92Z"/><path fill="#ffb584" stroke="#a95233" stroke-miterlimit="10" d="M1114.08,454.68l-.78.34a86.19,86.19,0,0,1,14.94-1.67"/><path fill="#ffb584" stroke="#a95233" stroke-miterlimit="10" d="M1119,461.7a43.4,43.4,0,0,1,6.35.22,52.87,52.87,0,0,0,5.05,10.4"/><path fill="#ffb584" stroke="#a95233" stroke-miterlimit="10" d="M1106.4,450q10.24.19,20.45,1"/><path fill="#ffb584" stroke="#a95233" stroke-miterlimit="10" d="M1108.49,444.63l11,2.14"/><polygon fill="#305c77" points="1126.32 510.13 1049.82 510.13 1022.57 412.18 1099.07 412.18 1126.32 510.13"/><path fill="#ffb584" d="M1028.77,486.42q-4.83-12.24-8.61-24.85c-.74-2.46-1.44-5.13-.6-7.55a11.94,11.94,0,0,1,3.7-4.69,96.55,96.55,0,0,1,23.44-15.21,3.94,3.94,0,0,1,2.57-.51,2.73,2.73,0,0,1,1.6,3.3,7.94,7.94,0,0,1-2.16,3.38L1038,452a99.93,99.93,0,0,1,18.43-8.36c1.68-.56,3.62-1,5.14-.13a3.18,3.18,0,0,1-1.72,5.91c1.47-.31,2.48-.24,3.39.94a2.78,2.78,0,0,1-.11,3.13,8.15,8.15,0,0,1-2.5,2.16c.91-1,2.6,1,2.61,2.33s-1,2.43-1.94,3.36a201.63,201.63,0,0,1-20.89,17.83c.95,3.69,3.42,7.63,1.85,11.11-1.28,2.83-5,3.93-8,2.87S1029.91,489.31,1028.77,486.42Z"/><path fill="none" stroke="#a95233" stroke-miterlimit="10" d="M1038.24,459.69l20.37-10.59"/><path fill="none" stroke="#a95233" stroke-miterlimit="10" d="M1041.45,467.27l17.61-10.22"/><path fill="none" d="M1066,372.7a79.91,79.91,0,1,0-27.75-23.76l-12.17,32.53,32.2-9.8"/></g><rect width="86" height="8" x="1221.03" y="305.55" fill="#b6dbfc"/><path fill="#48a4f7" d="M688.76,604.33l-6-4.45a32.39,32.39,0,0,0-.88-10.48l5.14-5.38a.62.62,0,0,0,.1-.71l-4.09-7.93a.61.61,0,0,0-.64-.33l-7.36,1.07a32.79,32.79,0,0,0-8-6.78l-.18-7.44a.6.6,0,0,0-.42-.57l-8.51-2.72a.62.62,0,0,0-.68.22l-4.45,6a32.39,32.39,0,0,0-10.48.88l-5.38-5.14a.61.61,0,0,0-.7-.1l-7.94,4.09a.64.64,0,0,0-.33.64l1.08,7.36a32.44,32.44,0,0,0-6.79,8l-7.44.17a.62.62,0,0,0-.57.43l-2.72,8.51a.62.62,0,0,0,.22.68l6,4.45a32.41,32.41,0,0,0,.88,10.48l-5.14,5.38a.61.61,0,0,0-.1.7l4.1,7.94a.62.62,0,0,0,.63.33l7.36-1.08a32.36,32.36,0,0,0,8,6.78l.18,7.45a.6.6,0,0,0,.42.57l8.51,2.72a.63.63,0,0,0,.68-.22l4.45-6a32.67,32.67,0,0,0,10.48-.88l5.38,5.14a.61.61,0,0,0,.7.1l7.94-4.1a.63.63,0,0,0,.33-.63l-1.07-7.36a32.79,32.79,0,0,0,6.78-8l7.44-.18a.6.6,0,0,0,.57-.42L689,605A.62.62,0,0,0,688.76,604.33Zm-17.29-.24a22,22,0,0,1-8.94,11.77,22.45,22.45,0,0,1-2,1.14,22.06,22.06,0,0,1-28.6-7.53,22.27,22.27,0,0,1-1.14-2l-.32-.64a22.14,22.14,0,0,1-1.27-3.31v0a.74.74,0,0,0,0-.14,2.33,2.33,0,0,0-.07-.25.54.54,0,0,1,.22-.58l.15-.06a.52.52,0,0,1,.64.36,21.08,21.08,0,0,0,18.44,15.47,20.82,20.82,0,0,0,11.52-2.25A20.29,20.29,0,0,0,662,615a21.05,21.05,0,0,0,7.18-27.25,21,21,0,0,0-36.57-1.44.52.52,0,0,1-.16.17.54.54,0,0,1-.56,0,.51.51,0,0,1-.17-.72,22.08,22.08,0,0,1,39.8,18.35ZM644.3,590.61a9,9,0,1,1-.78,12.68,11.2,11.2,0,0,1-.8-1A9,9,0,0,1,644.3,590.61Z"/><path fill="#48a4f7" d="M688.76,513.33l-6-4.45a32.39,32.39,0,0,0-.88-10.48l5.14-5.38a.62.62,0,0,0,.1-.71l-4.09-7.93a.61.61,0,0,0-.64-.33l-7.36,1.07a32.79,32.79,0,0,0-8-6.78l-.18-7.44a.6.6,0,0,0-.42-.57l-8.51-2.72a.62.62,0,0,0-.68.22l-4.45,6a32.39,32.39,0,0,0-10.48.88l-5.38-5.14a.61.61,0,0,0-.7-.1l-7.94,4.09a.64.64,0,0,0-.33.64l1.08,7.36a32.44,32.44,0,0,0-6.79,8l-7.44.17a.62.62,0,0,0-.57.43l-2.72,8.51a.62.62,0,0,0,.22.68l6,4.45a32.41,32.41,0,0,0,.88,10.48l-5.14,5.38a.61.61,0,0,0-.1.7l4.1,7.94a.62.62,0,0,0,.63.33l7.36-1.08a32.36,32.36,0,0,0,8,6.78l.18,7.45a.6.6,0,0,0,.42.57l8.51,2.72a.63.63,0,0,0,.68-.22l4.45-6a32.67,32.67,0,0,0,10.48-.88l5.38,5.14a.61.61,0,0,0,.7.1l7.94-4.1a.63.63,0,0,0,.33-.63l-1.07-7.36a32.79,32.79,0,0,0,6.78-8l7.44-.18a.6.6,0,0,0,.57-.42L689,514A.62.62,0,0,0,688.76,513.33Zm-17.29-.24a22,22,0,0,1-8.94,11.77,22.45,22.45,0,0,1-2,1.14,22.06,22.06,0,0,1-28.6-7.53,22.27,22.27,0,0,1-1.14-2l-.32-.64a22.14,22.14,0,0,1-1.27-3.31v0a.74.74,0,0,0,0-.14,2.33,2.33,0,0,0-.07-.25.54.54,0,0,1,.22-.58.47.47,0,0,1,.15-.06.52.52,0,0,1,.64.36,21.08,21.08,0,0,0,18.44,15.47,20.82,20.82,0,0,0,11.52-2.25A20.29,20.29,0,0,0,662,524a21.05,21.05,0,0,0,7.18-27.25,21,21,0,0,0-36.57-1.44.52.52,0,0,1-.16.17.54.54,0,0,1-.56,0,.51.51,0,0,1-.17-.72,22.08,22.08,0,0,1,39.8,18.35ZM644.3,499.61a9,9,0,1,1-.78,12.68,11.2,11.2,0,0,1-.8-1A9,9,0,0,1,644.3,499.61Z"/><path fill="#ffc022" d="M1229.38,508.71c-.64-40.12,31.33-73.28,71.26-73.93s72.95,31.47,73.59,71.59-31.32,73.29-71.26,73.93S1230,548.83,1229.38,508.71ZM1336.44,507a34.63,34.63,0,1,0-34.08,35.35A34.76,34.76,0,0,0,1336.44,507Z"/><path fill="#ff8d40" d="M1229.38,508.71c-.64-40.12,31.33-73.28,71.26-73.93l.61,38a34.79,34.79,0,0,0,1.11,69.58l.61,38C1263,580.94,1230,548.83,1229.38,508.71Z"/><path fill="#6484ed" d="M1294.14,428.94c46.72-.75,84,35.51,84.74,82.44l-44.22.72c-.35-22.44-17.43-36.57-39.77-36.21Z"/><g><rect width="86" height="8" x="810.03" y="314.55" fill="#b6dbfc"/><rect width="140.79" height="8" x="810.03" y="285.31" fill="#b6dbfc"/><rect width="140.79" height="8" x="1221.03" y="276.31" fill="#b6dbfc"/><rect width="219.3" height="8" x="714.03" y="497.31" fill="#b6dbfc"/><rect width="359" height="8" x="714.03" y="518.31" fill="#b6dbfc"/><rect width="219.3" height="8" x="714.03" y="586.31" fill="#b6dbfc"/><rect width="359" height="8" x="714.03" y="607.31" fill="#b6dbfc"/></g><g><rect width="307" height="219" x="1394.03" y="166.31" fill="#48a4f7"/></g><g><path fill="#fff" d="M1628.3,193.21l-8.09,42.29-13.82-8a176.7,176.7,0,0,1-12.88,14.22,221.34,221.34,0,0,1-22.73,19.19c-4,2.85-8.1,5.72-12.3,8.34s-8.46,5.14-12.73,7.63a300.57,300.57,0,0,1-54.24,23.36c-9.37,3-18.85,5.55-28.44,7.62-4.8,1-9.6,2-14.45,2.7s-9.7,1.42-14.59,1.74q27.85-9.15,54.51-20.16a500.65,500.65,0,0,0,51.84-24.86c4.14-2.37,8.32-4.69,12.35-7.24s8-5.1,12.06-7.68q11.85-8,22.91-17.06,6.49-5.42,12.62-11.31l-11.73-6.78,37.47-22.65,1-1.26c-.13.3-.27.6-.4.91Z"/></g><g><rect width="21.63" height="107.39" x="1618.71" y="260.55" fill="#fff"/><rect width="21.63" height="65.32" x="1570.42" y="302.62" fill="#fff"/><rect width="21.63" height="44.14" x="1520.98" y="323.8" fill="#fff"/><rect width="21.63" height="20.49" x="1469.22" y="347.45" fill="#fff"/></g><g><path fill="#ffb58c" d="M1574,886c7.45,4.48,15.69,10.09,17.18,18.64a29.3,29.3,0,0,1,0,7.6q-.89,10.29-1.78,20.57c-.31,3.53-.64,7.15-2.24,10.24a24.56,24.56,0,0,1-4.88,6c-6.66,6.51-14.29,12.89-23.65,13.89a2.9,2.9,0,0,1-1.7-.19c-1.26-.69-1.09-2.55-.63-3.88,1.51-4.4,4-8.37,5.39-12.82,4.2-13.25-1.64-27.8-3.41-41.87a6.26,6.26,0,0,1,.27-3.55,6.05,6.05,0,0,1,1.78-1.89l9.84-7.75"/><path fill="#515a8d" d="M1607.49,941.76c-.62-1.07-9.63-18.66-9.47-23s2.74-11.56,2.74-11.56L1584,892.63s2.89,21.13,1.72,26.08-3.3,17.58-8.78,22.17-18.56,7.87-18.56,7.87-7.36,19.93-6.11,22.06,5.56,2.48,5.56,2.48l36.18-26.6-.39-16.87,8.77,14.88Z"/><path fill="none" stroke="#262e60" stroke-miterlimit="10" d="M1602.22,944.82a152.79,152.79,0,0,0-7.69-13.44"/><path fill="#ffb58c" d="M1509.13,876l67.52,43.17s10-21.78,4.38-27-54.14-46.31-54.14-46.31Z"/><path fill="#e27423" d="M1416.46,741s33.35,13.3,37.19,18.77,91.26,79,91.26,79-9,23.59-19,32.49A80.74,80.74,0,0,1,1511,881.52s-93.85-52.83-137.82-86.71c-14-10.79-15-26.31-16.63-29.77C1349.59,750.68,1360.34,701.23,1416.46,741Z"/><path fill="#fff" stroke="#b5c0cb" stroke-miterlimit="10" d="M1557,602.1c-4.5-.12-6.54-7.68-10.21-6.29s-5.21,4-6.46,6.34q-45.72,87-91.45,173.9c-1.44,2.74-2.65,6.05,1,8.14,2.56,1.48,6.69,1.78,10.45,2a1361.63,1361.63,0,0,0,155.32-1c4.39-.28,9.13-.67,12.19-2.37a10.14,10.14,0,0,0,3.94-4.29c10.71-18.35,21.44-36.72,28.81-55.53,9.67-24.67,13.47-49.84,20.68-74.73,3.76-13,9.36-25.55,15.16-38.29,3.66-8,.36-7.33-14.7-8.61-12.3-1-60,.92-72.31.09C1581.17,599.56,1585.33,602.85,1557,602.1Z"/><path fill="#fff" stroke="#b5c0cb" stroke-miterlimit="10" d="M1419.53,957.66h222.66c23.17,34.56,39.8,62,40.06,62.34h16.89c-.39-.55-119.13-174.55-132.79-192.37-8.17-10.64-14.7-18.82-19.41-24.31-2.68-3.12-4.79-5.41-6.47-7s-6.26-5.93-12.22-3.42c-2.47,1.05-4.27,1.8-32.6,37.17-14.46,18-140.51,189.4-140.92,189.93h17.75C1387.1,1001,1403.24,979.49,1419.53,957.66Zm3.33-4.45c46.62-62.53,93.73-126.87,109.36-144.78,7.81,8.73,28,34.06,80.17,106.3,9.4,13,18.48,26.14,26.8,38.48Z"/><path fill="#e27423" d="M1633.88,685.81s14.89,60,11.83,83-12,23.83-23,27.45-119-11.75-126.85-32.12c-5.4-14,13.2-16.31,20.51-31.82,3.29-7-2.86-35.91-1.94-37.36,3-4.7,15.4-20.79,17-23.64S1633.88,685.81,1633.88,685.81Z"/><path fill="none" stroke="#4e60ac" stroke-miterlimit="10" stroke-width="1.6" d="M1540.59,696.45c-7.92,6-12.52,12.14-14.25,21.32"/><path fill="none" stroke="#894e1d" stroke-miterlimit="10" d="M1621.55,734.09c-.86-9.61-1-20-4.06-29.35"/><path fill="none" stroke="#894e1d" stroke-miterlimit="10" d="M1616.62,730c-17.5-2.32-21.78-13.84-23-22.72"/><path fill="none" stroke="#894e1d" stroke-miterlimit="10" d="M1629,703.58c-11.26,7.18-29.27,8.34-43.44,7.24-20.46-1.59-57.66-4.24-59.57-25.21"/><path fill="#e27423" d="M1521.72,693.15s-98.83,15.88-119.9,17.91-44,16.65-47.86,28.21-2,23.57,7.82,36.94,25.49,8.22,28.89,8.67,141.14,2.75,144.47-12.11C1535.73,770.16,1557.58,701.53,1521.72,693.15Z"/><path fill="#ffb58c" d="M1331.67,891.85l-33.32,70.5s22.92,13.65,27.93,7.55,39.47-63.06,39.47-63.06Z"/><path fill="#f78628" d="M1449.06,807.66l-93.25,131s-20.55-8-30.13-17.23c-6.74-6.51-14.74-17.1-14.74-17.1s58-112.64,86.23-156.6c7-10.89,16.52-12.34,19.31-13.91C1430.55,725.87,1485.82,749.36,1449.06,807.66Z"/><path fill="none" stroke="#894e1d" stroke-miterlimit="10" d="M1444.73,780.62Q1391.51,847,1344.52,918.14"/><path fill="none" stroke="#894e1d" stroke-miterlimit="10" d="M1310.94,904.29l64.53-121.83s4.21-7,7-12.18c6.76-12.38,17.43-30.54,28.69-34.36"/><path fill="#f78628" d="M1633.6,800.9c-10,15.67-23.12,11.4-29.46,11.27-37.26-.72-149.85-13.63-160-13.22-32.63,1.34-42.4-48.15-39.86-58.48s33.88-11.44,55.28-15.7c18.21-3.62,92-8.59,92.48-7.55C1561.73,740.46,1683.77,722.21,1633.6,800.9Z"/><path fill="none" stroke="#894e1d" stroke-miterlimit="10" d="M1621.18,739.76c1.92,12.7-6.44,25.3-17.35,31.77s-23.89,8-36.46,8.76c-23.95,1.41-89.41-6.57-113.06-2.37"/><path fill="none" stroke="#894e1d" stroke-miterlimit="10" d="M1540.9,717.55s-63.17,3.66-74.07,6.06-36,3-44.18,7.14-14.32,3.71-18.38,10.64"/><path fill="#ffb58c" d="M1327.16,968.9c-3.17,8.12-7.32,17.24-15.67,20.29a30.83,30.83,0,0,1-7.66,1.43l-21.06,2.11c-3.61.36-7.33.71-10.73-.28a24.73,24.73,0,0,1-6.9-3.66c-7.77-5.29-15.58-11.56-18.28-20.52a2.79,2.79,0,0,1-.12-1.71c.46-1.36,2.37-1.54,3.79-1.34,4.71.66,9.17,2.33,13.9,2.88,14.11,1.62,27.72-6.81,41.59-11.18a6.51,6.51,0,0,1,3.62-.41,6.06,6.06,0,0,1,2.23,1.4l9.6,8.17"/><path fill="#515a8d" d="M1277,1012.14c1-.81,17.06-12.91,21.49-13.58s12.15.52,12.15.52L1322.24,980s-20.76,6.78-26,6.56-18.31.07-23.93-4.43S1261,965.42,1261,965.42s-21.42-3.47-23.33-1.85-1.5,5.9-1.5,5.9l33.37,30.42,16.94-3.54-13.41,11.36Z"/><path fill="#4ae8f4" d="M1528.19,534.72c-7.06,9.45-17.67,37.88-19.06,45.37-4.39,23.76-8.48,36.78-12.76,60-.12.64,3.52,13.21,11.9,18.7,5.5,3.61,21.62-1.07,25.35-3.47s30.92-79.36,30.32-86.88c-.3-3.7-2.53-17.31-10.22-24.85C1544.73,534.74,1530,532.32,1528.19,534.72Z"/><path fill="#ffb58c" d="M1442.62,672.22c-5.52-2.44-11.56-4.9-17.32-2.53-2.67,1.09-5,3.15-7.54,4.8s-5.33,3-8,2.32a1.41,1.41,0,0,0-1.14,0c-.64.4-.6,1.56-.3,2.33a4.21,4.21,0,0,0,3.32,2.77c-3.85,1.14-5.88,3.82-8.88,7.16a11.47,11.47,0,0,0-2.85,4.93c-.45,2,0,4.28,1.37,5.2.7-.38,1.4-.76,2.09-1.15-.62.64-.47,2.27-.31,3.22a1.34,1.34,0,0,0,1.78,1,4.89,4.89,0,0,0,1.85-1.63c-1,.6,0,2.18.11,3.55a4.11,4.11,0,0,0,3.48-1.68c-.75.77-.33,3.66.45,4.25.42.31,1,0,1.43-.28a29.27,29.27,0,0,0,6.78-6.49c5-.18,10.44-2.75,14.89-5.77,3.2-2.16,6.48-4.51,8.69-8.13S1444.61,675.76,1442.62,672.22Z"/><path fill="#ffb58c" d="M1461.63,657.55s-26.32,14.56-26.13,15.54-5.84,15.77-5.48,17.73,32.09-4.29,32.85-4.74C1470.73,681.43,1461.63,657.55,1461.63,657.55Z"/><path fill="#4ae8f4" d="M1454.33,659.71a8.58,8.58,0,0,0-2.69,2.46c-.69,1.09,3.32,2.91,3.11,4.24-1.15,7.25,1,14.5,2.7,21.11.13.49-4.42.3-4.09.59a1.59,1.59,0,0,0,1,.3,54.76,54.76,0,0,0,10.08-.86q14.3-2.17,28.6-5.29c8-1.75,17.33-3.66,24.84-8.52s14.08-8.15,16.82-18.32c.75-2.76-1.5-26-5.34-29.45-8.25-7.32-19.69-4.54-25.78,3.8-3.34,4.58-7.55,6.26-11.87,8.36q-8.94,4.33-17.72,9.35Q1464.06,653.17,1454.33,659.71Z"/><path fill="none" stroke="#3ac0ce" stroke-miterlimit="10" d="M1515.29,642.44c-3.23-3.65-10.09-6.86-14.68-7.4,3.75,2.8,7.53,9.51,8.07,15.15" opacity=".49"/><path fill="none" stroke="#3ac0ce" stroke-miterlimit="10" d="M1498.52,634.17s-36,20.18-46.79,27.34" opacity=".49"/><path fill="none" stroke="#9f6e1f" stroke-miterlimit="10" stroke-width="1.6" d="M1531.83,661.89c-4.85,11-22.46,15.22-26.72,16.62-15.24,5-32.08,9.48-47.3,10"/><path fill="none" stroke="#9f6e1f" stroke-miterlimit="10" stroke-width="1.6" d="M1453.08,660.79c1.4,6.11,3.69,20.32,4.24,26.78"/><path fill="#4ae8f4" d="M1588.18,549.88l-10.39-4.17s-4.64-3.27-3.67-7.11-4.38-20-4.38-20-42,11-43.79,18.71-8.2,58.42-6.47,65c2.75,10.45,6.32,21.57,9,29.67,1.29,3.94,1.67,18.3,2.17,20.5,2.23,9.76-3.45,19.58,0,28.14,1.79,4.45,55.61,16.29,77.91,13.39s37.6-9.57,35.76-15.5c-2.84-9.19-10.88-35.81-11.83-43.9s32-58.61,35.19-66.16-11.12-32.44-22.29-38.06-40.59-17.15-40.59-17.15Z"/><path fill="none" stroke="#3ac0ce" stroke-miterlimit="10" d="M1533.77,554.76c-6,9.87-16.07,38.52-14.29,47.5a124,124,0,0,0,8.94,28.2s4.44,22.53.79,32.08-3.48,14.51,2.21,18.73" opacity=".49"/><path fill="#3ac0ce" d="M1635.43,579.53l-1.19,61.3,6.67,26a34.38,34.38,0,0,1-.48,8.65c-.74,4.42-2.55,10.79-4.25,11.6-1.2.57-4.27-15.89-5.62-15.27-5.54,2.55-11.8,5.22-14.78,5.71-22.8,3.8-29.52,13.05-39.94,9.88-1.37-.42-20.16,1.77-21.2,1.41-1.36-.47-23.77-7.7-26.89-11.71-3.23-6.6,4.77-21.15,4.77-21.15s50,7.07,62.58-12.72c2.93-4.6-3.59-32.18-.24-36.72C1606.66,590.54,1633.66,582.28,1635.43,579.53Z" opacity=".49"/><path fill="none" stroke="#9f6e1f" stroke-miterlimit="10" stroke-width="1.6" d="M1637.49,655.7q3.15,10.53,6.26,21a6.74,6.74,0,0,1,.4,3.54,7.06,7.06,0,0,1-2.87,3.5c-9,6.77-21,9.2-32.55,9.93-17,1.07-35.57,1.29-51.55-3.88"/><path fill="#ffb692" d="M1577,515.16s19.46-5.48,27.74-2,30.64,12.58,30.64,12.58-30.76,17.08-47.21,24.11-29.31-8.83-32.46-11.15-8.31-14.08-8.31-14.08Z"/><path fill="#4ae8f4" d="M1668,558.54c3.3,10.55,4.76,26.82,3.78,37.79-1.52,17-6.5,35.58-11.58,51.66-4.23,13.4-9.91,30.33-21.51,38.26-3.26,2.23-7.44.77-11.38.65s-7.6-2.1-10.63-4.55c-8-6.46-12.86-17.27-10.3-27.3.86-3.34,9.2-19.38,11.94-24.25s10.57-52.4,11.62-64.72c.37-4.32,8.9-8.61,9.91-12.86.81-3.44,2.86-10.26,6-12.29s7.51-2.55,10-.59C1662.21,545.22,1665.63,550.94,1668,558.54Z"/><path fill="none" stroke="#3ac0ce" stroke-miterlimit="10" d="M1630.54,573.1c-7.73,27.9-8.07,51.86-22.16,76.3" opacity=".49"/><path fill="#ffb58c" d="M1546.87,675s-36.53,9.54-36.34,10.52,1.72,14.19,2.1,16.15,35.25,0,36.31-.36C1559.87,698.16,1546.87,675,1546.87,675Z"/><path fill="#4ae8f4" d="M1529.81,676.31c-.51.49,2.63,2.25,5,7.58,2.22,4.9,3.65,13.13,4.62,19.34.08.52,4.93,1.16,9.53,1.24q19.53.38,39.1-.19c11-.31,21.35-1.12,31.82-4.52s19.68-11.55,24-20.91c1.17-2.54,1.71-18.76-3.29-22.71-10.78-8.5-24.49-11.92-33.23-4.91-4.79,3.85-5.21,5-11.19,6.28-8.25,1.77-23.14,5.71-31.27,7.93C1555.7,668,1530.84,675.36,1529.81,676.31Z"/><path fill="none" stroke="#9f6e1f" stroke-miterlimit="10" stroke-width="1.6" d="M1620.52,669.62c-4.16-4.07-13.28-8.36-19.48-9.67,4.92,3.35,9.66,10.48,10.07,16"/><path fill="none" stroke="#3ac0ce" stroke-miterlimit="10" d="M1598,656.89s-52.25,13.61-67.23,18.69" opacity=".49"/><path fill="none" stroke="#3ac0ce" stroke-miterlimit="10" d="M1639,687.35c-7.22,9.84-28.47,14.76-34.34,15.38-21,2.23-44.05,3.65-64.73,1.5" opacity=".49"/><path fill="none" stroke="#9f6e1f" stroke-miterlimit="10" stroke-width="1.6" d="M1529.81,676.31c4.76,3.23,9.11,20.61,9.48,27"/><path fill="#ffb692" d="M1604.73,471.89l4.44,61.75L1561,546l7.14-55.92s.58-9.18,5.81-13.16C1581.09,471.5,1603.05,461.93,1604.73,471.89Z"/><path fill="#de8469" d="M1565,518.62s8.9-3.26,20.19-16.35c5.17-6,6-17,6-17l-23.54,8.43Z"/><path fill="#b6c4f2" d="M1583,732.63l0-.37L1476.8,692,1375,701.51l-.07.39a7,7,0,0,0,3.6,7.56l104.6,39.94a7,7,0,0,0,4.19.76l89.59-11.49A7,7,0,0,0,1583,732.63Z"/><path fill="#a2b1ed" d="M1583,732.26l-110.4-45-97.94,14,109.39,42.48a6.4,6.4,0,0,0,3.79.7Z"/><polygon fill="#d7d7f9" points="1491.08 739.07 1395.08 703.71 1453.1 694.98 1549.1 732.45 1491.08 739.07"/><line x1="1532.94" x2="1476.59" y1="728.2" y2="733.74" fill="none" stroke="#a7a7d8" stroke-miterlimit="10" stroke-width=".25"/><line x1="1512.11" x2="1457.11" y1="719.95" y2="725.67" fill="none" stroke="#a7a7d8" stroke-miterlimit="10" stroke-width=".25"/><line x1="1494.22" x2="1439.29" y1="712.41" y2="720.56" fill="none" stroke="#a7a7d8" stroke-miterlimit="10" stroke-width=".25"/><line x1="1474.16" x2="1419.23" y1="703.57" y2="711.73" fill="none" stroke="#a7a7d8" stroke-miterlimit="10" stroke-width=".25"/><line x1="1503.74" x2="1415.95" y1="737.63" y2="703.56" fill="none" stroke="#a7a7d8" stroke-miterlimit="10" stroke-width=".25"/><line x1="1517.83" x2="1430.04" y1="734.7" y2="700.64" fill="none" stroke="#a7a7d8" stroke-miterlimit="10" stroke-width=".25"/><line x1="1533.76" x2="1445.97" y1="733.4" y2="699.33" fill="none" stroke="#a7a7d8" stroke-miterlimit="10" stroke-width=".25"/><polygon fill="#88a2ea" points="1512.83 715.25 1485.88 705.32 1502.17 702.87 1529.11 713.39 1512.83 715.25"/><path fill="#ffb58c" d="M1519,685.7l-18.59-3.81a8.62,8.62,0,0,0-3.53-.23c-1.25.26-7.13,4-8.13,4.74-5.72,4.45-6.45,5.58-11.76,10.52-.85.79-2.47,2.87-2.26,4,.18,1,2.3,1.2,3.28,1.29s1.83-1,2.77-1.35a22.9,22.9,0,0,0-3.1,3.9c-.4.78.49,2.66,1.35,2.77,2.55.34,4-1.41,5.54-2.72-.44.6-1.77,1.79-2.14,3.17-.32,1.19,2,2,3.16,2.15.85.11,3.36-1.06,5.62-2.57a5.86,5.86,0,0,0-1.52,2.33,2,2,0,0,0,1,2.4,2.58,2.58,0,0,0,1.69,0c2.64-.78,4.84-2.72,7.5-3.4a18.92,18.92,0,0,1,4.12-.37c5-.14,10.35-.92,14.18-4.18a13.37,13.37,0,0,0,4.2-13.23"/><path fill="none" stroke="#c9815d" stroke-miterlimit="10" d="M1497.73,687.16a56.29,56.29,0,0,0-6.39,2.6c-3.73,2.09-8.85,8.74-10.94,10.89"/><path fill="none" stroke="#c9815d" stroke-miterlimit="10" d="M1499.26,695.13a36.88,36.88,0,0,0-6.28,1.75c-1.81.63-6.73,5.15-9.84,9.06"/><path fill="none" stroke="#c9815d" stroke-miterlimit="10" d="M1500.05,702.14a21.08,21.08,0,0,0-4.58,2,42.24,42.24,0,0,0-5.24,4.3"/><path fill="#af622e" d="M1616.36,416.72c8-2.87,16.58,4.41,18.88,12.59s.38,16.85-.38,25.31.08,18,6.32,23.75c3.69,3.41,9.12,5.38,10.94,10.06,2.22,5.72-2.29,11.84-2.32,18-.06,10.53,13.14,16.54,23.45,14.42,10.93-2.26,20.08-10.47,25-20.46s6-21.57,4.79-32.65-5.93-23-16.25-26.88c-7.46-2.81-16.69-.84-22.91-5.81-3.93-3.14-5.56-8.23-7.67-12.79-4.86-10.54-14-19.81-25.44-21.68s-24.53,5.9-25.71,17.44"/><path fill="#ea448b" d="M1600.2,410.28l5-6s10.3,7.92,13.15,16.46l-9.15,1.53Z"/><path fill="#af622e" d="M1555.9,415s-38.44-15.81-32.83,12.6a36.2,36.2,0,0,0,18.85,24.86l19.06,10,15.23-33.12Z"/><path fill="#ffb692" d="M1539.73,465.64c-.32,24.5,4.44,41.67,29,40.9,17.86-.56,33.36-13.63,36.46-38,3.16-24.84-10-44-27.76-45.65C1548.69,420.31,1540.08,438.23,1539.73,465.64Z"/><path fill="#af622e" d="M1604.2,480.27c-6.44-7.84-3.43-21.86-3-32,0,5-36-4-51-18-8.14-7.59-17.46-4.76-19.87-15.63,2.23,5.26,9.3,6.65,14.81,5.14s10.25-5,15.61-7c10-3.65,30-6.24,39.44-1.49,18,9,24.45,33.35,20,43C1614.2,467.27,1610,475.78,1604.2,480.27Z"/><path fill="#7c3d33" d="M1577.39,448.68a14.3,14.3,0,0,1,4.54,5.52,3.69,3.69,0,0,0-.11-3,8.93,8.93,0,0,0-4.08-4.78c-1.87-1-5.87-1.49-7.15.72.8.6,2.1.11,3.08.19A7.92,7.92,0,0,1,1577.39,448.68Z"/><path fill="#7c3d33" d="M1550.07,446.35a6,6,0,0,1,5.83,1.66,5.92,5.92,0,0,0-5-3.77c-1.85-.18-6.79,1.29-6.74,3.88C1544.23,450.15,1548.79,446.64,1550.07,446.35Z"/><path fill="none" stroke="#d17254" stroke-miterlimit="10" stroke-width="2" d="M1560.14,458.2a6.68,6.68,0,0,1-2.77,5.86,16.38,16.38,0,0,1-6.19,2.66,7.12,7.12,0,0,0,8.25,8.15"/><path fill="#ffb692" d="M1601.89,458.12a12.19,12.19,0,0,1,9.34-6.84c3.49-.51,7.34.6,9.36,3.21s1.93,6.08,1.1,9.17a12.92,12.92,0,0,1-3.67,6.48,12.51,12.51,0,0,1-7.18,2.87c-4.91.44-7.7,6.84-10.64,3.26"/><path fill="none" stroke="#db8e5b" stroke-miterlimit="10" d="M1614.35,457.2c-4.19-.26-8.42,2.45-9.6,6.15l1.55-.93a8.4,8.4,0,0,1,4.13-1.53c1.51,0,3.08,1.17,2.79,2.52"/><path fill="#834a23" d="M1544.16,430.94a16,16,0,0,0-7.29,17.89.5.5,0,0,0,1-.26,15,15,0,0,1,6.83-16.77.5.5,0,0,0-.5-.86Z"/><path fill="#834a23" d="M1547.33,423.77a45.52,45.52,0,0,0,16.36,14.32c7.25,3.91,15.24,6.18,23.29,7.77,4.85.95,9.73,1.67,14.61,2.39.63.09.91-.88.27-1-8.5-1.24-17-2.5-25.28-5a59.71,59.71,0,0,1-20-10.07,40.47,40.47,0,0,1-8.34-8.94c-.36-.53-1.22,0-.86.5Z"/><path fill="#834a23" d="M1621.84,417.27c7.45-1.39,14.46,4.15,17.41,10.63,3.7,8.15,1.92,17.36,0,25.7-.82,3.53-1.56,7.23-1,10.86a10.73,10.73,0,0,0,1.76,4.63,11.41,11.41,0,0,0,4,3.39c3.18,1.72,7,2.66,9.15,5.77,2,2.91,2.27,6.64,2,10.07-.59,7.22-4.31,14.93-1.18,22a11.67,11.67,0,0,0,1.39,2.33c.39.51,1.26,0,.87-.5-5-6.47-1.16-15.17-.24-22.31.44-3.47.45-7.18-1-10.44a10.56,10.56,0,0,0-3.17-4,23.93,23.93,0,0,0-4.85-2.63,17.65,17.65,0,0,1-4.76-2.75,9,9,0,0,1-2.71-4.56c-.94-3.64-.16-7.56.65-11.15a82,82,0,0,0,2.21-12.83,30.65,30.65,0,0,0-1.76-13.05c-2.58-6.57-9-12.35-16.32-12.39a13.17,13.17,0,0,0-2.66.25c-.63.12-.37,1.08.26,1Z"/><path fill="#834a23" d="M1691.05,451.89a48.61,48.61,0,0,1,7.65,25.7,48.24,48.24,0,0,1-16,36.06c-.48.44.23,1.14.71.71a49.61,49.61,0,0,0,14-21.81,48.9,48.9,0,0,0,.68-26.87,49.41,49.41,0,0,0-6.21-14.29c-.35-.54-1.22,0-.87.5Z"/><path fill="#834a23" d="M1571.57,434.58a70,70,0,0,0,23.15,8.53c2.3.4,4.63.69,7,.87.64,0,.64-1,0-1a68.93,68.93,0,0,1-23.5-6.08,66.76,66.76,0,0,1-6.11-3.18.5.5,0,0,0-.5.86Z"/><path fill="#3d2e2c" d="M1545.91,455.39c-.37,2.21.58,4.15,2.11,4.34s3.07-1.44,3.44-3.65-.58-4.16-2.11-4.35S1546.27,453.18,1545.91,455.39Z"/><path fill="#3d2e2c" d="M1570.15,458c-.5,2.06.38,4,2,4.36s3.3-1,3.81-3.11-.38-4-2-4.36S1570.66,455.92,1570.15,458Z"/><path fill="#fff" d="M1569.28,478.32s-12.14,7.75-17.33,5.27c0,0,3.09,7.81,7.06,7.59C1567.4,490.72,1569.28,478.32,1569.28,478.32Z"/><path fill="#d9e0f4" d="M1358.21,585.34l109,39.42a.72.72,0,0,1,.43.54l21.49,115.1a1,1,0,0,1-.58,1l-1,.44a.87.87,0,0,1-.69,0l-107.15-46.64a.72.72,0,0,1-.42-.52l-25-108.62a1,1,0,0,1,.8-1.09h0A5.81,5.81,0,0,1,1358.21,585.34Z"/><path fill="#88a2ea" d="M1354.59,585.6l110.46,40.06a.75.75,0,0,1,.44.54l18.85,117.65-106.55-42.61Z"/><path fill="#d9e0f4" d="M1422.29,662.09c1.13,5.11-1.23,9.14-5.28,9s-8.25-4.4-9.39-9.51,1.23-9.13,5.28-9S1421.15,657,1422.29,662.09Z"/><path fill="#fff" stroke="#b5c0cb" stroke-miterlimit="10" d="M1444.13,783.63h232.56a0,0,0,0,1,0,0v20.15a16.55,16.55,0,0,1-16.55,16.55h-216a0,0,0,0,1,0,0V783.63A0,0,0,0,1,1444.13,783.63Z" transform="rotate(-180 1560.41 801.98)"/><path fill="#fff" stroke="#b5c0cb" stroke-miterlimit="10" d="M1677.83,820.3l-233.7,0S1557,804.2,1593.51,796.59c53.28-11.11,47.35-39.65,53.21-62.71L1676.1,618.3c2.43-9.55,15.58-16.57,31-16.57h0Z"/></g><g><path fill="#7dbeea" d="M389.33,598.47c.31,1.11,12.31,159.69,8.41,163.66s-21.67,38.41-38,27.92S332,789.85,325.9,773s-22.26-190.84-22.84-216C302.65,539.45,381.8,571.75,389.33,598.47Z"/><polygon fill="#e88a5d" points="341.92 963.97 344.86 996 371 996.02 371 936.15 341.92 963.97"/><path fill="#7dbeea" d="M392.3,751.43c4.33,3.29,4.71,13.43,4.71,13.43L385.55,973.31,337,980.23S322.56,787.53,324.86,775,356.5,724.19,392.3,751.43Z"/><path fill="none" stroke="#fff" stroke-miterlimit="10" d="M339.8,775.33c-.92,27.59,7.79,177,11.3,190.3"/><path fill="#7dbeea" d="M326.72,632.71c.14,1.08,2.43,136.09-10.69,155.71-3,4.5-28.26,7.66-42.73-5.46s-26.05-.84-29.49-17.36,1.09-167,4.31-189.77C250.36,560,323.33,607,326.72,632.71Z"/><path fill="none" stroke="#fff" stroke-miterlimit="10" d="M276,598.19c-11.85,5.31-7.26,88.18-6.36,133.47"/><path fill="none" stroke="#2b6a8e" stroke-miterlimit="10" d="M326.94,649.74s-1.1,105.92-5.85,122.12"/><polygon fill="#e88a5d" points="221.68 941.06 214.29 995.39 239.54 1003 260.08 939.26 221.68 941.06"/><path fill="#7dbeea" d="M315,777.33c3.47,4.54,1.58,14.33,1.58,14.33l-55.8,187.76-51.55-12s28-193,33-204.27S286.27,739.77,315,777.33Z"/><path fill="none" stroke="#fff" stroke-miterlimit="10" d="M258.62,783.18c-7.05,26-31.52,167.06-31.07,180.86"/><line x1="260.78" x2="314.49" y1="979.42" y2="797.06" fill="none" stroke="#2b6a8e" stroke-miterlimit="10"/><path fill="#504eaf" d="M342.69,989.65l4.59-2.37s1.72,6.07,4.74,7.24,19.08,1.21,19.08,1.21l4-11.51c-2.53.38,1.44,8.85,4.7,12.39s30.93,12.91,34.76,13.07,5.07,15,2.45,17.08-32.34,2.81-37.25,1.59-28.42-1.15-34.87-1.24-9.46-2-9.26-9.55S342.69,989.65,342.69,989.65Z"/><path fill="#504eaf" d="M212.88,990.59l4.47-2.24s2.24,6.1,5.41,7.34,19.18,1.11,19.18,1.11,4.41-9,4.32-9.76,1.38,7.9,5,11.52,32.52,13.72,36.43,14,6.38,15.09,3.88,17.08-32.67,1.9-37.75.54-29-1.93-35.58-2.2-9.79-2.29-10.19-9.77S212.88,990.59,212.88,990.59Z"/><path fill="#7dbeea" d="M373.23,615.9,377,642s-53.46,26.63-59.9,25-64-31.3-68.9-43-3.54-27.5,0-33.48S373.23,615.9,373.23,615.9Z"/><path fill="none" stroke="#2b6a8e" stroke-miterlimit="10" d="M328,618.88l-2.61,29c-.23,2.53-.49,5.15-1.79,7.32s-4,3.74-6.38,2.94"/><path fill="none" stroke="#2b6a8e" stroke-miterlimit="10" d="M351.82,622.1c.71,4.84,1.45,9.78,3.64,14.16s6.11,8.2,11,9"/><path fill="none" stroke="#2b6a8e" stroke-miterlimit="10" d="M267.8,631.76c11.65.3,22.66-9.51,23.71-21.12"/><path fill="none" stroke="#fff" stroke-miterlimit="10" d="M265.82,603.59a182.93,182.93,0,0,0-2.58,27.53"/><path fill="#4a90ff" d="M399.21,490c7.27-2.13,16.19-6,23.19-9.07,13.78-6,61.3-25.89,71.74-32.49,6.41-4.05,17.19-34,11.26-38.18-2.61-1.82-19.11-4.65-32.63-3.31-29.8,3-85.14,28.88-88.93,31.28-8.19,5.17-14.42,11.41-16.39,24.69-1,6.86,13.06,16,17,22.26S393,491.83,399.21,490Z"/><path fill="#f8ab84" d="M566.44,398.69S587,388,587.2,386s-4.26-16.78-7-17.32-28,7.4-33.55,9.37C542.42,379.52,566.44,398.69,566.44,398.69Z"/><path fill="#4a90ff" d="M575,398.9s-3.32-13-6.55-18.59-9.56-10.26-9.56-10.26c-2.57-1.91-21.4,7-24.34,8-14.95,5.36-29.4,10.95-43.89,17.71-10.69,5-21.85,10.36-29.33,19.9s-18.64,13.93-10.63,21.73c6.15,6,10.19,19.91,18.93,18.83,20.32-2.51,49-20.7,66.16-32.14C548.22,415.78,561.35,404.75,575,398.9Z"/><path fill="#4a90ff" d="M318.37,378.24c-8.21-.84-17.42-.21-23.24,5.64-7.54,7.57-6,20-3.94,30.45q4.49,22.76,9,45.51c.71,3.61,1.47,7.33,3.52,10.38,4.49,6.68,14,8.19,21.78,6s14.28-7.3,21-11.68c8.44-5.46,17.56-10,25.28-16.42,6.18-5.16,15.14-15.07,15.14-23.78s-9.7-16.9-15.59-22.23A94.07,94.07,0,0,0,318.37,378.24Z"/><path fill="#367add" d="M312.68,391.9c2.14-2.76,6.09-3.52,9.53-2.89s6.54,2.38,9.71,3.86c12.17,5.73,26.78,8.31,35.1,18.88,3.71,4.71,5.7,10.54,7.26,16.33a2.82,2.82,0,0,1,.06,1.94c-.42.88-1.55,1.09-2.51,1.18-13.35,1.22-33.24.75-45-6.83C319.65,419.7,306.33,400.09,312.68,391.9Z"/><path fill="#ffb483" d="M383,424.71l-77.88-17.8s45.53,58.57,55.77,58.57S383,424.71,383,424.71Z"/><polygon fill="#f4f1eb" points="327.57 423.54 379.08 436.51 364.29 475.91 327.57 423.54"/><path fill="#4a90ff" d="M319.5,410.89s-12.43-9-23.43-3.33-19.64,15.55-19,35.34c1.17,38.78-16.85,106.8-33.09,140.93C237,598.39,241.17,607,260.2,612.08c52.95,14.27,114.81,20.73,126.09,17.13s.25-37.67.3-37.78S400.39,489.61,402,478.6c1.49-10.35,2.07-45.72-11.24-52.45-2.89-1.46-13.12-11.42-16.25-5.55-4.66,8.73-8.77,35.13-13,34.77C354.48,454.75,319.5,410.89,319.5,410.89Z"/><path fill="none" stroke="#2b4f82" stroke-miterlimit="10" d="M401.63,464.78a625.35,625.35,0,0,1-13.28,107.85"/><path fill="none" stroke="#2b4f82" stroke-miterlimit="10" d="M295.55,584.07a95.1,95.1,0,0,0,18.9-42.31"/><path fill="none" stroke="#2b4f82" stroke-miterlimit="10" d="M374.7,547.8a74.23,74.23,0,0,0,4.22,50.65"/><path fill="#f8ab84" d="M590.21,391c4.64-2.47,9.93-5,9.93-5l4.57-2.52a5.25,5.25,0,0,1,.08,1.05,4,4,0,0,0,.33,1.93c.62,1.09,2.14,1.29,3.38,1a7.64,7.64,0,0,0,5.65-5,7.53,7.53,0,0,0-1.44-7.09,5.31,5.31,0,0,0-.34-2.12c-1.69-4.61-8.63-6.28-8.63-6.28l1.48-1.1s5.55-1.38,11.66,5.9a5.86,5.86,0,0,0,3.59,2.08,3,3,0,0,0,2.47-.58c1.73-1.53,1.1-3.15-2.65-7.75s-8.9-7.8-12.89-7.63a40.27,40.27,0,0,0-5.54.49s12.76-10.74,13.54-11.45c2.26-2.06,3.22-4.79,2-6.42-.8-1-2.57-1.78-5.28.54-2.33,2-28.92,19.54-28.92,19.54L571.89,369l-8.19,8.47,10.47,15.11,5-.1A16.32,16.32,0,0,0,590.21,391Z"/><path fill="#f8ab84" d="M574.56,370.35c.78,1.63,2.93,2.15,4.72,1.85s3.44-1.18,5.2-1.6c5.29-1.27,11,1.75,16.19.24.72-.21,1.55-.7,1.5-1.45s-.82-1.07-1.48-1.31L583.8,361.9"/><path fill="#f8ab84" d="M583.8,361.9a7.57,7.57,0,0,1,1.9.49c1.19.37,2.92.94,5,1.66l7.43,2.6,2.14.77c.66.29,1.66.38,2.26,1.47a1.49,1.49,0,0,1-.35,1.65,3.14,3.14,0,0,1-1.27.75,11.6,11.6,0,0,1-2.61.45c-3.57.2-6.76-.75-9.66-.94a13.45,13.45,0,0,0-4,.2c-1.23.27-2.37.75-3.46,1.09a6.41,6.41,0,0,1-5.36-.2c-1.14-.73-1.28-1.55-1.24-1.54a5.12,5.12,0,0,0,1.43,1.19,6.19,6.19,0,0,0,4.94-.14c1-.36,2.16-.88,3.49-1.22a14.25,14.25,0,0,1,4.32-.32c3,.16,6.22,1.07,9.52.87a10.59,10.59,0,0,0,2.36-.41c.72-.22,1.22-.7,1-1s-.94-.69-1.67-.95l-2.13-.8-7.35-2.8c-2.08-.81-3.77-1.49-4.92-2A7.07,7.07,0,0,1,583.8,361.9Z"/><path fill="#f8ab84" d="M603.53,366.87a7.52,7.52,0,0,1,3.16-1.26,5.74,5.74,0,0,1,3.49.81,14.69,14.69,0,0,1,3.45,3,23.2,23.2,0,0,0,3.4,3.28,7.46,7.46,0,0,0,3.62,1.5,3,3,0,0,0,2.49-.89,1.79,1.79,0,0,0,.49-.84c-.06,0-.23.26-.67.65a2.82,2.82,0,0,1-2.26.62,7.49,7.49,0,0,1-3.31-1.53,25.38,25.38,0,0,1-3.27-3.23,14.4,14.4,0,0,0-3.64-3.06,6.12,6.12,0,0,0-3.85-.75,5.37,5.37,0,0,0-2.44,1C603.7,366.56,603.5,366.84,603.53,366.87Z"/><path fill="#f8ab84" d="M616.26,346.13a18.29,18.29,0,0,0-2.55,2.12l-6,5.25-6.09,5.17a17.72,17.72,0,0,0-2.47,2.21,15.17,15.17,0,0,0,2.77-1.85c1.64-1.22,3.86-3,6.23-5s4.44-4,5.89-5.41A15.15,15.15,0,0,0,616.26,346.13Z"/><path fill="#f8ab84" d="M603.14,372.15a4.61,4.61,0,0,0,.92.48,3.08,3.08,0,0,1,1.77,1.85,1.63,1.63,0,0,1-.48,1.55,9.25,9.25,0,0,1-1.74,1.29,3.69,3.69,0,0,0-1.73,2,3.15,3.15,0,0,0,.66,2.77,3.61,3.61,0,0,0,2.57,1.23,4.57,4.57,0,0,0,2.57-.58,14.46,14.46,0,0,0,3.2-2.82,8.59,8.59,0,0,0,1.53-2.43,1.87,1.87,0,0,0,.17-1,9.78,9.78,0,0,0-.41.93,10.25,10.25,0,0,1-1.64,2.22,15.63,15.63,0,0,1-3.16,2.61,3.57,3.57,0,0,1-4.31-.55,2.5,2.5,0,0,1-.55-2.18,3.1,3.1,0,0,1,1.44-1.66,8.78,8.78,0,0,0,1.81-1.43,2.12,2.12,0,0,0,.53-2,3.21,3.21,0,0,0-2.12-2A2.57,2.57,0,0,0,603.14,372.15Z"/><path fill="#f8ab84" d="M605.32,382.78s-.35.13-.66.68a2.86,2.86,0,0,0,0,2.57,3.86,3.86,0,0,0,3.25,2,6.34,6.34,0,0,0,4.4-1.62,7.54,7.54,0,0,0,2.45-4,7.2,7.2,0,0,0-.14-3.79,6.76,6.76,0,0,0-1.18-2.26c-.38-.46-.65-.66-.68-.64a12,12,0,0,1,1.41,3,7.12,7.12,0,0,1,0,3.53,7.31,7.31,0,0,1-2.29,3.61,5.9,5.9,0,0,1-3.94,1.52,3.44,3.44,0,0,1-2.86-1.63,2.68,2.68,0,0,1-.15-2.24C605.1,383,605.36,382.82,605.32,382.78Z"/><path fill="#f8ab84" d="M589.33,381.38s-.26-.57-1.06-1.19a6.37,6.37,0,0,0-3.87-1.25l.24.53a19.85,19.85,0,0,0,1.45-1.72c2.63-3.52,3.2-7.12,3-7.11s-1,3.34-3.57,6.72a20.32,20.32,0,0,1-1.38,1.68l-.5.56.75,0a6.56,6.56,0,0,1,3.62.95C588.86,381,589.26,381.44,589.33,381.38Z"/><path fill="#f8ab84" d="M611.09,363.16c-.16-.07-.64,1.2-.16,2.71s1.59,2.27,1.69,2.13-.66-1-1.06-2.33S611.28,363.2,611.09,363.16Z"/><path fill="none" stroke="#994d33" stroke-miterlimit="10" d="M585,362.45l18.4,5.46c-.17,2-2.37,3.16-4.36,3.36-3.84.4-7.67-1.43-11.51-1a49.73,49.73,0,0,0-5.34,1.36,7.18,7.18,0,0,1-5.36-.45"/><path fill="none" stroke="#994d33" stroke-miterlimit="10" d="M590.09,382a10.57,10.57,0,0,0-6.15-2.06c2.11-1.84,3.84-4.2,3.87-7"/><path fill="none" stroke="#994d33" stroke-miterlimit="10" d="M612.91,376.15a8.13,8.13,0,0,1-2.17,3.42,10.66,10.66,0,0,1-3.9,2.95,4.34,4.34,0,0,1-4.6-.76,2,2,0,0,1-.59-1.91c.71-2.31,2.56-3.54,4.22-5.31a9.64,9.64,0,0,0-2-2.62"/><path fill="none" stroke="#994d33" stroke-miterlimit="10" d="M604.35,384.3a3.5,3.5,0,0,0,2.88,3.81,4.44,4.44,0,0,0,1.41-.05,7.59,7.59,0,0,0,5.43-3.73,6.23,6.23,0,0,0-.3-6.46"/><path fill="none" stroke="#994d33" stroke-miterlimit="10" d="M603.11,366.85l7-1.23"/><path fill="none" stroke="#994d33" stroke-miterlimit="10" d="M609.94,364.28c-.55,3,4.52,6.67,8,9.14,1.14.82,2.64,1.52,3.91.92s1.74-2.5,1.78-4.06"/><path fill="none" stroke="#994d33" stroke-miterlimit="10" d="M599.3,360.51a52.91,52.91,0,0,0,18.09-16.57"/><path fill="#ffb483" d="M364.26,390l3.56,33.28-43.9-8.13,13-42.49s18.06,2,18.88,1.9S364.26,390,364.26,390Z"/><polygon fill="#da835e" points="363.71 386.69 365.99 406.32 338.27 385.89 343.59 367.29 363.71 386.69"/><path fill="#fff" d="M391.91,347.3a8.54,8.54,0,0,1,2.35.32,9.09,9.09,0,0,1,5.67,4.71,11,11,0,0,1,.77,8.06c-1.3,4.69-5.3,8-9.74,8a9,9,0,0,1-2.36-.32,9.15,9.15,0,0,1-5.67-4.71,11,11,0,0,1-.77-8.06c1.3-4.69,5.31-8,9.75-8m0-3a13.45,13.45,0,0,0-12.64,10.15c-2,7.24,1.82,14.61,8.53,16.47a11.85,11.85,0,0,0,3.16.43,13.45,13.45,0,0,0,12.63-10.16c2-7.23-1.81-14.6-8.53-16.46a11.83,11.83,0,0,0-3.15-.43Z"/><path fill="#ffb483" d="M393.6,368.67c-1.21,4.57-2.45,9.12-3.8,13.66-2.19,7.41-5.12,15.34-11.72,19.38A22.31,22.31,0,0,1,366,404.58a33.16,33.16,0,0,1-17.23-5.26,21.92,21.92,0,0,1-6-5.45,23.77,23.77,0,0,1-3.67-9,76,76,0,0,1-1.21-16.92c.12-8.77.66-17.61,3.06-26.05s6.8-16.49,13.58-22.05a20.5,20.5,0,0,1,10-4.83c4.4-.62,8.81.77,13,2.26s8.16,3.64,12.35,5.2c2.74,1,4.69,1.64,6.12,4.4,4,7.73,2.44,18.73,1,26.92C396.15,358.79,394.9,363.74,393.6,368.67Z"/><path fill="#86522d" d="M339.44,345.46c-1.57-2.55-1.45-5.76-1.08-8.73.67-5.53,2.12-11.21,5.74-15.46,3.21-3.75,7.85-6,12.62-7.33a39.85,39.85,0,0,1,11.5-1.35,56.31,56.31,0,0,1,15.13,2.87c6.83,2.14,13.83,5.37,17.63,11.44a12.85,12.85,0,0,1,2.08,6,8.27,8.27,0,0,1-1.93,6,8.87,8.87,0,0,1-4,2.42c-3.88,1.22-8.15.4-11.86-1.27a27.63,27.63,0,0,1-13.82-14c-.78,7.58-6.07,12-13,15.07-4.6,2-11.91-4.39-14.94-.37-2.21,2.93-.06,17.12-2.94,19.4s-4.95,11-7.66,8.68c1.65-2,.27-18.14,1.83-20.17C336.67,346.17,339.35,348.65,339.44,345.46Z"/><path fill="none" stroke="#4f2e18" stroke-miterlimit="10" stroke-width="2" d="M398.14,333.31c-.12-.21.28-.4.44-.23a.7.7,0,0,1,.06.69,6,6,0,0,1-4.59,3.79,12.73,12.73,0,0,1-6.17-.54c-7.72-2.28-14.69-8.21-16.59-16"/><path fill="none" stroke="#4f2e18" stroke-miterlimit="10" stroke-width="2" d="M365.6,322.48c.54,4-1.74,7.82-4.21,11a9.81,9.81,0,0,1-2.62,2.56,3.64,3.64,0,0,1-3.51.24"/><path fill="none" stroke="#4f2e18" stroke-miterlimit="10" stroke-width="2" d="M355.48,324.87a8.54,8.54,0,0,1-5.29,4.92"/><path fill="none" stroke="#4f2e18" stroke-miterlimit="10" stroke-width="2" d="M392.33,327.39c-.08,1.26-1.83,1.53-3.07,1.3a18.06,18.06,0,0,1-10.78-6.54"/><path fill="#c38a65" d="M378.26,373.18c-4-.88-8.41-1.63-12.48-.49-1.86.53-3.08,1.74-5,2-2.17.24-4.58-.07-6.16-1.73s-1.87-4.11-2.1-6.38c-.57-5.87-2.57-9.87-3.3-15.72-.1-.79.64-3.71,0-3.28a1.29,1.29,0,0,0-.38.51c-1.51,3-5.66-3.95-7.82-1.39-.74.86,0,2.92-1,3.49-.29.17-3.17,11.08-3.05,10.67-.72,5.27-2.45,10.37-3.15,15.65-1.12,8.43.67,17.58,6.4,23.86,3.43,3.76,8,6.26,12.59,8.45,5.54,2.65,11.68,5,17.69,3.76,5-1,9.18-4.47,12.07-8.63s4.59-9,6-13.9c.83-2.92,3.2-8.95,1.34-11.78C387.74,375,381.68,373.93,378.26,373.18Z"/><path fill="#ffb483" d="M390.5,351c-.71,3.16,2.62,3.67,3.79,6.69s2.27,9.73,4.08,12.41a22.56,22.56,0,0,1,1.48,4.33,3.59,3.59,0,0,1-.3,3.07c-.9,1.3-2.72,1.54-4.3,1.41a16.19,16.19,0,0,1-9.11-3.74"/><path fill="#86522d" d="M382.51,344a6.11,6.11,0,0,0-4.4.89,3.08,3.08,0,0,1,1.57-2.15,5.85,5.85,0,0,1,2.64-.68c1.92-.12,8.13.89,8,3.84C390.12,349.24,384.11,344.32,382.51,344Z"/><path fill="#fff" d="M379.68,343.91a8.88,8.88,0,0,1,2.35.32c5.12,1.42,8,7.15,6.45,12.78a10.45,10.45,0,0,1-9.75,7.95,8.54,8.54,0,0,1-2.35-.32,9.12,9.12,0,0,1-5.68-4.7,11.06,11.06,0,0,1-.76-8.07,10.42,10.42,0,0,1,9.74-8m0-3A13.46,13.46,0,0,0,367,351.07c-2,7.23,1.82,14.6,8.54,16.46a11.83,11.83,0,0,0,3.15.43,13.45,13.45,0,0,0,12.64-10.15c2-7.24-1.82-14.61-8.54-16.47a11.72,11.72,0,0,0-3.15-.43Z"/><line x1="370.54" x2="346.85" y1="345.53" y2="340" fill="none" stroke="#fff" stroke-miterlimit="10" stroke-width="3"/><line x1="391.29" x2="396.88" y1="353.16" y2="354.63" fill="none" stroke="#fff" stroke-miterlimit="10" stroke-width="3"/><path fill="#ffb483" stroke="#db8e5b" stroke-miterlimit="10" d="M349.42,341.76a9.62,9.62,0,0,0-5.95-7.27,7.75,7.75,0,0,0-7.86,1.22c-2,1.86-2.63,4.82-2.57,7.57a11.39,11.39,0,0,0,1.63,6.06,9.36,9.36,0,0,0,5,3.57,11.75,11.75,0,0,0,11-2.31"/><path fill="none" stroke="#db8e5b" stroke-miterlimit="10" d="M339.94,339a7.53,7.53,0,0,1,6.29,6.72l-1-1a6.17,6.17,0,0,0-2.91-1.95c-1.16-.24-2.6.49-2.63,1.68"/><path fill="#86522d" d="M350.25,305.21a20.31,20.31,0,0,0-4.31-8.09,11.14,11.14,0,0,0-8.16-3.76,7.72,7.72,0,0,0-7.15,4.93c-1,3,.2,6.55-1.5,9.19-.6.93-1.51,1.63-2.16,2.53a6.5,6.5,0,0,0-.83,5.59,8.69,8.69,0,0,0,3.47,4.58,1.87,1.87,0,0,1,.66.62c.21.44,0,.95-.07,1.43-.28,1.81,1.4,3.32,3.06,4.1a13.44,13.44,0,0,0,9.95.52C352.39,323.69,352.65,313.19,350.25,305.21Z"/><path fill="none" stroke="#4f2e18" stroke-miterlimit="10" d="M350.18,317.35a17.73,17.73,0,0,0-7.29,4.88"/><path fill="none" stroke="#4f2e18" stroke-miterlimit="10" stroke-width="2" d="M346.05,313.22a17.88,17.88,0,0,0-7.29-15.58c-.91-.65-2.24-1.19-3.06-.44"/><path fill="none" stroke="#4f2e18" stroke-miterlimit="10" stroke-width="2" d="M339.75,313.66c-1.38-2-3.68-3.6-6.11-3.35s-4.53,2.91-3.6,5.16"/><path fill="#fff" d="M380.41,382.1a7.71,7.71,0,0,1-2.84-5.86,20,20,0,0,0,.17,7.6,11,11,0,0,0,4,6.32.82.82,0,0,0,.67.21.84.84,0,0,0,.43-.38c.68-1,3.52-4.63,2.93-5.81-.31-.61-2-.51-2.56-.66A7.6,7.6,0,0,1,380.41,382.1Z"/><path d="M378.58,353.32A3.62,3.62,0,1,0,383,350.8,3.61,3.61,0,0,0,378.58,353.32Z"/><rect width="100.41" height="118.85" x="417.32" y="515.41" fill="#fff" stroke="#504eaf" stroke-miterlimit="10" transform="rotate(13.72 467.396 574.606)"/><path fill="#ffb483" d="M424.59,543.3l-4.12,16.89,50.66,12.36s5.17,3.25-1.38,5.63c0,0,6.59,5.58.05,8,0,0,4.25,7-3.71,7.05,0,0,4.71,5.12-1.37,5.62L416,597.71a39.5,39.5,0,0,1-12.46-4.34c-7-3.71-13.09-16.69.87-33.16Z"/><line x1="440.7" x2="469.75" y1="575.06" y2="578.18" fill="none" stroke="#350006" stroke-miterlimit="10"/><line x1="437.7" x2="470.97" y1="583.28" y2="585.43" fill="none" stroke="#350006" stroke-miterlimit="10"/><line x1="439.62" x2="467.26" y1="591.7" y2="592.48" fill="none" stroke="#350006" stroke-miterlimit="10"/><path fill="#ffb483" d="M372.07,551.18s60.53,17.15,61.33,19.29,6.25,21.84-23.08,22.1c-3.23,0-34.86-3.28-41.51-3.46C363.7,589,372.07,551.18,372.07,551.18Z"/><path fill="#4a90ff" d="M394.69,556.47s-.32,15.31-2.45,22.47-7.93,14.5-7.93,14.5c-2.35,3-25.43,0-28.95-.12-17.88-.54-35.28-1.5-53-3.74-13.09-1.65-26.79-3.52-37.51-11.23s-17-23.24-10.2-34.52c5.25-8.64,16-12,25.95-13.87,23.09-4.44,42.47,6.64,64.33,13C360.78,547.6,378.12,554.94,394.69,556.47Z"/><path fill="none" stroke="#2b4f82" stroke-miterlimit="10" d="M258.4,579.62a291.82,291.82,0,0,0,62.78,12c26.72,2,63,1.61,63,1.61s7.84-9.71,9.26-19.93a118.11,118.11,0,0,0,1.29-16.79s-24.26-5-39.95-10.41c-14-4.89-50.48-15.87-54.7-16.51"/><path fill="none" stroke="#2b4f82" stroke-miterlimit="10" d="M273.86,529.64c5.3-2.16,12.27-.88,17.89.14a45.39,45.39,0,0,0-13.55,6.39"/><path fill="#4a90ff" d="M309.55,449.06c-.65,8.41-.37,32.53-2.44,40.63s1.47,51.82-10.24,76.56c-10,21-36,9.3-38.36,6.69s-9.4-27.39-10.27-41.5c-2-33.17-4.87-75.58,7-103.11,3.66-8.52,10.8-16,19.66-18.7,12.71-3.94,26.89,4.58,32.69,16.56C311.21,433.73,310.16,441.1,309.55,449.06Z"/><path fill="none" stroke="#2b4f82" stroke-miterlimit="10" d="M307.88,442.84c3.39,33,3.32,50.12-.7,83"/><path fill="none" stroke="#2b4f82" stroke-miterlimit="10" d="M255.52,428.51c-11.32,33.62-12.93,93.57-1.78,131.24,1.55,5.22,3.56,10.69,7.93,14a24.25,24.25,0,0,0,6.25,3.08,94.58,94.58,0,0,0,12.66,3.6"/></g><g><path fill="#fff" d="M898.12,838H534.36c-12.18,0-22.05-8.06-22.05-18V662c0-10,9.87-18,22.05-18H898.12c12.18,0,22.06,8.06,22.06,18V820C920.18,830,910.3,838,898.12,838Z"/><path fill="#628ad3" d="M898.12,838c0-.06,1.11,0,3.21-.27a25.39,25.39,0,0,0,8.74-2.75,18.91,18.91,0,0,0,9-9.84c.93-2.37,1-5,.9-7.92s0-5.92,0-9.16c0-25.92-.13-63.38-.22-109.67q0-17.35,0-36.33c.07-6.18-4.19-12.42-11.15-15.48A26.42,26.42,0,0,0,897,644.43H884.65l-106.41,0-243.85,0A24.42,24.42,0,0,0,520.11,649a16.61,16.61,0,0,0-7,11c-.27,8.59-.08,17.36-.14,25.93q0,25.8,0,50.81t0,49.05q0,12,0,23.78c0,3.9-.08,7.85.08,11.65a15.85,15.85,0,0,0,5.16,10.17,22.68,22.68,0,0,0,11.42,5.6,34.78,34.78,0,0,0,6.73.45h33.89l51.66,0,92.72.07,134.26.19,36.5.1,9.5.06c2.14,0,3.23.06,3.23.06s-1.09,0-3.23.06l-9.5.06-36.5.1-134.26.19-92.72.07-51.66,0H536.36a36.18,36.18,0,0,1-7-.46,24.15,24.15,0,0,1-12.13-5.94,16.79,16.79,0,0,1-5.48-10.79c-.17-3.94-.05-7.79-.09-11.72q0-11.76,0-23.78,0-24,0-49.05t0-50.81c.06-8.63-.15-17.21.14-26a17.68,17.68,0,0,1,7.42-11.78,26,26,0,0,1,15.22-4.78l243.85,0,106.41.05H897a27.78,27.78,0,0,1,12,2.3c7.31,3.23,11.78,9.81,11.69,16.29q0,18.95-.05,36.33c-.09,46.29-.17,83.75-.22,109.67q0,4.86,0,9.16a20.76,20.76,0,0,1-1,8,19.23,19.23,0,0,1-9.2,9.93,25,25,0,0,1-8.88,2.67,19.88,19.88,0,0,1-2.41.16Z"/><rect width="27.49" height="3.95" x="564.84" y="811.7" fill="#e6ddfe" rx=".43"/><rect width="27.49" height="3.95" x="644.49" y="811.7" fill="#e6ddfe" rx=".43"/><rect width="27.49" height="3.95" x="714.81" y="811.7" fill="#e6ddfe" rx=".43"/><rect width="27.49" height="3.95" x="787.22" y="811.7" fill="#e6ddfe" rx=".43"/><rect width="27.49" height="3.95" x="848.59" y="811.7" fill="#e6ddfe" rx=".43"/><path fill="#1a2e35" d="M882.93,801.41c0,.32-75.28.58-168.12.58s-168.13-.26-168.13-.58,75.26-.58,168.13-.58S882.93,801.09,882.93,801.41Z"/><ellipse cx="551.25" cy="671.4" fill="#e6ddfe" rx="6.42" ry="5.25"/><path fill="#e6ddfe" d="M575.14,671.4c0,2.9-2.88,5.25-6.43,5.25s-6.42-2.35-6.42-5.25,2.87-5.25,6.42-5.25S575.14,668.5,575.14,671.4Z"/><ellipse cx="586" cy="671.4" fill="#e6ddfe" rx="6.42" ry="5.25"/></g><g><rect width="11.7" height="34.69" x="564.53" y="766.72" fill="#628ad3"/><rect width="11.7" height="62.75" x="606.21" y="738.66" fill="#628ad3"/><rect width="14.45" height="103.9" x="583.99" y="697.51" fill="#a7db56"/><rect width="11.7" height="23.74" x="647.88" y="777.67" fill="#628ad3"/><rect width="11.7" height="23.74" x="627.04" y="777.67" fill="#a7db56"/><rect width="11.7" height="38.88" x="689.56" y="762.53" fill="#628ad3"/><rect width="11.7" height="72.63" x="668.72" y="728.78" fill="#a7db56"/><rect width="11.7" height="72.63" x="752.07" y="728.78" fill="#a7db56"/><rect width="11.7" height="109.4" x="710.4" y="692.01" fill="#a7db56"/><rect width="11.7" height="27.09" x="731.23" y="774.32" fill="#628ad3"/><rect width="11.7" height="19.89" x="835.42" y="781.52" fill="#a7db56"/><rect width="11.7" height="107.33" x="793.75" y="694.08" fill="#a7db56"/><rect width="11.7" height="85.38" x="814.58" y="716.03" fill="#628ad3"/><rect width="11.7" height="88.48" x="772.91" y="712.93" fill="#628ad3"/><rect width="11.7" height="72.63" x="856.26" y="728.78" fill="#628ad3"/></g><g><rect width="184.47" height="284.8" x="1056.2" y="587.05" fill="#d2c1fe"/><rect width="184.46" height="31.1" x="1048.27" y="579.4" fill="#4e6fcc"/><line x1="1055.11" x2="1066.27" y1="589.62" y2="599.94" fill="none" stroke="#fff" stroke-linecap="round" stroke-linejoin="round" stroke-width="1.02"/><line x1="1066.27" x2="1055.11" y1="589.62" y2="599.94" fill="none" stroke="#fff" stroke-linecap="round" stroke-linejoin="round" stroke-width="1.02"/><rect width="10.33" height="10.33" x="1074.38" y="589.62" fill="none" stroke="#fff" stroke-linecap="round" stroke-linejoin="round" stroke-width="1.02"/><path fill="none" stroke="#fff" stroke-linecap="round" stroke-linejoin="round" stroke-width="1.02" d="M1103.29,594.78a5.24,5.24,0,1,1-5.24-5.24A5.24,5.24,0,0,1,1103.29,594.78Z"/><line x1="1108.88" x2="1140.59" y1="594.78" y2="594.78" fill="none" stroke="#fff" stroke-linecap="round" stroke-linejoin="round" stroke-width="1.02"/><rect width="184.47" height="252.72" x="1048.27" y="610.82" fill="#fff"/><path fill="#ff8724" d="M1075.91,761.66a4.38,4.38,0,1,1-4.38-4.38A4.38,4.38,0,0,1,1075.91,761.66Z"/><path fill="#ffc022" d="M1075.91,781.31a4.38,4.38,0,1,1-4.38-4.38A4.38,4.38,0,0,1,1075.91,781.31Z"/><path fill="#ffd983" d="M1075.91,801a4.38,4.38,0,1,1-4.38-4.39A4.38,4.38,0,0,1,1075.91,801Z"/><path fill="#6484ed" d="M1075.91,820.61a4.38,4.38,0,1,1-4.38-4.39A4.38,4.38,0,0,1,1075.91,820.61Z"/><path fill="#4862e0" d="M1075.91,839.57a4.38,4.38,0,1,1-4.38-4.38A4.38,4.38,0,0,1,1075.91,839.57Z"/><polyline fill="none" stroke="#9eaeff" stroke-linecap="round" stroke-linejoin="round" stroke-width="3.07" points="1193.51 804.84 1213.86 791.13 1193.51 777.43"/></g><g><line x1="1080.72" x2="1175.64" y1="761.66" y2="761.66" fill="none" stroke="#4c5b93" stroke-miterlimit="10" stroke-width=".75"/><line x1="1080.72" x2="1175.64" y1="781.31" y2="781.31" fill="none" stroke="#4c5b93" stroke-miterlimit="10" stroke-width=".75"/><line x1="1080.72" x2="1175.64" y1="800.96" y2="800.96" fill="none" stroke="#4c5b93" stroke-miterlimit="10" stroke-width=".75"/><line x1="1080.72" x2="1175.64" y1="820.61" y2="820.61" fill="none" stroke="#4c5b93" stroke-miterlimit="10" stroke-width=".75"/><line x1="1080.72" x2="1175.64" y1="839.57" y2="839.57" fill="none" stroke="#4c5b93" stroke-miterlimit="10" stroke-width=".75"/></g><g><circle cx="1140.59" cy="679.41" r="57.08" fill="#ffc022" transform="rotate(-80.91 1140.593 679.408)"/><path fill="#ff8724" d="M1150.25,623.17l-9.66,56.24,52.31,22.84a57.08,57.08,0,0,0-42.65-79.08Z"/><path fill="#4862e0" d="M1140.59,679.41l34.88,45.16a57.37,57.37,0,0,0,17.3-22Z"/><path fill="#6484ed" d="M1140.59,679.41l-51.08,25.48a57.05,57.05,0,0,0,86,19.68Z"/><path fill="#ffd983" d="M1083.63,675.85c-.07,1.18-.12,2.36-.12,3.56a56.87,56.87,0,0,0,6,25.48h0l51.08-25.48Z"/></g><g><rect width="237.3" height="130.06" x="401.33" y="116.94" fill="#d2c1fe"/><rect width="237.3" height="108.55" x="393.84" y="131.27" fill="#fff"/><rect width="237.3" height="22.04" x="393.84" y="110.12" fill="#4e6fcc"/><line x1="624.65" x2="612.58" y1="115.55" y2="126.72" fill="none" stroke="#fff" stroke-linecap="round" stroke-linejoin="round" stroke-width="1.02"/><line x1="612.58" x2="624.65" y1="115.55" y2="126.72" fill="none" stroke="#fff" stroke-linecap="round" stroke-linejoin="round" stroke-width="1.02"/><rect width="11.17" height="11.17" x="592.63" y="115.55" fill="none" stroke="#fff" stroke-linecap="round" stroke-linejoin="round" stroke-width="1.02" transform="rotate(180 598.22 121.135)"/><path fill="none" stroke="#fff" stroke-linecap="round" stroke-linejoin="round" stroke-width="1.02" d="M572.53,121.14a5.67,5.67,0,1,0,5.67-5.67A5.66,5.66,0,0,0,572.53,121.14Z"/><line x1="566.48" x2="497.07" y1="121.14" y2="121.14" fill="none" stroke="#fff" stroke-linecap="round" stroke-linejoin="round" stroke-width="1.02"/></g><g><rect width="198.83" height="69.26" x="415.61" y="147.29" fill="#6484ed"/><polygon fill="#ffc022" points="415.61 216.55 614.44 216.55 614.44 153.39 581.3 183.25 548.16 167.83 514.75 193.89 481.88 177.38 448.75 200.78 415.61 192.62 415.61 216.55"/><line x1="448.75" x2="448.75" y1="200.78" y2="216.55" fill="none" stroke="#f24693" stroke-miterlimit="10" stroke-width=".49"/><line x1="481.88" x2="481.88" y1="177.38" y2="216.55" fill="none" stroke="#f24693" stroke-miterlimit="10" stroke-width=".49"/><line x1="515.02" x2="515.02" y1="193.89" y2="216.65" fill="none" stroke="#f24693" stroke-miterlimit="10" stroke-width=".49"/><line x1="548.16" x2="548.16" y1="167.83" y2="216.55" fill="none" stroke="#f24693" stroke-miterlimit="10" stroke-width=".49"/><line x1="581.3" x2="581.3" y1="183.25" y2="216.55" fill="none" stroke="#f24693" stroke-miterlimit="10" stroke-width=".49"/></g></svg>