<svg xmlns="http://www.w3.org/2000/svg" viewBox="0 0 4680 3120"><defs><clipPath id="a"><path fill="#5681bf" d="M2338.29,925.18,2091,923.79l.62-111.37,247.25,1.38Zm-241.22-7.35,235.25,1.31.56-99.37-235.25-1.32Z"/></clipPath><clipPath id="b"><polygon fill="#f5b0a6" points="1184.64 1342.74 1178.64 1406.79 1077.89 1402.78 1108.59 1300.04 1184.64 1342.74"/></clipPath><clipPath id="c"><path fill="#f19a6d" d="M687.47,1883l238.6,0,50.62-195.26s31.5,128.42,33.15,195.22l331.14.13c-6.67-35.46-17.81-98.69-18.5-112.33-1-19.53,22.47-116.24,22.47-116.24s199.27,151.41,247.14,129c6.17-2.9,14.48-8.19,24.05-15.37,64.67-48.56,187.41-183.88,104.88-256.19-26.19-22.94-50.18-49.43-70.13-58.37-52.23-23.42-83.14,8.52-100.81,54.46-24.42,63.49-17.58,91.82-17.58,91.82s-152.38-150.43-227.6-158.24-92.9-18.11-92.9-18.11,8.67-23.36-8-28-126.76-14.69-132.1,18.68c0,0-95.6,32.83-142.78,48.7S836,1596.9,836,1596.9s-103.55,241.27-131.87,254C694.65,1855.12,689.78,1869.32,687.47,1883Z"/></clipPath><clipPath id="d"><path fill="#f3ce90" d="M1242.46,1392.32s-17.31,195.35-56.87,254.7c0,0-159.5-187.93-174.34-247.28l-284.37,56.88s-117.46,479.72-115,481,353.61-17.31,353.61-17.31l16.08-119.93s178-9.89,212.66-113.75c0,0,103.86,96.44,175.57,108.8l263.36,49.46,200.3-278.19-48.22-185.47s-253.47-53.16-254.71-49.45-34.62,155.79-34.62,155.79Z"/></clipPath><clipPath id="e"><circle cx="1161.5" cy="1303.51" r="21.61" fill="#dfdfdf" transform="rotate(-13.28 1161.758 1303.715)"/></clipPath><clipPath id="f"><path fill="#dfdfdf" d="M1246.28,1273.93a21.59,21.59,0,0,0,21.19,21.59c1.87-13.78,1.12-28.61-1.07-43.15A21.59,21.59,0,0,0,1246.28,1273.93Z"/></clipPath><clipPath id="g"><path fill="#dfdfdf" d="M2332.07,2137.45l43.12,39.06s-18.26,32.48-32.47,42.12l-11.16-60.38Z"/></clipPath><clipPath id="h"><polygon fill="#f5b0a6" points="2210.06 2248.58 2199.82 2345 2299.66 2339.88 2309.9 2254.55 2210.06 2248.58"/></clipPath><clipPath id="i"><circle cx="2314.31" cy="2190.72" r="24.35" fill="#dfdfdf" transform="rotate(-22.5 2314.316 2190.732)"/></clipPath><clipPath id="j"><rect width="335.46" height="40.64" x="3653.36" y="2131.31" fill="#bdbdbd"/></clipPath><clipPath id="k"><polygon fill="#2f4171" points="3792.76 2678.39 3776.24 2678.39 3768.18 2587.48 3800.82 2587.48 3792.76 2678.39"/></clipPath><clipPath id="l"><polygon fill="#f5b0a6" points="3635.47 1359.81 3635.47 1384.66 3613.87 1400.68 3638.36 1432.51 3746.37 1384.05 3702.76 1372.75 3704.61 1315.86 3635.47 1359.81"/></clipPath><clipPath id="m"><ellipse cx="3652.28" cy="1317.16" fill="#dfdfdf" rx="18.93" ry="18.89"/></clipPath><clipPath id="n"><path fill="#dfdfdf" d="M3585,1306.69a18.89,18.89,0,0,1-11.74,17.48c-4.17-11.52-6.48-24.16-7.64-36.37h.46A18.9,18.9,0,0,1,3585,1306.69Z"/></clipPath><clipPath id="o"><path fill="#40947e" d="M3589.62,1419.25S3507,1459,3412.08,1695.76l93.32,84.84,46.72-61.17Z"/></clipPath><clipPath id="p"><path fill="#6fc183" d="M3609.34,1402.73s-53.08,35.74-67.89,81.74-46.09,154.44-40.33,457.57l332.49,6.57,4.94-478.1s2.12-62.84-23.28-73.12c-23-9.34-48.07-14.63-67.25-15.6l-107.81,44.77Z"/></clipPath><clipPath id="q"><path fill="#b3b3b3" d="M3555.3,1905.94H3218.14v-30.53H3555.3ZM3220,1904.08h333.42v-26.81H3220Z"/></clipPath><clipPath id="r"><polygon fill="#f5b0a6" points="3209.38 2548.51 3202.84 2633.35 3256.78 2656.74 3329.25 2629.55 3331.97 2544.16 3209.38 2548.51"/></clipPath><clipPath id="s"><path fill="#3d5891" d="M3208.61,2603.44s-7.57-30-26.89-16.84,1.91,22.25-13.36,34.44c0,0-65.66,49.66-68.24,71.19l-1,15.93a4.55,4.55,0,0,0,4.74,4.84l225.17-9.38a4.55,4.55,0,0,0,4.36-4.19c1.35-17.1,5.68-82.87-8.07-80.91-15.81,2.25-28.69,28.33-63.67,23.35S3211.23,2611.39,3208.61,2603.44Z"/></clipPath><clipPath id="t"><polygon fill="#f5b0a6" points="3456.2 2523.23 3482.71 2604.11 3541.51 2605.09 3598.02 2552.27 3567.78 2472.35 3456.2 2523.23"/></clipPath><clipPath id="u"><path fill="#3d5891" d="M3476.57,2574.27s-18.52-24.86-31.31-5.27,10.31,19.82.88,36.92c0,0-41.61,71-35.73,91.84l5.16,15.11a4.57,4.57,0,0,0,6.24,2.67l204.4-94.75a4.53,4.53,0,0,0,2.42-5.53c-5.31-16.32-26.54-78.73-38.49-71.66-13.74,8.12-15.63,37.14-49.86,45.91S3482,2580.61,3476.57,2574.27Z"/></clipPath><clipPath id="v"><polygon fill="#2c4da2" points="3529.13 2172.3 3599.32 2498.6 3393.75 2565.66 3322.55 2166.29 3529.13 2172.3"/></clipPath><clipPath id="w"><rect width="930.69" height="35.83" x="3097.56" y="1972.72" fill="#f19a6d"/></clipPath><clipPath id="x"><polygon fill="#ef7c59" points="3069.23 2736.31 3059.15 2736.31 3139.73 2008.55 3157.87 2008.55 3069.23 2736.31"/></clipPath><clipPath id="y"><polygon fill="#ef7c59" points="4056.59 2736.31 4066.67 2736.31 3986.08 2008.55 3967.95 2008.55 4056.59 2736.31"/></clipPath><clipPath id="z"><path fill="#40947e" d="M1240,2135.36c0-5.55-23.75-89.86,18-108.39s49.4-87.09,102.59-84.31,10.44,87.09,32.29,91.72,49.39,15.75,19.95,58.37-121.58,356.69-121.58,356.69-39,4.64-39,1.86S1240,2135.36,1240,2135.36Z"/></clipPath><clipPath id="A"><path fill="#70c182" d="M1233.31,2460.56s-91.19-48.18-53.19-78.75-101.64-96.35-43.7-126-119.68-110.25-31.34-159.36c0,0,14.25,18.53,15.2-47.25s77.88-127.85,104.48-55.59c0,0,2.85,113,30.39,101.92s23.75,26.86,5.7,72.26-3.8,51,6.65,43.55,33.25,2.78,4.75,65.78,22.8,14.82,26.6,40.76-27.55,131.56-27.55,131.56Z"/></clipPath><clipPath id="B"><path fill="#6fc183" d="M1339.69,2460.56s-25.65-163.06,35.14-164.91-5.7-123.23,75-126.93c0,0,37.05-6.49,41.79-34.28s27.55-25.94,35.15-16.68,36.09-92.65,109.23-71.34,8.55,88-9.5,108.4,1,22.24,18,20.38,69.34,26.87-14.25,60.23-76.94,55.58-54.14,59.29,13.3,34.28-57.94,52.81,4.75,32.43-30.4,47.25-61.73,64.86-61.73,64.86Z"/></clipPath><clipPath id="C"><polygon fill="#f19a6d" points="1409.22 2662.76 1200 2662.76 1183.47 2488.68 1425.75 2488.68 1409.22 2662.76"/></clipPath><clipPath id="D"><circle cx="1774.14" cy="609.28" r="241.85" fill="#f3ce90" transform="rotate(-45 1774.14 609.277)"/></clipPath><clipPath id="E"><path fill="#f19a6d" d="M1854.2,801.9c-106.21,44.15-228.53-6.35-272.68-112.56s6.34-228.54,112.56-272.68,228.53,6.34,272.68,112.55S1960.41,757.75,1854.2,801.9ZM1698.43,427.14C1598,468.89,1550.26,584.55,1592,685s157.41,148.18,257.85,106.43S1998,634,1956.28,533.57,1798.86,385.4,1698.43,427.14Z"/></clipPath><clipPath id="F"><path fill="#ef7c59" d="M1701.21,502.16l-14.66-31.55a3.33,3.33,0,0,1,1.74-4.48l46.18-19.19a3.33,3.33,0,0,1,4.45,2.06l9.67,30.42a3.34,3.34,0,0,0,4.18,2.16q27.87-8.54,59.86-5.74a3.36,3.36,0,0,1,3,3.3l.81,60.81a3.32,3.32,0,0,1-4.19,3.24q-29.16-8-57.91,4-21,8.73-14.82,23.52,3.21,7.71,14.53,6.26,2.85-.1,17.06-4.2,41.71-11.91,65.9-6.78,32.33,6.45,47.2,42.22,12.69,30.52,1.21,59.89-10.95,28-38.12,44.33a3.35,3.35,0,0,0-1.32,4.33l15.18,31.39a3.33,3.33,0,0,1-1.72,4.52L1816,770.69a3.32,3.32,0,0,1-4.42-2l-11.33-32.34a3.33,3.33,0,0,0-4.26-2q-34.44,11.88-78.63,4.08a3.34,3.34,0,0,1-2.75-3.21l-1.46-63.61a3.32,3.32,0,0,1,4.24-3.27q44.57,13.06,74.87.47,26.2-10.89,20.06-25.7-4.62-11.1-27-5.78l-14.15,3.36q-37.15,8.92-60.37,2.67-28.95-7.86-42.27-39.93-12.32-29.61-1.37-55.49,8.5-20.6,33.16-41.87A3.33,3.33,0,0,0,1701.21,502.16Z"/></clipPath><clipPath id="G"><circle cx="2118.28" cy="680.79" r="72" fill="#f3ce90" transform="rotate(-45 2118.282 680.789)"/></clipPath><clipPath id="H"><path fill="#f19a6d" d="M2118.14,742.89a62.11,62.11,0,1,1,62.24-62A62.17,62.17,0,0,1,2118.14,742.89Zm.27-120.83A58.73,58.73,0,1,0,2177,680.92,58.78,58.78,0,0,0,2118.41,622.06Z"/></clipPath><clipPath id="I"><path fill="#ef7c59" d="M2110.56,643l-.4-10.35a1,1,0,0,1,1-1l14.89,0a1,1,0,0,1,1,1.08l-.84,9.47a1,1,0,0,0,.9,1.07,46.49,46.49,0,0,1,17.1,5.3,1,1,0,0,1,.46,1.25l-6.76,16.8a1,1,0,0,1-1.53.41,25.94,25.94,0,0,0-16.36-5.57c-4.51,0-6.76,1.58-6.77,4.76,0,1.66,1.09,2.79,3.27,3.39a34.87,34.87,0,0,0,5.17.81q12.83,1.51,18.88,5.71,8.13,5.48,8.11,17a23,23,0,0,1-6.55,16.59,26.31,26.31,0,0,1-15.56,7.8,1,1,0,0,0-.86,1l.56,10.36a1,1,0,0,1-1,1.05l-14,0a1,1,0,0,1-1-1.05l.61-10.19a1,1,0,0,0-.94-1q-10.83-.7-22.07-7.92a1,1,0,0,1-.38-1.19l6.9-17.64a1,1,0,0,1,1.54-.41q10.76,8.7,20.51,8.73,8.46,0,8.47-4.76,0-3.57-6.75-4.69l-4.28-.7q-11.22-1.82-16.88-6.2-7-5.49-7-15.83,0-9.54,6-15.39,4.71-4.68,13.92-7.69A1,1,0,0,0,2110.56,643Z"/></clipPath></defs><g data-name="9"><polygon fill="#fff" points="4668.82 3128.39 11.18 3111.61 11.18 -8.38 4668.82 8.38 4668.82 3128.39" data-name="9" opacity="0"/><path fill="#496da1" d="M3200.24,1158.41S2490.9,1250.93,2164,1078.22,1331.27,745.14,955,1229.35s-46.26,1656.16,1030.09,1246c0,0,293-114.12,555.14-49.35s1054.77,246.73,1135-505.79S3200.24,1158.41,3200.24,1158.41Z"/><rect width="1804.29" height="1146" x="1809.65" y="717.69" fill="#d1dbed" rx="46.38"/><path fill="#fff" d="M3326.91,808.68l-288.55-1.62a9.19,9.19,0,0,0-9.24,9.14l-.58,103.48a9.19,9.19,0,0,0,9.14,9.24l288.54,1.61a9.18,9.18,0,0,0,9.24-9.13l.58-103.48A9.19,9.19,0,0,0,3326.91,808.68Z"/><path fill="#b5cae8" d="M3318.43,836.69h0l-271.87-1.52a3,3,0,0,1,0-6h0l271.88,1.52a3,3,0,0,1,0,6Z"/><path fill="#b5cae8" d="M3318.3,860.6h0l-271.87-1.52a3,3,0,0,1,0-6h0l271.87,1.52a3,3,0,0,1,0,6Z"/><path fill="#b5cae8" d="M3318.16,884.52h0L3046.27,883a3,3,0,0,1,0-6h0l271.87,1.53a3,3,0,0,1,0,6Z"/><path fill="#b5cae8" d="M3318,908.43h0l-271.87-1.53a3,3,0,0,1,0-6h0l271.88,1.53a3,3,0,0,1,0,6Z"/><rect width="116.22" height="254.22" x="2156.86" y="741.69" fill="#99b1da" transform="rotate(-89.68 2214.942 868.815)"/><path fill="#5681bf" d="M2338.29,925.18,2091,923.79l.62-111.37,247.25,1.38Zm-241.22-7.35,235.25,1.31.56-99.37-235.25-1.32Z"/><g clip-path="url(#a)"><path fill="#595959" d="M2095,784.63a30.54,30.54,0,1,0,30.37,30.71A30.53,30.53,0,0,0,2095,784.63Z"/><path fill="#595959" d="M2094.42,890.63a30.54,30.54,0,1,0,30.37,30.71A30.54,30.54,0,0,0,2094.42,890.63Z"/><path fill="#595959" d="M2336.61,786A30.54,30.54,0,1,0,2367,816.69,30.54,30.54,0,0,0,2336.61,786Z"/><path fill="#595959" d="M2336,892a30.54,30.54,0,1,0,30.37,30.71A30.54,30.54,0,0,0,2336,892Z"/></g><circle cx="2214.97" cy="868.8" r="39.28" fill="#5681bf" transform="rotate(-45 2214.977 868.796)"/><path fill="#fff" d="M2227.12,866.29q-3.28-2.29-10.28-3.15a18.85,18.85,0,0,1-2.82-.45c-1.19-.33-1.79-1-1.78-1.85q0-2.61,3.7-2.59a14.21,14.21,0,0,1,8.92,3.07.54.54,0,0,0,.83-.22l3.72-9.15a.55.55,0,0,0-.25-.69,25.43,25.43,0,0,0-9.32-2.92.54.54,0,0,1-.48-.59l.47-5.16a.54.54,0,0,0-.54-.59l-8.12,0a.54.54,0,0,0-.54.56l.2,5.65a.54.54,0,0,1-.38.53,19.23,19.23,0,0,0-7.61,4.17,11.29,11.29,0,0,0-3.3,8.39q0,5.65,3.81,8.65,3.08,2.4,9.2,3.41l2.33.4c2.45.41,3.68,1.27,3.67,2.57q0,2.6-4.62,2.57-5.34,0-11.18-4.8a.54.54,0,0,0-.84.23l-3.8,9.61a.54.54,0,0,0,.21.65,25.37,25.37,0,0,0,12,4.36.54.54,0,0,1,.51.57l-.34,5.56a.53.53,0,0,0,.53.57l7.65,0a.54.54,0,0,0,.54-.57l-.29-5.65a.55.55,0,0,1,.47-.57,14.36,14.36,0,0,0,8.51-4.22,12.58,12.58,0,0,0,3.6-9Q2231.55,869.31,2227.12,866.29Z"/><circle cx="2152.14" cy="868.45" r="8.92" fill="#5681bf" transform="rotate(-74.11 2152.038 868.474)"/><path fill="#5681bf" d="M2277.85,860.23a8.92,8.92,0,1,0,8.87,9A8.92,8.92,0,0,0,2277.85,860.23Z"/><path fill="#b5cae8" d="M2507.57,828.15H2375.41a4.31,4.31,0,1,0,0,8.61h132.16a4.31,4.31,0,1,0,0-8.61Z"/><path fill="#b5cae8" d="M2507.57,846.32H2375.41a4.31,4.31,0,1,0,0,8.61h132.16a4.31,4.31,0,1,0,0-8.61Z"/><path fill="#b5cae8" d="M2507.57,864.49H2375.41a4.31,4.31,0,1,0,0,8.61h132.16a4.31,4.31,0,1,0,0-8.61Z"/><path fill="#b5cae8" d="M2507.57,882.67H2375.41a4.31,4.31,0,1,0,0,8.61h132.16a4.31,4.31,0,1,0,0-8.61Z"/><path fill="#b5cae8" d="M2507.57,900.84H2375.41a4.31,4.31,0,1,0,0,8.61h132.16a4.31,4.31,0,1,0,0-8.61Z"/><circle cx="2685.48" cy="868.8" r="58.82" fill="#f3ce90"/><path fill="#f19a6d" d="M2685.48,818.06a50.74,50.74,0,1,0,50.73,50.74A50.8,50.8,0,0,0,2685.48,818.06Zm0,98.71a48,48,0,1,1,48-48A48,48,0,0,1,2685.48,916.77Z"/><path fill="#ef7c59" d="M2703.65,864.94q-5-3.41-15.43-4.63a28.83,28.83,0,0,1-4.23-.65c-1.78-.49-2.68-1.41-2.68-2.76q0-3.9,5.53-3.9a21.18,21.18,0,0,1,13.37,4.52.81.81,0,0,0,1.25-.34l5.49-13.73a.81.81,0,0,0-.37-1,37.9,37.9,0,0,0-14-4.29.82.82,0,0,1-.74-.88l.67-7.74a.8.8,0,0,0-.81-.87h-12.16a.81.81,0,0,0-.81.84l.35,8.45a.82.82,0,0,1-.56.8q-7.53,2.47-11.36,6.31-4.87,4.8-4.87,12.59,0,8.45,5.76,12.91,4.63,3.59,13.81,5l3.49.57q5.53.9,5.53,3.82,0,3.9-6.91,3.9-8,0-16.77-7.1a.81.81,0,0,0-1.26.34l-5.6,14.42a.82.82,0,0,0,.31,1q9.2,5.88,18,6.42a.82.82,0,0,1,.77.86l-.47,8.32a.8.8,0,0,0,.8.85h11.45a.82.82,0,0,0,.81-.85l-.48-8.47a.82.82,0,0,1,.7-.85,21.42,21.42,0,0,0,12.7-6.4,18.78,18.78,0,0,0,5.32-13.56Q2710.31,869.41,2703.65,864.94Z"/><path fill="#b5cae8" d="M2909.46,828.15H2777.3a4.31,4.31,0,1,0,0,8.61h132.16a4.31,4.31,0,1,0,0-8.61Z"/><path fill="#b5cae8" d="M2909.46,846.32H2777.3a4.31,4.31,0,1,0,0,8.61h132.16a4.31,4.31,0,1,0,0-8.61Z"/><path fill="#b5cae8" d="M2909.46,864.49H2777.3a4.31,4.31,0,1,0,0,8.61h132.16a4.31,4.31,0,1,0,0-8.61Z"/><path fill="#b5cae8" d="M2909.46,882.67H2777.3a4.31,4.31,0,1,0,0,8.61h132.16a4.31,4.31,0,1,0,0-8.61Z"/><path fill="#b5cae8" d="M2909.46,900.84H2777.3a4.31,4.31,0,1,0,0,8.61h132.16a4.31,4.31,0,1,0,0-8.61Z"/><path fill="#2f4171" d="M3531.34,1734.64H1910.44a1,1,0,0,1-1-1V884.18a1,1,0,1,1,2,0v848.46h1619.9a1,1,0,0,1,0,2Z"/><path fill="#2f4171" d="M1928.64,1647.77h-36.4a1,1,0,0,1,0-2h36.4a1,1,0,0,1,0,2Z"/><path fill="#2f4171" d="M1928.64,1481.08h-36.4a1,1,0,1,1,0-2h36.4a1,1,0,1,1,0,2Z"/><path fill="#2f4171" d="M1928.64,1314.38h-36.4a1,1,0,1,1,0-2h36.4a1,1,0,1,1,0,2Z"/><path fill="#2f4171" d="M1928.64,1147.69h-36.4a1,1,0,0,1,0-2h36.4a1,1,0,0,1,0,2Z"/><path fill="#2f4171" d="M1928.64,981h-36.4a1,1,0,0,1,0-2h36.4a1,1,0,0,1,0,2Z"/><rect width="69.1" height="701.62" x="3418.67" y="1031.52" fill="#99b1da"/><rect width="69.1" height="696.15" x="3300.07" y="1036.99" fill="#99b1da"/><rect width="69.1" height="655.14" x="3181.46" y="1078" fill="#99b1da"/><rect width="69.1" height="455.53" x="1995.38" y="1277.61" fill="#99b1da"/><rect width="69.1" height="392.64" x="2113.98" y="1340.5" fill="#99b1da"/><rect width="69.1" height="385.8" x="2232.59" y="1347.33" fill="#99b1da"/><rect width="69.1" height="394.01" x="2351.2" y="1339.13" fill="#99b1da"/><rect width="69.1" height="421.35" x="2469.81" y="1311.79" fill="#99b1da"/><rect width="69.1" height="495.18" x="2588.42" y="1237.96" fill="#99b1da"/><rect width="69.1" height="573.11" x="2707.02" y="1160.03" fill="#99b1da"/><rect width="69.1" height="618.22" x="2825.63" y="1114.91" fill="#99b1da"/><rect width="69.1" height="569" x="2944.24" y="1164.13" fill="#99b1da"/><rect width="69.1" height="592.25" x="3062.85" y="1140.89" fill="#99b1da"/><path fill="#5681bf" d="M2408,1320.33c-1.61,0-4.36-2-20.35-18.75-9.26-9.68-21.88-23.23-37.52-40.28-23-25.08-45.93-50.52-51.88-57.14l-52.72,37a2.49,2.49,0,0,1-3.15-.23l-121.8-115.19L1997,1229.55a2.5,2.5,0,0,1-3.21-3.83L2119,1120.48a2.49,2.49,0,0,1,3.33.1L2244.3,1235.9l52.87-37.1a2.48,2.48,0,0,1,3.29.38c38.73,43.12,97.43,107.39,107.41,115.53,4.2-3.61,17.72-13.94,62.79-47.3,33.69-24.94,80.57-59.43,139.34-102.52,100.06-73.36,201.27-147.2,202.28-147.94a2.49,2.49,0,0,1,2.78-.11l165.47,101.05L3438.28,939.1a2.5,2.5,0,0,1,2.54.43l48.59,42a2.5,2.5,0,1,1-3.27,3.79l-47.44-41L2981.2,1123a2.49,2.49,0,0,1-2.22-.19L2813.88,1022c-137,100-395.07,288.81-403.59,297.18a2.59,2.59,0,0,1-1.63,1.08A3.19,3.19,0,0,1,2408,1320.33Zm2.64-1.81h0Zm0,0v0Zm-3.9-2.74a2.37,2.37,0,0,0-.73.87A3.79,3.79,0,0,1,2406.72,1315.75Z"/><path fill="#5681bf" d="M3199.37,1770.22H2224.21a9.76,9.76,0,0,0-9.75,9.76h0a9.76,9.76,0,0,0,9.75,9.75h975.16a9.76,9.76,0,0,0,9.75-9.75h0A9.76,9.76,0,0,0,3199.37,1770.22Z"/><path fill="#b5cae8" d="M2984.42,1807.64H2442.56a9.76,9.76,0,0,0-9.76,9.75h0a9.75,9.75,0,0,0,9.76,9.75h541.86a9.75,9.75,0,0,0,9.76-9.75h0A9.76,9.76,0,0,0,2984.42,1807.64Z"/><path fill="#b5cae8" d="M1654.4,1070.37H721.69A39.22,39.22,0,0,0,682.75,1105l-86.39,731.75a39.21,39.21,0,0,0,38.95,43.82H1568A39.21,39.21,0,0,0,1607,1846l9.19-77.85L1652,1464.61l41.37-350.42A39.22,39.22,0,0,0,1654.4,1070.37Z" opacity=".52"/><path d="M1378.86,1374.71c-48.36-21.61,63.79-60.71-24.7-118.33s-24.69-38.07-97.75-115.24-184.18-24.7-184.18-24.7-23.79,12.91-45.36,52.46-71.91,60.22-94.38,81.8-6.37,48.9-6.37,48.9c19.55,22.63,16.47,63.79-27.78,82.31s-84.37,52.48-75.11,76.14-1,36-31.9,68.94-36,57.62,4.12,110.1,356,108,512.41,105,119.36-133.76,119.36-133.76C1557.89,1453.94,1427.22,1396.32,1378.86,1374.71Z"/><path fill="#f5b0a6" d="M1734.81,1365.16s36.47-83,26.46-90.1-69.36,82.24-69.36,82.24,6.43-13.59-2.15-31.47-48.62,62.22-51.48,100.83c-2,26.49,12.23,53.32,21.33,67.56a36.61,36.61,0,0,0,19.66,15.14,157.61,157.61,0,0,0,21.93,5.25c21.45,3.58,58.64-51.48,68.65-81.52S1734.81,1365.16,1734.81,1365.16Z"/><path fill="#f18a8b" d="M1703.26,1515.78a13.66,13.66,0,0,1-2.22-.18,158.12,158.12,0,0,1-22.07-5.29,37.64,37.64,0,0,1-20.2-15.55c-8.88-13.89-23.49-41.21-21.49-68.17,2.47-33.36,34-101.55,48.19-104.23,1.56-.3,3.73,0,5.19,3,5.25,10.92,5,20.23,4,26,12.28-18.11,51.94-75.38,64.39-77.67a3.58,3.58,0,0,1,2.81.51c1.7,1.21,6.87,4.91-9.12,48.89-7,19.23-15.07,38-16.71,41.75,5.47,4.72,44.39,39.69,34.78,68.52-5.14,15.43-17.28,37-30.19,53.66C1732.09,1498.06,1716.33,1515.78,1703.26,1515.78Zm-16.87-191.51a3.12,3.12,0,0,0-.55,0c-12.25,2.32-44,68-46.57,102.41-2,26.39,12.44,53.27,21.19,67a35.64,35.64,0,0,0,19.12,14.73,156.93,156.93,0,0,0,21.79,5.22c9.08,1.51,22.8-8.62,37.66-27.78,12.79-16.51,24.79-37.84,29.87-53.07s-4.62-32.41-13.59-44.28a156.61,156.61,0,0,0-21.14-22.57,1,1,0,0,1-.27-1.17c.09-.21,9.19-21,17-42.31,14-38.4,11.52-45.36,9.83-46.57a1.62,1.62,0,0,0-1.29-.17c-10.92,2-48.38,54.61-66.66,82.14a1,1,0,0,1-1.32.32,1,1,0,0,1-.42-1.3,28.79,28.79,0,0,0,2.06-8.79,41.41,41.41,0,0,0-4.2-21.81C1688.07,1324.63,1687.15,1324.27,1686.39,1324.27Z"/><path fill="#f5b0a6" d="M1756.18,1346.11c-9.54-2.56-23,16.7-30,43s-5.06,49.73,4.47,52.29,23-16.7,30.06-43S1765.72,1348.67,1756.18,1346.11Z"/><path fill="#f18a8b" d="M1732.34,1442.65a7.89,7.89,0,0,1-2-.26c-5-1.36-8.31-7.79-9.2-18.12-.85-10,.57-22.56,4-35.4s8.5-24.43,14.25-32.65c5.93-8.5,12-12.43,17-11.07h0c5,1.35,8.31,7.79,9.2,18.11.85,10-.57,22.56-4,35.4C1754.77,1424.18,1742.29,1442.65,1732.34,1442.65Zm22.11-95.76c-3.89,0-8.68,3.71-13.4,10.48-5.62,8-10.57,19.4-14,32s-4.79,24.95-3.95,34.71c.79,9.29,3.61,15.25,7.72,16.35,8.83,2.38,22-17,28.83-42.31,3.39-12.62,4.79-25,4-34.71-.8-9.29-3.61-15.25-7.73-16.35h0A5.49,5.49,0,0,0,1754.45,1346.89Z"/><path fill="#f5b0a6" d="M1773.34,1360.41c-9.53-2.56-23,16.71-30,43s-5.06,49.73,4.47,52.29,23-16.7,30.06-43S1782.88,1363,1773.34,1360.41Z"/><path fill="#f18a8b" d="M1749.51,1457a7.89,7.89,0,0,1-2-.26c-10.23-2.75-12.51-26.25-5.19-53.52s21.07-46.46,31.28-43.72h0c10.22,2.74,12.5,26.25,5.18,53.51-3.44,12.84-8.5,24.43-14.24,32.65C1759.37,1453,1754.12,1457,1749.51,1457Zm22.06-95.77c-8.77,0-20.9,18.61-27.32,42.51-6.79,25.31-5.06,48.69,3.77,51.07,4.12,1.1,9.54-2.65,14.88-10.29,5.61-8,10.57-19.41,13.95-32,6.79-25.3,5.07-48.69-3.77-51.06h0A5.85,5.85,0,0,0,1771.57,1361.18Z"/><path fill="#f5b0a6" d="M1786.93,1376.15c-9.54-2.56-23,16.7-30.06,43s-5.06,49.72,4.48,52.28,23-16.7,30.06-43S1796.46,1378.7,1786.93,1376.15Z"/><path fill="#f18a8b" d="M1763.09,1472.68a7.89,7.89,0,0,1-2-.26c-5-1.36-8.31-7.79-9.2-18.12-.85-10,.57-22.56,4-35.39s8.5-24.44,14.24-32.66c5.94-8.49,12-12.42,17-11.07h0c5,1.35,8.31,7.79,9.2,18.11.85,10-.57,22.56-4,35.4C1785.52,1454.22,1773,1472.68,1763.09,1472.68Zm22.11-95.76c-3.89,0-8.68,3.72-13.41,10.48-5.61,8-10.56,19.41-14,32s-4.79,24.95-4,34.71c.8,9.29,3.61,15.25,7.73,16.36,8.84,2.37,22-17,28.83-42.32,3.39-12.61,4.79-24.94,4-34.7-.8-9.29-3.62-15.25-7.73-16.36h0A5.54,5.54,0,0,0,1785.2,1376.92Z"/><path fill="#f5b0a6" d="M1698.34,1462.41c4-16.32,1.5-31.31-2.64-43.1Z"/><path fill="#f18a8b" d="M1698.34,1463.41h-.09a1,1,0,0,1-.91-.94l-2.64-43.1a1,1,0,0,1,.8-1,1,1,0,0,1,1.15.65c5.22,14.88,6.12,29.57,2.66,43.67A1,1,0,0,1,1698.34,1463.41Zm-1.1-35.4,1.6,26.19A72.83,72.83,0,0,0,1697.24,1428Z"/><path fill="#dfdfdf" d="M1691.91,1357.3l.09,1.45A3.44,3.44,0,0,0,1691.91,1357.3Z"/><path fill="#aaa" d="M1692,1359.75h0a1,1,0,0,1-1-.94l-.09-1.45a1,1,0,0,1,1.89-.51,3.75,3.75,0,0,1,.19,2A1,1,0,0,1,1692,1359.75Z"/><path fill="#f5b0a6" d="M1681.9,1393.77a90,90,0,0,1,13.8,25.54l-3.7-60.56C1691.39,1365.88,1681.9,1393.77,1681.9,1393.77Z"/><path fill="#f18a8b" d="M1695.7,1420.31a1,1,0,0,1-.94-.67,89.8,89.8,0,0,0-13.63-25.23,1,1,0,0,1-.18-1c.09-.27,9.46-27.85,10-34.77a1,1,0,0,1,1-.92h0a1,1,0,0,1,1,.94l3.71,60.56a1,1,0,0,1-.8,1ZM1683,1393.56a89.44,89.44,0,0,1,11.3,19.45l-2.87-46.75C1688.9,1376,1684,1390.55,1683,1393.56Z"/><polygon fill="#f5b0a6" points="1184.64 1342.74 1178.64 1406.79 1077.89 1402.78 1108.59 1300.04 1184.64 1342.74"/><g clip-path="url(#b)"><path fill="#f18a8b" d="M1106.72,1259.81s.68,113.36,111,126.3L1216,1303Z"/><path fill="#f18a8b" d="M1054.64,1412.66l160.68,18.72,5.1-36.42C1095.49,1359.21,1054.64,1412.66,1054.64,1412.66Z"/></g><path fill="#f19a6d" d="M687.47,1883l238.6,0,50.62-195.26s31.5,128.42,33.15,195.22l331.14.13c-6.67-35.46-17.81-98.69-18.5-112.33-1-19.53,22.47-116.24,22.47-116.24s199.27,151.41,247.14,129c6.17-2.9,14.48-8.19,24.05-15.37,64.67-48.56,187.41-183.88,104.88-256.19-26.19-22.94-50.18-49.43-70.13-58.37-52.23-23.42-83.14,8.52-100.81,54.46-24.42,63.49-17.58,91.82-17.58,91.82s-152.38-150.43-227.6-158.24-92.9-18.11-92.9-18.11,8.67-23.36-8-28-126.76-14.69-132.1,18.68c0,0-95.6,32.83-142.78,48.7S836,1596.9,836,1596.9s-103.55,241.27-131.87,254C694.65,1855.12,689.78,1869.32,687.47,1883Z"/><g clip-path="url(#c)"><path fill="#f3ce90" d="M1242.46,1392.32s-17.31,195.35-56.87,254.7c0,0-159.5-187.93-174.34-247.28l-284.37,56.88s-117.46,479.72-115,481,353.61-17.31,353.61-17.31l16.08-119.93s178-9.89,212.66-113.75c0,0,103.86,96.44,175.57,108.8l263.36,49.46,200.3-278.19-48.22-185.47s-253.47-53.16-254.71-49.45-34.62,155.79-34.62,155.79Z"/><g clip-path="url(#d)"><path fill="#fff" d="M1160.69,1794a2,2,0,0,1-1.3-3.52,60.74,60.74,0,0,0,7.95-8.35,2,2,0,1,1,3.12,2.49,63.64,63.64,0,0,1-8.48,8.91A2,2,0,0,1,1160.69,1794Zm15.13-18.42a2,2,0,0,1-1.07-.31,2,2,0,0,1-.62-2.76c2-3.11,4-6.56,6-10.26a2,2,0,0,1,3.52,1.9c-2,3.78-4.09,7.31-6.11,10.5A2,2,0,0,1,1175.82,1775.56Zm11.46-21.11a2,2,0,0,1-.86-.2,2,2,0,0,1-1-2.66c1.63-3.43,3.29-7.09,4.93-10.89a2,2,0,0,1,3.67,1.58c-1.66,3.85-3.33,7.56-5,11A2,2,0,0,1,1187.28,1754.45Zm9.54-22.07a1.89,1.89,0,0,1-.73-.14,2,2,0,0,1-1.12-2.6c1.41-3.56,2.85-7.32,4.28-11.18a2,2,0,0,1,3.75,1.39c-1.44,3.89-2.89,7.68-4.32,11.27A2,2,0,0,1,1196.82,1732.38Zm8.37-22.54a2.17,2.17,0,0,1-.66-.11,2,2,0,0,1-1.23-2.55c1.27-3.66,2.57-7.48,3.84-11.36a2,2,0,1,1,3.8,1.26c-1.28,3.89-2.58,7.73-3.86,11.41A2,2,0,0,1,1205.19,1709.84Zm7.53-22.83a1.8,1.8,0,0,1-.6-.1,2,2,0,0,1-1.31-2.5c1.17-3.71,2.35-7.57,3.52-11.47a2,2,0,1,1,3.83,1.15c-1.17,3.92-2.36,7.8-3.53,11.51A2,2,0,0,1,1212.72,1687Zm6.92-23a1.85,1.85,0,0,1-.56-.08,2,2,0,0,1-1.36-2.47q1.65-5.73,3.26-11.55a2,2,0,0,1,3.86,1.07c-1.08,3.89-2.18,7.76-3.28,11.58A2,2,0,0,1,1219.64,1664Zm6.43-23.16a2.4,2.4,0,0,1-.52-.07,2,2,0,0,1-1.41-2.45q1.54-5.77,3.06-11.61a2,2,0,1,1,3.87,1q-1.52,5.85-3.07,11.63A2,2,0,0,1,1226.07,1640.82Zm6-23.27a2.12,2.12,0,0,1-.49-.06,2,2,0,0,1-1.45-2.43q1.47-5.8,2.89-11.65a2,2,0,1,1,3.89.95q-1.44,5.85-2.9,11.68A2,2,0,0,1,1232.11,1617.55Zm5.71-23.35a1.82,1.82,0,0,1-.46-.06,2,2,0,0,1-1.49-2.41q1.39-5.85,2.75-11.71a2,2,0,1,1,3.9.9q-1.37,5.86-2.76,11.74A2,2,0,0,1,1237.82,1594.2Zm5.43-23.45a1.65,1.65,0,0,1-.44,0,2,2,0,0,1-1.51-2.39q1.32-5.85,2.6-11.68a2,2,0,0,1,3.91.86q-1.29,5.84-2.61,11.7A2,2,0,0,1,1243.25,1570.75Zm5.16-23.44a2.06,2.06,0,0,1-.42,0,2,2,0,0,1-1.53-2.38q1.27-5.9,2.5-11.75a2,2,0,1,1,3.91.83q-1.23,5.85-2.5,11.76A2,2,0,0,1,1248.41,1547.31Zm5-23.52a1.9,1.9,0,0,1-.41,0,2,2,0,0,1-1.55-2.37q1.21-5.93,2.4-11.77a2,2,0,0,1,3.92.79q-1.18,5.85-2.41,11.79A2,2,0,0,1,1253.37,1523.79Zm4.75-23.57a1.72,1.72,0,0,1-.39,0,2,2,0,0,1-1.57-2.35q1.17-6,2.3-11.79a2,2,0,1,1,3.93.76q-1.12,5.82-2.31,11.81A2,2,0,0,1,1258.12,1500.22Zm4.57-23.61a1.55,1.55,0,0,1-.37,0,2,2,0,0,1-1.6-2.33q1.14-6,2.22-11.82a2,2,0,1,1,3.93.73q-1.08,5.8-2.22,11.83A2,2,0,0,1,1262.69,1476.61Zm4.39-23.65-.36,0a2,2,0,0,1-1.61-2.33q1.11-6.07,2.14-11.83a2,2,0,1,1,3.93.7q-1,5.76-2.13,11.85A2,2,0,0,1,1267.08,1453Zm4.23-23.69-.35,0a2,2,0,0,1-1.62-2.32q1.08-6.18,2.05-11.85a2,2,0,0,1,3.94.67q-1,5.68-2,11.87A2,2,0,0,1,1271.31,1429.27Zm4.06-23.74-.33,0a2,2,0,0,1-1.64-2.3q1.08-6.45,2-11.89a2,2,0,1,1,4,.65c-.59,3.62-1.25,7.6-2,11.9A2,2,0,0,1,1275.37,1405.53Zm3.89-23.81-.32,0a2,2,0,0,1-1.66-2.29c1.23-7.71,1.87-12,1.87-12a2,2,0,1,1,3.95.59s-.64,4.3-1.87,12A2,2,0,0,1,1279.26,1381.72Z"/><path fill="#fff" d="M1208.84,1733.66a2,2,0,0,1-1.21-.41c-1.88-1.44-4-3.19-6.19-5.2a2,2,0,0,1,2.69-3c2.14,1.94,4.13,3.62,5.93,5a2,2,0,0,1-1.22,3.59Zm-14.7-13.47a2,2,0,0,1-1.43-.61c-2.59-2.64-5.38-5.61-8.3-8.81a2,2,0,1,1,2.95-2.7c2.9,3.17,5.66,6.11,8.21,8.72a2,2,0,0,1,0,2.83A2,2,0,0,1,1194.14,1720.19Zm-16.25-17.76a2,2,0,0,1-1.51-.69c-2.5-2.87-5.14-6-7.84-9.17a2,2,0,0,1,3-2.57c2.69,3.19,5.32,6.26,7.81,9.11a2,2,0,0,1-.2,2.83A2.05,2.05,0,0,1,1177.89,1702.43Zm-15.51-18.4a2,2,0,0,1-1.55-.73c-2.48-3-5-6.15-7.59-9.35a2,2,0,1,1,3.11-2.51q3.86,4.8,7.57,9.32a2,2,0,0,1-.27,2.82A2.05,2.05,0,0,1,1162.38,1684Zm-15.08-18.74a2,2,0,0,1-1.57-.75q-3.68-4.65-7.43-9.47a2,2,0,1,1,3.15-2.46q3.75,4.82,7.42,9.44a2,2,0,0,1-1.57,3.24Zm-14.79-19a2,2,0,0,1-1.58-.78q-3.63-4.71-7.32-9.55a2,2,0,0,1,3.19-2.43q3.67,4.85,7.3,9.54a2,2,0,0,1-.37,2.81A2,2,0,0,1,1132.51,1646.33ZM1118,1627.2a2,2,0,0,1-1.6-.79q-3.6-4.77-7.23-9.62a2,2,0,0,1,3.21-2.4q3.62,4.86,7.21,9.61a2,2,0,0,1-1.59,3.2Zm-14.4-19.25a2,2,0,0,1-1.61-.8l-7.15-9.67a2,2,0,1,1,3.22-2.38c2.38,3.24,4.77,6.46,7.14,9.66a2,2,0,0,1-.41,2.8A2,2,0,0,1,1103.55,1608Zm-14.27-19.35a2,2,0,0,1-1.61-.82q-3.54-4.83-7.09-9.71a2,2,0,0,1,3.23-2.35q3.54,4.86,7.09,9.7a2,2,0,0,1-.44,2.8A2,2,0,0,1,1089.28,1588.6Zm-14.14-19.43a2,2,0,0,1-1.62-.83q-3.54-4.87-7.06-9.77a2,2,0,0,1,3.25-2.34q3.51,4.89,7,9.77a2,2,0,0,1-1.62,3.17Zm-14.06-19.53a2,2,0,0,1-1.63-.83l-7-9.75a2,2,0,1,1,3.25-2.32l7,9.74a2,2,0,0,1-1.62,3.16Zm-13.94-19.53a2,2,0,0,1-1.64-.84l-7-9.81a2,2,0,1,1,3.26-2.31l7,9.8a2,2,0,0,1-.47,2.79A2,2,0,0,1,1047.14,1530.11Zm-13.89-19.63a2,2,0,0,1-1.64-.84l-6.92-9.84a2,2,0,0,1,3.28-2.3q3.42,4.88,6.91,9.83a2,2,0,0,1-.48,2.79A2,2,0,0,1,1033.25,1510.48Zm-13.82-19.67a2,2,0,0,1-1.64-.85l-6.89-9.86a2,2,0,1,1,3.28-2.29q3.39,4.86,6.89,9.85a2,2,0,0,1-1.64,3.15Zm-13.76-19.72a2,2,0,0,1-1.64-.86l-6.86-9.88a2,2,0,0,1,3.29-2.28l6.86,9.88a2,2,0,0,1-.51,2.78A2,2,0,0,1,1005.67,1471.09ZM992,1451.32a2,2,0,0,1-1.64-.86l-6.83-9.91a2,2,0,0,1,3.29-2.27l6.83,9.9a2,2,0,0,1-1.65,3.14Zm-13.64-19.82a2,2,0,0,1-1.65-.87l-6.81-9.93a2,2,0,1,1,3.3-2.26l6.81,9.93a2,2,0,0,1-.52,2.78A2,2,0,0,1,978.33,1431.5Zm-13.6-19.87a2,2,0,0,1-1.65-.88l-6.79-10a2,2,0,1,1,3.31-2.25l6.78,10a2,2,0,0,1-.52,2.78A2,2,0,0,1,964.73,1411.63Zm-13.55-20a2,2,0,0,1-1.66-.88c-4.39-6.48-6.8-10.08-6.8-10.08a2,2,0,1,1,3.32-2.23s2.41,3.6,6.79,10.07a2,2,0,0,1-1.65,3.12Z"/></g></g><path fill="#5681bf" d="M1289.82,1287.9H1238a4.3,4.3,0,0,0-4.3,4.31v57.18a4.3,4.3,0,0,0,4.3,4.3h51.86a4.31,4.31,0,0,0,4.31-4.3v-57.18A4.31,4.31,0,0,0,1289.82,1287.9Zm-4.3,57.18h-43.25v-48.57h43.25Z"/><path fill="#f5b0a6" d="M1239.13,1165.32l-69.43-41.44-79.11,43.59s-3.23,94.72,2.15,114.63,57.59,105.48,137.77,67.82c23.36-11,33.84-31.21,37-54.4,1.87-13.78,1.12-28.61-1.07-43.15C1259.66,1207.45,1239.13,1165.32,1239.13,1165.32Z"/><path d="M1269.81,1215.37l-23.68-61.89-79.65-43.59-89.88,50.59s15.61,145.3,2.15,150.15c0,0,33.37-12.38,33.37-51.67s-8.07-77.49,22.06-66.19c0,0,2.7-39.83,38.22-30.14s87.18,66.2,97.41,54.36S1269.81,1215.37,1269.81,1215.37Z"/><path fill="#f5b0a6" d="M1058.3,1253c-12.91,16.69,17.22,56.51,40.36,44.13l-4.3-28S1071.22,1236.36,1058.3,1253Z"/><path d="M1180.5,1245.22c-2.6.62-3.76,5.11-2.59,10s4.23,8.4,6.83,7.78,3.76-5.11,2.59-10S1183.1,1244.6,1180.5,1245.22Z"/><path d="M1244,1229.93c-2.6.62-3.77,5.1-2.6,10s4.23,8.4,6.84,7.78,3.76-5.11,2.59-10S1246.6,1229.31,1244,1229.93Z"/><path d="M1156.52,1233.7h-.07a1,1,0,0,1-.93-1.06c.79-12.26,4.15-19.59,10-21.78,10.17-3.83,23.75,9.59,24.32,10.16a1,1,0,0,1,0,1.42,1,1,0,0,1-1.41,0c-.14-.13-13.25-13.08-22.2-9.71-5,1.89-7.94,8.63-8.68,20A1,1,0,0,1,1156.52,1233.7Z"/><path d="M1227.32,1216.41h-.06a1,1,0,0,1-.94-1.06c.75-11.59,3.8-18.78,9-21.38,4.54-2.25,10.69-1,17.78,3.76a1,1,0,0,1-1.1,1.66c-4.51-3-10.91-6.05-15.8-3.63-4.56,2.26-7.23,8.89-7.93,19.72A1,1,0,0,1,1227.32,1216.41Z"/><path d="M1230.65,1284.56a1,1,0,0,1-.78-.37,1,1,0,0,1,.15-1.41l7.56-6a3.12,3.12,0,0,0,0-4.89l-10.5-8.11a1,1,0,0,1,1.23-1.58l10.49,8.11a5.12,5.12,0,0,1,.07,8l-7.56,6A1,1,0,0,1,1230.65,1284.56Z"/><path d="M1223.31,1310.53a24.65,24.65,0,0,1-6.91-1.07,1,1,0,0,1-.67-1.25,1,1,0,0,1,1.24-.67c15.75,4.63,19.87-8.41,20-9a1,1,0,0,1,1.92.57C1238.88,1299.27,1235.39,1310.53,1223.31,1310.53Z"/><circle cx="1161.5" cy="1303.51" r="21.61" fill="#dfdfdf" transform="rotate(-13.28 1161.758 1303.715)"/><g clip-path="url(#e)"><rect width="63.32" height="61.79" x="1131.4" y="1272.24" fill="#f18a8b"/></g><path fill="#dfdfdf" d="M1246.28,1273.93a21.59,21.59,0,0,0,21.19,21.59c1.87-13.78,1.12-28.61-1.07-43.15A21.59,21.59,0,0,0,1246.28,1273.93Z"/><g clip-path="url(#f)"><rect width="54.64" height="72" x="1236.59" y="1238.53" fill="#f18a8b"/></g><path fill="#5681bf" d="M1118.62,1287.9h-51.86a4.31,4.31,0,0,0-4.31,4.31v57.18a4.31,4.31,0,0,0,4.31,4.3h51.86a4.31,4.31,0,0,0,4.3-4.3v-57.18A4.31,4.31,0,0,0,1118.62,1287.9Zm-4.31,57.18h-43.25v-48.57h43.25Z"/><path d="M1003.84,1336.73l-74.73,126.1c41.37-15.34,67.39-7.34,67.39-7.34,164.79,6.67,97.41-201.49,97.41-201.49Z"/><path fill="#1c497f" d="M1542.81,972.66H1344.5a34.33,34.33,0,0,0-34.32,34.32v137.28a34.33,34.33,0,0,0,34.32,34.33H1414c3.35,11.81,1.27,28.39-.37,37.7a3.25,3.25,0,0,0,5,3.27c16.09-10.88,25.73-28.34,31-41h93.28a34.33,34.33,0,0,0,34.31-34.33V1007A34.32,34.32,0,0,0,1542.81,972.66Z"/><path fill="#fff" d="M1524.58,1006.56H1362.72a8.05,8.05,0,1,0,0,16.1h161.86a8.05,8.05,0,1,0,0-16.1Z"/><rect width="177.96" height="16.1" x="1354.67" y="1047.24" fill="#fff" rx="8.05"/><path fill="#fff" d="M1524.58,1087.91H1362.72a8,8,0,0,0,0,16.1h161.86a8,8,0,1,0,0-16.1Z"/><path fill="#fff" d="M1452.8,1128.59h-90.08a8,8,0,0,0,0,16.1h90.08a8.05,8.05,0,0,0,0-16.1Z"/><path fill="#99b1da" d="M2749.56,2017.78H1885c-18.43,0-33.94,13.5-36.1,31.4l-58.08,481.38-22,182.34c-2.55,21.15,14.34,39.73,36.1,39.73h864.6a36.85,36.85,0,0,0,6.35-.54,35.91,35.91,0,0,0,29.76-30.85l80.08-663.72C2788.21,2036.37,2771.32,2017.78,2749.56,2017.78Z" opacity=".53"/><path fill="#5681bf" d="M2693.7,2693h-.57l-298.33-5.35a27.23,27.23,0,0,1-20.31-9.22,28.36,28.36,0,0,1-6.58-22.27l40-342.9c2-17,17.25-30.88,34-30.88H2741.7a27.73,27.73,0,0,1,21.1,9.17,28.18,28.18,0,0,1,6.68,22.42L2728,2662.28C2726,2679.31,2710.66,2693,2693.7,2693ZM2442,2284.33c-15.8,0-30.17,13.06-32,29.11l-40,342.9a26.37,26.37,0,0,0,6.11,20.72,25.21,25.21,0,0,0,18.84,8.54l298.33,5.35c16.21.24,30.94-12.68,32.86-28.91l41.46-348.35a26.23,26.23,0,0,0-6.18-20.86,25.77,25.77,0,0,0-19.61-8.5Z"/><path fill="#fff" d="M2723.46,2301.42l-267.89-.21c-16.34,0-31.14,13.41-33.08,30l-35.93,307.52c-1.93,16.51,9.68,30.11,26,30.39l266.75,4.57c16.69.28,31.85-13.06,33.84-29.8l37.1-312C2752.21,2315.07,2740.22,2301.43,2723.46,2301.42Z"/><path fill="#d1dbed" d="M2538.39,2332.26l-62.46-.13c-15.73,0-30,12.85-31.84,28.78l-29.92,255.76c-1.86,15.87,9.32,28.94,25,29.19l62.24,1c15.78.26,30.11-12.47,32-28.43l30.27-257.11C2565.55,2345.3,2554.22,2332.29,2538.39,2332.26Z"/><path fill="#fff" d="M2544.82,2360.44h0l-81-.26a3.5,3.5,0,0,1,0-7h0l81,.26a3.5,3.5,0,0,1,0,7Z"/><path fill="#fff" d="M2541.34,2390h0l-81-.37a3.5,3.5,0,0,1,0-7h0l81,.37a3.5,3.5,0,0,1,0,7Z"/><path fill="#fff" d="M2537.87,2419.52h0l-81-.47a3.5,3.5,0,1,1,0-7l81,.47a3.5,3.5,0,0,1,0,7Z"/><path fill="#fff" d="M2534.4,2449h0l-81-.58a3.5,3.5,0,0,1,.05-7l81,.58a3.5,3.5,0,0,1,0,7Z"/><path fill="#fff" d="M2530.93,2478.55h0l-80.94-.68a3.5,3.5,0,0,1,0-7h0l80.94.68a3.5,3.5,0,0,1,0,7Z"/><path fill="#fff" d="M2527.46,2508.05h0l-80.91-.79a3.5,3.5,0,0,1,0-7h0l80.91.79a3.5,3.5,0,0,1,0,7Z"/><path d="M2524,2537.54h0l-80.88-.9a3.5,3.5,0,0,1,0-7h0l80.88.9a3.5,3.5,0,0,1,0,7Z"/><path d="M2520.52,2567h0l-80.86-1a3.5,3.5,0,0,1,.09-7l80.85,1a3.5,3.5,0,0,1,0,7Z"/><path d="M2517.06,2596.48h0l-80.83-1.1a3.5,3.5,0,0,1,.05-7h.05l80.82,1.1a3.5,3.5,0,0,1,0,7Z"/><path d="M2513.59,2625.94h-.05l-80.8-1.21a3.5,3.5,0,0,1,.05-7h.05l80.8,1.21a3.5,3.5,0,0,1,0,7Z"/><path fill="#b5cae8" d="M2647.09,2393.25l7.56-63.91c-34.17,1.14-64.62,29.16-68.69,63.61-4.15,35.21,20.81,64,55.84,64.21,34.38.27,65.73-27,71-61.3l-63.71-.31A2,2,0,0,1,2647.09,2393.25Z"/><path fill="#5681bf" d="M2663.71,2325.31l-7.3,61.65,61.47.28C2720.69,2353.64,2697,2326.56,2663.71,2325.31Z"/><path fill="#d1dbed" d="M2693.49,2470.63l-102.25-.84a9.25,9.25,0,0,0-9,8,7.11,7.11,0,0,0,7.09,8.19l102.24.91a9.33,9.33,0,0,0,9.1-8.08A7.16,7.16,0,0,0,2693.49,2470.63Z"/><path fill="#d1dbed" d="M2690.4,2496.71l-102.23-1a9.24,9.24,0,0,0-9,8,7.12,7.12,0,0,0,7.09,8.19l102.21,1a9.31,9.31,0,0,0,9.09-8.07h0A7.16,7.16,0,0,0,2690.4,2496.71Z"/><path fill="#d1dbed" d="M2687.31,2522.78l-102.2-1.07a9.2,9.2,0,0,0-9,8,7.13,7.13,0,0,0,7.09,8.2l102.17,1.14a9.28,9.28,0,0,0,9.09-8.05h0A7.17,7.17,0,0,0,2687.31,2522.78Z"/><path fill="#d1dbed" d="M2684.21,2548.85l-102.16-1.19a9.19,9.19,0,0,0-9,8h0a7.13,7.13,0,0,0,7.08,8.2l102.15,1.26a9.26,9.26,0,0,0,9.09-8A7.18,7.18,0,0,0,2684.21,2548.85Z"/><path fill="#d1dbed" d="M2681.12,2574.9,2579,2573.6a9.18,9.18,0,0,0-9,8,7.14,7.14,0,0,0,7.08,8.21l102.12,1.38a9.27,9.27,0,0,0,9.09-8A7.19,7.19,0,0,0,2681.12,2574.9Z"/><path fill="#d1dbed" d="M2678,2601l-102.1-1.42a9.17,9.17,0,0,0-9,8,7.15,7.15,0,0,0,7.08,8.22l102.09,1.49a9.23,9.23,0,0,0,9.08-8h0A7.19,7.19,0,0,0,2678,2601Z"/><path fill="#d1dbed" d="M2674.94,2627l-102.07-1.54a9.15,9.15,0,0,0-9,8,7.15,7.15,0,0,0,7.08,8.22l102.05,1.62a9.23,9.23,0,0,0,9.08-8A7.19,7.19,0,0,0,2674.94,2627Z"/><path d="M2250.75,1893.62s-21.64,15.74-47.21,12.79-66.89,36.39-66.89,36.39a52.72,52.72,0,0,1-41.31,12.79c-25.57-2.95-41.31,21.64-51.15,43.28s-27.54,18.69-46.23,28.52-20.65,39.35-32.46,43.28-14.75,6.89-14.75,6.89,48.2,48.19,59,80.65,54.09,43.28,65.9,65.91,30.49,38.36,50.16,46.23S2174,2291,2190.75,2292s28.52,16.73,28.52,16.73l106.23-183.94c2.95-4.92,18.69-67.87-1-96.39S2247.8,1920.18,2250.75,1893.62Z"/><path fill="#dfdfdf" d="M2332.07,2137.45l43.12,39.06s-18.26,32.48-32.47,42.12l-11.16-60.38Z"/><g clip-path="url(#g)"><rect width="113.36" height="127.92" x="2298.21" y="2104.83" fill="#d87d82"/></g><polygon fill="#f5b0a6" points="2210.06 2248.58 2199.82 2345 2299.66 2339.88 2309.9 2254.55 2210.06 2248.58"/><g clip-path="url(#h)"><path fill="#dfdfdf" d="M2347.57,2324.66l12.26-69.45L2198.47,2231S2194.38,2296.75,2347.57,2324.66Z"/></g><path fill="#f5b0a6" d="M2320.59,2064.77,2269.44,2050l-102.3,64.91s-4.92,135.74-4.92,138.69,64.92,41.32,149.51,29.51,11.81-189.84,11.81-189.84Z"/><path d="M2320,2053.87l-44.18-41.67-96.41-1.51-52.23,95.91,7,148.13,75.83,30.13c19.58-8.54-.51-104.45-.51-104.45s30.13-40.67,49.72-65.78,23.09-34.64,49.21-30.13,20.08-7.53,20.08-7.53Z"/><path fill="#fff" d="M2176.91,2217.06a1,1,0,0,1-.44-.1c-.46-.23-11.48-5.93-28.5-31-6.73-9.9-19.1-15-32.2-20.4-19.39-8-41.37-17.06-49.28-44.16a178.54,178.54,0,0,0-23.3-50.06,111.51,111.51,0,0,0-13.58-16.78,1,1,0,0,1,0-1.41,1,1,0,0,1,1.41-.05c.25.24,6.2,5.86,13.83,17.06a180.31,180.31,0,0,1,23.61,50.68c7.64,26.17,28.22,34.66,48.12,42.87,13.38,5.52,26,10.73,33.09,21.12,16.67,24.51,27.64,30.25,27.74,30.3a1,1,0,0,1-.45,1.89Z"/><path fill="#fff" d="M2202,2144.76a1,1,0,0,1-.89-.54c-.06-.13-7.12-13.35-25.61-21.13-20.24-8.53-53.42-33.26-61.84-66.46-8.33-32.84-39.36-49.91-39.68-50.08a1,1,0,0,1-.4-1.36,1,1,0,0,1,1.35-.4c.32.17,32.12,17.67,40.67,51.35,8.24,32.49,40.8,56.73,60.68,65.1,19.19,8.08,26.32,21.49,26.61,22.06a1,1,0,0,1-.43,1.34A1,1,0,0,1,2202,2144.76Z"/><path fill="#fff" d="M2240.69,2095.55a1,1,0,0,1-.45-.11c-1-.48-23.51-11.91-32.09-30.09-4-8.53-13.1-13-21.88-17.39-9.38-4.65-18.25-9-19.88-18-2.95-16.23-18.82-46.11-19-46.41a1,1,0,0,1,.41-1.35,1,1,0,0,1,1.36.41c.65,1.24,16.17,30.46,19.18,47,1.45,8,9.88,12.15,18.8,16.58,9.08,4.51,18.47,9.16,22.8,18.32,8.29,17.57,30.95,29.05,31.17,29.16a1,1,0,0,1-.44,1.9Z"/><path fill="#fff" d="M2280.86,2067.43a1,1,0,0,1-.37-.07c-1-.38-23.64-9.43-27.22-26.33-2.1-9.89-11.11-17.8-19.83-25.45-5.52-4.85-11.24-9.86-15.16-15.36-10.06-14.08-18.88-64.55-19.25-66.69a1,1,0,0,1,.81-1.15,1,1,0,0,1,1.16.81c.09.52,9.11,52.16,18.91,65.87,3.79,5.31,9.41,10.24,14.85,15,9,7.86,18.23,16,20.46,26.53,3.36,15.85,25.78,24.8,26,24.89a1,1,0,0,1-.36,1.93Z"/><path fill="#fff" d="M2198.62,2173c-6.59,25.88,13.19,55.82,45.67,52.77l-10.66-59.87S2205.22,2147.09,2198.62,2173Z"/><path fill="#f5b0a6" d="M2198.62,2173c-6.59,25.88,13.19,55.82,45.67,52.77l-10.66-59.87S2205.22,2147.09,2198.62,2173Z"/><path fill="#f18a8b" d="M2239.72,2227a42,42,0,0,1-32.65-14.86,44.63,44.63,0,0,1-9.42-39.37h0c1.76-6.91,5.21-11.4,10.26-13.35,11.05-4.26,25.66,5.25,26.27,5.66a1,1,0,0,1,.44.66l10.65,59.87a1,1,0,0,1-.19.78,1,1,0,0,1-.7.39C2242.81,2226.87,2241.25,2227,2239.72,2227Zm-40.13-53.74h0a42.57,42.57,0,0,0,9,37.58c8.6,10.06,20.82,15,34.52,14l-10.39-58.36c-2.27-1.41-14.9-8.78-24.1-5.23C2204.22,2162.94,2201.18,2167,2199.59,2173.21Z"/><circle cx="2314.31" cy="2190.72" r="24.35" fill="#dfdfdf" transform="rotate(-22.5 2314.316 2190.732)"/><g clip-path="url(#i)"><rect width="65.87" height="73.53" x="2282.13" y="2156.92" fill="#f18a8b"/></g><path fill="#40947e" d="M2232.84,2319.09c-116.73-.48-185.55,102.17-225.65,215.32-27.6,77.82-41.6,160.62-48.27,218.22h710.55a36.85,36.85,0,0,0,6.35-.54C2599.08,2604.93,2425.62,2319.88,2232.84,2319.09Z"/><path fill="#27755f" d="M2443,2752.63h-33.88c-6.43-27.54-11.73-54.77-15-72.51a2.61,2.61,0,0,1,4.87-1.69C2408.82,2697.05,2425.68,2725,2443,2752.63Z"/><path fill="#3d5891" d="M2007.19,2534.41a69.21,69.21,0,0,0-22.8-3.85H1790.77l-22,182.34c-2.55,21.15,14.34,39.73,36.1,39.73h301.39l-55.76-173.84A69.47,69.47,0,0,0,2007.19,2534.41Z" opacity=".64"/><path fill="#b5cae8" d="M2659.25,1979.76H2461a34.33,34.33,0,0,0-34.32,34.32v137.28a34.33,34.33,0,0,0,34.32,34.33h69.45c3.34,11.81,1.27,28.39-.38,37.7a3.26,3.26,0,0,0,5,3.28c16.08-10.89,25.73-28.34,30.95-41h93.27a34.33,34.33,0,0,0,34.32-34.33V2014.08A34.33,34.33,0,0,0,2659.25,1979.76Z"/><path fill="#fff" d="M2641,2013.66H2479.17a8.05,8.05,0,0,0,0,16.1H2641a8.05,8.05,0,0,0,0-16.1Z"/><path fill="#fff" d="M2641,2054.34H2479.17a8.05,8.05,0,1,0,0,16.1H2641a8,8,0,0,0,0-16.1Z"/><path fill="#fff" d="M2641,2095H2479.17a8.06,8.06,0,0,0,0,16.11H2641a8.06,8.06,0,0,0,0-16.11Z"/><path fill="#fff" d="M2569.25,2135.69h-90.08a8.05,8.05,0,1,0,0,16.1h90.08a8,8,0,1,0,0-16.1Z"/><path fill="#99b1da" d="M4014,980.28h-198.3a34.33,34.33,0,0,0-34.32,34.32v137.28a34.33,34.33,0,0,0,34.32,34.33h69.45c3.35,11.81,1.27,28.39-.38,37.7a3.26,3.26,0,0,0,5,3.28c16.08-10.89,25.73-28.34,31-41H4014a34.33,34.33,0,0,0,34.32-34.33V1014.6A34.33,34.33,0,0,0,4014,980.28Z"/><path fill="#fff" d="M3995.74,1014.18H3833.88a8.05,8.05,0,0,0,0,16.1h161.86a8.05,8.05,0,1,0,0-16.1Z"/><path fill="#fff" d="M3995.74,1054.86H3833.88a8.05,8.05,0,0,0,0,16.1h161.86a8.05,8.05,0,1,0,0-16.1Z"/><path fill="#fff" d="M3995.74,1095.53H3833.88a8.06,8.06,0,0,0,0,16.11h161.86a8.06,8.06,0,0,0,0-16.11Z"/><path fill="#fff" d="M3924,1136.21h-90.08a8,8,0,0,0,0,16.1H3924a8,8,0,1,0,0-16.1Z"/><path fill="#f3ce90" d="M1931.18,2139.18H1758.37a35.91,35.91,0,0,0-35.8,33.16c-.06.9-.1,1.82-.1,2.75v98.74a35.9,35.9,0,0,0,35.9,35.9h172.81a35.9,35.9,0,0,0,35.9-35.9v-98.74a35.07,35.07,0,0,0-.34-5A35.91,35.91,0,0,0,1931.18,2139.18Z"/><path fill="#f19a6d" d="M1931.18,2139.18H1758.37a35.91,35.91,0,0,0-35.8,33.16c34.78,15.57,92,39.52,113.57,48.53a21.68,21.68,0,0,0,17.16-.21l113.44-50.52A35.91,35.91,0,0,0,1931.18,2139.18Z"/><path fill="#5681bf" d="M3976.81,1346.06H3784.43a22.89,22.89,0,0,0-22.91,22.87v632.3h255.75L4083.1,1466C4090.94,1402.26,4041.13,1346.06,3976.81,1346.06Z"/><polygon fill="#5681bf" points="3654.71 2131.31 3989.01 2131.31 4013.18 1997.02 3654.71 1997.02 3654.71 2131.31"/><rect width="335.46" height="40.64" x="3653.36" y="2131.31" fill="#bdbdbd"/><g clip-path="url(#j)"><rect width="596.47" height="358.75" x="3458.4" y="2046.61" fill="#3d5891"/></g><rect width="27.17" height="369.51" x="3770.92" y="2172.98" fill="#243354"/><polygon fill="#2f4171" points="3637.5 2537.22 3624.55 2587.48 3924.03 2587.48 3917.59 2537.22 3637.5 2537.22"/><polygon fill="#2f4171" points="3556.19 2690.35 3569.97 2690.35 3666.67 2537.22 3636.78 2537.22 3556.19 2690.35"/><ellipse cx="3563.54" cy="2692.84" fill="#243354" rx="34.44" ry="34.37"/><polygon fill="#2f4171" points="3888.15 2537.22 3984.86 2690.35 3998.64 2690.35 3918.05 2537.22 3888.15 2537.22"/><ellipse cx="3991.29" cy="2692.84" fill="#243354" rx="34.44" ry="34.37"/><polygon fill="#2f4171" points="3792.76 2678.39 3776.24 2678.39 3768.18 2587.48 3800.82 2587.48 3792.76 2678.39"/><g clip-path="url(#k)"><rect width="489.48" height="52.37" x="3534.45" y="2552.4" fill="#243354"/></g><ellipse cx="3784.5" cy="2692.57" fill="#243354" rx="34.44" ry="34.37"/><polygon fill="#f5b0a6" points="3635.47 1359.81 3635.47 1384.66 3613.87 1400.68 3638.36 1432.51 3746.37 1384.05 3702.76 1372.75 3704.61 1315.86 3635.47 1359.81"/><g clip-path="url(#l)"><path fill="#f18a8b" d="M3620,1382.22s63.72,13,79.33-52.79l-77.42,18.12Z"/></g><path fill="#f5b0a6" d="M3565.61,1287.8c1.16,12.21,3.47,24.85,7.64,36.37,8.26,22.84,23.82,41.31,52.3,43.42,79.46,5.87,88.08-75.69,88.08-75.69l11.14-42.18-157.66-21.4A267.17,267.17,0,0,0,3565.61,1287.8Z"/><path d="M3737.68,1219.06c-.91-.35-1.82-.7-2.71-1.1-14.56-6.51-141.1-63.6-155.36-89.1-15.13-27.07-94-.63-78.83,52.25s68.11,85.92,193.93,78.06c0,0,18.78-3.15.63,46.58s-.63,79,36.26,35.25C3768.11,1297.71,3779.92,1235.3,3737.68,1219.06Z"/><path fill="#f5b0a6" d="M3692.19,1306.8l-9.25,36.93c30.27-1,48.14-21.61,38.68-39.87S3692.19,1306.8,3692.19,1306.8Z"/><path d="M3599.58,1309.41h-.16c-4.64-.83-7.07-2.36-7.45-4.67-.87-5.3,10.87-11.87,12.21-12.6a.94.94,0,1,1,.9,1.64c-4.62,2.52-11.76,7.64-11.26,10.66.23,1.4,2.28,2.48,5.93,3.13a.93.93,0,0,1-.17,1.85Z"/><path d="M3606.39,1330.65a6.42,6.42,0,0,1-1.5-.19c-4.36-1.11-6.08-6.74-6.15-7a.93.93,0,0,1,.63-1.16.94.94,0,0,1,1.16.63s1.49,4.86,4.83,5.7c2.16.54,4.73-.66,7.65-3.57a.92.92,0,0,1,1.32,0,.94.94,0,0,1,0,1.32C3611.5,1329.22,3608.84,1330.65,3606.39,1330.65Z"/><path d="M3587.81,1269.08c-1.57,0-2.84,2.82-2.84,6.3s1.27,6.29,2.84,6.29,2.84-2.82,2.84-6.29S3589.38,1269.08,3587.81,1269.08Z"/><path d="M3641.84,1276.16c-1.57,0-2.84,2.82-2.84,6.3s1.27,6.29,2.84,6.29,2.84-2.82,2.84-6.29S3643.41,1276.16,3641.84,1276.16Z"/><path d="M3662.75,1274.26a.94.94,0,0,1-.93-.83c0-.14-1.62-14.33-9.46-18.15-7.52-3.66-14,7.18-14,7.29a.94.94,0,0,1-1.62-.94c2.51-4.32,9.19-11.56,16.46-8,8.77,4.27,10.44,19,10.51,19.63a1,1,0,0,1-.84,1Z"/><path d="M3571.65,1263.38a1,1,0,0,1-.3-.05.93.93,0,0,1-.59-1.18c.2-.6,5.08-14.6,14.58-16.84,7.88-1.85,12.79,6.68,14.28,11.45a.93.93,0,0,1-1.78.56c0-.12-3.92-12.11-12.07-10.19-8.49,2-13.19,15.48-13.24,15.62A.92.92,0,0,1,3571.65,1263.38Z"/><ellipse cx="3652.28" cy="1317.16" fill="#dfdfdf" rx="18.93" ry="18.89"/><g clip-path="url(#m)"><rect width="71.69" height="68.22" x="3625.68" y="1287.13" fill="#f18a8b"/></g><path fill="#dfdfdf" d="M3585,1306.69a18.89,18.89,0,0,1-11.74,17.48c-4.17-11.52-6.48-24.16-7.64-36.37h.46A18.9,18.9,0,0,1,3585,1306.69Z"/><g clip-path="url(#n)"><rect width="43.01" height="45.8" x="3554.47" y="1280.45" fill="#f18a8b"/></g><path fill="#40947e" d="M3589.62,1419.25S3507,1459,3412.08,1695.76l93.32,84.84,46.72-61.17Z"/><g clip-path="url(#o)"><path fill="#2e6857" d="M3464.09,1766.24l35.8,50.52,116-62.84,43.21-197.16-91.36-92.41S3465.32,1740.36,3464.09,1766.24Z" opacity=".3"/></g><path fill="#6fc183" d="M3609.34,1402.73s-53.08,35.74-67.89,81.74-46.09,154.44-40.33,457.57l332.49,6.57,4.94-478.1s2.12-62.84-23.28-73.12c-23-9.34-48.07-14.63-67.25-15.6l-107.81,44.77Z"/><g clip-path="url(#p)"><path fill="#2e6857" d="M3753.78,1531.3s-10.7,216.87-168.71,250.55l24.69,180.73L3892,1937.11l-49.38-374.6Z" opacity=".3"/></g><polygon fill="#f5b0a6" points="3480.43 1798.76 3504.75 1888.41 3569.25 1887.41 3549.41 1782.41 3480.43 1798.76"/><path fill="#40947e" d="M3800.26,1392.54,3736.82,1554s10.49,106.23-7.49,163.09S3536,1756,3536,1756l4.5,152.61,242.83,9c273.56,44.14,121.63-435.16,121.63-435.16C3870.71,1403.52,3800.26,1392.54,3800.26,1392.54Z"/><path fill="#40947e" d="M3603.86,1406.43l-13.75,50.22a1.83,1.83,0,0,0,2.92,1.85l47.25-32.49-15.64-33.48Z"/><path fill="#40947e" d="M3640.28,1426l36.94,49.93a5.94,5.94,0,0,0,9.48.08l71.37-93.48-37.48-5.68Z"/><path fill="#243354" d="M3521.32,1877.18H3218.07l-.12-.79-36.65-233.27a21.05,21.05,0,0,1,20.83-24.3h260.14a21,21,0,0,1,20.83,17.75Zm-301.65-1.86h299.46l-37.88-238.46a19.12,19.12,0,0,0-19-16.17H3202.13a19.18,19.18,0,0,0-19,22.14Z"/><path fill="#fff" d="M3338.28,1713.66c-17.67,0-30.24,14.45-28,32.68,2.28,18.71,19.17,34.24,37.68,34.24s30.93-15.53,27.8-34.24C3372.69,1728.11,3356,1713.66,3338.28,1713.66Z"/><path fill="#b3b3b3" d="M3555.3,1905.94H3218.14v-30.53H3555.3ZM3220,1904.08h333.42v-26.81H3220Z"/><g clip-path="url(#q)"><rect width="325" height="62.02" x="3194.58" y="1862.47" fill="#b3b3b3"/></g><polygon fill="#f5b0a6" points="3209.38 2548.51 3202.84 2633.35 3256.78 2656.74 3329.25 2629.55 3331.97 2544.16 3209.38 2548.51"/><g clip-path="url(#r)"><polygon fill="#f18a8b" points="3202.46 2576.63 3342.98 2576.39 3348.24 2529.88 3202.22 2539.9 3202.46 2576.63"/></g><path fill="#3d5891" d="M3208.61,2603.44s-7.57-30-26.89-16.84,1.91,22.25-13.36,34.44c0,0-65.66,49.66-68.24,71.19l-1,15.93a4.55,4.55,0,0,0,4.74,4.84l225.17-9.38a4.55,4.55,0,0,0,4.36-4.19c1.35-17.1,5.68-82.87-8.07-80.91-15.81,2.25-28.69,28.33-63.67,23.35S3211.23,2611.39,3208.61,2603.44Z"/><g clip-path="url(#s)"><path d="M3086.12,2727.08l258.53-8.24,2.18-35.81s-257.14,6.9-258.3,7.19Z"/><path d="M3152.29,2617.8a2.81,2.81,0,0,0-3,4.73c.23.15,22.9,14.67,27.27,29.27a2.82,2.82,0,0,0,2.08,1.94,2.94,2.94,0,0,0,1.41-.06,2.8,2.8,0,0,0,1.89-3.48C3177,2633.61,3153.29,2618.44,3152.29,2617.8Z"/><path d="M3125.49,2630.18a2.8,2.8,0,1,0-3,4.73c.23.15,22.9,14.66,27.26,29.27a2.81,2.81,0,0,0,5.38-1.61C3150.17,2646,3126.5,2630.82,3125.49,2630.18Z"/></g><polygon fill="#f5b0a6" points="3456.2 2523.23 3482.71 2604.11 3541.51 2605.09 3598.02 2552.27 3567.78 2472.35 3456.2 2523.23"/><g clip-path="url(#t)"><polygon fill="#f18a8b" points="3440.72 2510.32 3456.01 2555.64 3615.64 2502.69 3594.61 2433.99 3440.72 2510.32"/></g><path fill="#3d5891" d="M3476.57,2574.27s-18.52-24.86-31.31-5.27,10.31,19.82.88,36.92c0,0-41.61,71-35.73,91.84l5.16,15.11a4.57,4.57,0,0,0,6.24,2.67l204.4-94.75a4.53,4.53,0,0,0,2.42-5.53c-5.31-16.32-26.54-78.73-38.49-71.66-13.74,8.12-15.63,37.14-49.86,45.91S3482,2580.61,3476.57,2574.27Z"/><g clip-path="url(#u)"><path d="M3398.94,2700.34l11.91,35,235.66-106.43L3634.79,2595S3399.9,2699.63,3398.94,2700.34Z"/><path d="M3430.05,2609.07a2.8,2.8,0,1,0-1,5.52c.27,0,26.78,4.79,36.41,16.61a2.79,2.79,0,0,0,2.67,1,2.76,2.76,0,0,0,1.28-.58,2.8,2.8,0,0,0,.41-3.94C3458.91,2614.24,3431.22,2609.27,3430.05,2609.07Z"/><path d="M3410,2630.75a2.8,2.8,0,1,0-1,5.52c.26,0,26.78,4.79,36.41,16.61a2.8,2.8,0,0,0,2.67,1,2.8,2.8,0,0,0,1.68-4.53C3438.9,2635.91,3411.22,2631,3410,2630.75Z"/></g><polygon fill="#2c4da2" points="3529.13 2172.3 3599.32 2498.6 3393.75 2565.66 3322.55 2166.29 3529.13 2172.3"/><g clip-path="url(#v)"><path fill="#2c4c96" d="M3255.87,2029.12l-146.5,563.54,299.57,41.07,19.76-415.67c9.87,16.43,230.44,27.93,230.44,27.93l13.16-110.08-44.44-47.65Z"/></g><path fill="#2c4da2" d="M3164.12,2078.21c-28.08,158.14-21.06,488.45-21.06,488.45l250.69-1,24.07-372.35s408.13,135.13,460.27-207.19l-465.29,2S3192.19,1920.06,3164.12,2078.21Z"/><rect width="987.33" height="67.71" x="3069.25" y="1905.01" fill="#f3ce90"/><rect width="930.69" height="35.83" x="3097.56" y="1972.72" fill="#f19a6d"/><g clip-path="url(#w)"><rect width="1006.55" height="55.82" x="3073.18" y="1929.26" fill="#ef7c59"/></g><polygon fill="#ef7c59" points="3069.23 2736.31 3059.15 2736.31 3139.73 2008.55 3157.87 2008.55 3069.23 2736.31"/><g clip-path="url(#x)"><rect width="1038.09" height="44.37" x="3035.9" y="1980.78" fill="#e27156"/></g><polygon fill="#ef7c59" points="4056.59 2736.31 4066.67 2736.31 3986.08 2008.55 3967.95 2008.55 4056.59 2736.31"/><g clip-path="url(#y)"><rect width="1038.09" height="44.37" x="3035.9" y="1980.78" fill="#e57257"/></g><path fill="#40947e" d="M1240,2135.36c0-5.55-23.75-89.86,18-108.39s49.4-87.09,102.59-84.31,10.44,87.09,32.29,91.72,49.39,15.75,19.95,58.37-121.58,356.69-121.58,356.69-39,4.64-39,1.86S1240,2135.36,1240,2135.36Z"/><g clip-path="url(#z)"><path fill="#2e6857" d="M1344.8,2076.14c-59.29,8.56-20.49,113.52-29.28,105s-32.94,5.72-41.72,5.72,8.78-45.7,16.83-84.26-25.62-32.13-41-35.7-6.59-55-6.59-55L1196.21,2094l-4.39,381.27,112,7.85,60-248.47L1481,2036.15l-61.48-20S1404.09,2067.57,1344.8,2076.14Z" opacity=".3"/></g><path fill="#295b4c" d="M1242.81,2480.83h-.11A1.75,1.75,0,0,1,1241,2479c5.85-99.6,15.34-187.61,28.2-261.59,10.3-59.23,22.77-109.66,37.08-149.89,24.48-68.88,45.71-84,46.61-84.59a1.82,1.82,0,0,1,2.48.43,1.72,1.72,0,0,1-.44,2.42c-.41.29-21.61,15.85-45.64,83.87-40.32,114.14-57.46,285.72-64.73,409.55A1.77,1.77,0,0,1,1242.81,2480.83Z"/><path fill="#70c182" d="M1233.31,2460.56s-91.19-48.18-53.19-78.75-101.64-96.35-43.7-126-119.68-110.25-31.34-159.36c0,0,14.25,18.53,15.2-47.25s77.88-127.85,104.48-55.59c0,0,2.85,113,30.39,101.92s23.75,26.86,5.7,72.26-3.8,51,6.65,43.55,33.25,2.78,4.75,65.78,22.8,14.82,26.6,40.76-27.55,131.56-27.55,131.56Z"/><g clip-path="url(#A)"><path fill="#2e6857" d="M1260.62,2228.93c7.32,35,32.21,87.82,26.35,87.82s-49-1.42-37.33,37.13,49.78,140.66,49.78,140.66l84.18-25.71,13.91-194.2-101.75-86.4S1253.3,2194,1260.62,2228.93Z" opacity=".3"/></g><path fill="#295b4c" d="M1253.26,2464.15a1.78,1.78,0,0,1-1.56-.88c-24.58-42.42-77.75-411.12-80-426.8a1.75,1.75,0,0,1,1.52-2,1.77,1.77,0,0,1,2,1.48c.55,3.83,55.33,383.72,79.58,425.57a1.72,1.72,0,0,1-.68,2.37A1.84,1.84,0,0,1,1253.26,2464.15Z"/><path fill="#6fc183" d="M1339.69,2460.56s-25.65-163.06,35.14-164.91-5.7-123.23,75-126.93c0,0,37.05-6.49,41.79-34.28s27.55-25.94,35.15-16.68,36.09-92.65,109.23-71.34,8.55,88-9.5,108.4,1,22.24,18,20.38,69.34,26.87-14.25,60.23-76.94,55.58-54.14,59.29,13.3,34.28-57.94,52.81,4.75,32.43-30.4,47.25-61.73,64.86-61.73,64.86Z"/><g clip-path="url(#B)"><path fill="#2e6857" d="M1476.56,2135.4l-70.27-5.71-117.12,136.37,43.43,200.63c54.17-21.42,67.35-90.44,61-106.14s-19-8.1,20-38.56,40.5-67.59,21.47-74.26,29.28-31.89,60-66.16S1478,2134.92,1476.56,2135.4Z" opacity=".3"/></g><path fill="#295b4c" d="M1373.89,2476.2h-.16a1.74,1.74,0,0,1-1.62-1.88c3.57-40.26,45-118.46,123.18-232.44,58.13-84.76,116-158.71,116.54-159.44a1.8,1.8,0,0,1,2.49-.33,1.71,1.71,0,0,1,.34,2.44c-.58.73-58.35,74.6-116.42,159.28-53.5,78-118.2,181.39-122.58,230.79A1.77,1.77,0,0,1,1373.89,2476.2Z"/><path fill="#2e6857" d="M1481.22,2027.89c-70.29-22.23-83.59,86.17-119.68,69.49s-42.75,35.21-34.2,75-12.35,26.87-12.35,26.87c-102.58-34.28,25.65,141.76-32.29,126.93s23.75,125.08,23.75,125.08l19.94-2.78c44.64-31.5,73.14-78.75,40.84-85.24s6.65-38,6.65-38c63.64-38.91,73.14-66.7,53.2-65.78s-38.95-13,16.14-49.1,50.34-52.81,20-64.85S1551.5,2050.13,1481.22,2027.89Z"/><path fill="#295b4c" d="M1320.69,2481.76a1.77,1.77,0,0,1-1.71-1.28c-8.31-29.22-7.25-67.73,3.15-114.46,8.29-37.25,22.52-79.82,42.27-126.51a1330,1330,0,0,1,72.53-144.86,1.82,1.82,0,0,1,2.44-.63,1.72,1.72,0,0,1,.64,2.38,1324.47,1324.47,0,0,0-72.33,144.47c-19.67,46.5-33.83,88.86-42.07,125.91-10.28,46.16-11.35,84.1-3.2,112.77a1.73,1.73,0,0,1-1.24,2.14A1.59,1.59,0,0,1,1320.69,2481.76Z"/><polygon fill="#f19a6d" points="1409.22 2662.76 1200 2662.76 1183.47 2488.68 1425.75 2488.68 1409.22 2662.76"/><g clip-path="url(#C)"><rect width="305.2" height="75.35" x="1144.81" y="2457.41" fill="#ef7c59"/></g><path fill="#f3ce90" d="M1445.39,2434.22H1168.81c-12.83,0-23.23,10.14-23.23,22.66v28.59c0,12.51,10.4,22.66,23.23,22.66h276.58c12.83,0,23.24-10.15,23.24-22.66v-28.59C1468.63,2444.36,1458.22,2434.22,1445.39,2434.22Z"/><circle cx="1774.14" cy="609.28" r="241.85" fill="#f3ce90" transform="rotate(-45 1774.14 609.277)"/><g clip-path="url(#D)"><rect width="791.57" height="109.69" x="1347.47" y="548.45" fill="#fff" opacity=".3" transform="rotate(-58.42 1743.406 603.273)"/><rect width="646.88" height="54.84" x="1559.84" y="622.37" fill="#fff" opacity=".3" transform="rotate(-59.39 1883.38 649.772)"/><rect width="646.88" height="32.91" x="1331.32" y="538.12" fill="#fff" opacity=".3" transform="rotate(-59.39 1654.85 554.55)"/></g><path fill="#f19a6d" d="M1854.2,801.9c-106.21,44.15-228.53-6.35-272.68-112.56s6.34-228.54,112.56-272.68,228.53,6.34,272.68,112.55S1960.41,757.75,1854.2,801.9ZM1698.43,427.14C1598,468.89,1550.26,584.55,1592,685s157.41,148.18,257.85,106.43S1998,634,1956.28,533.57,1798.86,385.4,1698.43,427.14Z"/><g clip-path="url(#E)"><rect width="791.57" height="109.69" x="1347.47" y="548.45" fill="#a6a6a6" opacity=".5" transform="rotate(-58.42 1743.406 603.273)"/><rect width="646.88" height="54.84" x="1559.84" y="622.37" fill="#a6a6a6" opacity=".5" transform="rotate(-59.39 1883.38 649.772)"/><rect width="646.88" height="32.91" x="1331.32" y="538.12" fill="#a6a6a6" opacity=".5" transform="rotate(-59.39 1654.85 554.55)"/></g><path fill="#ef7c59" d="M1701.21,502.16l-14.66-31.55a3.33,3.33,0,0,1,1.74-4.48l46.18-19.19a3.33,3.33,0,0,1,4.45,2.06l9.67,30.42a3.34,3.34,0,0,0,4.18,2.16q27.87-8.54,59.86-5.74a3.36,3.36,0,0,1,3,3.3l.81,60.81a3.32,3.32,0,0,1-4.19,3.24q-29.16-8-57.91,4-21,8.73-14.82,23.52,3.21,7.71,14.53,6.26,2.85-.1,17.06-4.2,41.71-11.91,65.9-6.78,32.33,6.45,47.2,42.22,12.69,30.52,1.21,59.89-10.95,28-38.12,44.33a3.35,3.35,0,0,0-1.32,4.33l15.18,31.39a3.33,3.33,0,0,1-1.72,4.52L1816,770.69a3.32,3.32,0,0,1-4.42-2l-11.33-32.34a3.33,3.33,0,0,0-4.26-2q-34.44,11.88-78.63,4.08a3.34,3.34,0,0,1-2.75-3.21l-1.46-63.61a3.32,3.32,0,0,1,4.24-3.27q44.57,13.06,74.87.47,26.2-10.89,20.06-25.7-4.62-11.1-27-5.78l-14.15,3.36q-37.15,8.92-60.37,2.67-28.95-7.86-42.27-39.93-12.32-29.61-1.37-55.49,8.5-20.6,33.16-41.87A3.33,3.33,0,0,0,1701.21,502.16Z"/><g clip-path="url(#F)"><rect width="791.57" height="109.69" x="1347.47" y="548.45" fill="#a6a6a6" opacity=".5" transform="rotate(-58.42 1743.406 603.273)"/><rect width="646.88" height="54.84" x="1559.84" y="622.37" fill="#a6a6a6" opacity=".5" transform="rotate(-59.39 1883.38 649.772)"/><rect width="646.88" height="32.91" x="1331.32" y="538.12" fill="#a6a6a6" opacity=".5" transform="rotate(-59.39 1654.85 554.55)"/></g><circle cx="2118.28" cy="680.79" r="72" fill="#f3ce90" transform="rotate(-45 2118.282 680.789)"/><g clip-path="url(#G)"><rect width="235.67" height="32.66" x="1992.65" y="659.27" fill="#fff" opacity=".3" transform="matrix(.81 -.58 .58 .81 2.65 1359.42)"/><rect width="192.59" height="16.33" x="2047.31" y="696.29" fill="#fff" opacity=".3" transform="rotate(-36.69 2143.843 704.45)"/><rect width="192.59" height="9.8" x="1995.48" y="647.15" fill="#fff" opacity=".3" transform="rotate(-36.69 2092.017 652.034)"/></g><path fill="#f19a6d" d="M2118.14,742.89a62.11,62.11,0,1,1,62.24-62A62.17,62.17,0,0,1,2118.14,742.89Zm.27-120.83A58.73,58.73,0,1,0,2177,680.92,58.78,58.78,0,0,0,2118.41,622.06Z"/><g clip-path="url(#H)"><rect width="235.67" height="32.66" x="1992.65" y="659.27" fill="#a6a6a6" opacity=".5" transform="matrix(.81 -.58 .58 .81 2.65 1359.42)"/><rect width="192.59" height="16.33" x="2047.31" y="696.29" fill="#a6a6a6" opacity=".5" transform="rotate(-36.69 2143.843 704.45)"/><rect width="192.59" height="9.8" x="1995.48" y="647.15" fill="#a6a6a6" opacity=".5" transform="rotate(-36.69 2092.017 652.034)"/></g><path fill="#ef7c59" d="M2110.56,643l-.4-10.35a1,1,0,0,1,1-1l14.89,0a1,1,0,0,1,1,1.08l-.84,9.47a1,1,0,0,0,.9,1.07,46.49,46.49,0,0,1,17.1,5.3,1,1,0,0,1,.46,1.25l-6.76,16.8a1,1,0,0,1-1.53.41,25.94,25.94,0,0,0-16.36-5.57c-4.51,0-6.76,1.58-6.77,4.76,0,1.66,1.09,2.79,3.27,3.39a34.87,34.87,0,0,0,5.17.81q12.83,1.51,18.88,5.71,8.13,5.48,8.11,17a23,23,0,0,1-6.55,16.59,26.31,26.31,0,0,1-15.56,7.8,1,1,0,0,0-.86,1l.56,10.36a1,1,0,0,1-1,1.05l-14,0a1,1,0,0,1-1-1.05l.61-10.19a1,1,0,0,0-.94-1q-10.83-.7-22.07-7.92a1,1,0,0,1-.38-1.19l6.9-17.64a1,1,0,0,1,1.54-.41q10.76,8.7,20.51,8.73,8.46,0,8.47-4.76,0-3.57-6.75-4.69l-4.28-.7q-11.22-1.82-16.88-6.2-7-5.49-7-15.83,0-9.54,6-15.39,4.71-4.68,13.92-7.69A1,1,0,0,0,2110.56,643Z"/><g clip-path="url(#I)"><rect width="235.67" height="32.66" x="1992.65" y="659.27" fill="#a6a6a6" opacity=".5" transform="matrix(.81 -.58 .58 .81 2.65 1359.42)"/><rect width="192.59" height="16.33" x="2047.31" y="696.29" fill="#a6a6a6" opacity=".5" transform="rotate(-36.69 2143.843 704.45)"/><rect width="192.59" height="9.8" x="1995.48" y="647.15" fill="#a6a6a6" opacity=".5" transform="rotate(-36.69 2092.017 652.034)"/></g><circle cx="1443.65" cy="798.41" r="93.58" fill="#f3ce90" transform="rotate(-4.19 1443.876 798.602)"/><path fill="#f19a6d" d="M1467.26,721.23A80.71,80.71,0,1,0,1520.84,822,80.81,80.81,0,0,0,1467.26,721.23Zm49.37,99.5a76.32,76.32,0,1,1-50.66-95.3A76.39,76.39,0,0,1,1516.63,820.73Z"/><path fill="#ef7c59" d="M1468.76,755.06a1.28,1.28,0,0,1-.71-1.67l4.61-11.46a1.29,1.29,0,0,0-.82-1.71l-18.5-5.66a1.29,1.29,0,0,0-1.62.91l-3.41,13a1.3,1.3,0,0,1-1.22,1q-12.6.25-20.21,4.31-9.64,5-13.27,16.88-3.93,12.86,2.76,22.33,5.39,7.6,18.66,14.09l5,2.49q8,3.93,6.63,8.37-1.82,5.94-12.32,2.72-12.14-3.71-22.21-18.59a1.29,1.29,0,0,0-2.08-.07l-15.24,19.33a1.3,1.3,0,0,0,0,1.64q11.25,13.21,24.46,18.16a1.29,1.29,0,0,1,.77,1.65l-4.6,12.44a1.3,1.3,0,0,0,.84,1.68l17.41,5.32a1.27,1.27,0,0,0,1.62-.92l3.22-13.11a1.29,1.29,0,0,1,1.46-1,34.14,34.14,0,0,0,22.29-3.82,30,30,0,0,0,14.41-18.16q4.38-14.34-3.67-24.23-6-7.5-21.33-14.22a44.24,44.24,0,0,1-6.12-3q-3.74-2.36-2.79-5.44,1.82-5.94,10.21-3.37a33.73,33.73,0,0,1,18.25,13.1,1.28,1.28,0,0,0,2,.06l14.75-18.33a1.29,1.29,0,0,0-.1-1.73A60.49,60.49,0,0,0,1468.76,755.06Z"/></g></svg>