<svg xmlns="http://www.w3.org/2000/svg" viewBox="0 0 4680 3120"><defs><clipPath id="a"><rect width="2168.73" height="1540.04" x="1144.07" y="417.04" fill="#fff" rx="26.35"/></clipPath><clipPath id="b"><rect width="1338.61" height="689.22" x="1225.25" y="507.03" fill="#d1dbed"/></clipPath><clipPath id="c"><path fill="#5681bf" d="M3762.11,1333.34H3507.06V1218.55h255.05Zm-249.05-6h243.05V1224.55H3513.06Z"/></clipPath><clipPath id="d"><path fill="#99b1da" d="M3762.11,1617.22H3507.06V1502.44h255.05Zm-249.05-6h243.05V1508.44H3513.06Z"/></clipPath><clipPath id="e"><path fill="#f5b0a6" d="M3513.44,2414.88s3.06,63.82,13.78,79.13,70.46,62.8,82.2,55.65-17.87-45.44-17.87-45.44,87.3,54.63,114.87,38.29,31.14-25.52,24-39.82-127.12-122-127.12-122Z"/></clipPath><clipPath id="f"><path fill="#2f2f2f" d="M3605.33,2351.58l8.17,37.78s-96.9,53-115.38,37.77L3494,2396Z"/></clipPath><clipPath id="g"><path fill="#40947e" d="M3321,1597.94s68.73,1.88,104.34,86.88,163.12,492.79,199.88,523.81-16.09,165.52-16.09,165.52-104,42.39-129.52,37.8S3330,2024.84,3328.88,1889.29,3321,1597.94,3321,1597.94Z"/></clipPath><clipPath id="h"><path fill="#2c4da2" d="M3250.77,2603.78c-398.46,82.29-776.51-246.74-725.26-395.41a77.35,77.35,0,0,1,6.83-14.68,78.14,78.14,0,0,1,7.39-10.33c111.42-132.1,383.67,29.86,383.67,29.86l483.6-35.61S3673.49,2516.47,3250.77,2603.78Z"/></clipPath><clipPath id="i"><rect width="189.92" height="223.61" x="2834.18" y="1524" fill="#d1dbed" transform="rotate(-12.6 2928.274 1635.45)"/></clipPath><clipPath id="j"><polygon fill="#f5b0a6" points="3098.38 1495.29 3092.64 1587.57 3156.96 1600.2 3192.19 1574.55 3192.19 1466.96 3098.38 1495.29"/></clipPath><clipPath id="k"><path fill="#2e6857" d="M2795.12,1736.13l-2.65,24.13s70.81,13,81.91,28l7.28-36S2810.82,1731.54,2795.12,1736.13Z"/></clipPath><clipPath id="l"><path fill="#6fc183" d="M3093.7,1570.49s47.31,34.18,98.49-6.66l162,42.88s11.49,387.11,45.95,425,52.84,137.84,18.38,145.88c0,0,24.12,9.19,26.42,36.76S3322,2354.51,3192.19,2336.13s-278-40.2-301-120.61,109.13-627.19,109.13-627.19Z"/></clipPath><clipPath id="m"><path fill="#2f2f2f" d="M2870.17,1767.53s-77.34-38.29-108.74,0-16.18,270,4.93,285.85S2870.17,1767.53,2870.17,1767.53Z"/></clipPath></defs><g data-name="7"><rect width="4680" height="3120" fill="#fff" data-name="1" opacity="0"/><path fill="#496da1" d="M2589.89,672.44s-349.2-78.11-1225.27-180.72-1111.93,1283.47-461.2,1813,1377.09,18.19,1686.47,49.39S4170.49,2369.44,3943.82,1328,2589.89,672.44,2589.89,672.44Z"/><path fill="#17284c" d="M3842,2598.63H2560.79a24.5,24.5,0,0,0-24.5,24.5h0a24.5,24.5,0,0,0,24.5,24.51H3842a24.51,24.51,0,0,0,24.51-24.51h0A24.5,24.5,0,0,0,3842,2598.63Z"/><rect width="680.03" height="524.95" x="493.91" y="1159.87" fill="#5681bf" opacity=".3" rx="42.5"/><rect width="680.03" height="524.95" x="450.84" y="1118.52" fill="#d1dbed" rx="42.5"/><rect width="60.88" height="197.58" x="535.26" y="1371.23" fill="#b5cae8"/><rect width="60.88" height="328.53" x="647.84" y="1240.28" fill="#fff"/><rect width="60.88" height="479" x="760.41" y="1089.8" fill="#b5cae8"/><rect width="60.88" height="315.89" x="872.98" y="1252.92" fill="#fff"/><rect width="60.88" height="197.58" x="985.55" y="1371.23" fill="#b5cae8"/><path fill="#b5cae8" d="M798.08,1044a8.35,8.35,0,0,0-14.46,0l-52.87,91.56a8.36,8.36,0,0,0,7.23,12.53H843.71a8.35,8.35,0,0,0,7.23-12.53Z"/><path fill="#fff" d="M1007,1589.48H574.65a8.95,8.95,0,0,0,0,17.9H1007a9,9,0,0,0,0-17.9Z"/><rect width="2309.64" height="1654.12" x="1064.43" y="360" fill="#99b1da" rx="68.92"/><rect width="2168.73" height="1540.04" x="1144.07" y="417.04" fill="#fff" rx="26.35"/><g clip-path="url(#a)"><rect width="693.81" height="1611.44" x="2618.99" y="378.93" fill="#d1dbed"/><rect width="539.89" height="1148.39" x="2696.25" y="841.09" fill="#b5cae8"/><rect width="428.84" height="321.63" x="2751.47" y="902.18" fill="#fff" rx="42.88"/><path fill="#fff" d="M3157,1263H2774.83a23.35,23.35,0,0,0-23.36,23.35h0a23.36,23.36,0,0,0,23.36,23.36H3157a23.36,23.36,0,0,0,23.36-23.36h0A23.35,23.35,0,0,0,3157,1263Z"/><path fill="#fff" d="M3157,1348.81H2774.83a23.36,23.36,0,1,0,0,46.71H3157a23.36,23.36,0,1,0,0-46.71Z"/><path fill="#fff" d="M3157,1434.67H2774.83a23.36,23.36,0,1,0,0,46.71H3157a23.36,23.36,0,1,0,0-46.71Z"/><rect width="428.84" height="46.71" x="2751.47" y="1520.52" fill="#fff" rx="23.36"/><path fill="#fff" d="M3157,1606.37H2774.83a23.36,23.36,0,0,0,0,46.72H3157a23.36,23.36,0,1,0,0-46.72Z"/><path fill="#fff" d="M3157,1692.23H2774.83a23.36,23.36,0,1,0,0,46.71H3157a23.36,23.36,0,1,0,0-46.71Z"/><path fill="#f3f3f3" d="M3157,1778.08H2774.83a23.36,23.36,0,0,0-23.36,23.36h0a23.35,23.35,0,0,0,23.36,23.35H3157a23.35,23.35,0,0,0,23.36-23.35h0A23.36,23.36,0,0,0,3157,1778.08Z"/><path fill="#f3f3f3" d="M3157,1863.94H2774.83a23.36,23.36,0,1,0,0,46.71H3157a23.36,23.36,0,1,0,0-46.71Z"/><path fill="#f3f3f3" d="M3157,1949.79H2774.83a23.36,23.36,0,1,0,0,46.71H3157a23.36,23.36,0,1,0,0-46.71Z"/><path fill="#b5cae8" d="M3214.4,507h-497a21.45,21.45,0,1,0,0,42.89h497a21.45,21.45,0,0,0,0-42.89Z"/><path fill="#fff" d="M3214.4,435.77h-497a21.45,21.45,0,1,0,0,42.89h497a21.45,21.45,0,0,0,0-42.89Z"/><path fill="#fff" d="M3214.4,578.29h-497a21.45,21.45,0,1,0,0,42.89h497a21.45,21.45,0,0,0,0-42.89Z"/><path fill="#b5cae8" d="M3214.4,649.56h-497a21.44,21.44,0,1,0,0,42.88h497a21.44,21.44,0,0,0,0-42.88Z"/><path fill="#fff" d="M3214.4,720.82h-497A21.44,21.44,0,0,0,2696,742.26h0a21.44,21.44,0,0,0,21.45,21.44h497a21.44,21.44,0,0,0,21.44-21.44h0A21.44,21.44,0,0,0,3214.4,720.82Z"/></g><rect width="448.97" height="16.63" x="2078.43" y="378.93" fill="#fff" rx="7.81"/><circle cx="2030.97" cy="387.25" r="8.32" fill="#fff"/><circle cx="1975.19" cy="387.25" r="8.32" fill="#fff"/><circle cx="1919.42" cy="387.25" r="8.32" fill="#fff"/><rect width="1338.61" height="689.22" x="1225.25" y="507.03" fill="#d1dbed"/><g clip-path="url(#b)"><g opacity=".5"><path d="M2625.12,595.33H1197.68a1,1,0,0,1,0-2H2625.12a1,1,0,0,1,0,2Z"/><path d="M2625.12,724H1197.68a1,1,0,0,1,0-2H2625.12a1,1,0,0,1,0,2Z"/><path d="M2625.12,852.64H1197.68a1,1,0,0,1,0-2H2625.12a1,1,0,0,1,0,2Z"/><path d="M2625.12,981.29H1197.68a1,1,0,0,1,0-2H2625.12a1,1,0,0,1,0,2Z"/><path d="M2625.12,1110H1197.68a1,1,0,0,1,0-2H2625.12a1,1,0,0,1,0,2Z"/></g><g opacity=".5"><path d="M1315.61,1272.29a1,1,0,0,1-1-1V453.43a1,1,0,0,1,2,0v817.86A1,1,0,0,1,1315.61,1272.29Z"/><path d="M1508.59,1272.29a1,1,0,0,1-1-1V453.43a1,1,0,0,1,2,0v817.86A1,1,0,0,1,1508.59,1272.29Z"/><path d="M1701.57,1272.29a1,1,0,0,1-1-1V453.43a1,1,0,0,1,2,0v817.86A1,1,0,0,1,1701.57,1272.29Z"/><path d="M1894.55,1272.29a1,1,0,0,1-1-1V453.43a1,1,0,0,1,2,0v817.86A1,1,0,0,1,1894.55,1272.29Z"/><path d="M2087.53,1272.29a1,1,0,0,1-1-1V453.43a1,1,0,1,1,2,0v817.86A1,1,0,0,1,2087.53,1272.29Z"/><path d="M2280.51,1272.29a1,1,0,0,1-1-1V453.43a1,1,0,1,1,2,0v817.86A1,1,0,0,1,2280.51,1272.29Z"/><path d="M2473.49,1272.29a1,1,0,0,1-1-1V453.43a1,1,0,1,1,2,0v817.86A1,1,0,0,1,2473.49,1272.29Z"/></g><g opacity=".5"><path fill="#b5cae8" d="M2625.12,595.33H1197.68a1,1,0,0,1,0-2H2625.12a1,1,0,0,1,0,2Z"/><path fill="#b5cae8" d="M2625.12,724H1197.68a1,1,0,0,1,0-2H2625.12a1,1,0,0,1,0,2Z"/><path fill="#b5cae8" d="M2625.12,852.64H1197.68a1,1,0,0,1,0-2H2625.12a1,1,0,0,1,0,2Z"/><path fill="#b5cae8" d="M2625.12,981.29H1197.68a1,1,0,0,1,0-2H2625.12a1,1,0,0,1,0,2Z"/><path fill="#b5cae8" d="M2625.12,1110H1197.68a1,1,0,0,1,0-2H2625.12a1,1,0,0,1,0,2Z"/></g><g opacity=".5"><path fill="#b5cae8" d="M1315.61,1272.29a1,1,0,0,1-1-1V453.43a1,1,0,0,1,2,0v817.86A1,1,0,0,1,1315.61,1272.29Z"/><path fill="#b5cae8" d="M1508.59,1272.29a1,1,0,0,1-1-1V453.43a1,1,0,0,1,2,0v817.86A1,1,0,0,1,1508.59,1272.29Z"/><path fill="#b5cae8" d="M1701.57,1272.29a1,1,0,0,1-1-1V453.43a1,1,0,0,1,2,0v817.86A1,1,0,0,1,1701.57,1272.29Z"/><path fill="#b5cae8" d="M1894.55,1272.29a1,1,0,0,1-1-1V453.43a1,1,0,0,1,2,0v817.86A1,1,0,0,1,1894.55,1272.29Z"/><path fill="#b5cae8" d="M2087.53,1272.29a1,1,0,0,1-1-1V453.43a1,1,0,1,1,2,0v817.86A1,1,0,0,1,2087.53,1272.29Z"/><path fill="#b5cae8" d="M2280.51,1272.29a1,1,0,0,1-1-1V453.43a1,1,0,1,1,2,0v817.86A1,1,0,0,1,2280.51,1272.29Z"/><path fill="#b5cae8" d="M2473.49,1272.29a1,1,0,0,1-1-1V453.43a1,1,0,1,1,2,0v817.86A1,1,0,0,1,2473.49,1272.29Z"/></g><path fill="#99b1da" d="M1466.85,1061.29a2.52,2.52,0,0,1-1.7-.67L1433.37,1031l-12.11,9.08a2.5,2.5,0,0,1-3.4-.37l-18.92-22.07-14.17,14.17a2.52,2.52,0,0,1-3.76-.25l-28.34-37.06-13,10a2.48,2.48,0,0,1-3.19-.12L1186.05,868.81a2.5,2.5,0,1,1,3.34-3.71l148.94,134.15L1351.61,989a2.5,2.5,0,0,1,1.85-.49,2.46,2.46,0,0,1,1.66,1l28.13,36.78,14.06-14.06a2.55,2.55,0,0,1,1.87-.73,2.51,2.51,0,0,1,1.8.87l19.15,22.35,11.91-8.94a2.51,2.51,0,0,1,3.2.17l31.64,29.46,124.66-112.19a2.48,2.48,0,0,1,1.91-.63,2.5,2.5,0,0,1,1.75,1l30.55,40.37L1641,970.75a2.48,2.48,0,0,1,1.84-.61,2.53,2.53,0,0,1,1.72.91l14.33,17.4L1853.34,794a2.55,2.55,0,0,1,2.2-.7,2.51,2.51,0,0,1,1.83,1.39l21.83,45.86,68.9-37.79a2.51,2.51,0,0,1,3.3.84l11,17L1973.47,810a2.49,2.49,0,0,1,3.12-.26l85,57.47,49.08-45.74a2.52,2.52,0,0,1,2.59-.52l17.18,6.45,19.61-13.08a2.51,2.51,0,0,1,2.94.12l26.29,20.82,25-13a2.53,2.53,0,0,1,2-.14l43.93,15.77L2295.33,821a2.51,2.51,0,0,1,1.92.07l167.36,76.28,114.8-103.43a2.5,2.5,0,0,1,3.35,3.71l-116,104.53a2.5,2.5,0,0,1-2.71.42L2296.12,826l-45,16.87a2.54,2.54,0,0,1-1.72,0l-43.77-15.71-25.45,13.28a2.52,2.52,0,0,1-2.71-.26l-26.14-20.7-19.17,12.78a2.52,2.52,0,0,1-2.26.26L2113,826.19l-49.41,46a2.5,2.5,0,0,1-3.1.24l-85-57.45-11.8,11.24a2.48,2.48,0,0,1-2,.68,2.52,2.52,0,0,1-1.81-1.13l-11.37-17.57-69.18,37.93a2.5,2.5,0,0,1-3.46-1.11l-21.45-45L1660.45,993.93a2.51,2.51,0,0,1-1.89.73,2.44,2.44,0,0,1-1.8-.91L1642.3,976.2,1627,989.46a2.51,2.51,0,0,1-1.9.59,2.48,2.48,0,0,1-1.73-1l-30.52-40.33-124.33,111.9A2.56,2.56,0,0,1,1466.85,1061.29Z"/><path fill="#2f4171" d="M1884.4,964.8a2.5,2.5,0,0,1-1.94-.93l-132.07-163-11.22,34.67a2.49,2.49,0,0,1-4.61.35l-9-18L1689.72,907a2.5,2.5,0,0,1-4.67-.09L1593.9,654.79l-49,90.45a2.5,2.5,0,0,1-4.32.12L1509,694.28l-80,182.87a2.5,2.5,0,0,1-4.06.76l-13.23-13.23L1397.34,878a2.53,2.53,0,0,1-2,.65,2.51,2.51,0,0,1-1.79-1.07l-25.66-37.42-62.22,77.77a2.49,2.49,0,0,1-3.32.53l-98.79-64.71a2.5,2.5,0,0,1,2.74-4.18L1303.21,913l62.9-78.63a2.5,2.5,0,0,1,4,.15l25.93,37.81,14-13a2.49,2.49,0,0,1,3.46.07l12.35,12.34,80.47-183.88a2.5,2.5,0,0,1,4.42-.32l31.81,51.47,49.63-91.55a2.5,2.5,0,0,1,4.55.34L1687.53,899,1723,810.88a2.51,2.51,0,0,1,4.56-.18l8.75,17.51L1747.05,795a2.52,2.52,0,0,1,1.92-1.69,2.49,2.49,0,0,1,2.4.88l132.57,163.6,136.49-263.11a2.53,2.53,0,0,1,1.89-1.33,2.56,2.56,0,0,1,2.17.78l62.9,67.94,26.52-33.33a2.5,2.5,0,0,1,4.08.24l13.49,21.79,7-5.25a2.49,2.49,0,0,1,3.16.14l20,17.89,27-29.21a2.51,2.51,0,0,1,1.94-.8,2.48,2.48,0,0,1,1.86,1l59.18,75.92,111.72-107.2a2.52,2.52,0,0,1,1.86-.7,2.55,2.55,0,0,1,1.78.88l96.32,113.32,116.53-63.35a2.5,2.5,0,0,1,2.39,4.39L2464,822.06a2.51,2.51,0,0,1-3.1-.58L2365,708.63,2253.14,815.92a2.49,2.49,0,0,1-3.7-.27l-59.07-75.79-26.72,28.86a2.5,2.5,0,0,1-3.5.16l-20.3-18.16-7.55,5.66a2.52,2.52,0,0,1-2,.46,2.48,2.48,0,0,1-1.66-1.14l-13.06-21.1-26.12,32.83a2.53,2.53,0,0,1-1.87.94,2.5,2.5,0,0,1-1.92-.8l-62.47-67.46L1886.62,963.45a2.48,2.48,0,0,1-2,1.33Z"/><path fill="#5681bf" d="M1813.76,1006.15h-.06a2.5,2.5,0,0,1-2.1-1.24L1659.69,745.3,1641,773.21a2.5,2.5,0,0,1-4,.16l-37-46.54-16.4,17.76a2.54,2.54,0,0,1-1.79.81,2.47,2.47,0,0,1-1.82-.73l-9.83-9.84-35,30.63a2.5,2.5,0,0,1-3.51-.23L1515,746.51l-36,34.94a2.5,2.5,0,0,1-3.46,0l-19.93-18.89L1441.17,779a2.5,2.5,0,0,1-2,.86,2.54,2.54,0,0,1-1.91-1l-11.76-15.69L1408,786.88a2.48,2.48,0,0,1-3.89.16l-21.47-24.69L1177.71,911.48a2.5,2.5,0,1,1-3-4L1381.53,757a2.5,2.5,0,0,1,3.36.38l20.92,24.07,17.68-23.92a2.5,2.5,0,0,1,2-1,2.58,2.58,0,0,1,2,1l11.93,15.91,14.06-16.06a2.47,2.47,0,0,1,1.76-.85,2.56,2.56,0,0,1,1.84.68l20.08,19,36.19-35.09a2.53,2.53,0,0,1,1.83-.7,2.51,2.51,0,0,1,1.78.84l16.73,18.82,34.89-30.53a2.49,2.49,0,0,1,3.41.11l9.65,9.65,16.61-18a2.51,2.51,0,0,1,3.8.14l36.65,46.15,19-28.37a2.43,2.43,0,0,1,2.15-1.11,2.49,2.49,0,0,1,2.08,1.24L1813.87,998.9l111.77-171.22a2.49,2.49,0,0,1,3.16-.89L1965.52,844,1996.37,765a2.5,2.5,0,0,1,3.71-1.17l14.83,9.88,26.56-56.18a2.5,2.5,0,0,1,2.26-1.43h33.43l8.35-11.4a2.5,2.5,0,0,1,2.94-.85l18.9,7.49,75.82-64.5a2.49,2.49,0,0,1,3.47.23l8.08,9,22.38-37.31a2.54,2.54,0,0,1,1.83-1.19,2.46,2.46,0,0,1,2.06.69l94.51,92.25,85.58-108.1a2.47,2.47,0,0,1,2-.94H2449a2.72,2.72,0,0,1,.8.12l63.29,21.1,24.37-56.47a2.47,2.47,0,0,1,1.62-1.42l41.36-11.49a2.5,2.5,0,0,1,1.33,4.82l-40.2,11.17-24.79,57.48a2.51,2.51,0,0,1-3.09,1.38l-65.09-21.69h-44.33L2317.7,715.73a2.47,2.47,0,0,1-1.8.94,2.5,2.5,0,0,1-1.91-.7l-94.23-92-22.49,37.49a2.52,2.52,0,0,1-1.91,1.2,2.47,2.47,0,0,1-2.09-.82l-8.72-9.68-75.11,63.9a2.5,2.5,0,0,1-2.54.42l-18.49-7.33-8,10.87a2.5,2.5,0,0,1-2,1h-33.12l-27.12,57.37a2.5,2.5,0,0,1-3.65,1l-14.64-9.77-30.69,78.67a2.54,2.54,0,0,1-1.41,1.41,2.46,2.46,0,0,1-2-.06l-37.17-17.45L1815.85,1005A2.51,2.51,0,0,1,1813.76,1006.15Z"/></g><rect width="174.18" height="451.62" x="1225.25" y="1381.57" fill="#2f4171"/><rect width="174.18" height="330.63" x="1458.13" y="1502.57" fill="#5681bf"/><rect width="174.18" height="574.15" x="1691.02" y="1259.04" fill="#2f4171"/><rect width="174.18" height="417.93" x="1923.91" y="1415.26" fill="#5681bf"/><rect width="174.18" height="548.11" x="2156.79" y="1285.08" fill="#2f4171"/><rect width="174.18" height="505.23" x="2389.68" y="1327.96" fill="#5681bf"/><rect width="753.54" height="1179.71" x="3475.62" y="620.93" fill="#5681bf" opacity=".2" rx="37.79"/><path fill="#fff" d="M3467.76,653.91h678a37.8,37.8,0,0,1,37.8,37.8V1795.82a37.8,37.8,0,0,1-37.8,37.8h-678a37.8,37.8,0,0,1-37.8-37.8V691.71A37.79,37.79,0,0,1,3467.76,653.91Z"/><rect width="327.35" height="269.99" x="3473.81" y="789.52" fill="#d1dbed" rx="14.83"/><path fill="#3d5891" d="M3533.12,960.67a110.55,110.55,0,0,0,145.9,66.24L3647,944.42Z"/><path fill="#5681bf" d="M3637.52,814.05a110.65,110.65,0,0,0-29.81,4.07l45.16,116.18,95.05-13.57A110.46,110.46,0,0,0,3637.52,814.05Z"/><path fill="#b5cae8" d="M3527.06,924.51a110.9,110.9,0,0,0,3.39,27.27l113.09-16.15L3599,821A110.49,110.49,0,0,0,3527.06,924.51Z"/><path fill="#99b1da" d="M3687.39,1023.11a110.49,110.49,0,0,0,60.47-93.1l-91.57,13.08Z"/><circle cx="3637.52" cy="924.51" r="59.01" fill="#fff"/><path fill="#99b1da" d="M3885.79,799.43a2.66,2.66,0,0,0-4.6,0L3866.43,825a2.65,2.65,0,0,0,2.3,4h3a2.66,2.66,0,0,1,2.65,2.66v18.49a2.65,2.65,0,0,0,2.65,2.65h12.85a2.65,2.65,0,0,0,2.65-2.65V831.63a2.66,2.66,0,0,1,2.65-2.66h3a2.65,2.65,0,0,0,2.3-4Z"/><rect width="194.26" height="23.06" x="3931.61" y="820.6" fill="#d1dbed" rx="10.33"/><path fill="#939393" d="M4137.21,872H3854.73a2.45,2.45,0,1,0,0,4.9h282.48a2.45,2.45,0,0,0,0-4.9Z"/><path fill="#5681bf" d="M3898.24,908.9h-3a2.65,2.65,0,0,1-2.65-2.65V887.76a2.66,2.66,0,0,0-2.65-2.66h-12.85a2.66,2.66,0,0,0-2.65,2.66v18.49a2.65,2.65,0,0,1-2.65,2.65h-3a2.65,2.65,0,0,0-2.3,4l14.76,25.57a2.66,2.66,0,0,0,4.6,0l14.75-25.57A2.65,2.65,0,0,0,3898.24,908.9Z"/><rect width="194.26" height="23.06" x="3931.61" y="907.6" fill="#d1dbed" rx="10.33"/><path fill="#939393" d="M4137.21,959H3854.73a2.45,2.45,0,1,0,0,4.9h282.48a2.45,2.45,0,0,0,0-4.9Z"/><path fill="#b5cae8" d="M3885.79,973.43a2.66,2.66,0,0,0-4.6,0L3866.43,999a2.65,2.65,0,0,0,2.3,4h3a2.66,2.66,0,0,1,2.65,2.66v18.49a2.65,2.65,0,0,0,2.65,2.65h12.85a2.65,2.65,0,0,0,2.65-2.65v-18.49a2.66,2.66,0,0,1,2.65-2.66h3a2.65,2.65,0,0,0,2.3-4Z"/><rect width="194.26" height="23.06" x="3931.61" y="994.6" fill="#d1dbed" rx="10.33"/><path fill="#939393" d="M4137.21,1046H3854.73a2.45,2.45,0,1,0,0,4.9h282.48a2.45,2.45,0,0,0,0-4.9Z"/><path fill="#b5cae8" d="M3856.24,1218.14a2.66,2.66,0,0,0-4.6,0l-14.76,25.56a2.65,2.65,0,0,0,2.3,4h3a2.65,2.65,0,0,1,2.65,2.65v18.5a2.65,2.65,0,0,0,2.65,2.65h12.84a2.66,2.66,0,0,0,2.66-2.65v-18.5a2.65,2.65,0,0,1,2.65-2.65h3a2.65,2.65,0,0,0,2.3-4Z"/><rect width="194.26" height="23.06" x="3902.06" y="1239.3" fill="#d1dbed" rx="10.33"/><path fill="#b5cae8" d="M4107.66,1290.72H3825.18a2.46,2.46,0,1,0,0,4.91h282.48a2.46,2.46,0,0,0,0-4.91Z"/><path fill="#99b1da" d="M3856.24,1305.14a2.66,2.66,0,0,0-4.6,0l-14.76,25.57a2.65,2.65,0,0,0,2.3,4h3a2.65,2.65,0,0,1,2.65,2.65v18.49a2.66,2.66,0,0,0,2.65,2.66h12.84a2.66,2.66,0,0,0,2.66-2.66v-18.49a2.65,2.65,0,0,1,2.65-2.65h3a2.65,2.65,0,0,0,2.3-4Z"/><rect width="194.26" height="23.06" x="3902.06" y="1326.3" fill="#d1dbed" rx="10.33"/><path fill="#b5cae8" d="M4107.66,1377.72H3825.18a2.46,2.46,0,1,0,0,4.91h282.48a2.46,2.46,0,0,0,0-4.91Z"/><path fill="#5681bf" d="M3868.69,1414.61h-3A2.66,2.66,0,0,1,3863,1412v-18.49a2.66,2.66,0,0,0-2.66-2.65h-12.84a2.65,2.65,0,0,0-2.65,2.65V1412a2.66,2.66,0,0,1-2.65,2.66h-3a2.65,2.65,0,0,0-2.3,4l14.76,25.56a2.66,2.66,0,0,0,4.6,0l14.75-25.56A2.65,2.65,0,0,0,3868.69,1414.61Z"/><rect width="194.26" height="23.06" x="3902.06" y="1413.3" fill="#d1dbed" rx="10.33"/><path fill="#b5cae8" d="M4107.66,1464.72H3825.18a2.46,2.46,0,1,0,0,4.91h282.48a2.46,2.46,0,0,0,0-4.91Z"/><rect width="262.44" height="119.98" x="3503.36" y="1215.96" fill="#99b1da"/><path fill="#5681bf" d="M3762.11,1333.34H3507.06V1218.55h255.05Zm-249.05-6h243.05V1224.55H3513.06Z"/><g clip-path="url(#c)"><circle cx="3510.26" cy="1221.28" r="31.52" fill="#595959"/><path fill="#595959" d="M3510.26,1299.18a31.53,31.53,0,1,0,31.53,31.53A31.53,31.53,0,0,0,3510.26,1299.18Z"/><circle cx="3759.67" cy="1221.28" r="31.52" fill="#595959"/><path fill="#595959" d="M3759.67,1299.18a31.53,31.53,0,1,0,31.52,31.53A31.53,31.53,0,0,0,3759.67,1299.18Z"/></g><circle cx="3634.59" cy="1275.95" r="40.55" fill="#5681bf"/><path fill="#fff" d="M3647.11,1273.29q-3.41-2.36-10.63-3.2a19.49,19.49,0,0,1-2.92-.44c-1.23-.34-1.84-1-1.84-1.91,0-1.79,1.26-2.69,3.8-2.69a14.61,14.61,0,0,1,9.23,3.12.55.55,0,0,0,.85-.23l3.79-9.47a.56.56,0,0,0-.26-.71,26.09,26.09,0,0,0-9.63-3,.56.56,0,0,1-.51-.6l.46-5.34a.56.56,0,0,0-.56-.6h-8.38a.56.56,0,0,0-.56.58l.24,5.83a.56.56,0,0,1-.39.55,19.62,19.62,0,0,0-7.83,4.35,11.62,11.62,0,0,0-3.36,8.68q0,5.82,4,8.9,3.19,2.46,9.52,3.47l2.41.39q3.8.62,3.8,2.64c0,1.79-1.58,2.68-4.76,2.68q-5.49,0-11.56-4.89a.57.57,0,0,0-.87.24l-3.86,9.94a.54.54,0,0,0,.22.67,26.1,26.1,0,0,0,12.43,4.43.56.56,0,0,1,.53.59l-.32,5.74a.54.54,0,0,0,.55.58h7.89a.55.55,0,0,0,.56-.58l-.33-5.84a.57.57,0,0,1,.48-.59,14.81,14.81,0,0,0,8.76-4.41,13,13,0,0,0,3.67-9.35Q3651.71,1276.37,3647.11,1273.29Z"/><path fill="#5681bf" d="M3569.72,1266.74a9.21,9.21,0,1,0,9.21,9.21A9.2,9.2,0,0,0,3569.72,1266.74Z"/><path fill="#5681bf" d="M3699.45,1266.74a9.21,9.21,0,1,0,9.2,9.21A9.21,9.21,0,0,0,3699.45,1266.74Z"/><rect width="262.44" height="104.2" x="3503.36" y="1366.29" fill="#b5cae8" rx="9.4"/><path fill="#fff" d="M3750.82,1390.71H3518.35a3,3,0,1,1,0-6h232.47a3,3,0,1,1,0,6Z"/><path fill="#fff" d="M3750.82,1411.16H3518.35a3,3,0,0,1,0-6h232.47a3,3,0,0,1,0,6Z"/><path fill="#fff" d="M3750.82,1431.61H3518.35a3,3,0,0,1,0-6h232.47a3,3,0,0,1,0,6Z"/><path fill="#fff" d="M3750.82,1452.05H3518.35a3,3,0,0,1,0-6h232.47a3,3,0,0,1,0,6Z"/><path fill="#b5cae8" d="M3856.24,1502a2.66,2.66,0,0,0-4.6,0l-14.76,25.56a2.65,2.65,0,0,0,2.3,4h3a2.65,2.65,0,0,1,2.65,2.65v18.5a2.65,2.65,0,0,0,2.65,2.65h12.84a2.66,2.66,0,0,0,2.66-2.65v-18.5a2.65,2.65,0,0,1,2.65-2.65h3a2.65,2.65,0,0,0,2.3-4Z"/><rect width="194.26" height="23.06" x="3902.06" y="1523.19" fill="#d1dbed" rx="10.33"/><path fill="#b5cae8" d="M4107.66,1574.6H3825.18a2.46,2.46,0,1,0,0,4.91h282.48a2.46,2.46,0,0,0,0-4.91Z"/><path fill="#5681bf" d="M3868.69,1611.49h-3a2.65,2.65,0,0,1-2.65-2.65v-18.5a2.66,2.66,0,0,0-2.66-2.65h-12.84a2.65,2.65,0,0,0-2.65,2.65v18.5a2.65,2.65,0,0,1-2.65,2.65h-3a2.65,2.65,0,0,0-2.3,4l14.76,25.56a2.66,2.66,0,0,0,4.6,0l14.75-25.56A2.65,2.65,0,0,0,3868.69,1611.49Z"/><rect width="194.26" height="23.06" x="3902.06" y="1610.18" fill="#d1dbed" rx="10.33"/><path fill="#b5cae8" d="M4107.66,1661.6H3825.18a2.46,2.46,0,1,0,0,4.91h282.48a2.46,2.46,0,0,0,0-4.91Z"/><path fill="#99b1da" d="M3856.24,1676a2.66,2.66,0,0,0-4.6,0l-14.76,25.56a2.65,2.65,0,0,0,2.3,4h3a2.65,2.65,0,0,1,2.65,2.65v18.49a2.66,2.66,0,0,0,2.65,2.66h12.84a2.66,2.66,0,0,0,2.66-2.66v-18.49a2.65,2.65,0,0,1,2.65-2.65h3a2.65,2.65,0,0,0,2.3-4Z"/><rect width="194.26" height="23.06" x="3902.06" y="1697.18" fill="#d1dbed" rx="10.33"/><path fill="#b5cae8" d="M4107.66,1748.6H3825.18a2.46,2.46,0,1,0,0,4.91h282.48a2.46,2.46,0,0,0,0-4.91Z"/><rect width="262.44" height="119.98" x="3503.36" y="1499.84" fill="#b5cae8"/><path fill="#99b1da" d="M3762.11,1617.22H3507.06V1502.44h255.05Zm-249.05-6h243.05V1508.44H3513.06Z"/><g clip-path="url(#d)"><path fill="#a6a6a6" d="M3510.26,1473.63a31.53,31.53,0,1,0,31.53,31.53A31.53,31.53,0,0,0,3510.26,1473.63Z"/><circle cx="3510.26" cy="1614.59" r="31.52" fill="#a6a6a6"/><path fill="#a6a6a6" d="M3759.67,1473.63a31.53,31.53,0,1,0,31.52,31.53A31.53,31.53,0,0,0,3759.67,1473.63Z"/><circle cx="3759.67" cy="1614.59" r="31.52" fill="#a6a6a6"/></g><circle cx="3634.59" cy="1559.83" r="40.55" fill="#99b1da"/><path fill="#fff" d="M3647.11,1557.17q-3.41-2.36-10.63-3.19a20.34,20.34,0,0,1-2.92-.45c-1.23-.34-1.84-1-1.84-1.91,0-1.79,1.26-2.68,3.8-2.68a14.6,14.6,0,0,1,9.23,3.11.55.55,0,0,0,.85-.23l3.79-9.47a.56.56,0,0,0-.26-.71,26.09,26.09,0,0,0-9.63-3,.56.56,0,0,1-.51-.6l.46-5.34a.56.56,0,0,0-.56-.6h-8.38a.56.56,0,0,0-.56.58l.24,5.83a.56.56,0,0,1-.39.55,19.62,19.62,0,0,0-7.83,4.35,11.62,11.62,0,0,0-3.36,8.68q0,5.82,4,8.9,3.19,2.46,9.52,3.47l2.41.39c2.53.42,3.8,1.29,3.8,2.64,0,1.79-1.58,2.68-4.76,2.68q-5.49,0-11.56-4.89a.57.57,0,0,0-.87.24l-3.86,9.94a.54.54,0,0,0,.22.67,26.1,26.1,0,0,0,12.43,4.43.56.56,0,0,1,.53.59l-.32,5.74a.55.55,0,0,0,.55.59h7.89a.56.56,0,0,0,.56-.59l-.33-5.84a.57.57,0,0,1,.48-.59,14.75,14.75,0,0,0,8.76-4.41,13,13,0,0,0,3.67-9.35Q3651.71,1560.25,3647.11,1557.17Z"/><path fill="#99b1da" d="M3569.72,1550.62a9.21,9.21,0,1,0,9.21,9.21A9.2,9.2,0,0,0,3569.72,1550.62Z"/><path fill="#99b1da" d="M3699.45,1550.62a9.21,9.21,0,1,0,9.2,9.21A9.21,9.21,0,0,0,3699.45,1550.62Z"/><rect width="262.44" height="104.2" x="3503.36" y="1650.17" fill="#99b1da" rx="9.4"/><path fill="#fff" d="M3750.82,1674.6H3518.35a3,3,0,0,1,0-6h232.47a3,3,0,0,1,0,6Z"/><path fill="#fff" d="M3750.82,1695H3518.35a3,3,0,1,1,0-6h232.47a3,3,0,1,1,0,6Z"/><path fill="#fff" d="M3750.82,1715.49H3518.35a3,3,0,0,1,0-6h232.47a3,3,0,0,1,0,6Z"/><path fill="#fff" d="M3750.82,1735.93H3518.35a3,3,0,0,1,0-6h232.47a3,3,0,0,1,0,6Z"/><rect width="497.67" height="27.98" x="3557.9" y="1098.71" fill="#d1dbed" rx="13.99"/><path fill="#d1dbed" d="M4041.58,1146.26H3571.9a14,14,0,1,0,0,28h469.68a14,14,0,0,0,0-28Z"/><rect width="361.65" height="43.98" x="3625.91" y="707.68" fill="#99b1da" rx="11.81"/><path fill="#f5b0a6" d="M3513.44,2414.88s3.06,63.82,13.78,79.13,70.46,62.8,82.2,55.65-17.87-45.44-17.87-45.44,87.3,54.63,114.87,38.29,31.14-25.52,24-39.82-127.12-122-127.12-122Z"/><g clip-path="url(#e)"><path fill="#eaa7a2" d="M3560.1,2346.4s106.46,105.7,103.4,128.68c-2.36,17.67-51.33,16.77-73.86,15.41a7.27,7.27,0,0,0-7.33,9.58c5.68,16.79,14.35,48.82,1.53,57.74L3698.73,2577,3881.8,2521l-101.11-120.26Z"/></g><path fill="#2f2f2f" d="M3605.33,2351.58l8.17,37.78s-96.9,53-115.38,37.77L3494,2396Z"/><g clip-path="url(#f)"><rect width="183.79" height="135.55" x="3464.43" y="2318.9" fill="#2e6857"/></g><path fill="#40947e" d="M3321,1597.94s68.73,1.88,104.34,86.88,163.12,492.79,199.88,523.81-16.09,165.52-16.09,165.52-104,42.39-129.52,37.8S3330,2024.84,3328.88,1889.29,3321,1597.94,3321,1597.94Z"/><g clip-path="url(#g)"><path fill="#2e6857" d="M3430,2016.61c-14.55-17.41-88.07-340.43-88.07-340.43L3235.84,1810l26.42,673.14,241.1-17.64c61.92-102.63-43.53-294.81-43.53-294.81C3496.73,2141.16,3444.52,2034,3430,2016.61Z" opacity=".3"/></g><path fill="#2c4da2" d="M3250.77,2603.78c-398.46,82.29-776.51-246.74-725.26-395.41a77.35,77.35,0,0,1,6.83-14.68,78.14,78.14,0,0,1,7.39-10.33c111.42-132.1,383.67,29.86,383.67,29.86l483.6-35.61S3673.49,2516.47,3250.77,2603.78Z"/><g clip-path="url(#h)"><path fill="#2c4c96" d="M2929.46,2159l-65.36-9.19s-7.15,77.61,25.53,110.29,278.81,140.94,393.19,97,196.08-112.34,207.32-176.68l-91.92-95Z"/></g><path fill="#fff" d="M2960.57,2222c-.93.73-23,18.37-36.09,49.62-12.13,28.89-18.48,75.18,20.15,131.58a4.89,4.89,0,1,0,8.07-5.52c-28.91-42.23-35.42-83.24-19.35-121.9,12.07-29,33.05-45.92,33.28-46.1a4.89,4.89,0,1,0-6.06-7.68Z"/><path fill="#fff" d="M2960.6,2342.61c-29.64,23-72.45,22.53-130.88-1.49-51.5-21.16-106-56.72-154.12-88.09-38.08-24.84-71-46.29-95-55.84-18.36-7.3-34.53-8.46-48.25-3.5a77.35,77.35,0,0,0-6.83,14.68c.64-.48,1.28-.94,1.95-1.37,12.83-8.44,29.49-8.67,49.52-.72,23.14,9.19,55.64,30.4,93.27,54.94,48.47,31.61,103.39,67.44,155.75,89,31,12.77,58.08,19.14,81.44,19.14s42.86-6.33,59.16-19a4.89,4.89,0,1,0-6-7.72Z"/><path fill="#f5b0a6" d="M2828.05,1571.87c-71.6,45.56-13,205.23-13,205.23l28.34,13.4,85.77-139.37S2899.66,1526.3,2828.05,1571.87Z"/><path fill="#f18a8b" d="M2843.37,1791.5a1.07,1.07,0,0,1-.43-.09l-28.33-13.4a1,1,0,0,1-.51-.56c-.15-.4-14.75-40.55-20.4-85.75-3.32-26.6-2.94-49.73,1.13-68.75,5.12-23.91,16.12-41.38,32.69-51.92s32.25-12.89,46.7-7c38.68,15.72,55.21,84,55.89,86.88a1,1,0,0,1-.12.75L2844.22,1791A1,1,0,0,1,2843.37,1791.5Zm-27.53-15.13,27.15,12.85L2928.07,1651a225.63,225.63,0,0,0-13-36.65c-8.13-17.69-21.94-40.45-41.6-48.44-13.81-5.62-28.91-3.31-44.87,6.84l-.54-.84.54.84c-16.1,10.25-26.8,27.29-31.8,50.66-4,18.8-4.4,41.71-1.1,68.08C2801,1734.07,2814.33,1772.16,2815.84,1776.37Z"/><path fill="#2f4171" d="M3011.45,1491.48a8.74,8.74,0,0,0-10.43-6.63l-201.18,45a8.73,8.73,0,0,0-6.62,10.43l53.61,239.9a8.74,8.74,0,0,0,10.43,6.62l201.18-45a8.74,8.74,0,0,0,6.62-10.43Z"/><rect width="189.92" height="223.61" x="2834.18" y="1524" fill="#d1dbed" transform="rotate(-12.6 2928.274 1635.45)"/><g clip-path="url(#i)"><polygon fill="#fff" points="2811.53 1773.18 2870.13 1807.17 3040.1 1465.16 2964.17 1466.01 2811.53 1773.18" opacity=".3"/><path fill="#f2f2f2" d="M3059.76,1538.86a4.9,4.9,0,0,0-6.58,2.15l-137.4,270a4.89,4.89,0,0,0,8.72,4.44l137.4-270A4.89,4.89,0,0,0,3059.76,1538.86Z"/><path fill="#fff" d="M2923.25,1468.9a4.9,4.9,0,0,0-6.58,2.15l-137.4,270a4.89,4.89,0,0,0,8.73,4.43l137.39-270A4.89,4.89,0,0,0,2923.25,1468.9Z" opacity=".3"/></g><polygon fill="#f5b0a6" points="2801.51 1707.03 2807.63 1754.51 2868.64 1749.66 2847.45 1699.88 2801.51 1707.03"/><path fill="#f5b0a6" d="M2875.92,1610.93c-2.3-10.34-33.32,18.76-55.14,43.26s-17.23,56.67-17.23,56.67h46.33c8-26.42-3.06-47.48-3.06-47.48C2852.94,1657.26,2878.21,1621.26,2875.92,1610.93Z"/><path fill="#f18a8b" d="M2849.88,1711.86h-46.33a1,1,0,0,1-1-.86c0-.32-4.41-32.9,17.47-57.47,14.95-16.78,45.54-47.92,54.37-45.62a3.41,3.41,0,0,1,2.49,2.8c2.44,11-22.51,46-28.87,52.86a69.36,69.36,0,0,1,2.82,47.58A1,1,0,0,1,2849.88,1711.86Zm-45.44-2h44.69c7.41-25.36-3.09-45.81-3.2-46a1,1,0,0,1,.18-1.17c6.07-6.07,31-41.76,28.83-51.54h0c-.21-1-.67-1.19-1.05-1.29-6.23-1.61-31.52,21.61-52.37,45C2802.24,1676.51,2803.93,1704.62,2804.44,1709.86Z"/><polygon fill="#f5b0a6" points="3098.38 1495.29 3092.64 1587.57 3156.96 1600.2 3192.19 1574.55 3192.19 1466.96 3098.38 1495.29"/><g clip-path="url(#j)"><path fill="#f18a8b" d="M3074.82,1556.44s68.08-24.85,106.21-102.12l-103.49-6.13Z"/></g><path fill="#2e6857" d="M2795.12,1736.13l-2.65,24.13s70.81,13,81.91,28l7.28-36S2810.82,1731.54,2795.12,1736.13Z"/><g clip-path="url(#k)"><rect width="174.38" height="139.82" x="2754.76" y="1712.49" fill="#666"/></g><path fill="#6fc183" d="M3093.7,1570.49s47.31,34.18,98.49-6.66l162,42.88s11.49,387.11,45.95,425,52.84,137.84,18.38,145.88c0,0,24.12,9.19,26.42,36.76S3322,2354.51,3192.19,2336.13s-278-40.2-301-120.61,109.13-627.19,109.13-627.19Z"/><g clip-path="url(#l)"><path fill="#2f2f2f" d="M2826.18,2168.5l-1.54-.39Z"/><path fill="#2f2f2f" d="M2827.59,2168.85l-1.41-.35Z"/><path fill="#2f2f2f" d="M2814.22,2165.48l-1.44-.37Z"/><path fill="#2f2f2f" d="M2812.78,2165.11l-4.1-1Z"/><path fill="#2f2f2f" d="M2830.43,2169.57,2828,2169Z"/><path fill="#2f2f2f" d="M2828,2169l-.41-.11Z"/><path fill="#2f2f2f" d="M2831,2169.7l-.52-.13Z"/><path fill="#2f2f2f" d="M2815.39,2165.77l-1.17-.29Z"/><path fill="#2f2f2f" d="M2822.64,2167.6l-2.32-.58Z"/><path fill="#2f2f2f" d="M2824.08,2168l-1.44-.37Z"/><path fill="#2f2f2f" d="M2820.32,2167l-4.93-1.25Z"/><path fill="#2f2f2f" d="M2824.64,2168.11l-.56-.14Z"/><path fill="#2f2f2f" d="M2836.3,2171.05l-.65-.16Z"/><path fill="#2f2f2f" d="M2836.65,2171.14l-.35-.09Z"/><path fill="#2f2f2f" d="M2833,2170.23l-2.09-.53Z"/><path fill="#2f2f2f" d="M2836.87,2171.2l-.22-.06Z"/><path fill="#2f2f2f" d="M2837.06,2171.25l-.15,0Z"/><path fill="#2f2f2f" d="M2835.65,2170.89l-1-.26Z"/><path fill="#2f2f2f" d="M2834.56,2170.61l-1.11-.28Z"/><path fill="#2f2f2f" d="M2833.45,2170.33l-.41-.1Z"/><path fill="#2f2f2f" d="M2834.61,2170.63l-.05,0Z"/><path fill="#2f2f2f" d="M2836.91,2171.21h0Z"/><path fill="#2f2f2f" d="M2744.16,2147.79l-2.55-.65Z"/><path fill="#2f2f2f" d="M2741.61,2147.14l-3-.76Z"/><path fill="#2f2f2f" d="M2750.1,2149.28l-5.94-1.49Z"/><path fill="#2f2f2f" d="M2756.16,2150.82l-6.06-1.54Z"/><path fill="#2f2f2f" d="M2758.24,2151.34l-2.08-.52Z"/><path fill="#2f2f2f" d="M2738.61,2146.38l-1.18-.29Z"/><path fill="#2f2f2f" d="M2762.81,2152.5l-4.57-1.16Z"/><path fill="#2f2f2f" d="M2737.11,2146Z"/><path fill="#2e6857" d="M2893.53,1852.3l-56.47,319c225,56.81,209.24-409.41,209.24-409.41Z" opacity=".3"/><path fill="#2f2f2f" d="M2737.43,2146.09l-.24-.07Z"/><path fill="#2f2f2f" d="M2737.19,2146l-.08,0Z"/><path fill="#2f2f2f" d="M2808.67,2164.08l-3.91-1Z"/><path fill="#2f2f2f" d="M2798.24,2161.44l-4.81-1.21Z"/><path fill="#2f2f2f" d="M2765.41,2153.15l-2.6-.65Z"/><path fill="#2f2f2f" d="M2793.43,2160.23l-11.19-2.83Z"/><path fill="#2f2f2f" d="M2808.68,2164.08h0Z"/><path fill="#2f2f2f" d="M2804.76,2163.09l-6.52-1.65Z"/><path fill="#2f2f2f" d="M2782.24,2157.4l-5.6-1.41Z"/><path fill="#2f2f2f" d="M2768.82,2154l-2.27-.57Z"/><path fill="#2f2f2f" d="M2766.55,2153.44l-1.14-.29Z"/><path fill="#2f2f2f" d="M2773.73,2155.25l-2.29-.58Z"/><path fill="#2f2f2f" d="M2776.64,2156l-2.91-.74Z"/><path fill="#2f2f2f" d="M2771.44,2154.67l-2.62-.66Z"/></g><path fill="#2f2f2f" d="M2870.17,1767.53s-77.34-38.29-108.74,0-16.18,270,4.93,285.85S2870.17,1767.53,2870.17,1767.53Z"/><g clip-path="url(#m)"><rect width="241.23" height="410.71" x="2687.91" y="1692.04" fill="#3f8c76"/></g><path fill="#40947e" d="M2908.46,1652.66c-62,81.56-170,326.23-151.63,379.07s78.12,120.61,160.82,82.71,156.22-426.17,156.22-426.17l-26.66-108.89S2970.49,1571.1,2908.46,1652.66Z"/><path fill="#f5b0a6" d="M3094.29,1506.65C3182.62,1518.39,3223,1401,3223,1401l-183.79-84.75S3006,1494.91,3094.29,1506.65Z"/><path d="M3168.83,1273.85s-117.42-20.42-141.93-64.84c0,0-119,109.76,40.34,166.43,0,0,3.57,29.61,25,30.12s-4.59,101.21,57.69,101.92,96-76.39,96-76.39S3302.59,1276.4,3168.83,1273.85Z"/><path fill="#dfdfdf" d="M3124.93,1419.86c-26-9.19-34.21,20.42-34.21,20.42l9.19,35.23C3129,1486.74,3151,1429.05,3124.93,1419.86Z"/><path fill="#f5b0a6" d="M3124.93,1419.86c-26-9.19-34.21,20.42-34.21,20.42l9.19,35.23C3129,1486.74,3151,1429.05,3124.93,1419.86Z"/><path fill="#f18a8b" d="M3107.45,1478a21.85,21.85,0,0,1-7.9-1.53,1,1,0,0,1-.61-.68l-9.19-35.23a1,1,0,0,1,0-.51c.16-.6,4.13-14.59,15.35-20.44,5.89-3.08,12.67-3.3,20.15-.66,6.41,2.26,10.5,7.41,11.82,14.91,2.26,12.82-4.22,29.66-14.76,38.33C3117.63,1476,3112.6,1478,3107.45,1478Zm-6.7-3.22c8.76,3.16,15.86-.48,20.3-4.14,10-8.25,16.21-24.26,14.06-36.44-.83-4.7-3.33-10.83-10.52-13.37-6.93-2.44-13.17-2.26-18.55.54-9.66,5-13.7,17.08-14.28,19Z"/><rect width="1764.39" height="673.13" x="702.68" y="1753.75" fill="#b5cae8" rx="120.61"/><path fill="#fff" d="M2348.55,1857.69H1272.8a18.2,18.2,0,0,0,0,36.4H2348.55a18.2,18.2,0,0,0,0-36.4Z"/><path fill="#fff" d="M2348.55,1919H1272.8a18.2,18.2,0,1,0,0,36.39H2348.55a18.2,18.2,0,1,0,0-36.39Z"/><path fill="#fff" d="M2348.55,1980.22H1272.8a18.2,18.2,0,1,0,0,36.39H2348.55a18.2,18.2,0,1,0,0-36.39Z"/><path fill="#fff" d="M2348.55,2041.48H1272.8a18.2,18.2,0,1,0,0,36.4H2348.55a18.2,18.2,0,0,0,0-36.4Z"/><path fill="#fff" d="M2348.55,2102.75H1272.8a18.2,18.2,0,1,0,0,36.39H2348.55a18.2,18.2,0,1,0,0-36.39Z"/><path fill="#fff" d="M2348.55,2164H1272.8a18.2,18.2,0,1,0,0,36.39H2348.55a18.2,18.2,0,1,0,0-36.39Z"/><path fill="#fff" d="M2348.55,2225.28H1272.8a18.2,18.2,0,1,0,0,36.39H2348.55a18.2,18.2,0,1,0,0-36.39Z"/><path fill="#fff" d="M2348.55,2286.54H1689.13a18.2,18.2,0,0,0,0,36.39h659.42a18.2,18.2,0,1,0,0-36.39Z"/><circle cx="991.74" cy="2090.31" r="204.03" fill="#f3ce90" transform="rotate(-45 991.735 2090.31)"/><path fill="#f19a6d" d="M991.74,1914.34c-97,0-176,78.94-176,176s79,176,176,176,176-78.94,176-176S1088.77,1914.34,991.74,1914.34Zm0,342.37c-91.75,0-166.4-74.65-166.4-166.4s74.65-166.39,166.4-166.39,166.4,74.64,166.4,166.39S1083.49,2256.71,991.74,2256.71Z"/><path fill="#ef7c59" d="M1054.77,2076.93q-17.18-11.83-53.52-16.06c-8.27-.93-13.15-1.69-14.65-2.25q-9.3-2.53-9.3-9.58,0-13.51,19.16-13.52,26.25,0,46.4,15.67a2.8,2.8,0,0,0,4.31-1.18l19.06-47.63a2.84,2.84,0,0,0-1.3-3.55q-24-12.54-48.49-14.91a2.82,2.82,0,0,1-2.56-3l2.32-26.84a2.8,2.8,0,0,0-2.8-3H971.21a2.8,2.8,0,0,0-2.8,2.92l1.2,29.33a2.81,2.81,0,0,1-1.94,2.77q-26.1,8.6-39.39,21.88-16.89,16.63-16.9,43.67,0,29.3,20,44.79,16.07,12.4,47.89,17.47l12.12,2q19.15,3.11,19.15,13.24,0,13.51-23.94,13.52-27.68,0-58.18-24.61a2.81,2.81,0,0,0-4.36,1.18l-19.45,50a2.82,2.82,0,0,0,1.1,3.4q31.89,20.39,62.57,22.27a2.81,2.81,0,0,1,2.66,3l-1.64,28.86a2.81,2.81,0,0,0,2.8,3h39.7a2.81,2.81,0,0,0,2.8-3l-1.66-29.37a2.83,2.83,0,0,1,2.43-2.94q26.45-3.91,44.05-22.19,18.45-19.16,18.45-47.05Q1077.87,2092.43,1054.77,2076.93Z"/></g></svg>