<svg xmlns="http://www.w3.org/2000/svg" viewBox="0 0 1920 1080"><path fill="#e5f3ff" d="M384.31,944.33C273.59,853.21,227.39,701.77,229.67,558.4c1-65.64,11.42-132.45,42-190.53,36.95-70.19,103.4-124.25,179.64-146.15,54.94-15.78,122.68-11.31,157.84,33.76,25,32.09,27.12,76.07,43.22,113.44,22.82,53,76.43,91.31,133.94,95.78,54.24,4.21,107.19-19.64,151.39-51.36s82.07-71.42,124.64-105.3C1165.1,226.24,1296.8,179.89,1428,185.42c33.71,1.42,68,6.37,98.09,21.59s55.74,42,63.06,74.93c8.52,38.3-8.45,77.82-30.55,110.24s-49.82,61.25-67.26,96.4-22.66,80.23.54,111.87c40.41,55.11,133.26,34.84,184.33,80.25,46.35,41.22,35.58,139-5.87,185.2S1567,923,1508,942"/><path fill="#bfca32" d="M285.56,912.42c-7.95-26.12-29.44-48.35-49.08-67.32s-41.68-35.28-61.65-53.9c-9.25-8.62-18.74-21.53-12.88-32.73,3.86-7.39,13.4-10.36,21.6-8.89s15.32,6.45,21.81,11.69A209.65,209.65,0,0,1,277.8,878.65l7.76,33.77"/><path fill="#767d13" d="M206.65,789.34A294.54,294.54,0,0,1,230.19,814a298.71,298.71,0,0,1,20.69,27.39,299.45,299.45,0,0,1,17.33,29.36,296.73,296.73,0,0,1,14,31.35,295.43,295.43,0,0,1,10.23,32.52c.34,1.34.67,2.7,1,4,.14.63,1.11.36,1-.27a294.53,294.53,0,0,0-9.85-32.89A301.57,301.57,0,0,0,271,874.07a301.72,301.72,0,0,0-17-29.81,303.24,303.24,0,0,0-20.24-27.59,297.19,297.19,0,0,0-23.35-25.17c-1-1-2-1.92-3-2.87-.47-.44-1.18.27-.71.71Z"/><path fill="#bfca32" d="M1684.37,868.79a209.63,209.63,0,0,1,97.4-97.67c7.52-3.62,15.58-6.84,23.9-6.39s16.93,5.53,19,13.61c3.14,12.25-9.06,22.64-20,28.91-23.7,13.55-48.9,24.38-72.36,38.34s-45.57,31.6-59.29,55.21"/><path fill="#767d13" d="M1790.77,794.28c-12.88,6.86-25.76,13.73-38.14,21.46A228.92,228.92,0,0,0,1720,840a212.78,212.78,0,0,0-45.63,59A208.89,208.89,0,0,0,1660,933.75c-.45,1.46-.89,2.93-1.31,4.4a.5.5,0,0,0,1,.27,206.13,206.13,0,0,1,13.57-34.94,211.26,211.26,0,0,1,44.25-59.77A219,219,0,0,1,1749,819.25c12.14-7.86,24.85-14.79,37.59-21.59l4.71-2.52c.57-.3.06-1.16-.5-.86Z"/><path fill="#bfca32" d="M1654.5,910.5c.19-81.29,32.77-192.18,94.59-245,7.36-6.28,16.46-12.54,25.91-10.5,5.76,1.25,10.53,5.53,13.46,10.63,5.84,10.16,4.88,23.14.2,33.89S1776,719.23,1768,727.75c-25.26,26.76-52.82,51.53-75,80.91s-38.92,64.55-38.35,101.34"/><path fill="#767d13" d="M1755.08,691.71a385,385,0,0,0-33.4,40.47A393.32,393.32,0,0,0,1693.91,777a396.23,396.23,0,0,0-36.46,98.48,385.05,385.05,0,0,0-8,51.87c-.18,2.19-.35,4.37-.49,6.56,0,.64,1,.64,1,0a381.41,381.41,0,0,1,7.15-52.13,395.11,395.11,0,0,1,61.54-143.59,381.93,381.93,0,0,1,32.79-41.15c1.44-1.57,2.89-3.12,4.35-4.67.44-.46-.26-1.17-.71-.7Z"/><rect width="118.56" height="96.22" x="921.04" y="841.31" fill="#696ec3"/><rect width="786.97" height="475.96" x="588.56" y="373.08" fill="#444ab4" rx="6.07"/><rect width="754.32" height="440.74" x="604.88" y="391.13" fill="#edeeff"/><rect width="231.97" height="16.32" x="863.48" y="928.09" fill="#444ab4" rx="8.16"/><path fill="#444ab4" d="M513.46,745.05,483.23,609.74,409,622.35l39.3,135.22a37.51,37.51,0,0,0,21.9,21.21c11.24,4,23.94,1.64,32.47-6.69C508.17,766.7,513.08,758.22,513.46,745.05Z"/><path fill="#ff9a63" d="M501.48,887.93v17.82c-11.26,8.46-22.77,8.13-34.49,0V887.93Z"/><path fill="#444ab4" d="M513.89,747.55,519,896.62H457L448.48,758S461,728.81,478.83,728.8,506.63,738.32,513.89,747.55Z"/><line x1="455.58" x2="518.03" y1="883.27" y2="883.27" fill="none" stroke="#1f2e48" stroke-miterlimit="10"/><path fill="#444ab4" d="M412,748.91l11.55-130.29-74.34,1.68-3.61,128.76s8.38,28.87,31,28.82C411.11,777.81,412,748.91,412,748.91Z"/><line x1="417.56" x2="424.43" y1="674.42" y2="647.61" fill="none" stroke="#1f2e48" stroke-miterlimit="10" stroke-width="2"/><path fill="#ff9a63" d="M334.21,888.67l-3.49,17.48c9.39,10.5,20.73,12.42,33.82,6.75L368,895.42Z"/><path fill="#444ab4" d="M411.71,753.84,376.76,905.08l-64.57-12.89L345.64,747.5s11.61-28,35.26-23.23C405.36,729.16,411.71,753.84,411.71,753.84Z"/><line x1="313.19" x2="378.75" y1="884.47" y2="896.61" fill="none" stroke="#1f2e48" stroke-miterlimit="10"/><path fill="none" stroke="#d2d5da" stroke-miterlimit="10" stroke-width="1.09" d="M514.28,910.05s-2.89-18.28,1.78-18.16,3.78,12.08-1.78,18.16"/><path fill="none" stroke="#d2d5da" stroke-miterlimit="10" stroke-width="1.09" d="M515.68,911.77s8.47-15.57,11.76-11.59S523.2,912,515.68,911.77"/><path fill="#1f2e48" d="M462.78,904.77l-1.5,29.56.84,11.78,73.58-.35.5-9.93s-16.64-20.51-31.07-25.2l2.59-7.36L496,897.71l-2.57,11.61S464.53,895,462.78,904.77Z"/><path fill="#d2d5da" d="M460.11,947l.14-12.87,74.55,1.53a2.49,2.49,0,0,1,2.16,2.77l-.43,8"/><line x1="513.77" x2="507.17" y1="910.91" y2="913.47" fill="none" stroke="#fff" stroke-miterlimit="10" stroke-width="1.09"/><line x1="518.05" x2="511.87" y1="912.82" y2="916.61" fill="none" stroke="#fff" stroke-miterlimit="10" stroke-width="1.09"/><path fill="#d2d5da" d="M517.79,922c-3.91,2.29-5.79,7.22-5.44,11.59.06.7,1.15.7,1.1,0-.33-4,1.3-8.54,4.89-10.65a.54.54,0,0,0-.55-.94Z"/><path fill="#d2d5da" d="M471.51,917.11a8.67,8.67,0,0,0-.73,9.12,5.89,5.89,0,0,0,7.82,2.64c2.84-1.52,3.9-5.27,3.4-8.26s-3.11-5.9-6.34-5.64c-3.79.31-5.72,4.65-5.23,8,.1.69,1.15.39,1.05-.29-.36-2.5.94-5.8,3.57-6.53s5,1.52,5.71,3.87a7.34,7.34,0,0,1-1.88,7.31,4.64,4.64,0,0,1-6.69-.94,7.48,7.48,0,0,1,.09-8.54c.43-.54-.34-1.32-.77-.77Z"/><path fill="#d2d5da" d="M507,913.44l-7.55,2.68a.55.55,0,0,0,0,1,16.64,16.64,0,0,0,14.6-1l-.75-.75-6.68,9.23c-.3.42.2.89.62.8l13.79-2.73c.68-.14.39-1.19-.3-1.06L507,924.37l.62.8,6.67-9.23c.33-.46-.3-1-.75-.74a15.63,15.63,0,0,1-13.75.92v1l7.55-2.68c.65-.24.37-1.29-.29-1Z"/><path fill="none" stroke="#d2d5da" stroke-miterlimit="10" stroke-width="1.09" d="M374.19,912.54s-.49-18.5,4.12-17.78,2.19,12.47-4.12,17.78"/><path fill="none" stroke="#d2d5da" stroke-miterlimit="10" stroke-width="1.09" d="M375.36,914.43s10.42-14.34,13.16-10-5.74,11.21-13.16,10"/><path fill="#1f2e48" d="M323.81,900.63l-5.32,29.12-.68,11.79,73,9.18,1.78-9.78s-13.84-22.48-27.55-29l3.53-7-10.94-7-4.06,11.18S326.82,891.15,323.81,900.63Z"/><path fill="#d2d5da" d="M315.7,942.14l1.81-12.74,73.72,11.17a2.49,2.49,0,0,1,1.77,3l-1.46,7.92"/><line x1="373.58" x2="366.7" y1="913.33" y2="915.01" fill="none" stroke="#fff" stroke-miterlimit="10" stroke-width="1.09"/><line x1="377.57" x2="370.95" y1="915.77" y2="918.73" fill="none" stroke="#fff" stroke-miterlimit="10" stroke-width="1.09"/><path fill="#d2d5da" d="M376.2,924.79c-4.24,1.79-6.75,6.42-7,10.89,0,.7,1.06.7,1.09,0,.19-3.92,2.41-8.25,6.17-9.83.64-.27.36-1.33-.29-1.06Z"/><path fill="#d2d5da" d="M330.82,914.05a8.65,8.65,0,0,0-1.88,8.84,5.92,5.92,0,0,0,7.22,3.77c3-1,4.66-4.45,4.67-7.46s-2.07-6.41-5.36-6.76c-3.83-.41-6.49,3.76-6.44,7.18a.55.55,0,0,0,1.09,0c0-2.56,1.66-5.78,4.47-6.1s4.88,2.44,5.12,5-.88,5.58-3.21,6.85a4.69,4.69,0,0,1-6.25-2.17,7.48,7.48,0,0,1,1.34-8.34.54.54,0,0,0-.77-.77Z"/><path fill="#d2d5da" d="M366.49,915l-7.82,1.68a.55.55,0,0,0-.14,1,16.64,16.64,0,0,0,14.6.93l-.53-.92L364.79,926a.55.55,0,0,0,.38.93l14-.93c.7,0,.7-1.13,0-1.09l-14,.93.39.93,7.82-8.29c.34-.36,0-1.13-.54-.91a15.58,15.58,0,0,1-13.75-.81l-.13,1,7.82-1.68c.69-.15.4-1.2-.29-1.06Z"/><path fill="#ffa8dc" d="M459.79,484.1c-17.18-22.25,10.48-51.24,33.65-35.32.81.56,1.64,1.15,2.47,1.76,37.81,27.77,68.62,54.87,63.79,71.37-7.8,26.64-32.61,25.35-54.57,5.57C491.29,515,472.24,500.23,459.79,484.1Z"/><path fill="#000100" d="M447,372.52a118.64,118.64,0,0,1,25,67.08c.09,1.83.09,3.8-1,5.28s-2.88,2.07-4.59,2.58a158.69,158.69,0,0,1-84.21,1.59c-10.86-2.79-22.2-7.35-28.1-16.88a101.08,101.08,0,0,1,19.54-23.86c4.74-4.26,10-8.17,13.28-13.62,2.68-4.44,3.88-9.6,6.2-14.23,7.47-14.93,27.52-22,42.72-15.14"/><path fill="#000100" d="M402.57,369.82c-4.49,4.11-9.1,8.33-12.08,13.71-1.61,2.9-2.63,6.06-4.15,9a36.34,36.34,0,0,1-4,6c-6.06,7.49-14.22,12.87-20.61,20a31.49,31.49,0,0,0-7.44,13.15c0,.1.14.15.16,0,2.35-9.35,9.85-15.91,16.79-22a104.69,104.69,0,0,0,10.32-10,40.08,40.08,0,0,0,4-5.5,84.66,84.66,0,0,0,3.89-8.3c3-6.46,8.07-11.3,13.23-16,.08-.07,0-.19-.12-.12Z"/><path fill="#000100" d="M455.77,386.21a85.58,85.58,0,0,1,16.32,37.53,84.16,84.16,0,0,1,1.16,11.85.09.09,0,0,0,.17,0,85.75,85.75,0,0,0-11.05-39.69,83.49,83.49,0,0,0-6.46-9.78c-.06-.08-.21,0-.14.09Z"/><path fill="#ff9a63" d="M410.48,437l.42-23.13L423.63,420l6.72,2.38,3.95,17s-1.78,8.6-11.91,7.21S410.48,437,410.48,437Z"/><path fill="#af4e2f" d="M431.72,428.59c-3,3.1-14.91-5.2-17.89-8.17,0,0-.11,14,19.59,15.22Z"/><path fill="#fff" d="M367.46,450s65.09-33.24,121.53,6.42V629.27l-127,1Z"/><path fill="#ff9a63" d="M404.23,437.93s4.34,15.88,21.5,13.54c15-2,12.13-13.54,12.13-13.54S430.15,433,404.23,437.93Z"/><path fill="#ffa8dc" d="M502.76,630.59h-5.23l-57.47.95S428.56,444.22,434.83,436c0,0,47.6-3,57,12.67Z"/><path fill="#ffa8dc" d="M342.38,631.54h73.16s1-186.37-5.23-194.56c0,0-37.77,0-52.83,14.22Z"/><line x1="497.38" x2="496.54" y1="513.19" y2="547.93" fill="none" stroke="#1f2e48" stroke-miterlimit="10"/><line x1="342.38" x2="415.54" y1="631.54" y2="631.54" fill="none" stroke="#1f2e48" stroke-miterlimit="10"/><line x1="440.06" x2="501.81" y1="631.54" y2="631.54" fill="none" stroke="#1f2e48" stroke-miterlimit="10"/><g><path fill="#ff9a63" d="M427.6,428.92a20.62,20.62,0,0,0,12.08-1.62c13.53-6.49,13.63-24.23,9.94-32-2.66-5.59,1.21-20,1.21-20l-12.12-13.19-37.28,6.27L403.92,406h0c.55,8.29,3.85,16.09,11.54,20.07a20.69,20.69,0,0,0,6.38,2Z"/><path d="M427.16,390.55s.45.94-1,1.28a23.46,23.46,0,0,0-3.39,1.2.85.85,0,0,1-1-.15h0a.56.56,0,0,1-.05-.7,7.76,7.76,0,0,1,3.32-2.05C426.78,389.7,427.16,390.55,427.16,390.55Z"/><path fill="#000100" d="M449.3,382.74s-1-9.29-4-12.2a15.18,15.18,0,0,1,.77,11.95s-10.58,6.56-28.95,5.14a10.16,10.16,0,0,0-3.05-8.85c.72,7.44-.27,16.07-3.63,18.65l-1.17-15.86S415,401.1,403.89,416c0,0-17.53-21.91-13.6-39.3s23.56-33.05,50.22-19.07c0,0,17.27,11.48,9,25.58"/><ellipse cx="405.69" cy="403.22" fill="#ff9a63" rx="5.95" ry="8.76" transform="rotate(-9.55 405.66 403.186)"/><path fill="#000100" d="M408.9,401.56a11.54,11.54,0,0,0-1.21-2.27,3.51,3.51,0,0,0-6.34,1.81l-.24,3.26S402.92,396.21,408.9,401.56Z"/><polygon fill="none" stroke="#fff" stroke-miterlimit="10" stroke-width="1.03" points="405.69 409.55 411.96 419.15 402.6 420.73 405.69 409.55"/><path d="M439.84,389.41s-.23,1,1.25,1a23.23,23.23,0,0,1,3.56.41.85.85,0,0,0,.92-.36h0a.54.54,0,0,0-.11-.7,7.78,7.78,0,0,0-3.69-1.25C440,388.5,439.84,389.41,439.84,389.41Z"/><path fill="none" stroke="#35281f" stroke-miterlimit="10" stroke-width=".52" d="M434.81,395.54s-1,5.52,2.94,6.18,1.48,5.38-1.43,5.63"/></g><g><rect width="302.42" height="152.93" x="971.73" y="654.88" fill="#a5abff"/><rect width="302.42" height="152.93" x="963.14" y="646.29" fill="#fff"/></g><g><rect width="36.91" height="22.29" x="993.64" y="667.34" fill="#444ab4"/><rect width="36.91" height="22.29" x="1043.47" y="667.34" fill="#696ec3"/><rect width="36.91" height="22.29" x="1094.16" y="667.34" fill="#8f92d2"/><rect width="36.91" height="22.29" x="1144.85" y="667.34" fill="#b4b7e1"/><rect width="36.91" height="22.29" x="1195.54" y="667.34" fill="#dadbf0"/><rect width="36.91" height="22.29" x="992.78" y="711.15" fill="#fdc93b"/><rect width="36.91" height="22.29" x="1042.61" y="711.15" fill="#fdd462"/><rect width="36.91" height="22.29" x="1093.3" y="711.15" fill="#fedf89"/><rect width="36.91" height="22.29" x="1143.99" y="711.15" fill="#fee9b1"/><rect width="36.91" height="22.29" x="1194.68" y="711.15" fill="#fff4d8"/><rect width="36.91" height="22.29" x="991.92" y="754.97" fill="#f1447c"/><rect width="36.91" height="22.29" x="1041.75" y="754.97" fill="#f46996"/><rect width="36.91" height="22.29" x="1092.44" y="754.97" fill="#f78fb0"/><rect width="36.91" height="22.29" x="1143.13" y="754.97" fill="#f9b4cb"/><rect width="36.91" height="22.29" x="1193.82" y="754.97" fill="#fcdae5"/></g><g><path fill="#af4e2f" d="M429.63,411.7c-.16,1.07,1.1,2.77,3.32,3.11s4.56-.83,4.72-1.9-1.51-2.21-3.73-2.55S429.79,410.63,429.63,411.7Z"/><path fill="none" stroke="#35281f" stroke-miterlimit="10" stroke-width=".52" d="M438.61,411.73s-4,3.77-10.08-1.68"/></g><g><circle cx="442.98" cy="396.18" r="1.78" fill="#000100" transform="rotate(-53.55 442.943 396.172)"/></g><g><circle cx="425.32" cy="396.49" r="1.84" fill="#000100" transform="rotate(-52.91 425.36 396.506)"/></g><g><path fill="#ff9a63" d="M614.35,466.39l-25.77-20.26,21.08-22c5.59-7.12,9.19-7.21,16.3-1.61h0c7.12,5.59.4,15-2.88,24.71Z"/><path fill="#ffa8dc" d="M588.81,439l40.83,12.63s-57.58,111.11-88.75,73.93c-24.64-29.4,15.19-56.3,15.19-56.3Z"/><line x1="588.81" x2="629.64" y1="438.98" y2="451.61" fill="none" stroke="#1f2e48" stroke-miterlimit="10"/></g><g><path fill="#ff9a63" d="M629.24,409.69l9.15-10.83c6.7-15.07-4.3-6-4.3-6l-8.55,6.83a34,34,0,0,0-11.29,16.59h0a19.1,19.1,0,0,0-.53,12.74c2.47,7.75,7.5,8.43,12.11,8.46,10.84.06,15-10,15-10l8.39-11.64c1.87-6.18-4.69-6.83-4.69-6.83,0-6.73-5.62-5.57-5.62-5.57"/><path fill="#ff9a63" d="M639.64,429.7l9.91-7.65s3.44-5.15,0-6-12.88,9.45-12.88,9.45Z"/><rect width="444.74" height="280.05" x="629.79" y="355.93" fill="#a5abff"/><rect width="435.58" height="287.81" x="629.79" y="337" fill="#fff"/><rect width="435.58" height="24.06" x="630.65" y="337.86" fill="#a5abff"/><rect width="192.45" height="192.45" x="658.15" y="379.96" fill="none" stroke="#444ab4" stroke-miterlimit="10"/><polygon fill="#bfca32" points="658.15 509.3 724.3 452.98 775.85 509.69 813.65 482.19 850.59 509.69 848.87 571.54 659 571.54 658.15 509.3"/><circle cx="780.57" cy="443.1" r="12.46" fill="#fdc93b"/><path fill="#ff9a63" stroke="#231f20" stroke-miterlimit="10" stroke-width=".44" d="M629,404.31l14.3-5.7s3.47,5.18-5.29,11.6c0,0-1.63,13.68-14.22,12.78"/><circle cx="644" cy="349" r="4.5" fill="#444ab4"/><circle cx="658.5" cy="348.5" r="4.5" fill="#fff"/><circle cx="673" cy="349" r="4.5" fill="#fff"/></g><g><rect width="321.71" height="59.96" x="299.87" y="540.44" fill="#b7d07b" transform="rotate(-14.98 460.537 570.256)"/><path fill="#444ab4" d="M298.15,583.6H321a0,0,0,0,1,0,0v60a0,0,0,0,1,0,0H298.15a20.39,20.39,0,0,1-20.39-20.39V604a20.39,20.39,0,0,1,20.39-20.39Z" transform="rotate(-14.98 299.265 613.39)"/><polygon fill="#ff9a63" points="608.37 499.89 623.86 557.81 688.08 510.89 608.37 499.89"/><polygon fill="#1f2e48" points="668.81 508.23 672.55 522.24 688.08 510.89 668.81 508.23"/><line x1="275.76" x2="612.78" y1="608.94" y2="516.37" fill="none" stroke="#1f2e48" stroke-miterlimit="10"/><line x1="280.91" x2="617.93" y1="628.2" y2="535.64" fill="none" stroke="#1f2e48" stroke-miterlimit="10"/></g><g><path fill="#ff9a63" d="M422.46,567.87c14.69-5.73,29-11.27,35.46-11.11,1,0,3.17.69,3.69,1.8.42.91-.7,3.09-1.47,3.74A35.89,35.89,0,0,1,449,568.7c6.24,1.28,11.2.72,17.48-.37,4.16-.73,10.16-2,14.11-1.86a2.67,2.67,0,0,1,1.52,4.78,18.61,18.61,0,0,1-7.76,3.06l-13.82,2.6a142.58,142.58,0,0,1,21.27.92c1.07.12,3.34,1.13,3.6,2.55.22,1.25-1.61,2.58-2.86,2.78-15,2.44-11.43.48-23.05,2.09,9.33,1.58,12,1.28,18,2.4,1.37.26,3.24-.12,3.75,1.4a3.09,3.09,0,0,1-.67,3c-1.37,1.61-4.25,1.53-6.25,1.65a50.54,50.54,0,0,1-16.13-1.23s0,0,0,0c3.71,1.36,8.73,2.31,12.54,4.45a2.59,2.59,0,0,1-.74,4.81c-1.52.3-2.85.42-2.85.42-18.13-1.71-29-.9-41.74-6.83-1.16-.55-5.74-5.67-6.47-6.72a6.1,6.1,0,0,1-.79-3.32A35.37,35.37,0,0,1,422,568.39"/></g><g><path fill="#ff9a63" d="M414.28,592.27l-29.6-10.41,15.14-31.1,28.95,16.09c7.93,3.85,11.44,11.51,7.58,19.43l-1.17,2.41C431.33,596.61,422.2,596.13,414.28,592.27Z"/><path fill="#ffa8dc" d="M427.93,559.06,394.59,588.3s-108.48-19-82.32-59.83c20.69-32.3,58.27-2.34,58.27-2.34Z"/><path fill="none" stroke="#1f2e48" stroke-miterlimit="10" stroke-width=".5" d="M375.22,528.82l52.71,30.24L394.59,588.3S300.41,566.56,309.45,539"/></g><g><path fill="#ffa8dc" d="M369.22,442.87s48.13,8.86,26,50.24c-25.28,47.35-42.12,66.12-58.73,70.57s-37.63-17.14-23.78-43.25S352.31,443.35,369.22,442.87Z"/><line x1="386.67" x2="377.42" y1="511.69" y2="526.08" fill="none" stroke="#1f2e48" stroke-miterlimit="10"/></g><g><path fill="#444ab4" d="M1422.59,743.4,1440,611.17l84.64,12.32-38.41,132.15a36.64,36.64,0,0,1-21.39,20.73,30.67,30.67,0,0,1-31.74-6.54C1427.75,764.56,1423,756.28,1422.59,743.4Z"/></g><g><path fill="#ff9a63" d="M1434.29,883v17.42c11,8.27,22.25,7.94,33.71,0V883Z"/><path fill="#444ab4" d="M1422.16,745.85l-5,145.68h60.62l8.32-135.44s-12.23-28.56-29.67-28.56S1429.25,736.83,1422.16,745.85Z"/><line x1="1479.14" x2="1418.12" y1="878.48" y2="878.48" fill="none" stroke="#1f2e48" stroke-miterlimit="10"/></g><g><path fill="#444ab4" d="M1521.7,747.18l-21.22-127.53,85.94,1.8,4.82,125.87s-12.84,28.22-35,28.17C1522.6,775.42,1521.7,747.18,1521.7,747.18Z"/><line x1="1512.83" x2="1493.97" y1="680.51" y2="658.94" fill="none" stroke="#1f2e48" stroke-miterlimit="10" stroke-width="2"/></g><g><path fill="#ff9a63" d="M1597.76,883.75l3.41,17.09c-9.18,10.26-20.27,12.14-33.06,6.59l-3.41-17.08Z"/><path fill="#444ab4" d="M1522,752l34.15,147.8,63.1-12.59-28-141.4s-16-27.31-39.12-22.7C1528.22,727.87,1522,752,1522,752Z"/><line x1="1618.3" x2="1554.23" y1="879.65" y2="891.52" fill="none" stroke="#1f2e48" stroke-miterlimit="10"/></g><g><path fill="none" stroke="#d2d5da" stroke-miterlimit="10" stroke-width="1.09" d="M1558.68,907.09s.48-18.08-4-17.38-2.14,12.19,4,17.38"/><path fill="none" stroke="#d2d5da" stroke-miterlimit="10" stroke-width="1.09" d="M1557.54,908.93s-10.18-14-12.86-9.74,5.61,10.95,12.86,9.74"/><path fill="#1f2e48" d="M1607.92,895.45l5.19,28.45.68,11.52-71.35,9-1.73-9.56s13.52-22,26.91-28.35l-3.44-6.8,10.69-6.88,4,10.92S1605,886.18,1607.92,895.45Z"/><path fill="#d2d5da" d="M1615.85,936l-1.77-12.46-72,10.92a2.42,2.42,0,0,0-1.74,2.95l1.43,7.75"/><line x1="1559.28" x2="1566" y1="907.86" y2="909.5" fill="none" stroke="#fff" stroke-miterlimit="10" stroke-width="1.09"/><line x1="1555.38" x2="1561.85" y1="910.24" y2="913.14" fill="none" stroke="#fff" stroke-miterlimit="10" stroke-width="1.09"/><path fill="#d2d5da" d="M1556.43,920.1c3.68,1.55,5.84,5.77,6,9.6,0,.7,1.12.7,1.09,0-.21-4.37-2.66-8.9-6.82-10.65-.64-.27-.93.78-.29,1.05Z"/><path fill="#d2d5da" d="M1600.31,909.32a7.4,7.4,0,0,1,1.69,7.18,4.72,4.72,0,0,1-5.69,3.39c-2.5-.74-3.87-3.66-3.94-6.09s1.43-5.35,4.12-5.73c3.17-.44,5.29,3.19,5.25,5.93a.55.55,0,0,0,1.09,0c0-3-2-6.56-5.22-7s-5.81,2.46-6.25,5.42.83,6.47,3.48,8a5.63,5.63,0,0,0,7.58-2.18,8.37,8.37,0,0,0-1.34-9.7c-.5-.49-1.27.28-.77.77Z"/><path fill="#d2d5da" d="M1565.92,910.5l7.65,1.65-.13-1a15.21,15.21,0,0,1-13.44.79c-.53-.22-.87.55-.53.92l7.64,8.09.38-.93-13.7-.9c-.7,0-.7,1,0,1.09l13.7.9a.55.55,0,0,0,.39-.93l-7.64-8.1-.53.92a16.3,16.3,0,0,0,14.28-.91.55.55,0,0,0-.13-1l-7.65-1.65c-.69-.15-1,.91-.29,1Z"/></g><g><path fill="none" stroke="#d2d5da" stroke-miterlimit="10" stroke-width="1.09" d="M1421.78,904.66s2.82-17.87-1.74-17.76-3.7,11.81,1.74,17.76"/><path fill="none" stroke="#d2d5da" stroke-miterlimit="10" stroke-width="1.09" d="M1420.41,906.33s-8.28-15.21-11.49-11.32,4.14,11.59,11.49,11.32"/><path fill="#1f2e48" d="M1472.11,899.49l1.46,28.89-.82,11.51-71.9-.34-.49-9.71s16.26-20,30.36-24.62l-2.53-7.19,11.5-5.44,2.51,11.34S1470.4,889.92,1472.11,899.49Z"/><path fill="#d2d5da" d="M1474.72,940.74l-.14-12.57-72.85,1.49a2.42,2.42,0,0,0-2.11,2.7l.42,7.87"/><line x1="1422.28" x2="1428.73" y1="905.49" y2="908" fill="none" stroke="#fff" stroke-miterlimit="10" stroke-width="1.09"/><line x1="1418.1" x2="1424.14" y1="907.36" y2="911.07" fill="none" stroke="#fff" stroke-miterlimit="10" stroke-width="1.09"/><path fill="#d2d5da" d="M1417.8,917.24c3.51,2,5.1,6.49,4.78,10.39,0,.7,1,.7,1.09,0,.35-4.28-1.49-9.1-5.32-11.34a.55.55,0,0,0-.55,1Z"/><path fill="#d2d5da" d="M1462.81,912.32a7.36,7.36,0,0,1,.59,7.53,4.69,4.69,0,0,1-6.28,2.22c-2.25-1.25-3.13-4.31-2.77-6.73s2.31-4.88,4.94-4.81c3.06.09,4.69,3.84,4.3,6.49-.1.68,1,1,1.06.29.43-3-1-6.61-4-7.64s-6,1.33-7,4.06a8.21,8.21,0,0,0,2,8.65,5.59,5.59,0,0,0,7.94-.88,8.34,8.34,0,0,0,0-10c-.43-.56-1.2.22-.78.77Z"/><path fill="#d2d5da" d="M1428.58,909l7.37,2.62v-1a15.21,15.21,0,0,1-13.42-.9c-.45-.25-1.09.29-.75.75l6.52,9,.62-.81L1415.45,916c-.69-.13-1,.92-.29,1l13.47,2.68c.42.08.92-.39.61-.8l-6.52-9-.75.74a16.26,16.26,0,0,0,14.27,1,.55.55,0,0,0,0-1l-7.37-2.62c-.66-.24-.95.82-.29,1Z"/></g><g><path fill="#a4c4ff" d="M1481.82,486.66c11-25.15-22-46.11-40.24-25.55-.64.72-1.28,1.47-1.93,2.25-29.31,35.26-52.13,68.23-43.66,82.73,13.69,23.43,36.91,16.35,53.07-7.59C1459.25,523.42,1473.83,504.9,1481.82,486.66Z"/></g><g><path fill="#f6ab78" d="M1339.7,502.05l-12,29.72-23.5-12.85c-8.21-3.3-9.74-8.26-6.44-16.47h0c3.3-8.21,13.35-6.65,21.55-3.35Z"/><path fill="#a4c4ff" d="M1339.26,498.65l-23.86,32.24S1423,582,1433,543.59c9.39-36.29-50.71-37.81-50.71-37.81Z"/><line x1="1339.26" x2="1318.99" y1="498.65" y2="530.89" fill="none" stroke="#1f2e48" stroke-miterlimit="10"/></g><g><path fill="#f6ab78" d="M1306.39,493l-18.18-28.88a7.37,7.37,0,0,0-2.59-2.83c-1.15-.58-2.83-.35-3.37.83a3.67,3.67,0,0,0,.21,2.67l4.79,14a3.42,3.42,0,0,1,.19,2.52c-.66,1.42-2.72,1.26-4.22.78-9.91-3.22-26.5-17.07-28.79-11.81-.65,1.57.93,3.1,2.33,4.07l18.94,13.16c-17.32-3.45-16.73-4.88-25.63-6.11a3,3,0,0,0-1.33,0c-1.32.42-1.55,2.35-.75,3.48a7.09,7.09,0,0,0,3.46,2.16c7.15,2.77,11.23,5.32,20.08,11.08l-20.32.57c-1.77.05-4.22,1-3.66,2.67a2.2,2.2,0,0,0,1,1.18c3.94,2.14,9.88,1.94,26.52,2.23a43.35,43.35,0,0,0-15.78,8.7c-2.84,6.57,13-.11,19.28-1.62,2.22-.53,16,2.34,18.28,2.45,5.4.27-1.24,1.25,4,.17,4-.8,6.72-4.64,7.51-8.59s0-8-.75-12"/></g><g><path fill="#fff" d="M1565.26,455.08s-63.61-32.47-118.76,6.28v168.9l124.15,1Z"/><path fill="#f6ab78" d="M1529.33,443.27s-4.24,15.52-21,13.23c-14.68-2-11.86-13.23-11.86-13.23S1504,438.49,1529.33,443.27Z"/><path fill="#a4c4ff" d="M1423.18,645.19H1494s-2.62-156.93,2.49-201.92c0,0-43.56,3.6-52.75,18.92Z"/><path fill="#a4c4ff" d="M1589,640.18l-.17.05a101.51,101.51,0,0,1-31.36,5h-39.56s10-167.77,8.74-201.92c0,0,33.62,0,48.33,13.9Z"/><line x1="1438.29" x2="1439.12" y1="516.82" y2="550.77" fill="none" stroke="#1f2e48" stroke-miterlimit="10"/></g><g><polygon fill="#fff" points="1270.55 587.27 1156.89 573.34 1209.46 406.33 1309.65 457.48 1270.55 587.27"/><rect width="28.72" height="183.11" x="1283.25" y="428.66" fill="#fdc93b" transform="rotate(16.23 1297.447 520.131)"/><path fill="#fdc93b" d="M1472.08,617.74l-171.76-71.49,14.29-49.13,183.89,39.5C1559.19,556.15,1524.48,643.28,1472.08,617.74Z"/><polygon fill="#ffbb46" points="1305.49 547.75 1312.52 520.39 1449.49 608.34 1305.49 547.75"/><polygon fill="#c9cdff" points="1163.24 556.23 1229.64 560.59 1169.65 543.38 1163.24 556.23"/><polygon fill="#c9cdff" points="1196.27 457.38 1261.18 466.92 1200.08 443.79 1196.27 457.38"/><polygon fill="#c9cdff" points="1178.51 506.28 1271.24 516.5 1186.43 484.23 1178.51 506.28"/><path fill="#f1447c" d="M1203.67,462c4.45.26,9.06.57,13,2.7s6.9,6.65,5.8,11c-.93,3.63-4.28,6-7,8.59s-5,6.66-3.18,9.94,6.52,3.49,10.32,4.17c11,1.95,19.58,15.51,13.65,25-4.72,7.56-16.42,10.59-17.43,19.44-.58,5.12,3.06,9.85,7.34,12.71s9.28,4.46,13.68,7.14a32.25,32.25,0,0,1,13.67,17.13c1.61,4.79,1.75,10.81-2.06,14.12-3,2.59-7.4,2.65-11.28,1.9-12.43-2.4-23.09-11.41-35.7-12.41-4.93-.39-9.86.48-14.8.7-10.59.47-24.74-3.13-33.93-8.42l35.85-115.21Z"/><path fill="#f9b4cb" d="M1170.47,577.75c12.84,5.84,28.5-3.73,41.77,1.1,6.25,2.28,11,7.45,16.9,10.51s14.66,3,17.66-2.93-2.28-13.11-8-16.7-12.81-6.23-15.91-12.28c6.34,5.87,15.24,8.15,22.1,13.4s11,16.45,4.51,22.2c-4.28,3.81-11,3.06-16.2.56s-9.56-6.43-14.81-8.73c-17-7.45-39.07,3.63-54.47-6.77"/></g><g><path fill="#a4c4ff" d="M1561.64,450s-46.11,7.73-24.52,48.17c24.7,46.27,41.16,64.61,57.39,69s36.78-16.76,23.24-42.27S1578.16,450.48,1561.64,450Z"/><line x1="1545.51" x2="1554.55" y1="514.38" y2="528.44" fill="none" stroke="#1f2e48" stroke-miterlimit="10"/></g><g><path fill="#f6ab78" d="M1519.5,594.11l28.93-10.18-14.79-30.39-28.3,15.72c-7.74,3.76-11.17,11.25-7.4,19l1.14,2.35C1502.85,598.34,1511.76,597.87,1519.5,594.11Z"/><path fill="#a4c4ff" d="M1506.17,561.65l32.58,28.58s106-18.55,80.44-58.48c-20.21-31.56-56.94-2.28-56.94-2.28Z"/><path fill="none" stroke="#1f2e48" stroke-miterlimit="10" d="M1557.67,532.09l-51.5,29.56,32.58,28.58s92-21.25,83.2-48.23"/></g><g><path fill="#f6ab78" d="M1509.09,568.87c-14.68-5.73-28.95-11.27-35.46-11.11-1,0-3.17.69-3.68,1.8-.43.91.69,3.09,1.46,3.74a36,36,0,0,0,11.14,6.4c-6.24,1.28-11.2.72-17.47-.37-4.17-.73-10.17-2-14.12-1.86a2.67,2.67,0,0,0-1.52,4.78,18.65,18.65,0,0,0,7.77,3.06l13.82,2.6a142.77,142.77,0,0,0-21.28.92c-1.06.12-3.33,1.13-3.59,2.55-.23,1.25,1.61,2.58,2.86,2.78,15,2.44,11.42.48,23,2.09-9.32,1.58-12,1.28-18,2.4-1.37.26-3.23-.12-3.75,1.4a3.09,3.09,0,0,0,.67,3c1.38,1.61,4.25,1.53,6.25,1.65a50.54,50.54,0,0,0,16.13-1.23s0,0,0,0c-3.72,1.36-8.73,2.31-12.55,4.45a2.59,2.59,0,0,0,.74,4.81c1.52.3,2.85.42,2.85.42,18.14-1.71,29-.9,41.74-6.83,1.16-.55,5.74-5.67,6.47-6.72a6.1,6.1,0,0,0,.79-3.32,35.25,35.25,0,0,0-3.82-16.89"/></g><g><path fill="#f6ab78" d="M1499.83,428.5l-1.58,17.3a9.55,9.55,0,0,0,4.18,9.65,18.93,18.93,0,0,0,11.82,3.34,13.41,13.41,0,0,0,12-11.24l1.66-24.37.29-12-27.92,9.95Z"/><path fill="#091014" d="M1499.07,440.6c9.06-2.43,17.75-7.84,21.13-15.87-8,5.83-20.69,5.37-20.69,5.37Z"/></g><g><path fill="#f6ab78" d="M1513.81,430.35a45.43,45.43,0,0,1-11,.46c-22.83-1.91-18.88-21.89-18-33.34.45-6.22-1.17-20.25-1.17-20.25L1495.76,364l37.51,6.37-2.62,38.43a24.41,24.41,0,0,1-16.84,21.58Z"/><path fill="#091014" d="M1509,372.77l10.71,6.46a15,15,0,0,1,7.21,11.35l0,.33,1.07,14.3,3.84.27,5.69-25a25.34,25.34,0,0,0-.84-14.38c-2.6-7.07-9-14.76-24.67-12.17-21.15,3.5-7.34,14.66-4.3,17.73A15,15,0,0,0,1509,372.77Z"/><circle cx="1532.06" cy="402.27" r="5.63" fill="#f6ab78"/><line x1="1530.88" x2="1534.68" y1="406.01" y2="399.62" fill="none" stroke="#000100" stroke-miterlimit="10" stroke-width=".24"/><line x1="1530.29" x2="1532.48" y1="400.12" y2="402.75" fill="none" stroke="#000100" stroke-miterlimit="10" stroke-width=".24"/><ellipse cx="1501.52" cy="372.91" fill="#091014" rx="10.44" ry="12.97" transform="rotate(-85.99 1501.598 372.863)"/><circle cx="1486.39" cy="374.9" r="6.06" fill="#091014"/><circle cx="1489.31" cy="361.65" r="10.35" fill="#091014" transform="rotate(-2.7 1489.363 361.593)"/><path fill="#091014" d="M1516.14,355.4c-.41,5.84-8.15,10.05-14,9.64a10.59,10.59,0,0,1-9.83-11.31c.16-2.27,2.58-10.44,11.31-9.83C1509.47,344.31,1516.55,349.56,1516.14,355.4Z"/><circle cx="1511.57" cy="396.43" r="8.82" fill="none" stroke="#000100" stroke-miterlimit="10" stroke-width=".24" transform="rotate(-2.7 1511.679 396.51)"/><line x1="1528.21" x2="1520.37" y1="394.72" y2="397.04"/><path fill="none" stroke="#35281f" stroke-miterlimit="10" stroke-width=".24" d="M1501.58,402.25s0,4.15-3,4.11-1.81,3.72.28,4.29"/><circle cx="1489.52" cy="394.72" r="8.82" fill="none" stroke="#000100" stroke-miterlimit="10" stroke-width=".24" transform="rotate(-2.7 1489.643 394.716)"/><line x1="1498.64" x2="1501.94" y1="395.52" y2="396.12" fill="none" stroke="#000100" stroke-miterlimit="10" stroke-width=".24"/><rect width="6.97" height="2.15" x="1507.8" y="390.27" rx=".89" transform="rotate(13.48 1511.07 391.29)"/><rect width="6.97" height="2.15" x="1486.5" y="389.37" rx=".27" transform="rotate(-10.95 1489.96 390.452)"/></g><g><path fill="none" stroke="#000100" stroke-miterlimit="10" stroke-width=".24" d="M1497.59,416.24s8.86,1.91,13-4.11"/></g><g><circle cx="1509.22" cy="397.77" r="1.61" fill="#000100"/></g><g><circle cx="1491.18" cy="396.35" r="1.61" fill="#000100"/></g><g><rect width="330.37" height="195.08" x="571.76" y="697.73" fill="#fff" stroke="#444ab4" stroke-miterlimit="10" stroke-width=".94" rx="19"/><line x1="575.35" x2="899.18" y1="724.38" y2="726.27" fill="#fff" stroke="#444ab4" stroke-miterlimit="10" stroke-width=".94"/><circle cx="592.46" cy="712.03" r="3.58" fill="#fff" stroke="#444ab4" stroke-miterlimit="10" stroke-width=".94"/><circle cx="607.69" cy="712.03" r="3.58" fill="#fff" stroke="#444ab4" stroke-miterlimit="10" stroke-width=".94"/><circle cx="624.49" cy="712.93" r="3.58" fill="#fff" stroke="#444ab4" stroke-miterlimit="10" stroke-width=".94"/><rect width="152.57" height="34.97" x="592.46" y="744.19" fill="#fdc93b"/><rect width="80.68" height="17.57" x="594.25" y="857.25" fill="#a5abff"/><polyline fill="none" stroke="#a5abff" stroke-miterlimit="10" points="802.79 866.08 766.75 866.08 766.75 842.95"/><polyline fill="none" stroke="#a5abff" stroke-miterlimit="10" points="888.53 833.95 888.53 866.08 858.79 866.08"/><polyline fill="none" stroke="#a5abff" stroke-miterlimit="10" points="852.26 744.19 888.53 744.19 888.53 779.16"/><polyline fill="none" stroke="#a5abff" stroke-miterlimit="10" points="766.75 769.57 766.75 744.19 795.91 744.19"/><path fill="#ffa8dc" d="M861.49,821.68l-33.63-18-13.31,35.74S846.33,848,861.49,821.68Z"/><path fill="#bfca33" d="M814.55,839.46c-18.55-9.91-20.88-18.85-20.88-18.85-11.43-29.48,12.11-48,12.11-48l22.08,31.1Z"/><circle cx="827.86" cy="803.72" r="38.13" fill="none" stroke="#a5abff" stroke-miterlimit="10" stroke-width="1.41" transform="rotate(-68.03 827.84 803.714)"/></g><g><rect width="161.37" height="3.73" x="594.25" y="796.05" fill="#a5abff"/><rect width="161.37" height="3.73" x="594.25" y="806.84" fill="#a5abff"/><rect width="161.37" height="3.73" x="594.25" y="817.63" fill="#a5abff"/><rect width="161.37" height="3.73" x="594.25" y="828.42" fill="#a5abff"/><rect width="113.29" height="3.73" x="594.25" y="839.21" fill="#a5abff"/></g><g><path fill="#444ab4" d="M1096.32,563.55l-59.9-10.49-2.21,3,34.41,25.71a4.72,4.72,0,0,1,6-.35,4.78,4.78,0,0,1-5.72,7.66,4.71,4.71,0,0,1-1.37-5.85l-34.41-25.72-2.08,2.79,27.39,55.93c13.4-16,30.64-5.67,30.64-5.67l12.22-16.07C1085.15,582.38,1096.32,563.55,1096.32,563.55Z"/><rect width="17.15" height="17.15" x="1017.8" y="541.34" fill="none" stroke="#696ec3" stroke-miterlimit="10" transform="rotate(128.11 1026.375 549.885)"/><path fill="none" stroke="#696ec3" stroke-miterlimit="10" stroke-width="6" d="M1009,448.45A73.26,73.26,0,0,1,918.6,563.73"/><rect width="160.46" height="2.34" x="946.01" y="546.97" fill="#696ec3" transform="rotate(-51.89 1026.295 548.142)"/></g><g><path fill="#fff" stroke="#444ab4" stroke-miterlimit="10" d="M961.15,418.08,1028.5,259.5l-24-10L942.12,409.14l.8,20.08a3.17,3.17,0,0,0,5.45,2.08Z"/><path fill="#444ab4" d="M1031.6,182.47h0a13.5,13.5,0,0,1,13.5,13.5v61.5a0,0,0,0,1,0,0h-27a0,0,0,0,1,0,0V196a13.5,13.5,0,0,1,13.5-13.5Z" transform="rotate(22.44 1031.48 219.918)"/><path fill="#444ab4" d="M1002.85,251.33h26.43a11,11,0,0,1,11,11v0a0,0,0,0,1,0,0H991.85a0,0,0,0,1,0,0v0a11,11,0,0,1,11-11Z" transform="rotate(22.44 1015.946 256.768)"/><polygon fill="#f1447c" points="944.71 399.55 967.56 401.25 960.69 417.89 943.97 434.79 941.82 411.18 944.71 399.55"/></g><g><line x1="181.94" x2="1767.47" y1="948.49" y2="942.94" fill="none" stroke="#1f2e48" stroke-miterlimit="10" stroke-width="4.29"/></g></svg>