<svg id="SvgjsSvg1001" width="360" height="360" xmlns="http://www.w3.org/2000/svg" version="1.1" xmlns:xlink="http://www.w3.org/1999/xlink" xmlns:svgjs="http://svgjs.com/svgjs"><defs id="SvgjsDefs1002"></defs><g id="SvgjsG1008"><svg xmlns="http://www.w3.org/2000/svg" data-name="Layer 2" viewBox="0 0 654.98 500" width="360" height="360"><path fill="#ece0e0" d="M654,376.76A151.18,151.18,0,0,1,560.5,500H146.58a151.2,151.2,0,0,1-23.67-286.59q3.41-1.44,6.9-2.71a150.2,150.2,0,0,1-11.7-71.48c.12-1.64.29-3.28.47-4.93A151.2,151.2,0,0,1,386.33,56.07,151.19,151.19,0,0,1,588.1,234.32,151.13,151.13,0,0,1,654,376.76Z" class="colorece0e0 svgShape"></path><path fill="#ffffff" d="M648.14,355.67H601.39V265a1.49,1.49,0,0,0-1.45-1.49h0A1.49,1.49,0,0,0,598.4,265v90.67H498V245.73h83.15a1.54,1.54,0,0,0,1.55-1.23,1.5,1.5,0,0,0-1.47-1.76H498V132.8h66.92a1.55,1.55,0,0,0,1.56-1.23,1.49,1.49,0,0,0-1.47-1.75H498V75.21a1.49,1.49,0,0,0-1.47-1.49h0A1.49,1.49,0,0,0,495,75.21v54.61H385v-68a1.45,1.45,0,0,0-1.45-1.45h0A1.5,1.5,0,0,0,382,61.87v67.95H272.11V12.32a1.49,1.49,0,0,0-3-.18,1.09,1.09,0,0,0,0,.18v117.5l-108.6,0a1.48,1.48,0,0,0-1.48,1.46v0a1.52,1.52,0,0,0,1.51,1.54c11.27,0,108.57,0,108.57,0V242.74H113.52a1.48,1.48,0,0,0-1.41,1.93v0a1.48,1.48,0,0,0,1.41,1h155.6V355.67H159.19V77.2a1.48,1.48,0,0,0-2.4-1.16l0,0a1.46,1.46,0,0,0-.56,1.16V355.67H68.61a1.49,1.49,0,0,0-1.44,1.12v0a1.48,1.48,0,0,0,1.44,1.84H156.2V468.59H105.91a1.51,1.51,0,0,0-1.5,1.51h0a1.5,1.5,0,0,0,1.5,1.48H546.83a1.57,1.57,0,0,0,1.57-1.24,1.5,1.5,0,0,0-1.48-1.75H498V358.66H598.4V470.21a1.46,1.46,0,0,0,1.49,1.45h0a1.48,1.48,0,0,0,1.47-1.49V358.66h46.74a1.48,1.48,0,0,0,1.48-1.56v0A1.47,1.47,0,0,0,648.14,355.67Zm-379,112.92H159.19V358.66H269.13Zm112.91,0H272.11V358.66H382Zm0-112.92H272.11V245.73H382Zm0-112.93H272.11V132.8H382ZM495,468.59H385V358.66H495Zm0-112.92H385V245.73H495Zm0-112.93H385V132.8H495Z" class="colorfff svgShape"></path><path fill="#7da2bc" d="M385.56 99.15c-8.58 3.21-13.2 2.64-16.89 2.37s-5.81-2.11-10.82-.53-12.15 1.06-8.45 4.76 7.92 4.22 5.54 8.44 3.7.79-3.43 8.18-9.5 14-5.54 13.73 9-10 14.51-9.5 10.83.53 13.47-4 .26-5.28 4.75-8.18 4.48-4 6.07-6.07 2.64-2.38 2.64-2.38 2.37 1.06 2.37-1.32S387.67 98.36 385.56 99.15zM359.68 138.06c-4.22-.53-3.43 3.43-.53 3.43s7.66-1.58 7.13-4S359.68 138.06 359.68 138.06zM335.49 139.78c-6.19 1.91-10.83 2.11-7.13 5.54s5.54 6.07 2.37 8.71-7.39 3.7-4.75 5.54 8.19 1.85 8.71-1.58.53-1.85 2.91-4.22 1-4.23 1-6.87v-4.48A2.71 2.71 0 00335.49 139.78zM324.11 113.12c-2.78 0-2.37 2-1.38 2.24s2.77.86 3.1-.33S325 113.12 324.11 113.12zM323.65 107c-1.81.79 0 .86.2 2.18s-.07 2.37 1.25 1.91 3-.13 2.18-1.45S325.17 106.32 323.65 107z" class="color7da2bc svgShape"></path><path fill="#7da2bc" d="M346.31 113.31a16.1 16.1 0 01-4 2c-2.11.86-3.69.59-4.95 1.65s-4.09.46-2.83-1.45 1.91-2.64 3.69-2.64 4.95-2 6.47-1.85S348.68 111.72 346.31 113.31zM312.83 108.23c-3 0-6.86.53-4.95 2.12s.53 2.9 3 3.43 5.8.26 5.74-1.65-1.85-1.45-2.58-1.78S313.42 108.23 312.83 108.23zM317.25 107.18c-3.06.23-2.37 2.7-.59 2.24S319 107.05 317.25 107.18zM309.89 115.53c-1.92.32-2.47 1.58-3.95.29s-2.28-2.27-4.46-1.19-1.88 2.58-1.29 3.87-.19.49-2.07.79-2.08 3.66.69 3.76 3.66 1.58 6.73.69 1.09-4.16 3.46-5.44S311.68 115.23 309.89 115.53zM317.42 115.72c-5.32-.28-5.74 2.58-6.54 4.56s2 4.35 3.17 1.78 1-3.47 3.27-4.55S319.3 115.82 317.42 115.72zM300.89 111c-2.58.79-1.78 2.28-3.86 2.77s-2.18 3 .69 2.08a16.17 16.17 0 005.64-2.77C304.25 112.26 300.89 111 300.89 111zM317.61 124.43c-1.35.37-3.86 1.79-4.25 3.17s1.68 2.38 3.26 1.29S319.1 124 317.61 124.43z" class="color7da2bc svgShape"></path><path fill="#7da2bc" d="M311.58,125.13c.49,2.17,1.18,4.05-1.69,5.74s-6.33,1.48-9.6,3.56-6,3.56-5,5.84,4.85,3.17,4.16,5.64-4.85,5.84-2,6.14S303,148,305,147s3.07-4.85,4.46-6.93,4.25-2.47,4.75-.69-2,6.63.89,6,5.35-3,5.44-1.78-1.88,3.76-1.78,5.44,3.27,3.66,1.29,5.64-3.86,2.87-6.34,2.48-5.34-.8-6.73.69-6.13,1.78-6.53,2.47,6.53-1,7.13-.49,0,3.07.2,4.35-5.75,1.19-7.13,1.69-4.95,2.57-5.35,3.26-5.6,1.62-8,5.84-7.39,4.23-7.92,8.71,1.59,13.46-.26,10-.79-6.6-3.43-7.65-2.91-3.43-9.24-2.91-9.5.53-10,6.08-6.6,9-.27,11.35,9-2.38,11.09-2.64.79,2.37.26,4.75,3.17.26,4,3.69-.79,5.28-.79,7.39.79,2.64,3.17,3.43a6,6,0,0,1,3.17,2.12,6.08,6.08,0,0,0-4.75-1.32c-2.64.52-6.87,2.11-7.13-1.59s-1.59-7.92-2.64-8.71-4.49-1.32-7.66-2.37-10.29-2.91-9.23-7.66,2.9-6.33,1.84-10a87.86,87.86,0,0,1-1.84-9l-1.59,4.48a68,68,0,0,1-.79-7.65c0-2.64-2.37-5.81,1.06-11.09s9.23-12.66,9.23-15.3-3.16-4.23,1.06-9.77,6.6-7.39,5-9.77-1.06-2.9-3.17-2.64-2.91,0-5.28,1.32-9.77,1.85-11.09,1.85-.26-2.11,1.06-2.9,1.32-8.18,3.69-8.18,7.92.26,8.71.26a3.47,3.47,0,0,0,2.38-2.64,3.34,3.34,0,0,1,1.85-3.43c1.85-1.06,1.32-6.86,7.92-6.86s15.83,8.71,15.83,8.71,3.7,2.11,5,2.11,5,1.32,5.28,2.9,1.58,2.91,2.64,4.49,5,.79,6.33,1.32a14.89,14.89,0,0,0,6.86.26C309.27,125.65,311.58,125.13,311.58,125.13Z" class="color7da2bc svgShape"></path><path fill="#7da2bc" d="M272.45 196.13c1.65-.66 4.42-.93 5.14.53s.6 2.31 3.11 3.1 4.68.2 5.54 1.71 1.58 2.44 0 2.18-4-.79-5.28-1.91 1.12-.66-1.91-1.32-2.58-.33-3.57-1.59S269.81 197.32 272.45 196.13zM287.62 211.83c-3.56-1.38-5.74-2.17-6.13.4a18.9 18.9 0 01-2.58 7.52c-1.58 2.57-1.78 3.37-3.36 5.54s-3 3.77-2.58 9.11-.79 7.13.8 10.1 1.38 4.95 4.75 7.12 6.53 2.58 6.73 4.16 3.17 16.83 3.17 20 3.36 5.74 4.35 9.9 1.19 8.71 3.56 10.89 4.76 8.31 6.54 10.89 8.51 4.95 8.51 4.95 4.16-.4 4-1.19S309.8 309.62 309 308s-.79-6.53-1-7.92-2.57-7.32-2.17-10.29 3.36-4 3.76-6.53-.4-6.54 1-9.11 1-8.71 2.37-10.1 4.36 0 4.75-3.36-.59-6.14.2-12.08 4.95-8.9 4-11.08-5.54-5.15-7.92-5.35-7.92-3.16-10.29-3-5.94.4-4.75-3.16 0-6.54-1.39-7.13-1.19 1.19-4.16-2.38S291.19 212.23 287.62 211.83zM235.76 139.57c-1.19 0-9.2-.6-11.68-.79s-6.23 0-8.21 1.68-5.55 2.37-4.16 5.74-3.66 7.72 3.76 7.62 16.63-2.18 19-1.09 8.31.79 9.2.79 2.67-1 4.36-4.35 2.87-6.63-.5-7.52A87.9 87.9 0 00235.76 139.57zM441 111.28c-8.32 4-5.54 7.39-4.88 9.5s-2.64 4-5 4.49-1.19 4-6.07.79-6.73-7.65-10.43-4.62-5 7-8.18 9.64-8.31 5.54-5.94 7.39.79 4.35 3.83 3 3.69-3.43 5.15-5.81 5-4.61 4.48-.92 6.47 3.56-1.32 7-5.27 5-9.76 4.75-6.34.52-8.84 2.9-7.13 4-5.68 1.72-3.17 2.24-2.24 4.75-.53 4.62-2.77 4.22-5.28-1.45-5.28 1.72-1.06 10.68 3 10.16 11.88-10.16 13.6-11.09 5.93-.79 6.2 1.85-.79 5.94 1.19 5.54 1.58-3 1.32-4.88 2.77-3.43 2.77-3.43a9.13 9.13 0 013.3 5.28c.79 3.56-.4 7.25 2.11 4.35s4.88-3.17 4.88-3.17.13-5.54.13-7 2.64-4.88 5.94-3.43 6.34 2.37 6.73 5-4.35 4.09-6.46 4-4.23 1.59-5.41 3.3 4.35 3.3 5.27 4.09 2.12 1.06.8 2.25-2.91 2.24-3 2.9 3.56 3 4.22 6.07 5.94 15.44 6.21 17 2.37 2.9 5.28 1.18 12.8-11.21 12.14-11.87-5.68-1.59-8.45-2.78-6.73-5.14-6.73-6.2 6.2 1.72 7.65 2.24.8 3.57 5.81 3.83 6.6-.92 7.26.93 3.69 4.35 5 4.75 1.46 5.94 2.91 8.71 5.67 10 6.46 7.52.4-5.94 2-7.79 5.55-8.05 6.87-9.5 7.39-.79 7.59 1 4.75 4.75 4.75 7.92a23.33 23.33 0 001.38 7.72c.79 2.57 2.58 3.17 3.76 6.33s4.75 4.95 1.78 0-5.93-10.88-4.15-11.08 5.94 3.17 6.73 3.36 2.77.6 1.19-5.74-4.16-10.09-2.58-10.69 2.77 1.39 4.16 1.19-.79-1.19 2.57-3 6.54 3 6.73-4.55 2-11.68-1.78-13.46-14.65-5.35-8.11-7.72 8.11-.8 8.71 1.18 2.17 4.56 2.77 4.76.59-9.11.59-9.11-2.18-.59.2-2.38 5.94 2 4.35-4.75-1.18-7.32-2.17-8.71-1.39-2-1.39-2a13.53 13.53 0 01-4.16-2.17c-1.58-1.39-3.56-5.75-1-7.92s7.72.2 8.91-3.57 2.94 2.48 2.94 3.07S516.1 133.45 523 139s3.56-.19 2.37-3.76-2.77-5.14-1-7.12 5.35-5.94 5.35-6.93 1.19-2.58-.2-4.36-2.77-2.57-7.12-4 1.38-4.35-10.3-1.38-16.43 1-19 .39-9.7 3-9.9 4-11.48-1.19-12.47-1.58-4-2.77-4.56-4.55-4.55-3.37-5.74-2.58-.39 3.17-3 4.56-5.34.79-5.93 2.57S450.18 117 450 119.4s.2 7.12-1.19 7.12-4.94-4.15-4.94-4.15a10.48 10.48 0 00-3-1.39c-.8 0-1.79-1.78-1.59-2.57s2.38-6.93 2.38-6.93zM464.4 223.71c3.76 3 4.75 8.31 6.93 12.08s11.28 3.56 12.47 5.34 3 5.15-1.38 2.38-6.73-4.95-11.29-5.15-7.52.2-8.11-3.37S464.4 223.71 464.4 223.71zM486.18 221.14c-4.56 3.36-9.9 3.16-8.32 7.72s6.34 7.52 6.93 6.93 1.78-4.76 2.77-8.52A6.56 6.56 0 00486.18 221.14zM374.13 184.12c-2-2.77.4-6.53-4.16-4.16a72.21 72.21 0 01-12.86 5.15c-4 1.19-8.91 5.94-9.5 9.1s-7.13 8.91-6.74 13.86.2 10.49 3.57 13.26 9.7 3.57 14.65 1.79 8.31-1.79 9.1 1 3.57 1.58 2.58 5.94-3.37 6.73-.2 10.49 5.74 3.76 3.36 8.31-5.74 5-3.76 8.91 5.15 3 6.14 7.32 1 8.32 2.57 9.7 1.39 3.37 7.33 1.79 6.33-1.39 7.72-5.75-2.58-6.73 4-12.27 9.7-5.94 8.31-11.28-2.37-8.32-1.78-10.69.59-2.58 4.75-7.52 7.33-8.12 7.33-10.3V215.4s-6.93 1-9.31 1-5.74-4.95-6.53-7.13-2.57-8.12-4.36-11.09-1.58-7.32-4-8.31-4.75-2.18-6.33-2.18-4.55-.39-7.13.2S374.13 184.12 374.13 184.12zM412.34 248.26c-1.19 2.37-1 4.75-3.17 5.34s-2.37 1.59-1.19 5 .6 5.54 1.39 5.54 2.77-1.58 3.36-4.75 1.19-6.93.8-8.31A14.64 14.64 0 00412.34 248.26zM502 246.48c-4.35 1.58-4.55 5.14-5.34 5.54a7.81 7.81 0 01-3 .39c-.79 0-1.19 6.74-3.76 7.13s-8.32-3.76-9.7 1-.79 11.48-.6 14.06-6.33 8.9-.79 7.91 16.83-6.13 17.62-3.36 4 2 4.36 3.56 0 1.78.59 3.57.4 3.16.59 4.75 5.15 1.78 6.73-1 4.36-7.92 6.93-11.09 5.94-3.36 4.56-7.92-2.38-6.13-3-8.91-.2-9.3-1.39-12.07-4.35-2-5.74.79.59 6.53-3.37 1S502 246.48 502 246.48zM505.18 226.88c-2 4.15-4.35 8.71.79 10.49a105 105 0 0011.88 3.36c1.19.2 7.92-2.37 4.75-4.55s-5-2.77-7.13-4.16S505.18 226.88 505.18 226.88z" class="color7da2bc svgShape"></path><path fill="#7da2bc" d="M543.38 169.15s-4.6 4.1-7.16 4.35-7.67-.77-10.23-.77-11.25 2.82-10.73 3.84 8.69 6.9 13 8.69 6.13-4.6 14.57-1 15.86 10.23 20.2 10.49 7.67.51 9.72-3.33 3.58-3.07 5.37-6.39 3.07-4.35 1.28-9.21a13.42 13.42 0 00-8.18-8.44c-3.58-1.53-13-3.83-15.6-2s-7.16 4.6-8.95 4.09A8.48 8.48 0 00543.38 169.15zM542.32 124.2c-2.16.72-9 6.12-8.64 7.2s2.88 5 5.76 5 5.76 4.32 9 2.16 5-6.84 1.8-8.64A65.51 65.51 0 01542.32 124.2zM562.13 132.12c-1.8 3.24-5 4-1.8 9.36s.36 8.28.72 11.53 5.76 8.28 7.56 2.52 1.08-9 3.6-12.25 9.36-2.16 1.44-5.76S562.13 132.12 562.13 132.12zM545.2 140.76c-1.44 3.24 2.16 6.12 3.24 5.76s1.8-2.16 1.44-4S545.2 140.76 545.2 140.76z" class="color7da2bc svgShape"></path><path fill="#66a3ff" d="M492.39,138.21a24.37,24.37,0,1,1,24.37-24.37A24.39,24.39,0,0,1,492.39,138.21Zm0-45.5a21.13,21.13,0,1,0,21.13,21.13A21.16,21.16,0,0,0,492.39,92.71Z" class="colorcd4a86 svgShape"></path><path fill="#66a3ff" d="M492.39,130.87a17,17,0,1,1,17-17A17,17,0,0,1,492.39,130.87Zm0-30.82a13.79,13.79,0,1,0,13.79,13.79A13.8,13.8,0,0,0,492.39,100.05Z" class="colorcd4a86 svgShape"></path><path fill="#66a3ff" d="M492.39,124a10.13,10.13,0,1,1,10.13-10.13A10.14,10.14,0,0,1,492.39,124Zm0-17a6.89,6.89,0,1,0,6.89,6.89A6.9,6.9,0,0,0,492.39,107Z" class="colorcd4a86 svgShape"></path><circle cx="492.39" cy="113.77" r="10.88" fill="#66a3ff" class="colorcd4a86 svgShape"></circle><path fill="#66a3ff" d="M349.84,219.22a24.37,24.37,0,1,1,24.37-24.37A24.39,24.39,0,0,1,349.84,219.22Zm0-45.5A21.13,21.13,0,1,0,371,194.85,21.16,21.16,0,0,0,349.84,173.72Z" class="colorcd4a86 svgShape"></path><path fill="#66a3ff" d="M349.84,211.89a17,17,0,1,1,17-17A17.06,17.06,0,0,1,349.84,211.89Zm0-30.83a13.79,13.79,0,1,0,13.79,13.79A13.8,13.8,0,0,0,349.84,181.06Z" class="colorcd4a86 svgShape"></path><path fill="#66a3ff" d="M349.84,205A10.13,10.13,0,1,1,360,194.85,10.14,10.14,0,0,1,349.84,205Zm0-17a6.89,6.89,0,1,0,6.89,6.89A6.9,6.9,0,0,0,349.84,188Z" class="colorcd4a86 svgShape"></path><circle cx="349.84" cy="194.79" r="10.88" fill="#66a3ff" class="colorcd4a86 svgShape"></circle><path fill="#66a3ff" d="M286.23,137.86a24.37,24.37,0,1,1,24.37-24.37A24.4,24.4,0,0,1,286.23,137.86Zm0-45.5a21.13,21.13,0,1,0,21.13,21.13A21.16,21.16,0,0,0,286.23,92.36Z" class="colorcd4a86 svgShape"></path><path fill="#66a3ff" d="M286.23,130.53a17,17,0,1,1,17-17A17.06,17.06,0,0,1,286.23,130.53Zm0-30.83A13.79,13.79,0,1,0,300,113.49,13.81,13.81,0,0,0,286.23,99.7Z" class="colorcd4a86 svgShape"></path><path fill="#66a3ff" d="M286.23,123.62a10.13,10.13,0,1,1,10.13-10.13A10.14,10.14,0,0,1,286.23,123.62Zm0-17a6.89,6.89,0,1,0,6.89,6.89A6.9,6.9,0,0,0,286.23,106.6Z" class="colorcd4a86 svgShape"></path><circle cx="286.23" cy="113.43" r="10.88" fill="#66a3ff" class="colorcd4a86 svgShape"></circle><rect width="50.08" height="50.08" x="490.19" y="64.43" fill="#5c788e" rx="5.64" class="color5c788e svgShape"></rect><path fill="#ffffff" d="M535.78,99a3.41,3.41,0,0,0-3.9-2.5l-.5-1.91,2-.52a.42.42,0,0,0,.29-.5.42.42,0,0,0-.5-.29l-25.69,6.74a.47.47,0,0,1-.45-.13.46.46,0,0,1-.09-.46l1.83-5L529.41,85l-1.55-10.71-28.12,4.29a1,1,0,0,0-.55-.7l-3.26-1.55a1,1,0,0,0-1.38.49l-.08.17a1,1,0,0,0,.49,1.38l3.26,1.55a1.07,1.07,0,0,0,1,0l8.89,14-1.93,5.3a1.27,1.27,0,0,0,1.52,1.66l1.19-.31.5,1.91a3.4,3.4,0,1,0,1.05-.22l-.52-2,21.23-5.57.49,1.89h0A3.43,3.43,0,1,0,535.78,99ZM522.63,82.56l-4.87,1.55-1.6-3.8L521.57,79Zm-.27-3.71,5.16-1.21.47,3.22-4.58,1.46Zm-4.28,6,4.79-1.52,1,3.28-4.23,1.93Zm.81,4-4,1.84L512.6,86.6l4.7-1.49Zm-3-9.35-1-2.45,5.9-.9.62,2.06Zm-.8.19L509.54,81,508,78.14l6-.92Zm.32.76L517,84.36l-4.78,1.52L510,81.77Zm-3.95,5.63-6.07,1.92-2.87-4.53L509.13,82Zm.4.72,2.32,4.23-5.33,2.43-3-4.74Zm12.8-.56-1-3.19,4.47-1.42.4,2.82Zm2.8-9.46-5.28,1.24-.6-2,5.64-.86ZM507.1,78.27l1.62,3L502,82.79l-2.17-3.41Zm6,26.72a2.61,2.61,0,1,1-3.51-1.74l.38,1.44a1.15,1.15,0,0,0,1,2,1.15,1.15,0,0,0,.82-1.41,1.11,1.11,0,0,0-.77-.8l-.37-1.44A2.59,2.59,0,0,1,513.08,105Zm20-2.56a2.61,2.61,0,0,1-1.32-5.05h0l.37,1.39a1.15,1.15,0,1,0,.26-.06l-.36-1.37a2.6,2.6,0,0,1,1,5.09Z" class="colorfff svgShape"></path><rect width="50.08" height="50.08" x="284.32" y="64.08" fill="#5c788e" rx="5.64" class="color5c788e svgShape"></rect><path fill="#ffffff" d="M329.91,98.69a3.43,3.43,0,0,0-3.91-2.5l-.49-1.9,2-.52a.41.41,0,0,0,.29-.5.4.4,0,0,0-.49-.29l-25.69,6.74a.46.46,0,0,1-.45-.14.45.45,0,0,1-.09-.46l1.83-5,20.66-9.44L322,73.94l-28.12,4.28a1,1,0,0,0-.55-.69L290.06,76a1,1,0,0,0-1.38.49l-.08.17a1,1,0,0,0,.49,1.38l3.26,1.55a1,1,0,0,0,1,0l8.9,14-1.93,5.29a1.27,1.27,0,0,0,1.52,1.66l1.19-.31.5,1.91a3.43,3.43,0,1,0,1.05-.21l-.52-2,21.23-5.57.49,1.9h0a3.42,3.42,0,1,0,4.18,2.44ZM316.76,82.22l-4.87,1.55L310.29,80l5.41-1.27Zm-.27-3.71,5.16-1.21.47,3.22L317.54,82Zm-4.28,6L317,83l1,3.29-4.23,1.93Zm.81,4-4,1.84-2.27-4.13,4.7-1.49Zm-3-9.35-1-2.45,5.9-.9.62,2.06Zm-.8.19-5.5,1.29-1.58-2.88,6-.92Zm.32.76L311.11,84l-4.78,1.52-2.25-4.11Zm-3.95,5.63-6.07,1.93-2.87-4.53,6.65-1.56Zm.4.73,2.32,4.22-5.33,2.44-3-4.75Zm12.8-.57-1-3.19,4.47-1.41.4,2.82Zm2.8-9.45-5.28,1.24-.6-2,5.64-.86Zm-20.31,1.44,1.62,2.94-6.71,1.58L294,79Zm6,26.72a2.61,2.61,0,1,1-3.51-1.74l.38,1.44a1.13,1.13,0,0,0-.4,1.19,1.15,1.15,0,1,0,1.45-1.39l-.37-1.44A2.61,2.61,0,0,1,307.21,104.65Zm20.05-2.57a2.6,2.6,0,1,1-1.32-5h0l.36,1.38a1.15,1.15,0,1,0,1.51.79,1.16,1.16,0,0,0-1.25-.85L326.22,97a2.6,2.6,0,0,1,1,5.09Z" class="colorfff svgShape"></path><rect width="50.08" height="50.08" x="347.29" y="147.71" fill="#5c788e" rx="5.64" class="color5c788e svgShape"></rect><path fill="#ffffff" d="M392.88,182.32a3.42,3.42,0,0,0-3.91-2.5l-.5-1.9,2-.52a.41.41,0,0,0-.21-.79l-25.68,6.73a.42.42,0,0,1-.45-.13.44.44,0,0,1-.09-.46l1.82-5,20.66-9.44L385,157.57l-28.12,4.28a1,1,0,0,0-.56-.69L353,159.6a1,1,0,0,0-1.37.49l-.09.17a1,1,0,0,0,.49,1.38l3.26,1.55a1,1,0,0,0,1,0l8.89,14-1.92,5.29a1.29,1.29,0,0,0,.25,1.29,1.27,1.27,0,0,0,1.26.37l1.19-.31.5,1.91a3.43,3.43,0,1,0,1.05-.21l-.51-2L388.21,178l.5,1.9h0a3.42,3.42,0,1,0,4.18,2.44Zm-13.15-16.47-4.87,1.54-1.6-3.8,5.4-1.27Zm-.27-3.71,5.16-1.21.46,3.22-4.58,1.45Zm-4.29,6,4.79-1.52,1,3.28-4.22,1.93Zm.82,4L372,174l-2.27-4.13,4.69-1.49Zm-3.05-9.35-1-2.45,5.91-.9.62,2.06Zm-.81.19-5.49,1.29-1.59-2.89,6-.91Zm.32.76,1.63,3.86-4.78,1.52L367,165.05Zm-3.94,5.63-6.07,1.93-2.88-4.53,6.66-1.57Zm.4.73,2.31,4.22-5.32,2.43-3-4.74Zm12.79-.57-1-3.19L385.2,165l.41,2.82Zm2.8-9.45-5.28,1.23-.6-2,5.65-.86Zm-20.31,1.44,1.62,2.94-6.71,1.58-2.16-3.42Zm6,26.71a2.61,2.61,0,1,1-3.51-1.74L367,188a1.15,1.15,0,1,0,1.83.61,1.19,1.19,0,0,0-.77-.8l-.38-1.44A2.62,2.62,0,0,1,370.18,188.27Zm20.05-2.56a2.61,2.61,0,1,1-1.32-5h0l.37,1.39a1.15,1.15,0,1,0,.26-.06l-.36-1.37a2.6,2.6,0,0,1,1.05,5.09Z" class="colorfff svgShape"></path><path fill="#7da2bc" d="M241.29,21.33H191.78a28.25,28.25,0,0,0-28.25,28.26h0a28.25,28.25,0,0,0,28.25,28.25h29.87l11.78,8.35V77.84h7.86a28.25,28.25,0,0,0,28.26-28.25h0A28.26,28.26,0,0,0,241.29,21.33Z" class="color7da2bc svgShape"></path><path fill="#ffffff" d="M228.2 49.17a4.65 4.65 0 104.65-4.64A4.65 4.65 0 00228.2 49.17zM211.89 49.17a4.65 4.65 0 104.65-4.64A4.65 4.65 0 00211.89 49.17zM195.58 49.43a4.65 4.65 0 104.65-4.65A4.65 4.65 0 00195.58 49.43z" class="colorfff svgShape"></path><path fill="#5c788e" d="M184.83,62.34H147.19a21.47,21.47,0,0,0-21.47,21.47h0a21.48,21.48,0,0,0,21.47,21.48h22.7l9,6.34v-6.34h6A21.48,21.48,0,0,0,206.3,83.81h0A21.47,21.47,0,0,0,184.83,62.34Z" class="color5c788e svgShape"></path><path fill="#ffffff" d="M174.87 83.5A3.54 3.54 0 10178.4 80 3.53 3.53 0 00174.87 83.5zM162.48 83.5A3.53 3.53 0 10166 80 3.53 3.53 0 00162.48 83.5zM150.08 83.69a3.54 3.54 0 103.53-3.53A3.53 3.53 0 00150.08 83.69z" class="colorfff svgShape"></path><path fill="#5c788e" d="M614.38,325.65s12.44-7.84,14.55-18.4c2.91-14.54-7.12-17.21-7.12-17.21s13.22-6.33,13.24-16.7-9.79-9.77-9.79-9.77,10.14-18.63-.41-26-22.7,11.24-22.7,11.24a11.22,11.22,0,0,0-13.68,3.81c-5.78,7.6-6.87,24.46-6.87,24.46s-10.26-6.7-13.25,3.46,20.22,55.83,20.22,55.83Z" class="color5c788e svgShape"></path><path fill="#7da2bc" d="M591,333.1a.57.57,0,0,0,.13-.08c12.51-9.31,16.62-22.14,12.94-40.4-2.87-14.2-1.32-26.71,15.55-41.64a.6.6,0,0,0-.79-.89c-17.3,15.3-18.88,28.17-15.93,42.77,3.58,17.75-.39,30.2-12.48,39.2a.6.6,0,0,0,.58,1Z" class="color7da2bc svgShape"></path><path fill="#7da2bc" d="M618.45,386.63s14.63-4.82,19.46-15c6.64-14.06-2.88-19.31-2.88-19.31s15-3.09,17.69-13.63-7.49-12.41-7.49-12.41,15-16.39,6.18-26.6-25.93,5.68-25.93,5.68a11.77,11.77,0,0,0-14.88.41c-7.8,6.26-13.18,23.13-13.18,23.13s-7.2-8.32-14.35.17c-11.29,13.43-7.57,64.31-7.57,64.31Z" class="color7da2bc svgShape"></path><path fill="#5c788e" d="M592.76 388.28l.15 0c15.08-6.3 22.51-18.31 23.38-37.81.68-15.17 5.43-27.5 26.37-38.41a.64.64 0 00.26-.85.63.63 0 00-.84-.26c-21.47 11.18-26.34 23.86-27 39.46-.85 19-8 30.62-22.62 36.71a.63.63 0 00.34 1.2zM53.24 412.61s-19.35-8.33-24.68-22.81c-7.34-19.93 6.26-25.93 6.26-25.93s-20.11-6-22.45-20.71 11.7-16 11.7-16-18.48-24.12-5.19-37 34.61 10.87 34.61 10.87a16.08 16.08 0 0120.21 2.36c9.87 9.47 15.15 33.09 15.15 33.09s13-11.75 19.51 2S113 422 113 422z" class="color5c788e svgShape"></path><path fill="#7da2bc" d="M88,418l-.2-.08C68,407.49,59.38,390.23,60.55,363.58c.9-20.73-4.06-38.1-31.25-55.48a.86.86,0,0,1,.92-1.45c27.88,17.83,33,35.68,32,57-1.14,25.91,7.24,42.66,26.35,52.71a.86.86,0,0,1,.36,1.16A.85.85,0,0,1,88,418Z" class="color7da2bc svgShape"></path><path fill="#7da2bc" d="M68.42,500s-21.78-3.58-30.87-16.95c-12.52-18.42-.21-28-.21-28s-22-1-28.07-15.38,7.85-19.22,7.85-19.22-24.9-19.86-14.64-36.28,38,2.29,38,2.29a16.85,16.85,0,0,1,21.15-2.71C74,390.92,85.37,413.6,85.37,413.6s8.35-13.38,20.35-2.94c19,16.49,25,89.34,25,89.34Z" class="color7da2bc svgShape"></path><path fill="#5c788e" d="M105.15,496.63a.9.9,0,0,1-.23,0C82.18,491,69,475.68,63.44,448.28,59.11,427,49.66,410.56,17.61,399.77a.9.9,0,0,1-.56-1.14.89.89,0,0,1,1.13-.57c32.87,11.07,42.57,27.94,47,49.86,5.41,26.64,18.16,41.56,40.15,46.94A.9.9,0,0,1,106,496,.88.88,0,0,1,105.15,496.63Z" class="color5c788e svgShape"></path><rect width="285.53" height="186.86" x="304.8" y="294.02" fill="#ffffff" rx="15.69" transform="rotate(180 447.565 387.445)" class="colorfff svgShape"></rect><path fill="#7da2bc" d="M574.64,481.87H320.49a16.71,16.71,0,0,1-16.69-16.69V309.71A16.71,16.71,0,0,1,320.49,293H574.64a16.71,16.71,0,0,1,16.69,16.69V465.18A16.71,16.71,0,0,1,574.64,481.87ZM320.49,295a14.71,14.71,0,0,0-14.69,14.69V465.18a14.71,14.71,0,0,0,14.69,14.69H574.64a14.71,14.71,0,0,0,14.69-14.69V309.71A14.71,14.71,0,0,0,574.64,295Z" class="color7da2bc svgShape"></path><path fill="#496075" d="M554.1,303a7,7,0,1,0,7-7A7,7,0,0,0,554.1,303Z" class="color496075 svgShape"></path><path fill="#accddd" d="M561.09,304.85h0a4.21,4.21,0,0,0,4.2-4.2v-18a4.21,4.21,0,0,0-4.2-4.2h0a4.21,4.21,0,0,0-4.2,4.2v18A4.21,4.21,0,0,0,561.09,304.85Z" class="coloraccddd svgShape"></path><path fill="#496075" d="M327.05,303a7,7,0,1,0,7-7A7,7,0,0,0,327.05,303Z" class="color496075 svgShape"></path><path fill="#accddd" d="M334,304.85h0a4.21,4.21,0,0,0,4.2-4.2v-18a4.21,4.21,0,0,0-4.2-4.2h0a4.21,4.21,0,0,0-4.2,4.2v18A4.21,4.21,0,0,0,334,304.85Z" class="coloraccddd svgShape"></path><rect width="67.83" height="67.83" x="415.3" y="399.46" fill="#7da2bc" rx="7.63" class="color7da2bc svgShape"></rect><polygon fill="#ffffff" points="436.99 428.24 419.04 450.38 455.1 450.38 436.99 428.24" opacity=".38" class="colorfff svgShape"></polygon><polygon fill="#ffffff" points="460.03 419.06 442.08 450.38 478.14 450.38 460.03 419.06" class="colorfff svgShape"></polygon><path fill="#ffffff" d="M449.44,416.94a3.81,3.81,0,1,1-3.81-3.81A3.8,3.8,0,0,1,449.44,416.94Z" opacity=".38" class="colorfff svgShape"></path><rect width="67.83" height="67.83" x="416" y="323.51" fill="#7da2bc" rx="7.63" class="color7da2bc svgShape"></rect><polygon fill="#ffffff" points="437.68 352.28 419.74 374.43 455.8 374.43 437.68 352.28" opacity=".38" class="colorfff svgShape"></polygon><polygon fill="#ffffff" points="460.72 343.11 442.78 374.43 478.84 374.43 460.72 343.11" class="colorfff svgShape"></polygon><path fill="#ffffff" d="M450.14,341a3.81,3.81,0,1,1-3.81-3.81A3.81,3.81,0,0,1,450.14,341Z" opacity=".38" class="colorfff svgShape"></path><rect width="67.83" height="67.83" x="331.04" y="399.46" fill="#7da2bc" rx="7.63" class="color7da2bc svgShape"></rect><path fill="#ffffff" d="M392.78,446.33a4.64,4.64,0,0,0-5.29-3.39l-.68-2.58,2.68-.7a.56.56,0,0,0,.4-.67.56.56,0,0,0-.68-.4l-34.78,9.13a.6.6,0,0,1-.61-.18.61.61,0,0,1-.13-.63l2.48-6.82,28-12.78-2.1-14.5L344,418.61a1.36,1.36,0,0,0-.75-.94l-4.41-2.11a1.41,1.41,0,0,0-1.87.67l-.11.23a1.4,1.4,0,0,0,.66,1.86l4.42,2.11a1.44,1.44,0,0,0,1.31-.06l12,19-2.6,7.17a1.71,1.71,0,0,0,2,2.25l1.61-.42L357,451a4.63,4.63,0,1,0,1.42-.29l-.7-2.67,28.74-7.53.67,2.56h0a4.64,4.64,0,1,0,5.66,3.31ZM375,424l-6.59,2.1L366.21,421l7.32-1.72Zm-.36-5,7-1.64.63,4.36-6.21,2Zm-5.8,8.14,6.48-2.06,1.34,4.45-5.72,2.61Zm1.1,5.46-5.45,2.49-3.07-5.6,6.36-2Zm-4.14-12.66-1.39-3.32,8-1.22.84,2.79Zm-1.09.25-7.44,1.75L355.1,418l8.15-1.24Zm.44,1,2.2,5.23-6.47,2.06-3.06-5.57Zm-5.34,7.63-8.23,2.61-3.89-6.14,9-2.12Zm.54,1,3.14,5.72-7.22,3.3-4.07-6.43Zm17.32-.76-1.3-4.32,6.05-1.92.55,3.82Zm3.8-12.81-7.15,1.68-.82-2.71,7.65-1.16Zm-27.5,1.95,2.19,4L347,424.33l-2.93-4.62Zm8.1,36.18a3.54,3.54,0,1,1-4.76-2.35l.51,1.95a1.56,1.56,0,1,0,2.47.82,1.53,1.53,0,0,0-1-1.08l-.51-2A3.55,3.55,0,0,1,362,454.39Zm27.15-3.47a3.53,3.53,0,0,1-1.79-6.83h0l.5,1.88a1.52,1.52,0,1,0,.35-.09l-.49-1.85a3.52,3.52,0,0,1,1.42,6.89Z" class="colorfff svgShape"></path><rect width="67.83" height="67.83" x="331.04" y="323.51" fill="#7da2bc" rx="7.63" class="color7da2bc svgShape"></rect><path fill="#ffffff" d="M392.78,370.38a4.64,4.64,0,0,0-5.29-3.39l-.68-2.58,2.68-.7a.55.55,0,1,0-.28-1.07l-34.78,9.12a.58.58,0,0,1-.61-.18.59.59,0,0,1-.13-.62l2.48-6.82,28-12.78-2.1-14.5L344,342.66a1.34,1.34,0,0,0-.75-.94l-4.41-2.11a1.41,1.41,0,0,0-1.87.66l-.11.24a1.4,1.4,0,0,0,.66,1.86l4.42,2.1a1.38,1.38,0,0,0,1.31-.06l12,19-2.6,7.17a1.71,1.71,0,0,0,2,2.25l1.61-.42L357,375a4.63,4.63,0,1,0,1.42-.29l-.7-2.67,28.74-7.54.67,2.57h0a4.64,4.64,0,1,0,5.66,3.31ZM375,348.07l-6.59,2.09L366.21,345l7.32-1.72Zm-.36-5,7-1.64.63,4.37-6.21,2Zm-5.8,8.15,6.48-2.06,1.34,4.45-5.72,2.61Zm1.1,5.46-5.45,2.49-3.07-5.6,6.36-2ZM365.77,344l-1.39-3.31,8-1.22.84,2.79Zm-1.09.26L357.24,346l-2.14-3.91,8.15-1.24Zm.44,1,2.2,5.23-6.47,2.05L357.79,347Zm-5.34,7.62-8.23,2.61-3.89-6.13,9-2.12Zm.54,1,3.14,5.72-7.22,3.29-4.07-6.42Zm17.32-.77-1.3-4.32,6.05-1.91.55,3.82Zm3.8-12.8L374.29,342l-.82-2.71,7.65-1.17Zm-27.5,1.95,2.19,4L347,348.38l-2.93-4.63Zm8.1,36.18a3.54,3.54,0,1,1-4.76-2.35l.51,1.94a1.56,1.56,0,0,0,1.36,2.73,1.55,1.55,0,0,0,1.11-1.9,1.53,1.53,0,0,0-1-1.08l-.51-2A3.54,3.54,0,0,1,362,378.44ZM389.19,375a3.53,3.53,0,0,1-1.79-6.83h0l.5,1.88a1.52,1.52,0,1,0,.35-.09l-.49-1.85a3.52,3.52,0,0,1,1.42,6.89Z" class="colorfff svgShape"></path><rect width="67.83" height="67.83" x="500.26" y="399.46" fill="#7da2bc" rx="7.63" class="color7da2bc svgShape"></rect><path fill="#ffffff" d="M562,446.33a4.64,4.64,0,0,0-5.29-3.39l-.68-2.58,2.68-.7a.56.56,0,0,0,.4-.67.56.56,0,0,0-.68-.4l-34.78,9.13a.6.6,0,0,1-.61-.18.61.61,0,0,1-.13-.63l2.48-6.82,28-12.78-2.1-14.5-38.08,5.8a1.36,1.36,0,0,0-.75-.94L508,415.56a1.4,1.4,0,0,0-1.86.67l-.11.23a1.4,1.4,0,0,0,.66,1.86l4.42,2.11a1.44,1.44,0,0,0,1.31-.06l12,19-2.6,7.17a1.71,1.71,0,0,0,2,2.25l1.61-.42.68,2.59a4.63,4.63,0,1,0,1.42-.29l-.7-2.67,28.74-7.53.67,2.56h0a4.64,4.64,0,1,0,5.66,3.31ZM544.19,424l-6.6,2.1L535.43,421l7.32-1.72Zm-.36-5,7-1.64.63,4.36-6.21,2ZM538,427.14l6.49-2.06,1.34,4.45-5.72,2.61Zm1.11,5.46-5.45,2.49-3.07-5.6,6.36-2ZM535,419.94l-1.39-3.32,8-1.22.84,2.79Zm-1.09.25-7.44,1.75L524.32,418l8.15-1.24Zm.44,1,2.2,5.23-6.47,2.06L527,422.94ZM529,428.85l-8.23,2.61-3.89-6.14,9-2.12Zm.54,1,3.14,5.72-7.22,3.3-4.07-6.43Zm17.32-.76-1.3-4.32,6-1.92.56,3.82Zm3.8-12.81-7.15,1.68-.82-2.71,7.65-1.16Zm-27.5,1.95,2.19,4-9.09,2.13-2.93-4.62Zm8.1,36.18A3.54,3.54,0,1,1,526.5,452L527,454a1.56,1.56,0,1,0,2.47.82,1.53,1.53,0,0,0-1-1.08l-.51-2A3.55,3.55,0,0,1,531.26,454.39Zm27.15-3.47a3.53,3.53,0,0,1-1.79-6.83h0l.5,1.88a1.52,1.52,0,1,0,.35-.09L557,444a3.52,3.52,0,0,1,1.42,6.89Z" class="colorfff svgShape"></path><rect width="67.83" height="67.83" x="500.26" y="323.51" fill="#7da2bc" rx="7.63" class="color7da2bc svgShape"></rect><path fill="#ffffff" d="M562,370.38a4.64,4.64,0,0,0-5.29-3.39l-.68-2.58,2.68-.7a.55.55,0,1,0-.28-1.07l-34.78,9.12a.58.58,0,0,1-.61-.18.59.59,0,0,1-.13-.62l2.48-6.82,28-12.78-2.1-14.5-38.08,5.8a1.34,1.34,0,0,0-.75-.94L508,339.61a1.4,1.4,0,0,0-1.86.66l-.11.24a1.4,1.4,0,0,0,.66,1.86l4.42,2.1a1.38,1.38,0,0,0,1.31-.06l12,19-2.6,7.17a1.71,1.71,0,0,0,2,2.25l1.61-.42.68,2.59a4.63,4.63,0,1,0,1.42-.29l-.7-2.67,28.74-7.54.67,2.57h0a4.64,4.64,0,1,0,5.66,3.31Zm-17.81-22.31-6.6,2.09L535.43,345l7.32-1.72Zm-.36-5,7-1.64.63,4.37-6.21,2ZM538,351.19l6.49-2.06,1.34,4.45-5.72,2.61Zm1.11,5.46-5.45,2.49-3.07-5.6,6.36-2ZM535,344l-1.39-3.31,8-1.22.84,2.79Zm-1.09.26L526.46,346l-2.14-3.91,8.15-1.24Zm.44,1,2.2,5.23-6.47,2.05L527,347ZM529,352.89l-8.23,2.61-3.89-6.13,9-2.12Zm.54,1,3.14,5.72-7.22,3.29-4.07-6.42Zm17.32-.77-1.3-4.32,6-1.91.56,3.82Zm3.8-12.8L543.51,342l-.82-2.71,7.65-1.17Zm-27.5,1.95,2.19,4-9.09,2.13-2.93-4.63Zm8.1,36.18a3.54,3.54,0,1,1-4.76-2.35L527,378a1.56,1.56,0,0,0,1.36,2.73,1.55,1.55,0,0,0,1.11-1.9,1.53,1.53,0,0,0-1-1.08l-.51-2A3.54,3.54,0,0,1,531.26,378.44ZM558.41,375a3.53,3.53,0,0,1-1.79-6.83h0l.5,1.88a1.52,1.52,0,1,0,.35-.09l-.49-1.85a3.52,3.52,0,0,1,1.42,6.89Z" class="colorfff svgShape"></path><polygon fill="#ffffff" points="342.6 270.67 556.53 270.67 613.26 309.4 285.87 309.4 342.6 270.67" class="colorfff svgShape"></polygon><polygon fill="#66a3ff" points="385.38 270.67 513.75 270.67 547.78 309.4 351.35 309.4 385.38 270.67" class="colorcd4a86 svgShape"></polygon><polygon fill="#ffffff" points="430.71 270.67 468.42 270.67 478.42 309.4 420.71 309.4 430.71 270.67" class="colorfff svgShape"></polygon><path fill="#767fad" d="M547.78,309.4c-10.27,42.11-63.81,35.7-69.36,0Z" class="coloraf3c75 svgShape"></path><path fill="#e2f2f7" d="M613.37 309.4c-9.71 42.11-60.41 35.7-65.66 0zM478.54 309.4c-8.55 42.11-53.1 35.7-57.71 0zM351.35 309.4c-9.69 42.11-60.24 35.7-65.48 0z" class="colore2f2f7 svgShape"></path><path fill="#767fad" d="M420.71,309.4c-10.26,42.11-63.81,35.7-69.36,0Z" class="coloraf3c75 svgShape"></path><path fill="#2f282e" d="M258.61,379.19s5.93,5.33,8.89,20.73,0,100.08,0,100.08H73.26l17.18-37.9s3.94-32.38,14.21-53.3,23.17-29.61,23.17-29.61Z" class="color2f282e svgShape"></path><path fill="#ffffff" d="M176.5,499.37a1,1,0,0,0,.8-.44l29.22-45.8a1,1,0,0,0-.29-1.31,1,1,0,0,0-1.32.29L175.7,497.9a1,1,0,0,0,.8,1.47Z" class="colorfff svgShape"></path><path fill="#66a3ff" d="M167.29,216.08l-51.2,22s-50.14,51.34-52.73,56,8,20.46,8,20.46l37.61,29s-5.17,32.16-4.59,43.64,2.52,15.64,2.52,15.64l163.16.42-4.34-102.18s31.91-27.62,32.34-30.2-41-48.08-68.13-52.67S167.29,216.08,167.29,216.08Z" class="colorcd4a86 svgShape"></path><polygon fill="#eb8b76" points="167.84 183.26 167.29 216.08 159.15 219.58 210.72 258.93 215.62 205.19 167.84 183.26" class="coloreb8b76 svgShape"></polygon><path fill="#2f282e" d="M132.78 328.83a1 1 0 01-.84-1.54l17.56-27.52a1 1 0 111.69 1.07l-17.56 27.53A1 1 0 01132.78 328.83zM265.75 302.06a1 1 0 01-1-.9l-3.16-30a1 1 0 012-.21l3.16 30a1 1 0 01-.89 1.1z" class="color2f282e svgShape"></path><polygon fill="#ffffff" points="210.72 258.93 212.03 244.59 167.29 216.08 159.15 219.58 210.72 258.93" class="colorfff svgShape"></polygon><polygon fill="#ffffff" points="206.93 241.34 214.09 216.28 225.84 217.2 210.72 258.93 206.93 241.34" class="colorfff svgShape"></polygon><path fill="#2f282e" d="M224.24,159.06c7-12.7,13.94-28.36.67-38.08s-22.86,3.38-22.86,3.38,3.71-3.78-2.77-9.24-21,9.3-21,9.3-5.33-16.85-17.89-.56-13.59,31-9.12,47.05,16.91,26.35,20.21,24.81c10.57-4.91-2.9-28.83,3.8-31.63s12.1-6.17,16.45-14.62,8.21-12.41,17.76-10.65S224.24,159.06,224.24,159.06Z" class="color2f282e svgShape"></path><path fill="#2f282e" d="M214.05,204.39l0,4.58c-18.49,8.28-28.9-3.3-37-17.47C166,172.2,214.05,204.39,214.05,204.39Z" class="color2f282e svgShape"></path><path fill="#eb8b76" d="M219.59,198.71c-10.85,14.41-23.11,9.82-37.65-1.13a28.29,28.29,0,0,1-6.09-6.39c-9.17-13-10.12-34.42-1-46.53,10.86-14.41,22.72-18.91,37.27-8,5.61,4.23,9.62,12.29,11.79,21.41,0,0,0,0,0,.06a.11.11,0,0,1,0,.05C227.4,172.72,226.24,189.89,219.59,198.71Z" class="coloreb8b76 svgShape"></path><path fill="#2f282e" d="M202.82 124.6l-.16.21A1.13 1.13 0 01202.82 124.6zM223.92 158.11c-.45-1.52-5.43-17.74-14.18-19.35-9.18-1.69-12.88 2.13-17.07 10.25s-9.38 11.36-15.82 14.05c-5.71 2.38 3.8 20.69-1 28.13-9.17-13-13.39-36.17-4.27-48.28 10.86-14.41 29-19.73 43.54-8.78C220.73 138.36 221.75 149 223.92 158.11z" class="color2f282e svgShape"></path><path fill="#2f282e" d="M212.66 180.2a.6.6 0 00.38-.11l6.11-4.18-.83-.52a11.8 11.8 0 01-4.43-7.66 12.28 12.28 0 017.17-13.26.65.65 0 00.34-.85.64.64 0 00-.85-.33 13.71 13.71 0 00-3.66 22.61L212.31 179a.64.64 0 00.35 1.17zM204.43 157a.69.69 0 00.33-.38.75.75 0 00-.41-1 10.28 10.28 0 00-8.72 1.07 8.31 8.31 0 00-4.37 5.84.76.76 0 101.5.2 6.82 6.82 0 013.63-4.74l.2-.11a8.89 8.89 0 017.19-.86A.74.74 0 00204.43 157z" class="color2f282e svgShape"></path><path fill="#ffffff" d="M196.91,166a7.53,7.53,0,0,0,5.86,2.86,3.62,3.62,0,0,0,1.16-2.71c-.13-1.56-.33-3.34-1.63-3.17A9.82,9.82,0,0,0,196.91,166Z" class="colorfff svgShape"></path><path fill="#2f282e" d="M200.8,166c.14,1.63,1.09,2.88,2.12,2.79s1.74-1.48,1.6-3.11-1.09-2.88-2.12-2.79S200.66,164.41,200.8,166Z" class="color2f282e svgShape"></path><path fill="#ffffff" d="M215.49,165.89a6.44,6.44,0,0,0,5.5,2.5c1.18-.12,1.12-1.5,1-2.89a3.88,3.88,0,0,0-1.45-2.4A9.71,9.71,0,0,0,215.49,165.89Z" class="colorfff svgShape"></path><path fill="#2f282e" d="M219.09,165.89c.13,1.46,1,2.58,1.9,2.5s1.57-1.33,1.44-2.79-1-2.58-1.9-2.5S219,164.43,219.09,165.89Z" class="color2f282e svgShape"></path><g opacity=".33"><path fill="#803b34" d="M183,175.86c-1,3,1.86,6.7,6.38,8.17s9,.19,10-2.86-1.87-6.7-6.38-8.17S184,172.82,183,175.86Z" opacity=".6" class="color803b34 svgShape"></path></g><path fill="#803b34" d="M201.2 162.38a9.31 9.31 0 013.76-.21.5.5 0 01.42.56.51.51 0 01-.57.42 8 8 0 00-7.52 2.91.5.5 0 01-.79-.61A8.71 8.71 0 01201.2 162.38zM219.94 162.59a8.18 8.18 0 013.54.2.51.51 0 01.34.61.45.45 0 01-.56.35A7.17 7.17 0 00216 165.8a.45.45 0 01-.66 0 .52.52 0 010-.7A7.82 7.82 0 01219.94 162.59z" class="color803b34 svgShape"></path><path fill="#2f282e" d="M178.78,175.52s3.51,6.68,8.38,8.14,11.72-4.46,22-4.62,15.73,4.46,17.26,10.62,1.76,26.47-18.09,29.91-38.69-23.87-38.69-23.87l-3.9-20.23Z" class="color2f282e svgShape"></path><path fill="#eb8b76" d="M184.16,172.37a9.46,9.46,0,1,1-3.62-12.88A9.45,9.45,0,0,1,184.16,172.37Z" class="coloreb8b76 svgShape"></path><path fill="#803b34" d="M175,167.49a3.39,3.39,0,0,1,4.11.31,8,8,0,0,0-1.1-5.5.71.71,0,1,1,1.23-.71c2.29,3.93,1.8,8-1.5,12.33a.73.73,0,0,1-.69.27.67.67,0,0,1-.3-.13.7.7,0,0,1-.14-1,14.21,14.21,0,0,0,2.09-3.74c-1-1-2.21-1.21-2.81-.73a.71.71,0,1,1-.89-1.11Z" class="color803b34 svgShape"></path><path fill="#ffffff" d="M197.63,187.07,213,193a8.61,8.61,0,0,1-8,3.62C199.55,196.16,197.63,187.07,197.63,187.07Z" class="colorfff svgShape"></path><path fill="#2f282e" d="M192.67,149c-3.64,8.21-7.44,20.82-7.44,20.82l-3.73-9.72Z" class="color2f282e svgShape"></path><path fill="#273847" d="M321.31,257.6H213.65a8.65,8.65,0,0,0-8.44,6.72l-19.84,86.15H308.62l19.43-84.41A6.91,6.91,0,0,0,321.31,257.6Z" class="color273847 svgShape"></path><path fill="#394c60" d="M323.87,257.6H219.37a9.13,9.13,0,0,0-8.9,7.09l-19.75,85.78h113.7a12,12,0,0,0,11.69-9.31l16.66-72.37A9.14,9.14,0,0,0,323.87,257.6Z" class="color394c60 svgShape"></path><ellipse cx="266.69" cy="304.64" fill="#273847" rx="15.01" ry="6.55" class="color273847 svgShape"></ellipse><path fill="#eb8b76" d="M235.14,340.61c-1-2.8-3-1.92-4.54-1.94,3.9-2.42,6.19-5.57,5.23-7.43-.61-1.17-2.39-1.55-4.67-1.25,4.31-2.46,6.92-5.86,5.9-7.82-.63-1.2-2.48-1.57-4.83-1.23,0,0,5.63-2.45,4.12-7.21-2.24-7.1-29.94,5.56-35,4.13-8.14-2.28-.19-22.64-6.22-24.34S173.35,322.24,171,330a44.81,44.81,0,0,0-1.65,15.49L187.39,367S237.89,347.89,235.14,340.61Z" class="coloreb8b76 svgShape"></path><path fill="#803b34" d="M186.3 303.35l-.17-.11a.76.76 0 111-1.19 2.64 2.64 0 002.15.39c1.46-.35 2.88-1.91 4.13-4.5a.76.76 0 011.37.65c-1.48 3.09-3.23 4.88-5.19 5.33A4.18 4.18 0 01186.3 303.35zM216.72 344.42a.7.7 0 01-.29-.36.76.76 0 01.43-1l11.8-4.6a.76.76 0 01.56 1.42l-11.81 4.6A.76.76 0 01216.72 344.42zM217.54 335.65a.69.69 0 01-.29-.36.75.75 0 01.43-1l11.8-4.6a.76.76 0 01.55 1.42l-11.8 4.59A.73.73 0 01217.54 335.65zM219.2 326.48a.79.79 0 01-.29-.36.76.76 0 01.43-1l11.8-4.6a.77.77 0 011 .43.76.76 0 01-.43 1l-11.81 4.6A.76.76 0 01219.2 326.48z" class="color803b34 svgShape"></path><path fill="#eb8b76" d="M335.31,297.9c-.74-2.56-3.26-5.32-7.77-6.4l-2.38,10.34a18.83,18.83,0,0,0-5.36,3.77c-2.32,2.19-3.75,4.66-3.26,5.9a.82.82,0,0,0,.27.33c-6.52,2.56-6.94,6.92-5.95,9.2a2.4,2.4,0,0,0,.94,1,6.73,6.73,0,0,0-1.63,5.47c.61,3.11,4.66,4.18,7.68,4.45-3.32,4.1-.16,8.22,3.13,7.53,2.26-.48,10.87-3.05,12.66-4.26,1.5-1,1.75-3.63-.28-5.76a7.43,7.43,0,0,0,1.06-.56c2.9-1.84,3.07-7.37.73-10.18a4.92,4.92,0,0,0,1-.91c.85-1.11,1.77-5.68,1.57-7.94-.1-1.06-1.39-2.78-3.33-4.52C335.21,302.47,335.71,299.26,335.31,297.9Z" class="coloreb8b76 svgShape"></path><path fill="#803b34" d="M310.69,322.22c-2.06-2.89.73-7.59.85-7.79a.75.75,0,1,1,1.28.77c-.7,1.18-2.22,4.6-.79,6.3,1.66,1.93,11.88,1.88,19.44-1.59a.75.75,0,0,1,1,.37.76.76,0,0,1-.37,1c-7.46,3.42-18.75,4.06-21.2,1.2C310.82,322.39,310.75,322.31,310.69,322.22Z" class="color803b34 svgShape"></path><path fill="#803b34" d="M310.52 329.76a6.13 6.13 0 01-.48-6.36.75.75 0 011.31.74 4.6 4.6 0 00.65 5.08c1.81 2.19 12.51 2.9 19.44-.28a.75.75 0 01.62 1.37c-7.23 3.31-18.82 2.75-21.22-.14zM315.93 312a.75.75 0 011-1.09c4.82 2.79 12.41.63 14.62-.7s2.1-4.73 2.1-4.76a.75.75 0 01.73-.77.74.74 0 01.77.72c0 .18.1 4.33-2.83 6.09-2.5 1.51-10.7 3.86-16.14.72A.7.7 0 01315.93 312z" class="color803b34 svgShape"></path><path fill="#ffffff" d="M73.61,297.5l52,36.07L172,327.32l17.54,44s-85.27,45.33-117.53,4C47.81,344.39,73.61,297.5,73.61,297.5Z" class="colorfff svgShape"></path><path fill="#2f282e" d="M279.49 251a1 1 0 01-.72-.31c-33.78-35.73-62.42-33.26-62.7-33.23a1 1 0 01-1.1-.89 1 1 0 01.89-1.1c1.2-.13 29.84-2.67 64.36 33.85a1 1 0 01-.73 1.68zM66.87 290.78a1 1 0 01-.73-1.69c19.14-20.52 48.93-51.39 49.23-51.7l.14-.14 43.24-18.59a1 1 0 11.79 1.84l-42.87 18.43c-2.24 2.32-30.62 31.74-49.06 51.53A1 1 0 0166.87 290.78z" class="color2f282e svgShape"></path></svg></g></svg>