<svg xmlns="http://www.w3.org/2000/svg" data-name="Layer 1" viewBox="0 0 1100 1100"><defs><clipPath id="a"><path fill="none" d="M740.41571,342.82849c-138.73819,4.99984-150.63695-35.47586-299.46141-99.97742S92.28852,320.25294,134.15777,484.73193c41.86926,164.4798-74.74054,357.98449,83.54178,438.61144s467.88983,151.57868,625.91867,0S1098.39939,329.92818,740.41571,342.82849Z"/></clipPath><clipPath id="c"><path fill="none" d="M847.61812,275.5232a18.33439,18.33439,0,0,1-8.89251,22.97385c-34.06021,17.0089-135.65179,55.954-245.69807-15.515C464.51253,199.5165,810.5423,178.196,847.61812,275.5232Z"/></clipPath><linearGradient id="b" x1="347.037" x2="347.037" y1="563.378" y2="314.222" gradientUnits="userSpaceOnUse"><stop offset="0" stop-color="#fff" stop-opacity="0"/><stop offset="1" stop-color="#fff"/></linearGradient></defs><path fill="#ffce4d" d="M740.41571,342.82849c-138.73819,4.99984-150.63695-35.47586-299.46141-99.97742S92.28852,320.25294,134.15777,484.73193c41.86926,164.4798-74.74054,357.98449,83.54178,438.61144s467.88983,151.57868,625.91867,0S1098.39939,329.92818,740.41571,342.82849Z"/><g clip-path="url(#a)"><polygon fill="#ffde6f" points="118.18 459.566 118.18 432.028 163.859 432.028 163.859 300.406 176.451 300.406 176.451 432.028 225.654 432.028 225.654 459.566 252.007 459.566 252.007 1011.438 61.948 1011.438 61.948 459.566 118.18 459.566"/><rect width="26.353" height="496.431" x="61.948" y="459.566" fill="#e0c362" transform="rotate(180 75.124 707.782)"/><rect width="190.058" height="420.411" x="156.979" y="591.026" fill="#ffde6f" transform="rotate(180 252.008 801.232)"/><rect width="26.352" height="420.411" x="156.979" y="591.026" fill="#e0c362" transform="rotate(180 170.155 801.232)"/><rect width="190.058" height="420.411" x="641.837" y="591.025" fill="#ffde6f" transform="rotate(180 736.865 801.23)"/><rect width="26.352" height="420.411" x="641.837" y="591.025" fill="#e0c362" transform="rotate(180 655.013 801.23)"/><rect width="255.005" height="620.377" x="341.745" y="391.061" fill="#ffde6f" transform="rotate(180 469.248 701.25)"/><rect width="26.353" height="620.377" x="341.745" y="391.061" fill="#e0c362" transform="rotate(180 354.922 701.25)"/><rect width="39.825" height="16.53" x="530.064" y="420.773" fill="#fff" transform="rotate(180 549.977 429.038)"/><rect width="39.827" height="16.53" x="463.01" y="420.773" fill="#fff" transform="rotate(180 482.924 429.038)"/><rect width="39.825" height="16.53" x="530.064" y="480.956" fill="#fff" transform="rotate(180 549.977 489.222)"/><rect width="39.827" height="16.53" x="463.01" y="480.956" fill="#fff" transform="rotate(180 482.924 489.222)"/><rect width="39.825" height="16.53" x="395.958" y="480.956" fill="#fff" transform="rotate(180 415.87 489.222)"/><rect width="39.825" height="16.529" x="530.064" y="541.141" fill="#fff" transform="rotate(180 549.977 549.406)"/><rect width="39.825" height="16.529" x="395.958" y="541.141" fill="#fff" transform="rotate(180 415.87 549.406)"/><rect width="39.827" height="16.53" x="463.01" y="571.232" fill="#fff" transform="rotate(180 482.924 579.497)"/><rect width="39.825" height="16.53" x="530.064" y="601.324" fill="#fff" transform="rotate(180 549.977 609.589)"/><rect width="39.827" height="16.529" x="463.01" y="631.417" fill="#fff" transform="rotate(180 482.924 639.681)"/><rect width="39.825" height="16.529" x="530.064" y="661.509" fill="#fff" transform="rotate(180 549.977 669.773)"/><rect width="39.825" height="16.529" x="395.958" y="661.509" fill="#fff" transform="rotate(180 415.87 669.773)"/><rect width="39.825" height="16.53" x="530.064" y="717.124" fill="#fff" transform="rotate(180 549.977 725.39)"/><rect width="39.827" height="16.53" x="463.01" y="717.124" fill="#fff" transform="rotate(180 482.924 725.39)"/><rect width="39.825" height="16.529" x="530.064" y="777.308" fill="#fff" transform="rotate(180 549.977 785.572)"/><rect width="39.827" height="16.529" x="463.01" y="777.308" fill="#fff" transform="rotate(180 482.924 785.572)"/><rect width="39.825" height="16.529" x="395.958" y="777.308" fill="#fff" transform="rotate(180 415.87 785.572)"/><rect width="39.825" height="16.53" x="530.064" y="837.491" fill="#fff" transform="rotate(180 549.977 845.757)"/><rect width="39.825" height="16.53" x="395.958" y="837.491" fill="#fff" transform="rotate(180 415.87 845.757)"/><rect width="39.827" height="16.53" x="463.01" y="867.583" fill="#fff" transform="rotate(180 482.924 875.848)"/><rect width="39.825" height="16.53" x="395.958" y="867.583" fill="#fff" transform="rotate(180 415.87 875.848)"/><rect width="39.825" height="16.53" x="530.064" y="897.675" fill="#fff" transform="rotate(180 549.977 905.94)"/><rect width="39.827" height="16.53" x="463.01" y="927.767" fill="#fff" transform="rotate(180 482.924 936.032)"/><rect width="39.825" height="16.53" x="530.064" y="957.859" fill="#fff" transform="rotate(180 549.977 966.124)"/><rect width="39.825" height="16.53" x="395.958" y="957.859" fill="#fff" transform="rotate(180 415.87 966.124)"/><rect width="249.934" height="574.135" x="772.775" y="437.303" fill="#ffde6f" transform="rotate(180 897.742 724.37)"/><rect width="25.829" height="574.135" x="772.775" y="437.303" fill="#e0c362" transform="rotate(180 785.69 724.37)"/><rect width="39.033" height="15.298" x="957.349" y="464.8" fill="#fff" transform="rotate(180 976.866 472.45)"/><rect width="39.033" height="15.298" x="891.629" y="464.8" fill="#fff" transform="rotate(180 911.146 472.45)"/><rect width="39.033" height="15.298" x="957.349" y="520.498" fill="#fff" transform="rotate(180 976.866 528.146)"/><rect width="39.033" height="15.298" x="891.629" y="520.498" fill="#fff" transform="rotate(180 911.146 528.146)"/><rect width="39.035" height="15.298" x="825.909" y="520.498" fill="#fff" transform="rotate(180 845.426 528.146)"/><rect width="39.033" height="15.297" x="957.349" y="576.196" fill="#fff" transform="rotate(180 976.866 583.844)"/><rect width="39.035" height="15.297" x="825.909" y="576.196" fill="#fff" transform="rotate(180 845.426 583.844)"/><rect width="39.033" height="15.297" x="891.629" y="604.045" fill="#fff" transform="rotate(180 911.146 611.694)"/><rect width="39.033" height="15.297" x="957.349" y="631.894" fill="#fff" transform="rotate(180 976.866 639.543)"/><rect width="39.033" height="15.299" x="891.629" y="659.742" fill="#fff" transform="rotate(180 911.146 667.391)"/><rect width="39.033" height="15.297" x="957.349" y="687.591" fill="#fff" transform="rotate(180 976.866 695.24)"/><rect width="39.035" height="15.297" x="825.909" y="687.591" fill="#fff" transform="rotate(180 845.426 695.24)"/><rect width="39.033" height="15.297" x="957.349" y="739.062" fill="#fff" transform="rotate(180 976.866 746.71)"/><rect width="39.033" height="15.297" x="891.629" y="739.062" fill="#fff" transform="rotate(180 911.146 746.71)"/><rect width="39.033" height="15.297" x="957.349" y="794.759" fill="#fff" transform="rotate(180 976.866 802.408)"/><rect width="39.033" height="15.297" x="891.629" y="794.759" fill="#fff" transform="rotate(180 911.146 802.408)"/><rect width="39.035" height="15.297" x="825.909" y="794.759" fill="#fff" transform="rotate(180 845.426 802.408)"/><rect width="39.033" height="15.296" x="957.349" y="850.458" fill="#fff" transform="rotate(180 976.866 858.106)"/><rect width="39.035" height="15.296" x="825.909" y="850.458" fill="#fff" transform="rotate(180 845.426 858.106)"/><rect width="39.033" height="15.297" x="891.629" y="878.306" fill="#fff" transform="rotate(180 911.146 885.954)"/><rect width="39.035" height="15.297" x="825.909" y="878.306" fill="#fff" transform="rotate(180 845.426 885.954)"/><rect width="39.033" height="15.297" x="957.349" y="906.155" fill="#fff" transform="rotate(180 976.866 913.804)"/><rect width="39.033" height="15.297" x="891.629" y="934.005" fill="#fff" transform="rotate(180 911.146 941.653)"/><rect width="39.033" height="15.299" x="957.349" y="961.852" fill="#fff" transform="rotate(180 976.866 969.502)"/><rect width="39.035" height="15.299" x="825.909" y="961.852" fill="#fff" transform="rotate(180 845.426 969.502)"/><rect width="160.967" height="391.601" x="-65.048" y="619.836" fill="#ffde6f" transform="rotate(180 15.436 815.637)"/><rect width="25.141" height="10.434" x="53.825" y="638.592" fill="#fff" transform="rotate(180 66.396 643.809)"/><rect width="25.139" height="10.434" x="11.499" y="638.592" fill="#fff" transform="rotate(180 24.069 643.809)"/><rect width="25.141" height="10.434" x="53.825" y="676.581" fill="#fff" transform="rotate(180 66.396 681.798)"/><rect width="25.139" height="10.434" x="11.499" y="676.581" fill="#fff" transform="rotate(180 24.069 681.798)"/><rect width="25.141" height="10.434" x="53.825" y="714.572" fill="#fff" transform="rotate(180 66.396 719.789)"/><rect width="25.139" height="10.433" x="11.499" y="733.568" fill="#fff" transform="rotate(180 24.069 738.784)"/><rect width="25.141" height="10.433" x="53.825" y="752.562" fill="#fff" transform="rotate(180 66.396 757.779)"/><rect width="25.139" height="10.434" x="11.499" y="771.557" fill="#fff" transform="rotate(180 24.069 776.774)"/><rect width="25.141" height="10.434" x="53.825" y="790.551" fill="#fff" transform="rotate(180 66.396 795.769)"/><rect width="25.141" height="10.434" x="53.825" y="825.657" fill="#fff" transform="rotate(180 66.396 830.874)"/><rect width="25.139" height="10.434" x="11.499" y="825.657" fill="#fff" transform="rotate(180 24.069 830.874)"/><rect width="25.141" height="10.433" x="53.825" y="863.648" fill="#fff" transform="rotate(180 66.396 868.864)"/><rect width="25.139" height="10.433" x="11.499" y="863.648" fill="#fff" transform="rotate(180 24.069 868.864)"/><rect width="25.141" height="10.433" x="53.825" y="901.639" fill="#fff" transform="rotate(180 66.396 906.855)"/><rect width="25.139" height="10.434" x="11.499" y="920.632" fill="#fff" transform="rotate(180 24.069 925.849)"/><rect width="25.141" height="10.434" x="53.825" y="939.628" fill="#fff" transform="rotate(180 66.396 944.845)"/><rect width="25.139" height="10.433" x="11.499" y="958.622" fill="#fff" transform="rotate(180 24.069 963.839)"/><rect width="25.141" height="10.434" x="53.825" y="977.617" fill="#fff" transform="rotate(180 66.396 982.834)"/><rect width="756.738" height="838.415" x="-218.423" y="188.981" fill="#fff" opacity=".14"/><rect width="16.555" height="858.827" x="530.041" y="179.39" fill="#fff"/><polygon fill="#fff" points="42.101 1012.255 -16.63 1012.255 298.212 198.575 356.942 198.575 42.101 1012.255" opacity=".6"/><polygon fill="#fff" points="-61.604 1012.255 -90.969 1012.255 223.871 198.575 253.237 198.575 -61.604 1012.255" opacity=".6"/><polygon fill="#fff" points="289.036 1012.255 259.67 1012.255 529.597 285.934 529.597 344.451 289.036 1012.255" opacity=".6"/><rect width="16.555" height="850.164" x="25.546" y="183.72" fill="#fff"/><rect width="22.196" height="773.296" x="148.847" y="642.253" fill="#fff" transform="rotate(-90 159.945 1028.901)"/><rect width="16.554" height="850.164" x="277.793" y="183.72" fill="#fff"/><rect width="6.773" height="740.014" x="156.558" y="645.635" fill="#fff" transform="rotate(90 159.944 1015.642)"/><rect width="19.186" height="773.296" x="150.352" y="-197.666" fill="#fff" transform="rotate(-90 159.945 188.982)"/><rect width="6.774" height="740.325" x="156.557" y="-168.201" fill="#fff" transform="rotate(90 159.944 201.962)"/><rect width="756.741" height="838.415" x="538.385" y="188.981" fill="#fff" opacity=".14"/><rect width="16.555" height="858.827" x="530.11" y="179.39" fill="#fff"/><polygon fill="#fff" points="667.445 1012.255 608.714 1012.255 923.554 198.575 982.286 198.575 667.445 1012.255" opacity=".6"/><polygon fill="#fff" points="563.74 1012.255 534.374 1012.255 849.215 198.575 878.581 198.575 563.74 1012.255" opacity=".6"/><polygon fill="#fff" points="1045.845 1012.255 1016.48 1012.255 1286.407 285.934 1286.407 344.451 1045.845 1012.255" opacity=".6"/><rect width="16.554" height="850.164" x="782.358" y="183.72" fill="#fff"/><rect width="22.196" height="773.296" x="905.657" y="642.253" fill="#fff" transform="rotate(-90 916.755 1028.901)"/><rect width="16.554" height="850.164" x="1034.603" y="183.72" fill="#fff"/><rect width="6.773" height="740.014" x="913.368" y="645.635" fill="#fff" transform="rotate(90 916.754 1015.642)"/><rect width="19.186" height="773.296" x="907.162" y="-197.666" fill="#fff" transform="rotate(-90 916.755 188.982)"/><rect width="6.774" height="740.327" x="913.368" y="-168.202" fill="#fff" transform="rotate(90 916.755 201.962)"/><rect width="9.593" height="1557.295" x="547.148" y="-443.233" fill="#fff" transform="rotate(-90 551.945 335.414)"/><rect width="9.593" height="1557.295" x="547.148" y="-187.426" fill="#fff" transform="rotate(-90 551.945 591.222)"/><rect width="9.593" height="1557.295" x="547.148" y="68.38" fill="#fff" transform="rotate(-90 551.945 847.028)"/><path fill="#e0c362" d="M349.10423,365.575a58.10316,58.10316,0,0,1-58.03576-58.03561h2.73067a55.3051,55.3051,0,1,0,110.61019,0h2.73051A58.10209,58.10209,0,0,1,349.10423,365.575Z"/><polygon fill="#e0c362" points="348.323 262.139 275.123 322.784 436.517 322.784 348.323 262.139"/><polygon fill="url(#b)" points="311.943 314.222 234.639 563.378 459.436 563.378 386.378 314.222 311.943 314.222" opacity=".22"/><rect width="7.108" height="112.582" x="344.963" y="168.229" fill="#ffde6f"/><path fill="#f4bf62" d="M341.82307,270.16506h13.3881a5.2139,5.2139,0,0,1,5.2139,5.2139v20.58366a0,0,0,0,1,0,0h-23.8164a0,0,0,0,1,0,0V275.37946A5.2144,5.2144,0,0,1,341.82307,270.16506Z"/><path fill="#e0c362" d="M362.06744,324.82917a13.86873,13.86873,0,1,0-13.86719,13.8688A13.86794,13.86794,0,0,0,362.06744,324.82917Z"/><path fill="#fff" d="M348.38923,333.5085c-3.2849-.59293-7.79646-3.17477-8.64369-6.64479-.30235-1.23763-2.21418-.714-1.91021.52681,1.01106,4.13843,6.058,7.31158,10.02644,8.028C349.1073,335.64463,349.64282,333.73522,348.38923,333.5085Z"/><polygon fill="#ffde6f" points="348.323 262.139 267.625 322.784 429.021 322.784 348.323 262.139"/><path fill="#e0c362" d="M343.41368,254.64131h9.81727a2.5879,2.5879,0,0,1,2.5879,2.5879v9.81807a2.5879,2.5879,0,0,1-2.5879,2.5879h-9.81737a2.5878,2.5878,0,0,1-2.5878-2.5878v-9.81817A2.5879,2.5879,0,0,1,343.41368,254.64131Z"/></g><path fill="#ffce4d" d="M847.61812,275.5232a18.33439,18.33439,0,0,1-8.89251,22.97385c-34.06021,17.0089-135.65179,55.954-245.69807-15.515C464.51253,199.5165,810.5423,178.196,847.61812,275.5232Z"/><g clip-path="url(#c)"><rect width="756.738" height="838.415" x="-218.423" y="188.981" fill="#fff" opacity=".14"/><rect width="16.555" height="858.827" x="530.041" y="179.39" fill="#fff"/><polygon fill="#fff" points="42.101 1012.255 -16.63 1012.255 298.212 198.575 356.942 198.575 42.101 1012.255" opacity=".6"/><polygon fill="#fff" points="-61.604 1012.255 -90.969 1012.255 223.871 198.575 253.237 198.575 -61.604 1012.255" opacity=".6"/><polygon fill="#fff" points="289.036 1012.255 259.67 1012.255 529.597 285.934 529.597 344.451 289.036 1012.255" opacity=".6"/><rect width="16.555" height="850.164" x="25.546" y="183.72" fill="#fff"/><rect width="22.196" height="773.296" x="148.847" y="642.253" fill="#fff" transform="rotate(-90 159.945 1028.901)"/><rect width="16.554" height="850.164" x="277.793" y="183.72" fill="#fff"/><rect width="6.773" height="740.014" x="156.558" y="645.635" fill="#fff" transform="rotate(90 159.944 1015.642)"/><rect width="19.186" height="773.296" x="150.352" y="-197.666" fill="#fff" transform="rotate(-90 159.945 188.982)"/><rect width="6.774" height="740.325" x="156.557" y="-168.201" fill="#fff" transform="rotate(90 159.944 201.962)"/><rect width="756.741" height="838.415" x="538.385" y="188.981" fill="#fff" opacity=".14"/><rect width="16.555" height="858.827" x="530.11" y="179.39" fill="#fff"/><polygon fill="#fff" points="667.445 1012.255 608.714 1012.255 923.554 198.575 982.286 198.575 667.445 1012.255" opacity=".6"/><polygon fill="#fff" points="563.74 1012.255 534.374 1012.255 849.215 198.575 878.581 198.575 563.74 1012.255" opacity=".6"/><polygon fill="#fff" points="1045.845 1012.255 1016.48 1012.255 1286.407 285.934 1286.407 344.451 1045.845 1012.255" opacity=".6"/><rect width="16.554" height="850.164" x="782.358" y="183.72" fill="#fff"/><rect width="22.196" height="773.296" x="905.657" y="642.253" fill="#fff" transform="rotate(-90 916.755 1028.901)"/><rect width="16.554" height="850.164" x="1034.603" y="183.72" fill="#fff"/><rect width="6.773" height="740.014" x="913.368" y="645.635" fill="#fff" transform="rotate(90 916.754 1015.642)"/><rect width="19.186" height="773.296" x="907.162" y="-197.666" fill="#fff" transform="rotate(-90 916.755 188.982)"/><rect width="6.774" height="740.327" x="913.368" y="-168.202" fill="#fff" transform="rotate(90 916.755 201.962)"/><rect width="9.593" height="1557.295" x="547.148" y="-443.233" fill="#fff" transform="rotate(-90 551.945 335.414)"/><rect width="9.593" height="1557.295" x="547.148" y="-187.426" fill="#fff" transform="rotate(-90 551.945 591.222)"/><rect width="9.593" height="1557.295" x="547.148" y="68.38" fill="#fff" transform="rotate(-90 551.945 847.028)"/></g><path fill="#318bd9" d="M104.0234,319.82707H361.3867a4.0224,4.0224,0,0,1,4.0224,4.0224V598.96228a5.1377,5.1377,0,0,1-5.1377,5.1377H105.1377A5.1377,5.1377,0,0,1,100,598.96228V323.85047A4.0234,4.0234,0,0,1,104.0234,319.82707Z" transform="rotate(180 232.705 461.964)"/><path fill="#55a0ed" d="M111.03379,319.82707H368.39754a4.0224,4.0224,0,0,1,4.0224,4.0224V598.96328a5.1367,5.1367,0,0,1-5.1367,5.1367H112.15a5.1377,5.1377,0,0,1-5.1377-5.1377V323.84857A4.0215,4.0215,0,0,1,111.03379,319.82707Z" transform="rotate(180 239.716 461.964)"/><path fill="#fff" d="M139.26924,448.00264H239.6936a7.5009,7.5009,0,0,1,7.5009,7.5009v58.47133a7.5015,7.5015,0,0,1-7.5015,7.5015H139.26924a7.5019,7.5019,0,0,1-7.5019-7.5019V455.50454A7.5019,7.5019,0,0,1,139.26924,448.00264Z" transform="rotate(180 189.48 484.74)"/><rect width="89.121" height="16.338" x="145.929" y="457.605" fill="#ff8374" transform="rotate(180 190.49 465.774)"/><rect width="16.678" height="2.487" x="218.372" y="484.48" fill="#e6e6e6" transform="rotate(180 226.711 485.724)"/><rect width="66.501" height="2.487" x="145.929" y="484.48" fill="#e6e6e6" transform="rotate(180 179.18 485.724)"/><rect width="43.986" height="2.488" x="191.064" y="490.37" fill="#e6e6e6" transform="rotate(180 213.057 491.614)"/><rect width="16.68" height="2.488" x="170.84" y="490.37" fill="#e6e6e6" transform="rotate(180 179.18 491.614)"/><rect width="20.772" height="2.488" x="145.929" y="490.37" fill="#e6e6e6" transform="rotate(180 156.315 491.614)"/><rect width="52.607" height="2.487" x="182.443" y="496.261" fill="#e6e6e6" transform="rotate(180 208.746 497.504)"/><rect width="31.758" height="2.487" x="145.929" y="496.261" fill="#e6e6e6" transform="rotate(180 161.808 497.504)"/><rect width="41.591" height="2.488" x="145.929" y="502.283" fill="#e6e6e6" transform="rotate(180 166.724 503.527)"/><rect width="10.278" height="2.487" x="224.772" y="502.152" fill="#e6e6e6" transform="rotate(180 229.911 503.396)"/><rect width="29.252" height="2.487" x="191.708" y="502.152" fill="#e6e6e6" transform="rotate(180 206.335 503.396)"/><rect width="16.678" height="2.487" x="218.372" y="508.042" fill="#e6e6e6" transform="rotate(180 226.711 509.286)"/><rect width="66.501" height="2.487" x="145.929" y="508.042" fill="#e6e6e6" transform="rotate(180 179.18 509.286)"/><path fill="#050200" d="M100,319.82707H365.4091a0,0,0,0,1,0,0v23.39878a5.1372,5.1372,0,0,1-5.1372,5.1372H105.1377A5.1377,5.1377,0,0,1,100,343.22535V319.82707A0,0,0,0,1,100,319.82707Z" transform="rotate(180 232.705 334.095)"/><path fill="#351501" d="M107.01229,319.82707H372.41994a0,0,0,0,1,0,0v23.39928a5.1367,5.1367,0,0,1-5.1367,5.1367H112.15a5.1377,5.1377,0,0,1-5.1377-5.1377V319.82707a0,0,0,0,1,0,0Z" transform="rotate(180 239.716 334.095)"/><circle cx="322.389" cy="334.095" r="4.383" fill="#fff"/><circle cx="339.254" cy="334.095" r="4.383" fill="#fff"/><path fill="#fff" d="M360.50214,334.095a4.38328,4.38328,0,1,0-4.384,4.38256A4.38286,4.38286,0,0,0,360.50214,334.095Z"/><polygon fill="#fff" points="127.897 330.891 125.727 328.722 122.627 331.821 119.528 328.722 117.36 330.891 120.457 333.99 117.36 337.089 119.528 339.259 122.627 336.16 125.727 339.259 127.897 337.089 124.797 333.99 127.897 330.891"/><path fill="#e6e6e6" d="M342.20047,425.942,219.572,427.923c-5.48956,0-11.91924-6.43033-11.91924-11.91925V373.04941a9.93711,9.93711,0,0,1,9.93663-9.93808H342.20047c5.488,0,13.59951,4.499,13.59951,9.98774l-3.66288,42.90467A9.93725,9.93725,0,0,1,342.20047,425.942Z"/><rect width="144.486" height="62.832" x="211.544" y="365.279" fill="#fff" rx="6.163"/><rect width="71.55" height="13.117" x="220.499" y="374.119" fill="#ff8374" transform="rotate(180 256.274 380.678)"/><rect width="13.39" height="1.997" x="278.659" y="395.697" fill="#e6e6e6" transform="rotate(180 285.355 396.695)"/><rect width="53.392" height="1.997" x="220.499" y="395.697" fill="#e6e6e6" transform="rotate(180 247.195 396.695)"/><rect width="35.314" height="1.997" x="256.736" y="400.426" fill="#e6e6e6" transform="rotate(180 274.393 401.424)"/><rect width="13.39" height="1.997" x="240.5" y="400.426" fill="#e6e6e6" transform="rotate(180 247.195 401.424)"/><rect width="16.678" height="1.997" x="220.499" y="400.426" fill="#e6e6e6" transform="rotate(180 228.838 401.424)"/><rect width="42.235" height="1.998" x="249.815" y="405.155" fill="#e6e6e6" transform="rotate(180 270.932 406.153)"/><rect width="25.498" height="1.998" x="220.499" y="405.155" fill="#e6e6e6" transform="rotate(180 233.249 406.153)"/><rect width="33.391" height="1.997" x="220.499" y="409.99" fill="#e6e6e6" transform="rotate(180 237.195 410.989)"/><rect width="8.252" height="1.998" x="283.798" y="409.884" fill="#e6e6e6" transform="rotate(180 287.924 410.882)"/><rect width="23.484" height="1.998" x="257.254" y="409.884" fill="#e6e6e6" transform="rotate(180 268.996 410.882)"/><rect width="13.39" height="1.997" x="278.659" y="414.613" fill="#e6e6e6" transform="rotate(180 285.355 415.612)"/><rect width="53.392" height="1.997" x="220.499" y="414.613" fill="#e6e6e6" transform="rotate(180 247.195 415.612)"/><path fill="#e6e6e6" d="M179.4727,425.942l-44.926,1.981c-5.488,0-11.91925-6.43033-11.91925-11.91925V373.04941a9.93859,9.93859,0,0,1,9.93824-9.93808h46.907c5.48957,0,13.601,4.499,13.601,9.98774l-3.66272,42.90467A9.93759,9.93759,0,0,1,179.4727,425.942Z"/><rect width="66.783" height="62.832" x="126.52" y="365.279" fill="#fff" rx="6.163"/><path fill="#c7ecfd" d="M136.5798,378.04538v37.31206a3.22,3.22,0,0,0,3.21234,3.21314h40.23947a3.22036,3.22036,0,0,0,3.21411-3.21314V378.04538a3.22308,3.22308,0,0,0-3.21411-3.22589H139.79214A3.22271,3.22271,0,0,0,136.5798,378.04538Z"/><path fill="#ff8374" d="M136.5798,396.90918v18.44826a3.22,3.22,0,0,0,3.21234,3.21314h40.23947a3.22036,3.22036,0,0,0,3.21411-3.21314v-5.21721l-6.99971-7.7926a1.53047,1.53047,0,0,0-2.2503-.03854l-9.25,9.56107a1.5368,1.5368,0,0,1-2.23772-.026l-19.00732-20.7371a1.55635,1.55635,0,0,0-2.34157.07789Z"/><path fill="#ff8374" d="M163.50792,386.10565a5.63518,5.63518,0,1,1,5.63437,5.636A5.6338,5.6338,0,0,1,163.50792,386.10565Z"/><path fill="#e6e6e6" d="M333.426,518.26694l-44.92582,1.981c-5.48957,0-11.91925-6.42967-11.91925-11.91924V465.37437a9.93815,9.93815,0,0,1,9.93663-9.93808H333.426c5.48957,0,13.60112,4.499,13.60112,9.98774l-3.66288,42.90467A9.93718,9.93718,0,0,1,333.426,518.26694Z"/><path fill="#fff" d="M286.63525,457.60467h54.45882a6.163,6.163,0,0,1,6.163,6.163v50.50471a6.1631,6.1631,0,0,1-6.1631,6.1631H286.63525a6.1631,6.1631,0,0,1-6.1631-6.1631V463.76777A6.1631,6.1631,0,0,1,286.63525,457.60467Z"/><path fill="#c7ecfd" d="M290.53311,470.37034v37.31205a3.219,3.219,0,0,0,3.2125,3.21315h40.23785a3.22036,3.22036,0,0,0,3.21411-3.21315v-37.312a3.22308,3.22308,0,0,0-3.21411-3.22589H293.74561A3.2217,3.2217,0,0,0,290.53311,470.37034Z"/><path fill="#ff8374" d="M290.53311,489.23414v18.44825a3.219,3.219,0,0,0,3.2125,3.21315h40.23785a3.22036,3.22036,0,0,0,3.21411-3.21315V502.466l-6.99971-7.7934a1.5293,1.5293,0,0,0-2.24885-.03854l-9.25,9.56187a1.53731,1.53731,0,0,1-2.23772-.02612l-19.00877-20.73774a1.55405,1.55405,0,0,0-2.34.0787Z"/><path fill="#ff8374" d="M317.45977,478.43061a5.63518,5.63518,0,1,1,5.636,5.636A5.63479,5.63479,0,0,1,317.45977,478.43061Z"/><path fill="#c7ecfd" d="M298.08253,377.34618v37.31125a3.22036,3.22036,0,0,0,3.21395,3.21331h40.23946a3.22,3.22,0,0,0,3.2125-3.21331V377.34618a3.22291,3.22291,0,0,0-3.2125-3.22669H301.29648A3.22322,3.22322,0,0,0,298.08253,377.34618Z"/><path fill="#ff8374" d="M298.08253,396.21v18.44745a3.22036,3.22036,0,0,0,3.21395,3.21331h40.23946a3.22,3.22,0,0,0,3.2125-3.21331V409.441l-6.99971-7.7926a1.53111,1.53111,0,0,0-2.25029-.03934l-9.25,9.56187a1.53745,1.53745,0,0,1-2.23772-.026L305.005,390.40791a1.55761,1.55761,0,0,0-2.34318.07788Z"/><path fill="#ff8374" d="M325.01064,385.40646a5.63518,5.63518,0,1,1,5.63438,5.63534A5.63473,5.63473,0,0,1,325.01064,385.40646Z"/><rect width="39.8" height="4.153" x="304.948" y="541.476" fill="#fff" transform="rotate(180 324.848 543.553)"/><rect width="158.685" height="4.153" x="132.089" y="541.476" fill="#fff" transform="rotate(180 211.431 543.553)"/><rect width="104.96" height="4.152" x="239.789" y="551.31" fill="#fff" transform="rotate(180 292.269 553.386)"/><rect width="39.798" height="4.152" x="191.532" y="551.31" fill="#fff" transform="rotate(180 211.431 553.386)"/><rect width="49.568" height="4.152" x="132.089" y="551.31" fill="#fff" transform="rotate(180 156.873 553.386)"/><rect width="125.531" height="4.153" x="219.218" y="561.143" fill="#fff" transform="rotate(180 281.983 563.219)"/><rect width="75.783" height="4.153" x="132.089" y="561.143" fill="#fff" transform="rotate(180 169.98 563.219)"/><rect width="99.242" height="4.153" x="132.089" y="571.196" fill="#fff" transform="rotate(180 181.71 573.272)"/><rect width="24.525" height="4.153" x="320.223" y="570.975" fill="#fff" transform="rotate(180 332.486 573.052)"/><rect width="69.799" height="4.153" x="241.329" y="570.975" fill="#fff" transform="rotate(180 276.228 573.052)"/><rect width="39.8" height="4.153" x="304.948" y="580.81" fill="#fff" transform="rotate(180 324.848 582.886)"/><rect width="158.685" height="4.153" x="132.089" y="580.81" fill="#fff" transform="rotate(180 211.431 582.886)"/><polygon fill="#255c8c" points="713.374 434.174 713.374 304.036 709.141 304.036 709.141 429.942 713.374 434.174"/><polygon fill="#255c8c" points="775.063 434.174 775.063 304.036 770.83 304.036 770.83 429.942 775.063 434.174"/><polygon fill="#255c8c" points="837.521 455.336 837.521 304.036 833.288 304.036 833.288 451.104 837.521 455.336"/><rect width="29.646" height="16.134" x="695.827" y="269.164" fill="#cc6a5e"/><path fill="#ff8477" d="M718.03706,305.83072a2.78227,2.78227,0,0,1-2.77309,1.54561h-9.22485a2.78717,2.78717,0,0,1-2.77631-1.54561l-6.16828-20.5323h27.114Z"/><rect width="21.229" height="14.863" x="700.036" y="254.278" fill="#3c89d9"/><rect width="2.167" height="6.626" x="717.802" y="255.016" fill="#255c8c"/><rect width="2.165" height="6.626" x="714.53" y="255.016" fill="#255c8c"/><rect width="2.164" height="6.626" x="711.258" y="255.016" fill="#255c8c"/><rect width="2.164" height="6.626" x="707.985" y="255.016" fill="#255c8c"/><rect width="2.165" height="6.626" x="704.712" y="255.016" fill="#255c8c"/><rect width="2.165" height="6.626" x="701.439" y="255.016" fill="#255c8c"/><rect width="29.646" height="16.135" x="758.124" y="271.894" fill="#cc6a5e"/><path fill="#ff8477" d="M780.33251,308.56284a2.78355,2.78355,0,0,1-2.7747,1.54336H768.336a2.79051,2.79051,0,0,1-2.77937-1.54336l-6.16683-20.53391h27.114Z"/><rect width="21.229" height="14.863" x="762.332" y="257.01" fill="#3c89d9"/><rect width="2.169" height="6.628" x="780.098" y="257.746" fill="#255c8c"/><rect width="2.164" height="6.628" x="776.827" y="257.746" fill="#255c8c"/><rect width="2.164" height="6.628" x="773.555" y="257.746" fill="#255c8c"/><rect width="2.165" height="6.628" x="770.279" y="257.746" fill="#255c8c"/><rect width="2.167" height="6.628" x="767.007" y="257.746" fill="#255c8c"/><rect width="2.167" height="6.628" x="763.735" y="257.746" fill="#255c8c"/><rect width="29.646" height="16.134" x="820.419" y="269.164" fill="#cc6a5e"/><path fill="#ff8477" d="M842.62941,305.83072a2.78487,2.78487,0,0,1-2.7747,1.54561h-9.2234a2.78692,2.78692,0,0,1-2.77615-1.54561l-6.1699-20.5323h27.11549Z"/><rect width="21.231" height="14.863" x="824.627" y="254.278" fill="#3c89d9"/><rect width="2.168" height="6.626" x="842.392" y="255.016" fill="#255c8c"/><rect width="2.167" height="6.626" x="839.121" y="255.016" fill="#255c8c"/><rect width="2.165" height="6.626" x="835.85" y="255.016" fill="#255c8c"/><rect width="2.165" height="6.626" x="832.576" y="255.016" fill="#255c8c"/><rect width="2.165" height="6.626" x="829.304" y="255.016" fill="#255c8c"/><rect width="2.167" height="6.626" x="826.03" y="255.016" fill="#255c8c"/><path fill="#b8d1db" d="M620.288,171.65053a43.40592,43.40592,0,0,1,11.94117,1.26455,46.8718,46.8718,0,0,1,76.12007-44.199,68.593,68.593,0,0,1,132.34,22.7747,69.95025,69.95025,0,0,1-.10224,7.00132,48.78438,48.78438,0,1,1,25.43523,91.3863l-246.92795,8.78318-.00936-.21415a43.45554,43.45554,0,0,1,1.20312-86.79685Z"/><path fill="#d5f1fd" d="M647.24127,170.59238a43.42407,43.42407,0,0,1,11.88925,1.689,46.86886,46.86886,0,0,1,77.64295-41.46548,68.60115,68.60115,0,0,1,131.09282,34.45545,48.78475,48.78475,0,1,1,22.1708,92.23288H642.95482v-.2127a43.4553,43.4553,0,0,1,4.28645-86.69913Z"/><rect width="38.235" height="52.756" x="759.344" y="209.874" fill="#d4ac3b"/><polygon fill="#d4ac3b" points="721.265 223.017 778.462 145.063 792.156 145.063 792.156 163.73 835.653 223.017 721.265 223.017"/><rect width="17.683" height="5.105" x="741.661" y="257.525" fill="#d4ac3b" transform="rotate(180 750.503 260.078)"/><rect width="38.235" height="52.756" x="773.04" y="209.874" fill="#ffce45"/><polygon fill="#ffce45" points="734.959 223.017 792.156 145.063 849.347 223.017 734.959 223.017"/><rect width="129.553" height="620.324" x="830.828" y="390.845" fill="#c5aff2" transform="rotate(180 895.605 701.007)"/><rect width="16.634" height="620.324" x="943.747" y="390.845" fill="#a0e0ff" transform="rotate(180 952.064 701.007)"/><rect width="129.551" height="629.729" x="593.952" y="381.438" fill="#8bc3de"/><rect width="16.634" height="620.324" x="706.869" y="390.845" fill="#a0e0ff" transform="rotate(180 715.186 701.007)"/><rect width="245.194" height="13.043" x="706.869" y="492.643" fill="#a0e0ff" transform="rotate(180 829.466 499.164)"/><rect width="253.512" height="26.087" x="706.869" y="381.432" fill="#a0e0ff" transform="rotate(180 833.625 394.475)"/><rect width="220.244" height="85.124" x="723.503" y="407.519" fill="#3c89d9" transform="rotate(180 833.625 450.08)"/><path fill="#2d6fab" d="M856.05937,415.25262h74.9424a1.999,1.999,0,0,1,1.999,1.999v65.65753a2,2,0,0,1-2,2h-74.9404a2,2,0,0,1-2-2V417.25162A1.999,1.999,0,0,1,856.05937,415.25262Z" transform="rotate(180 893.53 450.08)"/><path fill="#ffde6f" d="M735.38866,415.25262h8.28274a.7002.7002,0,0,1,.7002.7002v68.25563a.7007.7007,0,0,1-.7007.7007h-8.28224a.7002.7002,0,0,1-.7002-.7002V415.95282A.7002.7002,0,0,1,735.38866,415.25262Z" transform="rotate(180 739.53 450.08)"/><path fill="#3c89d9" d="M863.94,422.23975h58.22481a3.5245,3.5245,0,0,1,3.5245,3.5245v6.00533a3.524,3.524,0,0,1-3.524,3.524H863.94165a3.524,3.524,0,0,1-3.524-3.524v-6.00743A3.5224,3.5224,0,0,1,863.94,422.23975Z" transform="rotate(180 893.054 428.767)"/><path fill="#3c89d9" d="M863.94,422.23975h58.22481a3.5245,3.5245,0,0,1,3.5245,3.5245v6.00533a3.524,3.524,0,0,1-3.524,3.524H863.94165a3.524,3.524,0,0,1-3.524-3.524v-6.00743A3.5224,3.5224,0,0,1,863.94,422.23975Z" transform="rotate(180 893.054 428.767)"/><rect width="37.721" height="4.58" x="874.192" y="426.477" fill="#2d6fab" transform="rotate(180 893.053 428.767)"/><rect width="29.001" height="14.95" x="816.032" y="420.943" fill="#2d6fab" transform="rotate(180 830.532 428.418)"/><rect width="29" height="14.95" x="774.158" y="420.943" fill="#2d6fab" transform="rotate(180 788.658 428.418)"/><rect width="42.606" height="14.95" x="753.848" y="445.352" fill="#2d6fab" transform="rotate(180 775.152 452.827)"/><rect width="36.118" height="5.493" x="757.092" y="450.08" fill="#3c89d9" transform="rotate(180 775.152 452.826)"/><rect width="42.606" height="14.95" x="753.848" y="468.245" fill="#2d6fab" transform="rotate(180 775.152 475.72)"/><rect width="36.118" height="5.493" x="757.092" y="472.973" fill="#3c89d9" transform="rotate(180 775.152 475.72)"/><path fill="#3c89d9" d="M863.94155,443.55478H922.166a3.5234,3.5234,0,0,1,3.5234,3.5234v6.00753a3.5229,3.5229,0,0,1-3.5229,3.5229H863.94115a3.5235,3.5235,0,0,1-3.5235-3.5235v-6.00643A3.5239,3.5239,0,0,1,863.94155,443.55478Z" transform="rotate(180 893.054 450.082)"/><path fill="#3c89d9" d="M863.941,464.86658h58.22381a3.5245,3.5245,0,0,1,3.5245,3.5245v6.007a3.5239,3.5239,0,0,1-3.5239,3.5239H863.94115a3.5235,3.5235,0,0,1-3.5235-3.5235V468.39A3.5234,3.5234,0,0,1,863.941,464.86658Z" transform="rotate(180 893.054 471.394)"/><rect width="37.721" height="4.58" x="874.192" y="447.792" fill="#2d6fab" transform="rotate(180 893.053 450.082)"/><rect width="37.721" height="4.58" x="874.192" y="469.103" fill="#2d6fab" transform="rotate(180 893.053 471.393)"/><path fill="#ffde6f" d="M844.04973,454.0158a4.60888,4.60888,0,1,0-4.60444,4.80924A4.71094,4.71094,0,0,0,844.04973,454.0158Z"/><path fill="#a0e0ff" d="M828.718,454.0158a4.60888,4.60888,0,1,0-4.603,4.80924A4.70859,4.70859,0,0,0,828.718,454.0158Z"/><path fill="#ffde6f" d="M813.38956,454.0158A4.609,4.609,0,1,0,808.785,458.825,4.711,4.711,0,0,0,813.38956,454.0158Z"/><path fill="#a0e0ff" d="M764.72361,428.41836A6.12379,6.12379,0,1,0,758.604,434.811,6.25994,6.25994,0,0,0,764.72361,428.41836Z"/><path fill="#a0e0ff" d="M844.04973,472.4639a4.609,4.609,0,1,0-4.60444,4.81165A4.71084,4.71084,0,0,0,844.04973,472.4639Z"/><path fill="#ffde6f" d="M828.718,472.4639a4.609,4.609,0,1,0-4.603,4.81165A4.7085,4.7085,0,0,0,828.718,472.4639Z"/><path fill="#a0e0ff" d="M813.38956,472.4639a4.60906,4.60906,0,1,0-4.60461,4.81165A4.71087,4.71087,0,0,0,813.38956,472.4639Z"/><rect width="245.194" height="13.044" x="706.869" y="590.811" fill="#a0e0ff" transform="rotate(180 829.466 597.333)"/><rect width="220.244" height="85.125" x="723.503" y="505.686" fill="#3c89d9" transform="rotate(180 833.625 548.248)"/><path fill="#2d6fab" d="M856.06037,513.42h74.9404a2,2,0,0,1,2,2v65.65879a2,2,0,0,1-2,2h-74.9413a1.9991,1.9991,0,0,1-1.9991-1.9991V515.42A2,2,0,0,1,856.06037,513.42Z" transform="rotate(180 893.53 548.25)"/><path fill="#ffde6f" d="M735.38966,513.42h8.28174a.7002.7002,0,0,1,.7002.7002v68.25839a.7002.7002,0,0,1-.7002.7002h-8.28274a.7002.7002,0,0,1-.7002-.7002V514.12117A.7012.7012,0,0,1,735.38966,513.42Z" transform="rotate(180 739.53 548.25)"/><path fill="#3c89d9" d="M863.94165,520.40871h58.22321a3.5245,3.5245,0,0,1,3.5245,3.5245v6.00693a3.5224,3.5224,0,0,1-3.5224,3.5224H863.94115a3.5235,3.5235,0,0,1-3.5235-3.5235v-6.00633A3.524,3.524,0,0,1,863.94165,520.40871Z" transform="rotate(180 893.054 526.936)"/><path fill="#3c89d9" d="M863.94165,520.40871h58.22321a3.5245,3.5245,0,0,1,3.5245,3.5245v6.00693a3.5224,3.5224,0,0,1-3.5224,3.5224H863.94115a3.5235,3.5235,0,0,1-3.5235-3.5235v-6.00633A3.524,3.524,0,0,1,863.94165,520.40871Z" transform="rotate(180 893.054 526.936)"/><rect width="37.721" height="4.581" x="874.192" y="524.645" fill="#2d6fab" transform="rotate(180 893.053 526.935)"/><rect width="29.001" height="14.951" x="816.032" y="519.11" fill="#2d6fab" transform="rotate(180 830.532 526.586)"/><rect width="29" height="14.951" x="774.158" y="519.11" fill="#2d6fab" transform="rotate(180 788.658 526.586)"/><rect width="42.606" height="14.95" x="753.848" y="543.52" fill="#2d6fab" transform="rotate(180 775.152 550.995)"/><rect width="36.118" height="5.493" x="757.092" y="548.249" fill="#3c89d9" transform="rotate(180 775.152 550.995)"/><rect width="42.606" height="14.951" x="753.848" y="566.412" fill="#2d6fab" transform="rotate(180 775.152 573.887)"/><rect width="36.118" height="5.491" x="757.092" y="571.142" fill="#3c89d9" transform="rotate(180 775.152 573.888)"/><path fill="#3c89d9" d="M863.94065,541.722h58.22521a3.5235,3.5235,0,0,1,3.5235,3.5235v6.008a3.5225,3.5225,0,0,1-3.5225,3.5225H863.94015a3.5225,3.5225,0,0,1-3.5225-3.5225V545.245A3.523,3.523,0,0,1,863.94065,541.722Z" transform="rotate(180 893.054 548.249)"/><path fill="#3c89d9" d="M863.941,563.03538h58.22381a3.5245,3.5245,0,0,1,3.5245,3.5245v6.006a3.5225,3.5225,0,0,1-3.5225,3.5225H863.94115a3.5235,3.5235,0,0,1-3.5235-3.5235v-6.00612A3.5234,3.5234,0,0,1,863.941,563.03538Z" transform="rotate(180 893.054 569.562)"/><rect width="37.721" height="4.581" x="874.192" y="545.958" fill="#2d6fab" transform="rotate(180 893.053 548.249)"/><rect width="37.721" height="4.581" x="874.192" y="567.272" fill="#2d6fab" transform="rotate(180 893.053 569.562)"/><path fill="#ffde6f" d="M844.04973,552.18235a4.609,4.609,0,1,0-4.60444,4.81149A4.71191,4.71191,0,0,0,844.04973,552.18235Z"/><path fill="#a0e0ff" d="M828.718,552.18235a4.609,4.609,0,1,0-4.603,4.81149A4.70956,4.70956,0,0,0,828.718,552.18235Z"/><path fill="#ffde6f" d="M813.38956,552.18235a4.60905,4.60905,0,1,0-4.60461,4.81149A4.71194,4.71194,0,0,0,813.38956,552.18235Z"/><path fill="#a0e0ff" d="M764.72361,526.58474a6.1238,6.1238,0,1,0-6.11959,6.39275A6.26056,6.26056,0,0,0,764.72361,526.58474Z"/><path fill="#a0e0ff" d="M844.04973,570.63205a4.60895,4.60895,0,1,0-4.60444,4.81085A4.71216,4.71216,0,0,0,844.04973,570.63205Z"/><path fill="#ffde6f" d="M828.718,570.63205a4.60895,4.60895,0,1,0-4.603,4.81085A4.70982,4.70982,0,0,0,828.718,570.63205Z"/><ellipse cx="808.785" cy="570.632" fill="#a0e0ff" rx="4.605" ry="4.811"/><rect width="245.194" height="13.042" x="706.869" y="688.979" fill="#a0e0ff" transform="rotate(180 829.466 695.5)"/><rect width="220.244" height="85.124" x="723.503" y="603.854" fill="#3c89d9" transform="rotate(180 833.625 646.417)"/><path fill="#2d6fab" d="M856.06037,611.58635h74.9404a2,2,0,0,1,2,2V679.2453a2,2,0,0,1-2,2h-74.9413a1.9991,1.9991,0,0,1-1.9991-1.9991V613.58635A2,2,0,0,1,856.06037,611.58635Z" transform="rotate(180 893.53 646.416)"/><path fill="#ffde6f" d="M735.38966,611.58635h8.28174a.7002.7002,0,0,1,.7002.7002V680.5451a.7002.7002,0,0,1-.7002.7002h-8.28274a.7002.7002,0,0,1-.7002-.7002V612.28755A.7012.7012,0,0,1,735.38966,611.58635Z" transform="rotate(180 739.53 646.416)"/><path fill="#3c89d9" d="M863.941,618.5751h58.22381a3.5245,3.5245,0,0,1,3.5245,3.5245v6.00673a3.5234,3.5234,0,0,1-3.5234,3.5234H863.94115a3.5235,3.5235,0,0,1-3.5235-3.5235V622.0985A3.5234,3.5234,0,0,1,863.941,618.5751Z" transform="rotate(180 893.054 625.102)"/><path fill="#3c89d9" d="M863.941,618.5751h58.22381a3.5245,3.5245,0,0,1,3.5245,3.5245v6.00673a3.5234,3.5234,0,0,1-3.5234,3.5234H863.94115a3.5235,3.5235,0,0,1-3.5235-3.5235V622.0985A3.5234,3.5234,0,0,1,863.941,618.5751Z" transform="rotate(180 893.054 625.102)"/><rect width="37.721" height="4.579" x="874.192" y="622.813" fill="#2d6fab" transform="rotate(180 893.053 625.102)"/><rect width="29.001" height="14.949" x="816.032" y="617.279" fill="#2d6fab" transform="rotate(180 830.532 624.754)"/><rect width="29" height="14.949" x="774.158" y="617.279" fill="#2d6fab" transform="rotate(180 788.658 624.754)"/><rect width="42.606" height="14.952" x="753.848" y="641.686" fill="#2d6fab" transform="rotate(180 775.152 649.162)"/><rect width="36.118" height="5.493" x="757.092" y="646.415" fill="#3c89d9" transform="rotate(180 775.152 649.161)"/><rect width="42.606" height="14.949" x="753.848" y="664.58" fill="#2d6fab" transform="rotate(180 775.152 672.054)"/><rect width="36.118" height="5.493" x="757.092" y="669.309" fill="#3c89d9" transform="rotate(180 775.152 672.055)"/><path fill="#3c89d9" d="M863.94015,639.8877h58.22471a3.5245,3.5245,0,0,1,3.5245,3.5245v6.00673a3.5234,3.5234,0,0,1-3.5234,3.5234H863.94115a3.5235,3.5235,0,0,1-3.5235-3.5235V643.4102A3.5225,3.5225,0,0,1,863.94015,639.8877Z" transform="rotate(180 893.054 646.415)"/><path fill="#3c89d9" d="M863.94115,661.20192h58.22371a3.5245,3.5245,0,0,1,3.5245,3.5245v6.00725a3.5245,3.5245,0,0,1-3.5245,3.5245H863.941a3.5234,3.5234,0,0,1-3.5234-3.5234v-6.00935A3.5235,3.5235,0,0,1,863.94115,661.20192Z" transform="rotate(180 893.054 667.73)"/><rect width="37.721" height="4.581" x="874.192" y="644.125" fill="#2d6fab" transform="rotate(180 893.053 646.416)"/><rect width="37.721" height="4.579" x="874.192" y="665.44" fill="#2d6fab" transform="rotate(180 893.053 667.73)"/><path fill="#ffde6f" d="M844.04973,650.352a4.60888,4.60888,0,1,0-4.60444,4.80924A4.71256,4.71256,0,0,0,844.04973,650.352Z"/><path fill="#a0e0ff" d="M828.718,650.352a4.60888,4.60888,0,1,0-4.603,4.80924A4.71022,4.71022,0,0,0,828.718,650.352Z"/><path fill="#ffde6f" d="M813.38956,650.352a4.609,4.609,0,1,0-4.60461,4.80924A4.71259,4.71259,0,0,0,813.38956,650.352Z"/><path fill="#a0e0ff" d="M764.72361,624.75289a6.12383,6.12383,0,1,0-6.11959,6.3934A6.26116,6.26116,0,0,0,764.72361,624.75289Z"/><path fill="#a0e0ff" d="M844.04973,668.80005a4.60895,4.60895,0,1,0-4.60444,4.81084A4.71074,4.71074,0,0,0,844.04973,668.80005Z"/><path fill="#ffde6f" d="M828.718,668.80005a4.60895,4.60895,0,1,0-4.603,4.81084A4.7084,4.7084,0,0,0,828.718,668.80005Z"/><path fill="#a0e0ff" d="M813.38956,668.80005a4.609,4.609,0,1,0-4.60461,4.81084A4.71077,4.71077,0,0,0,813.38956,668.80005Z"/><rect width="245.194" height="13.045" x="706.869" y="787.145" fill="#a0e0ff" transform="rotate(180 829.466 793.668)"/><rect width="220.244" height="85.124" x="723.503" y="702.021" fill="#3c89d9" transform="rotate(180 833.625 744.583)"/><path fill="#2d6fab" d="M856.06037,709.75435h74.9404a2,2,0,0,1,2,2v65.65824a1.9991,1.9991,0,0,1-1.9991,1.9991h-74.9422a1.9991,1.9991,0,0,1-1.9991-1.9991V711.75435A2,2,0,0,1,856.06037,709.75435Z" transform="rotate(180 893.53 744.583)"/><path fill="#ffde6f" d="M735.38966,709.75435h8.28174a.7002.7002,0,0,1,.7002.7002v68.25694a.7002.7002,0,0,1-.7002.7002h-8.28274a.7002.7002,0,0,1-.7002-.7002V710.45555A.7012.7012,0,0,1,735.38966,709.75435Z" transform="rotate(180 739.53 744.583)"/><path fill="#3c89d9" d="M863.941,716.74164h58.22381a3.5245,3.5245,0,0,1,3.5245,3.5245v6.00718a3.5244,3.5244,0,0,1-3.5244,3.5244H863.94115a3.5235,3.5235,0,0,1-3.5235-3.5235V720.265A3.5234,3.5234,0,0,1,863.941,716.74164Z" transform="rotate(180 893.054 723.27)"/><path fill="#3c89d9" d="M863.941,716.74164h58.22381a3.5245,3.5245,0,0,1,3.5245,3.5245v6.00718a3.5244,3.5244,0,0,1-3.5244,3.5244H863.94115a3.5235,3.5235,0,0,1-3.5235-3.5235V720.265A3.5234,3.5234,0,0,1,863.941,716.74164Z" transform="rotate(180 893.054 723.27)"/><rect width="37.721" height="4.581" x="874.192" y="720.981" fill="#2d6fab" transform="rotate(180 893.053 723.271)"/><rect width="29.001" height="14.951" x="816.032" y="715.447" fill="#2d6fab" transform="rotate(180 830.532 722.922)"/><rect width="29" height="14.951" x="774.158" y="715.447" fill="#2d6fab" transform="rotate(180 788.658 722.922)"/><rect width="42.606" height="14.95" x="753.848" y="739.854" fill="#2d6fab" transform="rotate(180 775.152 747.33)"/><rect width="36.118" height="5.491" x="757.092" y="744.585" fill="#3c89d9" transform="rotate(180 775.152 747.33)"/><rect width="42.606" height="14.951" x="753.848" y="762.748" fill="#2d6fab" transform="rotate(180 775.152 770.223)"/><rect width="36.118" height="5.491" x="757.092" y="767.477" fill="#3c89d9" transform="rotate(180 775.152 770.222)"/><path fill="#3c89d9" d="M863.94115,738.0557h58.22371a3.5245,3.5245,0,0,1,3.5245,3.5245v6.00825a3.5235,3.5235,0,0,1-3.5235,3.5235H863.94115a3.5235,3.5235,0,0,1-3.5235-3.5235V741.5792A3.5235,3.5235,0,0,1,863.94115,738.0557Z" transform="rotate(180 893.054 744.584)"/><path fill="#3c89d9" d="M863.94015,759.36992h58.22471a3.5245,3.5245,0,0,1,3.5245,3.5245v6.00673a3.5234,3.5234,0,0,1-3.5234,3.5234H863.94115a3.5235,3.5235,0,0,1-3.5235-3.5235v-6.00863A3.5225,3.5225,0,0,1,863.94015,759.36992Z" transform="rotate(180 893.054 765.897)"/><rect width="37.721" height="4.581" x="874.192" y="742.292" fill="#2d6fab" transform="rotate(180 893.053 744.582)"/><rect width="37.721" height="4.581" x="874.192" y="763.608" fill="#2d6fab" transform="rotate(180 893.053 765.898)"/><path fill="#ffde6f" d="M844.04973,748.51833a4.60895,4.60895,0,1,0-4.60444,4.81085A4.71226,4.71226,0,0,0,844.04973,748.51833Z"/><path fill="#a0e0ff" d="M828.718,748.51833a4.60895,4.60895,0,1,0-4.603,4.81085A4.70992,4.70992,0,0,0,828.718,748.51833Z"/><ellipse cx="808.785" cy="748.518" fill="#ffde6f" rx="4.605" ry="4.811"/><path fill="#a0e0ff" d="M764.72361,722.9225a6.1237,6.1237,0,1,0-6.11959,6.39033A6.26053,6.26053,0,0,0,764.72361,722.9225Z"/><path fill="#a0e0ff" d="M844.04973,766.96643a4.60895,4.60895,0,1,0-4.60444,4.81085A4.71187,4.71187,0,0,0,844.04973,766.96643Z"/><path fill="#ffde6f" d="M828.718,766.96643a4.60895,4.60895,0,1,0-4.603,4.81085A4.70952,4.70952,0,0,0,828.718,766.96643Z"/><path fill="#a0e0ff" d="M813.38956,766.96643a4.609,4.609,0,1,0-4.60461,4.81085A4.7119,4.7119,0,0,0,813.38956,766.96643Z"/><rect width="245.194" height="13.045" x="706.869" y="885.312" fill="#a0e0ff" transform="rotate(180 829.466 891.834)"/><rect width="220.244" height="85.121" x="723.503" y="800.191" fill="#3c89d9" transform="rotate(180 833.625 842.751)"/><path fill="#2d6fab" d="M856.06037,807.9225h74.9404a2,2,0,0,1,2,2v65.65717a2,2,0,0,1-2,2h-74.9413a1.9991,1.9991,0,0,1-1.9991-1.9991V809.9225A2,2,0,0,1,856.06037,807.9225Z" transform="rotate(180 893.53 842.751)"/><rect width="9.683" height="69.657" x="734.688" y="807.923" fill="#ffde6f" rx=".7" transform="rotate(180 739.53 842.751)"/><path fill="#3c89d9" d="M863.94115,814.91125H922.165a3.5244,3.5244,0,0,1,3.5244,3.5244v6.00673a3.5235,3.5235,0,0,1-3.5235,3.5235H863.94115a3.5235,3.5235,0,0,1-3.5235-3.5235v-6.00763A3.5235,3.5235,0,0,1,863.94115,814.91125Z" transform="rotate(180 893.054 821.439)"/><path fill="#3c89d9" d="M863.94115,814.91125H922.165a3.5244,3.5244,0,0,1,3.5244,3.5244v6.00673a3.5235,3.5235,0,0,1-3.5235,3.5235H863.94115a3.5235,3.5235,0,0,1-3.5235-3.5235v-6.00763A3.5235,3.5235,0,0,1,863.94115,814.91125Z" transform="rotate(180 893.054 821.439)"/><rect width="37.721" height="4.581" x="874.192" y="819.147" fill="#2d6fab" transform="rotate(180 893.053 821.438)"/><rect width="29.001" height="14.951" x="816.032" y="813.614" fill="#2d6fab" transform="rotate(180 830.532 821.089)"/><rect width="29" height="14.951" x="774.158" y="813.614" fill="#2d6fab" transform="rotate(180 788.658 821.089)"/><rect width="42.606" height="14.949" x="753.848" y="838.022" fill="#2d6fab" transform="rotate(180 775.152 845.497)"/><rect width="36.118" height="5.493" x="757.092" y="842.751" fill="#3c89d9" transform="rotate(180 775.152 845.497)"/><rect width="42.606" height="14.951" x="753.848" y="860.914" fill="#2d6fab" transform="rotate(180 775.152 868.39)"/><rect width="36.118" height="5.491" x="757.092" y="865.645" fill="#3c89d9" transform="rotate(180 775.152 868.39)"/><path fill="#3c89d9" d="M863.94115,836.22385h58.22371a3.5245,3.5245,0,0,1,3.5245,3.5245v6.00573a3.5244,3.5244,0,0,1-3.5244,3.5244H863.94115a3.5235,3.5235,0,0,1-3.5235-3.5235v-6.00763A3.5235,3.5235,0,0,1,863.94115,836.22385Z" transform="rotate(180 893.054 842.751)"/><path fill="#3c89d9" d="M863.94015,857.53791h58.22571a3.5235,3.5235,0,0,1,3.5235,3.5235v6.00718a3.5225,3.5225,0,0,1-3.5225,3.5225H863.94115a3.5235,3.5235,0,0,1-3.5235-3.5235v-6.00718A3.5225,3.5225,0,0,1,863.94015,857.53791Z" transform="rotate(180 893.054 864.064)"/><rect width="37.721" height="4.579" x="874.192" y="840.461" fill="#2d6fab" transform="rotate(180 893.053 842.751)"/><rect width="37.721" height="4.581" x="874.192" y="861.774" fill="#2d6fab" transform="rotate(180 893.053 864.064)"/><path fill="#ffde6f" d="M844.04973,846.68633a4.60895,4.60895,0,1,0-4.60444,4.81085A4.71227,4.71227,0,0,0,844.04973,846.68633Z"/><path fill="#a0e0ff" d="M828.718,846.68633a4.60895,4.60895,0,1,0-4.603,4.81085A4.70992,4.70992,0,0,0,828.718,846.68633Z"/><ellipse cx="808.785" cy="846.686" fill="#ffde6f" rx="4.605" ry="4.811"/><path fill="#a0e0ff" d="M764.72361,821.08888a6.12377,6.12377,0,1,0-6.11959,6.39195A6.25882,6.25882,0,0,0,764.72361,821.08888Z"/><path fill="#a0e0ff" d="M844.04973,865.13458a4.609,4.609,0,1,0-4.60444,4.8123A4.71216,4.71216,0,0,0,844.04973,865.13458Z"/><path fill="#ffde6f" d="M828.718,865.13458a4.609,4.609,0,1,0-4.603,4.8123A4.70982,4.70982,0,0,0,828.718,865.13458Z"/><path fill="#a0e0ff" d="M813.38956,865.13458a4.60909,4.60909,0,1,0-4.60461,4.8123A4.71219,4.71219,0,0,0,813.38956,865.13458Z"/><rect width="245.194" height="27.687" x="706.869" y="983.481" fill="#a0e0ff" transform="rotate(180 829.466 997.325)"/><rect width="220.244" height="85.124" x="723.503" y="898.357" fill="#3c89d9" transform="rotate(180 833.625 940.92)"/><path fill="#2d6fab" d="M856.05937,906.0905h74.9414a2,2,0,0,1,2,2v65.65834a1.999,1.999,0,0,1-1.999,1.999h-74.9423a1.9991,1.9991,0,0,1-1.9991-1.9991V908.0895A1.999,1.999,0,0,1,856.05937,906.0905Z" transform="rotate(180 893.53 940.92)"/><rect width="9.683" height="69.657" x="734.688" y="906.091" fill="#ffde6f" rx=".7" transform="rotate(180 739.53 940.92)"/><path fill="#3c89d9" d="M863.941,913.07763h58.22381a3.5245,3.5245,0,0,1,3.5245,3.5245v6.00663a3.5235,3.5235,0,0,1-3.5235,3.5235H863.94115a3.5235,3.5235,0,0,1-3.5235-3.5235V916.601A3.5234,3.5234,0,0,1,863.941,913.07763Z" transform="rotate(180 893.054 919.605)"/><path fill="#3c89d9" d="M863.941,913.07763h58.22381a3.5245,3.5245,0,0,1,3.5245,3.5245v6.00663a3.5235,3.5235,0,0,1-3.5235,3.5235H863.94115a3.5235,3.5235,0,0,1-3.5235-3.5235V916.601A3.5234,3.5234,0,0,1,863.941,913.07763Z" transform="rotate(180 893.054 919.605)"/><rect width="37.721" height="4.581" x="874.192" y="917.314" fill="#2d6fab" transform="rotate(180 893.053 919.604)"/><rect width="29.001" height="14.949" x="816.032" y="911.782" fill="#2d6fab" transform="rotate(180 830.532 919.256)"/><rect width="29" height="14.949" x="774.158" y="911.782" fill="#2d6fab" transform="rotate(180 788.658 919.256)"/><rect width="42.606" height="14.951" x="753.848" y="936.19" fill="#2d6fab" transform="rotate(180 775.151 943.665)"/><rect width="36.118" height="5.493" x="757.092" y="940.918" fill="#3c89d9" transform="rotate(180 775.151 943.664)"/><rect width="42.606" height="14.949" x="753.848" y="959.084" fill="#2d6fab" transform="rotate(180 775.151 966.558)"/><rect width="36.118" height="5.493" x="757.092" y="963.811" fill="#3c89d9" transform="rotate(180 775.151 966.558)"/><path fill="#3c89d9" d="M863.94115,934.39023h58.22371a3.5245,3.5245,0,0,1,3.5245,3.5245V943.922a3.5245,3.5245,0,0,1-3.5245,3.5245H863.94115a3.5235,3.5235,0,0,1-3.5235-3.5235v-6.00925A3.5235,3.5235,0,0,1,863.94115,934.39023Z" transform="rotate(180 893.054 940.918)"/><path fill="#3c89d9" d="M863.942,955.70445H922.165a3.5244,3.5244,0,0,1,3.5244,3.5244v6.00845a3.5234,3.5234,0,0,1-3.5234,3.5234H863.94115a3.5235,3.5235,0,0,1-3.5235-3.5235v-6.00835A3.5244,3.5244,0,0,1,863.942,955.70445Z" transform="rotate(180 893.054 962.233)"/><rect width="37.721" height="4.583" x="874.192" y="938.628" fill="#2d6fab" transform="rotate(180 893.053 940.92)"/><rect width="37.721" height="4.579" x="874.192" y="959.942" fill="#2d6fab" transform="rotate(180 893.053 962.232)"/><path fill="#ffde6f" d="M844.04973,944.85448a4.60888,4.60888,0,1,0-4.60444,4.80924A4.71113,4.71113,0,0,0,844.04973,944.85448Z"/><path fill="#a0e0ff" d="M828.718,944.85448a4.60888,4.60888,0,1,0-4.603,4.80924A4.70879,4.70879,0,0,0,828.718,944.85448Z"/><path fill="#ffde6f" d="M813.38956,944.85448a4.609,4.609,0,1,0-4.60461,4.80924A4.71116,4.71116,0,0,0,813.38956,944.85448Z"/><path fill="#a0e0ff" d="M764.72361,919.25688a6.1237,6.1237,0,1,0-6.11959,6.39033A6.2601,6.2601,0,0,0,764.72361,919.25688Z"/><path fill="#a0e0ff" d="M844.04973,963.30258a4.60895,4.60895,0,1,0-4.60444,4.81085A4.70982,4.70982,0,0,0,844.04973,963.30258Z"/><path fill="#ffde6f" d="M828.718,963.30258a4.60895,4.60895,0,1,0-4.603,4.81085A4.70747,4.70747,0,0,0,828.718,963.30258Z"/><path fill="#a0e0ff" d="M813.38956,963.30258a4.609,4.609,0,1,0-4.60461,4.81085A4.70985,4.70985,0,0,0,813.38956,963.30258Z"/><path d="M669.45,842.7527c3.22508,6.96665,5.36976,55.87513-2.16064,55.34283-7.51459-.5323-23.10784-18.27023-27.94546,0s-36.0883,111.555-36.0883,111.555a39.41125,39.41125,0,0,1-6.2078,1.51643h-3.09591v-441.916l8.96507-54.40739s-4.53059-8.19186-8.96507-16.52853V425.97584l6.14313-11.594h0c21.081,1.77863,34.0507,23.44874,26.21327,43.09914a34.44731,34.44731,0,0,0-2.54168,10.76031c-1.08024,17.57652,7.73986,19.189,18.65756,26.71945,10.90044,7.5304,35.08853,43.94169,36.153,89.15729,1.08024,45.21576-10.3209,53.18073-15.642,66.93617S633.3457,824.8698,636.48886,836.2553C639.65105,847.65482,666.22488,835.78766,669.45,842.7527Z" opacity=".15"/><path fill="#ff8580" d="M639.41949,857.18057c2.16209-4.677,16.8041-8.33683,16.8041-8.33683l.08821,43.44261s-4.07392-10.16657-8.55565-20.16C642.63037,860.7001,637.72358,860.84491,639.41949,857.18057Z"/><rect width="43.443" height="3.89" x="636.491" y="868.616" fill="#4d4d4d" transform="rotate(-90.116 658.213 870.561)"/><path fill="#381907" d="M645.66807,848.94453l-2.548,17.70648s-135.1619,13.90025-166.60641,3.90219c-11.96649-2.99981-13.69078-17.09227-13.8688-23.12349a48.60552,48.60552,0,0,0-.4362-5.06289c-2.56361-19.10956,7.74148-105.15351,46.61883-152.32028,0,0,12.15855,2.20773,24.63992,3.99829,12.513,1.77315,25.3488,3.14477,26.6227,1.45193,0,0-7.36817,41.52288-2.3385,56.85764,5.27381,16.12539-40.441,76.22392-41.79686,77.99868-.0158.0158-.0158.03161-.03144.03161l.37153.40313.6126.129Z"/><path fill="#23100f" d="M516.29487,830.78782l.04725.0645c-.274,3.59677-4.45013,11.43258-9.61058,12.53024-11.93343,3.918-19.96936,4.04715-21.38823,1.49918-6.3226-11.4658,45.48021-54.14923,50.721-112.9266l19.99451,8.64385a45.3692,45.3692,0,0,0,1.69285,11.75541c5.27381,16.12539-40.441,76.22392-41.79686,77.99868-.0158.0158-.0158.03161-.03144.03161Z"/><path fill="#23100f" d="M516.3405,830.846c-3.118,4.23921-6.33034,8.40278-9.60589,12.53024,44.67717,3.54,138.93346,5.56519,138.93346,5.56519Z"/><path fill="#ff8580" d="M586.25762,988.93163c4.67233,2.17306,8.30216,16.823,8.30216,16.823H551.11717s10.17447-4.055,20.17722-8.5163C582.73019,992.13623,582.59635,987.22927,586.25762,988.93163Z"/><rect width="43.443" height="3.89" x="551.117" y="1005.755" fill="#4d4d4d"/><path fill="#381907" d="M625.42474,677.61709s-5.30848,187.58828-34.04441,317.28432H575.625L550.03225,677.61709Z"/><path fill="#23100f" d="M506.46225,697.89976s95.77128-7.732,95.77128,21.58981c0,29.32321-15.41217,275.41184-15.41217,275.41184h4.559s38.81592-214.80005,34.04441-317.28432H509.63847Z"/><polygon fill="#23100f" points="573.923 729.346 550.631 737.057 524.713 723.707 549.432 751.525 573.923 729.346"/><polygon fill="#ffa59c" points="411.589 623.844 438.162 628.405 445.633 605.232 420.259 599.905 411.589 623.844"/><path fill="#3c89d9" d="M576.5274,538.44577s3.77463,66.618-40.24575,105.55826C515.57842,662.32151,425.114,633.13052,425.114,633.13052l3.75108-35.3862s72.19419,7.532,74.94211,5.76369c7.39027-4.74957,10.154-82.37027,35.18448-100.75305C549.42916,495.09072,571.87716,515.49627,576.5274,538.44577Z"/><path fill="#2d6fab" d="M533.59193,526.04389s-7.691,77.04986-12.41687,97.76406c-4.28178,18.77253-96.06105,9.32257-96.06105,9.32257s80.56874,28.71384,107.45751,13.46244c26.88715-15.25139,39.48672-73.00674,39.48672-73.00674Z"/><path fill="#3c89d9" d="M580.61373,491.46718c-24.81165-.933-42.07082,8.05093-47.56039,22.44091-28.758,75.40507-34.56252,176.54626-34.56252,176.54626s88.32425,6.83442,134.5651-2.18886c0,0,13.93653-131.32906-1.69284-169.16777C620.64856,493.15761,598.4052,492.13558,580.61373,491.46718Z"/><path fill="#ffa59c" d="M547.34576,463.3595c.496,1.25746.9543,2.43784,1.29761,3.54323a61.25431,61.25431,0,0,1,2.1321,8.87913,67.23851,67.23851,0,0,1,.99058,8.19266,76.17057,76.17057,0,0,1-.304,14.13649c23.16767,11.43274,48.27861-4.30532,48.27861-4.30532a76.14179,76.14179,0,0,1-2.66617-11.1649,171.55813,171.55813,0,0,1-2.096-18.634,1.439,1.439,0,0,1-.03773-.38023,1.57063,1.57063,0,0,1-.03935-.267Z"/><path fill="#c48b86" d="M547.34576,463.3595c.496,1.25746.9543,2.43784,1.29761,3.54323a36.63432,36.63432,0,0,1,2.1321,8.87913,67.23851,67.23851,0,0,1,.99058,8.19266c11.01219,4.83923,23.43536,6.78331,32.46654,4.83923a30.7318,30.7318,0,0,0,12.84194-6.173,171.55813,171.55813,0,0,1-2.096-18.634,1.439,1.439,0,0,1-.03773-.38023,1.57063,1.57063,0,0,1-.03935-.267Z"/><path fill="#fff" d="M606.575,489.16174a83.04616,83.04616,0,0,1-43.00932,12.73809s4.35885,8.85961,5.5352,15.16174C569.10085,517.06157,601.02557,508.061,606.575,489.16174Z"/><path fill="#fff" d="M554.37546,497.25281s1.8928,3.19751,9.19019,4.647l-11.75074,10.60986s-.16544-12.79324.00629-14.6246C551.99116,496.05212,554.37546,497.25281,554.37546,497.25281Z"/><path fill="#2d6fab" d="M613.01255,572.78931s6.79185,13.47518-6.43758,31.9265c-15.72855,21.933-53.894,80.32766-108.08415,85.73854,0,0,89.19825,8.3178,134.5651-2.18886,0,0,8.17461-93.6832,5.72113-126.13088C637.89515,550.48386,613.01255,572.78931,613.01255,572.78931Z"/><path fill="#ffa59c" d="M602.22869,454.33476s-6.34615,19.68894-15.33638,24.67927c-8.99022,4.99129-39.46624,6.78959-46.614-4.87858-8.606-14.04586-3.49437-66.27068-.98106-71.42726,2.5133-5.15641,46.12426-24.29354,60.93156-3.2125C615.03451,420.5769,602.22869,454.33476,602.22869,454.33476Z"/><path fill="#3c1e01" d="M528.00464,377.00045c9.27065-10.30977,33.972-9.71539,56.82475-6.95327,18.81979,2.27562,31.2602,24.9047,31.002,25.90625,4.70538,1.54,8.4139,13.23717,6.84538,21.48418-5.87851,30.90206-21.58028,36.31051-24.533,35.48215-13.68917-3.83365-14.8781-29.33983-7.2911-48.89735-12.075-1.17005-22.26368-2.90789-35.41281.1748-5.76676,1.35115-23.18815,3.188-29.05715-.3504C517.66811,398.59267,522.89628,382.67981,528.00464,377.00045Z"/><path fill="#ffa59c" d="M600.73274,440.684c3.01093-3.08494,15.7537-6.75476,17.349-1.65978,2.55265,8.15251-7.2927,23.87477-19.0465,17.49621C594.75022,454.19528,598.12494,443.35789,600.73274,440.684Z"/><path fill="#c48b86" d="M602.97836,445.87522s9.33821-6.12426,10.22011-3.35037c1.71961,5.41329-5.96833,9.88228-8.17138,10.66743,0,0,4.29435-4.70862,3.18573-6.73284C607.10565,444.43506,602.97836,445.87522,602.97836,445.87522Z"/><path fill="#23100f" d="M520.30106,375.81475c1.296-2.477,5.04225-.2859,3.74948,2.19047a18.4851,18.4851,0,0,0-2.04406,10.93576,20.34267,20.34267,0,0,1,1.19683-3.09753s2.055,19.34338,16.094,16.86474c14.03876-2.47944,40.05353-7.73583,51.55545,1.31422,0,0-21.0338-2.18579-27.39736-1.18747-6.13362.96462-28.44148,7.05889-37.16871,1.49531a2.178,2.178,0,0,1-.93688-.48425A22.58334,22.58334,0,0,1,520.30106,375.81475Z"/><path fill="#23100f" d="M611.71187,383.99161c-.87561-2.65972,3.3149-3.79994,4.18728-1.15425a20.36627,20.36627,0,0,1,.64711,10.32235,112.39939,112.39939,0,0,1,11.45484.91818c2.75566.37233,1.58415,4.55574-1.15281,4.18566a100.99863,100.99863,0,0,0-13.04205-.87238,2.19062,2.19062,0,0,1-2.09437-2.74712A16.43518,16.43518,0,0,0,611.71187,383.99161Z"/><path fill="#ffa59c" d="M385.78,625.48354c1.822,2.099,3.74157,2.433,5.60615,1.79362a4.90762,4.90762,0,0,0,1.05186,3.32893c1.80943,2.2582,3.92121,2.28029,6.01235,1.23778a3.94827,3.94827,0,0,0,2.41574,3.70062,5.35939,5.35939,0,0,0,4.96985.15126,3.305,3.305,0,0,0,3.64869,3.53533c5.91012-1.02526,9.45642-8.78705,11.40743-13.82946,2.10388-5.42507,3.19686-11.77444-1.27713-16.32857-6.57449-6.69107-18.55985-5.22495-25.09353,1.00622-.04564.03467-.09127.02532-.13384.06305C390.86964,613.14858,381.16764,620.16554,385.78,625.48354Z"/><path fill="#ffa59c" d="M397.94966,600.31116c4.66749-1.08815,17.77889-1.48015,22.97239-.26607,2.38414.55745-.52762,4.86745-2.76679,7.05792-2.62667,2.56845-8.56355,4.80311-12.16177,4.32112-1.98423-.26446-4.11021-3.39988-6.11475-3.05028-2.62828.45828-4.3495,3.42665-5.61873,5.52746-2.181,3.60612-8.65789,2.38253-7.07373-1.43935C389.00345,608.0715,392.94821,601.47815,397.94966,600.31116Z"/><path fill="#161228" d="M553.02109,468.23727c-.337,0-.68033-.01564-1.02993-.04951-3.57306-.34959-6.81072-2.49685-9.628-6.384a.97647.97647,0,1,1,1.58109-1.14635c2.46928,3.40681,5.23446,5.28558,8.21863,5.5847,4.42029.45281,7.92095-2.7447,7.954-2.77695a.97689.97689,0,0,1,1.32905,1.4321A13.51263,13.51263,0,0,1,553.02109,468.23727Z"/><path fill="#161228" d="M547.32835,431.92692c-.44716,2.29126-2.26917,3.932-4.17309,3.67546-1.96843-.27171-3.24863-2.49218-2.781-4.96517.46941-2.47476,2.49137-4.111,4.43771-3.65111C546.68591,427.42471,547.771,429.63324,547.32835,431.92692Z"/><path fill="#161228" d="M572.0755,435.23859c-.49441,2.54556-2.52266,4.36982-4.63605,4.08408-2.18886-.30155-3.6108-2.77-3.08963-5.518.51973-2.75035,2.7668-4.56832,4.9305-4.05731C571.36372,430.23472,572.56845,432.6882,572.0755,435.23859Z"/><path fill="#161228" d="M552.87145,452.6158a8.99565,8.99565,0,0,1-4.72264-.98656,2.09179,2.09179,0,0,1-.96059-1.67784c-.0566-1.75106,1.01573-6.50063,5.48166-11.94295a.97713.97713,0,0,1,1.51031,1.2402c-3.77319,4.59751-5.09434,8.96653-5.0408,10.6397.00161.03467.07079.09852.14013.14722,1.19054.845,5.373.67727,6.2581.39846a.97681.97681,0,1,1,.58567,1.86377A13.7746,13.7746,0,0,1,552.87145,452.6158Z"/><path fill="#161228" d="M580.43264,425.94521a1.94529,1.94529,0,0,1-1.33066-.5236,15.30828,15.30828,0,0,0-13.6058-3.65336,1.95372,1.95372,0,0,1-1.00929-3.7748,19.27566,19.27566,0,0,1,17.27642,4.56913,1.95238,1.95238,0,0,1-1.33067,3.38263Z"/><path fill="#161228" d="M536.98391,421.43042a1.95349,1.95349,0,0,1-1.24714-3.4589c7.36027-6.08653,15.81353-2.61183,16.1678-2.46218a1.95347,1.95347,0,0,1-1.51643,3.60064h0c-.27091-.111-6.6643-2.67634-12.16016,1.87231A1.94846,1.94846,0,0,1,536.98391,421.43042Z"/><rect width="150.661" height="6.598" x="368.977" y="623.047" fill="#b0b0b0" transform="rotate(180 444.308 626.346)"/><polygon fill="#fff" points="519.638 629.645 587.728 619.129 587.728 612.534 519.638 623.047 519.638 629.645"/><polygon fill="#b0b0b0" points="587.728 612.534 416.768 607.525 368.977 623.047 519.638 623.047 587.728 612.534"/><path fill="#b0b0b0" d="M373.22459,623.04731H523.28684L503.53,530.65543a5.657,5.657,0,0,0-5.43281-4.61154H362.954c-5.36347,0-9.33966,5.29816-8.14929,10.86094Z"/><path fill="#fff" d="M369.5759,623.04731H519.63815l-19.75522-92.39188a5.65706,5.65706,0,0,0-5.433-4.61154H356.45983c-3.90541,0-6.79975,3.85881-5.93366,7.90919Z"/><path fill="#ffa59c" d="M406.86587,638.01055a4.14113,4.14113,0,0,1-.58422-2.16839c-.56536.61422-1.11814,1.19683-1.61883,1.67076-1.54336,1.45822-5.12433,1.15909-6.00461-.30542a1.71339,1.71339,0,0,1-.13223-.84255c-.14481.14174-.29445.32283-.43619.45828-1.71639,1.62044-5.70372,1.28971-6.68317-.33863a2.03765,2.03765,0,0,1-.09772-.37475c-1.84878,1.3197-5.38879.99993-6.31309-.537-1.49289-2.477-.39846-4.66749.79675-7.34141a97.95314,97.95314,0,0,1,4.80618-9.2879c1.49127-2.562,5.6155-2.83758,7.532-1.6a3.377,3.377,0,0,1,.72758.537c.55584-1.02832,1.00929-2.07857,1.60464-3.099,1.48966-2.55894,5.61389-2.83614,7.52878-1.59835a2.5203,2.5203,0,0,1,1.66463,2.214,5.42566,5.42566,0,0,1,6.10684-.7937,2.24933,2.24933,0,0,1,1.53224,2.1055,12.558,12.558,0,0,1-1.15442,4.36208,4.81976,4.81976,0,0,1,2.52282.56519,2.25671,2.25671,0,0,1,1.53223,2.10388c-.05047,5.30687-2.68487,10.19173-7.32576,14.57268C411.32873,639.77112,407.74615,639.472,406.86587,638.01055Z"/><path fill="#c48b86" d="M398.85832,617.88058s-4.48963,10.99816-6.57464,14.34127c0,0,5.87383-13.7098,5.84706-14.87825Z"/><path fill="#c48b86" d="M409.65637,615.39727s-3.88025,8.56032-6.2881,12.62472c0,0,6.83926-11.30664,7.58877-13.50178Z"/><polygon fill="#ffa59c" points="557.361 557.974 579.253 565.382 568.101 584.121 547.623 571.019 557.361 557.974"/><path fill="#ffa59c" d="M558.48712,559.15674c-8.83914-11.39243-36.53256,10.79966-42.22063,18.04673a2.696,2.696,0,0,0,1.86925,4.29419c-.39829.50392-.82513.98591-1.2094,1.49773-1.89119,2.51959,1.663,5.987,3.5779,3.42971.12594-.16529.274-.31026.40152-.47554a2.73153,2.73153,0,0,0,3.98572-.39685c.52746-.72128,1.14167-1.36066,1.6959-2.05824.63776,1.25826,2.04406.32912,3.3149-.68807,4.89906-3.9117,7.7855-7.10372,12.51443-10.43426,5.19673-.56229,11.59013-1.21569,15.49247-4.5164C560.561,565.61173,561.58771,561.42123,558.48712,559.15674Z"/><path fill="#f5dd98" d="M648.73883,528.05167c-26.80523-21.63157-48.09269-32.05873-51.14135-19.26936-2.43461,10.209,9.99177,99.92856,4.93985,107.49685,16.64673,5.899,31.4966,15.04354,45.01419,25.81321C674.29855,589.93527,648.73883,528.05167,648.73883,528.05167Z"/><path fill="#3c89d9" d="M647.51846,641.13484c.01887.19222.01887.3733.03774.567a1.48113,1.48113,0,0,0-.263.08192l-.11175.02048c-26.76589,6.98084-94.58557-59.27662-94.58557-59.27662l19.11745-30.00048s12.76809,8.09575,26.95811,16.86248a.57035.57035,0,0,0,.07079.03612q1.30857.81489,2.6157,1.63c9.7965,6.03913,19.93792,12.17742,26.75331,16.0309,1.35583.76531,2.57942,1.4408,3.65031,1.99665-.01258.019.00306.0158.00306.0158a18.10646,18.10646,0,0,0,4.414,1.95262C642.99884,607.13768,646.30422,624.07418,647.51846,641.13484Z"/><path fill="#3c89d9" d="M647.51846,641.13484c-.10868.21576-.22994.452-.337.66937-13.53968-10.75709-28.43051-19.85278-45.11013-25.69678a.12138.12138,0,0,1,.0566-.044c2.32592-3.203,1.0804-23.09526-.77-45.00774-.011-.063-.011-.145-.02209-.20946-.45038-5.34476-.94011-10.813-1.42516-16.168-1.92586-21.61963-3.74158-41.66849-2.68021-46.19521,3.04238-12.78211,41.39372-19.55123,51.13523,19.26629C648.36569,527.74931,673.719,589.10691,647.51846,641.13484Z"/><path fill="#2d6fab" d="M648.73883,528.05167c7.08631,30.6492-1.60157,81.69074-8.14929,100.96558-18.297-8.4139-87.96062-46.01412-87.96062-46.01412s67.99916,66.42435,94.69427,59.24517c.08965-.02371.25816-.16545.2551-.20947C674.27968,589.8927,648.73883,528.05167,648.73883,528.05167Z"/><path fill="#2d6fab" d="M633.311,590.89425c-1.55417-1.22037-3.31635-2.50073-5.1998-3.80769-9.27516-6.414-21.47789-13.31925-26.7754-16.24036-.45038-5.34476-.94011-10.813-1.42516-16.168,11.36033,11.11137,26.88247,28.74851,31.85087,34.405-.01258.019.00306.0158.00306.0158C632.66537,590.14458,633.20557,590.7667,633.311,590.89425Z"/><path fill="#8c8226" d="M312.63618,801.02825a23.79441,23.79441,0,0,0,13.52711-4.46125,115.56607,115.56607,0,0,1-2.011,24.85261c-5.31477,8.56823-20.06225,24.32822-19.06537,24.23695a47.76317,47.76317,0,0,0,11.83571-2.75744,88.09831,88.09831,0,0,1-9.01683,14.74119c-7.15258,9.54139-17.34593,17.171-21.21973,28.81623a.72951.72951,0,0,1-.4457.50876.843.843,0,0,1-1.39679.61728c-19.245-18.27184-22.68423-46.03138-25.50924-71.062-.13545-1.18731-.26784-2.35431-.378-3.5463,5.329,5.33057,11.00107,10.20593,17.73793,13.8451.93221.50876-12.05-20.26542-18.40568-29.83665a56.16971,56.16971,0,0,1,3.31329-17.77421c4.50382-12.06727,12.22482-23.35811,19.72054-33.74835.30074-.42667.65034-.83932.95108-1.266a57.63891,57.63891,0,0,0,8.28168,15.001c.61728.80465-1.36373-15.19157-2.58265-22.49525,1.88184-2.33689,3.76367-4.67072,5.71952-6.92892,2.56845-3.025,5.7337-8.154,10.34137-7.47057,4.47222.63309,14.65927,18.94266,15.9506,24.1818.55906,2.23466,1.05814,4.52108,1.51336,6.81072.22044.98268.39991,1.99213.57794,2.97788a275.757,275.757,0,0,1,3.42971,27.87306c-.31654.4944-.63309.989-.99526,1.46757C320.77144,790.69639,311.7151,801.022,312.63618,801.02825Z"/><path fill="#786f20" d="M295.09675,791.80808c9.49415-1.43452,16.749-7.43123,23.72513-13.62161,1.03767-.92269-.252-2.67536-1.30229-1.74315-6.53207,5.79821-13.33973,11.59174-22.1945,13.10027,2.02035-14.13649,4.373-28.22734,7.14774-42.24563.27252-1.3763-1.87861-1.71025-2.14952-.34024q-5.51561,27.87313-9.0028,56.05315a93.1521,93.1521,0,0,1-12.56813-25.259c-.42829-1.33228-2.44558-.51956-2.01874.8095a95.09124,95.09124,0,0,0,13.48454,26.67607.96853.96853,0,0,0,.7874.42991q-.74886,6.158-1.39533,12.33028a58.52542,58.52542,0,0,1-9.32709-16.32213c-.48666-1.31018-2.50863-.50391-2.02051.80934a60.40517,60.40517,0,0,0,10.60277,18.097,1.07836,1.07836,0,0,0,.44732.3117q-2.08817,20.30495-3.16058,40.701a1.07,1.07,0,0,0-.12917.466q-.43442,7.469-.51956,14.91131c-.10562,3.24088-.1985,6.4816-.26139,9.72555a.85748.85748,0,0,0,.31171.73386c.56068,30.63034,5.099,60.9285,11.54449,90.90851.70226-.17158,1.40936-.32912,2.11323-.496-7.28-33.87912-12.12226-68.16445-11.48773-102.88757q.19374-5.49433.463-10.987a1.01736,1.01736,0,0,0,.96381-.12288,36.18266,36.18266,0,0,0,9.9476-10.17754c.75757-1.16377-.93689-2.53055-1.70075-1.35582a34.5838,34.5838,0,0,1-9.10359,9.45158q1.81894-35.1153,6.71171-69.96114A.86443.86443,0,0,0,295.09675,791.80808Z"/><path fill="#c7b757" d="M219.60815,854.75225a23.63149,23.63149,0,0,1-12.79485,1.09443,82.41429,82.41429,0,0,0,8.9304,18.0119c7.00616,4.68959,24.12359,11.68462,23.24959,11.94456a48.32029,48.32029,0,0,1-10.86416,1.81717,70.1913,70.1913,0,0,0,11.94924,8.11317c8.85477,4.81714,19.73619,7.198,26.41162,14.67491a.62233.62233,0,0,0,.52585.23624.78577.78577,0,0,0,1.36694.00484c11.05154-20.056,5.90835-42.04583,1.03622-61.78041-.22995-.937-.45667-1.85668-.70871-2.78888a69.89356,69.89356,0,0,1-11.05476,16.23552c-.6455.68662,4.35418-19.18986,6.97455-28.4697a40.64576,40.64576,0,0,0-7.97916-12.26739c-7.33673-7.58393-17.18048-13.52856-26.57223-18.87171-.381-.222-.7953-.41732-1.17635-.63937a45.1376,45.1376,0,0,1-2.68181,13.99329c-.28977.80773-3.25346-11.861-4.34-17.75066-2.27868-1.13684-4.55574-2.27223-6.87538-3.32587-3.06286-1.42822-7.24385-4.24065-10.96172-2.214-3.61725,1.94794-6.95569,19.05279-6.53207,23.41326.1748,1.86458.41571,3.74641.69291,5.61551.09756.8111.2393,1.62672.37475,2.42671a197.16037,197.16037,0,0,0,5.184,22.07017c.41265.26768.8253.53537,1.27084.77789C209.68878,849.6642,220.38765,854.44361,219.60815,854.75225Z"/><path fill="#8c8226" d="M284.33967,982.8688c-3.233-24.64475-8.18074-48.90057-16.60255-72.1013a.66149.66149,0,0,0,.05193-.65356q-1.49506-3.62337-3.04867-7.22014-2.24175-5.56278-4.77457-11.03428a.80614.80614,0,0,0-.24575-.307q-6.83119-14.97122-14.51446-29.5422a.9751.9751,0,0,0,.28977-.38121,47.71987,47.71987,0,0,0,3.75432-17.08114c.03305-1.14958-1.91812-1.09137-1.95279.05354a46.03971,46.03971,0,0,1-3.18573,15.3317q-2.35036-4.42184-4.76828-8.80608a.91543.91543,0,0,0,.54488-.58261,73.65253,73.65253,0,0,0,3.71158-24.47625c-.02516-1.13845-1.97472-1.08653-1.95263.05515A71.93712,71.93712,0,0,1,238.302,849.2343q-11.173-19.99992-23.93928-39.156c-.62985-.94011-2.359.01726-1.72912.96221q9.64693,14.43012,18.35215,29.39255c-7.96514,1.778-15.43571-.33847-22.67327-2.548-1.16361-.35427-1.75106,1.38743-.59987,1.737,7.72729,2.359,15.63873,4.48011,24.125,2.43606.03-.00629.04886-.02516.07724-.03306q14.26008,24.55429,26.03364,50.36041a29.83519,29.83519,0,0,1-10.48473-4.10859c-.99042-.63292-2.03454.95123-1.05186,1.57642a31.20447,31.20447,0,0,0,11.41371,4.3761,1.02778,1.02778,0,0,0,.85513-.22511q1.82353,4.03675,3.584,8.099c10.62954,25.88238,16.47822,53.23572,20.13481,81.08669C283.04528,983.08456,283.69078,982.96959,284.33967,982.8688Z"/><path fill="#8c8226" d="M215.12336,828.41142a49.84576,49.84576,0,0,1-16.91908-6.61237c.09756.8111.2393,1.62672.37475,2.42671a52.25581,52.25581,0,0,0,15.93334,5.91947C215.73113,830.37356,216.32325,828.6446,215.12336,828.41142Z"/><path fill="#c7b757" d="M398.68659,844.71484c-.115,7.83113-18.22444,11.62318-23.9754,13.74915-12.72406,4.71152-25.14867,9.46577-34.56251,19.70636-11.091,12.07356-20.6576,26.00364-30.23044,39.31338a2.244,2.244,0,0,1-2.26126.9701,36.55677,36.55677,0,0,1-2.63457-5.72258c-3.29764-8.13042-8.34779-23.00867-7.09581-31.49176a51.29283,51.29283,0,0,1,5.77144-16.90811,15.18372,15.18372,0,0,0,3.62337,7.16048c.45667.463,1.43774-10.69581,2.0913-15.76015.83465-1.02832,1.685-2.02358,2.581-2.98723a56.07813,56.07813,0,0,1,6.69269-6.16361c.50859-.40781,1.01735-.81417,1.54013-1.19054a69.93257,69.93257,0,0,1,6.09733-4.047q.8316-.48908,1.707-.97639c1.96375-1.09282,4.00458-2.10388,6.088-3.01722a41.3507,41.3507,0,0,0,3.36214,11.16183c.35105.74322,1.20457-8.817,1.33067-13.04673,1.9652-.745,3.973-1.35905,6.01235-1.94166a32.05176,32.05176,0,0,0,2.49444,7.20918c.27865.54955,2.97142-5.92108,3.94459-8.76818a78.51433,78.51433,0,0,1,19.39772-1.518c.55439.02354,1.10862.04563,1.64576.09917,1.73847.11965,3.46115.31654,5.14625.57632,6.24069.9701,20.94092,4.92114,21.22747,13.35537A1.2009,1.2009,0,0,1,398.68659,844.71484Z"/><path fill="#8c8226" d="M329.01829,865.29358c-15.38363,15.18205-20.16142,43.07559-21.15039,50.99655a35.93071,35.93071,0,0,0-3.16686,10.30041c-1.83137,12.516-1.29278,25.725-.98107,38.33715.10239,4.14955.28671,8.29426.50714,12.43736q1.06766-.20076,2.13694-.39685c-.13707-2.61409-.25978-5.22979-.348-7.84694-.38427-11.291-.3733-22.61183.14481-33.898.26768-5.83287.80949-11.69558,3.07076-17.10323a2.42154,2.42154,0,0,0,.685-.63631c9.57284-13.30974,19.13955-27.23982,30.23043-39.31338,9.41385-10.24059,21.83862-14.99484,34.56252-19.70636,5.74935-2.126,23.86058-5.918,23.977-13.74915C374.55687,847.53049,346.72638,847.817,329.01829,865.29358Z"/><path fill="#8c8226" d="M328.35844,857.84349a50.18791,50.18791,0,0,1-.32751-17.47654q-.87633.48666-1.707.97639a51.4273,51.4273,0,0,0,.482,16.84813C327.001,859.19931,328.53952,858.83391,328.35844,857.84349Z"/><path fill="#8c8226" d="M322.47218,860.96456a66.15968,66.15968,0,0,1-2.24562-15.57423c-.52278.37637-1.03154.78273-1.54013,1.19054a67.25936,67.25936,0,0,0,2.233,14.74748C321.18086,862.30635,322.73358,861.9582,322.47218,860.96456Z"/><path fill="#ff8477" d="M348.21137,965.56707a56.35561,56.35561,0,0,1-23.35988,45.74789H258.58467a56.49794,56.49794,0,0,1-21.99293-58.06237,54.99211,54.99211,0,0,1,3.11026-9.743H343.73593a55.13261,55.13261,0,0,1,3.118,9.743A56.14612,56.14612,0,0,1,348.21137,965.56707Z"/><path fill="#cc6a5e" d="M348.21137,965.56707a56.35561,56.35561,0,0,1-23.35988,45.74789H258.58467c86.5811,4.299,85.15126-67.80533,85.15126-67.80533a55.13261,55.13261,0,0,1,3.118,9.743A56.14612,56.14612,0,0,1,348.21137,965.56707Z"/><path fill="#ff988d" d="M260.33105,943.50963H239.702a54.99211,54.99211,0,0,0-3.11026,9.743,56.43992,56.43992,0,0,0,21.99293,58.06237h9.17293C256.66511,1003.26178,251.49676,966.4788,260.33105,943.50963Z"/><path fill="#4d4d4d" d="M998.38746,1014.66291H125.46522a1.61254,1.61254,0,1,1,0-3.22507H998.38746a1.61254,1.61254,0,1,1,0,3.22507Z"/></svg>