<svg xmlns="http://www.w3.org/2000/svg" viewBox="0 0 512 512"><g data-name="14-Technician"><path fill="#bcc2c6" d="M136 80V56a32 32 0 0 0-32-32v48L80 96 56 72V24a32 32 0 0 0-32 32v23.165A57.091 57.091 0 0 0 56 130.5v98.9A56 56 0 0 0 24 280v24a32 32 0 0 0 32 32v-48l24-24 24 24v48a32 32 0 0 0 32-32v-23.165a57.09 57.09 0 0 0-32-51.335v-98.9A56 56 0 0 0 136 80Z"/><path fill="#7f8b8c" d="m344 272 97.13 26.98A64 64 0 0 1 488 360.65V488H120V360.65a64 64 0 0 1 46.87-61.67L264 272Z"/><path fill="#febf91" d="M336 231.98V272l-32 56-32-56v-40.02h64z"/><path fill="#feb17a" d="M336 231.98v35.36a63.616 63.616 0 0 1-24 4.66h-16a63.616 63.616 0 0 1-24-4.66v-35.36Z"/><path fill="#febf91" d="M376 120h8a24 24 0 0 1 0 48h-8zm-144 48h-8a24 24 0 0 1 0-48h8z"/><rect width="144" height="216" x="232" y="40" fill="#fecca8" rx="64"/><path fill="#414042" d="m304 328 48 16 8.347-67.459L344 272h-8l-32 56zM304 328l-48 16-9-67.459L263.347 272H272l32 56z"/><path fill="#3c2415" d="M296 328h16v48h-16z"/><path fill="#1e6db2" d="M216 104V88a64 64 0 0 1 64-64h48a64 64 0 0 1 64 64v16Z"/><path fill="#1554a1" d="M360 144H248a32 32 0 0 1-32-32v-8h176v8a32 32 0 0 1-32 32Z"/><path fill="#4d432d" d="M264 152h16v16h-16zM328 152h16v16h-16z"/><path fill="#8b5e3c" d="M320 224h-32v-16h28.687l5.656-5.657 11.314 11.314-8 8A8 8 0 0 1 320 224Z"/><path fill="#1e6db2" d="M184 376h240v112H184z"/><path fill="#1554a1" d="M384 272h24a16 16 0 0 1 16 16v120h-24a16 16 0 0 1-16-16V272zm-184 0h24v120a16 16 0 0 1-16 16h-24V288a16 16 0 0 1 16-16z"/><path fill="#414042" d="M232 432h144v56H232z"/><path fill="#7f8b8c" d="M280 72h48v32h-48z"/></g></svg>