<svg xmlns="http://www.w3.org/2000/svg" fill-rule="evenodd" clip-rule="evenodd" image-rendering="optimizeQuality" shape-rendering="geometricPrecision" text-rendering="geometricPrecision" viewBox="0 0 7342 7342"><path fill="#04599c" d="M4190 2989v3804c0 303-247 549-550 549H1062c-302 0-549-246-549-549V2989c0-119 33-221 102-318L1904 855c53-75 119-133 195-172v319c-60 62-96 147-96 240 0 193 156 349 348 349 193 0 349-156 349-349 0-93-36-178-96-240V683c76 39 142 97 195 172l1289 1816c69 97 102 199 102 318zm-1616 17c129 35 243 104 332 208 111 129 167 296 169 465 0 16 0 32-1 48v1l-444-17v-5c1-7 1-15 1-22-1-65-20-132-62-181-48-55-118-77-188-80-10 0-19-1-29-1-71 1-140 21-192 71-32 31-55 71-67 114-11 39-13 81-3 120 9 32 26 60 54 78l307 170 319 169 8 5c132 78 224 200 264 348 32 116 29 241-4 357-33 120-99 229-189 315-78 75-172 129-275 160v327h-445v-321c-130-35-244-105-332-208-111-129-167-296-169-465v-44l446-17-2 34v22c1 64 19 131 62 181 47 55 118 76 188 80h29c70-1 140-21 192-70 32-31 55-71 67-114 11-39 13-81 2-120-8-32-26-61-54-79l-316-168-3-1-311-172-4-3c-132-78-223-200-263-347-32-117-29-241 4-357 33-120 99-230 189-316 78-75 172-128 275-160v-326h445v321zM1548 6259h1607v328H1548v-328z"/><path fill="#333" d="m4825 1811 1929 3279c153 261 65 599-195 752L4511 7046c24-80 36-165 36-253V2989c0-193-55-368-167-525L3377 1050l1199 539c109 48 189 120 249 222z"/><rect width="308" height="1239" x="2197" fill="#333" rx="154" ry="154"/><path fill="none" d="M0 0h7342v7342H0z"/></svg>