<svg xmlns="http://www.w3.org/2000/svg" enable-background="new 0 0 512 512" viewBox="0 0 512 512"><path fill="#8ac9fe" fill-rule="evenodd" d="M249.676,494.699C137.428,471.597,56.366,380.76,56.366,264.54V101.557L256,16l199.634,85.557V264.54
			c0,116.22-81.062,207.057-193.311,230.158L256,496L249.676,494.699z" clip-rule="evenodd"/><path fill="#60b7ff" fill-rule="evenodd" d="M237.691,23.847L256,16l199.634,85.557V264.54c0,107.255-69.041,192.89-167.918,223.62
			c88.062-35.511,147.915-116.635,147.915-216.499V108.678L237.691,23.847z" clip-rule="evenodd"/><path fill="#eceff1" fill-rule="evenodd" d="M256,463.973c97.222-20.009,168.264-97.706,168.264-199.433V122.242L256,50.129L87.736,122.242V264.54
			C87.736,366.266,158.777,443.964,256,463.973z" clip-rule="evenodd"/><path fill="#d1d1d6" fill-rule="evenodd" d="M272.991,57.411L256,50.129L87.736,122.242V264.54c0,88.764,54.093,159.227,132.47,189.038
			c-69.094-33.064-115.478-99.563-115.478-181.756V129.524L272.991,57.411z" clip-rule="evenodd"/><path fill="#fe646f" fill-rule="evenodd" d="M321.942,260.302l-49.843,41.334l26.73,62.063c0.859,1.994,3.599,2.197,4.744,0.353l17.255-27.806
			l32.058,6.566c2.129,0.435,3.862-1.694,3.003-3.69L321.942,260.302z" clip-rule="evenodd"/><path fill="#fd4755" fill-rule="evenodd" d="M321.942,260.302l-6.59,5.465l31.594,73.354c0.371,0.861,0.259,1.747-0.159,2.441l6.1,1.249
			c2.129,0.435,3.862-1.693,3.003-3.69L321.942,260.302L321.942,260.302z M297.199,359.911l15.695-25.291l7.936,1.625
			l-17.255,27.806c-1.144,1.844-3.885,1.64-4.744-0.353L297.199,359.911z" clip-rule="evenodd"/><path fill="#fe646f" fill-rule="evenodd" d="M248.409,298.43l-35.837,76.974c-0.916,1.968-3.662,2.092-4.753,0.216l-16.442-28.294l-32.236,5.632
			c-2.141,0.374-3.812-1.805-2.894-3.776l35.445-76.132L248.409,298.43z" clip-rule="evenodd"/><path fill="#fd4755" fill-rule="evenodd" d="M248.409,298.43l-35.837,76.974c-0.916,1.968-3.661,2.092-4.752,0.215l-16.441-28.294l-32.237,5.633
			c-2.141,0.373-3.812-1.805-2.894-3.776l2.179-4.68l28.425-4.967l16.442,28.294c1.09,1.877,3.836,1.752,4.752-0.216l33.616-72.203
			L248.409,298.43z" clip-rule="evenodd"/><path fill="#ffe177" fill-rule="evenodd" d="M269.672,108.708c21.429,16.04,16.569,14.271,43.295,15.758c10.265,0.571,18.603,7.567,20.948,17.577
			c2.215,9.454,3.298,21.376,10.517,28.151l12.52,11.751c7.497,7.036,9.386,17.754,4.748,26.929
			c-12.075,23.889-11.178,18.796-8.001,45.374c1.22,10.208-4.221,19.634-13.673,23.682c-24.606,10.538-20.644,7.214-35.294,29.615
			c-5.627,8.604-15.854,12.327-25.696,9.352c-25.622-7.743-20.451-7.743-46.074,0c-9.842,2.974-20.069-0.748-25.696-9.352
			c-14.651-22.402-10.689-19.078-35.295-29.615c-9.451-4.048-14.893-13.473-13.673-23.682c3.177-26.578,4.075-21.485-8.001-45.374
			c-4.638-9.175-2.748-19.894,4.748-26.929c19.518-18.318,16.932-13.839,23.037-39.901c2.345-10.01,10.682-17.006,20.948-17.577
			c26.726-1.486,21.866,0.282,43.295-15.758C250.558,102.547,261.441,102.547,269.672,108.708z" clip-rule="evenodd"/><path fill="#ffd064" fill-rule="evenodd" d="M269.672,108.708c21.429,16.04,16.569,14.271,43.295,15.758c10.265,0.571,18.603,7.567,20.948,17.577
			c2.215,9.454,3.298,21.376,10.517,28.151l12.52,11.751c7.497,7.036,9.386,17.754,4.748,26.93
			c-12.075,23.888-11.177,18.795-8.001,45.374c1.22,10.208-4.222,19.634-13.673,23.682c-24.606,10.538-20.644,7.214-35.294,29.615
			c-5.462,8.351-15.256,12.103-24.826,9.598c5.242-1.408,9.914-4.717,13.106-9.598c14.651-22.402,10.689-19.078,35.295-29.615
			c9.451-4.048,14.893-13.473,13.672-23.682c-3.176-26.578-4.074-21.485,8.001-45.374c4.638-9.175,2.748-19.894-4.748-26.93
			l-12.52-11.751c-7.219-6.775-8.302-18.696-10.517-28.151c-2.345-10.01-10.682-17.006-20.948-17.577
			c-26.726-1.487-21.866,0.282-43.295-15.758c-2.42-1.812-5.069-3.09-7.813-3.836C256.728,103.08,263.862,104.359,269.672,108.708
			L269.672,108.708z M250.14,311.838c-3.914,0.891-8.962,2.576-17.177,5.059c-4.259,1.287-8.59,1.319-12.589,0.245
			c0.29-0.076,0.58-0.158,0.87-0.245C238.651,311.637,241.847,309.951,250.14,311.838z" clip-rule="evenodd"/><ellipse cx="256" cy="210.998" fill="#eceff1" fill-rule="evenodd" clip-rule="evenodd" rx="63.858" ry="63.857" transform="rotate(-14.525 256.045 211.028)"/><path fill="#d1d1d6" fill-rule="evenodd" d="M256,147.141c1.718,0,3.419,0.07,5.103,0.203c-32.881,2.6-58.755,30.105-58.755,63.655
			c0,33.549,25.874,61.055,58.755,63.655c-1.684,0.133-3.385,0.203-5.103,0.203c-35.268,0-63.858-28.59-63.858-63.858
			C192.142,175.731,220.732,147.141,256,147.141z" clip-rule="evenodd"/><path fill="#8ac9fe" fill-rule="evenodd" d="M215.855,218.71c-3.124-3.124-3.124-8.189,0-11.312c3.124-3.124,8.189-3.124,11.312,0l14.738,14.738
			l43.209-39.213c3.262-2.968,8.313-2.731,11.281,0.531c2.968,3.262,2.731,8.313-0.531,11.281l-48.536,44.047l-0.044,0.045
			c-3.124,3.124-8.189,3.124-11.312,0L215.855,218.71z" clip-rule="evenodd"/></svg>