<svg xmlns="http://www.w3.org/2000/svg" enable-background="new 0 0 135 135" viewBox="0 0 135 135"><path fill="#a2e55a" d="M31.96927 46.00359V33.33111c0-4.90622-3.98734-8.87621-8.89357-8.87621s-8.89357 3.96999-8.89357 8.87621v12.67248H31.96927M102.82302 100.84827v21.7716c0 4.90612 3.98735 8.87621 8.89357 8.87621 4.90623 0 8.89357-3.97009 8.89357-8.87621v-21.7716H102.82302z"/><path fill="#fff" d="M23.0757,24.4549c4.90622,0,8.89357,3.96999,8.89357,8.86837v89.27141
				c0,4.91406,3.96999,8.90141,8.89357,8.90141h70.85375c-4.90622,0-8.89357-3.97009-8.89357-8.87621V33.33111
				c0-4.90622-3.96999-8.87621-8.89356-8.87621H23.0757z"/><path fill="#fff" d="M23.0757,24.4549c4.90622,0,8.89357,3.96999,8.89357,8.88798v89.27141
				c0,4.89445,3.96999,8.8818,8.89357,8.8818h70.85375c-4.90622,0-8.89357-3.97009-8.89357-8.87621V33.33111
				c0-4.90622-3.96999-8.87621-8.89356-8.87621H23.0757z"/><path fill="#e2f2ff" d="M80.84686,131.49998c10.07455-9.79414,16.3361-23.49467,16.3361-38.65315
				c0-29.74703-24.12092-53.87736-53.87725-53.87736c-3.88773,0-7.68203,0.41138-11.33618,1.19626v-6.83167
				c0-4.90643-3.99058-8.87829-8.897-8.87829h70.85812c4.92514,0,8.897,3.97187,8.897,8.87829v89.28763
				c0,4.90642,3.98122,8.87829,8.88765,8.87829H80.84686z"/><path fill="#fb961d" d="M24.26434,57.16887l0.3731,62.41748l-6.71353,11.9136l-6.88048-11.87086l-0.3731-62.41748
				c-0.01173-1.67084,1.65427-3.03059,3.72111-3.03708l6.10931-0.01921C22.5676,54.14883,24.25261,55.49804,24.26434,57.16887z"/><polygon fill="#fff" points="24.351 69.476 10.757 69.519 10.716 63.666 24.31 63.623"/><polygon fill="#fff" points="11.062 119.671 17.924 131.5 24.619 119.629"/><path fill="#fad014" d="M10.67033,57.21163l0.04438,6.32216l13.59402-0.04274l-0.04438-6.32216
				c-0.01173-1.67083-1.69679-3.02008-3.76363-3.01358l-6.10932,0.01921C12.32457,54.18101,10.65861,55.54079,10.67033,57.21163z"/><path fill="#e2f2ff" d="M98.79951,62.02237l-9.82788,19.68618l-2.77835-8.69537l-8.36817,5.03399l7.71458-20.29877h5.16407
				l3.23602,5.58942c0.45808,0.81718,1.00243,0.87434,1.81962,0.44979L98.79951,62.02237z"/><path fill="#5b58cf" d="M125.52306,41.76283l3.25756-5.59857c0.44095-0.81439,0.1696-1.83261-0.64473-2.30743l-5.59886-3.2235
				v-6.48129c0-0.94988-0.74664-1.69664-1.69659-1.69664h-6.48093l-3.22363-5.59857
				c-0.47506-0.81439-1.49298-1.08585-2.30731-0.64461l-3.03711,1.76687v47.60152l3.03711,1.76711
				c0.81433,0.44101,1.83225,0.16955,2.30731-0.64484l3.22363-5.5988h6.48093c0.94994,0,1.69659-0.74628,1.69659-1.69664v-6.48082
				l5.59886-3.22374c0.81433-0.47482,1.08568-1.49281,0.64473-2.3072L125.52306,41.76283z"/><path fill="#e2f2ff" d="M123.24765,79.66846l-8.4005-5.034l-2.77835,8.69537L99.94542,58.85528l3.04011,1.79797
				c0.81718,0.42455,1.83028,0.1628,2.32068-0.65439l3.20331-5.58942h5.16486L123.24765,79.66846z"/><path fill="#a3baf2" d="M122.96922,47.39568c0.44093,0.81434,0.16962,1.83226-0.64471,2.30736l-5.59888,3.22359v6.48094
				c0,0.9502-0.74661,1.6966-1.69661,1.6966h-6.48093l-3.22359,5.59888c-0.4751,0.81434-1.49302,1.08585-2.30736,0.64471
				l-5.59888-3.25755l-5.63263,3.25755c-0.81454,0.44114-1.83247,0.16962-2.30756-0.64471l-3.22338-5.59888h-6.48114
				c-0.95,0-1.69661-0.74641-1.69661-1.6966v-6.48094l-5.59866-3.22359c-0.81454-0.4751-1.08585-1.49302-0.64472-2.30736
				l3.25735-5.63284l-3.25735-5.59867c-0.44113-0.81433-0.16982-1.83246,0.64472-2.30735l5.59866-3.22359v-6.48114
				c0-0.94999,0.74661-1.69661,1.69661-1.69661h6.48114l3.22338-5.59867c0.4751-0.81434,1.49302-1.08585,2.30756-0.64472
				l5.63263,3.25755l5.59888-3.25755c0.81434-0.44113,1.83226-0.16962,2.30736,0.64472l3.22359,5.59867h6.48093
				c0.95,0,1.69661,0.74661,1.69661,1.69661v6.48114l5.59888,3.22359c0.81433,0.47489,1.08564,1.49302,0.64471,2.30735
				l-3.25755,5.59867L122.96922,47.39568z"/><path fill="#fff" d="M111.58482,41.7905c0,7.80101-6.35635,14.15735-14.18627,14.15735
				c-7.83028,0-14.15806-6.35635-14.15806-14.15735c0-7.82993,6.32777-14.18627,14.15806-14.18627
				C105.22847,27.60423,111.58482,33.96058,111.58482,41.7905z"/><path fill="#402da3" d="M44.30824 120.564h46.17676c.55273 0 1-.44775 1-1s-.44727-1-1-1H44.30824c-.55273 0-1 .44775-1 1S43.7555 120.564 44.30824 120.564zM44.30824 104.30228h23.08789c.55273 0 1-.44775 1-1s-.44727-1-1-1H44.30824c-.55273 0-1 .44775-1 1S43.7555 104.30228 44.30824 104.30228zM44.30824 87.10648h20.6709c.55273 0 1-.44775 1-1s-.44727-1-1-1h-20.6709c-.55273 0-1 .44775-1 1S43.7555 87.10648 44.30824 87.10648zM90.48499 85.10648H73.83167c-.55273 0-1 .44775-1 1s.44727 1 1 1h16.65332c.55273 0 1-.44775 1-1S91.03773 85.10648 90.48499 85.10648zM44.30824 53.64895h18.88184c.55273 0 1-.44775 1-1s-.44727-1-1-1H44.30824c-.55273 0-1 .44775-1 1S43.7555 53.64895 44.30824 53.64895zM25.26429 57.16311c0-.00049 0-.00098 0-.00098-.01563-2.2124-2.14453-4.00684-4.74902-4.00684-.00586 0-.01172 0-.01758 0l-6.10938.01953c-1.39941.00439-2.71582.52539-3.61133 1.43018-.71973.72754-1.11328 1.65576-1.10645 2.6123l.37305 62.41748c.00102.16467.07742.39538.13477.49561l6.87988 11.87109c.17871.30859.50879.49854.86523.49854.00195 0 .00391 0 .00586 0 .35938-.00195.68945-.19629.86523-.50928l6.71387-11.91357c.05408-.09425.12758-.32413.12793-.48877 0-.00171.00098-.00317.00098-.00488 0-.00049-.00024-.00073-.00024-.00122s.00024-.00122.00024-.00171C25.15997 38.16237 25.37508 75.68562 25.26429 57.16311zM12.03724 118.62576l-.28711-48.11035 4.80908-.01489.27563 48.11035L12.03724 118.62576zM23.33192 68.47903l-11.58228.03662-.02734-3.85303 11.58655-.03662L23.33192 68.47903zM18.83485 118.60452l-.27563-48.11035 4.78467-.01489.28711 48.11011L18.83485 118.60452zM12.19886 56.01223c.52344-.52979 1.32422-.83496 2.19531-.8374l6.10938-.01953c.00391 0 .00781 0 .01074 0 1.4834 0 2.74121.92285 2.75 2.01953l.03259 5.45142-11.59363.03662-.03271-5.45825C11.66663 56.6636 11.9557 56.25735 12.19886 56.01223zM17.91175 129.48489l-5.13623-8.86133c3.62991-.01135 6.51281-.02037 10.1471-.03174L17.91175 129.48489z"/><path fill="#402da3" d="M126.67933,41.76419l2.98145-5.12402c0.70313-1.30127,0.25488-2.90332-1.02637-3.6499l-5.09766-2.93506
				v-5.90332c0-1.51172-1.18457-2.69629-2.69629-2.69629h-5.81079c-0.00024,0-0.00049,0-0.00073,0h-0.0918l-2.9375-5.10205
				c-0.74512-1.27734-2.34375-1.72656-3.67383-1.00537l-2.03455,1.18335l-0.10315-0.17896
				c-0.74414-1.27539-2.34766-1.72412-3.67383-1.00488l-5.09766,2.96582l-5.1543-2.98096
				c-1.30566-0.70557-2.9043-0.25488-3.65039,1.02539L85.6764,21.4556h-5.90332c-1.26807,0-2.29614,0.83813-2.59766,1.99951
				H23.07704c-0.00037,0-0.00073,0-0.00122,0c-5.45508,0-9.89356,4.43018-9.89356,9.87597v12.67236c0,0.55225,0.44727,1,1,1
				s1-0.44775,1-1V33.33108c0-4.34277,3.54102-7.87597,7.89331-7.87597h0.00024c4.35254,0,7.89355,3.5332,7.89355,7.87597v89.27148
				c0,5.45557,4.43847,9.89355,9.89355,9.89355h70.85352c0.00012,0,0.00024,0,0.00037,0
				c5.45483-0.00024,9.89319-4.43042,9.89319-9.87598v-21.77197c0-0.55225-0.44727-1-1-1s-1,0.44775-1,1v21.77197
				c0,4.34277-3.54102,7.87598-7.89355,7.87598s-7.89355-3.5332-7.89355-7.87598v-21.77197c0-0.00024,0-0.00024,0-0.00049V85.67044
				c0-0.55225-0.44727-1-1-1s-1,0.44775-1,1v36.94971c0,0.00244,0.00049,0.00464,0.00049,0.00708
				c0.00198,3.01909,1.46813,6.00841,3.93018,7.8689H40.86292c-4.35254,0-7.89355-3.54102-7.89355-7.89355V46.00369
				c0-0.00024,0-0.00024,0-0.00024V33.33108c0-3.11322-1.52299-6.05328-3.93066-7.87597h48.03809v4.6001l-5.10254,2.93799
				c-0.88123,0.51343-1.35547,1.43628-1.33569,2.39453H44.30824c-0.55273,0-1,0.44775-1,1s0.44727,1,1,1h27.08044l2.54553,4.37646
				l-2.97949,5.15479c-0.70508,1.30078-0.25684,2.90332,1.02441,3.65088l5.09766,2.93506v5.90283
				c0,1.51172,1.18457,2.69629,2.69629,2.69629h3.04175l-2.20703,5.80664H44.30824c-0.55273,0-1,0.44775-1,1s0.44727,1,1,1h35.53943
				l-2.9574,7.78125c-0.15137,0.39844-0.03418,0.84912,0.29297,1.12256c0.32813,0.27393,0.79297,0.30908,1.15723,0.08984
				l7.28516-4.38232l2.39355,7.49072c0.12305,0.3877,0.46973,0.66162,0.875,0.69287
				c0.02637,0.00195,0.05176,0.00293,0.07715,0.00293c0.37695,0,0.72461-0.2124,0.89453-0.55322l8.24121-16.50732l4.43359,2.5791
				c0.34644,0.18726,0.71411,0.2749,1.08154,0.30518l7.55029,15.2417c0.16992,0.34229,0.51855,0.55615,0.89648,0.55615
				c0.02441,0,0.0498-0.00098,0.0752-0.00293c0.40625-0.03076,0.75293-0.30469,0.87695-0.69287l2.39453-7.49365l7.31836,4.38574
				c0.36523,0.21875,0.82813,0.18262,1.15527-0.09082c0.32617-0.27344,0.44434-0.72314,0.29395-1.12158l-6.52258-17.20996h3.17981
				c1.51172,0,2.69629-1.18457,2.69629-2.69678v-5.90234l5.10255-2.93799c1.27637-0.74414,1.72461-2.34619,1.00684-3.67188
				L126.67933,41.76419z M109.30531,17.09183c0.3457-0.1875,0.76953-0.06934,0.96387,0.26416l2.36047,4.09961h-3.50305
				l-1.8374-3.19092L109.30531,17.09183z M89.17542,79.06107l-2.03027-6.35205c-0.09277-0.2915-0.31348-0.52393-0.59961-0.63184
				c-0.11426-0.04297-0.2334-0.06396-0.35254-0.06396c-0.17969,0-0.35742,0.04834-0.51563,0.14307l-5.89063,3.54395l5.16724-13.5962
				h0.72241l2.9375,5.10254c0.74512,1.27881,2.34863,1.72461,3.67285,1.00684l3.24023-1.87402L89.17542,79.06107z M97.92152,63.2261
				c-0.15527-0.09033-0.3291-0.13574-0.50293-0.13574c-0.17285,0-0.3457,0.04492-0.50098,0.13428l-5.6084,3.24366
				c-0.34668,0.18799-0.77051,0.06934-0.96484-0.26416l-3.22363-5.59912c-0.17773-0.31006-0.50879-0.50098-0.86621-0.50098h-6.48145
				c-0.39648,0-0.69629-0.29932-0.69629-0.69629v-6.48096c0-0.35791-0.19141-0.68799-0.50098-0.8667l-5.59375-3.2207
				c-0.33789-0.19727-0.45605-0.62207-0.2832-0.94336l3.25684-5.63281c0.17969-0.31055,0.17969-0.69336-0.00098-1.00342
				l-3.24219-5.57227c-0.18652-0.34521-0.06836-0.76953,0.26465-0.96387l5.59863-3.22363
				c0.30957-0.17871,0.50098-0.50879,0.50098-0.8667v-6.48096c0-0.39746,0.2998-0.69678,0.69629-0.69678h6.48145
				c0.35742,0,0.68848-0.19092,0.86621-0.50098l3.22168-5.59424c0.19629-0.33789,0.62305-0.45605,0.94238-0.28271l5.63281,3.25781
				c0.31055,0.17871,0.69336,0.17822,1.00391-0.00146l5.57227-3.24268c0.34277-0.18652,0.76953-0.06836,0.96484,0.26465
				l3.22363,5.59863c0.17773,0.31006,0.50879,0.50098,0.86621,0.50098h5.81006c0.00024,0,0.00024,0,0.00049,0h0.67029
				c0.39624,0,0.69592,0.29932,0.69592,0.69678v6.48096c0,0.35791,0.19141,0.68799,0.50098,0.8667l5.59473,3.2207
				c0.33789,0.19678,0.45605,0.62158,0.28418,0.94043l-3.25781,5.59863c-0.18066,0.31006-0.18066,0.69287-0.00098,1.00342
				l3.24902,5.61816c0.17871,0.34424,0.06055,0.7627-0.26953,0.95508l-5.59961,3.22363
				c-0.30957,0.17871-0.50098,0.50879-0.50098,0.8667v6.48096c0,0.39697-0.2998,0.69629-0.69629,0.69629h-6.48047
				c-0.35742,0-0.68848,0.19092-0.86621,0.50098l-3.2207,5.59375c-0.19727,0.33838-0.625,0.45557-0.94141,0.28467L97.92152,63.2261z
				 M115.36097,73.7764c-0.26172-0.15723-0.58203-0.18555-0.86719-0.07764s-0.50586,0.34033-0.59863,0.63135l-2.02637,6.34229
				l-6.31567-12.74854c0.2439-0.20117,0.46838-0.43115,0.63794-0.72168l2.93555-5.09815h5.90234
				c0.16321,0,0.32031-0.02002,0.47473-0.04639l5.78894,15.27295L115.36097,73.7764z M127.63636,48.83645l-5.59863,3.22363
				c-0.30957,0.17871-0.50098,0.50879-0.50098,0.8667v6.48047c0,0.39746-0.2998,0.69678-0.69629,0.69678h-3.21362
				c0.05786-0.22266,0.09839-0.45313,0.09839-0.69629v-5.90283l5.10352-2.93799c1.27539-0.74414,1.72363-2.34619,1.02051-3.64697
				c-0.00488-0.0083-0.00977-0.0166-0.01465-0.0249l-2.9668-5.13086l2.98145-5.12402c0.7041-1.30127,0.25586-2.90332-1.02539-3.6499
				l-5.09863-2.93506v-5.90283c0-0.24365-0.04053-0.47388-0.09839-0.69678h3.21362c0.39648,0,0.69629,0.29932,0.69629,0.69629
				v6.48145c0,0.35791,0.19141,0.68799,0.50098,0.8667l5.59375,3.2207c0.33887,0.19727,0.45704,0.62207,0.28516,0.94043
				l-3.25781,5.59863c-0.18066,0.31006-0.18066,0.69287-0.00098,1.00342l3.24316,5.60791
				C128.08852,48.21682,127.96937,48.64212,127.63636,48.83645z"/><path fill="#402da3" d="M112.5846,41.79055c0-8.37354-6.8125-15.18603-15.18652-15.18603
				c-8.35742,0-15.15723,6.8125-15.15723,15.18603c0,8.35791,6.7998,15.15723,15.15723,15.15723
				C105.7721,56.94778,112.5846,50.14846,112.5846,41.79055z M97.39808,54.94778c-7.25488,0-13.15723-5.90234-13.15723-13.15723
				c0-7.271,5.90234-13.18603,13.15723-13.18603c7.27148,0,13.18652,5.91504,13.18652,13.18603
				C110.5846,49.04544,104.66956,54.94778,97.39808,54.94778z"/><path fill="#402da3" d="M102.16077,36.48977l-6.82959,6.82959l-2.66711-2.66699c-0.68835-0.68921-1.80652-0.68921-2.49475,0
				c-0.68921,0.68921-0.68921,1.80566,0,2.49487l3.91455,3.91431c0.34399,0.34473,0.7959,0.51709,1.24731,0.51709
				s0.90332-0.17236,1.24731-0.51709l8.07715-8.0769c0.68921-0.68921,0.68921-1.80566,0-2.49487
				C103.96741,35.80056,102.84925,35.80056,102.16077,36.48977z"/><path fill="#fad014" d="M12.81218 13.81882c-.55273 0-1-.44775-1-1v-2.51416c0-.55225.44727-1 1-1s1 .44775 1 1v2.51416C13.81218 13.37107 13.36491 13.81882 12.81218 13.81882zM12.81218 24.91355c-.55273 0-1-.44775-1-1v-2.51367c0-.55225.44727-1 1-1s1 .44775 1 1v2.51367C13.81218 24.46579 13.36491 24.91355 12.81218 24.91355zM19.61687 18.10935H17.1032c-.55273 0-1-.44775-1-1s.44727-1 1-1h2.51367c.55273 0 1 .44775 1 1S20.1696 18.10935 19.61687 18.10935zM8.52214 18.10935H6.00749c-.55273 0-1-.44775-1-1s.44727-1 1-1h2.51465c.55273 0 1 .44775 1 1S9.07487 18.10935 8.52214 18.10935zM15.84636 15.07517c-.25586 0-.51172-.09766-.70703-.29297-.39063-.39014-.39063-1.02344 0-1.41406l1.77734-1.77783c.39063-.39063 1.02344-.39063 1.41406 0 .39063.39014.39063 1.02344 0 1.41406l-1.77734 1.77783C16.35808 14.97751 16.10222 15.07517 15.84636 15.07517zM8.00066 22.92087c-.25586 0-.51172-.09766-.70703-.29297-.39063-.39014-.39063-1.02344 0-1.41406l1.77734-1.77783c.39063-.39063 1.02344-.39063 1.41406 0 .39063.39014.39063 1.02344 0 1.41406L8.70769 22.6279C8.51237 22.82321 8.25652 22.92087 8.00066 22.92087zM17.6237 22.92087c-.25586 0-.51172-.09766-.70703-.29297l-1.77734-1.77783c-.39063-.39063-.39063-1.02393 0-1.41406.39063-.39063 1.02344-.39063 1.41406 0l1.77734 1.77783c.39063.39063.39063 1.02393 0 1.41406C18.13542 22.82321 17.87956 22.92087 17.6237 22.92087zM9.778 15.07517c-.25586 0-.51172-.09766-.70703-.29297l-1.77734-1.77783c-.39063-.39063-.39063-1.02393 0-1.41406.39063-.39063 1.02344-.39063 1.41406 0l1.77734 1.77783c.39063.39063.39063 1.02393 0 1.41406C10.28972 14.97751 10.03386 15.07517 9.778 15.07517z"/><path fill="#a2e55a" d="M47.80339,19.9614c-2.81445,0-5.10449-2.29004-5.10449-5.10498c0-2.81885,2.29004-5.1123,5.10449-5.1123
				c2.81934,0,5.1123,2.29346,5.1123,5.1123C52.9157,17.67136,50.62273,19.9614,47.80339,19.9614z M47.80339,11.74411
				c-1.71191,0-3.10449,1.396-3.10449,3.1123c0,1.71191,1.39258,3.10498,3.10449,3.10498c1.71582,0,3.1123-1.39307,3.1123-3.10498
				C50.9157,13.14011,49.51921,11.74411,47.80339,11.74411z"/><path fill="#ed7149" d="M80.6364 7.01413c-.55273 0-1-.44775-1-1V3.49997c0-.55225.44727-1 1-1s1 .44775 1 1v2.51416C81.6364 6.56638 81.18913 7.01413 80.6364 7.01413zM80.6364 18.10935c-.55273 0-1-.44775-1-1v-2.51416c0-.55225.44727-1 1-1s1 .44775 1 1v2.51416C81.6364 17.66159 81.18913 18.10935 80.6364 18.10935zM87.44109 11.30466h-2.51367c-.55273 0-1-.44775-1-1s.44727-1 1-1h2.51367c.55273 0 1 .44775 1 1S87.99382 11.30466 87.44109 11.30466zM76.34636 11.30466h-2.51465c-.55273 0-1-.44775-1-1s.44727-1 1-1h2.51465c.55273 0 1 .44775 1 1S76.89909 11.30466 76.34636 11.30466zM83.67058 8.27048c-.25586 0-.51172-.09766-.70703-.29297-.39063-.39063-.39063-1.02344 0-1.41406l1.77734-1.77734c.39063-.39063 1.02344-.39063 1.41406 0s.39063 1.02344 0 1.41406l-1.77734 1.77734C84.1823 8.17282 83.92644 8.27048 83.67058 8.27048zM75.82487 16.11618c-.25586 0-.51172-.09766-.70703-.29297-.39063-.39014-.39063-1.02344 0-1.41406l1.77734-1.77783c.39063-.39063 1.02344-.39063 1.41406 0 .39063.39014.39063 1.02344 0 1.41406l-1.77734 1.77783C76.33659 16.01853 76.08073 16.11618 75.82487 16.11618zM85.44792 16.11618c-.25586 0-.51172-.09766-.70703-.29297l-1.77734-1.77783c-.39063-.39063-.39063-1.02393 0-1.41406.39063-.39063 1.02344-.39063 1.41406 0l1.77734 1.77783c.39063.39063.39063 1.02393 0 1.41406C85.95964 16.01853 85.70378 16.11618 85.44792 16.11618zM77.60222 8.27048c-.25586 0-.51172-.09766-.70703-.29297l-1.77734-1.77734c-.39063-.39063-.39063-1.02344 0-1.41406s1.02344-.39063 1.41406 0l1.77734 1.77734c.39063.39063.39063 1.02344 0 1.41406C78.11394 8.17282 77.85808 8.27048 77.60222 8.27048z"/></svg>