<svg xmlns="http://www.w3.org/2000/svg" viewBox="0 0 4680 3120"><defs><clipPath id="a"><path fill="#fff" d="M3212.63,532.63c-30.38,0-56.76,21.08-64.15,51.25a68.64,68.64,0,0,0,7.42,51.3,65.82,65.82,0,0,0,40.64,30.91,64.61,64.61,0,0,0,16.12,2.06c30.41,0,56.81-21.09,64.2-51.28a68.64,68.64,0,0,0-7.44-51.27,65.86,65.86,0,0,0-40.65-30.91,65.12,65.12,0,0,0-16.14-2.06Z"/></clipPath><clipPath id="b"><path fill="#fff" d="M3212.63,964.09c-30.38,0-56.76,21.08-64.15,51.25a68.67,68.67,0,0,0,7.42,51.31,65.84,65.84,0,0,0,40.64,30.9,64.61,64.61,0,0,0,16.12,2.06c30.41,0,56.81-21.09,64.2-51.28a68.61,68.61,0,0,0-7.44-51.26,65.87,65.87,0,0,0-40.65-30.92,65.12,65.12,0,0,0-16.14-2.06Z"/></clipPath><clipPath id="c"><path fill="none" d="M1139.24,2349.72V2543c0,58.92,48.29,107.13,107.31,107.13h118.33c59,0,107.3-48.21,107.3-107.13V2349.72Z"/></clipPath></defs><g data-name="9"><rect width="4680" height="3120" fill="#fff" data-name="9" opacity="0"/><path fill="#99b1da" d="M716.87,607C689.61,363.43,576.05,360,576.05,360S324.84,390.89,431.9,771.72H718.71C720.65,696.57,720.48,639.31,716.87,607Z"/><path fill="#e3eeff" d="M955.35,2635.5c147.83-35.07,135.46-258.18,98.4-285.65h1174c-21.28-89.3-36.27-190-33.27-291.59,5.67-192.43,162.31-1543.87-69.37-1698.26H576.05s113.56,3.43,140.82,247c3.61,32.27,3.78,89.53,1.84,164.68-10.63,412-84.94,1366.14-6.85,1743.77C715.38,2528,762.75,2681.18,955.35,2635.5Z"/><path fill="#99b1da" d="M2072,957.3c13.86-.22,19.1,7.82,11.62,17.87l-15.15,19.35c-7.48,10.05-24.86,18.23-38.63,18.2L1090.26,1030c-13.78,0-21.45-8.56-17-18.95l9.41-22.26c4.4-10.39,19.34-19.07,33.21-19.28Z"/><path fill="#99b1da" d="M2077.19,1111.21c13.87-.22,19.1,7.82,11.63,17.86l-15.16,19.36c-7.47,10-24.85,18.23-38.63,18.2L1095.49,1184c-13.77,0-21.45-8.56-17-19l9.42-22.26c4.39-10.39,19.34-19.07,33.2-19.28Z"/><path fill="#99b1da" d="M2082.43,1265.11c13.86-.21,19.1,7.83,11.62,17.87l-15.15,19.36c-7.48,10-24.86,18.23-38.63,18.2l-939.54,17.32c-13.78,0-21.45-8.56-17-18.95l9.41-22.27c4.4-10.39,19.34-19.06,33.21-19.28Z"/><path fill="#99b1da" d="M2087.66,1419c13.87-.22,19.1,7.83,11.63,17.87l-15.16,19.36c-7.47,10-24.86,18.23-38.63,18.19L1106,1491.76c-13.77,0-21.45-8.56-17-19l9.42-22.26c4.39-10.39,19.34-19.07,33.2-19.28Z"/><path fill="#99b1da" d="M2092.9,1572.93c13.86-.22,19.09,7.82,11.62,17.86l-15.15,19.36c-7.48,10-24.86,18.23-38.63,18.2l-939.54,17.32c-13.78,0-21.45-8.56-17.06-19l9.42-22.26c4.4-10.39,19.34-19.07,33.21-19.28Z"/><path fill="#99b1da" d="M2098.13,1726.83c13.87-.21,19.1,7.83,11.63,17.87l-15.16,19.36c-7.47,10-24.86,18.23-38.63,18.2l-939.54,17.32c-13.77,0-21.45-8.56-17-18.95l9.42-22.26c4.39-10.4,19.34-19.07,33.2-19.29Z"/><path fill="#99b1da" d="M1845.87,1889.5c13.87-.22,19.1,7.82,11.63,17.87l-15.16,19.35c-7.47,10-24.85,18.23-38.63,18.2l-682,8.56c-13.78,0-21.45-8.56-17.06-19l9.42-22.26c4.4-10.39,19.34-19.06,33.21-19.28Z"/><path fill="#f4f4f4" d="M2449.12,2662.07h-1577s-172.34,0-161.26-147.48c0,0,.11.37.26.9,2.91,10.38,35.86,117,156.27,127.65,1.81.16,3.66.3,5.51.41s3.53.21,5.32.27c1.36,0,2.73.1,4.12.12,1.79,0,3.59,0,5.42,0s3.58,0,5.4-.07a274.88,274.88,0,0,0,34-3q7.63-1.16,15.62-2.77c1.6-.31,3.21-.64,4.82-1q3.15-.68,6.37-1.44l.63-.14c147.83-35.07,135.46-258.19,98.4-285.66H2449.12S2618,2521.41,2449.12,2662.07Z"/><path fill="#5681bf" d="M988.6,1873.66c-5.24,0-10.48,0-15.49-.1-57.54-.77-60.38-4.62-62.87-8-1.32-1.78-4.81-6.52-4.65-60.34.08-25.63,1.26-56.92,4.36-67.91.49-1.73,1.78-6.34,6-8.08h0c6.46-2.64,46.46-4.33,60-4.71,36.77-1,59.2.31,66.67,4a9.86,9.86,0,0,1,5.54,6.32c2.2,8.3,4.11,115.84-6.2,132.5a9.77,9.77,0,0,1-6.38,4.73C1030.53,1873.13,1009.6,1873.66,988.6,1873.66Zm-66.29-17.91c15.41,3.48,90.78,3.75,107.78,2.14,5.52-16,6.05-98.7,4.12-116.75-16-4.42-93.15-1.22-110.39,1.42C919.66,1759.36,919.42,1839.15,922.31,1855.75Zm.5,2.11Zm-2.41-2.68Z"/><path fill="#99b1da" d="M933.4,1776.73s29.1,61.27,39.49,54S1077.69,1697,1071,1694.24s-20-8.79-20-8.79S971.2,1813.12,969.1,1808s-17.89-40.8-22.38-41.56S933.4,1776.73,933.4,1776.73Z"/><path fill="#5681bf" d="M978.83,1586.38c-5.24,0-10.48,0-15.49-.1-57.54-.78-60.38-4.63-62.87-8-1.32-1.79-4.81-6.53-4.65-60.34.08-25.63,1.26-56.93,4.36-67.91.48-1.74,1.78-6.35,6.05-8.09,6.45-2.64,46.46-4.33,60-4.71,36.76-1,59.2.31,66.66,4a9.87,9.87,0,0,1,5.55,6.33c2.2,8.3,4.11,115.83-6.2,132.49a9.8,9.8,0,0,1-6.38,4.74C1020.76,1585.84,999.83,1586.38,978.83,1586.38Zm-66.29-17.91c15.41,3.48,90.79,3.75,107.78,2.13,5.51-16,6-98.69,4.12-116.75-16-4.41-93.15-1.21-110.39,1.42C909.89,1472.08,909.65,1551.87,912.54,1568.47Zm.5,2.1Zm-2.41-2.68Z"/><path fill="#99b1da" d="M923.63,1489.44s29.1,61.27,39.49,54c-13,9.07,109.88-131.74,98.11-136.53-6.69-2.72-20-8.8-20-8.8s-79.75,127.67-81.85,122.58-17.89-40.8-22.38-41.57S923.63,1489.44,923.63,1489.44Z"/><path fill="#5681bf" d="M967.77,1261.46c-5.24,0-10.47,0-15.48-.1-57.54-.78-60.38-4.63-62.88-8-1.31-1.79-4.8-6.53-4.64-60.34.08-25.63,1.26-56.93,4.36-67.91.48-1.74,1.78-6.35,6-8.09,6.46-2.64,46.47-4.32,60-4.71,36.77-1,59.2.31,66.67,4a9.89,9.89,0,0,1,5.55,6.33c2.2,8.3,4.11,115.82-6.2,132.49a9.76,9.76,0,0,1-6.38,4.74C1009.71,1260.92,988.78,1261.46,967.77,1261.46Zm-66.28-17.91c15.41,3.48,90.78,3.75,107.78,2.14,5.52-16,6.05-98.7,4.11-116.76-16-4.41-93.14-1.21-110.38,1.42C898.84,1147.16,898.6,1227,901.49,1243.55Zm.49,2.1Z"/><path fill="#99b1da" d="M912.58,1164.53s29.1,61.27,39.49,54C939,1227.64,1062,1086.84,1050.18,1082c-6.69-2.72-20-8.8-20-8.8s-79.75,127.68-81.85,122.58-17.89-40.8-22.39-41.57S912.58,1164.53,912.58,1164.53Z"/><path fill="#40947e" d="M1667.62,1616.37s-21.07-100.07,198.2-153.95l-108.51,199.81Z"/><path fill="#f5b0a6" d="M1865.79,1462.42l-44.9,103.27-127.16,71.13c-13.11-33.41,20.09-78.16,13.44-108.43Z"/><path fill="#fff" d="M3031.17,2552.51c-1,74.19-2.69,141.12-5,193.08l-771.66-37.75,144.79-698,92.11-444.11,222.26-4.48,303.08,305.31C3030.61,1995.49,3034.43,2312,3031.17,2552.51Z"/><path fill="#f4f4f4" d="M2611.55,1730.47c-38.16,0-75.83-11.17-112.74-33.5a64.58,64.58,0,0,0-6-3.42c-2.47,0-4.06-2-4.06-4.44s2.44-4.43,4.92-4.43c2.16,0,4.08,1.16,9.77,4.61,72.86,44.09,148.86,42.77,225.87-4A4.49,4.49,0,1,1,2734,1693C2692.82,1718,2651.9,1730.47,2611.55,1730.47Z"/><path fill="#f4f4f4" d="M3031.17,2552.51c-1,74.19-2.69,141.12-5,193.08l-771.66-37.75,144.79-698c43.19-25.4,136-117.09,136.88-117.57-1.38,3.72-13.7,459.85,297.22,580.07C2907.44,2500.92,2974.58,2523.77,3031.17,2552.51Z"/><path fill="#6fc183" d="M2467.62,2417.27c-35.92,175.64-72.45,304.28-72.45,304.28-166.14,74.08-278.65,18.32-278.65,18.32,114.49-303.09,96.07-760.36,96.07-760.36L1977.3,2099.08c-25.28,12.83-81.84,16.73-81.84,16.73-56.55-3.76-104-99-128.62-150l-99.19-349.4,0-.06,198.21-153.93,112,329,294.29-201.6a222.25,222.25,0,0,1,96.75-23.11l78-.66,44.57-.39C2577.42,1759.5,2523.27,2144.89,2467.62,2417.27Z"/><path fill="#40947e" d="M2467.62,2417.27l-.91-.48c-42.46-83.6-123.75-397.36-123.75-397.36l78.73-99.36L2340,1700.79l106.93-134.71,44.57-.39C2577.42,1759.5,2523.27,2144.89,2467.62,2417.27Z"/><path fill="#6fc183" d="M3347.55,2540l-68.09,110c-123.48,76.33-611.66,90.81-611.66,90.81-12.7-105.43-18.32-210.17-19.09-313.54-2.23-307.19,38.58-602.12,65-866.11l51.71,12.1,205.3,48.08a273.2,273.2,0,0,1,194.15,171.86C3214,1927.65,3316.12,2234.68,3347.55,2540Z"/><polygon fill="#40947e" points="3084.56 2165.82 3019.83 1840.29 2990.57 2265.14 3084.56 2165.82" opacity=".5"/><polygon fill="#fff" points="3382.76 2187.84 3263.39 2531.72 3225.02 2642.29 2862.85 2518.69 3020.61 2064.24 3046.2 2072.98 3382.76 2187.84"/><path fill="#f4f4f4" d="M3263.4,2531.72,3225,2642.29l-362.17-123.6,157.76-454.45,25.59,8.74c-13.07,65.77-51.82,272.81,20,344.6C3127.2,2478.6,3218,2515.84,3263.4,2531.72Z"/><path fill="#fff" d="M3227.8,2648l-370.66-126.5,1.48-4.27,159.21-458.66,370.66,126.5-1.48,4.26ZM2868.58,2515.9l353.66,120.71,154.81-446L3023.39,2070Z"/><path fill="#fff" d="M3082.64,2219.75l187.09,61.37Z"/><path fill="#fff" d="M3090.88,2285.61l122.73,38.91Z"/><path fill="#f5b0a6" d="M3361,2640.33s53.88-139.19-137.7-244c0,0-46.39-18-12,52.38,0,0-73.34-83.81-55.38,13.47,0,0-58.37-58.37-28.44,52.39,0,0-58.37-31.43-22.45,100.28S3284.7,2799,3361,2640.33Z"/><path fill="#f18a8b" d="M3278.72,2535.56a4.49,4.49,0,0,1-3.74-2c-23.48-35.21-66.47-81.28-66.9-81.74a4.49,4.49,0,1,1,6.56-6.14c.44.47,43.93,47.08,67.81,82.9a4.49,4.49,0,0,1-1.24,6.23A4.58,4.58,0,0,1,3278.72,2535.56Z"/><path fill="#f18a8b" d="M3211.36,2553.52a4.48,4.48,0,0,1-4.18-2.87c-17.43-45-52.65-83.5-53-83.89a4.49,4.49,0,0,1,6.6-6.09c1.49,1.62,36.71,40.08,54.77,86.74a4.49,4.49,0,0,1-2.56,5.81A4.65,4.65,0,0,1,3211.36,2553.52Z"/><path fill="#f18a8b" d="M3154.48,2582a4.5,4.5,0,0,1-4.48-4.21c-1.4-22.51-26-60.31-26.22-60.69a4.49,4.49,0,0,1,7.52-4.91c1.06,1.63,26.12,40.19,27.66,65a4.49,4.49,0,0,1-4.2,4.76Z"/><path fill="#f5b0a6" d="M2713.7,1561.2C2673.29,1642,2570,1678,2491.44,1565.69c5.66-21.73,12.4-44.09,18.95-67,12.39-43.73,23.89-89.53,24.88-137.49.18-8.35.09-16.79-.45-25.23l167.66,15.71Z"/><path fill="#acacac" d="M2698.75,1394.23s-22.58,146.8-188.36,104.47c12.39-43.73,23.89-89.53,24.88-137.49Z"/><path fill="#40947e" d="M2764.71,1933.56l79.49,85.72s-142.12,317.13-195.49,408c-2.23-307.19,38.58-602.12,65-866.11l51.71,12.1,83.35,111.77Z"/><path fill="#40947e" d="M2229.38,1807.6l-16.79,171.91L1977.3,2099.08c-25.28,12.83-81.84,16.73-81.84,16.73-56.55-3.76-104-99-128.62-150l-99.19-349.4c3.78,5,187.64,401.41,268.56,406C2017.74,2027,2229.38,1807.6,2229.38,1807.6Z" opacity=".5"/><path fill="#f5b0a6" d="M1658.4,1536.39s12.29-8.93,7.2-22.63c0,0-14.8,38.58,21.12,55.54,17.92,8.46,32.31.26,54.37-7,0,0,33.21-25.15,51.36-42.23,27.65-26,73.37-57.66,73.37-57.66s-35.32-39.91-45.26-52.35c-23.52-29.44-66.28-81.19-87.61-96.09-30.37-21.21-173.1-52.38-182.43-46.78s-10.84,24.14,1,29.73,109.82,46.72,109.82,46.72-41.31,11.44-44.19,26.56,14.94,22.78,14.94,22.78-25.79,26.72-8.06,56.22c0,0-11.78,26.1-7.41,43.92S1644.13,1551.31,1658.4,1536.39Z"/><path fill="#f18a8b" d="M1551.48,1296.93c11.82,5.59,109.82,46.72,109.82,46.72,45.86,3.3,107.73,42.78,107.73,42.78s-16.72-31-74.57-53.14-141.26-32.3-143.94-66.09C1541.21,1272.8,1539.68,1291.34,1551.48,1296.93Z"/><path fill="#f18a8b" d="M1624,1449.21c18.41,34.44,29.65,36.82,41,38.24s15.14-27-.62-40.73-32.3-53.74-32.3-53.74,37.89-1.65,63.06,43.34,75.82,42.9,75.82,42.9-38,15.1-71.43,2.32c-15.39-5.88-10.74,36.17-30.49,27.66C1634.66,1494.4,1624,1449.21,1624,1449.21Z"/><path fill="#2f4171" d="M1278.52,1325.16l64.42,45.72L1907,1454a36.48,36.48,0,1,0,10.64-72.17l-564.07-83.17Z"/><path fill="#f5b0a6" d="M1817.09,1457.17s-72.93-65.72-87.79-79.21-42.68-46.8-53.29-36.13-12.29,42.86,1.65,60.48,3,24.61,32.4,49.35c21.8,18.35,35.61,30,62.74,25.5S1817.09,1457.17,1817.09,1457.17Z"/><path fill="#0d0d0d" d="M2767.48,1419.14c127.58-60.39,100-106.13,108.12-137.09q2.79-7.48,5.11-15.26a.45.45,0,0,0,.05-.1h0c29.85-100,2.7-232.8-84.46-301.86-160.68-127.3-271.79-4.33-271.79-4.33C2362.05,911.6,2236,1124,2381.48,1288c0,0-.5,116.6,184.75,224.49Z"/><path fill="#050505" d="M2526.62,1053.82c-117.94-53.89-215.44,33.64-177.84,169,41.3,148.71,185.37,103.77,185.37,103.77Z"/><path fill="#f5b0a6" d="M2707.16,1296.77l4.32,266.31s-42.28,31.77-111.82,31.77c-83.75,0-102.26-21-102.26-21l3.67-165.13,2.94-88.15Z"/><polygon fill="#f18a8b" points="2659.79 1428.99 2497.4 1562.69 2501.08 1408.71 2659.79 1428.99"/><path fill="#f5b0a6" d="M2711.48,1040.54l-32.76,358.16A39.93,39.93,0,0,1,2651,1433l-153.48,48.14a40.16,40.16,0,0,1-37.77-7.66l-74.24-63.09a39.75,39.75,0,0,1-13.94-33.87l1.16-12.29L2385.81,1221l7.55-83.16c6.39-69.24,67.74-120.16,137.1-113.89Z"/><path fill="#f18a8b" d="M2430.42,1290.37a76.2,76.2,0,0,1-57.74,73.89L2385.81,1221A76,76,0,0,1,2430.42,1290.37Z" opacity=".6"/><path fill="#dd8085" d="M2479.92,1327.86a5.23,5.23,0,0,0,2.12-10l-48-21.18,43.77-123.18a5.24,5.24,0,0,0-9.88-3.5l-45.39,127.75a5.23,5.23,0,0,0,2.83,6.53l52.47,23.15A5.3,5.3,0,0,0,2479.92,1327.86Z"/><path fill="#383838" d="M2698.91,1251.14l2.37-12.94c-85.85-15.64-144-49.3-172.68-100-38.24-67.54-10.46-142.8-10.17-143.55l-12.33-4.66c-1.25,3.31-30.21,81.83,11,154.68C2547.87,1198.93,2609,1234.77,2698.91,1251.14Z"/><path fill="#0d0d0d" d="M2731.46,1249.67s-225.08-47.5-233.19-226.2l15.94-46.37,253.08,32.52Z"/><path fill="#f5b0a6" d="M2643.7,1302.18a73.23,73.23,0,1,0,79.59-66.14A73.14,73.14,0,0,0,2643.7,1302.18Z"/><path d="M2385.11,1133.6c4.77,14.74,56.81,9.56,55.2-4.74C2437.63,1105.14,2377.56,1110.26,2385.11,1133.6Z"/><path d="M2614.31,1155.77c-8.19,13.15-57.44-4.42-52.42-17.9C2570.23,1115.49,2627.29,1134.94,2614.31,1155.77Z"/><path fill="#f18a8b" d="M2672.51,1308.83a76.38,76.38,0,1,1-76.38-76.24A76.32,76.32,0,0,1,2672.51,1308.83Z" opacity=".6"/><path d="M2561.36,1243.18c-1.26,13.69-8.75,24.2-16.74,23.47s-13.44-12.42-12.19-26.11,8.74-24.2,16.73-23.47S2562.61,1229.49,2561.36,1243.18Z"/><path d="M2426.87,1230.91c-1.26,13.69-8.75,24.2-16.74,23.47s-13.44-12.42-12.19-26.11,8.74-24.2,16.73-23.47S2428.12,1217.22,2426.87,1230.91Z"/><path d="M2528.92,1395.19a45.14,45.14,0,0,1-5.64,5.5c-13.53,11.12-34.17,15.77-52.4,11.13a56.32,56.32,0,0,1-21.57-10.8c-9.81-8.1-16.52-19.11-17.65-30.65-.66-6.63,1.46-14.64,8.68-16.81a16.9,16.9,0,0,1,5.17-.44,61.92,61.92,0,0,1,9.45,2.29,136.51,136.51,0,0,0,52.16,5.36c6.25-.7,12.28-.65,17.13.58s8.76,3.65,10.62,7.93C2538.7,1378,2535,1387.79,2528.92,1395.19Z"/><path fill="#fff" d="M2524.25,1361.35c-.65,4.38-2.07,8.67-5.29,11.43-3.52,3.13-8.35,4-13,4.37a114.63,114.63,0,0,1-49.85-6c-3.78-1.36-7.77-3.14-9.86-6.54s-1.74-7.54-.75-11.49a61.92,61.92,0,0,1,9.45,2.29,136.51,136.51,0,0,0,52.16,5.36C2513.37,1360.07,2519.4,1360.12,2524.25,1361.35Z"/><path fill="#dd8085" d="M2523.28,1400.69c-13.53,11.12-34.17,15.77-52.4,11.13a56.32,56.32,0,0,1-21.57-10.8c7.34-7.65,18.93-11.27,29.9-11.94C2494.7,1388,2510.81,1391.75,2523.28,1400.69Z"/><polygon fill="#dd8085" points="2697.95 1331.1 2743.36 1292.24 2738.49 1286.57 2693.08 1325.43 2697.95 1331.1"/><polygon fill="#dd8085" points="2732.73 1330.74 2738.32 1325.78 2721.02 1306.35 2715.43 1311.32 2732.73 1330.74"/><ellipse cx="2879.12" cy="959.53" fill="#0d0d0d" rx="116.29" ry="116.08"/><rect width="3256.16" height="107.97" x="814.98" y="2652.03" fill="#7a8db0" rx="53.98"/><rect width="1297.8" height="898.55" x="2976.86" y="446.08" fill="#99b1da" rx="113.5"/><polygon fill="#fff" points="3842.74 756.58 3830.94 799.97 3790.9 800.52 3823.65 826.79 3811.84 870.17 3843.88 843.02 3876.62 869.28 3863.68 826.23 3895.72 799.08 3855.68 799.63 3842.74 756.58"/><polygon fill="#fff" points="3722.96 761.23 3711.16 804.62 3671.12 805.17 3703.86 831.43 3692.06 874.82 3724.1 847.66 3756.84 873.93 3743.9 830.88 3775.94 803.72 3735.9 804.27 3722.96 761.23"/><polygon fill="#fff" points="3602.13 765.89 3590.32 809.27 3550.28 809.83 3583.03 836.09 3571.22 879.48 3603.26 852.32 3636 878.59 3623.06 835.54 3655.1 808.38 3615.07 808.93 3602.13 765.89"/><polygon fill="#fff" points="3481.74 764.55 3469.93 807.94 3429.9 808.49 3462.64 834.75 3450.83 878.14 3482.87 850.99 3515.61 877.25 3502.68 834.2 3534.71 807.04 3494.68 807.6 3481.74 764.55"/><polygon fill="#fff" points="3360.32 765.02 3348.51 808.41 3308.48 808.96 3341.22 835.23 3329.41 878.62 3361.45 851.46 3394.19 877.72 3381.25 834.67 3413.29 807.52 3373.26 808.07 3360.32 765.02"/><rect width="1046.49" height="203.42" x="3101.66" y="516.06" fill="#243354" opacity=".3" rx="20"/><rect width="1046.49" height="203.42" x="3091.11" y="496.47" fill="#b5cae8" rx="20"/><rect width="647.58" height="18.06" x="3376.53" y="596.58" fill="#fff" rx="8.89" transform="rotate(-180 3700.325 605.605)"/><path fill="#b1b1b1" d="M3212.63,532.63c-30.38,0-56.76,21.08-64.15,51.25a68.64,68.64,0,0,0,7.42,51.3,65.82,65.82,0,0,0,40.64,30.91,64.61,64.61,0,0,0,16.12,2.06c30.41,0,56.81-21.09,64.2-51.28a68.64,68.64,0,0,0-7.44-51.27,65.86,65.86,0,0,0-40.65-30.91,65.12,65.12,0,0,0-16.14-2.06Z"/><path fill="#fff" d="M3212.63,532.63c-30.38,0-56.76,21.08-64.15,51.25a68.64,68.64,0,0,0,7.42,51.3,65.82,65.82,0,0,0,40.64,30.91,64.61,64.61,0,0,0,16.12,2.06c30.41,0,56.81-21.09,64.2-51.28a68.64,68.64,0,0,0-7.44-51.27,65.86,65.86,0,0,0-40.65-30.91,65.12,65.12,0,0,0-16.14-2.06Z"/><g clip-path="url(#a)"><path fill="#5681bf" d="M3269.88,687.12q-18.65-33-37.28-66.1a35.63,35.63,0,0,0,14.54-38c-4.63-18.91-23.4-30.41-41.88-25.67s-29.71,24-25.08,42.86A35.11,35.11,0,0,0,3194.65,621l-37.3,66.12Z"/></g><path fill="#243354" d="M4011.38,578.51l160.64-3.3a28.16,28.16,0,0,0,27.47-25.39l10.14-104.26A30.64,30.64,0,0,0,4178.77,412l-151.69,1.47a33.73,33.73,0,0,0-33.31,30.64l-9.56,105.35A26.68,26.68,0,0,0,4011.38,578.51Z" opacity=".3"/><path fill="#d1dbed" d="M4007,557.74l160.64-3.29a28.17,28.17,0,0,0,27.47-25.4l10.14-104.26a30.65,30.65,0,0,0-30.86-33.57l-151.69,1.47a33.75,33.75,0,0,0-33.31,30.64l-9.56,105.36A26.67,26.67,0,0,0,4007,557.74Z"/><path fill="#fefefe" d="M4190,401.9l-87.89,74.36s-5.75,5.55-13.2,5.73c-7.1.18-10.44-2.35-11.66-3.93s-67.52-71.41-67.52-71.41-3.37-1.93-4.53-1-2.88,2.48-1.36,4.85,67.87,73.92,67.87,73.92,9.1,7.82,19.55,5.85,12.84-4.23,20.36-9.83,83.88-73.66,83.88-73.66a4.5,4.5,0,0,0-1.13-4.19C4192.53,400.83,4190,401.9,4190,401.9Z"/><path fill="#fefefe" d="M4116.14,474.31,4174.42,540s2.16,4.46.43,6.31-4.69.41-6.48-.75-56.18-64.26-56.79-65.15S4116.14,474.31,4116.14,474.31Z"/><path fill="#fefefe" d="M4059.54,468.45l-64.44,75s-3.13,4.28,1,6a6.69,6.69,0,0,0,7-1.07L4065.55,474Z"/><polygon fill="#fff" points="3842.74 1188.04 3830.94 1231.43 3790.9 1231.98 3823.65 1258.25 3811.84 1301.63 3843.88 1274.48 3876.62 1300.74 3863.68 1257.69 3895.72 1230.54 3855.68 1231.09 3842.74 1188.04"/><polygon fill="#fff" points="3722.96 1192.69 3711.16 1236.08 3671.12 1236.63 3703.86 1262.89 3692.06 1306.28 3724.1 1279.12 3756.84 1305.39 3743.9 1262.34 3775.94 1235.18 3735.9 1235.74 3722.96 1192.69"/><polygon fill="#fff" points="3602.13 1197.35 3590.32 1240.74 3550.28 1241.29 3583.03 1267.55 3571.22 1310.94 3603.26 1283.79 3636 1310.05 3623.06 1267 3655.1 1239.84 3615.07 1240.4 3602.13 1197.35"/><polygon fill="#fff" points="3481.74 1196.01 3469.93 1239.4 3429.9 1239.95 3462.64 1266.21 3450.83 1309.6 3482.87 1282.45 3515.61 1308.71 3502.68 1265.66 3534.71 1238.51 3494.68 1239.06 3481.74 1196.01"/><polygon fill="#fff" points="3360.32 1196.48 3348.51 1239.87 3308.48 1240.42 3341.22 1266.69 3329.41 1310.08 3361.45 1282.92 3394.19 1309.18 3381.25 1266.14 3413.29 1238.98 3373.26 1239.53 3360.32 1196.48"/><rect width="1046.49" height="203.42" x="3101.66" y="947.52" fill="#243354" opacity=".3" rx="20"/><rect width="1046.49" height="203.42" x="3091.11" y="927.93" fill="#b5cae8" rx="20"/><rect width="647.58" height="18.06" x="3376.53" y="1028.04" fill="#fff" rx="8.89" transform="rotate(180 3700.325 1037.065)"/><path fill="#b1b1b1" d="M3212.63,964.09c-30.38,0-56.76,21.08-64.15,51.25a68.67,68.67,0,0,0,7.42,51.31,65.84,65.84,0,0,0,40.64,30.9,64.61,64.61,0,0,0,16.12,2.06c30.41,0,56.81-21.09,64.2-51.28a68.61,68.61,0,0,0-7.44-51.26,65.87,65.87,0,0,0-40.65-30.92,65.12,65.12,0,0,0-16.14-2.06Z"/><path fill="#fff" d="M3212.63,964.09c-30.38,0-56.76,21.08-64.15,51.25a68.67,68.67,0,0,0,7.42,51.31,65.84,65.84,0,0,0,40.64,30.9,64.61,64.61,0,0,0,16.12,2.06c30.41,0,56.81-21.09,64.2-51.28a68.61,68.61,0,0,0-7.44-51.26,65.87,65.87,0,0,0-40.65-30.92,65.12,65.12,0,0,0-16.14-2.06Z"/><g clip-path="url(#b)"><path fill="#5681bf" d="M3269.88,1118.58q-18.65-33-37.28-66.09a35.65,35.65,0,0,0,14.54-38c-4.63-18.91-23.4-30.41-41.88-25.67s-29.71,23.95-25.08,42.86a35.11,35.11,0,0,0,14.47,20.75l-37.3,66.12Z"/></g><path fill="#243354" d="M4011.38,1010l160.64-3.3a28.16,28.16,0,0,0,27.47-25.39L4209.63,877a30.64,30.64,0,0,0-30.86-33.57l-151.69,1.47a33.75,33.75,0,0,0-33.31,30.64l-9.56,105.35A26.68,26.68,0,0,0,4011.38,1010Z" opacity=".3"/><path fill="#d1dbed" d="M4007,989.2l160.64-3.29a28.16,28.16,0,0,0,27.47-25.4l10.14-104.26a30.65,30.65,0,0,0-30.86-33.57l-151.69,1.47a33.75,33.75,0,0,0-33.31,30.64l-9.56,105.36A26.67,26.67,0,0,0,4007,989.2Z"/><path fill="#fefefe" d="M4190,833.36l-87.89,74.36s-5.75,5.56-13.2,5.74c-7.1.17-10.44-2.36-11.66-3.94s-67.52-71.41-67.52-71.41-3.37-1.93-4.53-1-2.88,2.47-1.36,4.84,67.87,73.92,67.87,73.92,9.1,7.82,19.55,5.85,12.84-4.23,20.36-9.83,83.88-73.66,83.88-73.66a4.5,4.5,0,0,0-1.13-4.19C4192.53,832.29,4190,833.36,4190,833.36Z"/><path fill="#fefefe" d="M4116.14,905.77l58.28,65.72s2.16,4.46.43,6.31-4.69.42-6.48-.75-56.18-64.26-56.79-65.15S4116.14,905.77,4116.14,905.77Z"/><path fill="#fefefe" d="M4059.54,899.92l-64.44,75s-3.13,4.29,1,6a6.69,6.69,0,0,0,7-1.07l62.39-74.35Z"/><path fill="#777" d="M3934.81,1900.18l-525.07-1.69a9.54,9.54,0,0,1-9.51-9.56h0a9.54,9.54,0,0,1,9.57-9.51l525.07,1.69a9.53,9.53,0,0,1,9.5,9.56h0A9.54,9.54,0,0,1,3934.81,1900.18Z"/><path fill="#777" d="M3932.45,2635.31l-525.07-1.68a9.53,9.53,0,0,1-9.5-9.57h0a9.52,9.52,0,0,1,9.56-9.5l525.07,1.68a9.54,9.54,0,0,1,9.5,9.57h0A9.53,9.53,0,0,1,3932.45,2635.31Z"/><path fill="#d1dbed" d="M3847.18,2396.49c-21.39-26.06-49.32-43.86-80.2-63.16-22.82-14.26-79.1-49-77.46-75.9-1.47-26.88,55-61.29,77.95-75.41,31-19.1,59.05-36.72,80.6-62.64,20.77-25,34.64-52.85,44.36-81.26,2.87-8.39,29.4-138,22.37-138l-242.53-.78-242.53-.77c-7,0,18.67,129.74,21.48,138.14,9.55,28.48,23.24,56.44,43.84,81.55,21.39,26.06,49.33,43.85,80.2,63.15,22.82,14.27,79.11,49,77.46,75.91,1.47,26.88-55,61.29-77.94,75.4-31,19.11-59.05,36.72-80.61,62.65-20.76,25-34.63,52.84-44.36,81.26-2.87,8.39-29.39,138-22.36,138l242.52.78,242.53.78c7,0-18.66-129.74-21.48-138.15C3881.48,2449.55,3867.79,2421.6,3847.18,2396.49Z" opacity=".7"/><path fill="#99b1da" d="M3761.61,2170.06c29.1-18.3,55.43-35.17,75.67-60,19.49-23.92,32.51-50.61,41.64-77.82.62-1.83,2.38-9.7,4.67-20.73-19.39-.64-39.09.65-58.3,2.73-36.12,3.91-71.88,10.4-108.37,11.13-52,1.05-103-9.6-153.11-20.16l-108.92-23c4.5,24.43,8.84,45.5,9.88,48.66,9,27.27,21.81,54,41.15,78.09,20.07,25,46.29,42,75.28,60.48,21.42,13.66,83.86,47,82.31,72.72l-.65,202.53c-151.85,4.91-191.69,170-191.69,170l198.8.64,198.81.64s-38.78-165.38-190.6-171.27l.65-202.52C3677.45,2216.51,3740.1,2183.58,3761.61,2170.06Z"/><path fill="#b5cae8" d="M3508.57,2476.8c9.73-28.41,23.6-56.28,44.36-81.25,21.56-25.93,49.61-43.55,80.6-62.65,16.3-10,49.55-30.33,66.89-50.88-7-8.4-11.37-16.83-10.9-24.59-.42-7.77,4-16.17,11.06-24.52-17.21-20.67-50.33-41.17-66.56-51.32-30.87-19.3-58.81-37.09-80.2-63.16-20.6-25.1-34.29-53.06-43.84-81.54-2.82-8.41-28.51-138.17-21.48-138.15l-58.76-.18c-7,0,18.67,129.73,21.48,138.14,9.55,28.48,23.24,56.44,43.84,81.55,21.39,26.06,49.33,43.85,80.2,63.15,22.82,14.27,79.11,49,77.46,75.91,1.47,26.88-55,61.29-77.94,75.4-31,19.11-59.05,36.72-80.61,62.65-20.76,25-34.63,52.84-44.36,81.26-2.87,8.39-29.39,138-22.36,138l58.75.19C3479.18,2614.79,3505.7,2485.19,3508.57,2476.8Z" opacity=".5"/><path fill="#fff" d="M3847.18,2396.49c-21.39-26.06-49.32-43.86-80.2-63.16-22.82-14.26-79.1-49-77.46-75.9-1.47-26.88,55-61.29,77.95-75.41,31-19.1,59.05-36.72,80.6-62.64,20.77-25,34.64-52.85,44.36-81.26,2.87-8.39,29.4-138,22.37-138l-9.48,0c7,0-19.49,129.62-22.36,138-9.73,28.41-23.6,56.28-44.36,81.26C3817,2145.27,3789,2162.89,3758,2182c-22.91,14.12-79.42,48.53-77.95,75.41-1.64,26.86,54.64,61.64,77.47,75.9,30.87,19.3,58.81,37.1,80.2,63.16,20.6,25.11,34.29,53.06,43.83,81.54,2.82,8.41,28.51,138.17,21.48,138.15l9.48,0c7,0-18.66-129.74-21.48-138.15C3881.48,2449.55,3867.79,2421.6,3847.18,2396.49Z" opacity=".5"/><path fill="#3d5891" d="M3390.36,1916.61a33.78,33.78,0,0,1,19.51-61.43l525.08,1.68a33.79,33.79,0,0,1-.22,67.57l-525.07-1.69A33.57,33.57,0,0,1,3390.36,1916.61Z"/><path fill="#3d5891" d="M3388,2651.75a33.79,33.79,0,0,1,19.52-61.44l525.07,1.68a33.79,33.79,0,0,1-.22,67.57l-525.07-1.69A33.64,33.64,0,0,1,3388,2651.75Z"/><path fill="#5681bf" d="M2990.57,2656.89H1895.64a48.73,48.73,0,0,1-47.92-39.85l-8.35-45.08-86-464.44a30.82,30.82,0,0,1,30.13-36.85h723.78a32.59,32.59,0,0,1,31.49,24.19l138.5,518.92s249.35,14.91,278.37,16.27S2990.57,2656.89,2990.57,2656.89Z"/><path fill="#99b1da" d="M2108.66,2466.85c-126.26,74.53-218.33,98-269.29,105.11l-86-464.44a30.82,30.82,0,0,1,30.13-36.85h453.72C2250.73,2171.2,2258,2378.7,2108.66,2466.85Z" opacity=".3"/><path fill="#3d5891" d="M2677.27,2613.78h-36.69s-116.86-442.24-134.31-497.8c-6.94-22.09-13.88-36.26-19.75-45.31h20.76a32.59,32.59,0,0,1,31.49,24.19Z"/><ellipse cx="2176.61" cy="2374.28" fill="#fff" rx="80.22" ry="100.9" transform="rotate(-9.07 2176.905 2374.566)"/><path fill="#2e6857" d="M1224.57,2360.1s-98.7-65.89-128.42-130-49.94-149.7-44-156.17,193.34,150.67,237.58,287Z"/><path fill="#234f41" d="M1064.79,2095.47c31.6,43.54,61.32,87.89,92.49,131.19q23,32.7,47.58,64.2c16.51,20.87,33.21,41.59,52.56,60.32-22.84-14.53-42.22-33.88-60.38-53.75-9.3-9.83-17.55-20.49-26.2-30.85-8.2-10.68-16.4-21.38-24.21-32.33-15.55-22-30.37-44.43-44-67.59S1075.94,2120,1064.79,2095.47Z"/><path fill="#2e6857" d="M1309,2359.75s-52.32-155.56-58.26-248.26,15.46-210.22,29.13-213.78,173,283,51.73,462Z"/><path fill="#234f41" d="M1285.23,1919.14c9.46,34.9,17.13,70.25,23.45,105.83,3.35,17.76,5.91,35.65,8.7,53.51,2.41,17.92,4.74,35.85,6.64,53.84s3.23,36,4.56,54.09c.75,18.1,1.89,36.17,1.64,54.32,0,36.18-1.92,72.7-9.78,108.07.34-9.06.78-18.06,1.39-27,.21-9,0-18,.05-27,.24-9-.47-18-.65-26.92l-.41-13.44L1320,2241c-2-35.83-5.15-71.62-9-107.34-3.55-35.76-8-71.46-12.4-107.19Z"/><path fill="#6fc183" d="M1309,2359.75s-29.72-111.84,26.16-199.68,129.2-181.57,137.14-179.82-24.17,281.21-140.7,379.5Z"/><path fill="#234f41" d="M1465.44,1997.47c-11.27,29.93-23.18,59.49-35.24,89l-36.37,88.29-36.62,88.15c-12.18,29.41-24.15,58.89-36.77,88.3,7.44-31.11,16.79-61.71,27.21-91.91s21.92-60,34.09-89.54c12.39-29.43,25.25-58.66,39.16-87.41S1449.28,2025.09,1465.44,1997.47Z"/><path fill="#40947e" d="M1319.09,2354.75s41.62-114.33,116.53-156.29,151-76.17,161.72-69.75-39.24,145.81-255.65,231Z"/><path fill="#234f41" d="M1579.56,2144c-20.19,17.34-40.44,34.35-60.7,51.34s-40.54,33.89-60.58,51.08l-60.42,51.27c-20.21,17.06-40.15,34.42-60.95,51.08a745.39,745.39,0,0,1,54-58.59c18.83-18.77,38.68-36.45,58.88-53.73,20.33-17.1,41.19-33.59,62.77-49.12S1556.24,2157,1579.56,2144Z"/><path fill="#6fc183" d="M1358.22,2356.75s43.67-67.29,116.21-78,111.77-22.56,114.15-16.62-77.29,86-147.45,97.59S1358.22,2356.75,1358.22,2356.75Z"/><path fill="#234f41" d="M1375.83,2355c14.76-8.42,29.89-15.78,45.15-22.79s30.68-13.59,46.11-20.08c15.54-6.26,31.06-12.52,46.76-18.36s31.43-11.56,47.51-17c-13.56,10.32-28.37,18.64-43.36,26.37s-30.39,14.62-45.92,21.12c-15.61,6.29-31.34,12.29-47.37,17.45A428.87,428.87,0,0,1,1375.83,2355Z"/><path fill="#40947e" d="M1282.83,2353.57s-79.67-68.24-105.82-175.39-36.87-206.83-28.54-206.25,166.72,181.45,164.81,383Z"/><path fill="#234f41" d="M1157.53,1997.47c12.08,28.81,23.44,57.78,34.63,86.79l33.46,87q16.61,43.51,33.79,86.77c11.61,28.79,23.32,57.5,36.06,86-17.53-25.91-32-53.76-45.42-82s-25.31-57.1-36.65-86.16c-11.1-29.16-21.49-58.57-30.84-88.31S1164.45,2027.94,1157.53,1997.47Z"/><path fill="#6fc183" d="M1264,2356.75s-43.67-67.29-116.2-78-111.77-22.56-114.15-16.62,77.29,86,147.44,97.59S1264,2356.75,1264,2356.75Z"/><path fill="#234f41" d="M1246.39,2355c-14.77-8.42-29.9-15.78-45.16-22.79s-30.67-13.59-46.11-20.08c-15.53-6.26-31-12.52-46.75-18.36s-31.44-11.56-47.51-17c13.55,10.32,28.37,18.64,43.35,26.37s30.4,14.62,45.92,21.12c15.62,6.29,31.34,12.29,47.38,17.45A427.74,427.74,0,0,0,1246.39,2355Z"/><path fill="#f3ce90" d="M1139.24,2349.72V2543c0,58.92,48.29,107.13,107.31,107.13h118.33c59,0,107.3-48.21,107.3-107.13V2349.72Z"/><g clip-path="url(#c)"><path fill="#fff" d="M1491.65,2430.19,1459.48,2466l-32.17-35.82c-3.1-3.45-9.55-3.45-12.65,0L1382.52,2466l-32.11-35.81c-3.1-3.45-9.55-3.45-12.65,0L1305.63,2466l-32.13-35.81c-3.1-3.45-9.55-3.45-12.64,0q-16.06,17.91-32.12,35.81l-32.13-35.81c-3.1-3.45-9.55-3.45-12.64,0q-16,17.91-32.11,35.8l-32.09-35.8c-7.69-8.58-20.3,4.08-12.64,12.63q19.2,21.42,38.41,42.85c3.1,3.46,9.55,3.45,12.64,0q16.07-17.9,32.11-35.8l32.12,35.8c3.1,3.46,9.55,3.45,12.65,0l32.12-35.8,32.12,35.8c3.1,3.46,9.55,3.45,12.65,0l32.13-35.8,32.12,35.8c3.09,3.46,9.54,3.45,12.64,0l32.15-35.81,32.17,35.81c3.1,3.46,9.55,3.45,12.65,0l38.49-42.85C1512,2434.29,1499.36,2421.62,1491.65,2430.19Z"/></g><path fill="#f19a6d" d="M1396.08,2349.72V2543c0,58.92-48.28,107.13-107.3,107.13h76.1c59,0,107.3-48.21,107.3-107.13V2349.72Z" opacity=".5"/><path fill="#ef7c59" d="M3521.52,1442H3264.37a39.32,39.32,0,0,0-39.32,39.32v326.26c0,12.42,15.47,18.11,23.51,8.65l30.43-35.76h242.53a39.33,39.33,0,0,0,39.32-39.32V1481.32A39.33,39.33,0,0,0,3521.52,1442Z"/><path fill="#fff" d="M3363.42,1684.16c33.93.58,68.28,1,99.48-1.12,9.89-.68,18.42-16.37,6.42-21.33,5-2.59,10.17-5.08,12.37-10.74,2.09-5.36-.42-12.63-6-14,11.77,2.92,16.41-15.76,7.23-21.79,4.85-4.13,8.9-9.6,9.92-15.9s-1.55-13.41-7.16-16.47c-3.67-2-8-2.08-12.23-2.11l-42.33-.31c3.82-22.08,5-46.15-6.25-65.54-3.38-5.84-12.46-12.84-19.67-8.35-6.76,4.21-4.88,14.69-4.54,21.3,1.41,27.46-14.22,55.09-38.49,68C3362.17,1595.81,3363.78,1654.32,3363.42,1684.16Z"/><rect width="51.28" height="88.27" x="3299.84" y="1595.81" fill="#fff"/><path fill="#ef7c59" d="M2075.82,831c-108.16-68-140.69-210.88-72.65-319s210.88-140.69,319-72.65,140.69,210.88,72.65,319.05q-3.3,5.24-6.82,10.22l33.19,131.69L2316.57,834.4A231.33,231.33,0,0,1,2075.82,831Z"/><polygon fill="#fff" points="2365.18 585.65 2169.02 781.82 2032.86 645.66 2076.07 602.46 2169.02 695.41 2321.97 542.45 2365.18 585.65"/><path fill="#5681bf" d="M1169.21,784.52a171.85,171.85,0,0,0,14.91,9q8.09,4.37,10.71,6.93t2.62,7.3q0,3.36-3.09,6.72a9.85,9.85,0,0,1-7.51,3.36,21.84,21.84,0,0,1-8.67-2.31,98.41,98.41,0,0,1-12-6.72q-6.87-4.41-15.07-10.29-15.23,7.77-37.38,7.77-18,0-32.18-5.72a63.28,63.28,0,0,1-23.89-16.49,71,71,0,0,1-14.54-25.57,102.22,102.22,0,0,1-4.89-32.24,99.38,99.38,0,0,1,5.1-32.55,69.75,69.75,0,0,1,14.75-25.2,63.87,63.87,0,0,1,23.52-15.91q13.86-5.51,31.5-5.51,23.94,0,41.11,9.71a63,63,0,0,1,26,27.62q8.82,17.91,8.82,42.06Q1189.05,763.11,1169.21,784.52Zm-24.47-17a47.48,47.48,0,0,0,9.61-17.64,81.54,81.54,0,0,0,3.1-23.63q0-16.89-5.46-29.29t-15.6-18.75a42.9,42.9,0,0,0-23.26-6.35,42,42,0,0,0-17.27,3.52,37.93,37.93,0,0,0-13.65,10.24,48.72,48.72,0,0,0-9,17.17,77.4,77.4,0,0,0-3.31,23.46q0,26.58,12.39,40.9a39.58,39.58,0,0,0,31.29,14.34,43.07,43.07,0,0,0,16-3.26,81.51,81.51,0,0,0-12.33-7.35A79,79,0,0,1,1107,765.2a6.6,6.6,0,0,1-2.73-5.67,7.37,7.37,0,0,1,2.63-5.56,8.35,8.35,0,0,1,5.77-2.42Q1122.26,751.55,1144.74,767.51Z"/><path fill="#5681bf" d="M1215.93,740V666q0-9.45,4.26-14.17a14.32,14.32,0,0,1,11.18-4.73q7.25,0,11.5,4.73t4.25,14.17v75.71q0,12.92,2.89,21.58a24.89,24.89,0,0,0,10.24,13.44q7.35,4.78,20.58,4.78,18.27,0,25.83-9.71t7.56-29.46V666q0-9.56,4.2-14.23a14.39,14.39,0,0,1,11.24-4.67,14.87,14.87,0,0,1,11.39,4.67q4.35,4.68,4.36,14.23v74q0,18.06-3.52,30.14a46.56,46.56,0,0,1-13.28,21.21,51.71,51.71,0,0,1-19.54,11.34q-11.13,3.57-26,3.57-17.74,0-30.55-3.83t-20.9-11.87A47.78,47.78,0,0,1,1219.71,770Q1215.93,757.44,1215.93,740Z"/><path fill="#5681bf" d="M1466.9,786.2l-7.35-19.32H1397l-7.36,19.74q-4.3,11.57-7.35,15.6t-10,4a14.64,14.64,0,0,1-10.4-4.31,13.15,13.15,0,0,1-4.51-9.76,21.78,21.78,0,0,1,1-6.51q1-3.36,3.46-9.35l39.38-100,4-10.35a52.94,52.94,0,0,1,5-10,20.45,20.45,0,0,1,7-6.46,21.49,21.49,0,0,1,10.76-2.47,21.74,21.74,0,0,1,10.87,2.47,20.85,20.85,0,0,1,7,6.35,44.4,44.4,0,0,1,4.51,8.35q1.85,4.47,4.67,11.92l40.22,99.33q4.72,11.34,4.73,16.49,0,5.35-4.47,9.82a14.67,14.67,0,0,1-10.76,4.46,14,14,0,0,1-6.3-1.31,13,13,0,0,1-4.41-3.57,32.89,32.89,0,0,1-3.83-6.93Q1468.36,789.77,1466.9,786.2Zm-61.74-42.73h46l-23.21-63.53Z"/><path fill="#5681bf" d="M1553.64,666V778h63.21q7.56,0,11.6,3.68a12,12,0,0,1,4,9.24,11.68,11.68,0,0,1-4,9.19q-4,3.51-11.66,3.52h-75.29q-10.18,0-14.65-4.52t-4.46-14.6V666q0-9.45,4.25-14.17a14.33,14.33,0,0,1,11.18-4.73,14.9,14.9,0,0,1,11.4,4.67Q1553.63,656.42,1553.64,666Z"/><path fill="#5681bf" d="M1654.23,787.25V666q0-9.45,4.31-14.17a14.37,14.37,0,0,1,11.13-4.73,14.86,14.86,0,0,1,11.39,4.67q4.37,4.68,4.36,14.23V787.25q0,9.56-4.36,14.29a14.76,14.76,0,0,1-11.39,4.72,14.32,14.32,0,0,1-11.08-4.78Q1654.23,796.71,1654.23,787.25Z"/><path fill="#5681bf" d="M1820.25,675.42h-34V787.25q0,9.68-4.31,14.34a14.46,14.46,0,0,1-11.13,4.67,14.66,14.66,0,0,1-11.29-4.72q-4.35-4.72-4.36-14.29V675.42h-34q-8,0-11.86-3.52a13.06,13.06,0,0,1,.15-18.74q4-3.46,11.71-3.47h99.13q8.09,0,12,3.58a12,12,0,0,1,3.94,9.34,11.77,11.77,0,0,1-4,9.29Q1828.23,675.43,1820.25,675.42Z"/><path fill="#5681bf" d="M1889,787.25V738.43l-37.6-58.28a122.94,122.94,0,0,1-7-12.29,18.81,18.81,0,0,1-2-7.66,12.26,12.26,0,0,1,4.15-9.24,14.43,14.43,0,0,1,10.24-3.89q6.4,0,9.71,3.62t9.93,14.44l28.77,46.73,29.09-46.73q2.61-4.3,4.41-7.24a44.7,44.7,0,0,1,3.93-5.52,15.8,15.8,0,0,1,4.78-3.93,13.77,13.77,0,0,1,6.41-1.37,13.51,13.51,0,0,1,9.81,3.83,12,12,0,0,1,3.94,8.88,18.55,18.55,0,0,1-2,8.19,106.49,106.49,0,0,1-6.83,11.34l-38.54,59.12v48.82q0,9.56-4.41,14.29a15.79,15.79,0,0,1-22.47.05Q1889,796.91,1889,787.25Z"/></g></svg>