<svg xmlns="http://www.w3.org/2000/svg" viewBox="0 0 48 48"><path fill="#FFD15C" d="M31.2 35.3c.8-1.8 1.9-3.5 3.2-5 2.4-2.6 3.7-6.1 3.6-10-.3-7.2-6.2-13.2-13.4-13.5-8.1-.4-14.8 6.1-14.8 14 0 3.6 1.3 6.9 3.6 9.3 1.4 1.5 2.4 3.2 3.2 5h14.6z"/><path fill="#415A6B" d="M19.6 45.4C20.5 47 22.1 48 24 48s3.5-1 4.4-2.6h-8.8z"/><path fill="#CED6E0" d="M31.4 43.9v-8.6H16.6v8.6c0 1 .8 1.9 1.9 1.9h11c1-.1 1.9-.9 1.9-1.9z"/><path fill="#F3F3F3" d="M14.7 37c-.1-.9.6-1.6 1.4-1.7L31.7 34c.9-.1 1.6.6 1.7 1.4L14.7 37z"/><path fill="#E8EAE9" d="M33.4 35.4c.1.9-.6 1.6-1.4 1.7l-15.6 1.4c-.9.1-1.6-.6-1.7-1.4"/><path fill="#F3F3F3" d="M14.7 42.3c-.1-.9.6-1.6 1.4-1.7l15.6-1.4c.9-.1 1.6.6 1.7 1.4l-18.7 1.7z"/><path fill="#E8EAE9" d="M33.4 40.6c.1.9-.6 1.6-1.4 1.7l-15.6 1.4c-.9.1-1.6-.6-1.7-1.4"/><path fill="#FFF" d="M33.6 22.7v-3.1l-2.9-.4c-.1-.5-.3-.9-.6-1.3l1.7-2.4-2.2-2.2-2.4 1.7c-.4-.2-.9-.4-1.3-.6l-.4-2.9h-3.1l-.4 2.9c-.5.1-.9.3-1.3.6l-2.4-1.7-2.2 2.2 1.7 2.4c-.2.4-.4.9-.6 1.3l-2.9.4v3.1l2.9.4c.1.5.3.9.6 1.3l-1.7 2.4 2.2 2.2 2.4-1.7c.4.2.9.4 1.3.6l.4 2.9h3.1l.4-2.9c.5-.1.9-.3 1.3-.6l2.4 1.7 2.2-2.2-1.7-2.4c.2-.4.4-.9.6-1.3l2.9-.4zM24 24.2c-1.7 0-3.1-1.4-3.1-3.1 0-1.7 1.4-3.1 3.1-3.1 1.7 0 3.1 1.4 3.1 3.1 0 1.7-1.4 3.1-3.1 3.1z"/><path fill="#FFD15C" d="M24 4.9c-.7 0-1.2-.5-1.2-1.2V1.2c0-.7.5-1.2 1.2-1.2.6 0 1.2.5 1.2 1.2v2.6c0 .6-.5 1.1-1.2 1.1zM16 7c-.6.4-1.3.2-1.6-.4l-1.3-2.2c-.3-.6-.1-1.3.4-1.6h.1c.6-.3 1.3-.1 1.6.4l1.3 2.2c.2.6.1 1.3-.5 1.6zM10.1 12.9c-.4.6-1.1.8-1.6.5l-2.2-1.3c-.6-.3-.7-1-.4-1.6v-.1c.3-.6 1-.7 1.6-.4l2.2 1.3c.5.3.7 1 .4 1.6zM7.9 20.9c0 .7-.5 1.2-1.2 1.2H4.2c-.6 0-1.2-.5-1.2-1.2v-.1c0-.6.5-1.2 1.2-1.2h2.6c.6.1 1.1.7 1.1 1.3zM10.1 28.9c.4.6.2 1.3-.4 1.6l-2.2 1.3c-.6.3-1.3.1-1.6-.4v-.1c-.3-.6-.1-1.3.4-1.6l2.2-1.3c.5-.2 1.3 0 1.6.5zM37.9 29c.4-.6 1.1-.8 1.6-.5l2.2 1.3c.6.3.7 1 .4 1.6v.1c-.3.6-1 .7-1.6.4l-2.2-1.3c-.5-.3-.7-1-.4-1.6zM40.1 21c0-.7.5-1.2 1.2-1.2h2.6c.6 0 1.2.5 1.2 1.2 0 .6-.5 1.2-1.2 1.2h-2.6c-.7-.1-1.2-.6-1.2-1.2zM37.9 12.9c-.4-.6-.2-1.3.4-1.6l2.2-1.3c.6-.3 1.3-.1 1.6.4v.1c.3.6.1 1.3-.4 1.6l-2.2 1.3c-.5.3-1.3.1-1.6-.5zM32.1 7c-.6-.4-.8-1.1-.5-1.6l1.3-2.2c.3-.6 1-.7 1.6-.4h.1c.6.3.7 1 .4 1.6l-1.3 2.2c-.4.6-1.1.8-1.6.4z"/></svg>